<?xml version="1.0" standalone="no"?>
<!DOCTYPE svg PUBLIC "-//W3C//DTD SVG 20010904//EN"
 "http://www.w3.org/TR/2001/REC-SVG-20010904/DTD/svg10.dtd">
<svg version="1.0" xmlns="http://www.w3.org/2000/svg"
 width="520.000000pt" height="643.000000pt" viewBox="0 0 520.000000 643.000000"
 preserveAspectRatio="xMidYMid meet">
<metadata>
Created by potrace 1.16, written by Peter Selinger 2001-2019
</metadata>
<g transform="translate(0.000000,643.000000) scale(0.100000,-0.100000)"
fill="#000000" stroke="none">
<path d="M32 3218 l3 -3203 2565 0 2565 0 1 3195 c1 2307 -2 3197 -10 3202 -6
4 -1162 7 -2568 8 l-2558 0 2 -3202z m215 3147 c12 -22 23 -44 23 -50 0 -5
-16 -20 -35 -33 -20 -12 -44 -36 -54 -53 l-19 -30 -51 96 c-28 52 -51 100 -51
106 0 6 31 9 82 7 l82 -3 23 -40z m243 37 c0 -5 -7 -30 -16 -56 -13 -37 -20
-46 -33 -40 -9 3 -39 9 -68 11 -45 5 -53 9 -61 32 -6 14 -13 34 -17 44 -7 15
2 17 94 17 56 0 101 -4 101 -8z m263 -4 c28 -14 57 -69 57 -108 -1 -54 -39
-120 -84 -143 -32 -17 -43 -18 -76 -8 -111 33 -167 174 -99 247 18 20 30 22
102 22 45 0 90 -5 100 -10z m328 -4 c24 -22 25 -87 1 -134 -18 -37 -82 -80
-120 -80 -34 0 -92 58 -102 103 -10 45 4 102 27 115 9 5 52 10 96 11 62 1 84
-2 98 -15z m409 4 c0 -5 -19 -43 -41 -84 l-42 -75 -17 40 c-10 21 -30 47 -44
56 -29 19 -33 37 -12 58 16 16 156 20 156 5z m231 5 c4 -1 -28 -61 -71 -133
-43 -71 -80 -134 -82 -140 -2 -7 -20 -4 -48 9 -25 11 -55 21 -68 21 -20 0 -22
4 -17 23 11 33 107 211 119 219 10 7 154 8 167 1z m188 -52 c-1 -55 18 -119
45 -151 11 -13 -5 -38 -115 -181 l-129 -167 -48 26 -48 25 4 58 c2 32 -1 72
-7 90 -10 29 -7 38 46 128 31 53 76 126 99 162 l43 67 55 0 56 -1 -1 -56z
m372 54 c27 -9 25 -79 -4 -130 -32 -56 -79 -85 -138 -85 -103 0 -179 59 -179
140 0 75 1 75 161 78 78 1 150 0 160 -3z m574 -231 c62 -128 116 -242 119
-252 10 -30 -53 -121 -84 -122 -14 0 -45 -9 -69 -20 -24 -11 -45 -19 -46 -18
-1 2 -15 23 -30 48 -16 25 -108 167 -207 316 -98 150 -178 274 -178 277 0 3
86 5 191 5 l191 0 113 -234z m183 222 c18 -23 172 -413 172 -435 0 -18 -4 -22
-17 -16 -41 17 -110 17 -142 0 -18 -9 -34 -15 -36 -13 -12 11 -233 467 -229
471 11 11 244 5 252 -7z m377 3 c6 -7 46 -371 41 -377 -3 -2 -11 0 -19 6 -23
20 -95 30 -135 20 -20 -5 -43 -10 -50 -11 -7 -1 -42 68 -87 177 -41 98 -75
182 -75 187 0 7 317 5 325 -2z m411 -2 c2 -2 -1 -19 -5 -38 -5 -19 -26 -106
-47 -193 -29 -127 -39 -156 -48 -144 -21 28 -81 58 -117 58 -22 0 -50 -10 -73
-25 l-36 -24 0 22 c-1 12 -9 94 -19 182 -10 88 -17 162 -15 165 2 5 355 3 360
-3z m322 -6 c2 -6 -37 -95 -87 -197 -87 -178 -91 -185 -112 -173 -14 7 -48 10
-91 7 -51 -4 -68 -2 -65 7 3 6 20 91 39 188 l33 176 40 3 c87 6 240 -1 243
-11z m282 -23 c0 -19 -24 -69 -67 -139 -38 -61 -91 -147 -118 -192 l-50 -82
-67 -5 c-42 -3 -73 -11 -85 -22 -18 -16 -19 -15 -31 23 -12 40 -12 42 85 244
l97 204 105 3 c58 2 112 1 119 -1 6 -2 12 -16 12 -33z m308 -20 c3 -42 -1 -51
-31 -84 -28 -31 -41 -37 -83 -41 -29 -2 -59 2 -74 9 -31 16 -70 91 -70 135 l0
34 128 -3 127 -3 3 -47z m-3438 -53 c62 -32 76 -93 40 -165 -20 -39 -79 -80
-115 -80 -52 0 -114 74 -115 138 0 34 38 102 63 112 34 14 95 11 127 -5z
m-830 -63 c40 -39 46 -57 40 -122 -3 -36 -25 -74 -60 -104 -82 -69 -217 3
-227 121 -7 89 48 143 148 143 54 0 61 -3 99 -38z m4067 -41 c12 -6 44 -11 72
-11 l51 0 0 -38 c0 -36 -5 -42 -102 -119 -57 -45 -141 -116 -187 -157 -46 -41
-87 -73 -91 -71 -4 3 -10 20 -13 40 -3 19 -15 48 -25 63 l-20 27 85 125 c46
69 96 146 111 172 l27 47 35 -33 c19 -19 45 -39 57 -45z m358 65 c121 -51 81
-236 -50 -236 -25 0 -59 7 -74 15 -59 30 -83 151 -38 192 50 46 100 55 162 29z
m-2489 -62 c45 -21 92 -79 100 -122 15 -76 -53 -181 -125 -195 -84 -17 -201
45 -215 114 -14 73 40 165 119 200 50 23 77 24 121 3z m-1507 -66 c6 -17 11
-99 11 -182 l0 -152 -46 1 c-55 1 -52 -3 -114 166 l-46 126 47 22 c27 12 58
35 69 51 20 28 22 29 45 14 13 -8 28 -29 34 -46z m169 -1 c6 -18 27 -48 46
-66 l33 -32 -39 -107 c-58 -157 -63 -165 -105 -179 -21 -6 -40 -9 -42 -7 -7 6
-19 209 -20 317 l-1 87 33 0 c17 0 39 5 47 10 25 16 35 11 48 -23z m1044 3
c26 0 26 -1 16 -31 -10 -29 -6 -108 8 -156 5 -17 -4 -28 -53 -62 -32 -22 -114
-81 -183 -132 l-125 -91 -6 64 c-4 34 -10 72 -13 83 -6 16 12 47 80 135 48 63
106 138 131 166 l43 52 38 -14 c20 -7 49 -13 64 -14z m-1489 -30 c29 0 54 -36
71 -100 10 -36 33 -100 51 -144 27 -60 32 -83 24 -97 -11 -22 -14 -23 -42 -8
-27 15 -74 14 -92 -1 -8 -7 -18 -9 -24 -6 -5 3 -41 53 -81 111 l-71 105 35 41
c19 23 40 62 47 89 l12 49 28 -20 c15 -10 34 -19 42 -19z m917 -28 c53 -54 45
-163 -18 -212 -65 -51 -173 9 -189 105 -12 77 43 135 130 135 40 0 54 -5 77
-28z m-1344 -36 c38 -37 44 -49 44 -84 0 -57 -27 -118 -63 -144 -30 -21 -101
-29 -125 -14 -13 8 -18 267 -5 279 3 4 29 7 56 7 45 0 53 -4 93 -44z m4518 -7
c16 -17 40 -35 53 -40 19 -7 23 -14 18 -32 -21 -67 -19 -65 -288 -209 l-58
-31 -27 25 c-15 14 -36 30 -46 35 -17 9 -6 21 89 99 60 49 134 110 164 136 31
26 58 47 61 48 3 0 18 -14 34 -31z m-1061 -3 c45 -19 68 -48 74 -95 9 -70 -46
-121 -130 -121 -69 0 -112 102 -72 175 27 52 70 66 128 41z m-2378 -50 c-4
-17 -2 -43 3 -57 9 -23 1 -40 -70 -148 l-81 -123 -13 28 c-8 16 -19 36 -25 45
-10 13 -4 37 31 125 66 166 61 159 114 160 l46 2 -5 -32z m2140 9 c44 -25 55
-46 55 -103 0 -68 -101 -128 -162 -96 -73 38 -77 171 -7 210 36 20 67 17 114
-11z m1609 -10 c31 -21 46 -57 46 -111 0 -39 -5 -51 -34 -80 -30 -30 -40 -34
-89 -34 -75 0 -111 30 -127 104 -14 69 0 102 55 128 45 21 110 18 149 -7z
m-1103 0 c36 -19 69 -70 69 -108 0 -38 -28 -77 -67 -93 -90 -38 -153 4 -153
101 0 45 5 58 29 84 33 35 73 41 122 16z m-3539 -45 l47 0 74 -111 c87 -129
91 -155 25 -161 -32 -3 -48 2 -73 22 -18 14 -72 52 -119 85 -47 33 -86 65 -86
71 0 6 9 33 21 59 17 39 24 46 42 41 12 -3 43 -6 69 -6z m2807 -46 c81 -68 21
-204 -90 -204 -98 0 -141 129 -66 197 45 42 111 45 156 7z m1004 -7 c86 -81
37 -197 -83 -197 -63 0 -107 85 -79 153 34 82 103 100 162 44z m-1978 -17 c22
-11 47 -20 57 -20 15 0 11 -7 -17 -35 -48 -49 -75 -105 -75 -159 l0 -45 -52
-19 c-29 -11 -102 -38 -162 -61 -60 -23 -112 -41 -116 -41 -5 0 -17 14 -28 31
-10 17 -32 39 -47 49 l-28 18 81 59 c44 32 132 96 196 142 64 46 119 87 122
92 8 14 26 11 69 -11z m-803 -60 l35 -10 -11 -41 c-9 -35 -24 -50 -108 -114
l-98 -73 -33 32 -34 31 80 118 80 118 27 -26 c15 -14 43 -30 62 -35z m249 24
c80 -41 76 -186 -5 -240 -83 -53 -212 77 -171 172 30 70 112 101 176 68z
m3112 -17 c8 -18 31 -47 51 -65 l36 -32 -22 -34 c-19 -28 -43 -43 -123 -77
-55 -23 -125 -55 -155 -70 -50 -24 -57 -26 -75 -12 -11 8 -26 18 -32 22 -10 5
-9 15 6 44 15 29 17 45 11 68 -8 25 -5 32 17 47 31 20 255 139 265 141 4 0 14
-14 21 -32z m-2293 1 c70 -48 96 -114 74 -187 -30 -102 -130 -148 -232 -105
-110 46 -134 152 -54 244 61 72 148 91 212 48z m1098 -47 c25 -7 28 -13 39
-87 17 -114 18 -110 -29 -133 -40 -19 -44 -20 -55 -4 -12 16 -31 73 -59 182
-13 49 -13 56 2 72 16 18 18 18 46 -2 16 -12 41 -24 56 -28z m196 -134 c-12
-55 -27 -104 -32 -109 -7 -7 -19 -4 -35 8 -20 15 -28 33 -37 89 -7 39 -15 86
-20 106 -9 45 -1 60 42 75 32 10 35 9 69 -29 l35 -40 -22 -100z m-3435 78
l102 -75 -16 -31 c-9 -17 -17 -44 -17 -60 -1 -23 -6 -29 -22 -29 -26 0 -116
42 -223 104 -78 45 -79 46 -75 81 3 28 8 35 26 35 12 0 42 11 66 24 25 13 48
24 51 25 3 0 52 -33 108 -74z m3663 -1 c8 -18 2 -39 -34 -110 -24 -49 -49
-104 -56 -121 -13 -39 -37 -43 -46 -7 -4 14 -20 33 -36 42 -35 20 -35 19 -13
134 l17 88 35 0 c20 0 52 8 71 18 34 17 35 17 44 -3 4 -11 13 -30 18 -41z
m-677 -79 c61 -132 63 -155 11 -155 -30 0 -42 10 -108 88 l-75 88 36 20 c20
10 43 33 51 51 8 18 18 32 22 30 5 -1 33 -56 63 -122z m128 19 l25 -91 -31
-11 c-17 -6 -32 -10 -33 -9 -4 4 -94 198 -94 202 0 6 94 11 102 5 4 -3 18 -46
31 -96z m-477 62 c23 -23 34 -43 34 -62 0 -64 -72 -134 -138 -134 -49 0 -102
55 -102 104 0 78 49 125 129 126 36 0 49 -6 77 -34z m1402 -1 c57 -48 50 -120
-15 -150 -72 -35 -143 -1 -143 68 0 31 7 46 34 73 42 42 82 45 124 9z m664 -7
c103 -31 111 -179 13 -227 -62 -30 -140 -9 -169 47 -41 80 -28 139 37 171 48
24 65 25 119 9z m-900 -64 c26 5 28 3 28 -28 0 -29 -13 -46 -92 -124 l-92 -91
-23 21 c-27 26 -27 28 34 154 l45 92 36 -15 c19 -8 48 -12 64 -9z m-2622 -86
c20 -7 22 -6 -125 -75 l-130 -61 -21 26 c-37 45 -21 73 81 144 l89 63 46 -46
c25 -25 52 -49 60 -51z m1582 80 c8 -7 47 -50 86 -94 67 -77 70 -83 53 -98
-19 -17 -47 -21 -55 -8 -3 5 -43 32 -90 61 l-85 52 19 32 c11 18 20 40 20 50
0 20 29 23 52 5z m-2979 -39 c23 -12 74 -40 112 -62 39 -23 71 -41 72 -42 7
-3 -34 -74 -42 -74 -5 -1 -57 14 -115 32 -104 33 -105 34 -108 67 -3 27 23
100 36 100 1 0 22 -10 45 -21z m4708 -41 c6 -24 20 -55 30 -70 l20 -27 -58
-17 c-32 -9 -113 -31 -181 -49 -118 -30 -122 -31 -116 -11 4 12 8 37 8 56 l2
34 133 57 c73 32 135 60 139 63 9 10 11 7 23 -36z m-2631 -17 c5 -11 26 -29
45 -41 l36 -22 -34 -24 c-41 -28 -74 -79 -82 -131 -13 -74 -9 -71 -83 -67 -37
2 -120 7 -185 10 l-117 6 25 29 c22 27 29 50 37 117 3 20 22 30 162 78 88 30
162 56 164 59 10 10 22 5 32 -14z m2010 11 c0 -4 14 -16 30 -25 25 -15 28 -21
19 -38 -5 -11 -11 -38 -12 -60 -1 -40 -3 -41 -67 -71 -112 -52 -138 -59 -165
-46 -14 6 -25 15 -25 20 0 12 199 228 211 228 5 0 9 -4 9 -8z m-2450 -40 c54
-55 49 -156 -11 -206 -56 -48 -140 -23 -180 54 -27 49 -24 92 8 130 32 39 55
49 111 49 35 1 49 -5 72 -27z m1041 -9 c36 -22 53 -63 44 -109 -9 -51 -30 -79
-72 -99 -74 -35 -153 17 -153 102 0 24 7 55 16 69 35 52 110 69 165 37z m247
-22 c31 -21 81 -51 110 -66 30 -16 52 -35 52 -44 -1 -22 -74 -54 -102 -45 -13
4 -66 12 -118 18 l-95 11 -3 55 c-3 55 -3 56 32 68 19 7 40 19 46 27 7 8 14
15 16 15 2 0 30 -17 62 -39z m1400 17 c19 -22 42 -68 42 -88 0 -22 -54 -70
-86 -76 -64 -12 -114 23 -114 81 0 84 105 139 158 83z m-2941 -40 c-2 -18 0
-48 4 -66 6 -28 4 -33 -15 -37 -37 -8 -246 -42 -246 -40 0 2 7 16 15 31 11 21
45 44 127 86 62 31 114 57 116 57 2 1 1 -14 -1 -31z m-1057 -8 c24 -24 26 -60
5 -99 -15 -30 -33 -41 -69 -41 -30 0 -66 35 -66 66 0 30 24 80 42 87 29 12 69
6 88 -13z m2001 -6 c41 -20 89 -99 89 -143 0 -47 -33 -112 -71 -140 -88 -65
-252 -13 -272 86 -14 68 38 163 108 198 39 19 108 19 146 -1z m-2284 -44 c59
-21 98 -41 107 -54 13 -20 11 -25 -18 -57 l-33 -35 -74 7 c-41 4 -82 8 -91 8
-16 1 -18 12 -18 87 0 78 2 86 18 81 9 -3 59 -20 109 -37z m4932 -6 c71 -60
55 -174 -29 -208 -50 -20 -73 -20 -114 -1 -40 19 -63 58 -71 121 -7 48 -6 51
29 82 32 28 44 32 96 32 48 0 64 -4 89 -26z m-254 -14 c-8 -16 -15 -45 -15
-64 0 -24 -5 -36 -17 -40 -40 -12 -276 -66 -278 -64 -11 17 -45 91 -43 93 6 6
338 103 356 104 9 1 9 -6 -3 -29z m-3823 -8 c35 -20 62 -75 63 -127 0 -96
-124 -167 -213 -121 -82 43 -83 177 -1 239 53 39 94 42 151 9z m3259 -48 c21
-23 22 -27 8 -37 -8 -7 -20 -21 -26 -32 -9 -15 -36 -25 -118 -41 l-107 -21 7
36 c4 20 8 36 8 37 1 0 38 15 82 33 44 17 87 36 95 41 21 14 24 13 51 -16z
m-1263 -28 c45 -7 84 -15 86 -17 2 -2 6 -20 9 -40 l5 -36 -155 -13 c-87 -7
-158 -9 -162 -4 -4 5 -12 21 -19 36 -9 23 -9 28 7 33 9 3 31 19 47 36 25 26
34 30 64 24 19 -3 72 -12 118 -19z m-1467 -3 c11 -13 11 -17 1 -21 -29 -9 -71
-55 -82 -87 -6 -19 -15 -35 -19 -35 -9 0 -195 41 -197 43 -1 1 1 19 3 39 6 42
-10 36 168 61 55 8 103 15 106 16 4 0 13 -6 20 -16z m2882 -24 c33 -17 57 -51
57 -81 0 -59 -88 -120 -143 -99 -33 13 -47 39 -47 91 0 74 70 121 133 89z
m-4057 -7 c37 -24 36 -92 -2 -133 -42 -47 -132 1 -120 64 9 44 43 77 80 77 17
0 36 -4 42 -8z m202 -19 c102 -16 112 -19 112 -38 0 -19 -9 -23 -89 -33 -49
-7 -102 -15 -118 -18 l-29 -6 -2 56 c-1 31 2 56 6 56 4 0 58 -8 120 -17z
m1110 -26 c28 -26 45 -87 33 -119 -13 -34 -68 -85 -99 -91 -62 -12 -140 81
-122 145 12 40 24 53 73 77 48 24 80 21 115 -12z m1043 5 c25 -23 33 -38 36
-78 7 -65 -15 -110 -64 -130 -47 -20 -86 -10 -123 32 -41 47 -42 108 -3 154
48 57 105 65 154 22z m2138 -24 c22 -27 23 -31 8 -40 -34 -19 -68 -64 -80
-105 -6 -24 -16 -43 -22 -43 -21 0 -271 -30 -292 -35 -18 -4 -23 -1 -23 15 0
12 -5 30 -10 41 -9 16 -5 24 26 51 20 17 40 42 44 53 7 18 26 26 107 44 54 13
121 29 148 36 68 18 67 18 94 -17z m-2868 6 l157 -6 21 -29 c18 -23 19 -29 6
-29 -8 0 -38 -23 -67 -50 l-52 -50 -140 25 c-148 28 -160 31 -151 46 6 8 -4
53 -20 93 -7 17 -4 18 41 12 27 -3 119 -8 205 -12z m-1791 -34 c0 -38 -2 -40
-42 -50 -24 -6 -59 -15 -78 -21 -19 -5 -38 -9 -42 -9 -5 0 -8 27 -8 60 l0 60
85 0 85 0 0 -40z m4040 -5 c0 -13 5 -36 12 -51 19 -41 -10 -57 -87 -49 -132
14 -133 14 -137 51 -4 37 -14 33 142 63 68 13 70 13 70 -14z m-496 -6 c25 -12
56 -63 56 -94 0 -25 -27 -72 -52 -89 -44 -31 -123 -15 -154 32 -59 89 48 197
150 151z m-684 -18 c-5 -11 -10 -31 -10 -45 0 -21 -6 -26 -32 -31 -18 -3 -82
-14 -141 -24 l-108 -19 15 23 c9 13 18 42 22 64 l6 40 92 4 c50 1 108 4 129 5
34 2 37 0 27 -17z m-1702 -12 c58 -10 65 -14 88 -51 14 -22 24 -41 22 -42 -2
-1 -20 -12 -41 -24 l-38 -22 -92 62 c-51 35 -93 71 -95 82 -4 21 9 20 156 -5z
m-684 -12 c-4 -12 -39 -34 -180 -119 l-31 -19 0 25 c0 13 -11 39 -23 56 -12
17 -21 32 -19 34 8 5 186 33 221 35 27 1 36 -3 32 -12z m4380 -17 c42 -38 54
-90 32 -143 -18 -44 -54 -68 -109 -74 -83 -8 -140 53 -135 146 3 50 6 57 37
78 25 17 48 23 87 23 45 0 59 -5 88 -30z m-2682 -49 c39 -44 54 -101 39 -151
-14 -49 -60 -103 -101 -120 -62 -26 -172 7 -212 63 -46 64 -16 171 63 230 61
44 160 34 211 -22z m-2137 -12 c-8 -15 -15 -36 -15 -47 0 -11 -35 -44 -95 -90
l-95 -72 0 104 0 105 92 29 c82 25 95 27 110 14 16 -13 16 -17 3 -43z m484 17
c9 -10 -7 -31 -76 -100 -79 -79 -88 -86 -100 -70 -7 10 -24 25 -39 34 l-25 17
103 67 c56 36 108 66 114 66 6 0 17 -6 23 -14z m567 -47 c41 -28 74 -53 74
-54 0 -2 -7 -16 -15 -31 -8 -16 -15 -39 -15 -51 0 -16 -6 -23 -18 -23 -23 0
-38 16 -107 115 -50 72 -53 79 -37 91 22 17 29 14 118 -47z m-890 28 c24 -21
26 -28 20 -61 -10 -53 -49 -90 -84 -81 -68 16 -86 88 -36 139 33 32 65 33 100
3z m1594 -31 l46 -7 -1 -67 c0 -37 4 -79 8 -93 8 -25 6 -27 -26 -33 -27 -5
-71 5 -194 45 -87 28 -164 56 -170 61 -22 18 -15 35 34 85 l48 49 105 -17 c58
-10 125 -20 150 -23z m2105 29 c44 -8 81 -14 82 -15 1 0 -2 -12 -6 -27 -4 -16
-5 -42 -1 -59 l7 -30 -106 36 c-99 33 -106 37 -103 60 5 29 20 50 36 50 6 0
47 -7 91 -15z m265 0 c78 -40 57 -145 -34 -175 -65 -21 -106 14 -106 90 0 33
6 48 29 71 33 33 67 37 111 14z m-1286 -24 c12 -13 14 -21 6 -26 -6 -4 -15
-16 -19 -28 -6 -17 -32 -27 -129 -53 -66 -18 -123 -29 -126 -26 -3 3 -6 14 -6
25 0 10 -9 32 -21 48 -25 35 -30 32 116 58 143 25 159 25 179 2z m-1856 -143
l25 -27 -43 -48 c-24 -26 -44 -49 -45 -51 -1 -1 -19 50 -40 113 -33 99 -37
118 -27 141 l12 26 46 -64 c26 -34 58 -75 72 -90z m-445 114 c-1 -6 -27 -55
-58 -109 l-55 -98 -45 3 c-70 6 -61 30 47 134 83 79 117 101 111 70z m760 -1
c30 -12 67 -69 67 -105 0 -60 -61 -126 -115 -126 -53 0 -115 66 -115 123 0 30
33 73 74 98 35 21 54 23 89 10z m1190 -32 c35 -27 51 -87 37 -138 -14 -52 -51
-81 -104 -81 -118 0 -157 143 -60 219 35 27 93 28 127 0z m2067 12 c0 -4 11
-25 25 -45 l24 -36 -27 -14 c-15 -8 -38 -33 -52 -55 -21 -35 -29 -41 -50 -36
-14 2 -83 14 -155 25 -179 28 -171 25 -138 64 15 18 33 41 38 50 9 16 106 34
270 49 22 2 46 4 53 5 6 1 12 -2 12 -7z m-3943 -20 c10 -16 6 -36 -20 -115
-27 -80 -37 -99 -61 -111 -36 -19 -36 -19 -36 3 0 10 -5 23 -10 28 -7 7 8 43
47 112 31 56 60 102 63 102 3 0 11 -9 17 -19z m117 -123 c5 -58 4 -88 -3 -88
-6 0 -18 -14 -27 -32 l-16 -32 -20 27 c-11 15 -27 27 -35 27 -10 0 -14 6 -10
18 3 9 15 54 27 99 19 67 27 83 44 85 29 4 32 -5 40 -104z m-700 57 l39 -35
-49 -56 c-27 -31 -81 -95 -121 -142 -105 -125 -103 -125 -103 12 l0 115 93 71
c50 38 94 70 97 69 3 0 23 -15 44 -34z m2800 -9 c8 -14 25 -27 36 -31 28 -9
25 -22 -7 -29 -16 -4 -77 -24 -137 -46 -112 -41 -141 -46 -164 -31 -13 8 -7
30 28 101 4 9 45 24 101 37 121 28 124 28 143 -1z m904 -46 c39 -30 71 -60 71
-66 1 -12 -132 -28 -137 -16 -1 4 -18 32 -37 62 l-34 55 22 17 c25 19 23 20
115 -52z m-3471 45 c66 -46 8 -173 -74 -163 -35 4 -73 58 -73 104 0 60 92 97
147 59z m1280 -50 c59 -19 120 -40 135 -46 l27 -11 -28 -37 c-16 -20 -34 -53
-41 -73 -6 -21 -13 -38 -15 -38 -5 0 -238 130 -243 135 -6 5 42 105 50 105 4
0 55 -16 115 -35z m2453 10 c80 -41 61 -149 -29 -176 -54 -16 -93 3 -105 52
-11 46 -2 84 29 115 28 28 63 31 105 9z m739 2 c35 -18 62 -59 66 -100 12
-132 -183 -190 -240 -72 -18 39 -25 104 -13 128 24 49 130 74 187 44z m-3618
-40 c85 -57 49 -181 -59 -203 -27 -6 -37 -1 -67 29 -41 41 -44 70 -15 127 20
39 59 69 91 70 9 0 31 -10 50 -23z m3183 -30 l188 -33 14 -39 c7 -22 14 -41
14 -42 0 -2 -15 -3 -34 -3 -46 0 -85 -16 -117 -46 l-26 -25 -99 45 c-116 54
-146 71 -145 79 1 4 1 27 1 52 0 25 3 45 8 45 4 0 92 -15 196 -33z m-4220 -10
c3 -13 17 -35 30 -49 l25 -24 -75 -105 c-42 -57 -87 -123 -101 -146 -14 -24
-28 -43 -33 -43 -4 0 -10 16 -13 37 -4 20 -20 53 -36 73 l-30 37 107 121 c59
66 110 121 113 121 4 1 9 -10 13 -22z m1854 -6 c33 -18 82 -99 82 -135 -1 -74
-67 -159 -135 -172 -55 -10 -131 13 -170 53 -55 56 -55 127 0 199 59 77 143
98 223 55z m965 -14 c10 -23 14 -43 9 -45 -5 -1 -60 -32 -122 -67 -62 -36
-114 -65 -116 -65 -2 0 -4 11 -4 25 0 13 -7 43 -16 65 -9 23 -14 43 -12 46 5
4 225 81 238 83 3 0 13 -18 23 -42z m-633 7 c87 -52 78 -207 -14 -232 -115
-32 -231 82 -181 177 33 65 131 92 195 55z m-1832 -30 c28 -32 28 -62 -1 -105
-47 -69 -119 -61 -146 17 -20 57 -9 88 36 108 47 19 81 13 111 -20z m983 -35
c109 -67 209 -138 209 -147 0 -4 -13 -9 -29 -10 -40 -3 -93 -26 -131 -58 l-32
-27 -114 114 c-79 79 -114 121 -114 137 0 12 6 24 13 26 51 15 94 23 103 20 7
-1 50 -26 95 -55z m-528 10 c40 -44 38 -100 -6 -144 -59 -59 -113 -56 -160 7
-25 33 -17 84 20 129 48 57 98 60 146 8z m2327 21 c28 -28 26 -75 -5 -106 -20
-20 -33 -25 -67 -22 -53 4 -84 40 -73 87 12 56 104 82 145 41z m-646 -19 c53
-46 62 -133 19 -181 -68 -76 -213 -31 -213 65 0 56 55 122 112 134 38 9 55 5
82 -18z m1251 -6 c14 -13 25 -34 25 -45 0 -29 -26 -76 -45 -84 -30 -11 -90 -6
-113 10 -29 20 -30 81 -1 118 29 36 99 37 134 1z m-3187 -23 c13 -10 25 -33
29 -54 5 -33 2 -41 -30 -73 -43 -43 -83 -46 -116 -11 -28 30 -39 99 -20 122
30 36 100 44 137 16z m2392 -14 c0 -16 -32 -51 -106 -118 -59 -52 -112 -96
-119 -98 -7 -2 -20 9 -29 23 -10 15 -36 35 -58 45 -22 10 -36 20 -31 23 4 3
70 37 145 76 148 76 198 89 198 49z m1155 -43 c66 -33 121 -60 121 -60 1 0 4
-21 6 -46 l5 -46 -41 4 c-32 4 -53 -2 -96 -24 l-54 -29 -93 101 -92 100 33 8
c19 5 44 19 57 33 13 13 25 23 28 22 3 -2 60 -30 126 -63z m-3945 38 c0 -9 5
-31 12 -49 11 -31 9 -38 -39 -116 -27 -46 -62 -104 -77 -130 -33 -58 -42 -64
-67 -43 -10 10 -41 20 -69 23 -60 6 -65 -8 72 190 95 136 100 142 133 142 26
0 35 -4 35 -17z m3170 -30 c43 -54 3 -123 -71 -123 -46 0 -79 27 -79 66 0 54
33 82 97 83 23 1 37 -6 53 -26z m207 -5 c51 -48 10 -137 -64 -138 -51 0 -82
19 -89 56 -17 91 85 146 153 82z m-2314 -106 c59 -61 107 -120 107 -130 0 -9
-3 -33 -6 -52 l-6 -35 -52 3 c-31 2 -67 -2 -88 -11 l-36 -15 -66 135 c-37 75
-65 137 -64 138 2 1 18 10 36 19 18 9 38 28 44 42 6 13 14 23 18 22 3 -2 54
-54 113 -116z m3276 83 c40 -35 55 -82 41 -134 -15 -56 -59 -86 -127 -86 -46
0 -57 4 -84 32 -30 29 -32 37 -33 99 -1 66 0 68 33 91 49 33 128 32 170 -2z
m-679 -2 c0 -5 45 -57 99 -117 120 -133 122 -148 22 -139 -36 3 -66 6 -66 7 0
1 -27 41 -59 90 -47 73 -56 93 -47 105 6 9 16 26 23 39 11 21 28 30 28 15z
m-2890 -26 c31 -16 42 -35 102 -169 l67 -150 -20 -27 c-11 -15 -26 -45 -34
-67 -7 -21 -17 -38 -22 -36 -4 1 -24 7 -44 12 -20 6 -42 16 -48 24 -7 8 -30
88 -53 178 l-41 164 22 48 c11 26 24 46 28 44 5 -2 24 -12 43 -21z m2070 -5
l30 -19 -72 -115 c-68 -110 -73 -115 -92 -102 -11 8 -44 14 -73 14 -52 0 -53
0 -53 30 0 26 13 40 98 107 53 42 101 83 105 90 11 17 21 16 57 -5z m1704 7
c14 -7 27 -18 31 -26 16 -43 -74 -121 -112 -97 -40 25 -45 102 -9 126 16 11
62 9 90 -3z m-1557 -42 c9 -29 4 -48 -37 -153 -45 -116 -47 -119 -81 -125 -19
-3 -44 -10 -55 -17 -19 -10 -23 -8 -38 27 l-18 38 53 89 c66 111 97 154 123
164 35 14 42 11 53 -23z m-2868 -144 c-44 -93 -85 -178 -90 -189 -6 -12 -26
-26 -45 -32 -33 -10 -34 -10 -44 28 -5 20 -19 49 -30 62 -19 25 -19 25 2 64
11 21 47 80 80 129 l60 90 51 -3 c29 -1 59 2 67 8 8 5 18 10 22 10 4 0 -29
-75 -73 -167z m357 115 c19 -22 19 -30 8 -213 -6 -104 -12 -191 -13 -191 0 -1
-29 1 -64 3 -48 4 -71 1 -96 -12 -18 -9 -34 -15 -36 -13 -2 2 18 73 45 158 26
85 51 170 55 188 6 31 58 102 74 102 4 0 16 -10 27 -22z m3124 -58 c80 -106
86 -118 63 -136 -10 -7 -21 -14 -26 -14 -4 0 -15 -16 -24 -35 -19 -39 -22 -40
-46 -22 -20 14 -145 258 -140 272 2 6 28 11 59 11 l56 0 58 -76z m-3972 -1
c37 -70 18 -144 -46 -187 l-22 -14 0 137 0 137 23 -14 c12 -8 32 -34 45 -59z
m2495 60 c43 -23 49 -61 16 -103 -15 -19 -30 -26 -54 -26 -24 0 -39 7 -54 26
-27 35 -26 59 4 89 26 27 54 31 88 14z m-1883 -7 c0 -13 47 -32 77 -32 20 0
24 -4 18 -17 -12 -31 -72 -246 -85 -305 l-13 -56 -33 33 c-18 18 -55 40 -82
49 l-50 17 77 159 c67 141 91 181 91 152z m1700 -27 c47 -45 35 -116 -26 -164
-31 -25 -64 -27 -103 -7 -65 34 -83 129 -35 181 23 25 30 27 80 23 43 -4 61
-11 84 -33z m525 11 c58 -38 83 -126 49 -174 -63 -90 -224 -55 -224 48 0 40
33 101 67 125 39 26 70 26 108 1z m2208 -142 c-1 -91 -3 -167 -5 -168 -2 -1
-75 -48 -163 -103 -191 -120 -557 -354 -801 -513 -97 -63 -182 -118 -189 -122
-9 -6 -11 3 -8 36 8 63 -14 139 -52 189 l-33 44 221 140 c267 169 748 480 907
586 63 42 117 77 120 77 3 0 4 -75 3 -166z m-1384 2 c12 -55 24 -119 28 -141
l6 -39 -26 21 c-15 12 -50 26 -77 33 -45 11 -50 15 -50 39 0 16 -3 68 -6 117
-6 76 -4 92 10 106 15 16 19 15 55 -9 38 -24 40 -29 60 -127z m-2614 27 c15
-65 33 -143 41 -173 15 -60 10 -70 -35 -70 -16 0 -39 -16 -67 -46 l-43 -46
-27 25 c-26 25 -27 27 -20 109 3 45 9 131 13 191 l6 107 31 0 c17 0 38 5 46
10 8 5 18 10 22 10 3 0 18 -53 33 -117z m761 101 c65 -31 104 -120 84 -193
-12 -46 -61 -97 -101 -106 -65 -15 -160 35 -198 104 -21 38 -22 47 -12 81 6
22 26 53 43 71 58 58 121 73 184 43z m1659 -14 l30 0 -7 -127 c-3 -71 -6 -129
-7 -130 -1 -1 -14 -8 -30 -16 -28 -14 -31 -13 -62 19 -18 19 -41 37 -52 40
-12 4 -17 12 -14 22 3 10 20 59 38 110 28 84 34 93 53 88 11 -3 35 -6 51 -6z
m348 -100 l48 -94 -48 -14 c-26 -8 -53 -18 -60 -23 -8 -7 -14 0 -22 23 -14 42
-50 182 -48 183 1 0 16 6 32 12 17 6 35 10 40 9 6 -1 32 -44 58 -96z m640 66
c69 -29 95 -100 62 -170 -21 -44 -59 -66 -115 -66 -80 0 -130 58 -130 148 0
77 98 124 183 88z m-1893 -101 c37 -19 76 -77 85 -126 15 -81 -75 -186 -169
-196 -120 -14 -225 114 -187 229 32 98 170 145 271 93z m483 -19 c66 -28 92
-91 64 -158 -18 -43 -52 -68 -105 -75 -124 -17 -168 210 -47 240 36 9 55 7 88
-7z m-2855 -33 c98 -56 109 -174 22 -247 -40 -33 -118 -36 -168 -6 -78 48 -97
152 -41 228 48 66 103 73 187 25z m4017 15 c38 -17 68 -81 60 -127 -9 -50 -31
-80 -70 -97 -98 -41 -185 19 -185 126 0 51 12 75 48 94 33 18 112 20 147 4z
m-2685 -38 c78 -40 113 -151 72 -230 -26 -50 -97 -84 -156 -76 -69 11 -108 42
-130 107 l-19 56 22 46 c29 60 98 110 159 116 7 0 30 -8 52 -19z m1307 -59
c32 -41 0 -98 -59 -107 -68 -11 -110 65 -59 109 31 28 96 27 118 -2z m475 19
c103 -29 120 -156 29 -217 -68 -46 -135 -21 -167 62 -14 38 -15 52 -5 84 13
44 27 59 68 71 38 11 33 11 75 0z m650 -40 c51 -62 33 -161 -36 -194 -67 -32
-142 -12 -171 44 -8 16 -18 50 -22 75 -5 39 -2 49 18 71 34 37 56 44 123 41
54 -3 62 -7 88 -37z m-342 -5 c42 -22 60 -53 60 -106 0 -36 -6 -55 -26 -78
-34 -41 -91 -58 -130 -40 -88 43 -102 196 -20 229 33 14 84 11 116 -5z m-3115
-46 c110 -52 116 -196 12 -273 -43 -32 -136 -30 -172 4 -60 55 -73 153 -30
226 14 24 33 48 43 53 29 17 100 12 147 -10z m1278 -9 c34 -27 44 -73 22 -106
-14 -22 -22 -25 -62 -22 -36 2 -50 9 -66 29 -22 31 -18 55 18 93 29 31 54 33
88 6z m-566 -27 c60 -40 89 -150 56 -212 -24 -45 -60 -71 -110 -78 -84 -11
-179 61 -190 145 -15 115 144 210 244 145z m3834 -185 l2 -207 -422 -211
c-232 -117 -423 -210 -425 -208 -1 1 -10 15 -19 30 -23 36 -97 73 -181 90
l-67 14 268 169 c147 93 288 181 313 197 25 15 153 97 285 181 132 85 241 153
242 153 1 -1 3 -94 4 -208z m-4181 139 c83 -58 79 -197 -7 -261 -16 -12 -48
-21 -77 -23 -68 -5 -106 19 -140 90 -22 44 -26 62 -20 98 11 77 42 107 119
119 48 7 95 -2 125 -23z m1415 -16 c48 -21 87 -65 116 -129 32 -68 24 -175
-15 -227 -37 -48 -96 -75 -167 -75 -156 0 -259 84 -259 213 0 118 55 196 160
228 45 14 124 9 165 -10z m516 -14 c60 -32 100 -109 106 -204 3 -60 1 -74 -24
-118 -47 -83 -130 -112 -236 -81 -101 29 -156 101 -157 204 0 158 175 270 311
199z m-2601 -87 c50 -25 71 -67 71 -136 0 -102 -61 -164 -161 -164 -96 0 -143
55 -142 168 0 48 4 71 19 90 44 61 140 79 213 42z m1591 -6 c98 -50 157 -208
118 -311 -11 -30 -53 -79 -81 -94 -43 -23 -119 -29 -187 -14 -117 27 -180 102
-181 216 0 107 67 193 173 220 41 10 123 2 158 -17z m1989 13 c52 -41 65 -110
28 -144 -59 -54 -102 -56 -148 -8 -47 48 -47 96 -2 136 35 31 93 39 122 16z
m-491 -40 c45 -30 77 -90 93 -174 10 -56 9 -63 -17 -122 -40 -88 -69 -106
-171 -106 -72 0 -86 3 -130 30 -114 71 -134 213 -46 316 75 88 188 111 271 56z
m-2682 -127 c55 -24 77 -66 77 -145 0 -66 -15 -104 -60 -149 -43 -42 -82 -58
-142 -58 -66 0 -125 36 -159 97 -44 82 -35 162 25 227 57 60 160 71 259 28z
m706 -24 c96 -41 163 -202 128 -309 -16 -47 -79 -103 -132 -117 -48 -13 -136
-6 -187 16 -90 37 -132 100 -132 197 0 101 45 174 130 211 44 19 150 20 193 2z
m-443 -36 c5 0 22 -12 39 -26 44 -37 43 -84 -3 -130 -29 -29 -41 -34 -79 -34
-37 0 -49 5 -66 26 -24 31 -28 99 -7 126 16 22 76 49 94 43 8 -3 17 -5 22 -5z
m2852 -26 c58 -30 108 -132 108 -222 0 -71 -39 -146 -89 -171 -49 -26 -145
-28 -199 -5 -141 58 -176 231 -69 342 72 76 168 97 249 56z m-1129 -119 c29
-13 69 -27 89 -30 32 -6 37 -11 33 -29 -5 -25 -22 -179 -30 -286 -9 -116 -13
-127 -50 -149 l-34 -20 -15 24 c-8 12 -32 33 -53 46 -21 12 -39 24 -41 25 -12
8 -55 471 -47 502 6 24 6 24 51 -18 25 -23 69 -52 97 -65z m2457 -152 l-5
-216 -55 -18 c-30 -10 -197 -61 -370 -114 -285 -88 -320 -96 -369 -91 -29 4
-57 9 -62 11 -4 3 4 28 18 55 29 56 40 134 26 177 l-10 28 301 143 c407 192
509 240 521 241 7 1 8 -74 5 -216z m-2974 93 c10 -28 47 -130 84 -227 l67
-177 -21 -27 c-20 -25 -25 -26 -46 -15 -13 7 -54 13 -90 13 l-66 0 -39 75
c-22 41 -68 122 -102 181 -35 58 -63 111 -63 118 0 6 10 15 23 19 45 14 104
64 127 107 l23 44 44 -30 c33 -24 46 -42 59 -81z m858 69 c27 -45 107 -115
132 -115 8 0 14 -4 14 -9 0 -5 -40 -93 -89 -195 l-90 -186 -33 20 c-23 14 -51
20 -92 20 -48 0 -57 3 -52 15 3 8 17 99 31 203 15 103 28 196 30 208 3 13 26
32 62 51 32 17 59 32 60 32 0 1 13 -19 27 -44z m-534 -185 c16 -102 30 -189
30 -195 0 -5 -18 -11 -40 -13 -22 -1 -52 -7 -66 -12 -14 -6 -31 -10 -38 -10
-15 0 -58 98 -115 263 l-40 117 62 0 c41 1 81 8 117 23 30 13 56 20 57 17 1
-3 16 -88 33 -190z m-2187 179 c24 -11 38 -31 51 -73 10 -30 -12 -90 -44 -121
-26 -25 -40 -30 -78 -30 -53 0 -107 31 -122 70 -14 38 6 97 44 133 29 26 44
32 80 32 25 0 56 -5 69 -11z m1340 -103 c27 -17 126 -38 162 -34 24 3 32 -8
120 -175 52 -98 95 -181 95 -186 0 -4 -11 -13 -25 -19 -14 -6 -37 -34 -52 -62
-16 -27 -30 -50 -33 -50 -3 0 -65 84 -138 188 -73 103 -146 203 -162 222 -27
33 -28 37 -18 83 12 51 17 54 51 33z m-657 -15 c47 -21 83 -65 115 -136 17
-39 20 -61 16 -112 -10 -134 -121 -204 -270 -173 -140 29 -212 130 -187 262
14 74 49 121 111 152 65 32 153 35 215 7z m2460 -23 c6 -24 17 -57 25 -75 12
-30 11 -34 -34 -99 -94 -136 -241 -314 -272 -328 -16 -8 -51 -17 -77 -21 l-48
-7 0 40 c0 22 -4 51 -9 65 -8 19 3 46 63 158 39 74 86 163 105 199 l34 65 56
0 c37 1 70 8 96 22 22 11 42 21 45 22 3 0 10 -18 16 -41z m-2928 -54 c42 -25
65 -63 66 -108 2 -77 -57 -129 -147 -130 -40 0 -53 5 -78 31 -81 81 -21 223
94 223 22 0 51 -7 65 -16z m3638 -48 c112 -52 140 -152 80 -282 -34 -74 -121
-134 -192 -134 -98 0 -204 120 -204 230 0 65 22 112 70 153 73 61 160 73 246
33z m-2549 -83 c38 -54 106 -148 151 -210 l82 -112 -48 6 c-53 6 -136 -23
-168 -58 -9 -10 -20 -19 -24 -19 -4 0 -72 43 -151 96 -78 52 -174 114 -211
136 -60 36 -66 42 -57 60 6 11 9 49 7 84 -3 61 -2 65 17 59 76 -25 125 -28
188 -11 35 10 81 28 103 41 21 14 40 25 40 25 1 0 33 -44 71 -97z m-1347 37
c34 -34 30 -85 -11 -122 -47 -44 -108 -36 -137 19 -19 35 -14 63 17 94 37 36
99 41 131 9z m3304 -9 c40 -42 75 -53 148 -49 l63 3 -2 -53 c0 -29 -7 -59 -13
-67 -7 -8 -71 -51 -142 -96 -71 -45 -162 -105 -202 -134 l-73 -52 -32 33 c-17
19 -42 36 -56 40 -14 3 -25 9 -25 13 0 3 41 58 90 121 50 63 116 150 148 192
31 42 60 77 63 77 3 1 18 -12 33 -28z m1578 -308 c3 -175 -1 -193 -42 -193
-16 0 -434 -75 -536 -95 l-31 -7 5 54 c5 65 -11 103 -70 165 l-41 42 44 11
c100 26 413 114 529 150 69 21 128 38 132 39 4 0 8 -74 10 -166z m-2599 146
c21 -5 52 -23 69 -38 28 -25 31 -32 30 -89 -1 -67 -27 -128 -64 -151 -11 -7
-44 -15 -72 -18 -41 -4 -60 0 -95 19 -86 46 -107 109 -65 195 38 78 107 107
197 82z m-1930 -21 c52 -16 97 -61 132 -133 24 -49 27 -64 23 -124 -6 -83 -36
-128 -105 -162 -37 -18 -57 -21 -118 -17 -89 6 -156 37 -199 91 -26 32 -31 49
-34 107 -2 37 1 84 8 104 36 111 168 171 293 134z m-363 -24 c10 -11 22 -40
25 -65 6 -43 4 -49 -26 -84 -45 -51 -91 -70 -126 -53 -57 28 -88 115 -61 168
30 57 145 78 188 34z m1081 -110 c107 -64 200 -121 207 -128 10 -10 9 -20 -4
-51 -10 -24 -14 -58 -12 -92 2 -34 -1 -53 -8 -53 -6 0 -118 31 -250 69 -131
39 -282 81 -334 94 l-95 25 -5 53 c-3 30 -13 68 -22 85 l-16 30 88 -4 c105 -5
172 13 215 58 16 17 32 30 35 30 4 0 94 -52 201 -116z m2473 82 c12 -47 81
-121 135 -145 29 -12 49 -25 47 -30 -3 -4 -27 -16 -53 -26 -91 -34 -368 -144
-413 -164 -36 -15 -59 -18 -110 -14 l-65 5 3 44 4 43 191 138 c200 145 238
171 248 172 4 1 10 -10 13 -23z m-913 4 c84 -23 120 -110 80 -194 -19 -37 -29
-47 -68 -60 -89 -30 -167 -13 -203 46 -40 67 -10 161 63 197 47 23 75 26 128
11z m-685 -36 c19 -9 44 -28 55 -43 18 -22 20 -34 14 -85 -8 -74 -27 -111 -68
-136 -65 -40 -177 -17 -226 46 -46 58 -18 172 53 215 39 24 125 25 172 3z
m2162 -103 c68 -35 122 -113 122 -174 0 -41 -29 -97 -78 -149 -56 -60 -68 -67
-137 -78 -73 -12 -116 2 -158 50 -62 73 -83 180 -48 255 51 111 186 154 299
96z m-2506 -43 c34 -13 55 -44 68 -104 22 -98 -45 -213 -135 -230 -74 -14
-164 37 -200 112 -43 91 30 205 150 235 33 8 75 3 117 -13z m1352 -12 c50 -21
76 -60 76 -115 0 -75 -25 -113 -90 -134 -76 -26 -133 -16 -178 29 -33 33 -34
37 -30 94 3 46 10 66 29 86 47 52 126 68 193 40z m-2957 -58 c28 -26 29 -59 4
-114 -32 -71 -80 -90 -147 -58 -84 40 -78 138 11 188 38 21 101 13 132 -16z
m2093 18 c6 -8 31 -23 56 -32 30 -11 44 -23 44 -35 0 -10 5 -75 11 -144 9
-114 9 -129 -7 -152 l-17 -27 -18 22 c-10 13 -46 75 -80 139 -58 110 -61 119
-49 147 7 17 17 46 24 64 12 36 18 39 36 18z m310 -15 c16 -31 13 -51 -30
-197 -22 -75 -40 -138 -40 -139 0 -2 -15 4 -34 13 -34 15 -35 17 -42 91 -4 42
-8 105 -8 141 l-1 65 41 5 c23 4 52 13 65 22 31 22 36 22 49 -1z m1335 -68 c0
-73 4 -94 23 -126 12 -21 22 -40 22 -42 0 -2 -44 -13 -97 -25 -114 -25 -341
-78 -364 -85 -13 -4 -16 3 -15 38 1 32 -6 55 -27 85 l-27 42 25 10 c15 6 28
10 30 10 6 0 275 115 345 148 36 17 70 31 75 31 6 1 10 -34 10 -86z m-3081 13
c44 -13 181 -52 304 -86 l223 -63 -49 -28 c-49 -28 -96 -75 -114 -115 -9 -20
-19 -21 -223 -28 -118 -3 -249 -4 -292 0 l-79 7 -13 40 c-7 23 -26 59 -42 81
l-29 40 48 18 c49 18 121 81 150 130 9 16 20 28 25 28 5 0 46 -11 91 -24z
m1948 -7 l58 8 -22 -36 c-99 -163 -172 -262 -197 -267 -14 -3 -32 -8 -40 -10
-9 -3 -12 2 -8 13 11 42 66 250 71 274 6 25 8 26 43 18 21 -4 64 -4 95 0z
m2281 -171 c-2 -89 -4 -162 -5 -164 -2 -1 -115 -7 -253 -13 -137 -6 -261 -14
-275 -16 -21 -4 -30 3 -54 41 -18 29 -46 55 -77 72 -27 15 -49 29 -49 32 0 15
93 100 109 100 17 0 352 63 521 99 93 19 85 32 83 -151z m-3068 111 c32 -8 55
-7 100 5 33 8 60 14 61 13 4 -5 124 -260 124 -263 0 -2 -6 -4 -13 -4 -7 0 -30
-9 -52 -20 l-39 -20 -131 128 c-71 70 -131 128 -133 128 -2 1 0 14 4 28 4 19
11 25 22 21 8 -3 33 -10 57 -16z m898 -75 l37 -42 -102 -96 c-100 -92 -103
-95 -115 -73 -19 35 -16 44 46 131 32 46 64 93 70 105 15 27 18 26 64 -25z
m-2543 16 c67 -13 108 -44 144 -110 38 -70 46 -111 35 -178 -15 -96 -90 -155
-194 -156 -198 0 -309 136 -250 305 29 83 95 130 206 148 4 1 30 -4 59 -9z
m2998 -21 c74 -26 83 -121 17 -189 -20 -21 -49 -40 -64 -43 -56 -11 -137 52
-147 114 -7 40 26 96 66 116 31 16 87 17 128 2z m-1357 -111 c57 -53 116 -106
132 -118 32 -26 35 -40 6 -40 -11 0 -29 -5 -39 -10 -15 -8 -52 6 -185 71
l-167 81 40 24 c21 13 52 40 67 59 15 20 30 35 34 33 5 -2 55 -47 112 -100z
m-465 47 c94 -39 97 -220 5 -298 -32 -26 -92 -49 -114 -42 -7 2 -24 6 -39 9
-34 8 -94 59 -114 97 -18 36 -18 102 0 137 45 87 173 135 262 97z m1572 -18
c-5 -10 -8 -37 -6 -59 3 -48 11 -42 -135 -103 l-108 -46 -27 23 -27 22 93 90
93 91 64 0 c58 0 62 -1 53 -18z m951 -35 l38 -28 -28 -34 c-16 -19 -36 -55
-44 -81 -9 -27 -24 -50 -33 -53 -37 -12 -397 -47 -399 -39 -15 43 -46 83 -84
109 l-47 31 162 37 c88 20 202 47 251 60 118 32 138 31 184 -2z m269 -18 c43
-9 111 -69 133 -118 40 -87 13 -195 -63 -261 -49 -41 -80 -49 -159 -40 -75 9
-120 44 -143 112 -60 177 64 341 232 307z m-2300 -191 c8 -3 10 -12 6 -22 -3
-9 -9 -28 -13 -43 -9 -40 -55 -72 -94 -64 -26 5 -276 76 -285 81 -1 1 5 17 15
35 18 36 23 117 10 162 -7 26 -1 24 170 -58 98 -47 184 -88 191 -91z m-828 60
c1 -21 7 -56 15 -78 8 -21 13 -39 12 -40 -1 0 -23 -11 -50 -24 -42 -21 -74
-50 -129 -119 -10 -12 -28 -22 -40 -23 -13 0 -135 -15 -271 -32 l-248 -33 -18
41 c-10 22 -28 49 -40 59 -27 24 -27 32 2 40 69 17 157 117 179 204 l10 42
289 0 289 0 0 -37z m1965 18 c3 -5 19 -12 35 -16 17 -4 30 -9 30 -11 0 -22
-44 -85 -63 -88 -76 -17 -288 -48 -293 -44 -3 3 -1 20 3 38 8 31 15 35 138 80
147 55 142 53 150 41z m1905 -156 l0 -155 -321 0 -321 0 32 37 c49 55 70 109
70 179 l0 61 168 8 c92 4 201 11 242 15 41 4 87 8 103 9 l27 1 0 -155z m-1590
120 c36 -19 50 -43 50 -87 0 -62 -72 -138 -131 -138 -32 0 -94 38 -112 70 -32
53 -13 126 41 154 35 20 115 20 152 1z m-904 -83 c68 -34 104 -93 104 -167 0
-61 -25 -111 -69 -140 -108 -71 -249 -51 -304 43 -52 89 5 252 99 282 42 14
126 5 170 -18z m1447 -12 c-9 -33 6 -85 37 -131 21 -31 26 -46 17 -51 -7 -3
-124 -14 -260 -23 l-247 -16 -35 36 -34 37 29 30 c17 16 33 40 36 53 5 21 15
24 87 35 45 6 134 20 197 30 160 25 179 25 173 0z m-2330 -61 c45 -11 111 -29
147 -39 l65 -19 -2 -63 -1 -63 -144 -12 c-78 -6 -168 -12 -198 -12 l-55 -1 3
56 c3 39 -2 69 -14 95 -9 22 -15 40 -13 42 24 16 80 36 102 36 16 1 65 -8 110
-20z m1527 12 c0 -5 16 -30 35 -55 l35 -46 -32 -16 c-34 -18 -66 -16 -260 13
-76 11 -109 20 -113 31 -8 22 8 29 104 42 47 7 113 18 146 25 78 16 85 17 85
6z m-1832 -28 c108 -80 62 -284 -72 -322 -118 -32 -246 91 -214 207 12 45 80
113 129 130 48 16 125 9 157 -15z m-1138 -14 c63 -13 106 -49 146 -121 25 -45
29 -64 29 -124 -1 -82 -22 -123 -83 -165 -31 -21 -47 -24 -126 -24 -77 0 -98
4 -140 25 -168 85 -146 338 34 400 65 23 73 23 140 9z m1845 -42 c21 -31 19
-83 -5 -107 -41 -41 -130 -8 -130 49 0 75 95 115 135 58z m1349 -61 c66 -27
84 -91 45 -155 -47 -78 -98 -95 -164 -56 -73 42 -92 101 -55 163 34 56 107 76
174 48z m-419 -16 c191 -21 187 -20 180 -38 -14 -38 -17 -73 -7 -102 6 -16 10
-30 9 -30 -10 0 -257 84 -295 100 -52 23 -52 21 -43 83 0 5 13 6 29 3 15 -3
72 -10 127 -16z m-1970 -83 c6 -31 21 -71 33 -87 12 -16 22 -31 22 -34 0 -11
-503 -103 -659 -120 l-54 -5 30 32 c46 48 63 89 63 151 l0 55 43 6 c23 3 119
14 212 25 94 11 193 24 220 29 75 13 77 12 90 -52z m3281 37 c47 -32 59 -47
84 -99 23 -47 25 -113 6 -159 -19 -45 -79 -111 -116 -126 -46 -19 -163 -9
-197 16 -47 35 -76 105 -77 182 0 73 13 108 61 156 39 40 79 55 144 56 45 0
64 -5 95 -26z m735 -129 c1 -85 2 -163 2 -172 1 -11 -5 -17 -13 -15 -175 41
-368 85 -452 103 -99 21 -108 24 -108 45 0 39 -30 117 -61 156 l-29 36 330 1
330 2 1 -156z m-1011 135 c0 -5 -4 -10 -9 -10 -20 0 -72 -99 -78 -149 l-6 -52
-66 6 c-130 11 -335 25 -363 25 l-29 0 22 29 c13 17 24 50 27 79 l4 50 127 7
c126 6 349 21 364 24 4 0 7 -3 7 -9z m-2160 -55 c0 -2 -9 -19 -20 -37 -11 -18
-20 -45 -20 -60 0 -22 -6 -29 -33 -36 -18 -5 -107 -31 -197 -58 -133 -39 -165
-45 -168 -33 -3 8 -22 31 -43 51 -35 33 -37 37 -19 43 10 3 39 28 63 54 l43
49 155 15 c169 16 239 20 239 12z m187 -27 c33 -31 32 -90 -3 -125 -22 -22
-32 -25 -77 -20 -87 8 -117 79 -58 138 38 37 102 41 138 7z m919 -33 c81 -30
149 -57 152 -60 3 -3 -4 -12 -15 -20 -22 -16 -52 -88 -47 -117 1 -10 -1 -18
-5 -18 -14 0 -280 253 -275 262 10 16 46 7 190 -47z m-58 -276 c-40 -38 -55
-46 -65 -37 -12 10 -122 188 -152 245 -10 19 -8 27 11 48 l22 26 117 -117 118
-117 -51 -48z m-559 120 c-9 -72 -18 -131 -20 -132 -2 -2 -25 4 -50 13 l-46
16 38 99 c56 146 55 144 76 139 18 -5 18 -10 2 -135z m343 -34 c38 -65 67
-119 65 -120 -1 -1 -23 -12 -49 -23 l-46 -20 -45 131 c-41 120 -43 132 -28
144 9 7 21 11 26 9 6 -1 40 -56 77 -121z m-262 62 c0 -29 5 -90 10 -136 6 -46
10 -84 8 -86 -2 -1 -17 -5 -35 -8 -28 -6 -32 -3 -37 21 -4 15 0 78 9 141 8 63
15 116 15 118 0 2 7 3 15 3 11 0 15 -13 15 -53z m140 -103 c28 -81 50 -153 50
-158 0 -5 -10 0 -22 11 -30 27 -62 43 -86 43 -23 0 -27 19 -37 151 -7 83 -6
85 16 96 13 6 25 9 27 8 1 -1 25 -69 52 -151z m720 131 c58 -30 69 -104 22
-156 -23 -25 -38 -33 -78 -36 -43 -5 -54 -2 -81 21 -71 60 -47 148 47 177 39
12 59 10 90 -6z m-1993 -29 c58 -27 83 -64 83 -121 0 -164 -200 -258 -307
-143 -55 58 -68 152 -30 208 51 77 158 100 254 56z m558 -10 c20 -14 41 -26
48 -29 24 -8 -16 -57 -117 -141 -56 -46 -144 -120 -196 -164 l-94 -81 -28 34
c-16 18 -44 43 -63 55 l-35 22 20 25 c23 29 38 79 44 143 l4 44 68 23 c104 36
287 92 301 93 7 0 28 -11 48 -24z m1935 3 c74 -5 143 -9 153 -9 12 0 17 -8 17
-25 0 -14 9 -44 20 -65 19 -37 19 -40 3 -40 -31 -1 -107 -40 -143 -75 l-35
-33 -203 58 c-112 32 -205 60 -208 62 -2 2 1 20 6 38 6 19 7 44 4 55 -18 62
-29 57 118 50 73 -3 194 -10 268 -16z m-2805 -25 c-28 -42 -40 -91 -32 -138
l5 -33 -216 -68 c-120 -36 -237 -73 -261 -81 -25 -8 -48 -14 -51 -14 -4 0 -10
21 -14 48 -9 73 -36 149 -62 177 -12 13 -19 27 -14 30 7 4 323 59 595 103 33
5 63 10 67 11 4 0 -4 -15 -17 -35z m3650 -16 c104 -21 332 -81 375 -98 l25
-10 0 -225 c0 -124 -3 -225 -7 -225 -4 0 -146 54 -315 121 -170 66 -331 130
-360 141 -29 11 -59 28 -68 37 -15 16 -65 89 -65 95 0 2 14 6 32 10 71 14 163
98 175 160 6 28 7 28 57 22 28 -4 96 -16 151 -28z m-2519 -9 c12 -13 19 -35
19 -61 0 -76 -80 -112 -152 -68 -40 24 -50 58 -29 98 21 41 41 51 97 52 34 0
51 -5 65 -21z m-1871 -62 c76 -43 133 -159 121 -250 -13 -91 -58 -144 -145
-167 -55 -15 -159 1 -216 33 -69 39 -85 75 -85 187 0 91 2 99 29 137 41 57 99
83 186 83 54 0 79 -5 110 -23z m1702 -114 l26 -21 -24 -49 c-20 -38 -182 -306
-196 -322 -1 -2 -27 9 -55 25 -43 23 -65 29 -118 29 l-65 0 5 57 c7 67 12 73
194 215 61 48 126 100 145 116 l33 28 14 -28 c8 -15 26 -38 41 -50z m1130 67
c70 -25 77 -138 12 -184 -34 -23 -110 -21 -142 4 -31 24 -50 82 -37 114 11 29
31 45 77 62 47 16 53 17 90 4z m349 -43 c38 -13 128 -36 201 -52 73 -16 137
-31 143 -35 7 -4 5 -22 -6 -53 -9 -27 -14 -68 -12 -96 l3 -48 -56 -12 c-31 -6
-74 -24 -95 -40 l-39 -28 -54 49 c-30 27 -104 85 -165 128 -61 44 -119 85
-128 92 -12 9 -15 22 -11 46 4 26 10 32 32 32 14 1 42 9 61 20 44 24 43 24
126 -3z m-1129 -2 c44 -31 35 -131 -12 -149 -37 -14 -94 -6 -121 17 -82 71 44
194 133 132z m1811 -1 c100 -41 144 -141 112 -256 -23 -83 -118 -148 -217
-148 -45 0 -58 5 -112 46 -73 55 -90 97 -72 179 35 151 164 232 289 179z
m-3105 -68 c9 -13 36 -36 61 -52 l45 -28 -46 -44 -45 -44 4 -71 3 -71 -55 -28
c-55 -28 -479 -198 -493 -198 -4 0 -7 10 -7 23 0 58 -116 237 -153 237 -6 0 8
13 29 28 21 16 45 40 53 54 11 21 35 33 130 63 234 75 387 126 416 140 41 18
41 18 58 -9z m1845 -11 c32 -38 30 -96 -6 -136 -23 -26 -38 -33 -80 -37 -49
-4 -54 -2 -87 31 -37 37 -44 71 -23 110 36 68 149 86 196 32z m-297 -1 c21
-19 26 -82 9 -114 -6 -11 -28 -25 -49 -31 -33 -10 -45 -9 -77 7 -66 32 -69
107 -6 147 33 21 95 17 123 -9z m-466 -16 c12 -55 35 -89 68 -103 18 -7 35
-11 39 -9 11 7 10 -7 -1 -42 -6 -16 -30 -94 -55 -174 l-45 -145 -83 0 c-70 -1
-91 -5 -135 -27 l-53 -27 0 42 c0 24 -8 56 -20 75 -11 18 -20 39 -20 46 0 8
20 40 43 73 51 68 135 207 168 276 20 42 27 47 55 47 28 0 33 -4 39 -32z
m1136 -56 c14 -9 89 -68 167 -130 l142 -113 -31 -39 c-21 -26 -33 -54 -37 -85
l-5 -46 -40 7 c-23 3 -48 11 -57 17 -9 5 -69 84 -134 174 l-118 165 33 34 c38
39 45 40 80 16z m-1837 -25 c59 -32 79 -73 71 -141 -9 -66 -56 -128 -119 -157
-53 -24 -88 -24 -136 1 -80 41 -125 163 -86 237 43 84 175 113 270 60z m3003
-11 c177 -79 396 -173 513 -221 63 -25 120 -53 126 -61 15 -19 18 -644 3 -644
-5 0 -42 22 -82 48 -40 27 -152 99 -250 161 -241 151 -357 227 -521 339 l-139
95 59 19 c80 25 146 75 174 133 19 39 22 58 17 111 -2 35 -3 64 -1 64 2 0 48
-20 101 -44z m-2021 -71 c18 -17 22 -40 32 -175 7 -85 12 -179 12 -207 0 -49
-2 -53 -27 -59 -75 -17 -109 -27 -120 -35 -13 -11 -18 -5 -27 32 -3 15 -26 49
-50 76 l-45 50 57 172 c50 150 61 174 87 190 30 19 30 19 45 -3 8 -11 24 -30
36 -41z m650 45 c29 0 36 -6 68 -57 19 -32 70 -108 114 -170 l80 -111 -45 -11
c-54 -14 -134 -90 -152 -144 -12 -36 -31 -50 -31 -23 0 7 -36 114 -80 237
l-81 224 18 33 c16 29 22 33 47 28 16 -3 43 -6 62 -6z m-365 -87 c6 -15 28
-115 48 -221 38 -194 38 -194 17 -202 -12 -4 -31 -19 -44 -33 l-23 -25 -49 49
c-37 36 -59 50 -89 55 -49 8 -48 5 -54 220 l-5 152 49 6 c34 5 60 16 82 35 30
27 32 28 44 11 7 -10 18 -31 24 -47z m261 -195 c42 -112 75 -205 73 -207 -2
-2 -24 5 -49 14 -33 13 -62 16 -100 12 -50 -5 -55 -4 -60 16 -5 22 -56 331
-56 341 0 3 17 6 38 6 20 0 44 5 52 10 8 5 18 10 21 10 3 0 40 -91 81 -202z
m932 105 c51 -35 86 -101 86 -163 0 -49 -35 -134 -66 -162 -55 -49 -188 -67
-251 -35 -17 9 -48 40 -69 69 -32 43 -39 60 -38 98 1 78 62 172 137 210 59 30
144 23 201 -17z m-3578 -12 c44 -20 78 -59 114 -130 30 -59 25 -172 -9 -219
-40 -57 -86 -77 -176 -77 -150 0 -244 72 -253 194 -6 83 12 139 62 187 23 22
58 45 77 51 55 18 139 15 185 -6z m1409 -34 c61 -30 89 -81 88 -162 -1 -74
-28 -140 -78 -188 -78 -76 -186 -57 -269 46 -29 37 -31 44 -31 121 1 97 13
122 79 161 70 41 155 50 211 22z m-593 -14 c26 -43 72 -83 113 -97 l38 -13
-264 -175 c-313 -207 -399 -262 -403 -257 -2 2 -13 23 -24 45 -23 45 -68 88
-119 112 l-32 15 19 27 c11 15 27 49 37 75 l18 48 140 59 c77 32 184 77 239
99 54 22 119 51 145 64 60 31 73 31 93 -2z m3458 -416 c206 -137 403 -270 436
-294 l62 -43 1 -110 2 -110 -304 0 -305 0 -58 73 c-119 147 -441 532 -457 546
-23 19 -21 29 12 57 41 34 63 97 64 175 l0 67 86 -56 c47 -30 255 -168 461
-305z m-3208 228 c4 -59 12 -89 36 -136 l32 -61 -73 -87 c-126 -149 -316 -380
-349 -426 -18 -24 -35 -44 -38 -45 -3 0 -14 16 -25 36 -51 95 -167 164 -275
164 l-47 0 5 73 c2 39 9 74 14 75 24 10 660 442 688 468 8 8 17 14 21 14 3 0
9 -34 11 -75z m752 21 c122 -51 137 -266 26 -360 -39 -32 -67 -40 -130 -34
-96 9 -180 91 -188 181 -8 105 37 180 129 213 46 17 123 17 163 0z m1313 -1
c52 -22 72 -42 99 -100 30 -63 30 -107 0 -170 -43 -92 -111 -130 -224 -123
-65 4 -66 4 -118 62 -33 36 -54 70 -59 92 -14 75 53 191 134 234 44 23 119 25
168 5z m-441 -124 c150 -68 136 -350 -20 -392 -96 -26 -222 36 -255 124 -18
47 -13 138 8 173 26 42 81 83 133 99 59 19 86 18 134 -4z m-395 -38 c78 -84
76 -223 -5 -311 -75 -84 -222 -61 -300 47 -28 39 -31 50 -30 117 0 58 5 80 20
101 48 64 120 95 213 90 60 -3 66 -5 102 -44z m1130 -43 c41 -8 61 -6 105 9
55 18 55 18 66 -3 23 -43 343 -463 430 -565 16 -18 27 -36 24 -39 -3 -3 -102
-7 -220 -9 l-213 -3 -40 62 c-23 35 -79 131 -126 213 -46 83 -100 176 -120
208 -32 55 -34 61 -21 85 8 15 14 40 14 56 0 28 0 28 25 12 14 -9 48 -21 76
-26z m-1921 -125 c8 -10 0 -30 -33 -82 -24 -37 -83 -135 -132 -218 -48 -82
-95 -158 -103 -168 -14 -16 -35 -17 -246 -13 -127 3 -239 5 -249 5 -14 1 -4
20 44 84 87 114 287 361 346 425 l48 54 30 -16 c60 -32 173 -15 228 34 l32 28
12 -60 c7 -33 17 -66 23 -73z m-1716 94 c33 -26 33 -53 0 -86 -20 -20 -31 -24
-57 -19 -18 3 -40 16 -49 27 -55 66 36 133 106 78z m324 -24 c72 -22 137 -106
155 -203 16 -83 -37 -188 -110 -218 -70 -30 -207 -11 -273 36 -40 29 -80 111
-80 166 0 85 46 165 115 201 68 36 117 40 193 18z m3197 -146 c20 -39 76 -143
125 -231 50 -88 87 -164 85 -169 -9 -14 -361 -11 -373 4 -8 10 -122 330 -122
343 0 2 11 4 25 4 45 0 138 42 179 81 23 21 42 39 43 39 2 0 19 -32 38 -71z
m-1696 -10 c41 -25 60 -31 108 -31 32 0 76 7 97 16 21 9 40 16 41 16 2 0 -47
-162 -99 -325 l-23 -70 -203 -3 c-117 -1 -208 2 -213 7 -6 6 25 66 80 158 49
81 104 174 122 206 18 31 34 57 36 57 2 0 26 -14 54 -31z m1395 -187 c31 -86
57 -168 59 -182 l2 -25 -180 0 -180 0 -27 105 c-29 111 -29 130 -1 130 10 0
41 11 69 24 54 25 89 68 100 123 l6 29 48 -24 47 -23 57 -157z m-1072 148 c19
-33 92 -89 141 -107 18 -6 57 -12 88 -12 l56 -1 -12 -67 c-7 -38 -17 -90 -22
-118 l-8 -50 -174 -3 c-96 -1 -178 1 -182 5 -4 5 8 64 27 133 19 69 40 153 46
188 6 34 14 62 17 62 3 0 14 -14 23 -30z m486 -42 c42 -46 101 -77 149 -78 29
0 33 -3 38 -37 3 -21 12 -72 19 -113 8 -41 12 -78 9 -82 -4 -8 -386 -11 -394
-3 -3 2 1 46 9 97 8 51 16 108 18 126 3 17 11 32 18 32 16 0 74 57 81 81 4 10
8 19 11 19 2 0 21 -19 42 -42z m-1947 -152 c19 -8 46 -27 60 -43 28 -29 69
-92 69 -105 0 -5 -99 -8 -221 -8 l-221 0 7 27 c13 55 74 115 133 133 44 13
137 11 173 -4z m-642 -37 c32 -58 -20 -120 -87 -103 -44 11 -68 48 -58 88 14
56 116 67 145 15z"/>
</g>
</svg>
