<?xml version="1.0" standalone="no"?>
<!DOCTYPE svg PUBLIC "-//W3C//DTD SVG 20010904//EN"
 "http://www.w3.org/TR/2001/REC-SVG-20010904/DTD/svg10.dtd">
<svg version="1.0" xmlns="http://www.w3.org/2000/svg"
 width="824.000000pt" height="810.000000pt" viewBox="0 0 824.000000 810.000000"
 preserveAspectRatio="xMidYMid meet">
<metadata>
Created by potrace 1.16, written by Peter Selinger 2001-2019
</metadata>
<g id="pattern2" transform="translate(0.000000,810.000000) scale(0.100000,-0.100000)"
fill="#000000" stroke="none">
<path d="M3865 7849 c-778 -52 -1532 -344 -2140 -830 -775 -619 -1276 -1497
-1415 -2479 -82 -574 -28 -1169 156 -1733 376 -1151 1300 -2075 2451 -2451
704 -229 1429 -255 2148 -75 1266 317 2303 1285 2709 2526 229 704 255 1429
75 2148 -202 807 -674 1537 -1334 2064 -745 596 -1696 894 -2650 830z m713
-63 c748 -100 1388 -376 1961 -843 136 -112 402 -378 514 -514 422 -518 702
-1125 811 -1759 45 -259 51 -341 51 -660 0 -319 -6 -401 -51 -660 -108 -631
-385 -1234 -806 -1752 -118 -145 -381 -408 -526 -526 -585 -475 -1237 -750
-2002 -844 -140 -17 -680 -17 -820 0 -765 94 -1417 369 -2002 844 -145 118
-408 381 -526 526 -475 585 -750 1237 -844 2002 -17 140 -17 680 0 820 95 768
372 1425 849 2009 112 136 378 402 514 514 583 475 1290 774 2004 846 61 6
126 13 145 15 85 10 621 -4 728 -18z"/>
<path d="M4002 7754 c-65 -32 -114 -89 -135 -155 -21 -63 -21 -101 -2 -165 19
-65 72 -126 137 -158 144 -72 328 6 373 158 19 64 19 102 -2 165 -35 110 -135
181 -253 181 -51 0 -78 -6 -118 -26z m234 -49 c24 -14 57 -45 72 -67 24 -37
27 -51 27 -124 0 -75 -3 -86 -30 -125 -40 -56 -120 -99 -185 -99 -65 0 -145
43 -185 98 -41 59 -48 159 -15 227 55 114 202 156 316 90z"/>
<path d="M4050 7638 c-76 -52 -96 -129 -52 -201 76 -122 265 -65 265 80 0 73
-70 143 -143 143 -22 0 -51 -9 -70 -22z m143 -59 c37 -40 37 -88 -2 -131 -24
-27 -36 -33 -71 -33 -35 0 -47 6 -71 33 -37 42 -39 89 -4 131 42 49 102 49
148 0z"/>
<path d="M2735 7514 c-91 -23 -160 -74 -197 -148 -71 -139 4 -322 151 -371 66
-21 150 -16 207 13 52 27 118 99 135 148 31 93 4 217 -64 282 -56 54 -170 91
-232 76z m126 -58 c144 -60 186 -249 81 -359 -74 -78 -191 -95 -279 -41 -128
79 -146 252 -36 356 58 55 161 75 234 44z"/>
<path d="M2703 7370 c-46 -28 -66 -64 -67 -120 -2 -106 113 -180 204 -133 73
38 101 129 62 202 -36 66 -133 91 -199 51z m143 -54 c38 -38 43 -70 19 -116
-19 -37 -43 -50 -90 -50 -97 0 -133 138 -47 184 45 25 80 20 118 -18z"/>
<path d="M5395 7506 c-93 -30 -140 -70 -176 -151 -44 -96 -27 -206 44 -283
109 -117 277 -123 387 -12 109 108 106 274 -7 382 -66 64 -169 90 -248 64z
m153 -52 c123 -51 175 -208 106 -321 -79 -128 -252 -146 -356 -36 -62 65 -76
168 -34 251 28 55 48 75 102 102 48 24 131 26 182 4z"/>
<path d="M5391 7372 c-69 -37 -92 -137 -48 -203 60 -90 172 -88 241 5 26 35
27 112 2 151 -40 62 -128 83 -195 47z m119 -37 c59 -31 69 -107 21 -156 -49
-48 -125 -38 -156 21 -24 46 -19 78 19 116 38 38 70 43 116 19z"/>
<path d="M3765 7204 c-336 -37 -700 -139 -1013 -285 -659 -308 -1233 -882
-1541 -1541 -201 -431 -301 -886 -301 -1368 0 -865 329 -1659 940 -2270 611
-611 1405 -940 2270 -940 865 0 1659 329 2270 940 611 611 940 1405 940 2270
0 866 -328 1659 -940 2270 -526 527 -1198 848 -1932 925 -181 19 -514 18 -693
-1z m586 -35 c645 -50 1246 -286 1747 -685 125 -99 397 -371 496 -496 642
-806 853 -1866 570 -2856 -106 -374 -320 -787 -570 -1100 -99 -125 -371 -397
-496 -496 -805 -642 -1866 -853 -2856 -570 -374 106 -787 320 -1100 570 -125
99 -397 371 -496 496 -642 806 -853 1866 -570 2856 106 374 320 787 570 1100
99 125 371 397 496 496 625 498 1428 747 2209 685z"/>
<path d="M3855 6680 c-634 -71 -1190 -335 -1630 -775 -392 -392 -646 -879
-745 -1426 -59 -328 -51 -717 21 -1044 225 -1020 1023 -1819 2044 -2044 207
-46 310 -56 575 -56 265 0 368 10 575 56 1021 225 1819 1023 2044 2044 46 207
56 310 56 575 0 265 -10 368 -56 575 -120 545 -408 1040 -819 1411 -402 363
-868 583 -1420 669 -123 19 -522 28 -645 15z m136 -80 c-126 -126 -202 -407
-204 -754 l-1 -168 -28 78 c-40 111 -137 305 -199 398 -55 83 -156 196 -221
248 -22 17 -64 41 -94 53 l-54 22 57 21 c208 75 493 132 733 145 30 2 56 4 58
5 2 1 -20 -21 -47 -48z m537 15 c130 -21 310 -65 427 -104 49 -17 92 -31 95
-31 3 0 -21 -11 -52 -24 -145 -60 -301 -242 -428 -501 -33 -66 -72 -155 -88
-199 l-28 -78 -1 168 c-2 344 -78 628 -201 751 l-48 48 110 -7 c61 -4 157 -14
214 -23z m-365 -4 c89 -34 172 -198 219 -435 30 -149 32 -487 4 -641 -35 -197
-100 -350 -176 -419 -67 -60 -113 -60 -180 0 -76 69 -141 222 -176 419 -28
154 -26 492 4 641 64 319 179 483 305 435z m-906 -211 c205 -103 455 -533 533
-919 24 -117 29 -301 11 -366 -25 -92 -87 -144 -155 -129 -174 37 -414 359
-540 721 -59 171 -81 289 -81 443 0 128 1 138 28 193 46 93 101 108 204 57z
m1873 15 c18 -9 39 -36 57 -72 27 -55 28 -65 28 -193 0 -103 -6 -159 -23 -238
-68 -307 -238 -638 -414 -808 -84 -81 -145 -117 -205 -118 -166 -4 -196 313
-67 704 41 126 143 335 215 445 77 115 188 228 262 265 67 33 104 37 147 15z
m-2119 -56 c-21 -45 -26 -69 -29 -170 -3 -65 1 -155 8 -201 17 -119 71 -296
132 -439 l54 -124 -126 125 c-238 237 -489 381 -666 383 -34 0 -61 4 -58 9 14
22 214 180 318 250 98 67 365 217 387 218 3 0 -6 -23 -20 -51z m2322 -11 c149
-76 349 -208 479 -317 54 -45 99 -85 102 -89 3 -5 -24 -9 -58 -9 -177 -2 -428
-146 -666 -383 l-126 -125 54 124 c61 143 115 320 132 439 7 46 11 136 8 201
-3 101 -8 125 -29 170 -14 28 -24 51 -22 51 3 0 59 -28 126 -62z m-2779 -498
c278 -116 616 -433 764 -717 100 -193 113 -312 41 -377 -31 -27 -35 -28 -113
-24 -170 10 -405 148 -626 369 -273 273 -430 585 -364 724 8 18 30 41 47 50
49 25 156 14 251 -25z m3381 24 c70 -33 83 -127 36 -260 -111 -319 -498 -715
-834 -852 -43 -17 -88 -27 -144 -30 l-83 -4 -35 35 c-33 33 -35 38 -35 104 0
240 292 635 641 869 199 133 361 182 454 138z m-3702 -297 c61 -159 192 -344
363 -514 l113 -111 -84 39 c-209 98 -462 161 -645 162 -111 0 -151 -8 -244
-48 -13 -6 -2 24 44 115 95 185 218 367 359 529 l56 64 6 -84 c4 -53 16 -109
32 -152z m3908 125 c44 -53 120 -155 168 -227 104 -155 223 -382 195 -370 -93
40 -133 48 -244 48 -183 -1 -436 -64 -645 -162 l-84 -39 113 111 c244 242 396
503 396 682 0 40 4 64 10 60 5 -3 46 -49 91 -103z m-2209 -537 c14 -22 45 -59
70 -81 l45 -42 -62 -6 c-33 -3 -90 -14 -125 -24 l-65 -18 22 46 c27 54 43 131
43 214 l1 61 23 -55 c12 -30 34 -73 48 -95z m468 -72 c7 -21 20 -52 30 -69
l17 -31 -65 19 c-37 10 -94 21 -127 24 l-61 6 52 50 c48 45 121 167 125 209 1
8 5 -27 9 -78 5 -50 13 -109 20 -130z m-872 -103 c25 -17 64 -35 85 -41 l40
-11 -59 -35 c-33 -19 -78 -50 -101 -69 -23 -19 -43 -34 -45 -34 -2 0 -3 35 -4
78 -1 72 -12 113 -60 227 -4 11 16 -4 45 -32 29 -29 74 -66 99 -83z m1307 64
c-32 -79 -48 -158 -42 -211 2 -24 2 -43 0 -43 -3 0 -23 15 -46 34 -23 19 -68
50 -101 69 l-59 35 40 11 c51 14 118 59 179 120 27 27 50 48 51 47 1 -1 -9
-29 -22 -62z m-2690 41 c180 -29 336 -82 521 -175 227 -114 393 -250 453 -371
36 -73 38 -102 11 -147 -34 -55 -94 -76 -236 -80 -174 -6 -342 28 -549 110
-409 162 -707 439 -631 587 17 33 72 66 133 80 60 14 200 12 298 -4z m4307
-17 c40 -19 62 -36 73 -58 77 -149 -220 -426 -630 -588 -207 -82 -375 -116
-549 -110 -142 4 -202 25 -236 80 -27 45 -25 74 11 147 64 128 251 276 490
390 253 120 462 172 669 168 99 -3 123 -7 172 -29z m-2067 -112 c338 -100 588
-349 691 -691 26 -83 28 -103 28 -265 0 -162 -2 -182 -28 -265 -103 -342 -349
-588 -691 -691 -83 -26 -103 -28 -265 -28 -162 0 -182 2 -265 28 -342 103
-588 349 -691 691 -26 83 -28 103 -28 265 0 162 2 182 28 265 117 389 407 644
816 719 14 3 90 3 170 1 121 -2 160 -7 235 -29z m-2667 -158 c104 -151 375
-331 653 -433 l94 -35 -95 6 c-107 7 -326 -9 -440 -32 -180 -36 -324 -99 -399
-174 l-46 -46 7 113 c13 204 56 418 125 631 l37 113 17 -50 c10 -28 31 -70 47
-93z m4901 42 c68 -203 116 -441 129 -646 l7 -110 -47 47 c-125 125 -404 201
-749 203 l-176 1 90 32 c340 122 646 354 698 531 7 23 13 41 14 40 1 -2 17
-46 34 -98z m-3421 -160 c34 -7 78 -10 97 -7 19 3 35 3 35 1 0 -3 -15 -24 -34
-47 -19 -23 -49 -68 -68 -99 l-35 -58 -11 38 c-15 50 -62 122 -118 182 l-46
50 58 -24 c33 -13 87 -30 122 -36z m1979 11 c-57 -61 -104 -133 -119 -183
l-11 -38 -35 58 c-19 31 -49 76 -68 99 -19 23 -34 43 -34 46 0 2 19 2 43 0 48
-5 151 16 217 46 25 11 47 20 49 20 2 1 -17 -21 -42 -48z m-2058 -427 c-10
-36 -21 -92 -25 -125 l-7 -59 -36 38 c-45 49 -103 87 -178 118 l-58 24 63 0
c78 0 187 24 227 50 17 10 31 19 31 19 1 1 -7 -29 -17 -65z m2112 11 c35 -8
93 -15 129 -15 l65 0 -58 -24 c-75 -31 -133 -69 -178 -118 l-36 -38 -7 59 c-4
33 -15 89 -25 125 l-18 66 32 -20 c17 -11 60 -26 96 -35z m-2698 0 c185 -24
346 -77 441 -145 46 -33 86 -94 86 -129 0 -88 -137 -185 -334 -236 -160 -41
-232 -50 -441 -50 -209 0 -281 9 -441 50 -197 51 -334 148 -334 236 0 41 43
100 102 139 94 63 244 111 416 135 133 18 368 18 505 0z m3642 5 c259 -30 477
-119 534 -219 25 -45 26 -72 7 -109 -50 -95 -216 -175 -451 -218 -124 -22
-469 -26 -585 -6 -259 46 -436 126 -486 223 -20 39 -18 65 8 111 53 94 253
180 496 213 119 16 356 18 477 5z m-4564 -472 c139 -86 389 -137 674 -138
l170 -1 -100 -38 c-220 -84 -407 -195 -536 -318 -89 -86 -126 -136 -149 -203
l-17 -49 -36 112 c-70 213 -112 426 -125 632 l-7 115 50 -48 c27 -27 62 -56
76 -64z m1508 -73 c16 -57 15 -57 -26 -36 -51 25 -130 41 -211 41 l-67 1 59
25 c79 34 123 63 171 113 l40 41 11 -73 c6 -39 17 -90 23 -112z m2152 79 c20
-12 63 -34 95 -48 l59 -25 -67 -1 c-82 0 -160 -16 -212 -42 l-39 -20 8 29 c18
72 35 161 35 187 l0 30 43 -43 c23 -24 58 -54 78 -67z m1477 -9 c-13 -206 -55
-419 -125 -632 l-36 -112 -17 49 c-23 67 -60 117 -149 203 -129 123 -318 235
-534 317 l-99 38 214 5 c156 4 238 11 308 25 190 40 324 98 398 173 26 27 47
49 47 49 0 0 -3 -52 -7 -115z m-3779 -115 c112 -19 181 -72 181 -141 0 -87
-137 -245 -313 -360 -327 -216 -784 -336 -1020 -268 -55 15 -106 66 -114 111
-19 120 183 323 465 466 295 150 603 224 801 192z m2628 -20 c218 -45 503
-168 676 -291 168 -119 277 -263 264 -347 -8 -47 -59 -96 -119 -114 -63 -18
-265 -15 -373 6 -203 40 -464 147 -642 265 -176 115 -313 273 -313 360 0 66
69 122 172 140 71 13 222 4 335 -19z m-2301 -297 c19 -23 34 -43 34 -45 0 -2
-26 -2 -57 0 -53 3 -141 -18 -228 -54 -11 -4 5 21 39 62 56 66 106 152 106
184 0 8 16 -12 36 -45 20 -33 51 -79 70 -102z m1805 29 c8 -9 36 -44 64 -76
32 -38 43 -57 30 -52 -89 37 -175 57 -228 54 -31 -2 -57 -2 -57 -1 0 1 21 30
48 65 26 35 56 80 66 100 l20 36 22 -54 c12 -30 28 -62 35 -72z m-1751 -137
c75 -39 70 -183 -13 -350 -185 -374 -646 -765 -932 -792 -73 -7 -115 11 -145
60 -106 173 226 680 615 942 210 141 377 191 475 140z m1703 10 c179 -38 462
-234 652 -452 330 -380 394 -724 130 -700 -286 27 -747 418 -932 792 -65 131
-84 246 -49 313 9 17 18 32 19 32 1 0 20 7 42 15 50 18 55 18 138 0z m-1552
-105 c27 -21 72 -51 99 -66 l50 -27 -55 -23 c-58 -23 -103 -54 -172 -117 l-41
-38 24 58 c31 78 47 157 41 210 -2 24 -3 43 0 43 2 0 26 -18 54 -40z m1292 -3
c-6 -53 10 -132 41 -210 l24 -58 -41 38 c-69 63 -114 94 -171 117 l-55 22 62
36 c34 20 78 50 97 67 19 17 38 30 41 31 4 0 4 -19 2 -43z m-2212 -235 c-240
-242 -381 -488 -381 -665 0 -41 -4 -66 -10 -62 -26 16 -182 215 -259 330 -72
108 -211 358 -211 379 0 4 10 0 23 -8 112 -72 393 -59 663 30 79 26 281 109
300 123 1 1 -55 -56 -125 -127z m3253 4 c270 -89 551 -102 664 -30 12 8 22 12
22 8 0 -21 -139 -271 -211 -379 -77 -115 -233 -314 -259 -330 -6 -4 -10 21
-10 62 0 179 -146 430 -389 673 l-116 116 96 -42 c52 -23 144 -58 203 -78z
m-2092 67 c59 -53 81 -171 66 -343 -22 -247 -133 -547 -289 -780 -164 -245
-337 -353 -428 -266 -52 50 -66 104 -66 251 1 98 6 156 23 233 92 415 354 840
567 920 40 15 102 8 127 -15z m924 -4 c112 -55 264 -248 374 -474 118 -242
174 -453 175 -660 0 -147 -14 -201 -66 -251 -136 -130 -436 176 -613 625 -142
360 -145 729 -6 784 26 11 87 0 136 -24z m-746 -15 c36 -7 79 -14 95 -14 l30
0 -36 -33 c-52 -45 -86 -95 -118 -172 l-28 -66 -5 93 c-4 68 -12 110 -31 156
l-25 64 26 -7 c15 -4 56 -13 92 -21z m492 -36 c-18 -46 -26 -88 -30 -156 l-5
-93 -28 66 c-32 76 -66 127 -116 171 l-36 31 59 7 c33 4 82 13 109 20 75 21
75 22 47 -46z m-249 -17 c89 -34 172 -198 219 -435 30 -149 32 -487 4 -641
-35 -197 -100 -350 -176 -419 -67 -60 -113 -60 -180 0 -76 69 -141 222 -176
419 -28 154 -26 492 4 641 64 319 179 483 305 435z m-1025 -428 c-54 -118
-112 -295 -138 -422 -37 -182 -26 -378 26 -458 8 -13 12 -23 8 -23 -3 0 -60
28 -126 61 -183 94 -365 218 -527 358 l-64 56 84 6 c190 14 434 159 669 400
58 59 106 108 107 108 1 1 -17 -38 -39 -86z m2222 -195 c187 -144 341 -217
479 -227 l84 -6 -64 -56 c-162 -140 -344 -264 -527 -358 -66 -33 -123 -61
-126 -61 -3 0 3 15 13 33 34 59 44 131 38 276 -8 191 -59 385 -157 598 l-39
83 107 -108 c59 -60 145 -138 192 -174z m-1573 -145 c2 -342 73 -609 197 -742
l51 -54 -115 6 c-193 10 -407 53 -628 125 l-113 36 51 18 c175 59 399 355 521
686 18 50 34 92 34 92 1 0 2 -75 2 -167z m815 -174 c125 -227 280 -394 408
-437 l52 -18 -134 -42 c-225 -72 -495 -122 -655 -122 l-66 0 50 53 c123 130
194 399 196 739 l1 168 50 -128 c28 -70 72 -166 98 -213z"/>
<path d="M4094 6430 c-53 -21 -97 -118 -130 -285 -28 -139 -25 -454 5 -595 37
-173 86 -260 146 -260 70 0 118 80 156 260 30 141 33 456 5 594 -25 131 -55
211 -90 250 -35 39 -61 49 -92 36z m65 -68 c10 -15 28 -55 39 -87 42 -125 47
-172 47 -420 0 -216 -3 -249 -23 -330 -30 -119 -68 -190 -102 -190 -34 0 -72
71 -102 190 -20 81 -23 114 -23 330 0 248 5 295 47 420 37 111 78 142 117 87z"/>
<path d="M3190 6247 c-62 -31 -72 -157 -25 -341 118 -472 426 -873 509 -665
44 110 -13 372 -139 636 -128 268 -262 412 -345 370z m81 -60 c52 -35 133
-149 203 -287 106 -207 169 -414 170 -561 1 -122 -32 -140 -115 -62 -163 153
-349 590 -349 822 0 110 24 133 91 88z"/>
<path d="M4975 6241 c-204 -93 -491 -795 -409 -1000 80 -200 375 169 499 624
77 281 40 435 -90 376z m75 -57 c64 -167 -145 -726 -339 -907 -84 -79 -115
-61 -114 66 2 148 62 348 169 557 121 238 252 369 284 284z"/>
<path d="M2414 5727 c-25 -22 -29 -32 -27 -71 8 -219 521 -737 756 -763 40 -5
49 -2 73 22 24 24 26 32 21 77 -23 188 -387 594 -642 714 -100 48 -144 53
-181 21z m161 -60 c198 -95 486 -383 584 -584 34 -68 45 -112 32 -132 -25 -38
-154 11 -288 110 -89 66 -268 244 -339 339 -102 134 -158 263 -127 293 15 16
73 5 138 -26z"/>
<path d="M5715 5736 c-116 -37 -260 -140 -420 -301 -170 -171 -279 -337 -292
-443 -5 -45 -3 -53 21 -77 24 -24 33 -27 73 -22 235 26 748 544 756 763 2 39
-2 49 -26 70 -31 27 -53 29 -112 10z m93 -75 c5 -46 -49 -152 -132 -261 -71
-95 -250 -273 -339 -339 -134 -99 -263 -148 -288 -110 -35 55 97 273 276 453
173 175 364 300 445 294 32 -3 35 -6 38 -37z"/>
<path d="M1948 4988 c-47 -12 -71 -40 -70 -80 2 -80 134 -193 347 -297 350
-172 670 -221 716 -109 11 27 10 36 -11 75 -80 151 -513 370 -814 412 -90 13
-117 13 -168 -1z m242 -57 c354 -79 783 -342 698 -427 -11 -11 -37 -15 -94
-15 -149 0 -329 52 -540 156 -236 115 -385 254 -316 294 28 17 160 12 252 -8z"/>
<path d="M6112 4989 c-34 -5 -114 -25 -177 -44 -287 -87 -562 -249 -625 -368
-21 -39 -22 -48 -11 -75 35 -85 198 -82 481 10 207 66 474 219 544 311 96 126
3 199 -212 166z m189 -49 c98 -53 -222 -285 -537 -390 -181 -59 -376 -82 -411
-47 -85 85 338 346 692 427 89 20 226 26 256 10z"/>
<path d="M3965 4634 c-112 -27 -202 -80 -295 -174 -132 -132 -190 -268 -190
-450 0 -182 58 -318 190 -450 132 -132 268 -190 450 -190 182 0 318 58 450
190 132 132 190 268 190 450 0 182 -58 318 -190 450 -95 95 -184 147 -300 174
-81 19 -225 19 -305 0z m337 -55 c95 -31 166 -76 239 -148 72 -73 116 -143
150 -241 18 -53 22 -87 22 -180 0 -127 -17 -196 -76 -300 -40 -71 -146 -177
-217 -217 -104 -59 -173 -76 -300 -76 -93 0 -127 4 -180 22 -98 34 -168 78
-241 150 -72 73 -116 143 -150 241 -18 53 -22 87 -22 180 0 127 17 197 75 297
83 147 247 263 411 293 77 13 217 4 289 -21z"/>
<path d="M3995 4315 c-164 -67 -245 -255 -184 -422 46 -123 176 -213 309 -213
133 0 263 90 309 213 46 126 18 252 -78 348 -98 98 -229 126 -356 74z m248
-46 c58 -29 104 -75 135 -134 21 -41 26 -64 26 -125 0 -61 -5 -84 -26 -125
-31 -60 -77 -105 -138 -136 -64 -32 -176 -32 -240 0 -61 31 -107 76 -138 136
-36 69 -37 179 -3 245 42 81 112 139 196 161 47 13 141 1 188 -22z"/>
<path d="M2105 4184 c-211 -29 -311 -58 -367 -104 -44 -37 -51 -81 -18 -122
67 -86 404 -144 688 -120 279 24 435 87 435 174 0 64 -96 117 -273 153 -72 15
-400 28 -465 19z m405 -56 c164 -20 295 -75 288 -121 -4 -31 -111 -82 -218
-104 -67 -14 -132 -18 -310 -18 -252 0 -346 13 -457 65 -109 50 -91 97 57 144
159 50 407 64 640 34z"/>
<path d="M5805 4184 c-263 -31 -408 -92 -408 -172 0 -42 26 -69 98 -102 227
-104 713 -103 955 1 61 26 90 60 90 105 0 70 -131 131 -344 159 -104 13 -309
18 -391 9z m405 -56 c105 -13 225 -50 264 -81 43 -34 29 -62 -47 -97 -111 -52
-205 -65 -457 -65 -257 0 -351 14 -460 68 -77 38 -88 63 -41 96 115 82 441
117 741 79z"/>
<path d="M2650 3564 c-332 -71 -705 -274 -764 -416 -76 -182 323 -152 728 54
185 95 307 196 330 274 11 35 -11 74 -49 89 -43 19 -158 18 -245 -1z m213 -35
c58 -16 52 -49 -26 -124 -196 -192 -744 -390 -892 -323 -114 52 190 274 535
389 177 59 308 79 383 58z"/>
<path d="M5342 3565 c-35 -15 -56 -55 -46 -89 23 -78 145 -179 330 -274 339
-172 692 -228 734 -116 32 83 -114 215 -373 339 -265 127 -538 186 -645 140z
m212 -40 c275 -48 653 -233 741 -364 32 -45 31 -65 0 -79 -109 -50 -473 52
-735 206 -114 67 -220 165 -220 205 0 46 71 57 214 32z"/>
<path d="M3066 3109 c-263 -107 -676 -558 -680 -743 -2 -82 48 -107 151 -75
245 76 677 533 700 742 5 39 2 49 -20 71 -32 32 -81 34 -151 5z m124 -39 c14
-25 5 -59 -36 -141 -50 -100 -139 -211 -271 -339 -173 -168 -340 -275 -417
-268 -47 5 -48 51 -1 145 87 177 290 395 493 530 129 86 211 112 232 73z"/>
<path d="M5023 3104 c-23 -23 -25 -31 -20 -74 25 -209 455 -663 700 -739 70
-21 107 -18 134 11 93 103 -211 523 -533 734 -145 95 -232 116 -281 68z m163
-49 c203 -99 488 -384 589 -588 47 -94 46 -140 -1 -145 -77 -7 -244 100 -417
268 -132 128 -221 239 -271 339 -41 83 -50 116 -35 142 14 27 58 21 135 -16z"/>
<path d="M3539 2812 c-171 -110 -399 -609 -403 -887 -1 -105 21 -148 78 -153
89 -8 204 126 322 373 146 307 197 619 111 680 -31 22 -57 19 -108 -13z m98
-49 c13 -46 5 -168 -17 -258 -72 -306 -297 -695 -402 -695 -39 0 -49 115 -22
248 50 247 202 563 330 687 56 55 99 62 111 18z"/>
<path d="M4593 2825 c-124 -87 40 -654 276 -953 86 -108 174 -133 215 -62 99
168 -168 865 -383 1002 -51 32 -77 35 -108 13z m121 -80 c194 -188 403 -758
334 -910 -60 -132 -343 311 -428 670 -22 90 -30 212 -17 258 12 44 55 37 111
-18z"/>
<path d="M4094 2730 c-134 -53 -197 -571 -114 -927 33 -141 81 -213 140 -213
14 0 36 7 48 16 80 56 141 354 128 629 -15 329 -100 536 -202 495z m66 -70
c11 -16 29 -53 39 -82 38 -110 46 -187 46 -418 0 -248 -13 -343 -62 -453 -44
-98 -82 -98 -126 0 -49 110 -62 205 -62 453 0 153 4 247 14 295 28 140 73 235
111 235 10 0 28 -13 40 -30z"/>
<path d="M1585 6751 c-58 -15 -106 -44 -145 -89 -151 -171 -29 -442 200 -442
229 0 351 271 200 442 -63 72 -173 110 -255 89z m174 -74 c64 -43 95 -97 99
-178 4 -59 1 -74 -23 -118 -85 -155 -305 -156 -389 -2 -61 113 -17 253 97 311
61 31 158 25 216 -13z"/>
<path d="M1563 6610 c-63 -38 -88 -142 -47 -197 37 -49 72 -68 124 -68 79 0
141 59 142 136 2 88 -57 149 -142 149 -27 0 -58 -8 -77 -20z m126 -34 c57 -30
68 -110 22 -157 -83 -83 -214 17 -157 120 26 47 84 63 135 37z"/>
<path d="M6545 6751 c-58 -15 -106 -44 -145 -89 -151 -171 -29 -442 200 -442
229 0 351 271 200 442 -63 72 -173 110 -255 89z m174 -74 c64 -43 95 -97 99
-178 4 -59 1 -74 -23 -118 -85 -155 -305 -156 -389 -2 -61 113 -17 253 97 311
61 31 158 25 216 -13z"/>
<path d="M6523 6610 c-63 -38 -88 -142 -47 -197 37 -49 72 -68 124 -68 79 0
143 61 143 137 0 87 -58 148 -143 148 -27 0 -58 -8 -77 -20z m126 -34 c57 -30
68 -110 22 -157 -83 -83 -214 17 -157 120 26 47 84 63 135 37z"/>
<path d="M792 5601 c-101 -35 -182 -147 -182 -251 0 -60 36 -143 81 -189 46
-45 129 -81 189 -81 137 0 270 133 270 270 0 106 -88 224 -189 254 -69 20
-103 20 -169 -3z m176 -47 c83 -34 131 -110 132 -207 0 -126 -92 -217 -220
-217 -130 0 -220 90 -220 220 0 90 43 160 125 203 39 21 135 21 183 1z"/>
<path d="M837 5485 c-51 -17 -67 -33 -90 -84 -16 -38 -17 -49 -7 -86 31 -112
174 -148 245 -63 96 114 -10 282 -148 233z m92 -49 c56 -30 67 -106 22 -155
-40 -43 -100 -44 -142 -2 -83 83 15 211 120 157z"/>
<path d="M7270 5600 c-99 -34 -180 -147 -180 -250 0 -137 133 -270 270 -270
60 0 143 36 189 81 45 46 81 129 81 189 0 108 -87 223 -191 254 -68 20 -101
20 -169 -4z m188 -49 c80 -41 122 -111 122 -201 0 -130 -90 -220 -220 -220
-127 0 -220 91 -220 215 0 95 45 169 125 206 54 25 144 25 193 0z"/>
<path d="M7315 5485 c-72 -25 -113 -100 -94 -170 41 -146 238 -146 279 1 11
39 10 48 -11 91 -36 72 -103 102 -174 78z m114 -64 c43 -40 44 -100 2 -142
-82 -82 -214 18 -157 120 31 57 106 67 155 22z"/>
<path d="M548 4266 c-168 -46 -253 -234 -174 -385 19 -35 83 -95 125 -116 19
-9 60 -20 91 -22 201 -19 351 192 266 372 -58 122 -187 185 -308 151z m150
-52 c124 -51 176 -208 106 -321 -81 -131 -259 -146 -361 -29 -63 71 -70 177
-17 263 54 88 177 127 272 87z"/>
<path d="M555 4140 c-11 -4 -33 -22 -49 -39 -57 -60 -43 -170 27 -216 72 -46
169 -18 208 61 34 72 14 143 -54 184 -33 21 -96 25 -132 10z m105 -45 c59 -31
69 -107 21 -156 -49 -48 -125 -38 -156 21 -24 46 -19 78 19 116 38 38 70 43
116 19z"/>
<path d="M7585 4274 c-95 -23 -163 -77 -201 -159 -85 -181 65 -391 266 -372
31 2 74 14 96 25 52 27 118 99 135 148 30 88 8 197 -55 271 -48 57 -176 102
-241 87z m146 -72 c125 -65 158 -234 66 -338 -47 -54 -101 -78 -174 -78 -200
1 -293 247 -146 386 67 64 166 76 254 30z"/>
<path d="M7553 4131 c-99 -62 -92 -201 13 -252 105 -50 210 22 201 139 -3 45
-9 59 -40 89 -30 31 -44 37 -89 40 -41 3 -60 -1 -85 -16z m143 -55 c38 -38 43
-70 19 -116 -19 -37 -43 -50 -90 -50 -97 0 -133 138 -47 184 45 25 80 20 118
-18z"/>
<path d="M762 2904 c-90 -45 -152 -143 -152 -239 0 -54 28 -129 65 -172 123
-144 356 -118 441 49 92 182 -33 388 -236 388 -51 0 -78 -6 -118 -26z m219
-42 c34 -17 65 -44 84 -71 27 -39 30 -50 30 -125 0 -73 -3 -87 -27 -124 -37
-55 -103 -93 -175 -99 -50 -4 -65 -1 -113 24 -34 18 -66 45 -85 72 -28 39 -30
50 -30 126 0 76 3 87 30 127 20 28 49 52 84 71 73 36 131 36 202 -1z"/>
<path d="M813 2794 c-101 -51 -100 -210 1 -258 68 -32 140 -11 188 55 25 33
26 108 3 146 -38 65 -127 91 -192 57z m140 -64 c37 -41 37 -89 -1 -131 -23
-25 -36 -32 -71 -33 -36 -1 -47 4 -72 32 -36 40 -38 87 -8 126 43 54 105 57
152 6z"/>
<path d="M7242 2904 c-136 -68 -187 -225 -118 -362 85 -167 318 -193 441 -49
37 43 65 118 65 172 0 145 -122 265 -270 265 -51 0 -78 -6 -118 -26z m219 -42
c34 -17 65 -44 84 -71 28 -39 30 -50 30 -126 0 -76 -2 -87 -30 -126 -19 -27
-51 -54 -85 -72 -48 -25 -63 -28 -113 -24 -72 6 -138 44 -175 99 -24 37 -27
51 -27 124 0 75 3 86 30 125 40 56 120 99 185 99 33 0 64 -9 101 -28z"/>
<path d="M7305 2801 c-11 -5 -32 -21 -47 -36 -114 -114 22 -298 168 -229 101
48 101 210 0 258 -36 17 -88 20 -121 7z m128 -71 c37 -41 37 -89 -2 -132 -82
-92 -226 29 -150 126 43 54 105 57 152 6z"/>
<path d="M1585 1791 c-58 -15 -106 -44 -145 -89 -151 -171 -29 -442 200 -442
229 0 351 271 200 442 -63 72 -173 110 -255 89z m174 -74 c64 -43 95 -97 99
-178 4 -59 1 -74 -23 -118 -85 -155 -305 -156 -389 -2 -61 113 -17 253 97 311
61 31 158 25 216 -13z"/>
<path d="M1563 1650 c-63 -38 -88 -142 -47 -197 37 -49 72 -68 124 -68 79 0
141 59 142 136 2 88 -57 149 -142 149 -27 0 -58 -8 -77 -20z m126 -34 c57 -30
68 -110 22 -157 -83 -83 -214 17 -157 120 26 47 84 63 135 37z"/>
<path d="M6545 1791 c-58 -15 -106 -44 -145 -89 -151 -171 -29 -442 200 -442
229 0 351 271 200 442 -63 72 -173 110 -255 89z m174 -74 c64 -43 95 -97 99
-178 4 -59 1 -74 -23 -118 -85 -155 -305 -156 -389 -2 -61 113 -17 253 97 311
61 31 158 25 216 -13z"/>
<path d="M6523 1650 c-63 -38 -88 -142 -47 -197 37 -49 72 -68 124 -68 79 0
143 61 143 137 0 87 -58 148 -143 148 -27 0 -58 -8 -77 -20z m126 -34 c57 -30
68 -110 22 -157 -83 -83 -214 17 -157 120 26 47 84 63 135 37z"/>
<path d="M2708 1026 c-49 -13 -63 -21 -116 -70 -107 -98 -108 -271 -2 -376
168 -168 452 -52 454 185 0 72 -30 148 -77 193 -65 63 -175 92 -259 68z m162
-57 c58 -26 77 -44 106 -101 47 -93 25 -202 -56 -270 -77 -66 -177 -73 -263
-18 -149 94 -130 324 33 394 49 21 126 19 180 -5z"/>
<path d="M2705 892 c-100 -63 -93 -202 11 -253 105 -50 210 22 201 139 -3 45
-9 59 -40 89 -30 31 -44 37 -89 40 -40 3 -60 -1 -83 -15z m148 -62 c30 -34 34
-67 12 -110 -19 -37 -43 -50 -90 -50 -98 0 -132 137 -47 185 40 22 91 12 125
-25z"/>
<path d="M5407 1029 c-130 -31 -212 -134 -211 -264 2 -237 286 -353 454 -185
110 109 105 280 -10 384 -68 61 -153 85 -233 65z m141 -55 c164 -68 185 -299
35 -394 -86 -55 -186 -48 -263 18 -81 68 -103 177 -56 270 29 57 48 75 106
101 54 25 127 27 178 5z"/>
<path d="M5395 894 c-45 -22 -68 -61 -72 -118 -9 -115 97 -187 201 -137 137
67 91 272 -61 271 -21 0 -51 -7 -68 -16z m115 -39 c59 -31 69 -107 21 -156
-49 -48 -125 -38 -156 21 -21 40 -19 72 6 104 36 46 80 56 129 31z"/>
<path d="M4030 750 c-99 -34 -180 -147 -180 -250 0 -136 134 -270 270 -270
136 0 270 134 270 270 0 106 -88 224 -189 254 -70 20 -103 20 -171 -4z m188
-49 c80 -41 122 -111 122 -201 0 -130 -90 -220 -220 -220 -130 0 -220 90 -220
220 0 90 43 160 125 203 43 23 146 22 193 -2z"/>
<path d="M4075 635 c-102 -36 -131 -160 -56 -236 56 -56 146 -56 202 0 106
107 -4 285 -146 236z m114 -66 c24 -23 31 -39 31 -69 0 -54 -46 -100 -100
-100 -54 0 -100 46 -100 100 0 54 46 100 100 100 30 0 46 -7 69 -31z"/>
</g>
</svg>
