<?xml version="1.0" standalone="no"?>
<!DOCTYPE svg PUBLIC "-//W3C//DTD SVG 20010904//EN"
 "http://www.w3.org/TR/2001/REC-SVG-20010904/DTD/svg10.dtd">
<svg version="1.0" xmlns="http://www.w3.org/2000/svg"
 width="630.000000pt" height="623.000000pt" viewBox="0 0 630.000000 623.000000"
 preserveAspectRatio="xMidYMid meet">
<metadata>
Created by potrace 1.16, written by Peter Selinger 2001-2019
</metadata>
<g id="pattern1" transform="translate(0.000000,623.000000) scale(0.100000,-0.100000)"
fill="#000000" stroke="none">
<path d="M89 5960 c-3 -1383 4 -5847 9 -5852 5 -5 242 -10 527 -13 492 -4 922
-7 3650 -21 1771 -9 1752 -9 1770 -24 14 -11 19 -10 34 6 18 18 19 72 25 1204
3 652 7 2014 10 3028 l4 1842 -26 0 c-15 0 -218 2 -452 5 -234 3 -691 7 -1016
9 -325 1 -596 6 -602 10 -7 4 -12 4 -12 -1 0 -4 -24 -7 -52 -6 -51 1 -337 3
-368 2 -15 -1 -960 6 -2190 16 -382 3 -833 7 -1002 8 l-308 3 -1 -216z m1271
186 c448 -3 1220 -8 1715 -11 495 -3 1125 -7 1400 -10 275 -3 750 -8 1055 -11
305 -2 556 -7 558 -9 5 -5 3 -4329 -3 -5318 -2 -374 -6 -682 -9 -685 -7 -6
-431 -6 -3736 3 -1163 4 -2139 6 -2167 5 -37 -1 -53 3 -55 12 0 7 -3 27 -5 43
-6 45 -16 5964 -10 5979 4 11 50 13 224 11 120 -2 585 -6 1033 -9z"/>
<path d="M193 6067 c-3 -4 -6 -63 -6 -130 l-2 -121 218 -221 c120 -121 360
-363 534 -538 l317 -317 118 117 c65 65 118 123 118 130 0 7 -69 82 -152 167
-599 608 -892 905 -897 913 -8 10 -241 11 -248 0z m391 -171 c87 -88 322 -327
522 -530 200 -203 364 -372 364 -375 0 -12 -205 -221 -216 -221 -6 0 -70 60
-143 133 -517 521 -851 858 -878 890 l-33 36 0 116 0 116 113 -2 112 -2 159
-161z"/>
<path d="M583 6073 c-35 -13 -57 11 834 -891 73 -73 138 -132 145 -130 6 2 14
10 16 18 3 9 -1 11 -13 6 -13 -5 -36 14 -94 73 -42 44 -83 88 -92 98 -9 10
-33 34 -55 54 -57 53 -729 738 -732 747 -1 4 100 6 224 4 l225 -4 34 -36 c29
-32 237 -244 601 -612 l103 -105 -27 -30 c-15 -16 -62 -63 -104 -103 -42 -39
-72 -74 -68 -77 13 -8 221 202 215 217 -3 7 -149 157 -325 333 -176 175 -320
323 -320 327 0 4 -4 8 -9 8 -5 0 -30 22 -56 49 l-48 49 -215 1 c-118 1 -217 3
-221 5 -3 2 -12 1 -18 -1z"/>
<path d="M1170 6058 c0 -11 34 -46 440 -456 118 -120 420 -426 670 -681 513
-523 491 -501 500 -501 12 0 240 233 240 245 0 12 -256 275 -832 857 -142 143
-258 264 -258 269 0 5 -4 9 -9 9 -5 0 -56 48 -113 106 -138 143 -150 154 -168
155 -206 7 -470 5 -470 -3z m735 -273 c143 -146 280 -285 305 -309 25 -25 54
-55 65 -67 11 -12 178 -181 370 -376 193 -195 352 -359 353 -364 5 -12 -203
-219 -219 -219 -7 0 -147 138 -313 306 -166 169 -321 325 -345 348 -24 22 -51
50 -60 60 -21 25 -569 582 -600 610 -13 11 -52 50 -85 84 -34 35 -89 91 -124
125 -55 54 -60 63 -42 67 12 3 114 4 228 2 l207 -3 260 -264z"/>
<path d="M1863 6062 c-40 -2 -73 -7 -73 -13 0 -10 117 -131 602 -623 142 -144
258 -264 258 -268 0 -5 7 -8 15 -8 8 0 15 -7 15 -15 0 -8 4 -15 9 -15 5 0 36
-27 68 -61 155 -163 325 -330 333 -327 8 3 46 40 231 225 l22 22 -192 193
c-105 106 -300 303 -432 438 -131 135 -285 291 -341 348 l-102 102 -151 1
c-82 0 -159 1 -170 2 -11 1 -53 1 -92 -1z m326 -21 l83 -1 167 -171 c91 -94
322 -329 514 -522 219 -221 347 -358 347 -370 0 -12 -43 -61 -107 -124 l-108
-104 -69 71 c-37 38 -70 70 -72 70 -2 0 -21 19 -43 43 -55 59 -407 416 -777
788 -172 174 -311 319 -308 322 4 3 70 4 148 2 77 -2 179 -4 225 -4z"/>
<path d="M2410 6049 c0 -12 979 -1009 991 -1009 8 0 233 229 238 242 2 6 -51
65 -117 132 -67 66 -236 237 -376 379 l-255 257 -98 1 c-54 0 -162 1 -240 2
-79 2 -143 0 -143 -4z m841 -387 c203 -204 369 -373 369 -377 0 -11 -208 -215
-219 -215 -12 0 -667 659 -928 933 l-36 39 222 -5 222 -4 370 -371z"/>
<path d="M3165 6052 c-71 -1 -133 -6 -137 -10 -4 -4 182 -200 415 -434 232
-235 592 -598 799 -808 208 -210 382 -380 388 -378 17 6 240 231 240 243 0 6
-10 21 -22 32 -13 11 -252 253 -533 537 -280 285 -577 583 -658 664 l-148 147
-107 5 c-59 3 -165 4 -237 2z m810 -500 c259 -260 562 -566 674 -678 112 -113
202 -207 200 -209 -2 -3 -53 -54 -114 -115 l-109 -111 -573 578 c-903 911
-993 1003 -993 1011 0 4 100 5 222 2 l223 -5 470 -473z"/>
<path d="M3645 6040 c-4 -6 142 -160 323 -343 182 -183 472 -475 645 -649 173
-175 318 -318 323 -318 12 0 244 233 244 245 0 5 -79 88 -175 184 -96 95 -175
175 -175 175 0 1 -159 162 -354 357 l-353 356 -236 1 c-154 1 -238 -2 -242 -8z
m898 -443 c235 -237 427 -435 427 -439 0 -4 7 -8 15 -8 8 0 15 -7 15 -15 0 -8
4 -15 8 -15 8 0 116 -101 139 -131 11 -13 -4 -33 -99 -127 l-112 -112 -159
158 c-87 86 -190 190 -230 231 -40 40 -192 195 -339 344 -148 148 -268 273
-268 278 0 5 -4 9 -10 9 -12 0 -250 241 -250 253 0 4 98 7 218 6 l217 -1 428
-431z"/>
<path d="M4258 6039 c-6 -4 98 -116 231 -250 542 -548 746 -749 756 -749 5 0
64 54 130 120 l120 121 -60 58 c-33 33 -203 204 -378 380 -302 305 -320 321
-355 321 -318 4 -436 4 -444 -1z m290 -19 l186 0 204 -207 c112 -115 276 -281
364 -370 124 -124 159 -165 150 -175 -21 -25 -204 -208 -208 -208 -12 0 -952
956 -947 963 3 5 19 6 35 3 17 -3 114 -6 216 -6z"/>
<path d="M4935 6042 c-22 -2 -44 -7 -49 -12 -10 -10 2 -22 548 -575 168 -170
362 -367 431 -437 106 -109 141 -139 146 -125 0 1 3 111 6 244 l5 242 -234
234 c-199 200 -408 412 -412 419 -2 4 -403 13 -441 10z m560 -159 c75 -76 218
-222 318 -324 l182 -186 0 -226 c0 -125 -1 -227 -3 -227 -10 0 -1065 1074
-1070 1089 -3 8 62 11 217 11 l220 0 136 -137z"/>
<path d="M5510 6030 c-15 -10 -2 -24 363 -391 65 -66 124 -119 132 -119 13 0
15 36 15 249 0 166 -4 252 -11 256 -17 11 -482 15 -499 5z m483 -20 c9 0 7
-460 -2 -460 -8 0 -451 450 -451 459 0 6 280 6 453 1z"/>
<path d="M245 5483 l-60 -64 -1 -242 c-1 -133 1 -247 5 -254 4 -7 81 63 200
183 l194 194 -59 62 c-92 98 -192 188 -206 187 -7 -1 -40 -30 -73 -66z m204
-67 l113 -114 -176 -178 c-97 -97 -179 -174 -183 -171 -3 4 -6 53 -5 110 1 56
1 157 2 224 l0 123 59 60 c33 33 63 60 68 60 4 0 59 -51 122 -114z"/>
<path d="M414 5010 c-120 -121 -221 -223 -223 -225 -6 -7 -9 -476 -4 -491 3
-9 462 444 702 692 3 2 -24 32 -60 67 -35 34 -88 88 -117 120 -29 31 -59 57
-66 57 -7 0 -111 -99 -232 -220z m347 90 l111 -109 -268 -272 c-328 -332 -387
-389 -396 -389 -5 0 -8 100 -8 221 l0 221 217 219 c119 121 221 219 225 219 5
0 59 -49 119 -110z"/>
<path d="M1228 4598 c-346 -347 -628 -632 -628 -633 0 -1 -93 -96 -207 -211
l-208 -209 1 -106 1 -105 71 -72 c39 -40 75 -72 78 -72 9 0 1768 1768 1772
1781 2 5 -16 30 -40 55 -70 73 -199 199 -206 201 -4 1 -289 -281 -634 -629z
m756 491 c106 -110 107 -111 89 -132 -10 -11 -207 -211 -438 -444 -231 -233
-425 -429 -431 -436 -6 -6 -22 -21 -35 -33 -13 -11 -40 -38 -60 -60 -20 -21
-60 -62 -90 -91 -30 -28 -189 -188 -354 -355 -165 -167 -307 -309 -316 -315
-15 -11 -26 -3 -83 55 l-66 67 0 95 0 95 492 498 c271 274 642 648 823 832
182 184 337 334 346 334 9 1 64 -49 123 -110z"/>
<path d="M3683 5213 c-7 -2 -13 -9 -13 -14 0 -14 -287 -299 -294 -292 -3 4 -6
1 -6 -6 0 -10 -96 -110 -369 -386 -6 -5 -88 -88 -183 -183 -391 -390 -888
-895 -888 -902 0 -4 54 -62 121 -129 l121 -122 709 713 c391 392 755 759 811
815 56 56 99 105 95 109 -4 5 -879 -866 -1053 -1049 -6 -7 -60 -60 -120 -119
-60 -58 -183 -181 -273 -272 -90 -91 -167 -166 -171 -166 -8 0 -197 189 -210
210 -7 11 52 76 230 255 131 132 526 530 878 883 l638 644 107 -108 c59 -59
107 -112 107 -118 0 -6 -17 -27 -37 -48 -20 -21 -34 -41 -30 -45 7 -7 97 75
97 89 0 4 -49 58 -110 120 -60 62 -110 116 -110 120 0 9 -28 9 -47 1z"/>
<path d="M4738 4418 c-439 -440 -798 -802 -798 -803 0 -2 -36 -38 -81 -81 -44
-44 -85 -87 -90 -96 -8 -15 13 -41 115 -145 l125 -128 461 465 c254 256 658
662 897 902 l434 436 -65 67 c-36 36 -66 70 -66 76 0 5 -5 9 -10 9 -6 0 -33
23 -61 50 -28 28 -54 50 -57 50 -4 -1 -366 -361 -804 -802z m841 357 c-107
-108 -199 -202 -205 -208 -6 -7 -38 -37 -70 -69 -33 -31 -148 -146 -258 -257
-109 -111 -203 -201 -207 -201 -5 0 -9 -5 -9 -11 0 -7 -108 -119 -240 -250
-132 -131 -240 -243 -240 -249 0 -5 -3 -9 -7 -8 -5 1 -81 -71 -171 -161 l-164
-163 -30 28 c-61 59 -134 132 -165 166 l-31 35 414 419 c228 231 417 423 421
427 5 5 215 215 468 467 l460 459 114 -114 114 -114 -194 -196z"/>
<path d="M809 4786 c-74 -74 -142 -142 -151 -153 -9 -10 -118 -119 -242 -243
l-226 -224 -1 -56 c-1 -59 -1 -365 0 -415 l1 -30 38 38 c20 20 73 74 117 119
249 254 391 398 605 613 132 132 240 243 240 246 0 8 -230 239 -239 239 -4 0
-68 -60 -142 -134z m213 50 c35 -35 83 -84 106 -109 l44 -44 -269 -271 c-147
-149 -365 -369 -483 -489 l-215 -217 -3 223 -2 223 372 374 c205 206 376 374
380 374 4 0 35 -29 70 -64z"/>
<path d="M2042 4785 c-68 -69 -128 -125 -133 -125 -5 0 -9 -4 -9 -8 0 -8 -203
-214 -1196 -1215 -168 -169 -304 -312 -302 -317 5 -16 220 -230 230 -230 14 0
1778 1762 1778 1776 0 14 -222 244 -236 244 -5 0 -64 -56 -132 -125z m246 -7
l110 -111 -880 -879 c-484 -483 -883 -878 -886 -878 -4 0 -53 48 -110 106
l-104 107 59 59 c32 33 315 319 630 636 315 317 681 688 815 824 134 136 246
247 250 247 4 1 56 -49 116 -111z"/>
<path d="M3995 4901 c-3 -5 1 -11 10 -13 8 -2 64 -52 124 -112 108 -106 110
-109 94 -132 -8 -13 -18 -24 -22 -24 -4 0 -32 -25 -62 -55 -30 -31 -316 -320
-636 -643 -321 -323 -583 -590 -583 -594 0 -3 -5 -8 -10 -10 -6 -2 -104 -97
-219 -211 -114 -114 -211 -207 -216 -207 -8 0 -226 222 -222 227 2 2 1021
1021 1060 1060 298 296 641 642 648 656 20 35 -10 15 -79 -55 -40 -40 -428
-430 -862 -866 -435 -436 -790 -796 -790 -800 0 -4 56 -62 123 -130 l123 -123
889 890 c489 489 891 894 893 900 4 12 -233 251 -248 251 -5 0 -11 -4 -15 -9z"/>
<path d="M5544 4600 c-164 -165 -372 -373 -462 -463 -90 -89 -198 -197 -240
-240 -42 -43 -233 -235 -424 -427 -192 -191 -348 -352 -348 -357 0 -4 55 -64
121 -132 l122 -123 249 248 c279 279 248 247 947 954 l510 515 -2 92 -3 92
-74 70 c-41 39 -79 71 -86 71 -6 0 -145 -135 -310 -300z m378 218 c67 -69 76
-90 70 -184 l-4 -61 -124 -127 c-68 -69 -128 -126 -134 -126 -5 0 -10 -4 -10
-8 0 -5 -92 -103 -205 -218 -113 -115 -205 -212 -205 -216 0 -5 -4 -8 -8 -8
-5 0 -38 -29 -73 -65 -120 -120 -488 -489 -703 -704 l-214 -214 -82 84 c-116
120 -130 135 -130 143 0 4 171 180 380 389 1116 1119 1374 1377 1377 1377 2 0
31 -28 65 -62z"/>
<path d="M4295 4580 c-17 -17 -111 -113 -210 -212 -1186 -1189 -1545 -1550
-1545 -1557 0 -12 228 -241 241 -241 15 0 1779 1769 1779 1785 0 7 -53 67
-118 134 l-117 122 -30 -31z m245 -224 c0 -2 -28 -31 -62 -63 -34 -32 -85 -83
-112 -113 -28 -29 -396 -401 -819 -824 l-767 -771 -105 105 c-57 58 -105 112
-105 121 0 8 46 61 103 116 56 56 164 164 239 240 75 76 244 245 375 375 131
131 418 417 638 637 l399 400 108 -109 c59 -60 108 -111 108 -114z"/>
<path d="M1601 3729 c-480 -478 -876 -869 -881 -869 -5 0 -12 -10 -15 -21 -6
-17 3 -32 40 -69 26 -27 78 -80 114 -118 37 -39 72 -72 78 -74 7 -2 87 72 180
164 322 319 1556 1559 1580 1589 l25 30 -108 110 c-60 61 -116 114 -125 119
-12 7 -209 -184 -888 -861z m992 742 c53 -54 97 -104 97 -111 0 -13 -93 -108
-1062 -1081 -372 -373 -681 -679 -686 -679 -11 0 -226 219 -221 225 16 17 320
322 368 369 34 32 61 63 61 68 0 4 3 8 8 8 4 0 300 292 657 650 358 357 657
650 665 650 8 0 59 -45 113 -99z"/>
<path d="M5530 3969 c-256 -259 -470 -476 -477 -483 -7 -6 -115 -114 -240
-239 -125 -125 -274 -274 -331 -330 -56 -56 -101 -107 -100 -113 4 -16 234
-254 245 -254 8 0 929 915 1267 1258 l119 121 2 233 c2 228 -1 278 -14 278 -3
0 -215 -212 -471 -471z m460 201 c0 -187 -3 -227 -16 -248 -9 -13 -315 -323
-681 -688 l-665 -665 -114 113 c-62 62 -114 116 -114 119 0 3 287 294 638 646
350 352 706 710 791 796 85 86 156 155 158 153 2 -2 4 -104 3 -226z"/>
<path d="M5917 3723 c-101 -101 -87 -88 -199 -200 -54 -53 -98 -102 -98 -108
0 -5 54 -64 121 -129 l120 -119 75 74 74 73 0 243 c0 134 -4 243 -8 243 -4 0
-43 -35 -85 -77z m58 -412 c-48 -52 -111 -111 -118 -111 -15 0 -208 204 -205
217 2 7 77 87 168 179 l165 167 3 -218 c2 -182 0 -221 -13 -234z"/>
<path d="M1741 3248 l-121 -122 54 -56 c38 -38 525 -533 526 -535 0 0 173
-175 384 -390 212 -214 389 -394 395 -400 17 -16 157 -157 294 -297 l129 -131
119 119 c65 65 119 123 119 128 0 10 -41 60 -55 66 -5 2 -26 23 -45 45 -19 23
-61 64 -92 91 -31 27 -57 52 -57 57 -1 4 -198 206 -440 450 -540 545 -937 947
-1014 1026 -31 33 -62 63 -67 66 -5 3 -63 -50 -129 -117z m243 -20 c172 -179
1165 -1185 1225 -1242 29 -28 74 -73 100 -100 25 -27 107 -109 180 -182 l135
-134 -35 -36 c-80 -84 -183 -184 -190 -184 -4 0 -22 16 -41 35 -18 20 -175
179 -348 353 -286 289 -1253 1270 -1329 1350 -17 18 -31 36 -31 40 0 11 204
212 215 212 5 0 59 -51 119 -112z"/>
<path d="M3568 3240 c-65 -65 -118 -122 -118 -125 0 -5 374 -383 945 -956 157
-157 288 -283 290 -279 4 6 -463 483 -1025 1046 -99 100 -180 185 -180 190 0
5 49 59 110 119 l109 109 148 -151 c81 -83 475 -481 876 -884 400 -403 727
-740 727 -749 0 -18 -193 -215 -210 -215 -9 0 -172 156 -226 216 -11 13 -50
52 -85 85 -35 34 -100 98 -143 143 -43 45 -83 80 -89 78 -10 -3 530 -557 543
-557 13 0 235 231 238 248 2 11 -244 265 -715 739 -395 397 -793 798 -885 892
-92 94 -172 171 -179 171 -7 0 -66 -54 -131 -120z"/>
<path d="M5426 3229 l-118 -121 48 -51 c57 -59 553 -563 603 -613 19 -19 38
-34 43 -34 4 0 8 111 8 248 0 223 -2 249 -17 264 -10 8 -82 80 -159 159 -78
79 -152 154 -165 166 -13 11 -42 40 -63 62 -22 23 -44 41 -50 41 -6 0 -64 -55
-130 -121z m390 -159 l174 -175 0 -217 c0 -120 -4 -218 -9 -218 -4 0 -60 52
-122 116 -63 63 -132 132 -153 152 -22 20 -47 44 -55 53 -9 9 -82 84 -163 167
-82 83 -148 155 -148 161 0 5 48 56 108 115 l107 105 44 -42 c24 -23 122 -121
217 -217z"/>
<path d="M190 3209 c-1 -2 -2 -47 -5 -99 -2 -52 -4 -97 -5 -100 -1 -3 -2 -8
-1 -13 1 -4 3 -68 5 -142 l3 -135 151 -153 c82 -83 180 -183 217 -222 37 -38
238 -243 446 -455 208 -212 413 -422 456 -468 43 -45 83 -82 90 -82 12 0 243
227 243 238 0 4 -23 31 -50 61 -53 58 -931 949 -1087 1104 -51 51 -93 98 -93
105 0 7 -4 11 -9 8 -6 -4 -254 245 -291 292 -11 14 -70 66 -70 61z m138 -156
c62 -65 350 -359 641 -653 686 -694 801 -812 801 -820 0 -3 -30 -35 -66 -70
-36 -36 -84 -84 -106 -107 -23 -24 -44 -43 -48 -43 -9 0 -508 505 -931 943
-68 70 -190 195 -271 278 l-148 151 0 219 c0 120 3 219 7 219 4 0 58 -53 121
-117z"/>
<path d="M1437 2944 c-64 -64 -117 -120 -117 -123 0 -6 124 -133 875 -896 231
-235 526 -534 655 -666 129 -132 240 -239 246 -239 8 0 172 158 243 236 5 5
-27 37 -484 498 -321 324 -1079 1094 -1198 1219 -47 48 -89 87 -94 87 -5 0
-61 -52 -126 -116z m273 -50 c80 -80 190 -192 245 -248 374 -382 1152 -1170
1244 -1261 61 -60 111 -115 111 -122 0 -13 -202 -223 -215 -223 -5 0 -345 339
-345 345 0 0 -123 124 -272 276 -150 152 -405 411 -567 575 -161 165 -353 360
-427 435 -74 75 -134 143 -134 151 0 13 197 218 210 218 3 0 70 -66 150 -146z"/>
<path d="M3276 2950 c-64 -63 -116 -121 -116 -131 0 -9 118 -136 263 -282 705
-715 1512 -1527 1517 -1527 8 0 240 232 240 240 0 3 -42 47 -92 97 -234 230
-608 614 -608 623 0 5 -5 10 -11 10 -5 0 -56 48 -112 106 -56 58 -144 147
-196 197 -51 51 -114 114 -140 141 -25 27 -57 59 -70 70 -13 12 -31 29 -40 40
-9 10 -97 100 -196 200 -99 100 -189 193 -201 206 -11 14 -43 47 -72 74 l-51
49 -115 -113z m664 -471 c823 -832 1205 -1220 1208 -1228 2 -7 -108 -123 -182
-190 l-26 -24 -60 59 c-85 83 -445 445 -940 944 -231 234 -497 502 -590 595
-94 94 -170 175 -170 180 0 10 201 215 210 215 3 0 251 -248 550 -551z"/>
<path d="M5122 2927 c-67 -67 -122 -126 -122 -130 0 -10 205 -219 529 -540
123 -122 240 -240 261 -262 21 -22 74 -77 118 -122 43 -46 84 -83 90 -83 9 0
12 64 12 247 l0 246 -107 109 c-60 61 -143 144 -187 186 -43 43 -108 108 -145
146 -122 126 -321 326 -323 325 -2 0 -58 -55 -126 -122z m500 -279 l368 -373
0 -222 c0 -123 -3 -223 -6 -223 -5 0 -470 466 -826 828 -60 61 -114 112 -119
112 -5 0 -9 9 -9 19 0 16 204 230 219 231 3 0 170 -168 373 -372z"/>
<path d="M1133 2640 c-68 -66 -123 -125 -123 -130 0 -10 84 -98 498 -518 291
-295 975 -990 1156 -1176 103 -105 118 -117 133 -105 36 29 233 234 233 242 0
4 -24 32 -52 62 -29 29 -60 61 -69 71 -9 11 -27 28 -40 40 -13 11 -120 119
-238 240 -118 120 -398 406 -622 634 -225 228 -484 493 -577 588 -92 94 -170
172 -172 172 -3 0 -60 -54 -127 -120z m1055 -846 c194 -197 458 -466 587 -596
129 -130 235 -241 235 -245 0 -5 -15 -23 -33 -39 -19 -16 -36 -34 -38 -39 -3
-6 -38 -43 -80 -83 -74 -71 -75 -72 -94 -54 -20 19 -649 659 -980 997 -93 95
-302 307 -463 471 -161 163 -291 301 -290 306 2 6 53 59 113 119 l110 110 290
-294 c160 -162 449 -456 643 -653z"/>
<path d="M2958 2631 c-65 -65 -118 -122 -118 -127 0 -5 77 -85 171 -179 94
-93 496 -497 892 -898 396 -400 724 -727 728 -727 6 0 184 174 233 229 l19 21
-266 268 c-146 147 -382 385 -524 529 -660 669 -994 1003 -1005 1002 -7 0 -66
-53 -130 -118z m499 -268 c669 -675 1388 -1405 1391 -1412 3 -9 -207 -221
-219 -221 -5 0 -163 156 -352 347 -403 408 -388 393 -398 393 -5 0 -9 4 -9 8
0 4 -152 161 -337 349 -186 187 -350 354 -364 369 -14 16 -90 91 -168 167
-141 137 -142 139 -124 159 29 33 208 208 212 208 2 0 168 -165 368 -367z"/>
<path d="M4815 2623 c-62 -60 -115 -115 -119 -124 -5 -12 91 -115 366 -394
205 -208 400 -403 432 -434 32 -31 73 -71 90 -90 103 -111 406 -411 415 -411
8 0 11 72 11 247 l0 246 -307 310 c-170 170 -316 317 -327 326 -10 9 -37 36
-60 60 -123 131 -368 371 -377 371 -6 0 -62 -48 -124 -107z m612 -401 c265
-268 500 -506 522 -529 l41 -41 0 -221 c-1 -122 -4 -221 -7 -221 -4 0 -166
161 -360 358 -195 196 -478 482 -629 635 -151 153 -274 283 -272 288 4 12 210
219 217 219 4 0 223 -220 488 -488z"/>
<path d="M190 2488 c0 -51 -1 -156 -2 -234 -1 -138 -1 -142 25 -176 15 -19 39
-46 54 -60 16 -13 174 -174 353 -357 179 -183 393 -402 475 -486 l150 -154
124 125 c123 125 123 125 105 146 -25 28 -121 127 -574 585 -206 209 -446 452
-533 541 -87 89 -163 162 -168 162 -5 0 -9 -42 -9 -92z m875 -802 c215 -218
391 -402 393 -409 2 -11 -136 -161 -195 -211 l-22 -18 -153 157 c-205 211
-360 369 -602 615 -110 113 -220 227 -243 252 l-43 47 0 223 1 223 237 -241
c130 -133 413 -420 627 -638z"/>
<path d="M190 1722 l0 -248 93 -96 c333 -345 642 -658 650 -658 13 0 246 232
247 245 0 14 -288 306 -294 297 -2 -4 60 -72 139 -151 l143 -143 -115 -114
c-63 -63 -117 -114 -120 -114 -6 0 -638 645 -704 718 l-29 33 0 224 c0 124 3
225 8 225 4 0 53 -48 110 -107 223 -233 555 -564 560 -558 3 3 -65 76 -151
163 -262 263 -507 517 -507 525 0 4 -7 7 -15 7 -13 0 -15 -34 -15 -248z"/>
<path d="M1490 1155 c-201 -201 -371 -365 -378 -365 -7 0 -10 -5 -7 -10 3 -5
2 -10 -3 -10 -5 0 -15 -11 -22 -25 -7 -14 -17 -25 -21 -25 -8 0 -89 -80 -89
-89 0 -3 -14 -15 -30 -26 -16 -11 -30 -22 -30 -26 0 -3 -81 -87 -181 -188 -99
-100 -179 -184 -177 -186 2 -2 115 -5 251 -7 l247 -3 526 529 c288 291 523
535 522 543 -3 11 -191 209 -229 240 -12 10 -77 -50 -379 -352z m383 332 c7
-6 56 -58 110 -114 71 -74 96 -106 90 -117 -13 -24 -873 -886 -883 -886 -6 0
-10 -4 -10 -10 0 -5 -32 -41 -70 -80 l-71 -70 -223 0 c-122 0 -225 2 -228 5
-5 5 1261 1285 1270 1285 2 0 9 -6 15 -13z"/>
<path d="M3639 1444 c-35 -35 -326 -328 -646 -651 -321 -322 -583 -591 -583
-597 0 -8 75 -11 241 -11 l241 0 528 535 c320 324 526 540 522 547 -7 12 -218
229 -231 238 -4 2 -37 -25 -72 -61z m183 -74 l108 -111 -148 -150 c-81 -83
-187 -190 -235 -237 -49 -48 -124 -123 -167 -167 -44 -44 -173 -175 -287 -291
l-208 -210 -223 -2 c-211 -2 -222 -1 -213 15 5 10 99 106 208 214 109 108 388
388 621 623 233 234 426 426 429 426 4 0 55 -50 115 -110z"/>
<path d="M5510 1468 c-8 -13 -93 -99 -190 -193 -98 -93 -178 -173 -179 -177 0
-3 -44 -48 -97 -100 -54 -51 -107 -104 -120 -118 -13 -14 -169 -172 -349 -352
-179 -180 -325 -332 -325 -338 0 -6 43 -10 113 -11 61 0 141 -1 177 -1 36 0
94 0 130 1 l65 1 115 115 c435 433 930 942 930 955 0 22 -216 240 -238 240
-10 0 -25 -10 -32 -22z m60 -6 c0 -4 45 -54 99 -110 l100 -102 -337 -339
c-185 -187 -346 -350 -358 -363 -11 -12 -41 -42 -65 -64 -24 -23 -72 -70 -106
-105 -34 -35 -88 -90 -120 -121 l-58 -57 -218 0 c-205 0 -218 1 -205 17 51 65
1241 1252 1255 1252 7 0 13 -4 13 -8z"/>
<path d="M253 1155 l-63 -64 0 -251 c0 -137 2 -250 4 -250 13 0 375 373 370
381 -10 17 -238 249 -244 249 -3 0 -33 -30 -67 -65z m287 -189 c0 -15 -316
-336 -330 -336 -6 0 -10 87 -10 223 l0 222 61 63 61 63 109 -111 c60 -62 109
-118 109 -124z"/>
<path d="M1973 1009 c-103 -105 -210 -213 -238 -239 -27 -27 -117 -117 -200
-201 -82 -84 -196 -198 -252 -253 -57 -55 -103 -105 -103 -111 0 -7 74 -11
238 -13 l237 -2 379 381 379 380 -39 42 c-71 76 -202 207 -207 207 -3 0 -90
-86 -194 -191z m310 60 c75 -77 105 -115 98 -123 -5 -6 -173 -175 -372 -374
l-362 -364 -204 -1 c-111 -1 -203 1 -203 5 0 4 -7 4 -17 1 -11 -4 -14 -3 -9 5
10 17 950 962 956 962 3 0 53 -50 113 -111z"/>
<path d="M3650 839 c-195 -198 -417 -421 -492 -496 -76 -76 -138 -143 -138
-150 0 -10 52 -12 232 -12 127 0 239 4 249 10 29 15 748 736 751 753 3 14
-227 256 -242 256 -3 0 -165 -163 -360 -361z m480 220 l110 -112 -267 -268
c-148 -148 -273 -275 -279 -282 -6 -6 -54 -53 -107 -104 l-95 -92 -216 0
c-128 0 -216 4 -216 9 0 6 98 108 218 229 119 120 231 234 248 252 17 19 64
66 105 106 41 40 141 140 223 222 82 83 153 151 158 151 5 0 58 -50 118 -111z"/>
<path d="M5823 1172 c-12 -15 -217 -223 -455 -463 -527 -532 -513 -517 -506
-525 4 -3 111 -8 238 -11 l231 -6 340 339 339 339 0 96 0 96 -54 54 c-29 30
-67 66 -82 81 l-29 27 -22 -27z m101 -74 l60 -61 -2 -100 c-2 -95 -3 -101 -29
-124 -16 -14 -123 -119 -239 -234 -116 -115 -216 -209 -222 -209 -7 0 -12 -4
-12 -9 0 -5 -34 -44 -76 -85 l-76 -76 -216 0 c-118 0 -213 2 -211 4 98 106
946 956 954 956 5 0 37 -28 69 -62z"/>
<path d="M403 684 l-213 -213 0 -136 0 -135 118 0 117 0 223 223 c122 122 222
228 222 234 0 17 -227 243 -242 242 -7 -1 -109 -98 -225 -215z m339 90 c57
-58 104 -109 106 -113 1 -4 -94 -105 -212 -226 l-215 -219 -100 -2 c-86 -2
-102 0 -110 14 -5 9 -8 66 -6 125 l2 108 89 91 c49 50 102 102 118 117 16 14
43 42 60 61 17 19 49 50 70 70 22 19 48 45 59 58 12 12 24 22 29 22 4 0 54
-48 110 -106z"/>
<path d="M2127 549 c-187 -188 -335 -345 -330 -350 4 -4 114 -9 243 -10 l235
-2 222 219 c123 120 223 224 223 229 0 10 -233 248 -247 252 -5 2 -160 -151
-346 -338z m563 100 c7 -13 -20 -45 -126 -150 -143 -141 -172 -170 -243 -244
-24 -25 -48 -46 -55 -46 -41 -5 -446 -3 -446 2 0 4 147 154 326 334 l326 327
105 -103 c57 -57 108 -111 113 -120z"/>
<path d="M3973 543 c-188 -191 -339 -351 -337 -355 3 -4 112 -7 244 -8 l240 0
198 197 c108 109 210 212 225 230 l28 32 -123 126 c-69 69 -126 125 -129 125
-2 0 -158 -156 -346 -347z m457 212 c58 -58 107 -110 108 -115 2 -6 -93 -107
-212 -225 l-215 -215 -214 0 c-118 0 -217 3 -220 7 -6 6 631 653 643 653 3 0
53 -47 110 -105z"/>
<path d="M5722 450 c-144 -144 -260 -265 -257 -270 9 -15 522 -13 531 2 13 20
12 496 0 513 -9 13 -57 -30 -274 -245z m258 -45 l-5 -210 -228 0 c-126 0 -231
3 -234 8 -2 4 100 112 229 240 228 228 233 233 238 203 3 -17 3 -125 0 -241z"/>
</g>
</svg>
