<?xml version="1.0" standalone="no"?>
<!DOCTYPE svg PUBLIC "-//W3C//DTD SVG 20010904//EN"
 "http://www.w3.org/TR/2001/REC-SVG-20010904/DTD/svg10.dtd">
<svg version="1.0" xmlns="http://www.w3.org/2000/svg"
 width="856.000000pt" height="882.000000pt" viewBox="0 0 856.000000 882.000000"
 preserveAspectRatio="xMidYMid meet">
<metadata>
Created by potrace 1.16, written by Peter Selinger 2001-2019
</metadata>
<g transform="translate(0.000000,882.000000) scale(0.100000,-0.100000)"
fill="#000000" stroke="none">
<path d="M4146 8484 c-297 -151 -523 -347 -701 -609 -26 -38 -48 -71 -49 -72
-1 -1 -53 20 -116 48 -146 66 -289 112 -432 141 -99 20 -142 23 -355 23 -284
0 -255 12 -351 -143 -168 -271 -262 -555 -289 -872 -3 -41 -10 -81 -16 -87 -5
-8 -32 -13 -61 -13 -151 -1 -393 -55 -580 -131 -195 -79 -449 -237 -464 -288
-14 -54 -7 -432 11 -536 29 -175 123 -466 174 -540 7 -11 13 -23 13 -27 0 -4
-46 -42 -102 -84 -126 -94 -323 -291 -401 -401 -82 -116 -151 -233 -197 -340
l-41 -92 59 -123 c133 -280 323 -513 567 -696 55 -41 103 -78 107 -81 4 -4
-10 -47 -31 -96 -131 -305 -186 -616 -163 -915 13 -154 -4 -130 162 -241 241
-162 557 -276 815 -295 111 -8 125 -15 125 -58 0 -115 57 -387 117 -559 59
-172 212 -448 280 -510 41 -37 299 -48 503 -22 179 22 381 81 563 164 38 17
74 31 80 31 7 0 32 -31 57 -67 142 -211 342 -404 564 -542 75 -47 262 -141
281 -141 16 0 188 84 260 128 212 127 417 322 567 537 l59 84 37 -16 c20 -8
42 -19 47 -23 15 -12 170 -75 243 -99 245 -80 508 -105 779 -75 l52 6 60 88
c192 281 306 614 333 980 3 32 6 35 38 38 93 7 285 34 337 48 210 53 437 154
614 273 l106 70 6 53 c40 351 -8 682 -143 988 -23 52 -44 102 -46 110 -3 10
25 36 85 79 109 76 287 244 372 349 85 105 160 224 226 355 43 87 54 116 49
140 -9 44 -115 250 -176 342 -111 168 -296 361 -462 483 -48 35 -88 67 -88 72
0 4 16 41 35 82 129 279 181 538 173 862 -3 99 -8 189 -12 199 -10 22 -136
110 -252 176 -218 124 -450 197 -732 232 l-98 12 -18 147 c-22 187 -50 304
-115 479 -70 187 -227 451 -286 481 -39 20 -468 21 -560 2 -131 -28 -202 -45
-255 -62 -65 -21 -251 -95 -291 -116 -28 -14 -28 -13 -60 33 -146 215 -367
432 -566 556 -68 43 -255 134 -288 141 -24 5 -56 -7 -159 -60z m271 -30 c128
-60 200 -103 303 -183 153 -119 334 -320 412 -458 16 -29 34 -56 39 -59 6 -3
50 15 99 41 263 135 606 203 898 177 71 -6 136 -14 145 -18 9 -3 43 -45 75
-92 183 -270 281 -558 308 -914 3 -48 11 -91 18 -96 6 -5 49 -12 96 -16 274
-21 523 -98 762 -235 53 -31 123 -77 155 -102 l59 -46 12 -79 c43 -279 -23
-648 -170 -954 -37 -76 -48 -108 -41 -120 6 -8 46 -39 89 -68 256 -174 502
-470 614 -740 36 -85 36 -90 -20 -207 -127 -265 -377 -546 -627 -704 -80 -50
-79 -45 -24 -162 60 -126 100 -244 137 -404 26 -113 28 -134 29 -355 0 -129
-3 -247 -7 -261 -14 -50 -232 -187 -425 -269 -166 -70 -440 -130 -593 -130
-82 0 -90 -11 -90 -114 0 -174 -71 -455 -165 -653 -29 -61 -87 -163 -129 -226
l-75 -115 -64 -11 c-35 -6 -123 -11 -195 -11 -265 0 -509 56 -752 173 -58 28
-113 54 -122 58 -14 7 -27 -6 -64 -64 -155 -239 -370 -445 -600 -574 -117 -66
-203 -104 -234 -105 -14 0 -61 17 -105 38 -321 152 -565 380 -761 710 -11 18
-13 18 -50 -4 -130 -76 -290 -135 -480 -179 -109 -25 -137 -27 -334 -27 -281
-1 -283 -1 -360 114 -187 279 -287 573 -308 913 l-7 112 -99 7 c-354 25 -656
138 -933 350 -28 21 -54 46 -57 55 -4 9 -11 68 -16 132 -10 127 0 310 25 448
28 148 110 385 171 488 30 51 29 53 -91 133 -201 134 -402 358 -532 592 -45
82 -96 201 -95 226 0 34 95 225 165 332 133 202 329 398 514 511 59 36 64 52
33 104 -57 97 -133 322 -166 493 -37 196 -37 522 0 579 22 33 180 137 301 198
222 111 421 163 690 182 56 4 103 12 107 19 4 6 8 48 8 94 0 280 129 666 305
914 52 73 57 77 102 85 27 4 131 8 233 7 214 -1 336 -20 529 -83 106 -35 292
-119 316 -142 19 -19 34 -6 88 79 117 184 318 387 506 510 96 63 304 162 328
157 12 -3 66 -26 120 -51z"/>
<path d="M4197 8252 c-279 -151 -527 -411 -667 -700 -24 -51 -47 -92 -50 -92
-3 0 -35 22 -72 49 -88 63 -286 161 -418 204 -159 52 -279 71 -463 72 l-159 0
-24 -30 c-45 -56 -142 -260 -179 -375 -64 -198 -77 -288 -78 -516 l-1 -201
-191 0 c-226 0 -331 -15 -515 -76 -122 -40 -294 -121 -376 -178 -42 -28 -42
-29 -49 -108 -16 -181 32 -478 106 -656 37 -88 109 -227 155 -297 24 -38 44
-71 44 -73 0 -3 -37 -23 -82 -46 -233 -117 -432 -289 -583 -504 -73 -104 -145
-232 -145 -258 0 -23 51 -125 108 -212 152 -236 380 -443 620 -564 45 -23 82
-44 82 -48 0 -3 -22 -40 -49 -82 -169 -264 -251 -550 -251 -874 l0 -142 93
-56 c287 -173 574 -249 892 -236 l140 6 0 -222 c1 -236 6 -278 60 -457 48
-159 113 -304 187 -415 l33 -50 175 1 c139 0 196 5 277 22 213 45 411 128 577
243 39 26 73 46 77 43 5 -2 26 -42 48 -89 141 -298 402 -570 699 -730 l54 -29
71 37 c80 41 216 136 302 211 135 116 298 335 381 511 25 52 47 95 50 95 3 0
28 -17 57 -39 85 -63 235 -145 347 -189 190 -74 352 -105 563 -106 l139 -1 25
30 c13 17 55 93 93 170 123 248 176 493 168 771 l-5 152 151 -5 c87 -3 190 -1
243 6 228 28 487 121 681 244 l42 27 0 169 c0 240 -26 375 -112 586 -46 113
-91 199 -156 298 -24 37 -42 70 -40 73 3 2 43 23 88 45 303 146 564 406 725
720 l18 36 -48 92 c-57 108 -185 281 -270 366 -118 118 -266 225 -412 299 -51
25 -93 50 -93 55 0 4 23 43 50 85 104 156 184 340 226 516 40 169 59 477 32
512 -30 37 -262 158 -388 201 -193 66 -274 80 -505 83 l-200 3 4 158 c4 170
-14 333 -51 472 -27 104 -109 306 -156 388 -67 114 -65 113 -162 120 -299 20
-678 -84 -935 -256 -38 -26 -75 -50 -81 -54 -8 -4 -25 21 -48 69 -117 247
-288 456 -502 615 -88 66 -247 159 -271 159 -4 0 -47 -22 -96 -48z m160 -76
c134 -146 244 -381 273 -581 13 -93 13 -255 -1 -352 -28 -205 -140 -439 -281
-588 l-57 -60 -53 58 c-113 122 -208 305 -255 489 -24 92 -27 122 -26 273 0
140 4 185 22 259 32 133 95 278 166 384 38 56 139 172 151 172 7 0 34 -24 61
-54z m-169 2 c-167 -221 -244 -410 -267 -659 -29 -300 63 -600 263 -862 18
-24 24 -37 15 -37 -17 0 -156 70 -224 113 -66 41 -220 164 -270 216 l-39 41
56 50 c108 96 116 218 23 328 -40 48 -99 75 -162 74 -40 0 -53 3 -53 14 0 26
80 177 147 279 91 137 263 308 406 403 59 40 113 72 119 72 6 0 -1 -15 -14
-32z m335 -51 c194 -132 383 -357 493 -584 57 -117 57 -133 4 -133 -46 0 -104
-26 -137 -62 -34 -36 -63 -108 -63 -158 0 -53 37 -139 74 -171 14 -13 26 -28
26 -35 0 -20 -142 -146 -235 -209 -99 -66 -259 -148 -281 -143 -10 2 1 24 40
76 313 421 310 1006 -8 1429 -25 33 -46 64 -46 67 0 10 36 -11 133 -77z
m-1768 -392 c221 -36 418 -114 613 -245 51 -34 92 -65 92 -69 0 -4 -14 -20
-31 -37 -48 -46 -69 -95 -69 -164 0 -33 6 -75 13 -93 31 -73 100 -127 180
-142 21 -4 39 -10 41 -14 6 -9 -55 -184 -92 -264 -59 -130 -192 -327 -220
-327 -9 0 -12 6 -7 18 15 38 25 249 15 338 -46 420 -289 770 -664 955 -55 27
-102 51 -104 54 -11 11 144 4 233 -10z m-201 -47 c236 -95 463 -306 581 -538
120 -238 157 -551 94 -793 -10 -38 -11 -39 -47 -32 -20 4 -71 21 -112 38 -260
108 -464 297 -590 547 -119 235 -152 533 -88 784 9 37 11 38 43 33 19 -3 72
-21 119 -39z m3541 33 c-3 -5 -22 -15 -43 -21 -56 -18 -187 -86 -256 -132 -83
-56 -241 -217 -303 -308 -133 -198 -203 -433 -203 -678 1 -70 5 -147 10 -172
4 -25 7 -47 4 -49 -18 -18 -142 176 -198 309 -47 110 -97 270 -89 283 2 4 16
7 31 7 51 0 100 20 145 60 115 102 101 278 -29 359 l-46 28 44 36 c99 81 291
176 453 225 61 18 172 42 255 55 53 9 231 7 225 -2z m113 -76 c10 -35 15 -107
15 -240 1 -178 -1 -196 -26 -290 -80 -291 -260 -531 -510 -684 -75 -46 -238
-117 -291 -127 l-34 -6 -19 79 c-24 105 -24 325 1 441 87 409 358 720 746 858
90 32 101 29 118 -31z m-3867 -31 c-30 -160 -5 -406 59 -589 103 -293 329
-542 613 -675 47 -22 92 -40 100 -40 8 0 20 -6 26 -14 18 -22 -83 -36 -264
-36 -134 0 -181 4 -280 25 -65 14 -121 28 -124 30 -2 3 6 24 19 47 36 63 34
157 -2 219 -64 110 -201 148 -307 88 -20 -12 -38 -16 -43 -11 -13 13 -26 190
-21 295 8 186 62 407 142 580 41 90 79 152 88 144 2 -3 0 -31 -6 -63z m3960
-65 c129 -257 194 -601 159 -843 -6 -37 -12 -72 -15 -76 -2 -4 -30 2 -62 12
-188 64 -348 -103 -288 -299 9 -28 -11 -37 -145 -65 -73 -15 -136 -20 -275
-20 -174 -1 -231 4 -220 22 3 4 17 11 31 14 15 4 61 23 102 43 372 176 613
514 668 935 15 116 15 152 -2 306 -4 28 -4 52 0 52 3 0 24 -36 47 -81z m-2629
-170 c53 -27 98 -102 98 -163 0 -89 -73 -179 -154 -191 -101 -15 -182 39 -212
142 -15 53 -15 60 0 109 18 58 67 110 114 120 15 3 32 7 37 9 18 6 80 -8 117
-26z m1459 -22 c108 -58 130 -219 40 -308 -91 -92 -236 -66 -295 53 -33 67
-33 112 2 179 49 94 157 126 253 76z m-1407 -473 c107 -97 243 -191 373 -255
56 -28 100 -55 98 -59 -3 -5 -36 -20 -73 -34 -79 -30 -221 -110 -298 -167
l-53 -39 -123 6 c-72 4 -168 2 -232 -5 -59 -7 -110 -10 -113 -7 -2 2 17 31 44
64 97 121 206 328 259 492 14 44 28 80 31 80 2 0 42 -34 87 -76z m1256 34 c55
-208 146 -395 285 -584 15 -20 3 -24 -40 -12 -22 5 -134 11 -250 12 l-210 2
-50 35 c-94 65 -188 116 -314 171 -24 10 -42 20 -40 22 2 2 51 25 109 51 133
58 305 173 407 269 43 42 81 75 85 76 4 0 12 -19 18 -42z m-2628 -273 c59 -21
104 -68 120 -127 39 -149 -114 -284 -255 -225 -45 19 -105 89 -113 132 -19
105 34 195 134 225 41 13 64 11 114 -5z m-262 -31 c7 -7 5 -23 -6 -49 -25 -60
-16 -161 19 -214 53 -80 154 -121 247 -99 32 7 54 8 60 2 5 -5 20 -55 32 -109
19 -84 22 -131 23 -290 0 -181 -7 -265 -23 -265 -4 0 -18 30 -31 68 -172 484
-653 813 -1154 789 -73 -4 -105 -2 -101 5 10 15 143 74 243 107 76 25 194 52
286 65 60 8 395 0 405 -10z m4299 -8 c135 -70 136 -277 1 -346 -160 -81 -333
101 -248 260 36 66 89 99 161 100 32 0 71 -7 86 -14z m541 -26 c185 -38 313
-80 443 -147 90 -46 111 -68 55 -55 -18 4 -103 7 -188 6 -127 0 -172 -4 -250
-23 -171 -42 -300 -103 -447 -213 -182 -136 -335 -346 -403 -551 -6 -22 -16
-35 -20 -30 -20 19 -32 248 -20 369 11 120 44 281 61 299 6 6 20 3 39 -9 68
-40 179 -30 247 21 82 61 112 189 66 282 -12 25 -20 47 -18 50 23 22 328 23
435 1z m-2578 -62 c94 -32 204 -83 291 -135 76 -46 89 -60 65 -67 -7 -2 -64
-18 -127 -35 -63 -17 -152 -49 -199 -71 -47 -22 -93 -40 -104 -40 -10 0 -45
13 -78 30 -64 32 -203 80 -290 100 -79 18 -80 18 -80 29 0 23 242 154 360 195
61 21 89 20 162 -6z m-2853 -123 c225 -43 416 -139 581 -292 82 -76 179 -207
234 -317 54 -109 103 -253 89 -267 -18 -18 -167 -39 -280 -39 -225 0 -444 68
-642 198 -74 49 -238 212 -289 288 -78 117 -172 325 -172 381 0 12 6 25 12 29
52 32 336 43 467 19z m5974 -65 c78 -17 87 -36 57 -121 -37 -111 -88 -205
-165 -308 -182 -245 -473 -408 -783 -440 -126 -13 -365 10 -412 39 -19 12 -3
75 51 189 59 127 137 236 241 337 171 167 359 267 580 309 88 17 344 14 431
-5z m-3764 -36 c2 -2 -31 -40 -73 -84 -42 -44 -106 -120 -142 -169 l-65 -90
-57 -6 c-140 -16 -262 -42 -384 -82 -28 -9 -22 15 27 101 56 98 120 187 177
249 51 56 103 72 263 84 93 7 245 6 254 -3z m1488 -9 c50 -8 102 -20 115 -26
46 -22 166 -178 240 -313 42 -76 48 -102 21 -91 -77 30 -310 75 -393 75 -37 0
-42 4 -109 93 -38 50 -108 130 -155 177 -47 46 -86 88 -86 92 0 21 221 17 367
-7z m-1267 -26 c117 -31 300 -103 300 -119 0 -3 -37 -32 -82 -63 -46 -31 -117
-86 -158 -122 -83 -73 -69 -71 -210 -40 -41 9 -129 22 -194 28 l-119 12 54 71
c58 77 127 152 203 222 53 49 57 49 206 11z m954 -71 c104 -105 204 -233 192
-246 -4 -4 -21 -7 -37 -8 -91 -5 -195 -18 -274 -35 -49 -10 -95 -19 -102 -19
-7 0 -50 34 -95 75 -46 42 -118 99 -160 127 -43 29 -78 57 -78 62 1 20 179 91
303 120 150 36 134 41 251 -76z m-2294 62 c125 -26 338 -36 459 -21 51 7 96
10 98 7 3 -2 -24 -45 -60 -95 -36 -49 -90 -139 -120 -199 l-56 -109 -63 -28
c-79 -35 -203 -112 -286 -177 -35 -27 -66 -48 -68 -45 -2 2 1 60 7 128 14 142
1 323 -32 467 -24 104 -24 106 4 98 12 -4 65 -16 117 -26z m3530 22 c0 -4 -9
-50 -21 -102 -35 -161 -48 -318 -38 -459 5 -69 7 -126 5 -128 -1 -2 -23 12
-47 30 -89 67 -168 117 -268 167 l-101 51 -36 71 c-47 94 -125 218 -170 274
-20 25 -34 47 -31 50 2 3 62 0 132 -7 98 -9 153 -9 243 0 118 12 288 43 299
55 9 9 33 7 33 -2z m-5096 -64 c48 -138 175 -328 291 -436 267 -250 593 -357
969 -319 71 7 78 7 67 -7 -25 -30 -163 -118 -262 -166 -106 -52 -291 -115
-313 -107 -7 3 -13 24 -14 46 -2 47 -39 125 -74 158 -94 88 -275 66 -342 -41
-16 -25 -34 -46 -40 -46 -17 0 -107 140 -160 246 -96 196 -143 376 -153 587
-4 81 -2 137 3 137 5 0 18 -24 28 -52z m6526 -207 c-12 -91 -15 -108 -51 -236
-40 -146 -157 -381 -236 -476 l-26 -30 -36 34 c-70 68 -142 87 -227 62 -74
-21 -135 -81 -154 -150 -7 -28 -16 -53 -20 -58 -11 -13 -179 41 -288 93 -94
45 -230 129 -292 181 l-25 20 35 -5 c19 -3 100 -8 180 -12 163 -7 265 6 411
52 304 96 571 330 706 619 l28 60 3 -34 c2 -19 -2 -73 -8 -120z m-3181 62 c86
-59 142 -104 217 -176 l61 -58 84 25 c103 29 244 49 324 44 l60 -3 57 -114
c31 -63 70 -162 87 -220 17 -58 37 -111 44 -116 6 -6 44 -19 82 -29 90 -23
200 -67 282 -113 l66 -36 -7 -96 c-9 -121 -31 -253 -52 -309 l-16 -42 82 -86
c76 -81 157 -189 193 -261 l17 -31 -68 -104 c-38 -57 -104 -140 -147 -186
l-79 -84 12 -51 c30 -132 42 -222 45 -322 l2 -109 -58 -32 c-68 -39 -210 -96
-285 -115 -29 -7 -57 -18 -62 -25 -6 -6 -19 -46 -30 -90 -24 -93 -60 -185
-107 -276 l-35 -68 -83 0 c-72 0 -148 11 -347 52 l-57 11 -83 -78 c-85 -80
-194 -162 -262 -197 -29 -15 -44 -17 -60 -10 -43 20 -184 132 -266 211 -63 62
-89 81 -105 78 -126 -29 -181 -38 -278 -48 -63 -6 -127 -9 -141 -5 -20 5 -35
24 -62 79 -48 95 -83 186 -104 271 -9 39 -23 73 -31 77 -8 4 -59 21 -114 38
-117 37 -302 126 -316 153 -16 29 5 238 37 368 l26 112 -75 73 c-68 67 -197
241 -197 267 0 25 134 210 210 291 76 81 82 89 73 115 -38 104 -52 185 -60
333 l-6 115 54 30 c76 43 189 89 291 120 l88 26 10 42 c34 139 131 377 163
399 28 18 293 -12 427 -49 l55 -15 85 83 c105 102 245 201 274 192 10 -4 49
-27 85 -51z m-979 -172 c0 -5 -18 -47 -40 -93 -22 -45 -57 -132 -77 -193 -35
-100 -41 -110 -68 -119 -92 -29 -229 -82 -288 -112 -57 -29 -68 -32 -74 -19
-9 24 23 219 51 315 42 143 35 135 123 163 136 44 236 64 321 66 28 0 52 -3
52 -8z m1900 -1 c94 -12 222 -44 288 -71 49 -21 58 -37 97 -176 27 -96 57
-303 46 -316 -4 -4 -41 9 -81 30 -41 20 -129 55 -195 78 -116 42 -120 44 -127
76 -11 57 -67 199 -114 292 -24 49 -44 91 -44 93 0 7 41 5 130 -6z m-2403
-132 c-3 -13 -17 -61 -30 -108 -22 -76 -34 -145 -52 -292 -6 -46 -9 -49 -93
-111 -48 -35 -129 -106 -179 -157 -74 -75 -94 -89 -99 -76 -12 32 3 338 21
413 15 66 21 77 69 120 85 78 324 232 360 233 4 0 6 -10 3 -22z m3033 -117
c108 -78 149 -116 165 -154 34 -82 61 -437 36 -476 -8 -12 -30 5 -105 76 -52
50 -128 114 -169 143 -79 55 -87 69 -87 150 0 51 -26 187 -56 290 -13 46 -24
90 -24 98 0 18 143 -57 240 -127z m-3505 -230 c-13 -33 -22 -240 -15 -346 l7
-110 -53 -81 c-63 -98 -120 -208 -148 -289 -12 -33 -25 -62 -30 -65 -4 -3 -18
22 -31 55 -57 153 -160 324 -278 464 -67 79 -70 84 -52 97 10 8 27 14 36 14
28 0 156 49 252 96 83 40 281 166 293 185 9 15 26 -2 19 -20z m3770 -11 c34
-37 211 -149 305 -194 91 -42 245 -96 275 -96 35 0 20 -27 -61 -113 -100 -105
-185 -229 -255 -370 -26 -54 -51 -98 -55 -98 -4 0 -24 37 -44 83 -38 88 -113
218 -161 279 l-29 36 -3 229 c-2 126 -7 237 -11 247 -11 24 16 23 39 -3z
m-4546 -38 c63 -51 76 -77 75 -145 -1 -85 -38 -147 -108 -184 -37 -19 -116
-19 -154 1 -68 35 -121 132 -108 199 15 73 68 137 134 158 48 15 122 2 161
-29z m5493 -61 c52 -33 98 -113 98 -169 0 -47 -43 -122 -87 -152 -30 -20 -49
-25 -103 -25 -84 0 -136 31 -170 100 -82 169 105 345 262 246z m-4328 -133 c8
-97 20 -175 43 -276 l17 -72 -40 -43 c-68 -71 -129 -149 -178 -224 -25 -40
-48 -73 -51 -73 -9 0 -53 95 -85 185 -44 124 -70 254 -57 280 33 65 294 304
333 305 7 0 14 -32 18 -82z m-1495 3 c28 -143 159 -221 305 -180 24 7 57 29
88 60 l50 50 32 -28 c81 -71 187 -218 259 -358 42 -82 80 -176 73 -182 -2 -3
-29 16 -60 41 -161 131 -346 214 -555 250 -223 38 -488 -2 -691 -104 -78 -39
-213 -125 -231 -146 -7 -8 -21 -20 -32 -25 -17 -10 -18 -8 -12 12 11 35 92
156 155 234 75 92 191 202 293 276 80 59 293 173 307 164 4 -3 13 -31 19 -64z
m4514 37 c72 -49 193 -157 239 -213 48 -57 50 -61 44 -105 -15 -108 -108 -379
-133 -387 -5 -2 -35 34 -65 79 -31 46 -88 120 -128 166 -48 56 -70 88 -66 99
16 40 46 202 46 244 0 68 11 139 22 139 6 0 24 -10 41 -22z m1592 -100 c210
-117 382 -275 529 -485 33 -48 44 -73 31 -73 -2 0 -32 20 -67 44 -187 130
-455 216 -674 216 -230 0 -493 -88 -692 -232 -46 -33 -86 -57 -89 -54 -17 17
103 234 192 346 80 100 156 180 171 180 7 0 20 -13 28 -29 36 -69 115 -111
206 -111 113 1 220 105 220 215 0 58 12 57 145 -17z m-4989 -255 c30 -135 57
-217 105 -321 22 -46 39 -90 39 -97 0 -7 -15 -46 -34 -87 -40 -88 -79 -208
-96 -296 -8 -37 -17 -61 -24 -59 -20 6 -124 182 -166 282 -52 121 -58 159 -35
233 37 120 170 372 196 372 5 0 11 -12 15 -27z m3761 -20 c85 -135 130 -225
167 -340 17 -50 16 -54 -4 -125 -12 -40 -41 -113 -65 -163 -45 -93 -123 -221
-130 -213 -3 2 -18 56 -35 119 -32 124 -57 194 -95 270 -14 26 -25 55 -25 63
0 8 14 45 31 83 37 81 70 180 94 281 10 39 21 72 25 72 3 0 20 -21 37 -47z
m-4762 -34 c189 -22 369 -87 516 -186 76 -50 169 -129 169 -143 0 -16 -98
-104 -176 -156 -341 -228 -773 -256 -1137 -73 -128 64 -287 182 -287 212 0 26
143 142 250 202 135 76 287 126 441 144 106 12 124 12 224 0z m5950 -40 c166
-20 335 -82 472 -172 87 -57 203 -154 203 -169 0 -18 -118 -129 -184 -172
-132 -87 -317 -153 -491 -177 -220 -29 -485 29 -697 152 -81 47 -182 127 -221
175 l-29 35 57 52 c231 212 566 316 890 276z m-5259 -417 c-33 -87 -113 -225
-181 -316 -62 -83 -158 -186 -173 -186 -6 0 -23 19 -39 42 -79 118 -257 130
-351 24 -49 -56 -64 -101 -57 -168 l7 -58 -28 0 c-33 0 -190 82 -292 153 -95
66 -236 199 -318 301 -67 84 -149 214 -141 222 3 3 33 -15 68 -41 203 -150
435 -225 688 -225 286 0 528 87 754 272 45 36 84 62 85 57 2 -5 -8 -40 -22
-77z m3943 -135 c17 -48 38 -128 47 -177 l16 -89 -42 -51 c-83 -100 -299 -284
-315 -269 -2 3 -7 34 -10 69 -10 119 -16 164 -37 267 l-21 102 63 65 c34 36
89 102 121 148 32 46 66 94 75 107 l17 24 27 -54 c15 -30 42 -94 59 -142z
m-3399 98 c28 -41 81 -110 117 -151 l67 -76 -23 -112 c-12 -61 -24 -158 -28
-214 -3 -57 -10 -105 -15 -108 -14 -9 -115 72 -220 176 -79 79 -98 103 -98
126 1 103 107 434 140 434 5 0 32 -34 60 -75z m-461 -2 c34 -85 106 -217 168
-307 37 -55 52 -85 47 -98 -10 -33 -6 -288 6 -362 6 -38 9 -71 6 -73 -3 -3
-24 10 -48 29 -146 118 -362 231 -542 283 l-58 17 24 26 c12 14 45 49 71 76
66 69 187 254 243 370 26 53 50 96 54 96 3 0 17 -26 29 -57z m4213 5 c42 -123
182 -347 287 -460 39 -42 71 -80 71 -85 0 -6 -46 -25 -102 -43 -138 -45 -291
-123 -412 -210 -54 -39 -100 -69 -103 -67 -2 3 1 54 8 113 7 63 9 164 6 239
l-6 130 58 90 c62 96 117 200 146 278 10 26 22 47 27 47 5 0 14 -15 20 -32z
m130 -43 c213 -161 478 -243 747 -232 229 9 395 62 609 194 40 25 75 43 78 40
9 -9 -145 -204 -223 -282 -123 -122 -302 -246 -442 -307 -53 -22 -71 -18 -71
17 0 61 -56 143 -122 176 -91 46 -191 32 -261 -36 -20 -19 -40 -35 -45 -35
-17 0 -138 135 -196 218 -82 117 -175 302 -152 302 3 0 38 -25 78 -55z m-4949
-326 c47 -13 106 -63 123 -106 31 -73 11 -164 -47 -221 -41 -40 -88 -56 -149
-50 -54 5 -97 32 -138 85 -23 31 -27 46 -27 103 0 56 4 73 27 108 32 47 64 71
111 82 46 11 57 11 100 -1z m966 -162 c53 -51 126 -114 162 -140 l66 -47 11
-107 c6 -60 24 -159 40 -221 15 -62 25 -115 22 -117 -19 -12 -252 143 -341
226 -40 38 -51 78 -70 259 -10 96 -5 240 9 240 3 0 48 -42 101 -93z m3571 -53
c0 -151 -21 -310 -46 -351 -43 -69 -386 -294 -411 -269 -3 3 6 47 21 98 29
107 56 252 56 310 0 44 -1 43 125 137 44 33 116 96 160 140 44 45 83 81 87 81
5 0 8 -66 8 -146z m957 121 c49 -20 71 -41 95 -89 53 -103 1 -230 -109 -267
-54 -17 -126 -7 -168 25 -114 87 -93 261 40 334 29 16 100 14 142 -3z m-5157
-139 c41 -15 111 -45 155 -67 123 -63 277 -170 263 -184 -3 -3 -32 -2 -64 4
-32 6 -109 11 -172 11 -445 0 -844 -253 -1051 -667 -21 -43 -42 -88 -46 -101
-3 -12 -11 -19 -17 -16 -29 18 18 334 74 499 64 191 214 455 258 455 5 0 27
-18 49 -40 86 -87 203 -97 299 -24 31 24 82 109 82 137 0 40 39 39 170 -7z
m4857 -62 c21 -123 95 -195 208 -202 35 -2 78 1 97 7 37 12 91 58 124 105 l21
29 36 -49 c85 -116 186 -328 222 -466 37 -142 69 -408 49 -408 -5 0 -29 43
-53 96 -114 245 -293 436 -525 560 -190 101 -352 138 -578 132 -81 -2 -148 0
-148 5 0 13 163 115 253 158 85 41 238 97 267 98 12 1 19 -16 27 -65z m-3837
-141 c58 -28 141 -64 185 -78 44 -15 84 -30 90 -35 6 -5 19 -37 30 -72 18 -63
63 -173 104 -257 11 -25 21 -48 21 -53 0 -37 -437 69 -459 111 -21 40 -52 145
-70 240 -21 103 -28 206 -13 199 4 -2 54 -26 112 -55z m2760 -17 c0 -92 -72
-381 -103 -413 -25 -26 -313 -93 -399 -93 -22 0 -23 28 -4 55 22 32 75 162
107 262 l30 91 97 32 c53 17 133 49 177 70 44 21 83 39 88 39 4 1 7 -19 7 -43z
m-3343 -80 c39 -9 74 -23 76 -30 8 -20 -50 -183 -90 -256 -163 -293 -409 -489
-718 -570 -110 -29 -248 -43 -344 -35 -160 13 -271 40 -271 66 0 33 43 147 89
235 163 311 427 514 775 594 106 25 373 23 483 -4z m4293 -15 c275 -62 519
-222 678 -447 93 -130 182 -326 182 -399 0 -30 -3 -32 -52 -44 -79 -19 -292
-26 -389 -12 -318 47 -596 223 -776 494 -102 152 -184 360 -154 390 38 39 364
50 511 18z m-4114 -93 c27 -31 186 -133 277 -179 42 -22 77 -45 77 -52 0 -31
131 -262 195 -342 52 -66 53 -69 14 -61 -19 4 -86 13 -149 20 -122 14 -347 6
-404 -14 -16 -5 -40 -10 -52 -10 -28 0 -29 11 -10 95 28 120 40 302 27 420
-16 160 -15 168 25 123z m3517 -65 c-4 -38 -8 -149 -7 -248 0 -147 4 -199 23
-284 12 -57 20 -105 17 -108 -2 -2 -46 4 -98 15 -203 43 -336 49 -550 26 -32
-4 -58 -4 -58 -1 0 3 31 47 70 98 38 51 95 142 126 203 l57 111 116 58 c64 31
157 88 206 126 50 38 94 69 98 70 5 1 5 -29 0 -66z m-3579 1 c13 -96 6 -291
-14 -410 -11 -65 -25 -123 -30 -128 -5 -5 -22 -3 -42 7 -123 58 -269 -2 -312
-128 -23 -68 -20 -118 11 -187 36 -80 27 -88 -104 -100 -252 -22 -548 34 -777
149 -48 24 -86 46 -83 49 2 3 54 0 115 -6 415 -39 839 168 1076 524 36 55 105
191 124 246 15 43 28 37 36 -16z m3651 -11 c14 -59 96 -213 156 -294 143 -195
340 -341 567 -423 135 -48 214 -60 394 -61 95 0 164 -4 161 -9 -16 -25 -264
-124 -378 -151 -134 -31 -418 -47 -528 -28 l-39 6 8 46 c22 118 -4 197 -84
258 -60 46 -111 58 -185 43 -32 -6 -61 -10 -63 -7 -9 9 -33 118 -45 203 -12
91 -8 411 5 432 12 20 23 14 31 -15z m-3108 -188 c87 -30 191 -54 289 -66
l102 -12 41 -62 c46 -71 212 -259 242 -275 10 -6 19 -18 19 -27 0 -31 -376 -3
-470 36 -36 15 -60 38 -122 116 -69 89 -178 271 -178 300 0 9 35 5 77 -10z
m2553 -26 c0 -17 -85 -165 -137 -238 -26 -36 -74 -94 -108 -127 -54 -55 -68
-63 -120 -74 -65 -14 -358 -20 -371 -7 -4 4 31 45 78 92 74 73 166 184 218
264 14 21 29 25 130 37 63 8 153 24 200 38 101 28 110 29 110 15z m-1645 -50
c55 -56 212 -182 257 -205 15 -8 28 -19 28 -24 0 -21 -221 -100 -348 -124 -81
-15 -85 -15 -111 4 -74 52 -291 305 -291 339 0 7 23 11 63 11 62 0 232 23 297
39 19 5 40 9 45 10 6 1 33 -22 60 -50z m824 22 c44 -11 139 -25 210 -32 81 -7
131 -16 131 -23 -1 -25 -137 -191 -223 -271 l-92 -87 -50 6 c-113 13 -416 122
-415 150 1 6 37 34 81 61 44 28 121 87 172 132 51 45 95 82 99 83 4 0 43 -9
87 -19z m-455 -290 c11 -17 210 -95 309 -120 55 -15 102 -31 103 -36 8 -23
-229 -150 -355 -191 -52 -17 -56 -17 -130 5 -126 37 -396 179 -388 204 1 5 53
22 116 38 62 16 154 47 204 68 93 40 131 48 141 32z m-1913 -31 c73 -38 116
-143 90 -222 -13 -40 -61 -92 -105 -115 -69 -36 -179 -7 -230 60 -38 49 -45
132 -17 190 52 108 154 142 262 87z m659 -25 c47 -8 86 -15 88 -15 1 0 2 -4 2
-9 0 -4 -28 -19 -62 -31 -325 -117 -596 -397 -708 -731 -49 -146 -62 -227 -63
-396 0 -90 -3 -163 -6 -163 -3 0 -14 17 -23 38 -9 20 -29 63 -44 95 -94 207
-145 561 -113 782 13 93 23 102 85 81 69 -23 150 -21 199 7 92 52 138 163 111
267 -8 30 -12 57 -9 60 28 29 403 40 543 15z m2800 -35 c94 -15 214 -42 224
-52 6 -4 0 -27 -14 -55 -43 -85 -25 -194 44 -271 59 -66 183 -83 265 -37 24
14 46 24 48 21 2 -2 9 -50 15 -107 22 -227 -35 -524 -149 -768 -48 -105 -67
-111 -51 -16 5 33 7 121 4 195 -9 231 -69 425 -190 615 -113 176 -295 336
-496 433 -67 32 -72 37 -50 43 39 11 277 10 350 -1z m-2621 -57 c6 -21 16 -84
22 -141 19 -171 -10 -380 -77 -549 -99 -250 -308 -479 -549 -601 -80 -40 -234
-87 -245 -76 -19 19 -40 172 -40 287 0 323 135 633 370 850 117 108 300 213
440 253 66 18 68 17 79 -23z m3136 7 c51 -32 85 -95 85 -159 0 -118 -84 -197
-201 -189 -39 3 -69 12 -93 29 -44 29 -86 108 -86 161 0 70 58 152 125 177 43
16 129 6 170 -19z m-2900 -1 c51 -6 140 -7 205 -4 l115 7 45 -34 c70 -53 165
-108 269 -155 53 -23 97 -47 99 -51 1 -5 -19 -17 -45 -27 -150 -56 -325 -166
-463 -289 -46 -42 -87 -76 -91 -76 -4 0 -12 22 -18 48 -15 73 -74 228 -121
322 -41 83 -144 245 -161 256 -24 14 -5 25 34 20 23 -4 83 -11 132 -17z m2000
1 c239 -82 462 -279 602 -531 42 -74 100 -249 118 -351 27 -154 10 -467 -28
-505 -9 -10 -31 -6 -100 17 -374 126 -654 444 -743 843 -25 113 -30 324 -9
432 9 49 21 95 27 102 15 19 67 16 133 -7z m-225 -20 c0 -5 -22 -40 -49 -77
-27 -38 -74 -115 -104 -173 -54 -102 -127 -293 -127 -330 0 -39 -23 -29 -106
49 -48 44 -125 107 -173 139 -85 58 -257 152 -279 152 -26 0 -21 22 9 32 66
23 235 111 303 158 l71 49 155 -5 c85 -3 182 -1 215 4 83 13 85 13 85 2z
m-1882 -128 c89 -139 205 -434 188 -477 -3 -10 -20 -15 -43 -15 -112 -1 -213
-110 -213 -231 0 -75 44 -155 106 -191 19 -11 34 -24 34 -29 0 -17 -125 -100
-230 -153 -160 -81 -344 -137 -500 -151 -103 -9 -189 -12 -195 -7 -3 3 48 31
113 62 183 90 300 184 422 342 82 106 148 231 190 363 50 157 63 257 58 432
-5 175 -6 174 70 55z m1897 -114 c1 -157 4 -197 24 -278 92 -376 331 -673 666
-826 47 -22 85 -43 85 -48 0 -16 -208 6 -330 35 -198 48 -452 172 -589 289
l-24 20 40 38 c60 55 76 93 71 168 -6 99 -69 172 -167 193 -35 7 -36 9 -34 47
6 93 116 348 204 473 27 39 51 71 52 71 1 0 2 -82 2 -182z m-905 -89 c137
-164 228 -375 259 -604 30 -210 -12 -460 -106 -650 -63 -126 -194 -305 -223
-305 -14 0 -110 111 -155 180 -132 202 -195 412 -195 652 0 279 92 534 273
751 54 65 74 62 147 -24z m126 17 c123 -58 248 -145 359 -249 l90 -85 -46 -43
c-64 -61 -86 -122 -70 -192 17 -76 53 -124 114 -153 29 -13 67 -24 85 -24 20
0 32 -5 32 -14 0 -25 -108 -232 -170 -326 -77 -115 -262 -303 -373 -379 -42
-29 -82 -51 -87 -49 -6 2 6 25 25 52 57 81 131 234 164 341 86 282 65 600 -57
867 -35 77 -103 189 -148 244 -57 69 -46 70 82 10z m-326 19 c0 -3 -22 -38
-49 -78 -162 -241 -234 -532 -202 -817 25 -214 108 -427 233 -593 28 -38 48
-70 45 -73 -3 -3 -45 20 -94 52 -117 76 -326 286 -408 409 -66 101 -155 269
-155 295 0 12 14 21 45 30 173 48 230 256 107 392 l-37 41 75 69 c93 86 229
180 340 235 84 42 100 48 100 38z m-528 -391 c22 -16 51 -49 65 -74 49 -92 12
-214 -79 -261 -61 -31 -144 -24 -195 18 -76 60 -103 155 -69 236 15 37 87 103
120 111 52 11 118 -1 158 -30z m1474 -35 c62 -38 84 -146 45 -219 -54 -102
-201 -105 -275 -7 -26 35 -33 124 -13 163 45 86 158 116 243 63z"/>
<path d="M4208 5923 c-34 -26 -105 -88 -156 -137 l-93 -90 -47 13 c-152 43
-197 53 -286 63 -97 11 -100 11 -117 -11 -27 -33 -78 -173 -108 -295 l-27
-108 -89 -23 c-111 -28 -171 -49 -254 -86 l-64 -29 6 -89 c6 -78 23 -160 69
-317 l12 -42 -85 -83 c-88 -86 -199 -227 -199 -252 0 -22 97 -145 182 -231 43
-43 78 -87 78 -98 0 -10 -6 -34 -14 -53 -21 -50 -54 -207 -62 -297 l-7 -76 69
-35 c83 -41 204 -84 292 -102 35 -8 65 -15 67 -17 2 -2 17 -56 34 -120 33
-129 89 -266 114 -282 25 -16 244 19 384 62 31 10 34 8 130 -90 92 -93 219
-198 240 -198 22 0 185 130 264 211 96 98 74 92 194 55 121 -37 301 -58 332
-38 20 12 80 173 108 287 15 60 32 113 38 117 7 4 22 8 34 8 31 0 200 55 278
90 l65 29 0 55 c0 60 -28 213 -59 320 l-20 69 89 91 c98 100 200 226 200 248
0 23 -101 150 -193 243 l-89 90 10 40 c5 22 19 76 30 120 27 102 43 234 32
255 -12 23 -176 87 -299 119 l-105 26 -13 55 c-31 133 -59 221 -95 299 l-38
84 -67 -7 c-71 -7 -182 -30 -295 -61 l-67 -19 -88 89 c-87 87 -220 195 -240
195 -6 0 -40 -21 -75 -47z m130 -35 c56 -38 232 -211 232 -228 0 -7 -21 -35
-47 -64 -63 -69 -136 -183 -186 -288 -23 -48 -45 -87 -50 -88 -4 0 -12 12 -18
28 -35 93 -148 275 -224 360 -25 27 -45 55 -45 61 0 32 247 251 283 251 4 0
29 -14 55 -32z m-589 -174 c41 -9 99 -25 129 -36 54 -20 54 -20 48 -57 -28
-188 -31 -365 -10 -509 l7 -44 -86 64 c-103 76 -200 129 -322 178 -80 32 -90
39 -93 64 -5 37 43 205 84 295 l34 74 67 -7 c38 -4 101 -14 142 -22z m1305
-69 c40 -83 93 -272 83 -298 -3 -8 -38 -27 -79 -42 -112 -43 -204 -91 -306
-162 -52 -35 -95 -63 -97 -61 -2 2 0 35 5 73 14 106 12 279 -5 389 -12 80 -13
101 -3 108 42 27 264 78 328 75 33 -2 37 -6 74 -82z m-1023 -82 c78 -88 145
-203 205 -348 23 -55 38 -80 50 -80 20 0 23 4 70 119 56 134 202 346 239 346
13 0 29 -72 40 -186 12 -116 -18 -339 -65 -481 -46 -139 -148 -318 -243 -428
l-35 -40 -32 30 c-47 45 -123 150 -169 235 -99 185 -152 383 -154 585 -2 135
19 295 39 295 7 0 31 -21 55 -47z m-611 -334 c40 -111 112 -244 175 -324 88
-112 87 -108 13 -98 -95 12 -427 9 -465 -4 -43 -16 -55 -3 -81 84 -33 112 -43
164 -45 241 l-2 74 80 33 c102 43 220 75 264 72 32 -2 34 -5 61 -78z m195 -4
c117 -59 270 -167 311 -221 14 -17 34 -58 45 -90 25 -72 77 -181 119 -253 17
-29 28 -52 23 -50 -5 2 -58 29 -118 60 -61 31 -138 67 -173 79 -52 19 -74 35
-129 94 -72 77 -132 165 -183 266 -28 55 -70 162 -70 178 0 14 78 -14 175 -63z
m1762 18 c62 -19 127 -45 145 -57 30 -20 32 -25 29 -66 -4 -58 -26 -165 -53
-253 l-21 -69 -46 6 c-156 23 -393 23 -484 1 -15 -4 -27 -3 -27 1 0 5 27 45
60 88 61 81 157 257 180 331 24 77 29 77 217 18z m-251 5 c-3 -18 -32 -87 -65
-153 -43 -87 -82 -147 -139 -216 -77 -93 -83 -98 -149 -119 -69 -23 -188 -79
-269 -126 -24 -14 -44 -23 -44 -20 0 3 22 45 50 93 27 47 64 126 81 175 39
108 67 146 167 220 100 75 302 176 356 177 16 1 18 -4 12 -31z m-1421 -497
c130 -35 263 -93 371 -163 80 -53 174 -134 174 -152 0 -15 -114 -110 -190
-158 -229 -146 -504 -214 -764 -188 -121 12 -196 28 -196 41 0 8 108 97 165
136 69 47 177 99 275 134 58 20 105 42 105 49 0 6 -31 22 -70 36 -148 51 -362
177 -428 252 -19 21 -19 21 20 31 68 18 96 19 258 16 141 -3 174 -7 280 -34z
m1630 23 c49 -8 92 -17 94 -20 9 -9 -46 -56 -131 -115 -93 -63 -219 -126 -301
-150 -97 -28 -87 -51 41 -98 111 -40 236 -110 325 -180 91 -72 106 -90 87
-101 -24 -15 -159 -30 -268 -30 -302 0 -602 115 -821 312 -22 21 -41 42 -41
47 0 12 64 69 141 124 82 58 269 147 369 176 173 49 353 62 505 35z m-2016
-207 c44 -27 114 -62 156 -79 41 -18 75 -35 75 -38 0 -4 -37 -21 -82 -38 -105
-40 -211 -102 -317 -186 -47 -36 -88 -66 -92 -66 -15 0 -155 145 -202 208 -45
62 -46 64 -32 92 27 52 135 178 196 229 l60 50 79 -62 c43 -34 115 -84 159
-110z m2286 69 c44 -45 97 -107 119 -138 l39 -57 -48 -67 c-56 -78 -190 -214
-212 -214 -8 0 -50 28 -93 63 -90 72 -193 133 -307 182 -43 19 -79 38 -81 43
-1 4 24 19 55 31 96 39 243 126 328 194 68 55 83 63 100 54 11 -6 56 -47 100
-91z m-1250 -296 c53 -62 139 -198 178 -281 93 -198 136 -469 108 -670 -16
-113 -21 -129 -36 -129 -18 0 -114 120 -169 211 -44 73 -126 263 -126 293 0 7
-7 19 -15 26 -20 16 -45 -3 -45 -34 0 -21 -24 -87 -69 -191 -39 -89 -186 -295
-210 -295 -16 0 -33 99 -38 226 -14 308 103 641 302 861 30 35 51 50 60 45 7
-4 34 -32 60 -62z m-245 -86 c0 -3 -8 -18 -19 -32 -31 -44 -108 -212 -132
-286 -25 -79 -63 -127 -153 -191 -100 -71 -302 -165 -354 -165 -51 0 85 280
211 437 54 66 64 74 125 94 75 25 231 97 277 127 31 21 45 26 45 16z m424 -30
c60 -36 234 -114 255 -114 32 0 160 -149 228 -265 58 -100 120 -265 100 -265
-16 0 -127 45 -192 78 -97 48 -233 147 -267 194 -14 18 -37 69 -53 113 -28 81
-72 175 -120 253 -14 23 -23 42 -18 42 4 0 35 -16 67 -36z m-1319 -165 c84
-12 286 -11 362 2 35 6 66 9 69 6 3 -2 -20 -38 -51 -78 -65 -87 -159 -267
-182 -352 -9 -32 -23 -61 -30 -64 -23 -9 -195 39 -293 81 l-95 42 2 77 c2 79
34 230 60 281 14 26 18 28 56 21 23 -4 69 -11 102 -16z m1858 -10 c87 -10 130
-10 229 1 196 21 177 27 203 -60 24 -81 58 -288 49 -302 -23 -37 -323 -132
-366 -116 -8 4 -27 41 -43 85 -47 130 -111 247 -190 348 -51 65 -52 69 -18 62
16 -3 77 -11 136 -18z m-1170 -436 c-5 -143 4 -284 23 -350 5 -18 0 -25 -32
-38 -65 -27 -197 -54 -280 -57 l-79 -3 -22 45 c-34 67 -84 230 -86 274 l-2 40
100 36 c115 42 231 103 313 165 31 24 60 44 64 44 4 1 5 -70 1 -156z m863 98
c101 -68 223 -130 304 -156 79 -25 83 -30 76 -92 -8 -65 -50 -202 -83 -267
l-25 -48 -61 6 c-84 10 -202 34 -262 55 -49 17 -50 18 -49 57 0 21 6 89 12
151 12 105 6 229 -14 326 -3 15 -1 27 4 27 5 0 49 -27 98 -59z m-409 -164 c58
-119 85 -162 167 -262 44 -52 54 -71 46 -84 -23 -44 -217 -219 -277 -250 -18
-9 -30 -4 -85 36 -72 52 -204 185 -213 214 -5 14 6 33 35 67 85 96 162 226
239 407 l13 30 11 -25 c6 -14 34 -74 64 -133z"/>
</g>
</svg>
