<?xml version="1.0" standalone="no"?>
<!DOCTYPE svg PUBLIC "-//W3C//DTD SVG 20010904//EN"
 "http://www.w3.org/TR/2001/REC-SVG-20010904/DTD/svg10.dtd">
<svg version="1.0" xmlns="http://www.w3.org/2000/svg"
 width="2222.000000pt" height="3000.000000pt" viewBox="0 0 2222.000000 3000.000000"
 preserveAspectRatio="xMidYMid meet">
<metadata>
Created by potrace 1.16, written by Peter Selinger 2001-2019
</metadata>
<g transform="translate(0.000000,3000.000000) scale(0.100000,-0.100000)"
fill="#000000" stroke="none">
<path d="M0 15190 l0 -14810 11103 0 11104 0 6 2672 c4 1469 7 8134 7 14810
l0 12138 -11110 0 -11110 0 0 -14810z m3790 14633 c0 -43 -4 -150 -10 -238 -9
-141 -26 -520 -60 -1295 -67 -1543 -63 -3049 10 -3910 5 -63 10 -137 10 -163
l0 -48 -94 93 c-130 129 -295 314 -428 479 -181 226 -311 385 -373 459 -39 47
-113 137 -165 200 -52 63 -104 126 -116 140 -12 14 -68 81 -126 150 -57 69
-168 202 -247 295 -79 94 -166 197 -193 230 -28 33 -60 71 -72 85 -12 14 -176
207 -366 430 -189 223 -349 410 -355 416 -5 6 -26 30 -45 54 -19 24 -40 48
-45 54 -6 6 -74 85 -150 176 -77 91 -149 176 -161 190 -54 63 -212 251 -448
534 l-256 308 0 713 c1 392 4 715 7 719 4 3 834 6 1845 6 l1838 0 0 -77z
m4382 45 c16 -18 59 -64 96 -103 37 -38 112 -119 167 -180 55 -60 103 -112
106 -115 3 -3 68 -75 144 -160 77 -85 142 -157 145 -160 3 -3 41 -46 85 -96
44 -50 109 -123 145 -164 161 -182 644 -751 755 -890 33 -41 62 -77 65 -80 47
-46 594 -758 792 -1030 130 -179 289 -403 303 -427 l17 -30 -57 -89 c-457
-705 -770 -1241 -1054 -1804 -486 -960 -804 -1867 -1010 -2880 -22 -106 -42
-194 -44 -196 -2 -3 -51 33 -108 79 -245 196 -591 446 -854 616 -541 349 -993
594 -1693 918 -103 47 -469 200 -647 271 -484 191 -980 359 -1480 502 -44 13
-82 25 -84 27 -14 11 -74 912 -90 1348 -22 612 -20 1926 4 2370 3 50 10 212
15 360 11 289 41 876 65 1275 32 527 36 586 41 628 l5 42 2071 0 2071 0 29
-32z m2858 -1554 l0 -1586 -133 173 c-264 346 -303 396 -399 519 -195 249
-244 310 -516 650 -56 70 -35 45 -317 383 -310 371 -318 381 -379 452 -45 51
-167 191 -240 275 -85 98 -290 326 -340 380 -34 36 -99 108 -146 160 -47 52
-100 109 -117 128 -18 18 -33 37 -33 42 0 7 473 10 1310 10 l1310 0 0 -1586z
m2760 1580 c0 -3 -71 -85 -157 -182 -86 -97 -189 -213 -227 -257 -38 -44 -75
-84 -81 -90 -6 -5 -20 -22 -32 -37 -11 -15 -52 -63 -91 -105 -39 -43 -90 -101
-114 -129 -23 -29 -112 -132 -197 -230 -178 -208 -152 -176 -356 -419 -89
-104 -230 -276 -315 -380 -157 -192 -190 -233 -362 -450 -139 -176 -564 -744
-645 -864 -13 -19 -23 -28 -23 -20 -4 323 2 3067 7 3109 l6 60 1293 0 c712 0
1294 -3 1294 -6z m4434 -56 c7 -75 38 -641 66 -1213 82 -1670 86 -2891 15
-4120 -15 -259 -43 -616 -47 -620 -2 -1 -41 -12 -88 -25 -337 -89 -987 -304
-1355 -447 -401 -156 -588 -235 -925 -390 -467 -216 -1027 -520 -1430 -777
-88 -55 -452 -298 -465 -309 -5 -4 -53 -38 -105 -75 -53 -37 -181 -132 -284
-212 -249 -191 -225 -175 -230 -159 -3 8 -19 86 -36 174 -78 395 -242 993
-384 1400 -132 380 -174 486 -381 965 -117 271 -380 790 -572 1130 -185 327
-491 816 -710 1135 -26 38 -57 84 -67 102 l-19 32 39 58 c70 101 127 182 279
393 97 135 385 518 469 625 39 50 74 95 79 100 59 78 384 482 397 495 3 3 34
41 70 85 36 44 75 91 87 105 11 14 77 91 145 171 67 80 152 179 187 220 35 41
85 98 110 128 25 30 51 59 56 65 16 16 182 203 314 351 63 72 138 155 167 185
136 146 392 425 419 456 l30 34 2082 0 2081 0 6 -62z m3889 -5 c-13 -110 -6
-359 17 -653 23 -292 23 -554 0 -675 -24 -120 -65 -177 -329 -450 -69 -71
-201 -220 -292 -330 -176 -211 -518 -622 -573 -690 -54 -65 -521 -627 -775
-934 -308 -370 -661 -792 -746 -891 -22 -26 -49 -58 -60 -71 -11 -14 -74 -87
-140 -164 -66 -77 -130 -151 -141 -165 -48 -57 -211 -247 -235 -275 -15 -16
-66 -75 -115 -130 -49 -55 -114 -129 -144 -164 -95 -111 -118 -133 -124 -123
-3 6 -4 16 -1 24 6 20 23 241 40 548 34 589 36 2260 5 3250 -23 733 -73 1749
-96 1918 l-5 42 1861 0 1861 0 -8 -67z m6 -3520 l1 -1663 -27 0 c-23 0 -354
-47 -783 -111 -131 -19 -645 -106 -825 -139 -103 -19 -694 -138 -820 -165
-183 -39 -482 -110 -764 -181 -139 -36 -256 -63 -258 -60 -4 3 426 549 446
566 3 3 33 39 66 80 33 41 62 77 65 80 3 3 46 55 95 115 152 187 595 718 955
1145 128 151 289 343 358 425 69 83 128 152 131 155 3 3 28 32 56 65 27 33 52
62 55 65 4 3 93 109 199 235 107 127 212 253 236 280 232 274 380 450 421 501
27 34 123 150 214 258 l165 196 6 -92 c4 -51 7 -841 8 -1755z m-21808 1597
c96 -113 224 -264 284 -335 61 -71 146 -172 189 -224 44 -53 82 -98 86 -101 3
-3 28 -32 55 -65 28 -33 52 -62 55 -65 3 -3 28 -32 55 -65 28 -33 91 -107 140
-165 50 -58 110 -130 135 -159 25 -30 50 -59 55 -65 13 -13 176 -207 298 -355
49 -58 98 -117 110 -131 12 -14 45 -52 72 -85 28 -33 77 -92 110 -130 33 -39
81 -95 106 -125 86 -102 610 -731 702 -843 50 -62 99 -121 108 -132 21 -24
268 -324 312 -379 18 -21 37 -44 42 -50 6 -6 28 -33 50 -61 22 -27 42 -52 45
-55 3 -3 61 -75 129 -160 69 -85 130 -158 135 -162 35 -23 -30 -13 -248 41
-450 112 -1093 250 -1561 337 -44 8 -114 21 -155 29 -100 19 -778 133 -860
145 -36 5 -110 17 -165 25 -213 33 -447 65 -470 65 l-25 0 0 1757 c0 1713 0
1757 19 1738 10 -11 96 -112 192 -225z m10717 -5745 l1 -3630 -35 80 c-20 44
-80 170 -134 280 -236 479 -473 859 -803 1290 -254 330 -657 762 -892 955
-114 94 -163 143 -175 175 -22 59 -12 116 90 490 12 44 39 167 61 274 21 106
57 257 80 335 123 427 373 1097 572 1534 30 64 69 151 88 192 48 107 302 611
388 770 108 199 281 502 356 620 12 19 39 64 60 100 48 81 107 173 232 366
l98 150 6 -175 c4 -97 7 -1809 7 -3806z m446 3524 c21 -35 58 -93 81 -129 101
-155 320 -535 462 -800 124 -231 383 -757 383 -776 0 -3 16 -39 35 -82 312
-693 604 -1618 756 -2392 36 -182 36 -182 -2 -214 -157 -131 -520 -494 -730
-731 -24 -27 -47 -52 -50 -55 -45 -40 -321 -391 -449 -570 -278 -389 -542
-855 -718 -1267 l-39 -93 -6 143 c-5 99 -10 6189 -7 7387 0 14 204 -288 284
-421z m10617 -1246 c1 -21 2 -56 4 -78 2 -22 8 -319 14 -660 13 -731 17 -1962
14 -4543 l-3 -1882 -32 14 c-841 369 -1697 670 -2458 864 -564 144 -874 204
-1535 296 -241 34 -699 71 -1002 82 -106 4 -193 11 -193 15 0 4 23 50 51 101
194 351 349 678 532 1118 146 352 330 893 442 1300 20 74 43 155 51 180 40
133 153 625 214 929 84 424 173 1030 210 1421 15 161 13 155 62 167 24 6 113
29 198 52 310 82 894 221 1080 256 41 8 140 28 220 45 80 17 170 34 200 40 30
5 105 19 165 30 343 66 1675 286 1743 289 19 1 22 -4 23 -36z m-21556 -43
c1332 -199 2231 -378 3015 -600 102 -29 196 -55 210 -59 23 -7 26 -13 32 -87
20 -220 97 -784 137 -1014 6 -30 22 -119 35 -197 216 -1224 639 -2532 1132
-3498 106 -209 187 -361 202 -377 13 -15 12 -18 -9 -22 -13 -3 -125 -10 -249
-16 -298 -13 -682 -47 -915 -80 -450 -64 -665 -101 -994 -169 -173 -37 -517
-119 -726 -175 -359 -95 -1046 -318 -1360 -441 -171 -67 -470 -188 -580 -235
-66 -29 -142 -61 -168 -71 -27 -11 -75 -33 -108 -49 -32 -17 -65 -30 -74 -30
-13 0 -15 352 -15 3363 0 1850 3 3466 7 3591 l6 228 46 -7 c25 -3 195 -28 376
-55z m17539 -762 c-20 -33 -164 -219 -256 -330 -98 -119 -317 -378 -328 -388
-3 -3 -30 -34 -60 -70 -30 -36 -60 -71 -67 -78 -7 -7 -29 -34 -50 -60 -21 -26
-52 -63 -69 -82 -42 -47 -149 -179 -259 -320 -49 -63 -92 -117 -95 -120 -3 -3
-86 -99 -185 -215 -99 -115 -184 -215 -190 -221 -5 -6 -19 -22 -30 -35 -35
-41 -256 -301 -304 -358 -25 -30 -66 -77 -90 -105 -59 -69 -78 -92 -131 -156
-37 -45 -370 -444 -443 -530 -12 -14 -57 -68 -101 -120 -88 -106 -153 -182
-178 -212 -9 -10 -30 -36 -46 -56 -36 -43 -287 -346 -343 -412 -20 -25 -88
-106 -150 -180 -62 -74 -126 -151 -143 -170 -17 -20 -47 -55 -66 -80 -19 -24
-40 -48 -45 -54 -15 -16 -390 -462 -484 -575 -30 -36 -57 -68 -61 -71 -3 -3
-28 -32 -55 -65 -58 -69 -227 -268 -235 -275 -3 -3 -46 -52 -95 -110 -49 -58
-92 -107 -95 -110 -3 -3 -32 -36 -65 -75 -33 -38 -65 -75 -71 -81 -6 -7 -23
-26 -38 -44 -31 -38 -41 -35 -25 6 14 37 48 166 98 369 191 781 248 1681 160
2544 -10 107 -26 226 -35 265 -9 39 -18 97 -21 129 l-5 57 73 73 c269 264
1064 799 1734 1168 261 143 1028 519 1059 519 3 0 33 13 68 29 336 156 1061
418 1588 575 131 39 144 41 134 24z m-13717 -69 c609 -183 1254 -425 1838
-689 144 -66 660 -322 775 -385 474 -262 838 -492 1215 -768 203 -149 479
-367 583 -462 10 -9 9 -41 -8 -171 -116 -903 -76 -1949 106 -2764 31 -139 98
-384 119 -434 5 -11 4 -17 -2 -15 -5 2 -126 144 -268 314 -142 171 -279 335
-305 365 -25 30 -80 95 -121 145 -40 49 -84 101 -96 115 -40 47 -208 246 -249
296 -23 27 -66 78 -96 114 -30 36 -114 137 -188 225 -74 88 -157 187 -184 220
-28 33 -78 91 -111 130 -33 39 -78 93 -100 120 -22 27 -69 83 -105 125 -36 41
-83 97 -105 124 -22 27 -47 56 -55 66 -53 63 -105 125 -161 191 -98 116 -364
432 -454 539 -44 53 -98 118 -120 144 -22 27 -164 196 -315 376 -151 180 -336
401 -411 491 -128 153 -680 815 -754 904 -82 99 -360 433 -463 557 -61 74
-119 141 -127 148 -14 12 -20 30 -10 30 2 0 80 -23 172 -51z m-241 -191 c34
-40 70 -83 80 -94 11 -12 37 -43 59 -70 33 -40 149 -178 226 -269 10 -11 57
-68 106 -126 48 -58 146 -175 218 -260 71 -85 139 -165 150 -178 11 -14 34
-41 51 -60 24 -29 282 -335 614 -731 21 -25 82 -97 135 -160 53 -63 104 -124
114 -135 9 -11 90 -108 181 -216 368 -436 434 -515 655 -779 126 -152 285
-341 351 -420 67 -80 183 -218 257 -307 74 -89 155 -186 180 -215 65 -75 81
-93 119 -140 51 -63 247 -299 282 -338 17 -20 45 -54 63 -75 87 -110 214 -262
283 -340 19 -22 50 -59 68 -82 19 -23 42 -51 52 -63 10 -12 33 -39 52 -62 18
-23 113 -137 211 -255 99 -118 177 -217 174 -220 -14 -13 -130 34 -203 82 -51
35 -126 71 -205 100 -943 352 -1772 527 -2611 552 l-218 6 -39 61 c-46 72
-167 283 -236 411 -99 184 -146 280 -276 560 -140 304 -343 851 -478 1290 -97
319 -245 903 -296 1175 -8 41 -23 118 -34 170 -24 118 -86 473 -111 640 -52
343 -90 629 -90 665 0 22 -1 23 116 -117z m14069 -94 c-14 -121 -40 -304 -56
-409 -17 -104 -35 -219 -40 -255 -56 -360 -203 -1033 -304 -1395 -197 -706
-398 -1260 -682 -1885 -73 -161 -281 -565 -386 -750 l-25 -45 -133 -7 c-1147
-60 -2184 -305 -3034 -719 -60 -29 -114 -55 -119 -57 -5 -3 -7 0 -5 6 3 8 192
241 271 333 9 11 30 37 47 58 51 62 302 363 335 402 17 20 47 55 66 79 39 48
332 400 390 470 21 25 89 106 151 180 62 74 126 151 143 170 17 20 47 55 66
80 19 24 40 48 45 54 10 10 249 295 286 341 23 28 460 547 647 770 10 11 76
90 147 175 71 85 134 160 140 166 5 6 48 57 95 114 47 57 101 122 121 145 20
22 78 90 128 150 51 61 109 130 130 155 74 88 168 200 338 403 95 113 178 211
185 219 7 7 56 65 108 128 51 63 96 117 100 120 3 3 48 57 100 120 52 63 97
117 100 120 3 3 64 75 135 160 71 85 132 157 136 160 3 3 49 58 102 123 163
199 290 347 294 343 2 -2 -8 -102 -22 -222z m-4921 -2291 c55 -371 70 -612 63
-1066 -9 -644 -92 -1258 -248 -1847 -17 -63 -39 -146 -50 -185 -27 -102 -93
-275 -149 -391 -56 -117 -84 -145 -250 -256 -112 -76 -204 -144 -259 -193
-257 -227 -447 -413 -605 -590 -98 -110 -271 -336 -331 -433 -21 -34 -42 -62
-48 -62 -7 0 -8 46 -3 133 3 72 9 267 12 432 5 250 4 320 -10 420 -9 66 -25
208 -36 315 -19 199 -40 295 -110 520 -40 128 -50 238 -26 275 9 13 46 113 82
222 62 186 125 352 190 503 45 103 194 399 236 468 21 34 38 64 38 66 0 8 136
226 203 326 163 243 436 590 646 820 201 221 611 629 632 630 4 0 14 -48 23
-107z m-4167 -32 c122 -105 366 -345 478 -471 68 -76 200 -232 241 -286 191
-248 287 -380 358 -489 22 -33 63 -96 92 -140 126 -192 283 -469 414 -730 126
-251 156 -318 221 -493 101 -273 102 -319 16 -657 -42 -161 -69 -322 -93 -550
-21 -194 -21 -787 -1 -1013 7 -79 11 -145 8 -147 -2 -2 -30 31 -62 73 -33 42
-65 84 -72 92 -6 8 -36 47 -66 85 -356 459 -803 886 -1192 1139 -84 55 -79 47
-181 310 -192 497 -324 1157 -368 1826 -25 399 -21 876 10 1190 24 231 44 380
51 380 5 0 71 -53 146 -119z m8463 -2615 c363 -29 766 -78 1020 -126 30 -5
129 -24 220 -41 895 -166 1862 -461 2795 -852 333 -140 328 -137 322 -143 -5
-5 -42 -12 -382 -74 -93 -17 -217 -39 -275 -50 -158 -30 -516 -95 -685 -125
-82 -14 -170 -30 -195 -35 -25 -5 -137 -25 -250 -45 -113 -20 -315 -56 -450
-80 -334 -60 -559 -100 -790 -141 -107 -19 -258 -46 -335 -59 -77 -14 -203
-36 -280 -50 -77 -13 -165 -29 -195 -35 -30 -6 -82 -15 -115 -20 -33 -5 -134
-22 -225 -39 -91 -16 -320 -57 -510 -90 -190 -33 -487 -85 -660 -115 -423 -74
-783 -136 -850 -146 -30 -5 -160 -27 -287 -50 -128 -22 -338 -58 -465 -80
-128 -23 -260 -45 -293 -50 -33 -6 -109 -19 -170 -29 -107 -19 -135 -19 -105
-1 54 33 322 221 428 300 418 311 840 701 1147 1060 143 167 177 208 261 322
141 191 170 231 250 356 175 271 246 377 282 419 l37 43 285 -5 c157 -3 368
-12 470 -19z m-1010 9 c0 -3 -8 -18 -19 -33 -10 -15 -61 -92 -114 -172 -125
-190 -234 -347 -320 -461 -27 -35 -58 -77 -70 -93 -52 -71 -247 -308 -316
-386 -413 -464 -783 -783 -1236 -1067 -161 -100 -179 -113 -316 -212 -41 -29
-111 -71 -157 -93 -136 -64 -215 -67 -607 -22 -156 18 -312 15 -575 -11 -260
-26 -655 -95 -890 -154 -41 -11 -76 -18 -77 -17 -1 1 35 43 81 93 436 475 791
990 1036 1505 59 123 50 115 258 235 771 444 1704 740 2672 848 307 35 650 55
650 40z m-11046 -113 c83 -137 290 -444 399 -593 83 -113 297 -383 343 -434
11 -11 58 -65 106 -120 101 -116 329 -350 439 -451 143 -131 175 -159 284
-249 217 -179 347 -275 562 -418 51 -34 91 -63 89 -65 -4 -4 -110 13 -896 144
-605 101 -638 107 -1540 265 -91 16 -217 38 -280 49 -63 12 -167 30 -230 41
-63 11 -176 31 -250 44 -225 41 -437 79 -610 110 -47 8 -146 26 -220 39 -74
14 -202 37 -285 51 -82 14 -170 30 -195 35 -25 5 -85 16 -135 24 -49 9 -166
30 -260 47 -93 16 -235 41 -315 55 -80 14 -167 29 -195 34 -49 9 -125 22 -425
74 -80 14 -185 32 -235 41 -120 21 -485 84 -885 151 -179 30 -335 56 -347 59
-23 5 -33 25 -13 25 5 0 49 17 97 39 49 21 160 68 248 104 1535 628 2821 928
4255 990 36 2 148 4 250 5 l185 2 59 -98z m785 43 c982 -96 1913 -396 2736
-883 194 -115 183 -103 262 -264 246 -496 563 -952 951 -1367 59 -62 109 -118
111 -123 2 -5 -12 -7 -30 -4 -19 3 -56 8 -84 11 -27 3 -106 17 -175 30 -69 12
-156 28 -195 34 -38 7 -95 16 -125 21 -495 87 -746 104 -1030 70 -238 -28
-388 -25 -470 11 -91 40 -308 177 -665 420 -152 103 -425 322 -615 493 -67 61
-393 388 -435 436 -16 20 -57 67 -91 105 -170 196 -307 380 -523 703 -79 117
-165 237 -192 266 -27 30 -49 57 -49 61 0 12 443 -2 619 -20z m4814 -872 c4
-27 16 -97 27 -158 63 -344 83 -640 55 -845 -9 -69 -19 -202 -22 -297 -6 -163
-5 -175 18 -238 17 -50 34 -76 63 -101 36 -31 45 -34 105 -34 42 0 81 7 106
19 48 21 122 101 189 202 27 41 60 90 73 111 83 125 285 360 468 543 154 154
369 345 389 345 10 0 -25 -73 -91 -189 -57 -100 -167 -276 -183 -291 -3 -3
-18 -25 -34 -50 -100 -154 -317 -413 -428 -510 -149 -131 -198 -202 -198 -291
0 -105 75 -181 197 -199 121 -19 242 0 620 95 100 25 228 50 285 55 126 13
659 30 672 23 19 -12 -298 -126 -519 -187 -238 -66 -514 -118 -685 -131 -279
-20 -408 -65 -451 -159 -38 -84 -22 -148 62 -240 73 -80 148 -126 443 -271
251 -124 413 -223 596 -363 179 -137 295 -242 268 -242 -21 0 -161 49 -301
106 -348 142 -653 304 -841 447 -134 102 -227 134 -322 108 -179 -48 -194
-195 -52 -516 85 -191 162 -429 228 -700 43 -176 113 -532 107 -549 -6 -19
-147 222 -247 424 -101 207 -157 339 -203 485 -133 418 -166 501 -221 553 -50
48 -104 72 -164 72 -67 0 -109 -18 -155 -65 -53 -55 -81 -119 -127 -295 -76
-285 -242 -679 -438 -1033 l-87 -158 -3 43 c-16 212 145 824 301 1148 121 251
122 253 122 366 0 94 -2 103 -28 143 -31 47 -91 80 -145 81 -116 1 -298 -81
-548 -245 -235 -155 -460 -266 -767 -379 -70 -26 -133 -46 -140 -43 -18 6 115
139 223 221 155 119 360 242 675 406 311 162 352 192 398 285 34 70 40 112 22
172 -26 88 -114 146 -261 172 -32 6 -144 17 -249 25 -285 23 -451 60 -840 190
-121 41 -233 80 -250 87 l-30 12 40 8 c68 13 388 10 543 -6 221 -23 559 -74
627 -95 33 -10 98 -32 145 -50 70 -27 100 -33 170 -34 73 -1 90 2 122 22 56
35 104 99 123 165 16 57 16 58 -9 112 -23 51 -87 124 -181 206 -22 19 -67 66
-100 104 -33 39 -62 72 -65 75 -3 3 -66 82 -141 175 -128 162 -228 302 -312
436 -54 87 -160 289 -151 289 21 0 342 -290 511 -461 172 -175 219 -229 334
-384 133 -179 131 -176 169 -219 50 -57 61 -68 100 -96 98 -72 177 -67 248 15
60 67 61 74 52 255 -19 354 -10 841 20 1070 16 121 52 300 60 300 4 0 10 -21
13 -47z m10636 -550 c-244 -246 -652 -606 -940 -828 -355 -274 -648 -481
-1046 -739 -181 -117 -636 -386 -828 -491 -38 -21 -115 -63 -170 -93 -393
-215 -1074 -519 -1187 -530 -44 -4 -53 -1 -125 49 -43 29 -123 89 -178 134
-105 85 -120 95 -379 267 -565 376 -1040 622 -1587 827 -118 43 -230 84 -249
89 -19 6 -73 22 -120 37 -47 14 -152 44 -234 65 -81 21 -150 41 -153 43 -2 3
11 7 29 10 67 12 604 110 853 157 112 20 431 78 720 130 88 15 315 56 505 90
190 34 395 70 455 80 61 10 187 32 280 49 94 17 197 35 230 40 33 6 110 20
170 30 61 11 241 43 400 71 160 28 364 64 455 80 91 16 298 52 460 80 162 28
473 83 690 121 399 71 462 82 670 118 63 11 167 30 230 41 63 12 189 34 280
50 91 16 266 47 390 70 124 23 252 45 285 51 33 5 92 16 130 23 39 7 74 11 79
8 4 -2 -47 -61 -115 -129z m-21129 77 c135 -22 299 -49 365 -60 370 -59 1422
-240 2045 -351 220 -40 435 -77 545 -95 50 -8 110 -18 135 -24 25 -5 149 -27
275 -50 310 -54 607 -107 740 -130 328 -58 509 -91 585 -104 47 -9 159 -29
250 -45 91 -16 219 -39 285 -51 66 -12 143 -25 170 -30 28 -5 114 -20 193 -34
78 -15 204 -37 280 -50 75 -14 241 -43 367 -66 127 -23 280 -50 340 -60 430
-75 520 -92 524 -95 5 -6 2 -7 -194 -59 -843 -225 -1651 -617 -2445 -1184
-100 -72 -339 -251 -350 -262 -29 -30 -37 -30 -131 4 -52 18 -178 68 -282 110
-800 326 -1595 769 -2332 1300 -66 47 -131 94 -144 103 -60 43 -374 285 -451
347 -47 38 -103 83 -124 100 -22 17 -44 36 -50 41 -6 6 -45 37 -86 70 -41 33
-77 62 -80 65 -3 3 -36 32 -75 65 -38 33 -72 63 -75 66 -3 3 -59 53 -126 110
-181 155 -441 392 -448 407 -4 10 1 12 22 8 15 -3 137 -24 272 -46z m21509
-3846 l1 -3320 -52 -3 c-29 -1 -132 -11 -228 -22 -514 -59 -607 -69 -743 -80
-83 -6 -152 -7 -156 -3 -5 5 -52 95 -106 199 -82 159 -299 562 -354 657 -9 15
-40 69 -70 120 -578 1005 -1203 1871 -1866 2588 -87 95 -500 507 -580 580 -98
88 -218 197 -244 219 -13 12 -22 23 -20 26 4 4 73 31 279 112 86 34 248 103
333 142 37 17 69 31 71 31 7 0 263 123 401 192 197 99 356 185 610 330 348
198 898 573 1325 902 354 273 787 638 1085 916 39 36 117 108 174 160 57 52
109 100 115 106 20 21 23 -471 25 -3852z m-21949 3766 c8 -8 51 -47 95 -85 44
-39 82 -72 85 -75 6 -6 121 -105 164 -141 16 -13 34 -29 40 -34 38 -35 235
-203 311 -265 50 -41 92 -77 95 -80 24 -31 699 -557 846 -660 12 -8 76 -54
143 -103 233 -168 641 -437 811 -535 19 -11 100 -58 180 -104 304 -177 635
-343 1025 -516 116 -51 386 -159 455 -181 111 -36 113 -24 -20 -141 -129 -114
-534 -515 -696 -690 -38 -41 -72 -77 -75 -80 -11 -10 -294 -335 -334 -384 -22
-27 -45 -54 -50 -60 -75 -82 -471 -597 -573 -746 -29 -41 -79 -113 -113 -160
-54 -77 -160 -235 -274 -410 -301 -462 -643 -1059 -909 -1587 -74 -147 -91
-173 -110 -173 -37 0 -587 58 -857 90 -139 16 -265 30 -281 30 l-28 0 0 3577
0 3576 27 -24 c15 -13 34 -31 43 -39z m13987 -1275 c472 -62 983 -213 1491
-441 431 -194 550 -256 847 -442 262 -165 845 -585 831 -599 -4 -5 -208 -65
-336 -99 -566 -153 -942 -224 -1505 -285 -178 -19 -702 -17 -885 5 -80 9 -235
23 -345 31 -284 21 -389 33 -482 55 -153 36 -204 73 -369 260 -236 270 -831
682 -1341 930 -51 25 -93 47 -93 50 0 8 135 31 507 85 419 62 654 128 1009
286 253 112 349 151 394 164 61 18 145 18 277 0z m-5839 -31 c29 -8 94 -35
145 -60 343 -170 1041 -353 1666 -436 56 -8 96 -18 98 -25 6 -18 -41 -61 -74
-68 -45 -9 -296 -136 -438 -222 -342 -207 -642 -439 -893 -689 -141 -140 -215
-200 -288 -230 -71 -30 -381 -83 -634 -109 -211 -22 -683 -30 -945 -16 -558
30 -1146 125 -1680 272 -239 66 -366 109 -359 120 15 25 393 297 609 440 176
116 271 174 490 299 104 59 497 260 510 260 3 0 29 12 58 26 152 74 496 204
737 278 237 72 613 158 790 179 53 7 148 -2 208 -19z m3922 -1359 c154 -92
469 -251 604 -304 128 -51 193 -70 376 -111 235 -53 321 -88 427 -172 266
-210 847 -1140 1089 -1742 153 -378 262 -722 407 -1286 53 -204 59 -230 53
-230 -7 0 -218 87 -316 130 -577 254 -1060 533 -1515 873 -88 66 -162 123
-165 126 -3 3 -39 33 -79 66 -251 202 -698 652 -859 864 -74 99 -89 167 -108
501 -3 63 -14 151 -24 195 -10 44 -21 116 -24 159 -11 122 -78 398 -162 660
-36 110 -101 282 -114 301 -20 28 -88 165 -100 199 -11 35 -11 41 5 52 14 11
43 -3 203 -100 103 -62 239 -143 302 -181z m-1720 283 c0 -2 -16 -46 -36 -98
-207 -556 -297 -847 -364 -1181 -44 -217 -60 -349 -63 -505 -2 -136 -3 -140
-35 -199 -56 -103 -77 -126 -547 -585 -201 -197 -395 -370 -575 -513 -123 -97
-166 -130 -255 -191 -55 -38 -127 -88 -160 -111 -249 -174 -668 -408 -1010
-565 -156 -72 -426 -182 -432 -177 -7 7 77 366 128 547 101 354 239 744 369
1040 72 164 258 529 348 683 154 262 439 674 574 828 13 15 58 70 102 123 43
53 88 98 100 101 264 54 589 160 875 285 235 102 842 427 940 502 20 15 41 24
41 16z m633 -263 c18 -80 89 -311 126 -409 128 -338 264 -605 569 -1111 l174
-290 -5 -255 c-21 -898 -208 -1760 -561 -2579 -84 -194 -339 -681 -357 -681
-9 0 -213 427 -306 639 -58 131 -65 149 -131 321 -292 762 -432 1472 -449
2270 l-5 275 45 65 c265 375 546 890 672 1230 61 165 100 281 135 403 52 181
47 169 67 165 11 -2 21 -18 26 -43z m6385 -270 c83 -39 191 -131 407 -349 110
-110 267 -266 349 -346 137 -133 288 -297 426 -460 30 -36 63 -74 73 -85 27
-29 296 -360 346 -425 339 -440 564 -760 721 -1025 30 -49 64 -106 76 -125 56
-88 373 -654 488 -870 104 -196 257 -500 251 -500 -3 0 -81 43 -173 97 -227
131 -947 544 -1782 1023 -157 90 -313 181 -348 202 -34 21 -64 38 -66 38 -2 0
-59 32 -127 71 -68 40 -212 122 -319 184 -107 62 -298 172 -425 245 -126 73
-333 192 -460 265 -537 309 -691 399 -717 416 -14 11 -29 19 -32 19 -4 0 -41
21 -84 46 -153 91 -190 113 -382 224 -107 62 -208 121 -225 130 -16 10 -77 46
-135 79 -58 34 -112 66 -120 71 -8 5 -53 32 -100 58 -90 53 -399 234 -615 362
-71 42 -186 109 -255 150 -112 65 -218 129 -229 137 -17 12 23 12 125 -1 457
-59 1128 -53 1679 15 420 51 805 131 1050 216 515 181 513 180 603 138z
m-12338 -130 c930 -267 1870 -359 2700 -265 90 10 166 17 167 16 3 -3 -139
-88 -517 -308 -113 -66 -259 -152 -325 -190 -66 -39 -169 -100 -230 -135 -207
-122 -240 -142 -455 -266 -118 -68 -253 -147 -300 -174 -47 -28 -188 -110
-315 -183 -126 -74 -255 -148 -285 -165 -30 -18 -174 -101 -320 -185 -146 -84
-321 -186 -390 -226 -69 -40 -199 -115 -290 -167 -91 -52 -327 -188 -525 -302
-198 -114 -373 -215 -390 -225 -16 -9 -122 -70 -235 -135 -184 -106 -416 -239
-1543 -884 -176 -101 -321 -181 -323 -178 -5 4 166 343 278 552 165 307 258
469 470 815 80 130 336 518 394 597 22 29 55 76 74 104 19 28 40 56 45 62 6 7
35 46 65 87 105 145 268 353 394 505 360 432 840 921 1206 1227 14 12 52 44
85 72 33 29 72 61 88 73 l27 21 148 -49 c81 -27 217 -69 302 -94z m2952 -488
c-143 -192 -339 -504 -475 -753 -352 -645 -645 -1451 -809 -2222 l-14 -64
-110 -48 c-113 -49 -381 -145 -509 -181 -155 -45 -695 -188 -850 -226 -271
-66 -718 -131 -1304 -188 -546 -54 -901 -63 -1681 -45 -305 7 -566 14 -580 15
-14 1 -59 3 -100 4 -53 2 -71 5 -60 12 27 18 779 462 1010 597 52 30 131 76
175 103 110 65 490 287 534 311 20 11 56 32 81 48 25 15 106 63 180 105 74 43
193 112 264 153 72 41 144 82 160 92 17 10 189 109 381 220 496 287 900 520
1380 795 165 95 377 216 470 270 163 94 197 114 380 217 44 25 107 61 140 81
171 99 410 237 780 449 226 130 457 263 515 296 57 34 106 59 108 57 2 -2 -27
-46 -66 -98z m6218 -140 c135 -77 290 -165 345 -197 341 -196 584 -335 613
-351 17 -11 47 -27 65 -38 42 -24 301 -173 347 -199 19 -11 179 -103 355 -204
176 -101 349 -201 385 -222 80 -48 74 -44 360 -208 129 -74 350 -202 490 -283
140 -81 356 -207 480 -278 124 -72 295 -171 380 -220 85 -49 211 -122 280
-162 69 -40 240 -139 380 -220 140 -82 363 -211 495 -287 132 -77 247 -143
255 -149 8 -5 71 -41 140 -80 69 -40 211 -121 315 -182 105 -60 250 -143 323
-185 73 -41 130 -77 127 -80 -10 -10 -345 -31 -670 -42 -424 -15 -936 4 -1515
55 -927 82 -1198 120 -1583 224 -62 17 -173 42 -247 56 -314 61 -629 156
-1011 304 l-106 41 -27 133 c-28 134 -116 495 -142 577 -113 370 -142 457
-217 655 -214 566 -517 1139 -860 1627 -26 37 -47 70 -47 73 0 8 6 4 290 -158z
m-1842 -1315 c103 -103 230 -225 282 -271 52 -46 109 -96 125 -110 67 -59 247
-203 352 -282 272 -203 431 -309 718 -476 117 -69 458 -253 468 -253 2 0 63
-27 133 -61 147 -70 349 -157 509 -220 61 -23 111 -43 113 -44 7 -5 55 -279
82 -465 28 -199 47 -380 72 -700 19 -243 16 -1188 -5 -1475 -57 -775 -144
-1403 -283 -2050 -49 -230 -137 -585 -144 -585 -6 0 -151 390 -287 770 -43
120 -174 476 -219 597 -19 50 -39 104 -44 120 -7 25 -126 349 -322 883 -34 91
-69 188 -79 215 -9 28 -69 194 -134 370 -219 603 -237 650 -260 715 -23 63
-80 221 -183 500 -28 75 -71 192 -95 260 -25 69 -96 265 -158 435 -62 171
-119 328 -126 350 -8 22 -53 146 -100 275 -46 129 -107 296 -133 370 -27 74
-105 290 -174 480 -68 190 -156 433 -194 540 -38 107 -79 219 -91 248 -11 28
-18 52 -15 52 3 0 90 -84 192 -188z m-2494 21 c26 -353 105 -852 192 -1212
148 -619 408 -1285 723 -1856 65 -116 71 -132 61 -155 -35 -77 -370 -599 -516
-805 -508 -711 -1081 -1355 -1743 -1955 -52 -47 -99 -90 -105 -95 -9 -9 -169
-147 -336 -289 -21 -18 -110 -91 -344 -281 -116 -94 -531 -402 -534 -396 -1 4
15 56 37 117 62 172 240 662 267 734 61 165 258 701 274 750 10 30 28 80 40
110 12 30 27 73 35 95 7 22 61 171 120 330 58 160 127 346 152 415 108 301
125 347 138 380 8 19 39 105 70 190 31 85 83 227 115 315 100 272 432 1189
441 1215 4 14 19 57 34 95 14 39 85 232 156 430 72 198 166 457 209 575 43
118 110 305 150 415 39 110 96 268 125 350 30 83 92 255 137 382 46 128 86
233 89 233 3 0 9 -39 13 -87z m-233 19 c-5 -9 -84 -224 -175 -477 -92 -253
-177 -489 -190 -525 -39 -105 -70 -193 -146 -405 -129 -363 -269 -749 -429
-1185 -33 -91 -140 -381 -236 -645 -156 -424 -323 -874 -498 -1335 -30 -80
-109 -302 -175 -495 -241 -700 -469 -1328 -558 -1530 -26 -61 -30 -71 -84
-204 -27 -69 -50 -126 -50 -128 0 -2 -4 -3 -9 -3 -5 0 -18 42 -29 93 -63 279
-84 379 -116 542 -305 1571 -358 3121 -146 4295 29 160 37 201 42 205 2 2 53
24 113 49 165 67 243 100 318 135 37 17 69 31 71 31 9 0 329 158 436 215 151
81 148 79 405 228 133 77 440 284 600 404 277 209 454 362 690 598 146 146
191 183 166 137z m2441 -144 c14 -40 44 -122 66 -183 22 -60 68 -186 102 -280
130 -356 242 -663 275 -750 19 -49 52 -142 75 -205 47 -130 90 -247 183 -500
85 -230 179 -487 293 -800 212 -587 382 -1054 489 -1345 135 -369 355 -977
424 -1171 27 -77 76 -213 109 -304 120 -327 364 -1006 382 -1060 10 -30 34
-100 54 -154 20 -54 35 -102 34 -106 -5 -11 -342 241 -583 435 -34 28 -76 61
-94 75 -18 14 -38 30 -44 35 -7 6 -52 44 -102 85 -77 63 -276 234 -311 265 -6
6 -55 51 -110 100 -339 309 -756 728 -925 929 -13 16 -31 36 -39 45 -36 37
-162 184 -251 291 -158 192 -180 219 -233 289 -28 37 -69 92 -92 122 -115 153
-248 339 -321 449 -12 19 -26 40 -31 45 -48 61 -362 569 -362 585 0 6 42 94
94 198 139 278 282 586 336 727 13 33 31 78 41 100 31 70 95 245 152 415 164
484 269 962 322 1460 8 80 17 163 20 185 2 22 4 52 4 68 1 45 15 31 43 -45z
m3503 -1802 c249 -79 308 -95 571 -160 777 -193 1486 -296 2454 -356 450 -29
1298 -23 1848 12 123 7 186 8 193 1 10 -10 245 -515 299 -643 15 -36 64 -150
110 -255 91 -210 112 -260 242 -580 164 -405 318 -815 458 -1225 54 -157 110
-316 124 -355 102 -267 122 -542 91 -1210 -12 -250 -15 -720 -15 -2412 0
-1157 -3 -2103 -6 -2103 -6 0 -26 11 -179 97 -163 92 -525 292 -640 353 -33
18 -91 49 -130 70 -115 61 -215 115 -305 162 -449 238 -463 245 -935 488 -99
51 -234 121 -300 155 -66 34 -210 108 -320 165 -110 56 -227 117 -260 135 -33
18 -127 67 -210 110 -164 85 -358 186 -475 248 -41 21 -122 64 -180 94 -58 31
-118 64 -135 73 -16 10 -66 37 -110 60 -132 70 -203 109 -355 193 -177 98
-512 286 -600 337 -36 21 -132 77 -215 125 -166 97 -439 261 -555 335 -41 26
-138 87 -215 135 -308 194 -912 606 -921 629 -2 6 25 131 60 276 81 332 190
881 236 1185 49 334 62 428 89 675 67 602 86 937 86 1555 0 489 -7 651 -41
1030 -16 180 -68 590 -84 658 -5 23 -7 44 -5 48 3 4 46 -8 97 -27 51 -18 156
-53 233 -78z m-8947 -43 c-74 -508 -108 -1021 -108 -1638 0 -374 17 -832 40
-1110 56 -663 118 -1108 231 -1668 50 -246 74 -343 133 -530 48 -155 71 -273
61 -319 -4 -15 -24 -43 -45 -62 -54 -49 -491 -338 -700 -463 -183 -111 -328
-205 -395 -258 -84 -67 -265 -183 -380 -245 -205 -109 -548 -302 -575 -325
-33 -27 -228 -153 -275 -178 -27 -14 -79 -39 -115 -55 -36 -16 -95 -48 -133
-70 -37 -23 -69 -42 -72 -42 -10 0 -227 -96 -320 -141 -108 -52 -346 -183
-497 -272 -492 -291 -747 -427 -800 -427 -42 0 -111 -33 -218 -102 -125 -81
-165 -103 -265 -143 -122 -50 -374 -177 -775 -392 -215 -116 -359 -191 -600
-316 -150 -77 -351 -188 -430 -237 -119 -73 -440 -250 -455 -250 -3 0 -5 920
-5 2043 0 1703 -3 2109 -16 2433 -16 392 -14 681 7 846 6 52 23 115 45 168 65
158 92 234 188 525 118 361 330 960 421 1190 13 33 57 146 98 250 133 339 291
716 377 899 22 48 40 88 40 90 0 2 23 53 51 112 28 60 61 130 73 156 l21 47
55 0 c30 0 163 -6 295 -14 517 -32 1278 -29 1830 5 1001 63 1881 208 2655 436
93 28 436 143 515 173 28 10 52 15 55 10 3 -4 -2 -61 -12 -126z m15322 -653
c0 -187 -3 -340 -8 -340 -4 0 -16 6 -27 13 -11 8 -60 36 -110 62 -272 146
-599 338 -788 462 l-72 48 60 2 c105 4 303 23 550 53 303 37 302 36 353 38
l42 2 0 -340z m-21803 290 c312 -34 648 -70 656 -70 35 0 -89 -89 -303 -217
-88 -52 -559 -313 -566 -313 -2 0 -4 140 -4 310 0 302 0 310 20 310 11 0 100
-9 197 -20z m777 -326 c-20 -49 -60 -147 -89 -219 -29 -71 -87 -213 -129 -315
-319 -768 -551 -1373 -711 -1853 -45 -136 -53 -153 -59 -126 -3 17 -6 481 -6
1029 l0 998 108 62 c59 35 211 122 337 195 127 72 275 158 330 190 211 123
250 144 253 136 1 -4 -14 -48 -34 -97z m20125 0 c127 -68 135 -72 426 -242
377 -220 409 -238 443 -258 l32 -18 0 -991 -1 -990 -38 100 c-22 55 -98 258
-171 450 -135 359 -171 454 -195 515 -8 19 -61 157 -119 305 -58 149 -123 313
-144 365 -22 52 -60 145 -85 205 -25 61 -78 182 -117 270 -99 223 -99 223
-131 288 -15 31 -23 57 -17 57 6 0 59 -25 117 -56z m-9976 -947 c128 -193 197
-293 284 -416 55 -78 333 -450 374 -501 16 -19 81 -100 145 -180 476 -590 964
-1093 1529 -1576 226 -193 719 -593 994 -807 69 -54 133 -103 141 -110 8 -7
28 -21 45 -31 16 -11 49 -39 73 -64 l44 -44 -6 -72 c-8 -79 -12 -96 -66 -276
-40 -132 -54 -179 -120 -405 -22 -77 -45 -151 -50 -165 -5 -14 -25 -79 -45
-145 -21 -66 -52 -163 -70 -215 -18 -52 -36 -106 -40 -120 -33 -116 -425
-1180 -484 -1315 -5 -11 -42 -103 -81 -205 -39 -102 -82 -210 -95 -240 -13
-30 -56 -136 -95 -235 -108 -269 -142 -354 -214 -530 l-65 -160 -2318 -2
c-1275 -2 -2323 1 -2329 5 -7 4 -51 104 -99 222 -48 118 -97 240 -110 270
-318 778 -696 1810 -915 2500 -144 453 -311 1029 -310 1070 1 8 50 51 110 95
61 44 148 109 193 145 46 36 99 76 117 90 19 14 79 61 135 104 440 348 772
631 1115 951 95 88 552 545 646 645 279 298 638 731 853 1030 106 147 134 187
245 355 139 210 164 249 256 403 41 67 76 122 80 122 3 0 63 -87 133 -193z
m4367 -4222 c717 -475 1375 -861 2595 -1520 87 -47 415 -219 590 -310 83 -43
186 -97 230 -120 83 -44 258 -135 580 -300 105 -54 226 -117 270 -140 44 -23
161 -84 260 -135 328 -169 470 -243 480 -250 6 -4 70 -38 144 -75 74 -38 168
-87 210 -110 42 -23 137 -73 211 -112 74 -38 205 -108 290 -155 85 -47 229
-126 320 -175 269 -147 300 -164 305 -173 8 -13 -2138 -22 -3875 -15 -921 3
-1675 7 -1676 8 0 1 -6 16 -12 32 -5 17 -49 136 -97 265 -47 129 -116 316
-152 415 -98 269 -125 343 -198 540 -36 99 -95 261 -131 360 -36 99 -116 320
-179 490 -150 409 -352 969 -425 1175 -32 91 -95 266 -139 389 -45 123 -81
228 -81 232 0 5 39 -18 88 -52 48 -34 224 -152 392 -264z m-8584 224 c-3 -16
-41 -125 -85 -242 -43 -117 -129 -351 -190 -522 -62 -170 -119 -326 -126 -345
-18 -45 -146 -397 -240 -660 -41 -113 -88 -243 -105 -290 -17 -47 -42 -114
-55 -150 -12 -36 -40 -110 -60 -165 -20 -55 -56 -154 -80 -220 -24 -66 -56
-156 -73 -200 -16 -44 -57 -154 -90 -245 -160 -439 -284 -756 -299 -768 -13
-9 -575 -12 -2730 -12 -1623 0 -2713 4 -2713 9 0 8 83 57 340 201 102 57 509
278 635 345 50 26 108 58 130 70 22 12 92 49 155 82 63 33 149 78 190 100 125
67 334 175 545 283 110 56 236 122 280 145 44 23 161 84 260 135 177 91 338
174 545 282 58 30 186 97 285 148 99 51 194 101 210 110 17 10 75 41 130 70
55 29 159 84 230 123 72 38 164 87 205 109 41 23 89 48 105 58 17 10 64 35
105 57 344 184 1183 670 1445 838 28 18 113 72 190 120 156 98 649 427 765
510 88 64 105 68 96 24z m229 -1 c3 -18 10 -44 15 -58 5 -14 30 -95 55 -180
25 -85 50 -166 55 -180 5 -14 32 -99 60 -190 169 -541 550 -1622 773 -2190 14
-36 55 -144 92 -240 91 -240 103 -271 178 -460 99 -250 117 -301 111 -311 -3
-5 -567 -9 -1365 -9 -1113 0 -1361 3 -1365 13 -4 12 90 303 186 572 17 50 58
164 90 255 32 91 82 228 110 305 29 77 67 183 85 235 18 52 49 138 68 190 88
241 191 521 252 685 68 182 115 310 187 510 22 61 46 126 54 145 22 58 207
573 274 763 35 97 67 177 71 177 4 0 10 -15 14 -32z m7715 -31 c0 -1 8 -25 19
-52 115 -311 154 -415 166 -445 8 -19 64 -170 125 -335 61 -165 117 -316 124
-335 16 -42 411 -1128 454 -1250 17 -47 74 -204 126 -350 53 -146 124 -341
157 -435 33 -93 69 -192 79 -220 10 -27 42 -117 71 -198 43 -123 50 -150 38
-158 -16 -10 -2684 -8 -2694 3 -4 4 19 73 51 154 71 178 71 178 168 429 42
110 86 220 97 245 37 87 281 727 404 1065 100 273 305 882 394 1170 62 201
162 548 191 663 8 28 17 52 22 52 4 0 8 -1 8 -3z"/>
<path d="M548 29468 c-14 -11 -17 -43 -22 -208 -3 -107 -10 -247 -15 -310 -13
-150 0 -276 36 -345 35 -67 111 -161 257 -315 150 -158 344 -385 586 -685 154
-190 403 -487 475 -565 43 -47 121 -134 173 -195 52 -60 104 -121 116 -135 30
-35 314 -385 356 -440 19 -25 37 -47 40 -50 3 -3 32 -39 65 -80 83 -104 319
-385 374 -444 104 -112 244 -256 250 -256 3 0 4 291 2 647 -3 693 3 970 49
2123 16 404 34 850 39 990 7 172 7 258 0 265 -6 6 -475 11 -1387 13 -1138 3
-1380 1 -1394 -10z m2598 -370 c-4 -106 -11 -281 -16 -388 -19 -369 -49 -1135
-56 -1395 -4 -143 -8 -267 -10 -275 -1 -8 -3 -262 -3 -563 l-1 -549 -57 59
c-321 331 -467 501 -1017 1191 -283 355 -422 525 -616 756 -110 131 -217 249
-381 421 -96 100 -192 209 -240 275 -54 73 -64 155 -44 360 9 91 13 185 9 228
l-6 72 1222 0 1223 0 -7 -192z"/>
<path d="M1172 28843 c8 -10 89 -112 179 -228 197 -253 676 -836 774 -941 5
-6 39 -44 75 -85 94 -107 237 -266 295 -329 28 -30 72 -77 97 -104 l45 -49 7
244 c3 134 13 375 21 534 15 287 35 821 35 923 l0 52 -772 0 c-733 0 -770 -1
-756 -17z m1268 -130 l122 -6 -6 -71 c-11 -121 -35 -629 -42 -888 -4 -137 -10
-248 -14 -248 -9 0 -221 224 -327 345 -61 70 -147 174 -413 499 -36 44 -116
140 -178 214 -62 74 -110 137 -107 140 18 18 711 29 965 15z"/>
<path d="M7335 29490 c-55 -4 -602 -9 -1215 -10 -613 -2 -1250 -6 -1415 -9
l-300 -6 -7 -115 c-45 -734 -63 -1081 -78 -1480 -6 -151 -12 -318 -15 -370 -8
-163 -27 -1391 -21 -1405 2 -7 6 -157 7 -332 3 -311 7 -439 29 -888 11 -227
38 -614 45 -651 4 -17 32 -29 177 -74 496 -151 978 -325 1463 -528 590 -246
1231 -571 1805 -915 193 -115 272 -165 557 -354 94 -62 176 -113 181 -113 5 0
13 16 16 35 15 78 133 481 216 735 228 696 531 1402 883 2055 38 72 84 157
102 190 54 101 259 454 327 565 96 155 231 372 304 485 35 55 64 106 64 113 0
23 -396 589 -450 642 -3 3 -25 32 -49 65 -118 160 -596 741 -740 900 -20 22
-102 117 -183 211 -81 95 -153 178 -160 185 -7 8 -56 64 -108 124 -51 61 -112
130 -134 155 -23 25 -63 72 -91 105 -42 50 -96 112 -140 161 -5 6 -26 30 -45
54 -322 399 -374 449 -491 469 -70 12 -370 12 -534 1z m422 -184 c68 -9 113
-20 136 -35 40 -25 121 -109 204 -214 46 -58 337 -399 378 -443 5 -6 21 -24
34 -40 14 -16 59 -68 100 -115 42 -47 91 -103 110 -125 19 -21 65 -75 104
-119 38 -44 83 -96 100 -115 17 -19 47 -53 66 -75 20 -22 56 -64 81 -94 25
-29 50 -59 55 -65 22 -23 284 -335 350 -416 38 -47 77 -94 87 -105 17 -20 131
-163 179 -226 15 -19 60 -77 101 -129 123 -158 396 -533 404 -555 3 -7 -20
-52 -50 -101 -421 -678 -707 -1194 -979 -1764 -292 -611 -550 -1281 -723
-1880 -25 -85 -47 -157 -50 -159 -3 -3 -11 -1 -19 4 -59 40 -454 287 -555 348
-157 93 -352 202 -582 326 -94 50 -615 311 -621 311 -3 0 -48 20 -101 45 -301
142 -696 307 -1076 450 -339 127 -374 139 -669 239 -156 53 -286 98 -288 100
-7 7 -41 573 -54 896 -15 386 -15 1508 0 2005 11 378 53 1422 71 1795 5 107
10 205 10 217 l0 22 1373 5 c754 3 1422 9 1482 14 170 13 232 13 342 -2z"/>
<path d="M7135 28870 c-66 -4 -578 -8 -1137 -9 l-1016 -1 -6 -62 c-5 -55 -24
-417 -41 -778 -31 -663 -47 -1649 -35 -2245 10 -500 26 -976 36 -1070 l5 -50
122 -38 c222 -70 720 -248 927 -332 36 -15 108 -44 160 -65 101 -41 360 -151
451 -192 324 -149 712 -338 869 -425 30 -16 100 -54 155 -83 106 -56 471 -265
538 -307 21 -13 40 -23 42 -21 2 2 36 98 75 213 204 594 451 1186 716 1715
196 389 464 859 611 1069 40 57 85 129 99 160 l27 56 -27 50 c-14 27 -66 97
-114 155 -48 58 -154 191 -235 295 -209 270 -461 585 -607 760 -107 128 -372
437 -405 471 -5 6 -53 58 -105 115 -52 57 -143 153 -202 214 -59 61 -143 158
-186 215 -82 109 -136 164 -181 182 -32 14 -366 19 -536 8z m445 -150 c49 -14
94 -53 217 -193 59 -67 112 -127 118 -133 15 -17 62 -70 135 -154 36 -41 67
-77 70 -80 3 -3 34 -39 70 -80 36 -41 77 -88 91 -105 15 -16 59 -68 99 -115
39 -47 95 -112 123 -144 29 -33 61 -71 72 -85 10 -14 22 -28 25 -31 9 -7 295
-357 491 -600 164 -203 459 -585 459 -594 0 -2 -31 -57 -68 -123 -220 -379
-382 -667 -465 -823 -21 -41 -54 -102 -72 -135 -55 -101 -249 -491 -322 -650
-168 -362 -363 -853 -448 -1127 -42 -133 -49 -143 -90 -114 -21 14 -320 180
-470 261 -105 57 -681 345 -689 345 -3 0 -38 16 -78 36 -172 83 -505 226 -813
348 -256 102 -314 123 -675 246 l-285 96 -6 110 c-3 60 -12 388 -19 729 -17
859 -1 1766 50 2850 5 121 12 230 15 243 l5 22 988 1 c543 1 1030 5 1082 9
114 10 341 4 390 -10z"/>
<path d="M7145 28299 c-77 -4 -474 -7 -882 -8 -587 -1 -743 -4 -743 -13 0 -7
-10 -227 -22 -488 -19 -414 -22 -602 -22 -1460 -1 -542 3 -1046 7 -1121 l9
-136 166 -57 c607 -208 1126 -429 1822 -774 217 -108 399 -196 403 -197 8 0
34 58 113 258 19 48 45 111 58 140 14 28 48 106 77 172 116 268 142 323 296
630 174 347 337 649 500 928 57 98 106 184 109 192 6 13 -58 105 -128 186 -13
15 -59 73 -103 129 -96 125 -509 620 -649 780 -56 63 -127 144 -158 180 -31
36 -77 88 -102 115 -25 28 -74 86 -108 129 -170 216 -203 255 -255 308 -30 32
-70 67 -88 78 -45 28 -133 36 -300 29z m244 -246 c24 -26 62 -68 85 -93 23
-25 116 -128 206 -230 91 -102 167 -187 170 -190 3 -3 35 -39 70 -80 35 -41
66 -77 69 -80 8 -6 267 -311 301 -354 13 -17 76 -94 140 -171 118 -142 328
-405 368 -460 l23 -31 -82 -149 c-45 -83 -95 -175 -112 -205 -339 -616 -599
-1149 -762 -1561 -31 -79 -59 -147 -61 -151 -3 -4 -68 25 -147 64 -536 266
-1156 536 -1682 732 -99 37 -202 76 -229 87 -27 10 -54 19 -61 19 -7 0 -15 6
-18 13 -20 52 -15 1849 7 2417 9 250 19 460 20 465 2 7 285 9 827 8 l824 -2
44 -48z"/>
<path d="M6645 27679 c-174 -21 -390 -28 -471 -16 l-51 7 -6 -92 c-18 -267
-28 -794 -25 -1392 l3 -669 90 -32 c162 -58 630 -248 790 -320 279 -127 590
-265 595 -265 4 0 25 39 45 88 105 243 274 579 583 1158 51 94 92 175 92 179
0 6 -171 218 -190 235 -3 3 -40 48 -82 100 -206 257 -410 498 -531 629 -37 40
-93 105 -124 145 -169 212 -203 238 -326 255 -107 15 -203 12 -392 -10z m420
-171 c39 -21 84 -68 291 -308 92 -107 171 -197 174 -200 13 -12 222 -265 380
-460 96 -118 178 -218 184 -222 9 -6 -15 -57 -94 -203 -15 -27 -50 -93 -77
-145 -28 -52 -72 -135 -98 -185 -54 -101 -235 -463 -235 -469 0 -2 -17 -42
-39 -88 -21 -45 -41 -91 -45 -102 -3 -10 -12 -16 -19 -13 -6 3 -115 51 -242
107 -126 56 -273 120 -325 142 -239 100 -338 141 -380 158 -25 9 -101 39 -169
65 l-123 49 6 890 c3 490 8 907 12 927 l6 36 121 12 c67 7 160 16 207 21 47 5
164 7 260 6 139 -1 181 -5 205 -18z"/>
<path d="M9538 29473 c-71 -2 -128 -7 -128 -11 0 -13 358 -467 473 -599 14
-15 68 -80 122 -143 53 -63 107 -126 119 -140 11 -14 62 -72 111 -130 49 -58
92 -107 95 -110 3 -3 61 -69 129 -147 68 -79 127 -143 131 -143 22 0 22 1390
0 1413 -8 9 -835 17 -1052 10z m882 -563 c0 -209 -3 -380 -7 -379 -5 0 -60 61
-123 135 -63 74 -126 147 -138 162 -13 15 -40 47 -60 71 -21 24 -45 53 -55 65
-10 11 -26 30 -35 41 -10 11 -61 72 -114 137 -53 64 -103 120 -110 124 -27 17
45 22 340 23 l302 1 0 -380z"/>
<path d="M11771 29470 c-74 -5 -139 -14 -145 -20 -13 -13 -16 -1373 -3 -1386
9 -9 13 -4 142 146 49 58 92 107 95 110 53 51 637 747 801 955 148 187 145
183 138 190 -10 9 -890 14 -1028 5z m659 -184 c0 -3 -36 -49 -79 -103 -204
-254 -366 -444 -479 -563 l-71 -75 -1 373 0 372 315 0 c173 0 315 -2 315 -4z"/>
<path d="M14375 29493 c-129 -17 -123 -13 -272 -167 -76 -78 -169 -178 -207
-221 -39 -42 -75 -83 -80 -89 -6 -6 -54 -61 -106 -121 -52 -61 -99 -115 -105
-121 -5 -6 -26 -30 -45 -54 -19 -25 -49 -60 -66 -80 -17 -19 -42 -48 -55 -64
-13 -16 -53 -63 -89 -105 -36 -42 -86 -101 -110 -131 -25 -30 -74 -89 -109
-130 -35 -41 -87 -102 -115 -135 -28 -32 -71 -82 -96 -110 -274 -310 -605
-737 -1017 -1313 -84 -117 -153 -220 -153 -227 0 -8 29 -61 65 -117 252 -395
528 -864 733 -1244 79 -147 324 -638 369 -739 197 -445 291 -674 390 -955 30
-85 60 -171 67 -190 42 -110 174 -552 231 -775 19 -77 37 -145 39 -151 3 -7
92 46 206 122 705 468 1443 865 2267 1220 183 79 714 291 823 329 36 13 137
49 225 80 156 55 468 159 612 205 l72 23 6 41 c5 43 25 359 47 746 8 151 13
556 13 1230 0 986 -4 1188 -40 1965 -8 171 -19 418 -25 550 -21 450 -36 694
-43 701 -4 4 -679 11 -1499 16 -821 5 -1585 11 -1698 12 -113 2 -218 2 -235
-1z m1881 -199 l1391 -5 7 -157 c4 -86 18 -391 31 -677 13 -286 30 -641 37
-790 8 -175 12 -652 12 -1360 0 -1015 -1 -1115 -22 -1450 -12 -198 -25 -393
-28 -432 l-7 -73 -116 -36 c-315 -98 -737 -244 -981 -339 -52 -20 -147 -57
-210 -82 -155 -60 -416 -170 -560 -235 -447 -205 -771 -368 -1210 -613 -176
-98 -600 -358 -753 -462 -43 -29 -81 -53 -86 -53 -5 0 -25 60 -45 133 -142
508 -352 1094 -550 1537 -132 295 -177 388 -311 655 -242 478 -519 962 -823
1438 -66 104 -74 120 -64 140 12 22 39 61 172 246 41 57 100 138 130 180 94
131 365 485 457 597 49 59 99 121 113 138 21 27 75 91 161 191 14 16 48 55 75
85 27 31 74 84 104 120 30 35 71 82 90 104 20 23 69 81 110 131 41 49 85 101
96 115 12 14 72 86 134 160 184 222 418 486 564 637 173 180 153 173 481 167
116 -2 836 -6 1601 -10z"/>
<path d="M14343 28663 c-98 -109 -205 -227 -238 -263 -33 -36 -87 -97 -120
-135 -33 -37 -65 -73 -70 -79 -6 -6 -69 -78 -140 -161 -71 -82 -156 -181 -190
-220 -34 -38 -131 -153 -216 -255 -84 -102 -156 -187 -159 -190 -3 -3 -32 -39
-65 -80 -33 -41 -67 -84 -77 -95 -197 -240 -588 -752 -588 -771 0 -7 43 -84
96 -171 53 -87 121 -201 152 -253 119 -206 202 -351 235 -412 277 -507 490
-947 685 -1408 92 -217 276 -711 334 -896 11 -36 23 -64 27 -62 3 2 110 62
236 134 410 235 823 445 1320 674 399 183 1036 432 1555 608 l145 49 7 59 c3
33 14 264 23 514 21 571 16 1996 -9 2525 -18 380 -53 980 -62 1043 l-5 42
-1349 0 -1349 0 -178 -197z m2617 49 l145 -7 7 -195 c67 -1825 73 -2663 26
-3503 -6 -119 -14 -221 -18 -226 -3 -5 -113 -45 -245 -89 -237 -79 -645 -228
-813 -298 -48 -20 -123 -51 -167 -69 -111 -46 -375 -161 -532 -234 -135 -62
-710 -347 -728 -361 -5 -4 -59 -33 -120 -65 -94 -50 -266 -147 -396 -224 l-36
-21 -43 122 c-309 896 -606 1520 -1274 2676 -58 101 -106 186 -106 189 0 5
148 206 242 328 57 74 207 267 226 290 10 11 35 42 57 70 22 27 63 77 90 111
28 33 64 78 80 99 17 21 35 43 40 49 6 6 28 34 50 61 21 28 42 52 45 55 3 3
41 48 85 100 44 52 91 109 106 125 15 17 46 53 70 81 37 42 85 97 179 204 13
15 108 120 192 213 16 17 77 90 136 162 59 71 156 180 215 242 93 95 115 113
150 121 47 9 2110 4 2337 -6z"/>
<path d="M14770 28283 c0 -5 -19 -28 -43 -53 -23 -25 -78 -86 -122 -135 -44
-50 -101 -112 -126 -140 -26 -27 -135 -151 -244 -275 -275 -313 -295 -337
-355 -410 -30 -36 -57 -67 -60 -70 -4 -3 -76 -90 -161 -195 -247 -304 -489
-620 -489 -638 0 -5 23 -48 52 -96 28 -47 75 -124 103 -171 159 -263 491 -897
628 -1200 8 -19 41 -91 72 -160 31 -69 109 -249 172 -400 63 -151 118 -278
122 -283 4 -4 36 9 72 28 298 164 1025 507 1319 623 41 17 127 51 190 77 144
59 551 212 696 261 60 20 115 43 123 50 12 10 15 143 19 791 5 797 -6 1481
-33 2053 -8 168 -15 315 -15 328 l0 22 -960 0 c-528 0 -960 -3 -960 -7z m1742
-205 c26 -86 52 -1327 44 -2111 -7 -679 -10 -767 -32 -767 -14 0 -271 -87
-424 -143 -243 -89 -684 -274 -930 -389 -36 -17 -126 -59 -200 -93 -74 -35
-180 -84 -235 -110 -55 -26 -151 -72 -214 -101 l-114 -53 -84 197 c-47 108
-103 235 -125 282 -22 47 -49 108 -60 135 -28 73 -334 686 -425 855 -110 202
-119 218 -233 407 -90 148 -100 170 -89 188 25 40 359 457 533 665 214 256
721 838 776 890 8 8 48 51 87 95 l71 80 824 -2 823 -3 7 -22z"/>
<path d="M14788 27367 c-147 -166 -275 -311 -285 -323 -10 -12 -43 -49 -73
-84 -79 -90 -75 -86 -187 -221 -129 -157 -323 -409 -323 -421 0 -5 31 -62 68
-126 97 -165 143 -252 287 -542 309 -623 364 -730 374 -730 5 0 73 29 152 66
79 36 180 81 224 100 44 20 109 49 145 65 168 75 559 234 830 337 l105 40 8
143 c8 144 3 1152 -9 1707 l-7 292 -521 0 -521 -1 -267 -302z m1156 -77 c3
-124 11 -389 18 -590 10 -345 6 -884 -8 -996 l-7 -52 -106 -48 c-58 -26 -146
-64 -196 -84 -113 -47 -402 -166 -518 -214 -142 -58 -298 -126 -361 -158 -32
-16 -59 -28 -61 -26 -2 2 -31 66 -65 143 -77 176 -210 445 -317 643 -46 84
-83 155 -83 157 0 2 -13 26 -28 52 -16 26 -45 80 -66 120 l-38 72 48 63 c102
133 387 483 414 508 3 3 57 64 120 135 110 125 298 335 309 345 3 3 33 37 66
75 33 39 63 72 66 75 4 3 187 5 407 5 l400 0 6 -225z"/>
<path d="M18870 29456 c-8 -17 -11 -44 -6 -88 6 -65 28 -491 46 -913 20 -468
39 -1138 50 -1750 6 -341 15 -773 18 -960 l7 -339 80 90 c141 159 401 457 530
610 28 32 66 77 86 99 19 22 109 128 199 235 90 107 167 197 170 200 3 3 49
57 100 120 52 63 101 122 109 130 8 8 58 67 110 130 53 63 103 124 113 135 37
43 57 68 158 190 58 70 165 200 239 289 200 241 198 238 345 416 76 91 143
172 149 180 7 8 80 97 164 197 l151 182 7 273 c4 150 3 343 -2 428 l-8 155
-230 6 c-126 4 -757 7 -1401 8 l-1171 1 -13 -24z m2633 -229 c-3 -34 0 -117 6
-183 15 -154 16 -309 2 -361 -16 -59 -52 -107 -198 -260 -72 -76 -142 -151
-154 -168 -13 -16 -26 -32 -29 -35 -35 -33 -529 -630 -825 -996 -44 -54 -82
-101 -85 -104 -3 -3 -26 -30 -51 -60 -157 -190 -347 -419 -365 -440 -12 -14
-77 -90 -145 -170 -68 -80 -136 -158 -151 -175 -15 -16 -96 -107 -180 -202
-84 -94 -157 -170 -163 -169 -6 2 -11 120 -12 322 -5 620 -29 1405 -73 2454
-11 256 -20 498 -20 538 l0 72 1225 0 1224 0 -6 -63z"/>
<path d="M19848 28863 l-316 -3 -7 -118 c-10 -149 0 -677 20 -1027 8 -148 18
-359 21 -467 4 -109 11 -198 15 -198 4 0 12 6 16 14 4 8 22 29 38 48 17 18 55
62 85 98 30 36 57 67 60 70 3 3 102 118 219 255 118 138 226 264 240 280 14
17 85 100 156 185 71 85 132 157 135 160 5 4 92 111 123 150 7 8 60 74 118
145 58 72 127 159 154 195 27 36 52 67 55 70 10 9 101 130 98 131 -34 9 -810
17 -1230 12z m918 -158 c-7 -18 -262 -347 -365 -470 -213 -255 -409 -482 -613
-710 -14 -16 -36 -41 -47 -54 -35 -40 -31 -71 -56 410 -15 280 -20 751 -9 808
l7 31 544 0 c478 0 544 -2 539 -15z"/>
<path d="M21595 26878 c-39 -45 -90 -107 -115 -138 -83 -102 -484 -574 -510
-600 -3 -3 -22 -26 -43 -52 -21 -26 -44 -53 -51 -60 -21 -22 -344 -406 -536
-639 -102 -123 -216 -260 -255 -305 -107 -123 -146 -172 -193 -238 -43 -60
-86 -136 -78 -136 2 0 98 18 213 40 114 22 249 46 298 54 50 8 164 28 255 44
91 17 181 32 200 36 63 10 541 94 726 127 l182 33 7 565 c9 650 -4 1351 -24
1351 -3 0 -38 -37 -76 -82z m-90 -480 c3 -46 5 -337 3 -648 l-3 -565 -35 -6
c-51 -9 -491 -83 -740 -124 -118 -20 -277 -48 -352 -64 -76 -16 -138 -25 -138
-22 0 14 315 399 649 796 84 99 252 300 374 447 122 146 225 267 229 267 3 1
9 -36 13 -81z"/>
<path d="M527 26653 c-8 -339 -7 -1097 2 -1408 l6 -220 185 -32 c102 -17 257
-43 345 -57 248 -40 854 -151 1120 -205 132 -27 242 -47 243 -46 3 3 -183 242
-198 255 -3 3 -22 26 -41 51 -36 48 -115 144 -354 433 -82 100 -188 229 -235
286 -47 58 -87 107 -91 110 -3 3 -68 79 -145 170 -76 91 -148 176 -160 190
-12 14 -97 113 -189 220 -233 272 -469 539 -476 539 -3 1 -9 -128 -12 -286z
m274 -278 c368 -421 1148 -1365 1166 -1411 5 -12 1 -15 -13 -11 -53 16 -938
172 -1119 197 -38 6 -82 13 -97 16 l-28 6 0 654 0 655 33 -38 c17 -21 44 -51
58 -68z"/>
<path d="M10543 24492 c-18 -37 -65 -130 -105 -207 -139 -265 -359 -740 -438
-945 -213 -553 -330 -904 -424 -1270 -25 -96 -63 -245 -85 -330 -45 -172 -51
-239 -22 -285 24 -40 98 -113 201 -198 160 -133 319 -305 581 -628 161 -199
209 -256 271 -323 26 -28 48 -54 48 -58 0 -5 6 -8 14 -8 11 0 15 216 21 1359
7 1259 4 1829 -11 2644 -4 174 -9 317 -13 317 -3 -1 -20 -31 -38 -68z m-125
-2342 l1 -1425 -52 56 c-29 31 -79 87 -112 125 -152 175 -249 273 -349 358
-99 82 -186 170 -223 224 -37 52 -38 57 -36 132 3 130 56 316 274 970 149 446
303 842 435 1115 l49 100 6 -115 c3 -63 7 -756 7 -1540z"/>
<path d="M11617 24013 c-9 -669 -9 -2535 0 -3233 l6 -544 30 35 c16 19 116
142 223 274 326 404 513 612 639 711 118 93 197 172 220 221 28 58 22 91 -86
503 -111 421 -264 890 -429 1310 -65 167 -104 259 -217 515 -48 107 -219 450
-275 550 -74 131 -100 175 -102 175 -2 0 -6 -233 -9 -517z m248 -353 c165
-329 321 -754 574 -1560 97 -307 112 -372 113 -470 2 -108 -17 -137 -147 -230
-68 -48 -165 -145 -269 -270 -39 -47 -75 -90 -81 -96 -5 -6 -49 -56 -98 -112
-48 -55 -103 -112 -122 -127 l-35 -26 0 1500 c0 826 2 1501 5 1501 3 0 30 -49
60 -110z"/>
<path d="M21605 23969 c-16 -4 -118 -20 -225 -34 -193 -26 -606 -92 -744 -119
-39 -8 -111 -22 -161 -31 -171 -31 -450 -86 -565 -111 -63 -14 -167 -36 -230
-50 -218 -48 -834 -199 -850 -209 -10 -6 -10 -9 -50 -305 -95 -689 -250 -1453
-429 -2105 -173 -631 -439 -1382 -654 -1845 -72 -156 -97 -213 -94 -216 2 -2
77 -11 168 -19 1121 -105 2266 -382 3638 -879 165 -60 268 -93 274 -87 11 11
24 5912 13 5955 -7 27 -40 67 -53 65 -5 -1 -21 -5 -38 -10z m-121 -296 c22
-334 29 -1173 27 -3233 -1 -1223 -3 -2225 -4 -2227 -2 -1 -143 45 -313 102
-259 87 -624 203 -799 254 -370 109 -415 121 -755 206 -564 142 -967 219
-1564 300 -61 8 -129 15 -152 15 -45 0 -62 13 -46 33 5 7 28 59 52 117 23 58
48 119 56 135 48 106 211 551 303 825 82 242 207 666 271 915 10 39 28 106 40
150 46 173 169 734 218 995 34 176 110 645 135 828 13 95 26 175 29 177 7 7
146 47 331 94 426 110 984 220 1722 341 198 32 371 61 385 63 60 10 57 14 64
-90z"/>
<path d="M20890 23248 c-274 -46 -655 -116 -835 -154 -433 -91 -656 -143 -671
-158 -6 -6 -28 -105 -48 -221 -51 -289 -136 -712 -203 -1005 -30 -135 -63
-281 -73 -325 -118 -520 -335 -1269 -519 -1794 -28 -80 -48 -148 -44 -151 5
-4 73 -17 153 -29 541 -82 1172 -229 1915 -446 88 -25 229 -66 312 -91 84 -24
164 -49 179 -54 l26 -10 -6 2167 c-5 1888 -8 2293 -19 2298 -1 0 -76 -12 -167
-27z m45 -775 c8 -646 2 -3450 -8 -3459 -2 -3 -27 2 -53 10 -154 49 -425 129
-524 155 -63 17 -167 45 -230 62 -282 76 -907 216 -1308 294 -147 28 -145 -19
-15 377 62 188 131 408 154 488 22 80 54 188 69 240 55 186 182 696 235 945
14 66 30 138 36 160 22 93 127 637 149 775 23 147 50 284 57 291 28 26 717
174 1163 250 155 26 226 37 246 38 l22 1 7 -627z"/>
<path d="M20429 22596 c-3 -3 -130 -30 -284 -61 -154 -31 -283 -59 -286 -63
-4 -4 -12 -43 -19 -87 -15 -101 -88 -467 -136 -690 -20 -93 -43 -201 -50 -239
-8 -38 -53 -225 -99 -415 -106 -429 -191 -741 -296 -1085 -11 -37 -17 -71 -12
-75 8 -7 39 -15 498 -121 143 -33 372 -88 508 -121 136 -34 250 -60 252 -57 7
7 7 2962 0 2979 -9 23 -63 47 -76 35z m-115 -347 c9 -132 12 -2426 4 -2435 -5
-4 -50 5 -203 41 -33 8 -112 26 -175 40 -241 55 -455 108 -462 114 -4 3 20
107 53 231 87 329 232 909 295 1185 51 224 164 767 179 862 6 39 9 43 43 49
20 4 82 17 137 29 55 13 105 22 110 21 6 -2 14 -63 19 -137z"/>
<path d="M537 23952 c-16 -20 -17 -5986 -1 -6002 7 -7 89 20 265 86 710 267
1459 493 2129 640 136 30 509 104 595 118 50 8 131 22 180 30 230 38 455 69
745 101 80 9 146 18 148 19 2 3 -60 144 -77 176 -22 40 -156 364 -243 585
-145 370 -336 968 -467 1460 -158 593 -291 1257 -391 1940 -46 317 -41 298
-75 307 -359 100 -1168 279 -1639 363 -47 8 -125 22 -173 31 -220 39 -577 98
-771 128 -186 28 -214 30 -225 18z m407 -232 c584 -84 1151 -189 1661 -306
261 -60 615 -150 623 -159 2 -1 21 -126 42 -276 109 -766 258 -1480 450 -2154
160 -564 387 -1191 598 -1657 35 -77 38 -72 -63 -83 -302 -32 -1036 -163
-1460 -261 -256 -59 -590 -146 -795 -206 -74 -22 -164 -48 -200 -57 -179 -50
-908 -298 -1072 -366 -17 -7 -18 129 -18 2774 0 2464 2 2781 15 2781 8 0 107
-13 219 -30z"/>
<path d="M1140 21037 l0 -2224 343 99 c188 54 392 111 452 128 61 16 153 41
205 55 451 124 1058 258 1455 320 61 10 113 21 118 24 4 4 -3 36 -17 72 -72
194 -197 573 -290 879 -158 522 -331 1230 -436 1785 -43 225 -50 265 -85 490
-20 127 -40 237 -44 245 -13 27 -457 131 -871 205 -113 20 -338 61 -501 91
-163 29 -304 54 -313 54 -15 0 -16 -180 -16 -2223z m252 2037 c40 -8 107 -22
148 -29 138 -26 524 -96 575 -105 109 -19 268 -53 431 -92 l170 -41 48 -286
c58 -348 71 -418 148 -781 55 -263 174 -756 218 -910 11 -36 32 -112 48 -170
100 -356 287 -960 339 -1096 4 -11 -3 -13 -262 -64 -522 -102 -1118 -248
-1753 -429 -117 -34 -214 -61 -217 -61 -8 0 -6 4066 2 4073 9 10 23 9 105 -9z"/>
<path d="M1710 21077 l0 -1504 118 28 c132 30 418 98 822 194 151 35 283 65
292 65 27 0 29 14 9 76 -27 82 -89 286 -111 364 -78 280 -111 405 -182 690
-44 179 -86 354 -93 390 -11 56 -66 318 -136 640 -11 52 -35 173 -54 268 -18
95 -35 174 -37 176 -5 3 -399 86 -488 102 -41 7 -90 14 -107 14 l-33 0 0
-1503z m372 1261 c108 -23 102 -18 123 -123 116 -588 424 -1871 525 -2188 7
-20 6 -29 -3 -32 -7 -3 -167 -41 -357 -85 -190 -44 -372 -87 -404 -95 -32 -8
-62 -13 -65 -11 -9 6 -7 2539 3 2554 9 15 27 14 178 -20z"/>
<path d="M16675 22704 c-16 -7 -95 -41 -175 -75 -80 -33 -167 -71 -195 -84
-27 -13 -114 -53 -192 -89 -419 -194 -960 -490 -1380 -757 -223 -142 -577
-381 -659 -445 -95 -73 -180 -165 -187 -200 -2 -13 2 -66 9 -116 30 -202 57
-685 58 -1043 0 -192 -3 -383 -7 -424 -7 -62 -6 -72 5 -60 7 8 58 66 113 129
55 63 102 117 105 120 6 5 198 227 285 330 71 84 279 325 285 330 3 3 68 79
145 170 76 91 141 167 144 170 7 6 51 58 106 125 22 27 67 81 101 120 117 136
733 878 854 1029 14 17 94 117 179 221 86 105 202 249 259 320 57 72 120 150
141 175 62 75 63 81 6 54z m-583 -467 c-52 -69 -474 -599 -588 -738 -192 -234
-506 -611 -539 -645 -5 -6 -30 -35 -55 -65 -102 -121 -407 -475 -438 -509 -13
-14 -89 -100 -170 -192 -80 -93 -149 -168 -153 -168 -11 0 -19 117 -19 272 0
169 -10 281 -46 487 -28 169 -31 278 -8 327 24 51 91 106 285 233 97 64 183
121 191 126 452 305 803 513 1273 756 121 63 229 119 240 125 24 13 40 7 27
-9z"/>
<path d="M5541 22662 c7 -19 369 -448 445 -526 12 -13 253 -301 305 -366 20
-25 57 -70 81 -100 24 -30 89 -109 144 -176 54 -66 160 -194 234 -285 74 -90
254 -305 400 -478 146 -172 281 -332 300 -355 144 -171 575 -664 735 -842 l80
-89 0 480 c0 487 3 552 46 938 18 157 19 190 8 204 -16 19 -286 231 -419 329
-355 262 -894 599 -1215 761 -33 16 -105 53 -160 81 -256 130 -532 254 -810
364 -82 33 -156 62 -164 65 -8 4 -12 1 -10 -5z m747 -517 c556 -249 1150 -613
1757 -1076 115 -87 107 -76 96 -150 -31 -197 -61 -595 -61 -814 l-1 -160 -67
70 c-65 68 -160 174 -292 325 -36 41 -83 95 -105 120 -23 25 -65 74 -95 110
-30 36 -57 67 -61 70 -5 5 -326 391 -395 475 -154 190 -670 809 -813 978 -51
59 -90 107 -88 107 2 0 58 -25 125 -55z"/>
<path d="M4680 22004 c0 -16 85 -372 136 -574 221 -857 546 -1688 914 -2337
l75 -131 65 -7 c613 -60 960 -108 1329 -181 123 -25 225 -43 227 -42 1 2 -67
89 -152 193 -85 105 -199 244 -252 310 -53 66 -101 125 -107 131 -5 6 -26 31
-46 55 -219 265 -344 415 -348 419 -3 3 -35 41 -71 85 -35 44 -67 82 -70 85
-3 3 -50 59 -105 125 -55 66 -104 125 -110 131 -5 6 -25 29 -43 52 -18 22 -45
53 -58 69 -14 15 -42 48 -62 73 -20 25 -62 74 -93 110 -31 36 -121 142 -200
236 -79 94 -274 325 -434 514 -159 188 -355 419 -433 514 -134 160 -162 189
-162 170z m475 -819 c60 -71 151 -179 203 -240 52 -60 102 -119 111 -130 38
-47 306 -363 330 -390 63 -71 729 -871 824 -989 18 -22 44 -54 58 -71 76 -88
289 -358 286 -361 -2 -3 -66 5 -143 17 -76 11 -196 29 -266 39 -127 19 -385
45 -551 56 l-87 6 -52 86 c-98 165 -287 552 -373 762 -13 30 -39 96 -60 145
-95 230 -260 707 -393 1135 -19 59 -20 94 -3 73 4 -4 57 -66 116 -138z"/>
<path d="M17380 21849 c-69 -83 -130 -156 -135 -163 -16 -17 -438 -514 -540
-636 -49 -59 -187 -221 -305 -360 -118 -139 -240 -283 -270 -320 -30 -37 -76
-91 -101 -121 -26 -30 -77 -90 -114 -134 -36 -44 -84 -100 -104 -125 -21 -25
-109 -130 -196 -235 -87 -104 -169 -203 -183 -219 -21 -25 -563 -691 -627
-771 -13 -16 -20 -32 -14 -33 5 -2 62 8 127 22 392 85 956 166 1402 201 l85 7
45 81 c396 718 644 1320 869 2112 79 279 208 845 192 845 -3 0 -62 -68 -131
-151z m-255 -696 c-130 -522 -351 -1091 -696 -1790 -97 -195 -113 -222 -137
-227 -15 -3 -76 -10 -137 -16 -320 -31 -591 -66 -790 -100 -60 -11 -111 -17
-113 -15 -6 6 286 382 443 571 27 33 68 83 90 110 66 80 139 167 345 408 107
126 224 263 260 306 507 600 720 856 747 897 29 43 26 11 -12 -144z"/>
<path d="M12802 20018 c-38 -46 -107 -128 -154 -183 -46 -55 -106 -129 -133
-165 -27 -36 -52 -67 -55 -70 -3 -3 -17 -21 -30 -40 -13 -19 -27 -37 -30 -40
-9 -8 -90 -134 -157 -245 -60 -100 -94 -162 -193 -350 -29 -55 -60 -113 -70
-130 -113 -196 -265 -525 -314 -680 -38 -121 -28 -234 39 -460 65 -219 85
-309 92 -402 3 -51 8 -93 11 -93 12 0 127 96 230 192 72 67 178 147 271 204
189 115 245 216 321 582 11 52 36 149 56 215 155 517 238 1183 207 1650 -3 53
-10 97 -14 97 -4 0 -39 -37 -77 -82z m-92 -490 c-1 -241 -71 -667 -176 -1063
-19 -71 -50 -196 -69 -277 -84 -363 -109 -402 -355 -548 -58 -35 -122 -76
-142 -92 -41 -32 -40 -32 -53 45 -3 21 -22 91 -42 155 -44 143 -53 243 -29
326 9 31 48 125 85 209 38 84 86 190 106 237 95 214 312 586 511 875 22 33 65
95 94 138 29 42 57 77 61 77 5 0 9 -37 9 -82z"/>
<path d="M9305 19993 c-4 -59 -5 -200 -2 -313 19 -655 181 -1472 370 -1858 66
-134 52 -121 581 -527 76 -58 142 -103 146 -98 11 12 38 173 50 303 14 144 22
178 68 315 65 195 56 240 -120 610 -292 613 -474 925 -755 1298 -114 150 -310
377 -326 377 -3 0 -8 -48 -12 -107z m286 -505 c79 -108 250 -371 322 -498 175
-308 289 -529 367 -715 73 -173 81 -395 24 -665 -9 -41 -19 -79 -23 -83 -4 -4
-50 25 -101 65 -51 40 -145 113 -209 161 -129 98 -125 92 -196 302 -139 414
-224 831 -270 1324 -16 174 -18 231 -10 231 3 0 46 -55 96 -122z"/>
<path d="M16954 17821 c-91 -134 -346 -489 -440 -611 -70 -92 -204 -248 -304
-355 -43 -45 -77 -85 -123 -140 -39 -46 -107 -141 -107 -147 0 -13 22 -10 248
32 306 56 312 57 462 85 74 13 203 36 285 50 83 14 290 50 460 80 417 73 779
135 840 144 66 11 517 91 825 147 135 25 306 56 380 69 144 26 645 124 769
151 l75 16 -125 40 c-472 150 -1034 296 -1419 368 -63 12 -146 27 -185 35
-354 69 -880 123 -1291 132 l-281 6 -69 -102z m591 -87 c619 -46 1188 -135
1715 -269 259 -66 309 -81 285 -88 -51 -15 -628 -126 -945 -182 -74 -13 -173
-31 -220 -39 -47 -8 -150 -26 -230 -40 -80 -14 -251 -44 -380 -66 -129 -23
-323 -56 -430 -75 -290 -50 -529 -92 -675 -120 -71 -14 -150 -28 -175 -31
l-44 -7 18 29 c37 58 123 177 214 297 309 409 344 455 425 575 l30 44 106 -7
c58 -3 196 -13 306 -21z"/>
<path d="M15560 17833 c-786 -134 -1436 -360 -2065 -718 -44 -25 -95 -53 -113
-62 -28 -14 -44 -41 -106 -168 -41 -82 -96 -188 -124 -235 -27 -47 -89 -152
-137 -235 -48 -82 -89 -153 -91 -156 -2 -3 66 -4 151 -1 106 3 205 -1 319 -13
99 -10 213 -16 283 -13 144 5 161 11 362 146 80 53 175 115 211 136 36 22 93
60 127 85 34 25 91 66 125 91 55 39 311 250 407 335 145 128 410 387 485 475
53 62 197 257 224 303 l21 37 -27 -1 c-15 -1 -38 -4 -52 -6z m-391 -292 c-120
-139 -519 -515 -699 -658 -112 -89 -600 -415 -664 -443 -69 -31 -149 -35 -267
-14 -57 9 -146 18 -196 18 -51 1 -93 2 -93 3 0 1 11 18 24 37 13 19 38 72 56
118 117 296 138 318 440 459 91 42 206 95 255 119 229 108 503 216 732 291
144 47 375 107 417 108 l28 1 -33 -39z"/>
<path d="M5060 17900 c-36 -5 -153 -13 -260 -20 -898 -52 -1717 -193 -2375
-408 -174 -57 -386 -134 -382 -139 4 -3 156 -31 772 -138 110 -19 238 -42 285
-50 47 -9 175 -31 285 -50 110 -19 263 -46 340 -60 185 -33 457 -80 630 -110
77 -13 241 -43 365 -65 124 -23 241 -44 260 -47 19 -3 123 -21 230 -40 177
-31 300 -52 808 -141 89 -16 162 -26 162 -22 0 3 -59 77 -130 165 -298 366
-482 597 -566 710 -99 134 -105 142 -216 308 -88 131 -72 123 -208 107z m22
-180 c52 -15 137 -116 244 -293 16 -27 89 -129 162 -228 143 -194 232 -322
227 -327 -4 -5 -51 3 -455 73 -179 31 -415 71 -525 90 -202 35 -435 75 -690
119 -462 81 -1201 223 -1224 236 -28 15 608 158 954 214 331 54 653 90 975
110 282 17 289 18 332 6z"/>
<path d="M6597 17773 c145 -196 520 -591 734 -773 55 -47 112 -95 127 -108 54
-47 70 -59 207 -168 393 -312 632 -467 764 -495 63 -13 269 -7 416 13 55 7
175 13 268 12 92 0 167 1 167 3 0 9 -55 110 -121 223 -39 68 -98 180 -131 249
-128 270 -133 274 -688 551 -434 217 -990 393 -1573 501 -209 38 -205 39 -170
-8z m568 -259 c148 -37 294 -80 445 -131 186 -62 296 -103 500 -188 106 -44
531 -262 590 -302 70 -48 107 -104 161 -243 23 -62 55 -129 71 -151 15 -21 28
-42 28 -47 0 -13 -274 -42 -392 -42 -89 0 -119 4 -170 24 -104 39 -232 121
-478 306 -14 10 -68 51 -120 90 -226 170 -415 329 -554 466 -110 110 -196 210
-196 230 0 18 -3 18 115 -12z"/>
<path d="M20265 16274 c-44 -8 -134 -23 -200 -33 -108 -18 -321 -54 -830 -141
-93 -16 -235 -41 -315 -55 -80 -14 -224 -39 -320 -55 -96 -17 -209 -37 -250
-45 -41 -8 -165 -30 -275 -49 -110 -20 -402 -72 -650 -116 -531 -95 -775 -139
-1020 -181 -173 -30 -193 -34 -184 -43 2 -2 146 -89 319 -193 591 -356 775
-474 985 -630 47 -35 88 -63 91 -63 17 0 326 131 544 230 256 116 752 376 958
502 34 21 64 38 67 38 2 0 38 21 79 48 40 26 124 79 185 117 129 81 391 261
506 348 257 193 304 230 420 329 12 11 -13 9 -110 -8z m-605 -296 c-116 -97
-557 -385 -797 -522 -207 -117 -557 -298 -698 -361 -22 -10 -117 -55 -212
-101 -219 -105 -282 -128 -326 -120 -46 9 -135 67 -292 192 -71 57 -157 121
-191 141 -374 231 -414 257 -402 264 7 4 29 10 48 13 19 3 107 19 195 36 88
17 198 38 245 46 47 9 117 22 155 29 90 17 394 70 1075 189 300 53 635 112
745 131 110 20 252 45 315 56 63 11 117 22 119 25 2 2 14 4 25 4 20 -1 20 -2
-4 -22z"/>
<path d="M1810 16291 c0 -4 28 -32 63 -62 34 -29 64 -56 67 -59 4 -5 94 -75
145 -113 84 -63 142 -103 334 -231 198 -133 589 -382 676 -430 17 -9 68 -40
115 -68 208 -124 703 -385 845 -445 50 -21 154 -70 315 -146 108 -50 185 -77
224 -77 37 0 103 40 218 131 111 88 591 409 612 409 2 0 40 22 83 49 43 26 96
58 118 70 22 12 47 26 55 31 8 5 58 35 110 66 129 77 210 134 210 147 0 3 -19
8 -42 12 -24 4 -167 29 -318 55 -258 46 -450 80 -735 130 -66 11 -246 43 -400
71 -372 66 -627 111 -875 154 -113 20 -293 51 -400 70 -107 19 -285 50 -395
69 -110 20 -279 49 -375 66 -230 41 -637 110 -644 110 -3 0 -6 -4 -6 -9z
m1035 -351 c334 -53 650 -107 1120 -191 215 -39 410 -74 435 -79 25 -4 110
-19 190 -33 80 -15 183 -33 230 -42 47 -8 218 -38 380 -66 162 -27 296 -51
298 -53 1 -2 -62 -46 -140 -98 -79 -52 -251 -166 -383 -254 -132 -87 -274
-184 -316 -216 l-77 -58 -123 51 c-263 107 -794 361 -910 434 -21 14 -40 25
-43 25 -34 0 -941 564 -1001 622 -12 12 14 9 340 -42z"/>
<path d="M21640 15942 c-130 -109 -182 -151 -315 -258 -82 -66 -179 -142 -215
-169 -36 -27 -69 -53 -75 -57 -37 -30 -136 -106 -156 -120 -13 -9 -70 -50
-125 -91 -363 -268 -954 -655 -1289 -842 -348 -195 -656 -357 -862 -454 -51
-24 -93 -45 -93 -46 0 -2 62 -68 139 -147 141 -146 382 -410 465 -508 120
-144 306 -368 346 -420 25 -32 83 -106 130 -166 47 -60 99 -127 115 -150 17
-24 82 -114 145 -201 439 -603 945 -1424 1315 -2131 l38 -74 81 7 c45 4 140
15 211 26 72 10 144 19 161 19 l32 0 7 1608 c7 1476 1 3169 -14 3905 l-6 299
-35 -30z m-131 -3208 l1 -2411 -47 -7 c-27 -4 -74 -10 -106 -13 -56 -5 -58 -5
-93 33 -31 34 -99 163 -207 394 -59 126 -317 581 -450 795 -270 434 -671 990
-1066 1480 -201 248 -494 596 -618 733 -42 45 -84 93 -95 107 l-19 25 68 31
c108 50 441 217 528 267 300 169 421 240 600 352 102 64 446 293 521 346 23
16 79 56 125 88 116 83 611 457 739 558 l105 84 6 -225 c4 -125 7 -1311 8
-2637z"/>
<path d="M20904 14608 c-557 -379 -863 -578 -1084 -703 -138 -79 -243 -135
-272 -146 -36 -14 -35 -26 4 -69 17 -19 83 -100 147 -180 63 -80 121 -152 128
-160 188 -232 639 -845 898 -1225 38 -55 85 -122 105 -150 20 -27 84 -120 141
-205 l104 -155 3 50 c2 28 1 705 -1 1505 -4 1250 -8 1523 -21 1537 -2 2 -70
-43 -152 -99z m26 -403 c12 -254 13 -2108 1 -2101 -4 3 -52 70 -106 148 -55
79 -135 193 -180 253 -44 61 -87 120 -95 132 -8 12 -63 86 -123 165 -59 78
-114 152 -122 163 -41 56 -492 646 -521 682 -19 23 -34 45 -34 50 0 4 35 26
77 48 207 107 594 351 913 576 47 33 103 73 125 88 22 16 43 25 47 22 4 -4 12
-105 18 -226z"/>
<path d="M526 15924 c-8 -21 -8 -4274 1 -5102 l6 -661 51 -11 c65 -13 201 -27
343 -36 l112 -6 47 93 c90 181 318 598 436 799 244 417 421 696 675 1065 233
338 590 805 832 1085 35 41 87 102 115 134 96 112 341 378 484 524 45 47 81
86 80 88 -2 1 -76 36 -164 78 -425 200 -963 499 -1334 743 -19 13 -42 28 -50
33 -137 88 -543 367 -635 436 -16 13 -122 92 -235 176 -321 240 -722 554 -728
570 -6 14 -30 9 -36 -8z m609 -666 c501 -374 759 -554 1135 -789 357 -224 820
-477 1084 -593 l59 -26 -43 -48 c-24 -26 -66 -72 -95 -102 -61 -66 -323 -365
-380 -434 -22 -27 -47 -57 -57 -68 -9 -10 -31 -37 -50 -60 -18 -23 -67 -82
-108 -132 -156 -189 -454 -587 -628 -839 -379 -547 -705 -1089 -1016 -1688
l-96 -186 -43 4 c-23 2 -73 7 -112 11 l-70 7 -3 2633 -2 2633 72 -57 c40 -31
199 -151 353 -266z"/>
<path d="M1146 14677 c-3 -12 -6 -710 -6 -1550 l0 -1528 71 103 c38 57 100
146 137 199 37 52 114 164 172 247 361 524 719 1010 1011 1375 88 110 157 203
153 208 -3 5 -29 20 -59 35 -198 93 -712 413 -1145 711 -140 97 -304 209 -316
216 -7 4 -14 -2 -18 -16z m909 -754 c88 -55 210 -129 270 -163 61 -35 115 -68
122 -74 9 -8 -8 -38 -73 -121 -242 -314 -666 -887 -897 -1210 -98 -137 -183
-252 -188 -254 -13 -4 -8 2287 4 2306 5 8 99 -49 305 -186 163 -109 369 -243
457 -298z"/>
<path d="M13885 15109 c-170 -74 -441 -174 -590 -219 -60 -18 -112 -34 -114
-36 -9 -8 49 -60 169 -152 78 -59 189 -161 295 -268 106 -107 184 -177 207
-187 94 -39 458 -88 810 -108 347 -20 825 9 1268 77 149 23 350 61 356 67 3 2
-156 110 -225 152 -443 272 -974 491 -1526 629 -117 30 -487 107 -505 106 -3
-1 -68 -28 -145 -61z m305 -149 c367 -67 597 -134 988 -286 170 -67 619 -290
607 -302 -5 -5 -183 -19 -520 -42 -289 -19 -862 -3 -1120 31 -198 26 -262 66
-448 281 -31 37 -78 82 -102 99 -25 18 -42 36 -38 40 5 3 95 41 201 84 107 42
212 85 235 96 52 23 67 23 197 -1z"/>
<path d="M8015 15115 c-617 -109 -1328 -390 -1992 -789 -119 -71 -124 -65 75
-100 628 -113 1319 -130 1992 -50 149 17 238 37 294 66 22 11 97 77 166 147
120 121 153 151 249 230 131 107 241 203 241 211 0 4 -60 27 -132 50 -331 103
-507 164 -558 192 -30 17 -71 39 -90 49 -44 24 -84 23 -245 -6z m249 -185 c29
-10 112 -45 182 -78 71 -33 148 -66 172 -73 23 -7 42 -13 42 -15 0 -2 -28 -31
-63 -66 -35 -35 -76 -79 -91 -98 -61 -78 -161 -170 -214 -198 -99 -52 -181
-64 -649 -93 -231 -15 -576 -7 -926 20 -137 11 -251 21 -253 24 -5 5 411 213
547 272 357 157 702 268 979 316 118 20 193 17 274 -11z"/>
<path d="M12480 13563 c1 -22 26 -136 73 -318 32 -126 36 -158 41 -320 8 -215
17 -252 93 -352 45 -60 429 -440 568 -563 22 -19 60 -53 85 -75 25 -22 65 -56
89 -75 24 -19 69 -55 100 -80 55 -44 155 -119 256 -192 224 -161 725 -461 741
-445 12 12 -145 434 -246 662 -101 227 -307 626 -380 735 -9 14 -75 113 -145
220 -229 347 -343 489 -440 545 -58 34 -191 78 -345 115 -232 55 -361 96 -452
142 -36 17 -38 17 -38 1z m460 -326 c248 -53 297 -75 383 -176 84 -99 335
-465 447 -651 76 -127 205 -373 279 -530 69 -149 142 -323 136 -328 -10 -10
-288 170 -455 294 -233 173 -580 496 -811 753 -46 52 -92 103 -102 113 -14 15
-22 56 -37 196 -19 179 -33 279 -46 341 -7 32 -6 34 17 28 13 -3 98 -21 189
-40z"/>
<path d="M9600 13520 c-185 -76 -642 -230 -684 -230 -24 0 -273 -301 -396
-480 -24 -36 -58 -85 -75 -110 -166 -240 -401 -678 -525 -975 -106 -255 -217
-561 -207 -571 26 -26 679 388 937 593 388 308 796 698 928 886 55 79 68 127
87 322 9 88 29 234 46 326 30 162 35 280 14 285 -5 1 -62 -20 -125 -46z m-94
-277 c16 -84 -10 -273 -53 -393 -23 -64 -98 -195 -150 -262 -76 -100 -353
-372 -559 -549 -145 -125 -675 -491 -690 -476 -10 10 120 299 233 518 105 204
210 380 341 574 98 145 127 184 275 366 85 103 91 109 145 124 32 9 138 42
237 74 99 33 188 60 197 60 12 1 19 -10 24 -36z"/>
<path d="M11070 12965 c-22 -47 -58 -123 -80 -169 -22 -46 -81 -138 -132 -206
-162 -213 -169 -224 -193 -270 -54 -107 -57 -237 -10 -585 14 -104 35 -260 46
-345 41 -301 127 -684 219 -975 59 -185 171 -495 179 -495 17 0 152 331 214
525 109 338 182 652 226 965 30 220 63 581 65 710 2 180 -1 188 -118 362 -56
84 -138 212 -181 283 -104 173 -177 285 -187 285 -4 0 -26 -38 -48 -85z m98
-351 c22 -32 72 -97 112 -144 159 -186 172 -275 114 -790 -44 -393 -168 -963
-270 -1240 -7 -19 -19 10 -84 198 -90 260 -142 497 -185 842 -8 69 -24 193
-35 275 -33 255 -22 429 36 535 15 28 69 101 120 163 51 61 106 137 121 168
15 31 29 55 30 54 2 -1 20 -28 41 -61z"/>
<path d="M17340 13474 c-103 -33 -472 -129 -685 -178 -185 -42 -591 -114 -840
-149 l-90 -13 198 -119 c109 -66 217 -132 240 -146 53 -33 634 -379 664 -395
12 -7 75 -44 140 -82 289 -171 1252 -728 1378 -797 22 -12 117 -64 210 -117
94 -52 193 -108 220 -123 28 -15 115 -65 195 -110 132 -75 205 -115 463 -256
48 -26 87 -44 87 -40 0 15 -268 424 -420 641 -89 127 -244 335 -360 485 -74
97 -383 472 -399 485 -3 3 -46 50 -96 105 -252 281 -816 827 -851 824 -5 0
-29 -7 -54 -15z m133 -286 c163 -148 543 -531 682 -688 296 -332 550 -654 752
-953 58 -86 65 -107 31 -85 -13 8 -191 111 -396 229 -205 118 -388 222 -405
233 -18 10 -84 47 -147 83 -63 36 -148 86 -187 109 -40 24 -75 44 -78 44 -3 0
-22 11 -43 23 -35 23 -429 252 -692 402 -114 66 -585 340 -717 418 -40 23 -42
37 -5 37 15 0 68 9 117 20 50 10 135 29 190 41 140 29 564 134 660 163 44 13
90 24 103 25 16 1 57 -31 135 -101z"/>
<path d="M4724 13373 c-174 -155 -430 -404 -609 -593 -298 -314 -705 -816
-950 -1175 -38 -55 -82 -118 -98 -140 -15 -22 -47 -69 -70 -105 -23 -36 -83
-130 -134 -210 -50 -79 -91 -146 -89 -148 3 -2 789 445 1231 700 72 41 175
101 230 133 55 32 165 96 245 143 80 47 161 94 180 105 19 10 100 58 180 105
80 47 186 109 235 137 50 29 158 92 240 141 83 49 159 94 170 100 11 6 63 36
116 66 52 30 140 79 195 108 215 115 500 283 524 310 3 3 26 21 52 40 26 19
48 38 48 41 0 3 -64 13 -141 23 -371 45 -804 136 -1228 256 -116 33 -212 60
-214 60 -2 0 -52 -44 -113 -97z m286 -138 c62 -14 108 -25 455 -110 82 -20
214 -50 294 -66 79 -16 146 -31 148 -33 4 -4 -65 -49 -127 -84 -19 -11 -114
-66 -210 -124 -145 -87 -293 -174 -567 -335 -61 -35 -637 -368 -682 -394 -25
-14 -113 -64 -196 -111 -82 -47 -266 -151 -408 -231 -142 -81 -260 -147 -263
-147 -2 0 -22 -12 -44 -26 -22 -15 -43 -25 -45 -22 -6 6 130 206 242 353 324
429 669 805 1174 1282 l86 82 39 -10 c21 -5 68 -16 104 -24z"/>
<path d="M6800 12113 c-91 -52 -178 -103 -195 -113 -16 -9 -106 -61 -200 -115
-243 -141 -419 -241 -505 -290 -41 -23 -196 -111 -345 -197 -148 -85 -425
-244 -615 -353 -190 -108 -349 -201 -355 -205 -5 -4 -30 -19 -55 -32 -25 -14
-121 -70 -215 -125 -93 -55 -233 -137 -310 -182 -77 -45 -280 -166 -452 -269
l-311 -187 81 -3 c144 -6 657 30 992 68 723 85 1417 235 2039 443 l130 43 47
184 c41 163 86 322 149 525 10 33 75 227 143 430 138 405 159 475 149 475 -4
0 -81 -44 -172 -97z m-162 -330 c-11 -45 -59 -210 -133 -458 -61 -207 -117
-407 -143 -515 l-18 -75 -85 -28 c-252 -83 -596 -180 -794 -223 -38 -9 -110
-25 -160 -35 -326 -72 -713 -131 -1030 -158 -248 -21 -285 -23 -285 -15 0 5
62 45 137 89 75 44 164 96 197 116 105 62 379 221 426 247 25 14 61 35 81 48
20 12 130 76 245 142 218 124 608 348 779 447 55 32 120 69 145 83 25 14 50
28 55 32 6 4 30 19 55 32 78 44 382 223 450 266 83 52 91 53 78 5z"/>
<path d="M15269 12122 c108 -274 280 -773 337 -978 9 -32 44 -169 78 -303 l61
-244 125 -43 c69 -23 163 -54 210 -68 47 -13 126 -36 175 -51 552 -162 1325
-302 1965 -354 310 -26 675 -40 675 -26 0 7 -177 115 -535 328 -247 146 -1038
609 -1132 662 -10 6 -457 261 -992 568 -536 306 -977 557 -980 557 -3 0 3 -22
13 -48z m420 -403 c105 -57 904 -513 1076 -614 77 -45 203 -118 280 -162 208
-120 618 -358 710 -412 44 -26 158 -92 252 -146 95 -54 171 -101 169 -103 -10
-10 -480 36 -736 73 -440 62 -1033 204 -1470 352 l-83 28 -23 100 c-28 127
-61 252 -114 430 -57 194 -69 234 -86 281 -24 68 -62 214 -56 214 3 0 39 -19
81 -41z"/>
<path d="M13326 10603 c9 -20 42 -111 74 -202 97 -277 216 -613 310 -871 48
-135 123 -342 165 -460 107 -300 117 -330 245 -680 104 -286 314 -857 340
-925 11 -27 38 -99 61 -160 23 -60 60 -159 84 -220 23 -60 83 -215 131 -342
49 -128 92 -233 95 -233 3 0 9 21 12 48 4 26 18 135 32 242 115 886 124 1844
25 2720 -31 277 -32 284 -40 300 -5 9 -25 22 -47 29 -119 43 -588 267 -793
378 -66 36 -203 113 -285 159 -99 57 -338 204 -372 230 -45 34 -55 30 -37 -13z
m727 -591 c216 -110 446 -221 512 -249 l120 -50 13 -69 c21 -116 51 -373 69
-596 21 -262 24 -1137 5 -1433 -22 -346 -25 -375 -33 -375 -5 0 -9 4 -9 10 0
5 -36 103 -79 217 -84 222 -147 390 -261 703 -39 107 -88 242 -109 300 -22 58
-119 326 -216 595 -98 270 -231 635 -296 812 -65 177 -119 324 -119 327 0 3 3
6 6 6 3 0 182 -89 397 -198z"/>
<path d="M9855 10258 c-2 -7 -15 -44 -29 -83 -13 -38 -42 -119 -64 -180 -22
-60 -135 -369 -250 -685 -115 -316 -232 -636 -260 -710 -28 -74 -57 -155 -65
-180 -9 -25 -73 -200 -142 -390 -70 -190 -148 -406 -175 -480 -26 -74 -64
-178 -83 -230 -19 -52 -56 -153 -82 -225 -26 -71 -65 -179 -87 -240 -22 -60
-43 -119 -46 -130 -3 -11 -42 -121 -87 -245 -45 -124 -85 -238 -89 -254 l-7
-29 29 25 c185 155 584 527 686 639 27 30 86 92 130 139 45 47 120 128 166
180 47 52 90 100 96 106 56 61 325 391 425 524 242 318 561 786 580 850 15 50
8 72 -115 320 -56 113 -148 322 -205 465 -123 313 -123 312 -154 400 -14 39
-43 120 -65 180 -22 61 -50 138 -63 173 -23 65 -36 83 -44 60z m114 -775 c55
-128 101 -235 101 -238 0 -3 16 -40 35 -81 19 -41 35 -77 35 -80 0 -4 39 -93
86 -199 l85 -194 -27 -43 c-28 -45 -232 -349 -286 -428 -30 -43 -308 -417
-334 -450 -7 -8 -55 -67 -106 -130 -51 -63 -97 -120 -103 -126 -5 -6 -32 -37
-60 -69 -27 -33 -70 -82 -95 -109 -25 -28 -49 -56 -55 -62 -57 -65 -348 -363
-387 -395 -45 -39 -50 -40 -43 -19 14 47 197 566 277 785 45 121 93 256 108
300 15 44 105 289 200 545 94 256 193 526 220 600 26 74 89 247 139 384 50
138 91 252 91 255 0 19 30 -43 119 -246z"/>
<path d="M8773 10521 c-44 -27 -280 -167 -388 -229 -33 -20 -78 -47 -100 -61
-71 -44 -537 -276 -645 -321 -58 -24 -109 -46 -115 -50 -5 -4 -40 -17 -76 -29
l-67 -22 -11 -62 c-111 -620 -134 -1772 -50 -2597 18 -185 61 -525 66 -534 3
-4 26 45 51 110 24 66 73 196 109 289 35 94 77 204 93 245 67 176 452 1214
562 1515 41 113 54 148 134 370 173 482 488 1395 482 1400 -2 1 -22 -10 -45
-24z m-387 -701 c-184 -540 -246 -714 -451 -1265 -37 -99 -82 -220 -100 -270
-18 -49 -55 -148 -82 -220 -28 -71 -99 -258 -158 -415 -60 -157 -110 -287
-112 -289 -1 -2 -5 -2 -8 1 -12 12 -20 399 -19 958 0 635 7 791 54 1177 11 89
20 165 20 167 0 3 19 14 43 24 234 104 310 140 492 233 116 59 257 133 315
166 58 32 106 54 108 48 1 -6 -44 -148 -102 -315z"/>
<path d="M12336 10179 c-147 -468 -336 -936 -564 -1396 l-50 -102 70 -113
c121 -194 335 -514 411 -614 21 -27 75 -98 120 -159 164 -220 424 -533 602
-725 107 -116 447 -454 560 -557 126 -115 288 -253 292 -249 4 3 -244 702
-392 1106 -13 36 -64 178 -114 315 -240 669 -230 642 -411 1135 -143 391 -216
590 -245 665 -13 33 -76 202 -141 375 -64 173 -121 319 -125 324 -5 6 -10 3
-13 -5z m39 -566 c10 -27 37 -97 60 -158 51 -130 157 -416 253 -680 38 -104
111 -302 162 -440 50 -137 105 -288 122 -335 32 -92 162 -456 209 -585 105
-292 163 -456 175 -495 14 -45 13 -44 -124 95 -145 148 -324 340 -363 390 -13
17 -32 39 -43 50 -10 11 -64 74 -119 140 -54 66 -109 131 -121 145 -149 177
-535 725 -631 897 l-27 48 70 155 c143 316 279 633 343 798 5 12 10 22 12 22
3 0 12 -21 22 -47z"/>
<path d="M15940 9438 c0 -13 7 -106 14 -208 60 -765 41 -1546 -60 -2450 -13
-124 -27 -232 -29 -240 -2 -8 -11 -71 -20 -140 -40 -320 -144 -891 -245 -1349
-22 -101 -40 -192 -40 -201 0 -9 19 -30 43 -46 23 -17 85 -62 137 -99 103 -75
427 -292 475 -319 17 -9 73 -43 125 -75 105 -66 476 -284 790 -466 113 -65
342 -200 510 -300 420 -250 450 -267 777 -426 381 -186 688 -339 793 -395 47
-25 166 -89 265 -141 99 -53 214 -115 255 -138 219 -123 502 -272 915 -480
253 -128 519 -265 590 -305 238 -135 429 -220 447 -202 12 12 29 4380 18 4489
-22 215 -56 330 -260 863 -34 91 -73 192 -85 225 -107 282 -138 364 -173 455
-23 58 -88 227 -146 375 -94 244 -169 428 -284 705 -41 96 -110 252 -176 393
l-37 77 -67 -5 c-569 -45 -1336 -45 -1992 0 -433 30 -1015 97 -1260 145 -25 4
-79 14 -120 20 -235 36 -773 157 -1070 239 -92 26 -90 26 -90 -1z m340 -242
c720 -170 1313 -272 1884 -325 466 -44 869 -54 1694 -43 305 4 558 5 562 2 10
-6 142 -271 193 -385 19 -44 51 -116 70 -160 68 -155 274 -680 307 -785 9 -28
88 -248 150 -420 23 -63 68 -189 100 -280 75 -214 161 -441 192 -510 44 -95
76 -202 89 -290 14 -106 15 -490 0 -715 -7 -113 -11 -741 -11 -1857 0 -929 -2
-1688 -5 -1688 -2 0 -24 11 -47 24 -24 13 -394 200 -823 416 -772 388 -1194
602 -1393 706 -56 30 -178 93 -270 140 -92 48 -180 94 -197 104 -16 10 -84 46
-150 80 -107 56 -206 109 -440 235 -38 21 -108 59 -155 85 -47 26 -107 60
-135 75 -145 81 -450 254 -520 295 -44 26 -159 94 -255 150 -171 101 -400 240
-470 285 -19 13 -111 71 -205 131 -162 102 -466 303 -605 400 -36 25 -71 49
-79 53 -12 7 -12 19 2 77 39 163 121 559 167 813 177 969 258 1972 230 2841
-6 184 -15 386 -20 449 -5 63 -7 118 -4 123 3 5 13 7 22 4 10 -3 64 -16 122
-30z"/>
<path d="M16595 8668 c-2 -7 -6 -240 -9 -518 -5 -488 -12 -642 -51 -1069 -36
-387 -133 -1077 -200 -1411 -85 -423 -105 -528 -105 -541 0 -13 155 -117 560
-374 51 -32 158 -98 178 -110 10 -5 98 -59 197 -118 268 -162 290 -174 605
-354 342 -195 738 -412 1125 -615 105 -55 213 -113 240 -128 209 -115 1919
-970 1940 -970 3 0 5 579 5 1288 0 810 4 1419 12 1644 17 515 11 568 -105 858
-25 63 -68 178 -96 255 -27 77 -79 223 -116 325 -36 102 -81 228 -100 280
-201 576 -507 1301 -545 1292 -8 -2 -210 -6 -450 -9 -703 -9 -1277 22 -1965
108 -322 40 -830 122 -1013 164 -77 18 -101 19 -107 3z m325 -187 c69 -11 195
-32 280 -45 636 -103 1258 -173 1760 -197 309 -15 795 -6 895 16 190 41 218
17 320 -270 24 -66 82 -214 130 -330 78 -191 207 -519 337 -860 27 -71 56
-144 64 -162 8 -17 14 -34 14 -38 0 -4 34 -98 76 -208 128 -337 153 -443 154
-652 3 -357 -12 -3055 -17 -3055 -3 0 -121 59 -262 131 -141 72 -366 188 -501
256 -135 69 -321 165 -415 213 -93 48 -246 127 -340 175 -219 113 -427 221
-490 255 -27 15 -124 67 -215 115 -359 190 -833 453 -1125 623 -511 298 -1169
708 -1189 741 -3 5 10 89 30 187 19 99 44 229 54 289 76 441 93 543 120 725
89 618 128 1097 136 1710 3 212 7 391 10 398 2 7 13 10 26 8 13 -3 79 -14 148
-25z"/>
<path d="M17166 7988 c-2 -7 -9 -141 -15 -298 -23 -584 -95 -1188 -242 -2014
-27 -154 -48 -285 -45 -291 2 -6 44 -35 93 -64 48 -29 108 -65 133 -81 25 -16
56 -35 70 -42 14 -8 111 -66 215 -129 432 -262 1092 -635 1515 -857 58 -30
143 -76 190 -102 130 -72 500 -261 980 -501 l435 -217 6 86 c4 48 7 373 8 722
1 349 6 691 11 760 5 69 12 244 16 390 7 302 -3 447 -42 614 -27 112 -161 478
-349 951 -59 149 -150 378 -202 510 -52 132 -107 272 -123 310 l-29 70 -108 2
c-266 5 -834 24 -993 34 -436 25 -971 80 -1391 144 -117 18 -129 18 -133 3z
m486 -233 c557 -73 1187 -115 1740 -115 l257 0 15 -28 c20 -39 234 -553 303
-727 176 -447 277 -723 303 -830 64 -264 80 -606 59 -1250 -8 -231 -14 -579
-13 -772 1 -194 -1 -353 -4 -353 -6 0 -536 271 -857 438 -260 135 -529 279
-860 460 -212 116 -231 126 -385 212 -132 74 -647 368 -725 415 -38 23 -149
88 -245 145 -96 57 -178 106 -183 110 -4 3 6 78 22 166 131 708 208 1308 247
1906 9 139 20 256 26 259 5 3 32 2 61 -3 29 -4 136 -19 239 -33z"/>
<path d="M17765 7288 c-6 -17 -35 -236 -79 -594 -47 -374 -91 -668 -127 -843
-16 -78 -27 -147 -24 -152 3 -4 117 -74 253 -155 136 -80 259 -155 274 -165
15 -11 29 -19 32 -19 2 0 73 -40 158 -88 177 -102 392 -223 493 -277 39 -21
101 -55 138 -76 38 -22 70 -39 72 -39 2 0 81 -42 177 -93 95 -51 225 -119 288
-152 63 -32 193 -98 288 -146 96 -49 175 -89 175 -89 1 0 2 127 2 282 0 156 4
423 9 593 7 228 6 342 -3 430 -23 231 -30 250 -350 1048 -51 126 -103 261
-117 300 -14 40 -32 88 -40 107 l-15 35 -112 3 c-470 12 -1181 60 -1450 98
-25 3 -39 1 -42 -8z m870 -218 c138 -11 334 -23 437 -27 179 -6 188 -7 194
-27 3 -12 17 -48 31 -81 14 -33 33 -80 44 -105 16 -40 132 -329 179 -450 106
-270 184 -484 198 -548 18 -85 21 -292 12 -858 l-5 -301 -175 84 c-236 113
-509 255 -735 381 -44 24 -109 60 -145 80 -82 44 -401 226 -460 262 -25 15
-90 53 -145 85 -158 92 -318 186 -341 201 -21 12 -21 15 -9 81 49 249 90 531
140 951 19 155 37 288 41 294 10 16 426 4 739 -22z"/>
<path d="M6200 9414 c-77 -25 -467 -121 -641 -158 -1006 -215 -2228 -315
-3389 -276 -217 8 -413 14 -435 14 l-40 1 -67 -130 c-78 -153 -170 -356 -262
-581 -80 -196 -266 -694 -379 -1014 -87 -246 -203 -552 -269 -710 -67 -162
-142 -366 -165 -450 -41 -153 -41 -165 -33 -2466 4 -1211 11 -2207 14 -2213 5
-7 50 11 134 55 70 37 172 90 227 119 99 52 256 134 530 275 77 40 241 124
365 188 124 63 308 157 410 210 102 52 309 158 460 235 151 77 301 155 333
173 32 19 61 34 64 34 6 0 774 404 898 473 50 27 119 66 155 85 169 91 408
222 530 292 74 42 155 88 180 102 130 73 223 128 520 305 330 198 479 290 745
461 115 74 390 257 395 263 3 3 49 34 102 70 54 35 98 69 98 76 0 6 -22 112
-49 235 -83 372 -166 806 -201 1038 -4 30 -18 114 -29 185 -52 327 -109 865
-132 1260 -15 252 -17 783 -5 1393 8 404 7 472 -5 471 -8 0 -34 -7 -59 -15z
m-127 -396 c-12 -269 -9 -1054 6 -1273 36 -562 100 -1093 216 -1800 70 -426
117 -673 155 -810 17 -64 30 -135 30 -168 0 -53 -3 -62 -32 -89 -49 -46 -102
-80 -311 -200 -105 -60 -228 -134 -272 -163 -184 -120 -807 -511 -945 -593
-91 -53 -395 -224 -475 -267 -49 -26 -193 -103 -320 -170 -126 -67 -313 -166
-415 -220 -102 -53 -221 -117 -265 -140 -44 -23 -134 -71 -200 -105 -66 -34
-151 -79 -190 -100 -133 -72 -490 -258 -1086 -565 -112 -58 -441 -225 -731
-370 l-527 -265 -5 1808 c-3 994 -9 1906 -12 2027 -9 364 13 494 136 800 80
198 137 351 228 610 192 544 284 791 390 1050 99 241 171 403 272 613 l89 183
238 -8 c417 -14 1179 -8 1473 11 698 45 1374 129 1925 241 166 34 495 107 555
124 36 10 69 19 73 20 5 1 5 -81 0 -181z"/>
<path d="M5579 8656 c-6 -6 -446 -92 -564 -111 -55 -8 -125 -20 -155 -25 -182
-31 -604 -80 -895 -105 -450 -38 -680 -47 -1280 -51 l-610 -4 -15 -28 c-8 -15
-25 -50 -36 -77 -12 -28 -38 -86 -57 -130 -113 -258 -321 -778 -413 -1035 -7
-19 -40 -109 -74 -200 -34 -91 -79 -214 -100 -275 -21 -60 -60 -168 -85 -240
-98 -272 -137 -392 -150 -460 -38 -194 -42 -640 -15 -1415 5 -146 9 -669 10
-1162 0 -494 2 -898 4 -898 2 0 53 23 113 51 115 55 212 99 278 127 177 74
459 226 632 339 50 33 126 75 170 93 100 42 349 166 528 265 77 42 275 144
440 227 165 83 305 154 310 158 6 4 71 38 145 76 74 37 169 87 210 110 41 22
167 92 280 154 353 195 666 379 1031 606 136 85 296 181 355 214 210 118 321
193 351 240 25 37 19 100 -26 272 -178 691 -262 1416 -316 2713 -23 557 -24
575 -44 575 -10 0 -20 -2 -22 -4z m-105 -258 c3 -46 10 -202 16 -348 39 -965
150 -1882 334 -2747 27 -130 37 -110 -94 -195 -437 -283 -1212 -745 -1700
-1013 -69 -37 -145 -79 -170 -93 -270 -150 -799 -431 -1165 -619 -377 -194
-1406 -705 -1410 -702 -2 2 -4 717 -5 1589 -3 1737 -6 1629 55 1750 41 82 154
391 292 800 106 315 239 699 278 800 55 144 159 393 219 522 l36 78 475 0
c776 0 1290 31 1950 116 228 29 570 86 715 118 58 13 119 24 137 25 l31 1 6
-82z"/>
<path d="M4930 7964 c-542 -100 -1261 -161 -2021 -171 l-466 -6 -21 -56 c-11
-31 -55 -139 -97 -241 -215 -520 -320 -802 -440 -1180 -21 -63 -56 -160 -80
-215 -66 -156 -85 -219 -100 -334 -24 -191 -27 -355 -11 -711 11 -234 16 -561
16 -1016 l0 -671 354 178 c403 202 528 268 674 351 56 32 248 130 425 218 177
87 338 172 357 190 65 58 95 78 205 135 219 113 562 305 797 444 135 80 390
222 508 283 195 101 263 142 310 187 35 33 40 44 40 83 0 24 -14 98 -31 164
-17 65 -39 175 -50 244 -11 69 -26 166 -34 215 -23 142 -52 334 -80 535 -14
102 -30 217 -35 255 -35 252 -80 813 -80 1013 l0 122 -32 -1 c-18 -1 -67 -7
-108 -15z m-56 -226 c3 -13 19 -158 36 -323 66 -628 108 -976 170 -1375 17
-110 61 -348 84 -455 22 -98 23 -111 9 -120 -131 -84 -164 -105 -168 -105 -2
0 -55 -31 -117 -68 -200 -121 -390 -233 -518 -307 -405 -233 -498 -285 -720
-407 -322 -177 -450 -247 -715 -386 -147 -77 -1018 -512 -1026 -512 -2 0 -4
177 -5 392 0 235 -7 510 -17 683 -28 487 -19 923 23 1100 20 85 60 195 130
360 24 55 82 217 131 360 90 268 203 576 266 725 54 128 124 284 134 296 6 7
138 13 411 17 367 6 644 19 943 46 308 28 682 70 835 94 14 3 44 5 67 6 37 1
43 -2 47 -21z"/>
<path d="M4225 7254 c-366 -47 -902 -84 -1241 -84 l-121 0 -13 -27 c-64 -138
-131 -318 -280 -753 -43 -125 -92 -249 -169 -431 -56 -132 -68 -186 -82 -357
-9 -118 -9 -203 2 -432 8 -157 14 -399 14 -538 0 -138 0 -252 1 -252 1 0 42
22 92 50 50 27 149 79 219 116 179 94 626 330 698 369 61 33 123 66 255 138
281 151 676 380 920 533 74 46 143 87 153 90 20 7 20 3 7 79 -21 125 -51 340
-85 610 -58 458 -124 878 -141 907 -7 10 -17 10 -229 -18z m114 -241 c25 -109
56 -299 75 -463 9 -69 25 -204 36 -300 12 -96 28 -200 37 -230 32 -115 43
-176 38 -207 -9 -49 -93 -118 -256 -207 -79 -44 -193 -107 -254 -141 -60 -34
-222 -119 -360 -188 -207 -104 -342 -178 -455 -247 -307 -187 -543 -311 -693
-363 -17 -6 -18 4 -16 166 2 94 -3 281 -11 415 -18 332 -7 449 60 652 76 227
146 410 349 908 39 95 71 179 71 187 0 8 3 15 8 15 4 1 98 3 210 5 188 4 389
17 702 45 69 7 190 18 270 25 80 7 150 13 157 14 6 0 20 -36 32 -86z"/>
<path d="M11090 7633 c-87 -130 -297 -416 -382 -519 -31 -40 -74 -94 -94 -120
-21 -27 -40 -51 -43 -54 -3 -3 -42 -50 -86 -105 -44 -55 -118 -143 -165 -195
-47 -53 -114 -130 -150 -170 -232 -264 -646 -683 -954 -965 -60 -55 -114 -104
-120 -110 -18 -16 -178 -158 -211 -186 -16 -14 -68 -59 -115 -100 -47 -41
-112 -97 -145 -124 -33 -27 -62 -52 -65 -55 -5 -5 -101 -85 -260 -216 -47 -38
-167 -135 -268 -214 -100 -79 -181 -149 -179 -154 2 -6 25 -83 51 -171 201
-675 452 -1421 705 -2089 132 -348 403 -1004 469 -1133 l21 -40 737 -6 c838
-8 1939 -7 2754 2 l554 6 74 170 c134 309 312 751 440 1090 64 170 74 197 176
483 74 206 298 874 374 1117 48 152 69 222 142 464 18 57 34 109 36 116 3 6
-66 68 -152 136 -86 68 -162 129 -168 134 -6 6 -58 48 -116 95 -88 71 -161
131 -389 325 -13 11 -29 25 -35 30 -6 6 -45 39 -86 75 -41 36 -77 67 -80 70
-3 3 -23 20 -45 39 -41 35 -69 60 -286 261 -197 183 -602 581 -719 709 -8 9
-71 77 -140 151 -262 281 -589 672 -825 985 -24 33 -84 115 -132 182 -49 68
-90 123 -93 123 -3 0 -16 -17 -30 -37z m184 -457 c220 -294 415 -530 695 -841
155 -172 755 -776 933 -940 65 -60 134 -123 151 -140 176 -166 414 -369 513
-440 23 -17 103 -77 177 -135 74 -58 181 -139 237 -180 57 -41 125 -96 152
-122 46 -44 48 -49 48 -100 -1 -38 -14 -87 -46 -173 -46 -120 -77 -221 -129
-410 -114 -416 -292 -911 -590 -1645 -59 -146 -124 -308 -145 -360 -91 -232
-199 -509 -215 -553 l-18 -47 -1920 2 -1919 3 -69 170 c-76 186 -238 591 -299
750 -145 371 -179 457 -232 600 -146 390 -310 874 -504 1488 -44 139 -47 192
-14 231 33 37 158 135 293 226 59 41 130 92 157 115 26 22 76 63 111 90 54 43
315 269 329 285 3 3 37 32 75 65 39 33 72 62 75 65 3 3 59 50 124 105 65 55
135 114 155 130 91 77 221 208 409 415 113 124 225 248 251 275 41 45 236 252
413 439 81 85 247 293 434 546 128 171 213 280 220 280 2 0 68 -87 148 -194z"/>
<path d="M11019 6523 c-52 -65 -103 -129 -114 -142 -59 -72 -375 -431 -451
-512 -113 -120 -574 -581 -679 -679 -73 -69 -244 -225 -319 -293 -73 -66 -374
-326 -430 -372 -34 -27 -70 -58 -81 -68 -11 -10 -104 -89 -207 -174 -104 -87
-188 -163 -188 -172 0 -9 69 -224 154 -476 136 -408 213 -627 333 -955 19 -52
45 -124 58 -160 79 -220 282 -727 360 -902 19 -43 35 -81 35 -87 0 -5 7 -12
16 -15 9 -3 734 -6 1613 -6 1262 0 1601 3 1613 13 9 6 35 59 58 117 23 58 52
130 65 160 157 366 456 1169 617 1655 81 244 208 669 208 695 0 10 -17 30 -37
46 -21 16 -44 34 -51 41 -7 7 -17 13 -20 13 -4 0 -18 10 -32 23 -14 12 -70 58
-125 101 -55 44 -102 82 -105 86 -3 3 -43 37 -90 75 -526 431 -1056 944 -1670
1615 -8 9 -44 50 -80 91 -36 41 -77 87 -92 104 -47 53 -68 78 -161 188 -50 59
-93 107 -97 107 -4 0 -49 -53 -101 -117z m277 -298 c154 -177 198 -226 298
-335 28 -30 73 -80 100 -110 270 -299 681 -713 977 -985 249 -228 439 -382
587 -474 74 -46 163 -111 198 -145 61 -59 64 -63 64 -110 0 -70 -20 -139 -114
-389 -46 -122 -116 -319 -156 -437 -40 -118 -88 -255 -106 -305 -19 -49 -51
-133 -71 -185 -54 -144 -84 -221 -98 -255 -8 -16 -30 -73 -51 -125 -20 -52
-93 -229 -161 -393 -67 -163 -123 -302 -123 -307 0 -7 -511 -9 -1522 -8
l-1522 3 -49 115 c-147 346 -406 1019 -497 1290 -10 30 -64 188 -120 350 -55
162 -126 376 -157 475 l-56 179 44 36 c255 208 704 593 863 739 33 32 126 118
206 192 360 333 899 893 1135 1180 112 135 160 189 166 187 4 -2 78 -84 165
-183z"/>
<path d="M11114 5738 c-43 -75 -680 -722 -1008 -1023 -66 -61 -126 -117 -135
-126 -14 -14 -116 -105 -380 -339 -40 -36 -87 -76 -104 -90 -16 -14 -37 -32
-47 -40 -97 -85 -150 -131 -184 -162 -23 -21 -44 -38 -47 -38 -4 0 16 -64 43
-142 28 -79 79 -224 113 -323 204 -583 332 -925 463 -1232 l56 -133 1237 0
c1169 0 1237 1 1242 17 3 10 37 97 77 193 72 176 259 670 323 855 20 55 62
177 95 270 179 509 184 525 164 525 -13 0 -495 421 -772 675 -302 277 -645
614 -885 871 -252 269 -241 259 -251 242z m301 -559 c503 -505 859 -836 1250
-1164 72 -59 136 -114 143 -120 10 -9 0 -49 -47 -196 -68 -210 -168 -499 -234
-674 -25 -66 -70 -185 -100 -265 -30 -80 -85 -223 -122 -317 l-68 -173 -1122
0 -1123 0 -10 28 c-5 15 -85 227 -177 472 -185 492 -385 1060 -385 1093 0 3
55 52 121 109 67 57 127 108 133 113 6 6 52 45 101 89 50 43 121 106 159 140
38 33 79 69 90 79 12 10 57 51 100 90 44 40 85 77 91 82 197 177 643 623 823
823 41 45 77 82 80 82 4 0 138 -131 297 -291z"/>
<path d="M10940 4647 c-208 -203 -347 -336 -530 -508 -180 -168 -201 -185
-302 -258 -107 -77 -168 -141 -169 -178 -2 -50 2 -67 41 -153 21 -47 59 -146
85 -220 64 -188 88 -250 164 -445 l67 -170 817 -3 817 -2 26 57 c51 115 162
405 214 563 10 30 44 125 75 210 31 85 59 162 62 171 3 11 -30 48 -104 115
-249 226 -297 270 -313 284 -29 25 -260 241 -345 321 -44 42 -94 90 -112 105
-17 16 -71 65 -120 110 -104 95 -193 174 -196 174 -1 0 -81 -78 -177 -173z
m204 -59 c20 -20 191 -182 281 -267 122 -115 323 -301 390 -361 33 -29 76 -67
95 -84 19 -17 76 -66 127 -109 l92 -78 -16 -42 c-8 -23 -37 -107 -64 -186
-114 -331 -211 -579 -233 -593 -6 -4 -322 -8 -702 -8 -542 0 -694 3 -701 13
-5 6 -24 48 -42 92 -18 44 -37 89 -42 100 -4 11 -31 81 -58 155 -66 182 -147
401 -155 421 -8 18 54 80 284 284 287 255 325 289 424 385 54 52 141 139 194
193 52 53 99 97 104 97 5 0 15 -6 22 -12z"/>
<path d="M15990 3288 c0 -6 166 -482 261 -748 225 -632 590 -1605 608 -1623 5
-5 614 -10 1533 -11 1420 -1 1992 6 1971 24 -4 4 -102 56 -218 115 -115 59
-289 148 -385 198 -293 150 -614 316 -835 432 -55 29 -167 87 -250 130 -82 43
-181 94 -220 115 -38 21 -110 59 -160 85 -123 65 -207 109 -515 275 -223 120
-366 198 -795 435 -52 29 -243 137 -325 185 -36 21 -157 91 -269 156 -112 66
-216 126 -230 134 -67 39 -128 75 -148 88 -13 8 -23 12 -23 10z m434 -456
c223 -133 546 -317 751 -427 39 -21 121 -67 184 -101 62 -35 115 -64 117 -64
1 0 56 -29 121 -64 118 -63 213 -114 393 -209 52 -27 122 -64 155 -82 33 -18
123 -65 200 -105 77 -40 145 -76 150 -80 6 -4 80 -43 165 -87 85 -45 220 -115
300 -158 80 -42 188 -100 240 -128 52 -28 160 -85 239 -128 79 -43 152 -81
163 -85 17 -5 22 -26 5 -25 -4 1 -598 1 -1321 1 l-1313 0 -47 128 c-26 70 -60
161 -76 202 -89 230 -307 828 -417 1140 -35 102 -75 215 -88 253 -15 40 -20
67 -14 67 6 0 48 -22 93 -48z"/>
<path d="M6074 3188 c-43 -28 -92 -59 -109 -68 -16 -10 -115 -69 -220 -132
-551 -333 -1389 -793 -2310 -1268 -439 -226 -999 -519 -1315 -688 -154 -82
-195 -104 -203 -112 -18 -16 1691 -25 2772 -13 l633 6 14 31 c8 17 54 137 103
266 50 129 115 300 146 380 30 80 65 170 76 200 11 30 27 71 34 90 122 311
474 1344 462 1356 -2 2 -39 -20 -83 -48z m-239 -385 c-4 -10 -26 -74 -50 -143
-60 -178 -93 -270 -173 -485 -67 -180 -106 -287 -310 -847 l-86 -238 -1288 0
c-790 0 -1288 4 -1288 9 0 5 8 12 18 15 10 3 83 40 162 82 80 42 206 108 280
146 74 39 214 112 310 163 257 136 381 201 510 268 63 33 124 65 135 72 11 7
92 50 180 95 88 46 165 86 170 90 6 4 55 31 110 60 55 29 195 105 310 168 116
63 235 128 265 145 30 16 96 53 145 82 103 60 368 212 405 232 14 8 57 34 95
58 76 47 112 57 100 28z"/>
<path d="M7179 2882 c-386 -1018 -721 -1954 -704 -1970 6 -6 1149 -10 1343 -5
110 3 142 7 142 17 0 8 -22 69 -49 137 -62 158 -276 727 -336 895 -57 161 -93
259 -110 304 -8 19 -51 136 -96 260 -127 352 -151 414 -158 422 -3 4 -18 -23
-32 -60z m98 -640 c72 -176 113 -281 199 -522 73 -202 204 -563 216 -593 6
-15 8 -30 6 -33 -7 -7 -970 -5 -977 2 -3 3 7 42 22 87 38 111 190 537 231 647
10 25 46 124 82 220 110 296 139 370 144 370 3 0 38 -80 77 -178z"/>
<path d="M14905 2642 c-102 -304 -171 -492 -571 -1552 -39 -105 -58 -169 -52
-175 13 -14 1424 -14 1436 0 6 6 -7 55 -35 130 -25 66 -76 208 -113 315 -225
642 -291 826 -400 1105 -43 110 -99 247 -124 305 -25 58 -46 106 -46 107 0 2
-3 3 -7 3 -5 0 -44 -107 -88 -238z m183 -474 c93 -235 159 -412 270 -733 99
-286 112 -323 112 -335 0 -6 -173 -10 -465 -10 -388 0 -465 2 -465 14 0 21 95
287 253 706 79 212 157 424 173 473 15 48 31 87 35 87 3 0 42 -91 87 -202z"/>
<path d="M488 211 c-17 -15 -22 -29 -22 -71 0 -59 17 -80 65 -80 36 0 51 21
56 78 5 56 -3 69 -45 81 -25 8 -36 6 -54 -8z"/>
<path d="M669 222 c-8 -2 -20 -11 -26 -20 -15 -19 -17 -98 -3 -107 6 -4 8 -10
5 -15 -9 -14 60 -23 83 -11 19 10 35 59 28 83 -3 7 -7 25 -10 39 -4 20 -13 28
-34 31 -16 2 -35 2 -43 0z"/>
</g>
</svg>
