<?xml version="1.0" standalone="no"?>
<!DOCTYPE svg PUBLIC "-//W3C//DTD SVG 20010904//EN"
 "http://www.w3.org/TR/2001/REC-SVG-20010904/DTD/svg10.dtd">
<svg version="1.0" xmlns="http://www.w3.org/2000/svg"
 width="736.000000pt" height="728.000000pt" viewBox="0 0 736.000000 728.000000"
 preserveAspectRatio="xMidYMid meet">
<metadata>
Created by potrace 1.16, written by Peter Selinger 2001-2019
</metadata>
<g transform="translate(0.000000,728.000000) scale(0.100000,-0.100000)"
fill="#000000" stroke="none">
<path d="M3499 7116 c-2 -2 -51 -7 -109 -10 -58 -4 -112 -9 -120 -11 -8 -2
-33 -6 -56 -9 -22 -2 -94 -14 -160 -26 -513 -93 -1026 -317 -1466 -641 -40
-29 -78 -58 -85 -64 -6 -5 -31 -26 -54 -45 -414 -338 -759 -794 -996 -1320
-111 -245 -222 -641 -259 -925 -3 -27 -8 -61 -10 -75 -26 -203 -25 -646 1
-835 3 -16 7 -48 10 -70 4 -22 8 -53 10 -70 7 -67 18 -121 27 -138 5 -10 7
-21 5 -23 -3 -3 2 -29 10 -57 7 -29 16 -63 19 -77 6 -31 72 -253 89 -300 54
-144 77 -203 103 -260 67 -148 114 -243 158 -317 26 -43 52 -87 58 -98 28 -48
95 -147 160 -235 294 -400 679 -746 1086 -979 73 -41 316 -163 360 -181 19 -7
60 -24 90 -38 121 -53 481 -161 625 -186 17 -3 41 -8 55 -11 49 -9 86 -15 135
-20 28 -3 61 -8 75 -11 14 -3 57 -8 95 -10 39 -2 94 -6 123 -10 58 -6 357 -6
439 0 29 3 74 7 100 10 26 3 77 8 113 12 36 3 74 8 85 10 10 2 37 6 60 9 53 8
198 39 305 66 47 11 92 22 100 24 40 9 291 99 345 124 33 15 71 32 85 36 27 8
319 152 335 165 9 7 44 27 110 64 75 42 294 202 426 312 193 161 440 429 580
628 19 27 47 67 63 90 166 235 370 659 446 926 7 25 19 65 27 89 46 145 107
494 121 686 12 174 5 536 -13 665 -1 14 -6 48 -9 75 -15 136 -83 449 -125 580
-149 461 -366 859 -663 1213 -114 135 -122 143 -253 272 -179 176 -312 283
-525 422 -143 93 -190 120 -360 206 -191 96 -459 201 -590 232 -30 7 -61 17
-67 23 -7 5 -13 7 -13 3 0 -3 -10 -2 -23 3 -24 9 -193 46 -257 56 -19 3 -46 7
-60 10 -14 2 -43 7 -65 9 -22 3 -78 10 -125 17 -81 10 -562 23 -571 15z m186
-85 c0 -29 -4 -55 -10 -57 -5 -1 -68 -5 -140 -9 -129 -6 -143 -7 -240 -19 -27
-3 -70 -8 -95 -11 -25 -3 -65 -10 -90 -15 -25 -6 -94 -21 -153 -34 l-109 -23
-8 22 c-5 13 -12 39 -15 58 -7 36 -5 38 65 52 8 2 60 12 115 24 55 11 134 25
175 31 41 6 93 13 115 16 42 7 280 20 350 19 l40 0 0 -54z m315 44 c19 -2 62
-6 95 -9 33 -3 77 -8 98 -12 20 -3 47 -7 60 -9 110 -13 312 -60 330 -75 9 -8
-11 -98 -24 -105 -4 -3 -44 3 -87 14 -43 12 -96 23 -118 26 -21 3 -70 12 -109
20 -38 8 -97 17 -130 20 -33 3 -78 8 -100 11 -51 7 -141 12 -227 13 l-68 1 0
61 0 61 123 -7 c67 -3 138 -8 157 -10z m-1195 -192 c6 -32 6 -32 -52 -48 -32
-9 -65 -19 -73 -22 -8 -3 -19 -7 -25 -9 -91 -23 -331 -123 -495 -206 -69 -34
-128 -64 -132 -66 -4 -2 -20 18 -37 44 l-30 48 32 20 c123 76 420 207 612 269
185 60 168 58 181 28 7 -14 15 -40 19 -58z m2008 22 c91 -30 187 -64 213 -76
81 -37 388 -187 402 -197 10 -7 6 -20 -18 -59 l-32 -51 -60 34 c-163 92 -476
223 -643 270 -33 9 -64 20 -69 24 -12 12 15 110 30 110 7 0 87 -25 177 -55z
m-903 20 c222 -19 213 -16 206 -63 -3 -21 -5 -45 -6 -55 0 -16 -7 -18 -62 -12
-131 13 -457 20 -548 11 -19 -2 -72 -7 -117 -10 l-82 -6 -6 55 c-4 31 -6 58
-3 60 6 6 83 13 223 21 66 3 121 8 123 9 4 4 195 -3 272 -10z m-655 -57 c14
-84 17 -80 -60 -94 -211 -37 -341 -69 -490 -121 -71 -24 -138 -46 -147 -48 -9
-2 -26 -8 -37 -14 -11 -6 -25 -11 -31 -11 -10 0 -50 80 -50 100 0 11 341 131
385 136 6 0 30 6 54 13 73 21 223 52 276 58 28 3 52 7 54 9 2 2 12 4 22 4 13
0 20 -10 24 -32z m995 17 c25 -3 63 -10 85 -15 22 -5 56 -12 75 -15 97 -17
337 -89 475 -142 28 -11 58 -23 67 -26 15 -5 15 -10 -4 -59 -11 -29 -21 -54
-23 -56 -2 -2 -16 3 -32 11 -27 14 -144 54 -273 95 -66 21 -246 65 -310 76
-19 3 -46 8 -60 11 -14 3 -40 8 -59 10 -45 7 -52 13 -46 38 3 12 8 36 10 52 2
17 4 31 4 31 1 2 36 -3 91 -11z m-583 -128 c-9 -14 -33 -56 -53 -94 -42 -79
-128 -235 -191 -345 -23 -42 -43 -81 -43 -86 0 -5 -6 -15 -13 -21 -11 -9 -41
17 -142 122 -70 72 -172 178 -226 234 -55 56 -99 106 -99 112 0 9 29 15 240
52 63 11 126 22 140 24 14 3 54 7 90 11 36 3 66 6 67 7 1 1 57 4 124 5 l123 4
-17 -25z m363 8 c92 -9 163 -20 290 -45 220 -43 217 -18 22 -220 -92 -96 -196
-204 -229 -240 -40 -42 -65 -61 -71 -55 -5 6 -30 48 -55 95 -25 47 -64 119
-87 160 -79 141 -170 310 -170 316 0 5 224 -3 300 -11z m-278 -85 c25 -47 81
-148 123 -225 43 -77 95 -172 115 -211 l38 -71 -164 -171 -164 -170 -162 169
-161 170 17 37 c10 20 67 127 128 237 61 110 126 228 145 263 19 35 36 62 37
60 2 -2 23 -41 48 -88z m-1327 -52 c9 -24 19 -48 21 -54 3 -6 -35 -28 -83 -49
-178 -79 -454 -241 -575 -338 -21 -17 -39 -28 -41 -26 -2 2 -18 23 -36 47 -29
37 -32 45 -20 57 18 17 238 165 246 165 4 0 14 6 22 14 37 32 413 224 442 226
4 0 15 -19 24 -42z m421 10 c-2 -18 -16 -78 -30 -133 -42 -163 -104 -418 -110
-449 -7 -37 -13 -43 -34 -28 -9 7 -28 18 -42 25 -14 7 -50 28 -80 48 -30 20
-109 69 -175 109 -66 40 -136 83 -155 95 -19 12 -50 31 -69 42 l-33 20 33 18
c159 82 254 125 374 172 77 31 145 56 150 58 6 1 17 4 25 7 16 6 143 47 148
48 1 0 0 -15 -2 -32z m2434 -105 c131 -70 248 -143 402 -253 l47 -33 -30 -38
c-17 -22 -35 -42 -41 -45 -8 -5 -93 47 -108 67 -3 3 -30 21 -60 40 -30 18 -59
37 -65 42 -50 40 -425 237 -453 237 -16 0 -15 10 9 68 l21 50 86 -40 c48 -21
134 -64 192 -95z m-614 99 c164 -53 338 -123 477 -194 76 -39 136 -72 133 -75
-5 -5 -257 -162 -336 -208 -28 -16 -87 -54 -133 -82 -45 -29 -86 -53 -92 -53
-5 0 -23 55 -38 123 -15 67 -30 129 -32 137 -2 8 -10 40 -18 70 -8 30 -21 82
-28 115 -7 33 -14 65 -15 70 -5 17 -14 59 -18 82 -3 13 -7 27 -11 33 -10 16
17 12 111 -18z m-1608 -159 c226 -236 281 -297 282 -305 0 -10 -205 -386 -219
-401 -5 -4 -46 15 -92 43 -46 28 -93 57 -104 63 -17 10 -69 43 -183 114 -19
12 -22 20 -17 41 4 15 9 38 11 52 3 14 28 115 55 225 28 110 52 209 55 220 18
87 28 125 35 125 4 0 83 -80 177 -177z m1486 139 c4 -15 8 -36 11 -47 17 -80
123 -533 130 -552 2 -6 -28 -31 -66 -55 -39 -23 -104 -64 -145 -90 -41 -27
-77 -48 -80 -48 -3 0 -25 -13 -49 -30 -24 -16 -48 -30 -54 -30 -6 0 -23 24
-37 52 -15 29 -37 69 -49 88 -12 19 -50 88 -84 153 l-63 119 74 76 c40 42 134
139 208 216 204 210 193 201 204 148z m-2581 -52 l28 -50 -58 -36 c-58 -36
-229 -151 -248 -166 -5 -4 -37 -29 -70 -55 -55 -43 -180 -152 -264 -229 l-33
-31 -40 43 -40 43 69 64 c37 34 91 83 118 108 62 57 255 200 355 264 41 26 91
58 110 71 19 12 37 23 40 23 3 1 18 -21 33 -49z m3596 -7 c178 -110 343 -237
513 -394 l97 -90 -44 -40 -45 -41 -62 60 c-74 70 -197 175 -253 217 -22 16
-42 32 -45 36 -7 10 -199 137 -240 160 -19 10 -43 25 -53 33 -18 14 -18 16 -1
43 21 33 45 63 52 63 2 0 39 -21 81 -47z m-3471 -381 c1 -92 4 -242 7 -333 l5
-167 -83 25 c-45 13 -111 32 -147 42 -186 53 -330 95 -368 109 l-43 15 38 40
c34 35 217 189 304 257 58 44 264 180 274 180 6 0 11 -64 13 -168z m254 32
c349 -213 343 -209 341 -230 -1 -11 -11 -58 -23 -106 -54 -228 -63 -265 -69
-298 -6 -33 -9 -35 -41 -32 -19 2 -57 12 -85 22 -27 10 -90 30 -140 45 -180
53 -198 60 -200 75 -5 36 -16 660 -11 660 2 0 105 -61 228 -136z m2953 104
c-2 -18 -6 -170 -10 -338 -3 -168 -9 -308 -13 -311 -7 -6 -173 -55 -217 -65
-11 -2 -31 -8 -45 -13 -52 -20 -181 -54 -185 -49 -4 3 -47 179 -80 323 -3 11
-11 46 -19 78 l-13 57 61 36 c33 19 99 59 146 89 47 30 117 72 155 95 39 22
102 60 140 85 39 24 73 44 77 44 3 1 5 -14 3 -31z m160 -51 c130 -87 246 -176
339 -260 44 -41 97 -88 116 -105 19 -16 33 -33 30 -36 -5 -4 -262 -80 -624
-184 -18 -5 -18 1 -12 134 3 76 7 209 7 294 1 85 4 174 7 197 6 50 0 52 137
-40z m-3766 -72 l33 -45 -28 -23 c-53 -41 -289 -255 -329 -298 -23 -24 -80
-90 -129 -146 l-88 -103 -27 20 c-70 53 -70 41 -1 127 69 86 143 166 271 289
80 78 248 223 259 223 3 0 20 -20 39 -44z m4091 18 c95 -64 353 -317 482 -472
74 -90 88 -111 71 -111 -5 0 -24 -14 -43 -30 -19 -16 -38 -30 -41 -30 -4 0
-18 17 -31 38 -64 95 -315 353 -452 465 -21 18 -49 41 -62 52 l-24 20 33 42
c17 23 34 42 37 43 3 0 17 -8 30 -17z m-2194 -285 l102 -108 -31 -57 c-17 -32
-41 -76 -54 -98 -12 -22 -48 -88 -79 -147 -32 -60 -60 -108 -64 -108 -4 0 -27
21 -51 48 -23 26 -94 100 -156 165 -62 65 -113 124 -113 131 0 6 6 21 14 32
15 22 28 45 115 209 30 55 63 115 75 133 l21 32 59 -62 c33 -35 106 -111 162
-170z m470 209 c10 -21 45 -85 157 -292 l54 -100 -159 -165 c-88 -91 -163
-166 -167 -168 -4 -1 -45 66 -91 150 -46 84 -96 176 -112 205 l-29 52 163 170
c90 94 165 170 168 170 3 1 10 -9 16 -22z m-2768 -158 c-2 -4 -37 -44 -80 -90
-42 -46 -87 -97 -99 -114 -13 -16 -26 -32 -29 -35 -17 -14 -142 -186 -217
-298 -47 -70 -86 -128 -88 -130 -2 -2 -26 8 -54 22 l-51 26 40 64 c91 150 276
400 363 491 7 7 41 43 76 79 l64 67 39 -38 c21 -20 37 -40 36 -44z m4989 -16
c93 -104 136 -156 229 -280 70 -93 198 -286 209 -316 5 -12 -6 -22 -44 -41
l-50 -26 -43 68 c-151 236 -263 383 -412 540 l-60 62 39 40 c22 22 42 40 46
40 4 0 42 -39 86 -87z m-3489 -24 c37 -22 74 -44 82 -49 8 -5 51 -31 95 -57
44 -26 82 -49 85 -53 3 -3 18 -14 34 -24 25 -16 28 -22 22 -54 -4 -21 -8 -41
-10 -47 -2 -5 -6 -23 -10 -40 -4 -16 -14 -52 -21 -80 -14 -50 -44 -173 -50
-207 -10 -53 -16 -51 -149 32 -70 44 -130 80 -132 80 -4 0 -110 69 -132 85 -2
2 89 384 104 438 3 9 8 17 10 17 3 0 36 -18 72 -41z m1910 29 c0 -7 9 -49 20
-93 58 -240 81 -350 74 -355 -4 -4 -56 -37 -117 -75 -60 -38 -132 -83 -160
-100 -48 -31 -110 -65 -118 -65 -2 0 -9 26 -16 58 -7 31 -19 86 -27 121 -9 36
-18 73 -20 84 -2 11 -13 56 -24 100 -12 44 -19 85 -17 92 3 6 43 34 88 62 46
27 133 80 193 116 60 37 112 67 116 67 4 0 7 -6 8 -12z m-3061 -174 c145 -43
285 -84 407 -119 26 -7 50 -15 52 -18 2 -2 7 -108 10 -235 l7 -232 -232 2
c-148 1 -235 6 -240 13 -4 5 -33 100 -65 210 -32 110 -71 245 -88 300 -16 55
-32 109 -35 119 -4 14 -1 18 10 13 8 -3 87 -27 174 -53z m-167 -99 c63 -212
140 -482 140 -490 0 -4 -134 -5 -297 -2 -164 4 -315 7 -335 7 l-38 0 20 35
c49 88 202 303 284 400 54 64 179 196 182 192 1 -1 21 -65 44 -142z m4480 138
c0 -5 -14 -53 -30 -108 -59 -193 -103 -341 -130 -435 l-27 -94 -44 -2 c-24 -2
-131 -5 -237 -7 l-194 -5 7 231 c4 128 10 235 13 238 7 6 119 41 237 75 33 9
116 34 185 54 189 56 194 58 208 59 6 1 12 -2 12 -6z m132 -110 c158 -181 381
-493 364 -511 -4 -4 -78 -8 -164 -9 -86 -1 -232 -4 -324 -6 -179 -4 -179 -5
-159 45 5 13 47 150 93 305 45 156 86 283 89 283 3 0 49 -48 101 -107z m-2354
14 c13 -23 44 -80 69 -127 25 -47 63 -116 85 -154 21 -38 37 -70 36 -72 -2 -1
-51 -54 -110 -117 l-108 -115 -87 91 c-49 50 -98 101 -110 114 -19 20 -21 28
-12 50 6 15 14 32 19 38 8 11 41 69 127 233 30 56 58 102 61 102 4 0 17 -19
30 -43z m-431 -192 l152 -162 -57 -109 c-32 -60 -67 -122 -77 -139 -10 -16
-20 -31 -21 -33 -2 -3 -68 35 -185 109 l-86 54 55 223 c30 122 57 222 61 221
3 -1 74 -74 158 -164z m977 139 c6 -30 66 -281 86 -357 l17 -68 -46 -26 c-25
-15 -85 -50 -133 -80 -48 -29 -90 -53 -92 -53 -4 0 -34 54 -126 224 -23 44
-28 62 -20 70 7 6 77 80 158 163 80 84 147 151 149 149 2 -2 5 -12 7 -22z
m-1908 -105 l211 -62 7 -71 c3 -39 6 -142 6 -230 0 -87 3 -162 6 -167 3 -5 2
-9 -1 -9 -10 0 -416 120 -441 130 -21 8 -21 15 -23 206 -1 109 -5 215 -8 237
-4 34 -3 38 13 34 11 -3 114 -34 230 -68z m2909 -41 c-2 -57 -5 -155 -6 -218
-1 -63 -5 -124 -9 -136 -6 -15 -23 -25 -57 -33 -26 -7 -123 -35 -214 -62 -92
-27 -170 -49 -174 -49 -4 0 -5 89 -2 198 4 108 7 215 7 238 l0 40 53 13 c28 7
84 23 122 34 39 12 72 22 75 22 3 0 10 3 15 6 6 4 35 12 65 19 30 7 66 16 80
21 50 15 50 16 45 -93z m-4189 46 c45 -37 45 -37 25 -58 -29 -32 -172 -251
-225 -344 -26 -46 -74 -139 -108 -205 -33 -67 -64 -121 -70 -119 -6 2 -27 10
-47 19 -20 9 -39 15 -43 15 -11 -3 -10 6 6 36 7 15 46 92 86 172 40 80 77 147
81 148 5 2 9 9 9 16 0 20 224 356 237 356 2 0 25 -16 49 -36z m5325 -36 c65
-90 129 -190 188 -293 55 -96 181 -348 181 -362 -1 -11 -100 -54 -111 -47 -5
3 -9 11 -9 19 0 23 -159 334 -211 414 -27 41 -49 75 -49 78 0 2 -22 34 -49 71
-80 112 -80 110 -35 149 21 18 42 33 45 33 3 0 25 -28 50 -62z m-3699 -121
c57 -35 137 -83 178 -107 98 -57 111 -69 101 -89 -4 -9 -14 -43 -21 -76 -31
-141 -48 -199 -59 -203 -9 -3 -93 19 -258 69 -17 6 -33 15 -36 22 -3 7 -6 78
-7 157 -1 80 -3 178 -5 218 -2 39 -2 72 0 72 2 0 50 -28 107 -63z m2080 -165
c-2 -119 -7 -221 -12 -226 -17 -17 -302 -93 -305 -82 -17 56 -25 85 -29 106
-2 14 -13 62 -24 107 l-19 82 31 21 c31 21 89 56 228 138 40 24 84 52 98 62
14 10 27 16 30 13 2 -2 3 -102 2 -221z m-1150 -85 c47 -56 50 -45 -46 -216
l-63 -112 -104 111 c-57 61 -105 115 -107 120 -2 5 30 70 70 144 l73 136 68
-68 c38 -37 87 -88 109 -115z m365 50 c39 -73 73 -137 74 -142 2 -6 -47 -61
-108 -124 l-111 -115 -36 70 c-20 38 -55 102 -77 142 l-41 74 75 76 c41 42 89
94 108 115 18 20 35 37 38 37 3 0 38 -60 78 -133z m-3295 75 l47 -28 -50 -88
c-80 -145 -172 -360 -230 -541 -45 -139 -52 -156 -65 -151 -7 3 -29 8 -49 12
-20 3 -39 12 -41 19 -7 17 84 286 145 433 66 156 177 372 191 372 3 0 26 -13
52 -28z m6086 -79 c80 -155 165 -355 220 -518 69 -206 68 -195 3 -211 -30 -8
-55 -13 -56 -12 -1 2 -19 57 -40 123 -55 176 -117 330 -205 507 -58 118 -75
160 -66 167 12 10 76 40 87 41 3 0 29 -44 57 -97z m-3520 -147 c11 -11 11 -21
2 -57 -7 -24 -13 -51 -15 -59 -6 -27 -48 -195 -50 -198 -2 -3 -256 155 -267
167 -6 5 47 243 67 298 4 11 231 -119 263 -151z m1118 103 c6 -24 19 -80 29
-124 9 -44 21 -90 26 -102 7 -19 4 -26 -19 -40 -15 -9 -49 -31 -77 -48 -27
-18 -77 -48 -110 -68 -69 -41 -63 -47 -91 78 -10 44 -19 85 -21 90 -25 98 -25
99 -2 118 13 10 54 37 93 60 38 23 86 52 105 64 20 12 40 20 45 19 5 -1 15
-22 22 -47z m-2846 -3 l72 -1 28 -95 c15 -52 44 -153 64 -224 20 -70 35 -131
32 -134 -3 -3 -39 -14 -78 -24 -62 -15 -121 -29 -354 -83 -18 -4 -30 10 -79
93 -32 53 -110 180 -172 280 -62 101 -113 188 -113 193 0 7 96 8 264 3 145 -3
296 -7 336 -8z m4894 -16 c-15 -26 -126 -209 -258 -422 -43 -71 -81 -130 -85
-133 -4 -2 -30 2 -57 10 -27 8 -98 26 -159 40 -171 40 -235 57 -235 65 0 3 21
78 46 166 25 87 52 184 60 214 8 30 19 59 24 64 4 4 136 10 292 13 155 3 285
7 287 9 2 2 26 3 52 2 l47 -2 -14 -26z m-5454 -95 c127 -206 239 -391 259
-426 l20 -37 -22 -5 c-12 -3 -53 -13 -92 -22 -38 -9 -77 -18 -85 -20 -8 -3
-53 -13 -100 -24 -47 -11 -113 -26 -147 -35 -151 -38 -188 -47 -199 -44 -13 3
45 182 115 358 56 139 167 360 181 360 3 0 34 -47 70 -105z m1122 92 c8 -7 22
-37 30 -67 9 -30 37 -126 63 -212 25 -87 44 -162 40 -168 -4 -6 -33 -8 -73 -5
-37 3 -138 7 -225 9 -87 2 -160 6 -164 9 -7 8 -70 217 -84 282 -6 28 -17 61
-24 75 -7 14 -16 40 -20 57 l-6 32 224 0 c159 0 229 -4 239 -12z m3633 -23
c-8 -20 -17 -46 -20 -58 -3 -11 -11 -43 -20 -71 -8 -27 -29 -99 -46 -160 -35
-122 -42 -135 -73 -134 -11 1 -114 -2 -228 -5 -187 -6 -208 -5 -208 10 0 9 18
75 40 147 23 73 47 155 55 182 8 28 18 64 23 80 l9 30 104 3 c57 1 115 3 129
5 14 2 76 4 138 5 l113 3 -16 -37z m817 -131 c85 -176 131 -289 178 -438 17
-55 33 -106 36 -114 3 -10 -2 -12 -23 -6 -16 4 -39 9 -53 11 -14 3 -52 12 -85
21 -33 8 -69 17 -80 19 -35 7 -400 98 -404 101 -2 1 5 15 15 30 10 15 69 111
131 213 61 102 130 215 153 253 22 37 44 67 48 67 5 0 42 -71 84 -157z m-4197
82 c44 -13 114 -34 155 -47 l74 -23 3 -162 2 -161 -72 4 c-40 3 -112 6 -161 7
l-89 3 -19 74 c-10 41 -37 134 -59 205 -22 72 -42 137 -45 147 -5 18 6 15 211
-47z m2864 -12 c-11 -38 -33 -111 -49 -163 -16 -52 -37 -121 -45 -152 l-16
-58 -77 -1 c-42 -1 -113 -2 -157 -3 l-80 -1 2 160 1 160 64 18 c34 10 81 23
103 28 22 6 49 15 60 19 23 10 184 57 202 59 7 1 5 -21 -8 -66z m-1462 -100
c37 -71 69 -133 71 -138 1 -6 -29 -44 -68 -85 l-70 -75 -61 60 c-93 92 -92 79
-13 232 38 73 70 133 71 133 1 0 32 -57 70 -127z m-286 -105 l40 -48 -48 -90
c-26 -49 -51 -90 -54 -90 -4 0 -36 18 -70 40 -35 22 -74 44 -86 50 -13 5 -23
14 -23 19 0 9 32 143 61 255 l11 39 65 -64 c35 -35 83 -85 104 -111z m630 81
c11 -46 22 -91 24 -99 2 -8 8 -35 14 -60 7 -33 7 -47 -2 -52 -77 -51 -170 -99
-177 -92 -11 12 -90 169 -90 180 0 10 202 215 207 210 2 -2 13 -41 24 -87z
m-1361 21 c52 -16 106 -31 120 -34 14 -3 30 -9 37 -14 14 -9 28 -322 14 -322
-5 0 -50 13 -100 29 -50 16 -114 35 -142 42 -28 7 -53 18 -55 24 -1 5 -4 79
-6 163 -4 149 -4 152 17 146 11 -3 63 -18 115 -34z m2032 -117 c-1 -82 -4
-153 -6 -159 -3 -6 -26 -17 -53 -24 -26 -7 -90 -25 -141 -41 -51 -16 -97 -29
-102 -29 -15 0 -12 308 3 317 17 10 259 80 282 82 19 1 20 -4 17 -146z m-1705
-34 c65 -40 121 -75 126 -79 7 -6 -35 -196 -46 -207 -3 -2 -51 10 -106 29
l-101 33 -1 95 c-1 52 -2 119 -3 148 0 28 2 52 6 52 4 0 60 -32 125 -71z
m1370 -79 c-2 -83 -6 -152 -8 -153 -3 -3 -103 -30 -191 -54 -11 -3 -18 2 -19
11 -1 9 -2 19 -3 24 -42 173 -42 168 1 192 21 11 76 45 123 75 47 30 89 55 93
55 5 0 6 -68 4 -150z m-3784 100 l46 -21 -18 -43 c-49 -113 -126 -381 -167
-581 -2 -11 -7 -31 -9 -45 -3 -14 -8 -43 -11 -65 -3 -22 -8 -42 -10 -45 -6 -5
-71 -1 -96 6 -14 4 -17 13 -12 42 15 106 41 227 89 407 33 126 118 365 130
365 7 0 33 -9 58 -20z m6155 -42 c29 -80 69 -197 86 -253 44 -146 97 -403 100
-480 1 -30 0 -30 -55 -33 l-57 -3 -7 48 c-3 26 -9 64 -12 83 -22 152 -113 475
-178 633 -6 13 2 21 36 37 24 11 49 20 56 20 6 0 20 -24 31 -52z m-3203 -68
c37 -39 66 -72 64 -74 -2 -2 -35 -6 -74 -9 -69 -6 -118 -13 -142 -22 -7 -2
-13 -1 -13 3 0 11 84 172 91 172 3 0 36 -32 74 -70z m291 -16 c24 -43 43 -83
44 -88 0 -4 -10 -5 -22 -2 -50 15 -66 17 -141 23 l-78 6 68 72 c37 40 72 72
77 71 5 -1 29 -38 52 -82z m-619 -24 c24 -16 46 -30 49 -30 3 0 18 -10 35 -22
l29 -22 -22 -13 c-13 -7 -30 -13 -38 -13 -8 0 -46 -16 -85 -34 -38 -19 -71
-33 -72 -32 -2 1 35 164 42 184 6 17 12 16 62 -18z m884 18 c1 -17 5 -36 17
-83 17 -62 23 -107 15 -103 -4 2 -30 14 -58 27 -27 13 -74 34 -103 46 l-53 21
28 15 c16 8 33 18 38 22 21 17 100 65 108 66 4 1 7 -5 8 -11z m-2387 -30 c79
-128 216 -357 221 -369 8 -21 -17 -28 -305 -94 -58 -13 -114 -27 -126 -30 -16
-5 -25 2 -47 42 -16 26 -71 117 -123 202 -96 156 -100 170 -51 171 23 0 22 0
59 11 18 6 40 12 48 14 8 2 35 9 60 15 25 6 68 16 95 21 28 5 69 15 90 23 55
20 62 19 79 -6z m282 10 l193 -3 19 -65 c11 -36 30 -101 42 -145 13 -44 25
-85 27 -91 4 -11 -27 -22 -157 -53 -162 -37 -142 -43 -205 62 -31 51 -83 135
-115 187 -32 52 -59 100 -59 107 -1 8 10 11 31 8 17 -2 118 -5 224 -7z m3519
-16 c-3 -9 -31 -56 -61 -104 -30 -49 -79 -128 -110 -178 -34 -55 -62 -90 -72
-90 -23 0 -280 65 -288 72 -5 6 52 213 78 280 11 31 8 30 321 35 127 2 138 1
132 -15z m97 8 c24 -6 107 -26 185 -45 78 -19 159 -38 180 -41 21 -3 40 -7 42
-9 2 -2 -41 -76 -95 -163 -55 -88 -111 -180 -125 -204 l-27 -45 -168 43 c-93
24 -187 47 -209 50 -92 15 -92 12 -27 116 31 51 87 141 122 200 36 60 68 108
72 108 4 0 27 -5 50 -10z m-3071 -23 c6 -9 8 -17 5 -17 -3 0 3 -23 14 -51 11
-27 25 -69 30 -92 5 -23 16 -63 24 -89 l15 -47 -140 0 c-76 0 -150 4 -162 8
-20 8 -30 32 -65 155 -23 80 -42 148 -42 151 0 4 70 5 156 3 134 -3 157 -6
165 -21z m2499 14 c0 -4 -8 -34 -19 -67 -10 -32 -26 -88 -36 -124 -28 -105
-29 -107 -77 -114 -47 -7 -258 -7 -268 -1 -4 2 13 72 38 154 l45 150 86 3
c182 6 231 6 231 -1z m-2319 -56 c68 -20 127 -39 131 -43 4 -4 8 -52 10 -107
l3 -100 -107 -3 -107 -3 -9 33 c-6 18 -24 81 -41 139 -35 119 -37 133 -18 126
7 -3 69 -21 138 -42z m1972 23 c-3 -13 -9 -27 -13 -33 -4 -5 -22 -63 -41 -127
l-33 -118 -41 -2 c-22 0 -69 -1 -105 -2 l-64 -1 1 65 c2 169 -1 157 37 164 18
4 80 22 137 40 127 42 129 42 122 14z m-1083 -71 l0 -54 -84 -6 c-87 -6 -239
-51 -301 -89 -16 -10 -33 -18 -36 -18 -3 0 -18 22 -32 49 l-27 49 83 34 c136
58 147 61 237 74 18 2 35 6 37 8 2 1 30 4 63 5 l60 2 0 -54z m170 43 c30 -5
67 -12 82 -15 42 -8 167 -55 221 -82 l48 -24 -16 -27 c-40 -66 -36 -65 -101
-36 -115 51 -242 84 -326 84 -23 0 -38 5 -39 13 -1 6 -3 31 -4 55 l-3 42 41 0
c23 0 67 -4 97 -10z m-2545 -63 c10 -17 35 -59 55 -92 38 -66 78 -130 128
-208 17 -28 32 -56 32 -63 0 -10 -56 -42 -310 -177 -41 -22 -80 -44 -85 -48
-6 -4 -51 31 -107 84 -53 51 -162 155 -242 231 -80 77 -146 143 -146 147 0 4
35 14 78 23 42 9 111 26 152 37 41 11 84 22 95 24 109 25 236 56 260 64 53 16
69 13 90 -22z m5095 -41 c146 -35 289 -69 318 -76 28 -7 52 -15 52 -19 0 -4
-51 -53 -112 -110 -62 -57 -154 -142 -203 -190 -50 -47 -109 -103 -132 -125
l-41 -38 -94 49 c-51 28 -111 60 -133 73 -22 12 -70 38 -107 57 -37 19 -70 38
-72 42 -3 4 17 43 44 87 27 43 81 134 122 200 40 67 77 120 83 118 5 -2 129
-32 275 -68z m-3375 39 c22 -8 47 -15 55 -15 8 -1 28 -6 43 -13 l29 -12 -64
-47 c-34 -25 -78 -58 -95 -73 l-33 -26 -2 23 c-1 13 -2 58 -3 101 -2 86 -1 87
70 62z m1417 -91 c-3 -98 -5 -105 -20 -91 -26 21 -127 99 -158 121 l-27 19 22
9 c12 4 32 10 44 12 12 3 45 11 72 19 28 8 55 15 60 16 6 1 9 -38 7 -105z
m-4027 -19 c-15 -59 -76 -378 -80 -425 -1 -8 -4 -40 -8 -70 -9 -73 -16 -191
-17 -266 l0 -61 -47 2 c-27 1 -53 2 -60 3 -21 3 -7 255 28 492 19 128 47 262
70 341 l11 36 55 -16 c46 -14 53 -19 48 -36z m2770 45 c-3 -5 3 -27 15 -49 11
-22 20 -42 20 -45 0 -3 -24 -21 -52 -40 -66 -43 -177 -154 -225 -223 l-36 -52
-38 19 c-21 11 -41 24 -44 30 -7 11 42 85 109 163 44 50 142 135 210 179 47
30 49 32 41 18z m415 -119 l-80 -119 -125 62 c-69 33 -125 64 -125 67 0 15
188 85 255 96 17 3 31 6 33 8 1 1 30 3 63 4 l60 1 -81 -119z m245 109 c22 -5
55 -12 74 -15 39 -7 169 -59 195 -78 15 -11 0 -20 -108 -71 -68 -32 -129 -55
-135 -52 -10 7 -151 211 -151 221 0 8 81 5 125 -5z m438 -35 c67 -45 223 -204
263 -271 l32 -50 -42 -22 c-22 -12 -44 -22 -48 -22 -4 0 -25 26 -47 58 -42 63
-172 190 -233 228 l-37 24 27 45 c15 24 28 45 30 45 1 0 26 -16 55 -35z m2812
13 c13 -61 27 -125 31 -148 2 -14 8 -45 14 -70 7 -38 14 -76 25 -160 15 -109
24 -221 29 -357 5 -114 5 -113 -71 -105 l-43 4 -1 72 c-1 39 -2 87 -4 106 -13
155 -17 204 -26 265 -6 39 -12 81 -15 95 -2 14 -11 61 -19 106 -8 44 -21 105
-29 135 l-14 54 37 12 c58 18 80 16 86 -9z m-3327 -90 c38 -57 71 -108 75
-114 4 -7 -23 -25 -68 -48 l-75 -36 -75 35 c-41 19 -75 38 -75 42 0 8 142 223
147 223 2 0 33 -46 71 -102z m-3049 -61 c141 -138 279 -269 331 -316 33 -29
39 -40 29 -47 -18 -11 -89 -50 -171 -93 -36 -20 -113 -61 -170 -92 -57 -31
-125 -69 -153 -84 -27 -15 -54 -31 -60 -36 -24 -24 -27 -2 -21 143 4 84 9 155
11 158 2 3 6 28 9 55 3 28 8 59 10 70 2 11 7 43 10 70 6 47 27 150 48 238 5
20 12 37 15 37 3 0 54 -46 112 -103z m6079 87 c-3 -3 0 -29 8 -57 47 -175 106
-707 78 -707 -3 0 -39 18 -80 40 -41 22 -109 59 -151 82 -148 78 -328 180
-338 190 -7 6 0 18 20 35 26 22 168 155 395 370 30 29 59 53 64 53 5 0 7 -3 4
-6z m-4395 -91 c19 -32 56 -93 82 -136 26 -43 46 -80 44 -81 -2 -2 -58 -16
-124 -30 -66 -15 -134 -31 -151 -35 -35 -9 -23 -23 -126 148 -38 62 -67 115
-65 118 2 2 14 6 26 8 11 3 29 7 39 9 39 10 227 54 233 55 4 1 22 -25 42 -56z
m298 38 c6 -6 47 -140 55 -178 5 -24 12 -21 -131 -57 l-60 -15 -20 26 c-39 50
-142 228 -138 236 6 10 285 -2 294 -12z m534 -73 c-3 -51 -8 -114 -11 -140
l-6 -46 -96 -6 c-53 -4 -116 -9 -139 -12 -24 -3 -43 -1 -43 4 0 14 50 80 111
146 51 56 163 146 181 146 5 0 6 -42 3 -92z m1052 -5 c54 -47 163 -179 163
-197 0 -4 -30 -5 -67 -2 -109 8 -208 17 -209 19 -1 1 -5 65 -9 141 l-8 139 34
-23 c19 -13 62 -48 96 -77z m703 86 c0 -5 -34 -65 -77 -134 -51 -84 -81 -124
-90 -121 -7 3 -54 15 -103 27 -75 17 -90 24 -85 37 3 10 17 55 33 102 l27 85
85 6 c120 8 210 7 210 -2z m105 -2 c45 -12 151 -38 170 -42 11 -3 32 -7 48
-11 15 -3 27 -8 27 -11 0 -4 -156 -260 -166 -271 -1 -2 -31 4 -66 13 -34 9
-72 18 -83 20 -67 14 -155 40 -155 47 0 5 24 46 53 92 28 46 65 105 80 131 29
49 27 48 92 32z m-2198 -50 c-23 -27 -57 -72 -76 -100 l-34 -51 -28 89 c-15
50 -28 96 -28 103 -1 10 23 12 103 10 l104 -2 -41 -49z m488 -3 c86 -41 115
-60 111 -71 -8 -19 -76 -122 -85 -128 -4 -2 -43 -5 -86 -7 l-79 -3 4 55 c2 30
4 67 5 83 2 15 3 50 4 77 0 28 3 50 5 50 3 0 57 -25 121 -56z m754 -6 c1 -35
4 -96 7 -137 l5 -73 -73 6 c-40 4 -80 9 -88 12 -14 4 -105 133 -98 139 6 6
233 115 239 115 3 0 7 -28 8 -62z m525 38 c-4 -11 -19 -59 -33 -106 l-27 -84
-26 45 c-14 24 -47 70 -72 100 -25 31 -46 58 -46 60 0 3 47 5 105 6 104 1 106
1 99 -21z m-2596 -103 c18 -32 54 -91 78 -132 27 -44 42 -77 36 -83 -10 -10
-261 -148 -269 -148 -3 0 -80 71 -170 157 l-165 157 89 21 c83 21 200 48 254
61 54 13 95 22 104 23 6 0 25 -25 43 -56z m3477 11 c77 -19 154 -37 170 -40
17 -3 38 -10 47 -15 9 -5 27 -9 40 -9 20 -1 21 -2 7 -13 -20 -15 -288 -267
-307 -289 -18 -20 -25 -17 -176 69 -60 35 -112 63 -117 63 -13 0 -11 8 9 38
40 58 90 139 107 172 25 51 46 72 64 65 9 -4 79 -22 156 -41z m-1938 -46 c40
-18 73 -36 73 -40 0 -15 -91 -149 -98 -146 -4 2 -37 18 -74 36 -38 18 -68 37
-68 42 0 12 82 139 90 140 3 0 38 -15 77 -32z m308 -39 c45 -67 46 -71 29 -84
-11 -8 -22 -15 -27 -15 -4 0 -31 -11 -60 -26 l-52 -25 -18 24 c-10 13 -32 47
-48 75 l-29 52 42 21 c24 12 45 22 48 22 3 0 14 6 25 13 11 8 25 14 31 14 6 0
33 -32 59 -71z m-2247 -92 c64 -62 141 -135 169 -163 l52 -49 -100 -55 c-55
-30 -148 -82 -208 -116 l-107 -61 -172 166 -172 166 112 62 c62 34 154 84 203
112 50 27 93 50 98 50 4 1 60 -50 125 -112z m4260 67 c37 -21 117 -64 177 -97
61 -33 120 -65 132 -71 30 -14 29 -18 -11 -52 -18 -16 -93 -85 -165 -154 -73
-69 -137 -126 -142 -128 -4 -2 -46 16 -91 40 -97 51 -311 169 -318 175 -8 7
328 323 343 323 4 0 38 -16 75 -36z m-3199 -95 c-22 -47 -39 -91 -39 -97 0 -6
-4 -13 -9 -16 -8 -6 -81 95 -81 113 0 5 -7 14 -15 21 -22 18 -18 30 8 30 12 0
51 8 87 18 35 10 70 19 76 19 6 0 -5 -38 -27 -88z m1998 69 c51 -13 93 -25 93
-28 0 -3 -24 -45 -54 -94 l-54 -89 -12 43 c-7 24 -23 67 -37 94 -34 71 -44 96
-35 96 4 0 49 -10 99 -22z m-1883 -20 c22 -13 42 -23 44 -24 2 -1 -8 -24 -21
-51 -40 -80 -70 -183 -81 -283 l-11 -95 -54 -3 -53 -3 6 68 c7 80 27 178 51
248 20 58 67 165 73 165 2 0 23 -10 46 -22z m1786 -58 c50 -114 86 -266 85
-360 l0 -35 -52 0 -53 0 -1 40 c-3 92 -23 181 -65 286 -19 48 -34 90 -34 95 1
7 82 55 86 50 1 0 16 -35 34 -76z m-2047 -12 c20 -35 46 -77 57 -94 l21 -32
-62 -32 c-33 -17 -77 -41 -97 -52 l-35 -20 -110 110 -110 110 39 11 c21 5 50
12 64 15 14 3 48 10 75 16 28 6 61 13 73 15 13 2 26 6 30 9 11 12 19 5 55 -56z
m830 50 c6 -18 -4 -151 -12 -160 -7 -8 -158 -14 -166 -7 -2 3 -1 41 3 85 l7
79 40 6 c72 11 123 10 128 -3z m735 -2 c1 -2 5 -43 8 -91 l5 -87 -83 7 c-45 3
-84 8 -86 10 -6 6 -14 147 -9 159 4 9 28 12 83 9 43 -2 80 -5 82 -7z m-933
-60 c-1 -33 -3 -71 -4 -83 -1 -16 -21 -36 -71 -69 -39 -26 -72 -45 -74 -43 -5
5 -116 241 -116 246 0 2 3 2 8 0 4 -3 48 -2 97 2 50 3 107 7 127 7 l36 2 -3
-62z m1109 50 c59 -3 110 -7 113 -9 2 -3 -22 -59 -54 -125 l-59 -120 -47 34
c-26 19 -51 34 -56 34 -26 0 -41 47 -41 123 0 70 2 78 18 73 9 -3 66 -7 126
-10z m605 0 c4 -3 21 -8 37 -10 16 -3 40 -8 54 -11 14 -3 40 -8 58 -11 18 -3
35 -10 38 -15 3 -5 10 -7 15 -4 5 4 9 2 9 -2 0 -8 -53 -60 -171 -171 l-45 -43
-90 47 c-49 26 -91 49 -93 50 -2 2 21 44 50 94 l54 91 38 -5 c21 -3 42 -8 46
-10z m-970 -68 c1 -34 4 -65 7 -70 3 -4 -1 -8 -8 -9 -7 0 -22 -2 -33 -5 -36
-7 -63 6 -85 42 -26 41 -23 47 43 80 69 35 73 33 76 -38z m-3499 38 c25 -3 25
-4 20 -82 -7 -115 -6 -566 2 -656 l7 -77 -37 -7 c-20 -3 -44 -8 -54 -10 -9 -3
-19 -1 -22 4 -26 43 -27 791 0 834 3 4 17 5 32 2 15 -2 38 -6 52 -8z m2501
-53 c17 -38 45 -93 60 -124 l28 -57 -66 -43 c-36 -24 -79 -52 -97 -62 -17 -11
-42 -29 -55 -40 l-24 -22 7 75 c4 41 16 110 27 153 20 78 67 187 81 187 4 0
21 -30 39 -67z m1538 19 c42 -83 100 -352 75 -352 -13 0 -224 144 -224 153 0
15 114 237 122 237 4 0 16 -17 27 -38z m2515 23 c20 -54 29 -557 12 -705 -4
-41 -8 -86 -8 -99 0 -24 -11 -25 -116 -11 -3 0 7 153 14 205 6 52 4 346 -3
435 -3 47 -7 105 -7 130 l-1 44 39 4 c22 1 42 5 45 7 9 9 19 5 25 -10z m-4574
-238 c-3 -2 -50 -28 -105 -57 -55 -29 -116 -63 -135 -75 l-36 -22 -118 114
c-65 62 -117 115 -115 116 14 8 55 30 129 69 47 25 100 54 118 65 l33 21 117
-114 c64 -62 114 -115 112 -117z m2766 214 c10 -10 30 -22 159 -91 44 -23 83
-46 88 -49 7 -7 -214 -221 -229 -221 -6 0 -260 136 -273 146 -5 5 228 223 240
224 3 0 9 -4 15 -9z m-1526 -58 c0 -4 -20 -37 -45 -74 l-45 -66 -62 -2 c-35
-1 -71 -4 -80 -7 -16 -5 -18 2 -18 45 0 56 8 63 73 57 20 -2 37 0 37 3 0 4 14
26 31 49 l30 42 40 -20 c21 -11 39 -23 39 -27z m142 0 c31 -45 36 -48 82 -50
56 -2 63 -10 62 -61 -1 -34 -3 -37 -28 -36 -16 1 -52 2 -82 3 l-53 1 -48 71
c-44 67 -46 73 -29 83 41 24 59 34 61 35 1 1 17 -20 35 -46z m-2541 -155 l170
-163 -108 -104 c-59 -57 -136 -131 -171 -165 l-62 -61 -78 40 c-42 22 -88 47
-102 56 -14 9 -59 34 -100 56 -211 113 -310 168 -310 175 0 9 91 63 219 130
52 28 108 59 125 69 17 10 56 31 86 46 30 14 75 39 99 55 25 15 49 28 54 28 5
0 85 -73 178 -162z m5184 62 c66 -37 172 -96 235 -130 63 -34 130 -72 148 -83
l33 -20 -38 -21 c-21 -12 -78 -44 -128 -70 -49 -26 -94 -52 -100 -56 -5 -4
-41 -24 -80 -45 -109 -58 -177 -96 -213 -117 -39 -24 -29 -30 -172 108 -58 57
-130 125 -160 153 l-54 50 99 93 c54 51 133 125 174 164 l76 72 30 -15 c16 -9
84 -46 150 -83z m-2731 -5 c40 -59 51 -69 81 -71 80 -5 115 -8 115 -10 0 -1
-13 -31 -30 -66 -16 -34 -30 -69 -30 -76 0 -7 14 -40 31 -73 17 -34 29 -63 27
-65 -2 -2 -37 -7 -77 -10 l-72 -7 -40 -58 c-22 -33 -42 -59 -44 -59 -2 0 -23
27 -45 60 -22 33 -46 60 -53 61 -35 1 -132 11 -135 14 -2 2 10 30 27 64 17 33
31 67 31 76 0 9 -13 42 -30 75 -16 33 -30 62 -30 65 0 3 15 5 34 5 18 0 53 3
77 6 41 6 47 11 81 65 21 32 39 59 42 59 2 0 20 -25 40 -55z m-471 -30 c20
-42 37 -77 37 -79 0 -4 -96 -68 -127 -84 -21 -12 -24 -8 -58 64 l-36 76 22 17
c67 47 115 80 119 80 3 1 22 -33 43 -74z m990 20 c31 -21 57 -42 57 -46 0 -5
-16 -40 -36 -78 -28 -54 -40 -68 -52 -63 -15 5 -103 63 -125 83 -13 11 73 161
87 151 6 -4 37 -25 69 -47z m-1587 28 c-12 -37 -23 -122 -25 -192 l-1 -33 -57
52 c-31 28 -65 63 -75 76 l-20 24 44 20 c24 11 63 31 88 45 54 29 53 29 46 8z
m2159 -36 c39 -22 72 -41 73 -43 2 -1 -29 -34 -70 -73 l-73 -70 -12 97 c-7 53
-15 107 -18 119 -6 27 2 25 100 -30z m-2743 -150 c26 -26 48 -52 48 -56 0 -5
-52 -57 -115 -116 -84 -79 -118 -105 -127 -97 -7 5 -69 40 -138 77 -190 103
-235 127 -239 132 -9 8 27 32 129 85 155 82 223 119 245 134 21 15 32 6 197
-159z m3474 128 c149 -79 324 -179 324 -184 0 -5 -39 -28 -221 -127 -31 -17
-83 -46 -114 -64 -66 -38 -44 -49 -214 114 -79 76 -81 80 -64 97 56 53 216
199 219 199 2 0 34 -16 70 -35z m-2464 -92 c17 -38 31 -76 30 -85 0 -14 -56
-136 -67 -146 -2 -2 -53 29 -115 69 -91 59 -109 74 -98 85 13 12 210 144 216
144 2 0 17 -30 34 -67z m388 -82 c0 -22 -63 -151 -74 -151 -6 1 -24 12 -41 25
l-29 24 23 47 24 47 -26 52 -25 52 41 27 42 27 32 -68 c18 -37 32 -74 33 -82z
m563 101 c8 -11 6 -24 -11 -55 -27 -51 -27 -64 -2 -102 28 -42 25 -51 -17 -78
l-38 -24 -38 75 -39 75 39 77 38 78 28 -17 c16 -9 34 -22 40 -29z m-1526 -13
c26 -25 59 -58 72 -73 l25 -27 -69 -69 c-72 -72 -87 -79 -120 -56 -11 7 -66
37 -123 66 -57 29 -101 57 -100 62 4 11 249 147 260 145 3 -1 28 -23 55 -48z
m1862 29 c20 -12 69 -46 109 -75 l73 -52 -93 -61 c-51 -34 -101 -69 -111 -78
-9 -8 -19 -13 -21 -11 -2 2 -21 37 -41 78 l-38 75 37 73 c20 40 39 73 42 73 4
0 23 -10 43 -22z m618 -14 c139 -74 193 -106 193 -112 0 -7 -33 -26 -159 -93
-41 -22 -80 -44 -88 -50 -10 -9 -30 6 -88 62 -41 40 -75 77 -75 82 0 8 138
145 147 147 1 0 33 -16 70 -36z m-806 -101 c7 -7 10 -15 8 -17 -16 -13 -122
-77 -124 -74 -11 13 -35 71 -35 85 0 10 9 33 20 50 l19 33 51 -32 c27 -17 55
-37 61 -45z m-3877 -167 c3 -78 8 -157 11 -176 2 -19 7 -60 10 -90 7 -67 51
-312 69 -380 15 -58 10 -64 -61 -76 l-39 -6 -14 59 c-8 32 -14 60 -15 63 -7
27 -26 122 -30 150 -3 19 -8 42 -10 50 -2 8 -7 42 -10 75 -3 33 -8 74 -10 90
-9 69 -18 196 -20 286 l-2 95 57 0 57 1 7 -141z m1207 118 c6 -8 16 -14 21
-14 5 0 43 -20 86 -44 42 -24 113 -62 157 -86 44 -23 84 -46 89 -51 5 -5 -41
-56 -109 -121 -66 -62 -141 -134 -168 -160 -27 -27 -53 -48 -58 -48 -5 0 -26
10 -47 23 -21 12 -47 27 -57 34 -11 6 -65 35 -120 63 -55 29 -119 64 -142 77
l-43 25 28 28 c15 16 91 89 170 163 145 137 163 147 193 111z m747 -31 c59
-31 122 -64 140 -72 17 -8 32 -18 32 -22 0 -13 -223 -220 -234 -217 -9 3 -264
136 -274 144 -2 1 43 46 99 100 56 55 107 104 113 111 6 7 12 12 14 13 1 0 51
-26 110 -57z m507 45 c1 -2 6 -40 9 -85 7 -84 44 -211 85 -291 12 -24 21 -45
19 -46 -2 -1 -22 -14 -46 -29 l-43 -28 -34 75 c-44 96 -71 190 -86 297 -16
110 -13 116 46 113 26 -2 49 -4 50 -6z m263 -143 c2 -2 -25 -61 -59 -131 l-62
-129 -29 63 c-38 78 -65 184 -74 280 l-7 74 114 -77 c63 -43 115 -79 117 -80z
m191 110 c56 -36 69 -49 63 -63 -23 -54 -67 -132 -75 -132 -6 0 -102 60 -135
85 -4 4 66 155 72 155 3 0 37 -20 75 -45z m1045 -31 c20 -42 36 -77 36 -78 0
-6 -141 -98 -144 -95 -6 7 -76 148 -76 154 0 6 131 93 141 94 4 1 23 -33 43
-75z m291 -73 c-25 -115 -78 -261 -95 -261 -4 0 -33 54 -64 120 -45 94 -55
124 -46 134 6 8 38 31 71 53 33 21 79 52 102 69 l42 30 3 -34 c2 -19 -4 -69
-13 -111z m148 109 c0 -60 -14 -152 -34 -227 -19 -70 -83 -213 -95 -213 -17 0
-84 45 -80 55 76 173 101 264 105 382 1 34 10 39 70 38 32 0 34 -2 34 -35z
m181 -109 c-11 -11 -169 -100 -172 -97 -1 2 2 23 7 47 5 24 13 79 17 122 l7
77 73 -72 c41 -39 71 -74 68 -77z m452 39 c62 -58 113 -108 113 -112 1 -3 -63
-40 -140 -82 l-142 -76 -114 113 -115 114 78 43 c44 24 99 54 124 68 25 13 49
28 55 33 5 5 13 8 19 6 5 -2 60 -50 122 -107z m704 -20 c39 -34 210 -203 208
-205 -2 -1 -95 -53 -207 -115 l-203 -112 -107 104 c-58 58 -134 131 -168 163
-35 32 -63 61 -63 64 0 3 33 24 73 45 39 21 97 54 127 72 30 18 89 50 130 72
l75 39 59 -56 c32 -31 66 -63 76 -71z m-5405 39 c6 -4 100 -55 210 -114 110
-58 206 -112 214 -119 11 -12 -4 -30 -90 -112 -265 -253 -373 -353 -380 -354
-4 0 -9 15 -12 33 -2 17 -11 64 -20 102 -14 62 -36 202 -52 320 -2 22 -8 105
-11 183 l-7 144 69 -37 c38 -21 74 -41 79 -46z m1995 44 c1 -48 9 -108 20
-152 5 -19 8 -37 6 -39 -3 -3 -147 68 -176 86 -6 4 132 141 143 142 4 0 7 -17
7 -37z m4552 -78 c-3 -135 -25 -337 -52 -487 -20 -112 -54 -256 -63 -264 -3
-4 -94 15 -105 22 -2 1 4 31 12 68 9 36 18 78 21 94 3 15 7 38 10 52 3 14 8
39 10 55 3 17 8 37 10 45 2 8 7 42 10 75 3 33 10 96 15 140 5 44 12 133 16
198 l7 118 56 -3 56 -3 -3 -110z m-302 38 c-1 -92 -23 -321 -40 -403 -5 -25
-14 -72 -20 -105 -15 -87 -18 -105 -32 -157 l-12 -48 -65 63 c-37 34 -146 138
-244 231 l-177 168 47 25 c27 14 66 35 88 48 22 12 72 39 110 60 65 36 197
109 290 161 22 12 43 23 48 23 4 1 7 -29 7 -66z m-3352 -77 c30 -2 55 -6 56
-8 2 -2 22 -32 46 -67 34 -50 40 -65 29 -73 -20 -13 -67 -38 -73 -38 -2 0 -16
20 -30 44 -25 43 -28 45 -79 48 l-52 3 -3 39 c-4 52 2 66 30 61 13 -2 47 -6
76 -9z m430 -13 c0 -10 -1 -32 -4 -48 -4 -29 -6 -30 -61 -33 -32 -2 -59 -6
-61 -10 -1 -4 -11 -22 -23 -41 -18 -29 -24 -33 -51 -27 -32 6 -58 23 -58 36 0
6 18 32 78 110 18 23 28 26 99 28 71 3 80 1 81 -15z m-1403 -38 c44 -24 80
-50 80 -57 0 -20 -96 -178 -109 -178 -6 0 -54 12 -106 26 -52 14 -106 27 -120
30 -41 8 -60 15 -59 22 3 15 208 202 220 202 8 -1 50 -21 94 -45z m2468 -56
c59 -55 105 -104 102 -109 -3 -4 -22 -11 -42 -15 -21 -5 -42 -9 -48 -11 -14
-4 -95 -22 -152 -34 -25 -6 -47 -9 -48 -8 -12 15 -105 171 -105 176 0 4 33 25
73 46 39 21 76 42 82 47 18 17 31 8 138 -92z m-1892 48 l64 -42 6 -75 c7 -106
9 -104 -75 -95 -39 4 -95 9 -124 10 -30 2 -56 5 -58 8 -6 5 109 237 117 237 3
0 35 -19 70 -43z m1242 -72 c31 -63 57 -119 57 -124 0 -6 -8 -9 -17 -9 -10 1
-71 -2 -135 -6 l-117 -7 4 43 c2 24 4 62 4 86 1 41 3 44 69 87 37 24 69 44 72
45 3 0 31 -52 63 -115z m-2337 -16 c71 -38 132 -73 136 -77 4 -4 -28 -66 -71
-137 -94 -154 -58 -146 -340 -77 l-194 47 164 157 c90 87 167 158 170 158 3 0
64 -32 135 -71z m3607 -93 c88 -85 155 -156 150 -159 -4 -2 -44 -12 -88 -22
-44 -9 -102 -23 -130 -31 -27 -7 -61 -16 -75 -19 -14 -2 -48 -10 -77 -16 -29
-6 -58 -9 -65 -6 -12 4 -168 246 -168 260 0 3 28 20 63 37 89 46 170 91 182
101 25 24 57 1 208 -145z m-2247 104 c1 -14 3 -54 5 -90 l4 -65 -45 4 c-83 6
-122 10 -126 13 -2 2 -5 41 -6 86 l-4 83 85 -3 c82 -3 84 -4 87 -28z m750 -52
c-3 -45 -10 -84 -17 -88 -6 -4 -40 -8 -76 -9 -36 -1 -69 -4 -74 -7 -5 -3 -9
35 -9 85 0 103 -8 96 113 99 l68 2 -5 -82z m-1460 20 c9 -29 30 -80 45 -112
16 -33 29 -60 29 -61 0 -5 -189 41 -195 47 -3 3 97 177 102 178 1 0 9 -24 19
-52z m2071 -35 c57 -95 57 -95 -12 -108 -22 -5 -44 -9 -50 -11 -5 -1 -27 -5
-47 -9 l-38 -7 34 75 c19 42 38 92 42 111 3 20 9 36 13 36 3 0 30 -40 58 -87z
m-3449 -90 c108 -58 199 -108 201 -109 4 -4 -27 -59 -130 -225 -123 -200 -99
-181 -199 -159 -47 10 -132 30 -190 44 -58 15 -114 29 -125 31 -36 7 -250 58
-253 61 -3 1 91 93 283 275 168 159 200 189 208 189 5 0 97 -48 205 -107z
m5008 64 c22 -23 114 -112 205 -197 90 -85 180 -171 201 -191 42 -39 46 -49
22 -49 -13 0 -240 -52 -349 -80 -22 -6 -83 -20 -135 -31 -52 -11 -104 -23
-115 -26 -11 -2 -26 -5 -33 -6 -8 -1 -45 50 -83 113 -37 63 -91 152 -120 197
-28 45 -48 86 -45 91 3 5 20 15 38 22 18 8 44 21 58 31 14 9 61 35 105 58 44
23 107 57 140 76 33 19 62 35 65 35 3 0 23 -19 46 -43z m-2382 -67 c5 -5 -12
-39 -38 -77 l-46 -69 -75 35 c-41 19 -75 39 -75 43 0 4 20 40 45 78 l45 71 68
-36 c37 -20 71 -40 76 -45z m-319 23 c64 -102 66 -89 -19 -128 -41 -19 -77
-35 -80 -35 -4 0 -68 90 -90 127 -7 13 113 82 144 83 8 0 29 -21 45 -47z
m-1239 1 c77 -20 140 -37 142 -38 1 -2 -36 -63 -82 -137 -51 -81 -90 -133 -98
-130 -7 2 -23 5 -35 6 -12 2 -53 11 -90 20 -37 10 -72 18 -78 20 -23 5 -71 17
-82 20 -8 3 11 43 53 112 37 59 74 120 83 135 9 16 23 28 32 28 9 0 79 -16
155 -36z m2802 9 c36 -52 142 -231 142 -240 0 -6 -26 -16 -57 -23 -32 -7 -80
-19 -108 -26 -27 -7 -71 -16 -97 -19 l-46 -6 -43 73 c-23 40 -59 100 -80 133
-35 53 -37 61 -22 67 22 8 196 49 238 55 17 3 32 7 34 9 10 9 21 3 39 -23z
m-4683 -55 c8 -60 12 -80 21 -123 4 -16 8 -37 9 -45 10 -79 45 -202 111 -395
25 -71 47 -137 50 -145 3 -10 -11 -22 -46 -38 -29 -13 -54 -21 -57 -18 -12 12
-107 302 -139 424 -30 118 -74 335 -74 368 0 15 21 21 77 23 l41 1 7 -52z
m6501 19 c1 -9 -2 -32 -6 -50 -5 -17 -11 -48 -13 -67 -15 -111 -74 -336 -128
-490 -35 -97 -70 -190 -73 -190 -1 0 -26 11 -54 25 -44 21 -51 28 -43 43 25
48 120 344 136 422 2 8 8 35 15 60 7 25 21 94 31 153 10 60 21 112 23 116 3 4
28 4 57 1 40 -4 53 -9 55 -23z m-3866 7 c36 -3 68 -9 72 -12 3 -4 9 -63 13
-132 4 -68 9 -128 11 -132 16 -26 -50 15 -124 78 -56 46 -155 164 -168 199 -7
17 -13 17 196 -1z m1310 9 c0 -2 -11 -21 -25 -44 -47 -74 -237 -249 -270 -249
-3 0 -2 37 1 83 3 45 7 103 8 130 1 26 7 52 12 57 5 5 59 12 119 15 60 4 111
8 113 10 5 4 42 2 42 -2z m-1468 -117 c58 -74 122 -131 195 -178 l43 -28 -22
-45 c-12 -25 -27 -45 -33 -45 -20 0 -132 88 -203 159 -78 79 -153 182 -136
188 6 2 26 15 45 29 31 23 35 24 44 8 6 -9 35 -49 67 -88z m380 92 c47 -2 48
-3 93 -70 25 -37 45 -70 45 -72 0 -7 -230 -119 -234 -115 -7 7 -17 249 -11
260 4 5 19 8 33 5 15 -3 48 -7 74 -8z m782 -24 c-3 -47 -16 -239 -18 -240 0
-1 -54 24 -118 55 -67 32 -118 62 -118 70 0 7 20 42 45 76 l45 63 66 1 c37 0
69 3 72 6 13 13 27 -4 26 -31z m388 1 l37 -25 -35 -52 c-63 -95 -199 -222
-301 -282 -11 -6 -63 57 -63 76 0 4 19 20 43 34 59 38 191 168 228 226 17 26
36 48 43 48 6 0 28 -11 48 -25z m-1907 -1 c76 -15 136 -37 132 -47 -2 -7 -16
-53 -31 -102 l-28 -91 -150 -2 c-171 -3 -163 -9 -105 81 19 29 51 80 73 115
31 50 43 62 59 57 11 -3 34 -8 50 -11z m2288 -109 c43 -69 77 -128 77 -130 0
-3 -67 -4 -149 -3 -165 3 -154 -2 -167 70 -3 14 -13 50 -24 80 -10 29 -17 55
-15 59 2 3 30 11 62 18 32 7 69 17 83 21 50 17 56 12 133 -115z m-2075 3 c27
-40 59 -82 71 -92 11 -11 21 -22 21 -26 0 -4 -38 -8 -86 -9 -47 -1 -92 -5
-100 -8 -19 -7 -18 12 5 83 10 33 22 74 26 92 3 17 8 32 10 32 3 0 26 -33 53
-72z m1795 -23 c15 -52 27 -99 27 -103 0 -5 -26 -7 -57 -6 -32 2 -80 3 -107 3
l-48 1 44 53 c24 28 57 73 74 99 16 27 32 48 35 48 3 0 17 -43 32 -95z m-869
39 c42 -19 76 -38 76 -41 0 -6 -103 -164 -131 -201 l-18 -23 -75 112 c-42 62
-74 114 -73 115 2 2 139 72 144 74 0 0 35 -16 77 -36z m-2039 -29 c83 -21 155
-38 160 -39 55 -12 125 -30 125 -33 0 -2 -11 -20 -24 -41 -13 -20 -67 -108
-121 -194 -53 -87 -103 -158 -111 -158 -13 0 -101 20 -244 55 -30 7 -89 21
-131 30 l-77 16 63 102 c34 56 91 148 125 205 35 56 69 101 75 98 6 -2 78 -21
160 -41z m4152 -27 c119 -186 207 -337 201 -343 -2 -2 -46 -13 -98 -25 -148
-33 -221 -50 -270 -61 -93 -22 -80 -33 -210 181 -65 107 -116 198 -112 201 7
7 121 37 172 46 14 2 50 10 80 18 30 8 69 16 85 19 17 3 44 10 60 15 49 15 51
14 92 -51z m-2281 -110 c41 -59 74 -112 74 -117 0 -5 -8 -7 -17 -5 -10 2 -38
6 -63 8 -105 11 -320 81 -320 104 0 9 221 119 239 118 7 -1 46 -49 87 -108z
m405 50 l124 -61 -71 -33 c-39 -18 -82 -35 -95 -37 -13 -3 -51 -12 -84 -20
-73 -18 -155 -22 -155 -8 0 6 18 37 41 68 22 32 55 79 72 106 17 26 34 47 38
47 3 0 61 -28 130 -62z m-1793 -28 c105 -25 132 -35 132 -49 0 -9 -11 -50 -24
-91 -13 -41 -32 -103 -41 -136 l-17 -62 -92 -5 c-50 -4 -153 -6 -229 -7 l-137
0 20 38 c11 20 38 64 59 97 22 33 52 80 67 105 82 134 95 151 112 146 9 -3 77
-19 150 -36z m3265 -162 c98 -159 112 -187 96 -191 -10 -3 -80 -3 -156 0 -76
3 -171 6 -210 6 -44 1 -73 5 -73 11 0 6 -14 54 -31 106 -17 52 -33 105 -35
117 -2 12 -9 34 -14 47 -10 27 -3 37 34 42 12 2 75 16 141 32 66 16 123 26
127 23 3 -3 58 -90 121 -193z m-2458 96 c6 -6 40 -31 76 -56 l67 -46 -87 -25
c-47 -13 -93 -26 -101 -28 -13 -3 -15 13 -15 103 l-1 107 26 -22 c14 -12 30
-27 35 -33z m-325 38 c0 -5 -6 -28 -14 -53 -7 -24 -26 -87 -42 -139 -15 -52
-31 -99 -35 -104 -4 -5 -77 -10 -162 -11 l-154 -3 43 147 c24 80 44 149 44
152 0 3 59 7 132 8 73 1 133 3 135 4 6 7 53 6 53 -1z m238 -99 l-3 -108 -95
-28 c-137 -41 -194 -57 -197 -53 -2 1 1 16 6 32 5 16 24 76 41 134 17 58 33
110 34 115 2 6 49 12 110 13 l106 3 -2 -108z m1511 6 l3 -102 -35 6 c-19 3
-67 15 -107 27 l-72 22 48 33 c27 19 72 52 99 74 28 22 52 40 55 40 3 1 7 -45
9 -100z m261 -2 c17 -56 38 -122 46 -146 7 -25 12 -46 10 -49 -5 -5 -252 65
-277 79 -15 7 -17 25 -18 105 -1 53 1 99 4 103 2 5 49 8 104 9 l100 1 31 -102z
m314 82 c15 -15 92 -298 82 -302 -6 -2 -31 -3 -56 -1 -25 1 -92 3 -149 5 -61
2 -104 7 -106 13 -2 6 -22 74 -44 151 -23 77 -41 142 -41 145 0 7 307 -4 314
-11z m-1598 -87 c118 -33 163 -42 214 -42 l50 0 0 -56 0 -56 -67 6 c-74 7
-126 15 -183 31 -53 15 -76 23 -134 47 -105 43 -104 42 -57 114 l14 21 47 -23
c25 -12 78 -31 116 -42z m749 22 c15 -25 25 -46 23 -47 -1 -1 -17 -10 -34 -19
-91 -51 -384 -122 -430 -104 -11 4 -14 18 -12 56 l3 50 40 0 c93 0 220 37 382
109 0 1 13 -20 28 -45z m-3410 -33 c55 -12 123 -28 150 -36 28 -8 61 -16 75
-19 103 -19 280 -65 280 -72 0 -2 -50 -86 -112 -186 -61 -101 -138 -228 -171
-282 -71 -117 -57 -124 -158 82 -75 153 -122 270 -170 422 -16 52 -32 101 -34
109 -4 10 1 12 17 8 13 -3 68 -15 123 -26z m6015 12 c0 -15 -49 -160 -90 -268
-45 -120 -110 -259 -172 -373 -40 -72 -40 -73 -53 -48 -7 13 -81 137 -164 275
-83 138 -154 257 -157 265 -4 9 6 16 33 20 50 9 240 53 328 77 39 10 90 21
115 24 24 4 49 9 54 12 25 16 106 28 106 16z m-6302 -160 c24 -76 50 -151 57
-168 8 -16 27 -64 43 -105 16 -42 64 -143 105 -225 84 -164 83 -153 13 -191
-28 -16 -30 -15 -48 7 -52 67 -199 401 -268 609 -65 194 -64 182 -10 197 25 6
50 12 55 12 6 1 30 -61 53 -136z m6585 110 c9 -2 17 -9 17 -15 0 -23 -113
-339 -162 -452 -79 -183 -165 -346 -183 -346 -6 0 -29 12 -52 26 l-40 27 73
141 c85 166 146 312 204 491 24 72 45 134 47 138 4 7 53 2 96 -10z m-3831 -22
c18 -11 69 -32 112 -47 44 -15 73 -30 66 -32 -8 -3 -47 -27 -88 -53 -41 -27
-78 -47 -82 -44 -5 3 -11 24 -15 48 -4 23 -13 64 -21 91 -19 67 -21 65 28 37z
m988 -6 c-5 -14 -12 -36 -15 -48 -12 -57 -29 -122 -31 -125 -3 -4 -61 26 -94
48 -14 10 -40 26 -58 37 l-33 19 88 34 c49 18 97 39 108 46 32 23 46 18 35
-11z m-1027 -97 l24 -96 -127 -76 c-71 -42 -130 -76 -132 -76 -5 0 1 279 7
296 2 6 16 14 32 17 15 3 57 14 93 24 36 11 68 17 72 14 4 -3 18 -49 31 -103z
m1257 13 c1 -20 2 -87 3 -148 2 -62 -1 -113 -5 -113 -4 0 -63 34 -131 75
l-123 76 23 92 c12 51 25 97 27 104 3 8 35 2 105 -20 l101 -30 0 -36z m-1517
-43 c-3 -35 -5 -104 -6 -154 l0 -90 -36 -12 c-20 -7 -43 -14 -51 -16 -46 -13
-188 -56 -204 -62 -18 -7 -19 -2 -12 151 4 87 9 162 12 166 7 12 282 89 295
83 4 -2 4 -32 2 -66z m1780 0 l67 -22 1 -55 c1 -31 3 -102 4 -158 2 -57 0
-103 -3 -103 -13 0 -287 83 -294 89 -5 5 -14 288 -9 312 1 6 84 -16 234 -63z
m-3314 43 c164 -42 287 -71 298 -71 6 0 23 -4 37 -10 25 -9 25 -10 12 -52 -8
-24 -26 -86 -41 -138 -15 -52 -28 -101 -31 -108 -2 -7 -4 -16 -6 -20 -1 -4
-12 -38 -24 -77 l-22 -70 -54 -2 c-370 -12 -618 -14 -618 -6 0 6 8 21 18 34
10 13 30 44 44 69 14 25 69 117 123 205 54 88 111 184 128 213 17 28 38 52 45
52 8 0 49 -9 91 -19z m4762 -68 c28 -49 69 -115 90 -148 61 -95 200 -329 202
-340 1 -5 -11 -10 -28 -9 -221 4 -640 15 -642 18 -3 2 -133 446 -133 452 0 2
78 22 116 28 17 3 48 12 70 20 22 7 59 17 84 21 33 5 149 33 187 44 1 1 25
-38 54 -86z m-2596 58 c22 -4 59 -6 83 -6 23 1 42 -1 42 -3 0 -9 -134 -147
-143 -147 -7 0 -97 159 -97 171 0 4 35 -1 115 -15z m395 15 c0 -2 -16 -33 -36
-68 -20 -34 -40 -73 -45 -86 -5 -13 -13 -22 -17 -20 -15 6 -144 148 -136 149
5 0 34 3 64 5 30 2 75 8 100 13 54 11 70 12 70 7z m-483 -103 c26 -49 48 -91
48 -94 0 -9 -205 -222 -209 -218 -4 6 -54 217 -62 261 -6 35 -4 37 43 64 26
16 63 39 82 51 19 13 37 23 42 23 4 0 29 -39 56 -87z m591 40 c32 -21 66 -43
76 -48 10 -6 19 -14 19 -18 0 -11 -66 -281 -71 -287 -2 -3 -50 45 -107 105
l-103 110 35 70 c67 132 59 128 151 68z m-289 -62 l71 -79 -36 -68 c-84 -159
-107 -195 -114 -187 -5 4 -24 37 -43 73 -19 36 -49 91 -67 123 l-32 59 35 36
c19 21 53 56 74 79 21 24 39 43 39 43 1 0 34 -36 73 -79z m-1527 25 c-6 -31
-51 -189 -61 -211 -5 -11 -21 -63 -35 -115 -15 -52 -31 -99 -36 -104 -5 -5
-113 -11 -241 -13 -215 -4 -231 -4 -225 12 3 10 24 79 46 154 73 255 82 279
100 284 10 2 66 5 126 6 60 1 110 4 111 5 2 2 52 3 111 2 100 -1 107 -2 104
-20z m343 -78 c-2 -57 -4 -128 -4 -159 l-1 -56 -207 -62 c-115 -34 -213 -61
-219 -61 -8 0 -4 27 12 78 14 42 41 133 60 202 20 69 40 133 45 143 9 15 27
17 164 17 l154 0 -4 -102z m2542 52 c43 -145 111 -395 109 -398 -2 -1 -30 6
-62 17 -33 10 -108 33 -169 51 -60 18 -131 39 -157 47 l-48 15 -2 96 c-1 53
-3 122 -3 152 -1 30 0 58 2 63 3 4 75 6 161 5 l156 -3 13 -45z m403 32 l84 -7
62 -210 c35 -115 63 -218 63 -228 1 -16 -14 -17 -226 -11 -126 3 -232 10 -236
14 -5 4 -28 75 -52 156 -24 82 -52 178 -64 214 -11 36 -21 68 -21 73 0 8 269
8 390 -1z m-2309 -72 c1 -11 2 -23 3 -27 41 -167 57 -245 54 -253 -3 -11 -261
-171 -266 -165 -2 1 -5 13 -7 26 -3 13 -18 82 -34 154 -17 71 -29 130 -28 131
16 14 255 153 265 154 6 0 13 -9 13 -20z m1098 -57 c69 -42 128 -78 130 -80 8
-6 -69 -313 -79 -313 -3 0 -43 25 -90 55 -47 30 -107 67 -133 82 -39 21 -47
31 -43 47 3 12 20 81 38 154 18 72 37 132 42 132 5 0 66 -35 135 -77z m-3554
-110 c79 -171 249 -456 332 -556 l23 -29 -41 -34 c-22 -19 -45 -34 -49 -34
-11 0 -156 205 -216 305 -66 112 -208 405 -199 413 6 7 84 40 95 41 4 1 28
-47 55 -106z m2840 -25 c39 -73 70 -138 70 -144 0 -6 -48 -61 -106 -123 l-106
-111 -18 26 c-33 51 -136 247 -133 254 5 12 211 230 217 230 4 0 38 -60 76
-132z m290 100 c15 -18 63 -71 106 -117 43 -46 77 -86 75 -90 -2 -3 -32 -58
-66 -121 -35 -63 -68 -123 -75 -133 -11 -16 -23 -6 -120 98 l-108 116 33 62
c19 34 52 97 74 140 23 42 44 77 48 77 3 0 18 -15 33 -32z m2832 5 c24 -10 43
-23 43 -29 0 -10 -157 -327 -183 -369 -7 -11 -25 -42 -42 -70 -24 -42 -129
-194 -178 -260 -14 -19 -16 -18 -61 18 l-46 38 36 47 c126 170 284 441 347
600 19 47 25 49 84 25z m-3801 -128 c45 -175 62 -250 56 -253 -4 -1 -29 -17
-57 -34 -81 -51 -325 -198 -329 -198 -2 0 -3 24 -1 53 2 28 7 132 11 229 l6
178 42 11 c22 6 75 21 116 34 139 44 140 44 156 -20z m1699 15 c77 -23 143
-44 147 -48 7 -7 16 -452 9 -452 -6 0 -325 194 -331 201 -3 3 -15 11 -28 18
-16 8 -21 18 -18 34 21 97 70 287 75 287 3 0 69 -18 146 -40z m225 -64 c0 3 6
2 13 -3 6 -5 41 -17 77 -27 36 -10 90 -26 120 -36 30 -10 69 -21 85 -26 41
-10 44 -11 50 -14 3 -1 8 -3 13 -4 53 -13 52 -10 53 -129 0 -62 2 -167 5 -234
l5 -122 -58 15 c-32 8 -74 19 -93 25 -19 6 -48 14 -65 19 -16 4 -78 23 -137
41 l-108 32 -1 96 c0 53 -3 156 -5 229 -2 73 -2 138 1 143 4 5 14 5 26 -1 10
-6 19 -8 19 -4z m-2275 -223 c-4 -126 -10 -231 -14 -236 -4 -4 -17 -9 -30 -12
-12 -2 -59 -15 -104 -29 -137 -42 -290 -86 -300 -86 -10 0 -3 458 7 467 7 7
410 122 429 123 18 0 18 -11 12 -227z m795 29 l72 -133 -53 -57 c-124 -131
-263 -272 -265 -269 -2 1 -10 36 -19 77 -9 41 -18 82 -20 90 -2 8 -17 73 -34
144 -17 71 -28 133 -24 136 7 6 139 88 228 141 16 10 33 15 37 11 3 -4 39 -67
78 -140z m773 121 c45 -30 45 -30 152 -94 39 -23 71 -43 73 -44 5 -4 -105
-435 -113 -443 -1 -1 -58 57 -126 130 -68 73 -134 141 -146 151 -37 30 -36 50
6 128 22 41 55 102 73 137 18 34 34 62 36 62 2 0 22 -12 45 -27z m-245 -245
c11 -15 8 -27 -24 -85 -35 -66 -115 -208 -160 -286 l-22 -39 -57 104 c-32 56
-77 139 -102 183 -25 44 -45 89 -46 100 -1 14 34 59 102 133 l105 111 95 -101
c53 -56 102 -109 109 -120z m-1802 43 c-2 -80 -4 -188 -5 -238 -1 -74 -4 -93
-16 -93 -8 0 -35 -7 -61 -16 -25 -9 -54 -17 -64 -19 -23 -4 -154 -43 -210 -62
-25 -8 -52 -16 -60 -18 -8 -2 -63 -18 -123 -36 -59 -18 -109 -30 -112 -28 -2
3 2 27 10 54 46 161 108 367 124 415 11 30 27 82 36 116 l17 60 166 3 c91 1
168 4 170 5 2 2 32 4 67 4 l64 0 -3 -147z m-531 -9 c-38 -122 -51 -166 -105
-342 -17 -58 -35 -116 -39 -130 -7 -24 -9 -24 -65 35 -64 67 -215 252 -292
360 -52 73 -124 188 -124 199 0 3 82 7 183 7 100 1 247 4 327 8 113 5 146 3
148 -7 2 -7 -13 -65 -33 -130z m4186 131 c3 -5 23 -66 44 -138 20 -71 52 -179
70 -240 45 -146 75 -251 75 -258 0 -4 -11 -2 -25 3 -14 5 -25 7 -25 5 0 -2
-12 0 -27 6 -16 6 -35 12 -43 14 -8 2 -46 13 -85 24 -38 11 -144 42 -235 69
-91 26 -175 54 -187 60 -21 12 -22 18 -23 179 -1 93 -2 197 -4 231 l-3 64 230
-6 c127 -3 234 -9 238 -13z m460 -4 c114 -1 212 -5 220 -9 17 -11 -52 -119
-226 -349 -35 -47 -137 -165 -189 -219 l-51 -53 -43 148 c-23 81 -62 216 -87
298 -25 83 -48 161 -51 174 l-7 24 114 -7 c63 -3 207 -7 320 -7z m-3210 -81
c5 -43 8 -62 28 -148 12 -52 30 -122 40 -155 10 -33 22 -78 25 -101 8 -47 20
-37 -189 -164 -66 -40 -137 -84 -158 -98 -20 -14 -40 -22 -43 -19 -6 6 -41
146 -84 334 -11 51 -23 99 -26 106 -3 9 34 37 108 82 62 37 129 78 148 90 146
91 149 93 151 73z m1740 -203 c57 -34 57 -7 2 -235 -19 -80 -37 -155 -39 -167
-2 -12 -9 -34 -14 -48 -5 -14 -7 -25 -4 -25 3 0 2 -4 -1 -10 -3 -5 -36 10 -74
34 -37 24 -83 52 -102 61 -19 10 -36 21 -39 24 -3 4 -37 25 -75 48 -114 67
-118 71 -106 118 5 22 28 114 50 205 22 91 43 174 46 186 6 20 17 15 156 -70
83 -50 172 -104 200 -121z m-3961 176 c0 -5 37 -64 83 -132 94 -142 241 -329
347 -442 l73 -78 -42 -42 -43 -42 -60 65 c-84 91 -193 221 -259 310 -96 127
-212 311 -203 320 12 11 87 50 96 50 5 0 8 -4 8 -9z m5877 -11 c23 -11 45 -25
48 -30 20 -33 -261 -420 -444 -612 l-85 -88 -38 37 c-21 20 -38 40 -38 44 0 4
31 41 68 81 139 148 240 276 364 462 45 69 83 126 84 126 0 0 19 -9 41 -20z
m-3087 -280 l112 -200 -38 -43 c-21 -23 -59 -62 -84 -87 -25 -25 -80 -82 -123
-128 -43 -45 -82 -80 -87 -77 -5 3 -41 65 -81 138 -40 73 -87 158 -106 190
-18 32 -33 63 -33 70 0 7 36 48 80 92 44 44 115 117 158 162 42 46 80 83 84
83 3 0 56 -90 118 -200z m440 123 c40 -43 111 -117 157 -164 46 -47 83 -91 83
-97 0 -11 -26 -60 -161 -304 -30 -54 -57 -98 -61 -98 -5 0 -36 30 -71 67 -51
55 -177 189 -234 249 -7 7 -13 16 -13 20 0 12 214 404 221 404 3 0 38 -35 79
-77z m-1436 -75 c3 -13 17 -72 31 -133 15 -60 28 -118 30 -128 2 -10 6 -26 9
-35 3 -9 8 -30 10 -47 3 -16 10 -45 15 -62 5 -18 6 -35 3 -37 -4 -2 -23 -13
-42 -24 -19 -11 -84 -50 -145 -87 -60 -37 -159 -97 -220 -134 -60 -37 -123
-75 -138 -85 l-28 -19 6 254 c5 279 13 421 23 430 4 4 32 14 62 23 104 31 305
88 324 91 10 3 21 7 24 10 13 12 32 3 36 -17z m2321 -2 c237 -70 361 -108 368
-115 4 -4 10 -104 13 -222 3 -118 6 -267 8 -331 2 -65 0 -118 -4 -118 -7 0
-159 91 -354 213 -68 42 -129 77 -134 77 -6 0 -12 4 -14 8 -1 4 -20 18 -41 31
-20 12 -35 26 -32 31 3 4 7 25 11 46 3 20 10 49 16 63 5 14 9 26 8 26 -1 0 2
18 8 40 6 22 22 92 37 156 16 68 32 116 39 115 6 -2 38 -11 71 -20z m-3709
-63 c91 -114 200 -230 320 -340 74 -67 110 -97 202 -169 6 -4 -62 -93 -70 -94
-13 0 -218 180 -323 285 -55 55 -134 141 -175 190 -41 50 -79 93 -85 98 -11 8
62 77 81 77 7 0 29 -21 50 -47z m5100 15 c24 -18 43 -35 44 -38 0 -7 -153
-185 -224 -259 -63 -66 -357 -331 -366 -331 -3 1 -20 22 -39 47 l-34 46 29 25
c205 170 372 334 489 480 28 34 52 62 54 62 2 0 23 -15 47 -32z m-4201 -210
c-2 -79 -7 -226 -9 -327 -3 -101 -7 -185 -9 -188 -7 -6 -99 50 -211 129 -156
110 -417 331 -405 342 3 3 70 24 149 46 80 23 165 48 190 56 25 7 79 23 120
35 41 11 95 27 120 34 25 7 48 14 53 14 4 1 5 -63 2 -141z m3401 82 c93 -27
185 -54 204 -60 19 -5 69 -19 110 -31 41 -12 87 -26 102 -32 l26 -11 -26 -27
c-167 -166 -565 -459 -590 -435 -3 4 -7 124 -9 269 -2 144 -5 288 -6 320 -2
38 1 57 9 57 6 0 87 -22 180 -50z m-2252 -253 c53 -97 96 -180 96 -183 0 -6
-323 -346 -424 -447 -37 -38 -53 -38 -57 -2 -3 32 -9 60 -34 155 -14 58 -35
145 -46 194 -18 83 -51 225 -60 254 -3 8 71 59 196 136 l200 123 17 -27 c9
-15 59 -107 112 -203z m1169 150 c56 -35 141 -87 189 -117 49 -29 85 -57 81
-63 -3 -5 -8 -20 -9 -31 -4 -20 -56 -236 -121 -504 l-28 -114 -85 89 c-130
135 -352 372 -366 391 -13 17 1 48 92 212 19 36 54 98 76 138 27 50 45 72 54
68 8 -3 60 -34 117 -69z m-545 -168 l161 -172 -23 -41 c-23 -39 -100 -180
-237 -428 -35 -65 -67 -118 -70 -118 -5 0 -67 112 -228 410 -19 36 -49 90 -67
120 l-32 55 25 30 c40 48 297 313 304 314 4 1 79 -76 167 -170z m-2527 -5 c18
-22 231 -207 305 -265 33 -26 122 -89 199 -139 77 -51 141 -94 142 -95 2 -1
-9 -24 -23 -52 l-27 -51 -36 20 c-20 11 -43 26 -51 32 -8 7 -32 23 -54 35 -95
54 -355 257 -481 375 l-80 74 40 41 c44 46 47 47 66 25z m4782 -32 l37 -38
-72 -70 c-107 -101 -149 -136 -337 -276 -78 -58 -266 -178 -279 -178 -8 0 -66
90 -61 94 2 1 42 26 89 56 163 102 409 292 510 394 30 30 60 55 65 56 6 0 28
-17 48 -38z m-3424 -9 c30 -123 141 -597 141 -606 0 -15 -251 69 -405 136
-132 57 -305 145 -305 156 0 5 69 50 153 101 340 205 382 231 391 240 14 14
14 14 25 -27z m2053 6 c18 -11 65 -40 103 -63 291 -179 415 -260 408 -267 -4
-4 -71 -39 -148 -77 -161 -81 -392 -171 -504 -197 -9 -3 -26 -7 -38 -11 -23
-6 -25 4 -8 56 6 18 11 39 21 88 13 66 65 279 71 292 3 8 7 21 9 29 1 7 8 35
14 61 13 55 18 80 19 98 1 17 15 15 53 -9z m-2973 -133 c91 -78 431 -280 584
-345 42 -19 77 -39 77 -45 -1 -14 -38 -96 -44 -96 -19 0 -163 70 -336 163 -79
42 -304 188 -354 230 l-30 24 33 42 c35 44 46 48 70 27z m3910 -32 c20 -27 30
-48 25 -52 -6 -4 -60 -42 -121 -84 -61 -43 -114 -78 -117 -78 -3 0 -32 -17
-63 -37 -60 -38 -295 -161 -348 -181 -16 -7 -40 -16 -51 -21 -20 -9 -24 -4
-42 45 -22 61 -22 62 53 88 28 10 94 42 147 72 53 29 109 56 123 60 14 3 25 9
25 13 0 4 10 13 23 20 12 6 36 20 52 31 17 11 42 26 56 34 15 9 65 42 110 76
46 33 86 60 89 60 3 -1 20 -21 39 -46z m-2309 -25 c0 -3 27 -55 61 -115 140
-251 229 -415 229 -424 0 -8 -189 -6 -245 4 -16 3 -68 10 -115 16 -172 21
-232 30 -241 36 -4 2 -24 6 -45 10 -22 3 -60 11 -85 18 l-47 11 87 92 c356
377 374 393 387 375 7 -9 14 -20 14 -23z m840 -144 c41 -44 121 -128 178 -187
56 -59 102 -109 102 -111 0 -5 -119 -33 -177 -43 -15 -2 -37 -6 -49 -9 -27 -6
-157 -25 -209 -31 -22 -2 -62 -7 -90 -10 -27 -4 -96 -8 -152 -9 l-102 -3 23
41 c13 23 42 78 66 122 24 44 53 96 65 115 12 19 55 97 95 174 l73 139 51 -54
c27 -30 84 -90 126 -134z m-1790 -343 c63 -24 165 -60 225 -79 170 -54 156
-44 139 -100 -8 -26 -18 -51 -22 -55 -12 -12 -244 66 -437 147 -108 45 -342
159 -358 175 -5 4 3 30 17 58 l25 50 148 -75 c82 -42 200 -96 263 -121z m3000
101 c-1 -34 -460 -241 -685 -308 -128 -39 -126 -39 -141 20 -18 66 -19 62 19
70 157 34 565 199 712 289 l40 24 27 -44 c16 -24 28 -47 28 -51z m-2810 -4
c47 -16 94 -34 105 -39 22 -10 269 -70 350 -84 17 -3 41 -8 55 -11 14 -4 39
-8 55 -11 76 -12 78 -13 71 -46 -3 -17 -6 -42 -6 -56 0 -24 -1 -25 -57 -18
-108 14 -134 19 -293 57 -124 30 -207 53 -245 69 -11 4 -54 20 -95 34 -41 15
-87 33 -102 39 l-28 12 25 52 c23 51 25 53 52 42 15 -6 66 -24 113 -40z m2322
-7 c10 -25 14 -50 10 -54 -4 -4 -55 -24 -112 -44 -58 -19 -114 -40 -125 -45
-27 -12 -238 -65 -295 -74 -25 -4 -52 -11 -61 -16 -8 -4 -37 -10 -63 -14 -26
-3 -65 -9 -86 -14 -21 -5 -43 -5 -50 -1 -7 4 -13 31 -14 60 -1 52 0 53 29 57
33 5 184 32 200 37 6 1 44 8 85 16 41 7 80 16 85 20 8 6 39 16 80 25 26 7 262
88 275 95 19 11 21 9 42 -48z m-1503 -169 c150 -12 541 -8 605 7 47 10 62 -2
64 -50 1 -23 4 -45 7 -50 20 -32 -528 -43 -775 -15 -19 2 -41 4 -47 4 -8 1
-11 13 -9 34 2 17 4 42 5 54 1 22 24 34 50 27 7 -2 52 -7 100 -11z m-464 -90
c44 -10 103 -21 150 -28 28 -4 61 -8 75 -10 14 -2 52 -7 85 -10 33 -4 98 -10
145 -16 47 -5 122 -9 168 -9 l82 0 0 -60 c0 -60 -2 -63 -40 -62 -167 3 -500
36 -570 57 -8 3 -33 7 -55 10 -22 3 -53 10 -70 15 -16 5 -48 11 -70 15 -66 10
-69 14 -50 77 l16 56 57 -15 c31 -8 66 -17 77 -20z m1597 -25 c11 -40 12 -55
3 -60 -16 -9 -298 -66 -365 -73 -30 -3 -80 -10 -110 -15 -30 -6 -128 -13 -217
-16 l-163 -7 0 62 0 61 119 0 c65 0 140 4 167 9 27 5 81 12 119 16 84 8 385
61 393 69 3 3 13 6 22 6 12 0 22 -15 32 -52z"/>
<path d="M3278 6644 c-7 -15 -28 -32 -50 -41 -42 -17 -43 -18 -24 -52 8 -15
12 -40 8 -63 -5 -37 -4 -38 28 -38 20 0 46 -10 65 -24 l31 -24 27 33 c15 19
37 35 49 37 18 2 22 8 19 28 -1 14 -4 46 -5 73 -1 46 -2 47 -33 47 -19 0 -43
10 -61 25 -37 31 -40 31 -54 -1z m56 -29 c11 -8 30 -15 42 -15 19 0 22 -5 21
-37 -1 -21 2 -46 7 -55 6 -13 2 -19 -18 -24 -15 -3 -31 -15 -37 -25 -12 -23
-32 -24 -49 -5 -6 8 -23 16 -37 18 -22 3 -26 8 -28 38 -1 19 -5 43 -9 52 -6
13 -2 19 18 24 15 3 31 15 37 25 12 23 27 24 53 4z"/>
<path d="M4080 6644 c-19 -13 -49 -24 -66 -24 -31 0 -32 -1 -24 -34 5 -24 3
-44 -7 -62 -17 -33 -11 -54 16 -54 10 0 32 -15 48 -33 l30 -34 29 24 c19 15
42 23 67 23 20 0 37 1 37 3 0 1 -4 17 -9 35 -8 27 -6 40 9 67 l19 34 -34 11
c-19 6 -45 24 -57 40 l-23 28 -35 -24z m49 -33 c6 -10 22 -22 37 -25 20 -5 24
-11 18 -24 -5 -9 -8 -34 -7 -54 1 -34 -2 -38 -23 -38 -14 0 -36 -8 -50 -17
-25 -16 -27 -16 -43 4 -9 12 -26 24 -38 28 -20 5 -21 9 -12 27 6 11 9 36 6 54
-5 32 -4 34 21 34 15 0 36 7 46 15 26 20 33 19 45 -4z"/>
<path d="M2499 6432 c-5 -16 -24 -39 -40 -51 l-31 -23 20 -21 c11 -12 23 -41
27 -65 l7 -43 39 6 c29 5 47 2 64 -9 34 -22 42 -20 50 14 4 16 20 40 37 53
l30 24 -25 36 c-14 21 -23 45 -21 55 7 30 -9 44 -40 32 -21 -7 -34 -6 -56 5
-41 21 -50 19 -61 -13z m99 -13 c26 1 32 -3 32 -20 0 -11 9 -34 20 -49 l21
-29 -25 -16 c-13 -9 -27 -27 -30 -41 -6 -22 -9 -23 -29 -12 -12 6 -36 11 -52
10 -27 -2 -31 1 -33 25 -1 14 -10 35 -19 45 -16 18 -15 20 10 44 15 14 27 32
27 41 0 11 6 14 23 8 12 -4 37 -7 55 -6z"/>
<path d="M4865 6449 c-23 -14 -38 -16 -66 -10 -36 8 -37 8 -42 -25 -3 -19 -15
-48 -27 -64 l-21 -30 35 -34 c20 -18 36 -43 36 -55 0 -25 11 -26 50 -6 20 10
43 13 68 9 38 -6 39 -6 35 22 -3 20 4 40 22 64 l26 35 -27 21 c-14 12 -34 37
-43 56 l-16 35 -30 -18z m31 -41 c3 -12 16 -29 27 -39 20 -16 20 -18 4 -42 -9
-15 -17 -38 -17 -52 0 -26 -14 -32 -39 -16 -10 6 -22 5 -35 -5 -28 -19 -34
-18 -41 9 -4 12 -16 29 -28 38 -19 15 -19 18 -3 40 9 13 16 36 16 51 0 25 3
28 23 23 12 -3 34 -2 47 4 36 14 38 13 46 -11z"/>
<path d="M1907 6064 c-20 -11 -41 -13 -68 -9 l-39 7 0 -35 c0 -19 -9 -45 -20
-60 -25 -32 -25 -44 0 -57 11 -6 28 -29 36 -51 l16 -40 36 21 c30 18 39 19 64
9 34 -14 40 -10 43 32 2 17 12 44 24 60 l22 29 -30 26 c-16 13 -32 38 -36 54
-8 34 -10 35 -48 14z m35 -44 c5 -17 19 -35 29 -41 18 -9 18 -11 2 -36 -10
-14 -17 -36 -18 -47 0 -17 -7 -21 -35 -22 -19 -1 -45 -5 -57 -9 -17 -6 -23 -3
-23 8 0 9 -12 27 -27 41 -25 23 -26 26 -11 43 9 10 18 32 20 48 3 27 6 30 35
27 18 -2 41 1 50 7 24 14 23 15 35 -19z"/>
<path d="M5456 6046 c-7 -18 -26 -42 -42 -53 l-29 -21 22 -30 c12 -16 23 -44
25 -63 4 -40 8 -43 47 -34 19 4 41 0 60 -9 39 -21 38 -21 51 18 6 19 22 42 36
50 29 20 30 30 4 63 -11 14 -20 41 -20 60 0 30 -2 33 -25 29 -13 -3 -29 -7
-33 -10 -5 -3 -26 3 -46 13 l-37 19 -13 -32z m97 -19 c33 1 37 -1 37 -23 0
-14 7 -36 16 -50 16 -24 16 -26 -5 -41 -12 -8 -26 -26 -32 -40 -6 -16 -13 -22
-21 -16 -7 4 -31 10 -53 13 -33 4 -40 9 -40 27 0 12 -9 31 -20 43 -18 20 -18
21 4 36 12 9 27 27 32 41 7 19 14 23 27 17 9 -4 34 -7 55 -7z"/>
<path d="M1320 5510 c-14 -11 -41 -20 -62 -20 -21 0 -38 -1 -38 -3 0 -1 4 -17
10 -36 7 -25 6 -40 -5 -62 -21 -39 -19 -48 13 -55 15 -4 39 -21 54 -38 l26
-31 26 24 c18 17 37 24 66 24 44 0 44 -1 31 43 -6 21 -5 38 5 55 20 36 17 46
-17 58 -17 6 -40 22 -51 36 -23 30 -26 30 -58 5z m48 -30 c7 -12 24 -25 37
-30 22 -8 24 -12 14 -36 -5 -15 -7 -40 -4 -56 6 -26 5 -28 -17 -23 -16 4 -32
-1 -49 -14 l-26 -20 -21 24 c-12 14 -31 25 -43 25 -17 0 -19 4 -12 23 4 12 8
37 8 55 0 29 6 37 28 33 5 -1 21 7 35 18 34 25 34 25 50 1z"/>
<path d="M6030 5506 c-7 -14 -30 -32 -52 -40 l-38 -16 15 -31 c11 -21 14 -43
10 -69 l-6 -37 41 -6 c23 -3 53 -15 66 -28 l23 -22 20 24 c11 13 20 27 21 31
0 3 13 9 30 13 39 9 44 18 25 55 -12 23 -14 39 -6 65 9 35 9 35 -23 35 -19 0
-46 11 -66 25 -42 31 -44 31 -60 1z m65 -36 c3 -6 18 -10 32 -10 22 0 25 -3
20 -27 -3 -15 1 -40 9 -55 13 -25 13 -28 -1 -28 -9 0 -28 -12 -42 -26 -25 -25
-27 -26 -54 -10 -15 9 -36 16 -47 16 -17 0 -20 6 -20 33 0 17 -2 42 -7 54 -5
16 -2 23 14 28 12 3 29 17 37 31 13 19 20 22 34 14 11 -6 22 -15 25 -20z"/>
<path d="M911 4839 c-12 -13 -21 -26 -21 -30 0 -4 -13 -10 -30 -14 -39 -9 -44
-18 -26 -53 9 -17 12 -43 9 -65 -4 -36 -3 -37 25 -37 18 0 43 -10 60 -25 37
-31 46 -31 60 0 10 22 22 30 80 50 10 4 9 12 -4 36 -11 22 -14 44 -10 69 l6
37 -41 6 c-23 3 -51 15 -64 27 l-23 21 -21 -22z m49 -34 c7 -8 25 -15 41 -15
27 0 28 -3 27 -37 -1 -21 2 -46 6 -55 6 -14 2 -20 -18 -27 -14 -6 -31 -19 -37
-30 -12 -18 -14 -18 -37 -3 -13 8 -35 17 -49 18 -33 4 -35 7 -24 35 6 18 5 30
-5 44 -20 27 -18 32 16 44 17 5 33 17 36 26 8 19 28 19 44 0z"/>
<path d="M6448 4831 c-15 -12 -41 -21 -60 -21 -44 0 -49 -5 -36 -42 8 -24 7
-37 -6 -64 -9 -19 -16 -36 -16 -39 0 -2 15 -8 33 -14 17 -6 41 -25 53 -41 l20
-30 34 25 c20 15 47 25 67 25 34 0 38 8 24 45 -5 12 -3 33 5 54 19 45 18 48
-13 55 -16 4 -39 21 -53 37 l-26 30 -26 -20z m92 -73 c10 -3 10 -9 1 -27 -7
-12 -10 -35 -6 -52 6 -26 4 -29 -20 -29 -14 0 -37 -7 -51 -16 -24 -16 -26 -16
-40 5 -8 11 -21 21 -27 21 -7 0 -18 4 -26 9 -11 7 -11 13 0 32 7 13 12 36 11
52 -1 15 1 27 5 28 30 3 48 10 61 23 14 14 19 12 48 -13 18 -16 38 -31 44 -33z"/>
<path d="M676 4066 c-8 -19 -26 -42 -40 -51 l-25 -17 22 -30 c12 -16 23 -38
23 -49 4 -53 2 -52 39 -45 23 5 45 2 64 -9 40 -20 51 -19 51 6 0 12 17 36 37
55 l37 34 -23 24 c-12 13 -24 40 -26 61 -4 46 -5 47 -43 34 -24 -8 -37 -7 -61
5 -40 21 -39 21 -55 -18z m97 -10 c31 0 37 -3 37 -22 0 -12 9 -33 20 -47 20
-25 20 -26 1 -39 -11 -8 -25 -26 -32 -41 -9 -21 -15 -24 -30 -17 -10 6 -34 10
-53 10 -31 0 -36 3 -36 23 0 12 -7 33 -16 45 -15 22 -14 24 10 47 14 13 26 31
26 41 0 12 5 14 18 8 9 -4 34 -8 55 -8z"/>
<path d="M6667 4074 c-24 -13 -34 -13 -58 -3 -35 14 -42 9 -45 -31 -1 -16 -11
-44 -23 -63 l-21 -34 29 -21 c16 -12 32 -35 36 -52 8 -35 12 -36 59 -14 27 13
40 14 65 6 31 -11 31 -11 31 25 0 23 9 48 25 70 l26 33 -26 12 c-16 7 -33 28
-42 50 -17 43 -17 43 -56 22z m33 -29 c0 -9 12 -27 26 -40 25 -24 26 -26 10
-49 -9 -14 -16 -36 -16 -49 0 -20 -5 -23 -37 -23 -21 0 -46 -3 -55 -8 -13 -6
-19 -2 -24 18 -3 15 -15 31 -25 37 -23 12 -24 32 -4 49 8 7 15 25 15 41 0 30
6 34 29 20 8 -5 24 -3 40 5 34 18 41 18 41 -1z"/>
<path d="M760 3304 c-16 -9 -39 -12 -67 -8 l-42 6 4 -31 c2 -20 -4 -42 -20
-65 l-24 -35 24 -19 c13 -10 30 -35 39 -56 l15 -37 32 16 c21 12 43 14 70 10
l39 -7 0 35 c0 23 9 46 25 65 l25 30 -28 24 c-16 12 -34 38 -42 56 -14 36 -15
36 -50 16z m30 -28 c0 -8 12 -28 26 -46 25 -29 25 -32 10 -49 -9 -10 -16 -29
-16 -44 0 -22 -4 -25 -32 -25 -18 0 -43 -3 -55 -7 -19 -6 -24 -2 -32 19 -6 14
-19 31 -30 38 -19 12 -19 12 0 39 10 15 19 37 19 48 0 18 6 21 39 21 22 0 43
5 46 10 9 15 25 12 25 -4z"/>
<path d="M6581 3270 c-6 -22 -15 -40 -19 -40 -4 0 -15 -7 -25 -15 -18 -13 -18
-15 3 -43 12 -17 23 -45 24 -63 2 -35 21 -45 56 -28 9 4 27 1 40 -7 38 -20 48
-17 64 19 7 18 26 41 41 51 l27 18 -22 23 c-12 13 -24 42 -27 65 -6 41 -7 42
-38 36 -19 -4 -46 0 -68 9 -20 8 -38 15 -40 15 -2 0 -9 -18 -16 -40z m103 -10
c32 0 36 -3 36 -27 0 -14 8 -35 17 -46 17 -18 17 -20 -4 -37 -12 -9 -25 -29
-29 -44 -5 -22 -9 -24 -21 -14 -8 6 -33 12 -56 12 -36 1 -42 4 -42 22 -1 11
-8 33 -18 47 -17 26 -16 27 7 42 13 9 27 27 30 41 5 20 10 23 26 14 10 -5 35
-10 54 -10z"/>
<path d="M928 2554 c-8 -9 -33 -18 -54 -21 -22 -3 -40 -6 -42 -8 -2 -2 1 -18
6 -36 6 -27 4 -41 -10 -66 l-19 -32 45 -20 c25 -11 46 -24 46 -28 0 -4 4 -14
9 -22 7 -11 14 -10 39 7 16 12 47 24 69 28 40 6 40 7 30 35 -9 22 -8 36 6 64
20 43 17 51 -22 60 -16 3 -37 17 -45 31 -19 28 -35 30 -58 8z m53 -38 c15 -13
34 -26 41 -28 10 -4 10 -10 1 -29 -6 -14 -9 -37 -6 -52 4 -22 2 -27 -13 -27
-11 0 -32 -7 -48 -15 -27 -14 -31 -14 -51 5 -12 11 -29 20 -39 20 -15 0 -17 5
-11 28 4 15 7 42 7 60 -1 29 2 32 27 32 16 0 34 7 41 15 16 19 17 19 51 -9z"/>
<path d="M6412 2545 c-11 -14 -37 -32 -57 -41 -36 -15 -37 -15 -20 -40 10 -16
15 -41 13 -67 -3 -41 -2 -42 33 -48 20 -3 49 -15 64 -27 l28 -22 21 30 c20 29
68 54 80 43 10 -10 7 2 -8 39 -8 19 -12 50 -9 71 4 35 3 37 -24 37 -16 0 -45
11 -65 25 l-37 25 -19 -25z m52 -30 c11 -8 31 -15 44 -15 20 0 23 -5 21 -27
-1 -16 3 -39 8 -53 9 -22 7 -26 -19 -37 -15 -7 -31 -19 -34 -28 -8 -19 -28
-19 -44 0 -6 8 -15 14 -18 13 -40 -5 -52 3 -51 35 1 17 -2 42 -6 54 -6 18 -2
24 17 32 13 5 30 16 37 25 16 19 21 19 45 1z"/>
<path d="M1283 1870 c-11 -20 -28 -32 -50 -36 -37 -7 -39 -13 -18 -53 11 -21
12 -37 5 -62 -5 -18 -9 -34 -7 -35 1 -1 18 -3 37 -5 19 -2 49 -13 65 -25 l30
-21 19 24 c10 14 34 31 52 39 39 16 38 14 21 57 -8 19 -11 40 -6 52 14 37 10
45 -24 45 -18 0 -48 11 -69 25 l-37 25 -18 -30z m57 -25 c7 -8 25 -15 41 -15
25 0 28 -3 27 -32 0 -18 3 -43 7 -55 6 -19 4 -23 -14 -23 -11 0 -28 -11 -37
-25 -19 -28 -36 -32 -54 -10 -7 8 -24 15 -39 15 -24 0 -27 3 -27 38 0 20 -3
45 -8 54 -6 13 -2 19 18 24 15 3 31 15 37 25 12 23 32 24 49 4z"/>
<path d="M6052 1868 c-14 -15 -35 -23 -59 -24 l-38 -1 3 -41 c2 -23 -3 -53
-12 -70 l-15 -29 39 -12 c22 -6 40 -15 40 -19 0 -4 7 -15 15 -26 13 -18 15
-18 48 3 19 11 49 21 67 21 32 0 32 1 27 35 -3 21 0 50 9 70 18 44 19 42 -16
50 -16 4 -39 20 -51 36 -25 35 -28 35 -57 7z m88 -63 c17 -5 18 -9 8 -28 -6
-12 -11 -34 -10 -50 2 -19 -3 -29 -15 -33 -10 -3 -31 -12 -47 -20 -27 -14 -30
-13 -52 11 -13 14 -31 25 -40 25 -13 0 -15 5 -9 23 4 12 8 38 9 57 1 30 5 35
35 41 18 4 38 12 44 18 8 8 17 5 34 -13 12 -13 32 -27 43 -31z"/>
<path d="M1810 1331 c-5 -11 -10 -27 -10 -35 0 -9 -12 -23 -27 -33 -16 -9 -30
-18 -31 -19 -2 -1 6 -16 19 -33 12 -17 23 -45 24 -63 2 -32 4 -33 39 -31 21 2
51 -4 67 -13 36 -18 45 -13 54 26 4 17 10 30 13 30 4 1 18 10 31 21 l24 20
-22 23 c-13 13 -25 43 -28 66 -6 40 -7 41 -37 34 -17 -3 -33 -7 -36 -7 -3 -1
-19 7 -37 16 -31 16 -33 16 -43 -2z m98 -34 c27 1 32 -2 32 -20 0 -13 7 -33
16 -45 14 -21 14 -24 -10 -53 -14 -17 -26 -37 -26 -45 0 -18 -15 -18 -33 1
-11 11 -23 12 -46 5 -30 -8 -31 -8 -31 26 0 19 -4 34 -9 34 -22 0 -20 34 4 62
14 16 25 34 25 39 0 6 9 7 23 2 12 -4 37 -7 55 -6z"/>
<path d="M5526 1324 c-26 -14 -43 -15 -84 -3 -9 3 -15 -8 -17 -34 -2 -21 -13
-50 -25 -64 l-21 -26 30 -31 c16 -17 34 -44 40 -59 11 -27 11 -27 36 -11 19
12 37 15 70 11 l45 -7 0 34 c0 18 9 45 20 59 26 33 25 43 -4 63 -14 8 -30 31
-36 50 -13 39 -14 39 -54 18z m67 -83 c16 -13 16 -16 -2 -45 -10 -17 -17 -39
-16 -48 3 -14 -4 -17 -33 -16 -21 0 -47 -3 -59 -7 -18 -6 -23 -4 -23 11 0 10
-12 28 -27 40 -27 22 -28 22 -9 43 10 11 20 31 21 43 1 13 3 26 4 30 0 4 11 4
24 -1 15 -6 31 -5 47 4 22 12 26 11 41 -13 8 -15 23 -33 32 -41z"/>
<path d="M2567 939 c-10 -6 -36 -9 -58 -7 -40 3 -42 2 -45 -30 -2 -19 -13 -45
-24 -59 -26 -33 -25 -41 5 -55 16 -7 29 -25 37 -50 6 -21 14 -38 17 -38 3 0
20 8 36 18 20 13 37 16 50 11 41 -16 55 -11 55 20 0 15 11 45 25 65 l24 36
-26 17 c-14 9 -32 32 -39 50 -15 35 -27 39 -57 22z m33 -34 c0 -8 11 -25 25
-37 23 -20 24 -24 11 -43 -8 -12 -16 -34 -18 -49 -3 -26 -6 -28 -60 -31 -44
-3 -58 0 -58 10 0 8 -11 25 -25 38 l-26 23 21 24 c11 13 20 34 20 48 0 22 3
24 28 19 15 -3 34 -2 42 4 22 13 40 11 40 -6z"/>
<path d="M4766 923 c-4 -16 -21 -40 -38 -54 l-31 -26 21 -31 c12 -16 22 -45
22 -62 0 -32 1 -32 36 -26 26 5 46 2 74 -13 l39 -20 6 30 c4 16 20 42 37 58
l31 29 -20 28 c-11 16 -20 45 -21 63 -2 19 -4 36 -5 38 -2 1 -18 -2 -36 -7
-25 -7 -41 -6 -62 5 -39 21 -46 19 -53 -12z m50 -14 c4 -7 21 -9 40 -6 30 5
34 3 34 -17 0 -13 9 -33 20 -46 25 -29 25 -28 -5 -52 -14 -11 -25 -26 -25 -33
0 -21 -19 -28 -35 -15 -9 7 -28 10 -45 6 -20 -4 -30 -1 -31 7 -2 31 -9 50 -24
67 -15 17 -15 19 4 32 11 8 25 26 30 41 11 28 25 35 37 16z"/>
<path d="M3287 740 c-15 -12 -40 -20 -62 -20 l-37 0 7 -40 c5 -27 2 -49 -9
-71 -9 -18 -16 -33 -16 -35 0 -2 15 -6 33 -9 21 -4 40 -17 52 -36 24 -34 32
-36 61 -8 18 17 40 24 87 28 4 1 5 16 2 34 -4 20 -1 43 9 62 21 40 21 42 -14
50 -17 4 -40 20 -52 36 -26 34 -28 35 -61 9z m43 -30 c6 -11 22 -23 36 -26 20
-5 23 -10 17 -28 -3 -11 -7 -37 -7 -56 -1 -29 -5 -36 -26 -38 -13 -2 -33 -10
-44 -18 -17 -12 -22 -11 -41 9 -12 12 -30 27 -40 32 -15 9 -16 15 -7 32 7 12
9 34 6 50 -5 26 -3 28 27 30 18 1 37 9 41 18 12 21 25 19 38 -5z"/>
<path d="M4036 735 c-9 -14 -32 -32 -52 -40 l-35 -14 17 -32 c10 -21 14 -44
10 -68 -5 -36 -5 -36 31 -39 24 -1 47 -12 64 -28 l27 -26 27 36 c15 20 35 36
44 36 35 0 42 14 25 50 -14 26 -15 39 -6 62 12 32 1 44 -33 40 -12 -2 -38 9
-58 23 -21 14 -39 25 -41 25 -2 0 -11 -11 -20 -25z m54 -25 c0 -5 15 -10 33
-12 27 -2 32 -7 30 -26 -2 -13 4 -38 12 -57 12 -29 12 -35 0 -35 -7 0 -27 -12
-45 -26 -29 -25 -32 -25 -49 -10 -10 9 -29 16 -44 16 -24 0 -26 3 -25 38 0 20
-2 46 -6 58 -6 16 -3 21 10 21 10 0 27 11 37 26 18 23 47 27 47 7z"/>
</g>
</svg>
