<?xml version="1.0" standalone="no"?>
<!DOCTYPE svg PUBLIC "-//W3C//DTD SVG 20010904//EN"
 "http://www.w3.org/TR/2001/REC-SVG-20010904/DTD/svg10.dtd">
<svg version="1.0" xmlns="http://www.w3.org/2000/svg"
 width="564.000000pt" height="669.000000pt" viewBox="0 0 564.000000 669.000000"
 preserveAspectRatio="xMidYMid meet">
<metadata>
Created by potrace 1.16, written by Peter Selinger 2001-2019
</metadata>
<g transform="translate(0.000000,669.000000) scale(0.100000,-0.100000)"
fill="#000000" stroke="none">
<path d="M4477 6634 c-1 -1 -204 -5 -452 -8 -247 -4 -583 -8 -745 -11 -162 -3
-547 -7 -855 -10 -308 -3 -639 -7 -735 -10 -96 -2 -488 -7 -870 -11 -382 -3
-697 -8 -699 -10 -2 -2 -5 -102 -6 -222 -1 -120 -5 -223 -8 -230 -4 -6 -3 -13
1 -16 9 -6 10 -35 0 -51 -3 -6 -2 -19 2 -30 4 -11 4 -32 -1 -47 -4 -15 -4 -30
-1 -32 9 -6 8 -129 -2 -144 -4 -7 -3 -12 2 -12 10 0 9 -30 -2 -48 -4 -6 -4
-12 1 -12 4 0 7 -51 5 -112 -1 -62 -3 -142 -3 -178 -1 -129 11 -1130 16 -1345
22 -884 24 -1104 11 -1109 -7 -3 -7 -5 1 -5 9 -1 13 -88 14 -368 0 -203 3
-485 5 -628 5 -257 12 -934 17 -1565 l3 -325 584 1 c616 1 2127 13 2585 19
149 3 327 5 398 5 184 0 163 19 -25 22 -128 3 -153 5 -153 18 0 13 28 15 178
18 139 2 177 5 177 16 0 7 -24 37 -52 67 -220 226 -240 249 -234 264 3 8 9 15
14 15 9 0 172 -165 172 -174 0 -7 130 -130 142 -135 6 -2 8 78 4 237 -6 249
-5 252 34 252 5 0 9 -82 10 -183 3 -278 4 -300 16 -304 6 -2 28 16 50 40 21
24 73 81 115 128 153 169 155 173 124 199 -27 22 -11 20 38 -4 26 -13 77 -57
116 -99 76 -83 95 -111 87 -133 -4 -10 -23 4 -63 48 -32 35 -72 78 -90 97
l-34 35 -93 -100 c-174 -185 -226 -246 -219 -257 3 -6 111 -7 249 -4 134 3
246 2 248 -2 16 -25 -21 -30 -264 -35 -140 -2 -290 -5 -333 -5 -50 -1 -76 -5
-72 -11 4 -7 193 -8 553 -5 470 5 1055 13 1072 14 6 1 3 1334 -5 1936 -6 470
-16 1172 -19 1310 -4 192 -27 3023 -26 3223 l0 34 -491 -4 c-270 -1 -491 -4
-492 -4z m713 -22 c0 -24 -48 -30 -248 -31 -180 -1 -212 1 -212 13 0 19 37 22
278 24 100 1 182 -1 182 -6z m247 -49 c2 -58 1 -60 -77 -98 -30 -14 -62 -31
-70 -36 -8 -5 -55 -29 -105 -54 -49 -25 -94 -50 -100 -54 -10 -9 -350 -181
-356 -181 -2 0 -2 46 1 102 l5 101 35 20 c19 11 112 59 205 107 94 48 195 102
225 119 52 29 61 31 145 28 l90 -2 2 -52z m-927 43 c0 -2 -3 -11 -6 -20 -5
-14 -35 -16 -223 -16 -208 0 -291 -6 -291 -19 0 -3 24 -32 53 -63 28 -32 75
-83 102 -114 28 -30 74 -80 104 -111 l53 -55 52 54 c28 30 72 77 98 106 26 29
49 52 52 52 2 0 4 -10 3 -22 0 -13 -38 -65 -89 -122 -48 -54 -88 -102 -88
-106 0 -4 -27 -22 -60 -39 -33 -18 -60 -30 -60 -28 0 2 11 17 25 33 14 16 25
36 25 45 0 16 -68 93 -222 254 l-87 90 -2 -205 c0 -113 -1 -222 -1 -243 -1
-42 -7 -50 -28 -37 -12 8 -16 51 -18 242 -1 128 -4 237 -5 241 -3 9 -121 -109
-198 -198 -72 -82 -109 -117 -121 -113 -24 8 -17 26 29 75 148 156 228 246
231 259 4 16 11 15 -180 14 -132 -1 -138 0 -138 19 0 19 7 21 103 23 196 6
887 9 887 4z m200 -470 c0 -261 -4 -477 -9 -480 -4 -3 -45 13 -90 36 l-81 42
-1 90 c-1 50 -1 111 -1 136 1 25 1 181 1 348 l1 302 90 0 90 0 0 -474z m-1415
439 c0 -16 -8 -21 -38 -25 l-37 -5 40 -44 c39 -43 51 -71 29 -71 -6 0 -27 18
-46 40 -20 22 -40 37 -44 34 -5 -3 -9 -23 -9 -45 0 -33 -3 -40 -17 -37 -18 3
-19 7 -22 48 -1 24 -14 26 -35 5 -34 -34 -55 -9 -25 30 13 16 18 30 12 36 -5
5 -53 9 -106 10 -70 1 -107 6 -130 17 -32 17 -30 17 108 22 77 3 181 5 230 5
83 0 90 -1 90 -20z m201 -136 c1 -86 -2 -162 -6 -168 -5 -9 -25 -3 -71 20
-103 53 -99 45 -99 179 0 64 3 120 7 124 4 4 43 5 88 4 l80 -3 1 -156z m-766
144 c0 -20 -43 -31 -126 -34 -94 -3 -124 -7 -124 -18 0 -3 11 -18 25 -33 24
-26 24 -27 5 -33 -13 -4 -27 1 -42 14 -25 24 -27 23 -33 -17 -7 -60 -35 -74
-35 -17 0 46 -21 46 -57 0 -33 -41 -43 -44 -43 -12 0 12 16 39 35 59 19 20 35
39 35 42 0 3 -13 6 -29 6 -31 0 -46 13 -38 33 5 14 427 24 427 10z m-660 -23
c0 -22 0 -22 -227 -20 -63 1 -114 -3 -117 -9 -4 -5 20 -36 51 -69 122 -126
228 -244 231 -258 5 -22 -22 -16 -51 10 -18 17 -25 31 -20 42 5 13 3 16 -10
11 -11 -4 -39 20 -99 86 -92 101 -130 139 -134 134 -2 -2 -4 -105 -4 -229 -1
-186 -4 -229 -16 -239 -8 -6 -18 -9 -22 -5 -4 4 -8 106 -8 227 -1 121 -5 223
-8 227 -7 6 -74 -60 -225 -223 -105 -112 -99 -98 -52 -147 40 -43 57 -75 24
-46 -10 8 -44 27 -75 41 -42 19 -58 31 -58 45 0 11 -36 57 -80 103 -63 66 -80
90 -80 114 0 28 6 24 98 -73 53 -56 102 -102 109 -102 7 0 16 6 20 14 10 18
84 100 200 223 60 63 89 101 83 107 -6 6 -109 9 -260 7 -245 -2 -250 -2 -250
18 0 24 6 24 608 29 368 2 372 2 372 -18z m211 -2 c1 -13 0 -27 -1 -33 -2 -8
-7 -444 -9 -822 l-1 -92 -88 45 -88 44 2 352 c1 194 2 392 3 441 l1 87 90 0
c86 0 90 -1 91 -22z m590 -13 c30 -15 61 -31 69 -36 8 -5 24 -13 35 -18 37
-16 418 -209 498 -252 9 -5 25 -13 35 -18 9 -6 117 -59 240 -120 122 -61 222
-115 222 -121 0 -6 -17 -18 -37 -27 -21 -10 -45 -22 -53 -28 -8 -6 -34 -19
-57 -29 l-42 -18 -148 75 c-81 41 -285 145 -453 230 -168 85 -322 164 -343
176 -47 26 -46 26 -93 -5 -90 -62 -432 -235 -440 -223 -10 16 -2 189 10 197
13 11 112 64 291 157 72 37 138 73 148 80 25 18 54 13 118 -20z m-2023 3 c3
-15 -4 -18 -35 -18 -21 -1 -112 -3 -203 -5 -142 -4 -170 -2 -200 13 -35 17
-34 17 140 22 283 8 294 8 298 -12z m211 -12 c4 -17 5 -40 1 -51 -3 -11 -5
-75 -4 -142 3 -135 0 -141 -52 -100 -16 12 -29 20 -29 17 -1 -3 -22 6 -48 20
l-47 25 0 126 c0 69 2 128 5 131 3 2 41 5 85 4 l80 0 9 -30z m4031 23 c0 -3
-52 -31 -115 -63 l-115 -58 -50 50 c-27 28 -50 55 -50 60 0 7 51 11 132 11 72
1 133 2 134 4 5 5 64 2 64 -4z m-4715 -36 c28 -15 75 -40 105 -55 30 -14 237
-116 460 -226 223 -110 444 -218 492 -241 48 -22 90 -45 93 -51 7 -11 -166
-100 -195 -100 -22 0 -426 196 -435 210 -3 4 -17 11 -32 15 -15 3 -30 10 -33
14 -5 7 -77 42 -230 113 -36 17 -73 34 -82 39 -246 125 -355 184 -365 197 -15
19 -17 109 -3 114 5 2 47 2 93 1 71 -1 90 -5 132 -30z m4138 7 c3 -11 1 -22
-3 -25 -4 -3 -6 -13 -4 -23 3 -10 -10 -33 -33 -58 -21 -22 -65 -71 -97 -107
-32 -37 -64 -67 -71 -67 -7 0 -57 48 -111 106 -55 59 -114 122 -131 140 -18
19 -33 39 -33 44 0 6 89 10 239 10 230 0 239 -1 244 -20z m-739 -32 c-109
-123 -238 -258 -246 -258 -9 0 -11 284 -1 293 3 4 69 7 146 7 l139 0 -38 -42z
m-1706 -124 c3 -186 -1 -189 -96 -86 -39 42 -101 109 -137 147 -79 84 -81 82
105 81 l125 -1 3 -141z m-1259 119 c-8 -10 -33 -37 -55 -61 l-41 -43 -109 53
-109 53 85 5 c47 3 120 6 164 8 74 2 78 1 65 -15z m751 8 c0 -5 -29 -40 -65
-78 -36 -37 -91 -98 -122 -135 -32 -36 -65 -69 -73 -73 -10 -4 -35 15 -77 60
-129 139 -133 144 -133 191 l0 44 235 0 c135 0 235 -4 235 -9z m2325 -220 c-1
-110 -4 -203 -8 -207 -3 -3 -52 16 -109 44 -57 28 -111 53 -121 56 -31 10 -31
35 -1 64 48 46 219 233 222 243 13 35 18 -27 17 -200z m161 114 c38 -42 99
-108 136 -147 l67 -71 -52 -54 c-29 -29 -80 -69 -114 -88 -116 -66 -121 -57
-122 223 0 116 3 212 8 212 4 0 39 -34 77 -75z m1389 63 c6 -19 12 -1188 6
-1188 -4 0 -13 4 -21 10 -11 7 -14 47 -16 219 0 116 -4 214 -8 218 -4 4 -41
-29 -82 -72 -159 -168 -187 -195 -205 -195 -34 0 -32 3 144 191 95 102 107
118 96 125 -11 7 -506 6 -577 -1 -39 -4 -42 -2 -42 19 l0 23 158 3 c86 1 213
4 282 6 69 2 135 3 148 4 30 0 24 10 -53 92 -33 35 -89 97 -125 137 -84 95
-90 101 -99 101 -5 0 -36 -30 -71 -67 -214 -229 -232 -246 -241 -232 -5 8 -9
17 -9 21 0 4 66 78 146 164 143 151 146 156 125 170 -11 8 -21 19 -21 23 0 14
33 22 44 11 18 -18 35 -11 77 35 34 36 117 95 136 95 3 0 -32 -41 -76 -90 -55
-62 -79 -95 -74 -104 5 -8 70 -79 147 -159 76 -80 142 -151 147 -158 5 -9 11
-10 21 -2 10 9 13 70 12 294 -1 156 1 291 4 301 5 21 21 24 27 6z m-3604 -139
c63 -66 118 -127 122 -135 8 -14 3 -17 -170 -104 -59 -30 -73 -34 -74 -21 -4
129 -4 381 1 381 4 0 58 -54 121 -121z m3552 14 c-1 -48 -2 -90 -3 -93 -1 -3
-1 -27 0 -55 5 -96 6 -280 2 -292 -3 -11 -101 86 -198 197 -21 24 -47 52 -56
62 -34 35 -22 56 123 206 46 48 109 84 124 72 6 -5 9 -47 8 -97z m-3763 -127
l0 -214 -25 -16 c-23 -15 -28 -15 -62 -1 -21 9 -70 50 -110 92 l-72 75 92 102
c51 55 108 118 127 139 19 20 38 37 42 37 5 0 8 -96 8 -214z m-1450 -116 c0
-315 3 -338 43 -289 22 28 167 186 245 267 28 30 52 59 52 64 0 7 -47 64 -93
111 -10 10 -16 21 -14 24 8 8 47 -17 93 -59 37 -34 46 -38 64 -28 16 9 22 8
27 -6 4 -10 2 -19 -5 -22 -27 -9 -31 -4 172 -217 61 -64 95 -108 96 -122 0
-26 -15 -30 -27 -9 -4 8 -39 48 -78 89 -38 41 -98 104 -132 141 -35 36 -66 66
-70 66 -7 0 -123 -121 -123 -128 0 -1 -26 -29 -57 -62 -145 -149 -147 -152
-118 -163 7 -3 147 -3 310 0 285 6 295 5 295 -13 0 -22 12 -21 -387 -24 -133
-1 -244 -4 -247 -8 -6 -5 12 -24 159 -176 119 -122 120 -125 101 -132 -13 -5
-50 26 -152 132 -89 92 -137 135 -144 128 -5 -5 -11 -97 -12 -218 -2 -157 -6
-210 -15 -214 -10 -3 -13 119 -13 587 0 521 2 590 15 585 13 -5 15 -49 15
-304z m94 250 c42 -21 81 -53 137 -115 44 -47 79 -89 79 -93 0 -4 -32 -40 -70
-80 -39 -39 -70 -76 -70 -80 0 -5 -20 -27 -44 -50 -24 -22 -53 -53 -64 -69
-11 -15 -24 -24 -29 -20 -9 10 -13 537 -4 537 3 0 33 -14 65 -30z m2664 -58
c2 -6 -22 -36 -53 -65 l-56 -54 38 -40 c21 -22 92 -97 158 -166 66 -70 124
-126 129 -124 4 1 9 75 10 162 1 135 3 160 16 160 13 0 15 -25 18 -152 1 -84
6 -153 11 -153 5 0 24 18 43 40 20 22 38 37 42 33 15 -15 4 -46 -31 -84 -29
-32 -34 -42 -22 -49 7 -5 24 -7 36 -3 19 4 23 1 23 -16 0 -16 -6 -21 -24 -21
-38 0 -38 -13 -2 -54 23 -25 32 -44 29 -57 -5 -19 -10 -17 -47 20 -23 23 -45
41 -49 41 -4 0 -7 -31 -7 -69 0 -52 -4 -70 -15 -75 -19 -7 -25 21 -22 91 2 35
-2 54 -10 57 -7 3 -38 -24 -70 -60 -124 -141 -240 -262 -264 -275 -13 -6 -25
-6 -38 1 -17 9 -107 99 -274 273 -25 27 -51 46 -57 42 -5 -3 -10 -34 -9 -68 2
-84 1 -87 -16 -81 -11 5 -15 22 -15 69 0 74 -15 88 -51 45 -46 -56 -67 -29
-24 30 30 41 31 50 5 50 -11 0 -23 7 -27 16 -7 18 14 35 34 27 21 -8 15 22
-12 53 -24 28 -34 74 -16 74 5 0 25 -19 45 -41 25 -29 37 -38 41 -28 2 8 6 82
7 164 2 117 6 150 16 150 11 0 14 -33 15 -158 0 -87 5 -160 9 -163 8 -5 39 24
158 152 135 145 160 173 160 184 0 6 -20 33 -45 59 -49 53 -56 71 -25 71 11 0
20 -3 20 -7 0 -14 71 -83 85 -83 7 0 35 23 61 50 46 49 63 57 72 32z m-266
-34 c11 -13 31 -36 44 -51 14 -16 24 -34 22 -42 -2 -7 -46 -59 -98 -116 -52
-56 -110 -118 -127 -137 -18 -20 -35 -33 -39 -29 -11 10 -10 279 1 293 6 7 33
25 60 40 28 15 64 35 80 45 38 22 34 23 57 -3z m343 -1 c6 -4 35 -21 65 -37
l55 -28 2 -151 c1 -83 -1 -151 -5 -151 -4 0 -33 28 -65 63 -31 34 -88 96 -126
137 -39 41 -71 78 -71 82 0 4 22 30 50 58 49 49 64 54 95 27z m1500 -122 c-1
-58 -4 -107 -6 -109 -2 -2 -107 -56 -234 -121 -306 -156 -416 -215 -437 -233
-10 -8 -18 -12 -18 -9 0 5 -90 -39 -166 -82 -10 -5 -43 -22 -71 -36 l-53 -25
0 102 0 103 43 22 c23 12 116 61 207 109 91 47 255 133 365 189 110 57 238
124 285 149 47 25 86 46 86 46 1 0 1 -47 -1 -105z m462 79 c14 -14 13 -19 -18
-50 -67 -69 -132 -139 -171 -186 -23 -26 -44 -45 -48 -43 -9 6 -3 176 7 186
10 10 195 107 206 108 5 1 15 -6 24 -15z m-2899 -111 l-3 -106 -50 -27 c-27
-15 -131 -68 -230 -119 -99 -51 -184 -97 -190 -101 -20 -16 -494 -260 -505
-260 -4 0 -6 30 -5 68 2 37 3 84 4 105 0 20 5 37 10 37 5 0 38 16 73 36 34 20
122 67 193 104 72 37 167 87 213 111 46 24 127 67 180 95 179 93 277 146 287
155 21 21 26 4 23 -98z m-1331 11 l113 -55 0 -85 c0 -46 -3 -84 -7 -84 -9 0
-220 221 -237 249 -7 11 0 31 11 31 4 0 58 -25 120 -56z m2531 9 c26 -17 28
-22 27 -81 -1 -58 -3 -65 -38 -99 -21 -19 -39 -34 -42 -32 -3 4 -8 157 -6 207
1 27 20 28 59 5z m-890 -118 c0 -69 -1 -125 -3 -125 -2 0 -18 13 -36 30 -25
22 -34 40 -38 77 -9 72 0 112 29 127 46 25 47 23 48 -109z m2720 67 c22 -26
77 -85 121 -132 67 -69 79 -85 64 -90 -10 -4 -127 -7 -260 -9 -194 -2 -243 1
-243 11 1 12 41 57 192 215 33 34 65 60 72 57 7 -3 31 -26 54 -52z m-1688 -23
c44 -22 81 -48 83 -57 6 -23 7 -954 1 -963 -2 -4 -41 12 -87 36 l-82 44 -3
490 c-1 270 0 491 3 491 4 0 42 -18 85 -41z m-2819 -15 c24 -26 69 -73 99
-104 101 -106 131 -140 123 -141 -4 -1 -53 -3 -108 -3 -314 -6 -421 -7 -428
-7 -11 1 20 39 132 160 47 51 95 104 105 117 11 13 23 24 26 24 4 0 27 -21 51
-46z m384 -37 l81 -39 -3 -361 c-1 -199 -2 -417 -2 -484 l-1 -122 -84 42 c-58
29 -86 48 -88 62 -4 17 -3 768 1 898 0 27 4 47 9 45 4 -1 43 -20 87 -41z
m2612 -37 c30 -16 61 -30 69 -30 8 0 14 -4 14 -8 0 -5 16 -16 35 -25 19 -9 35
-20 35 -25 0 -28 -140 -62 -197 -47 -21 5 -23 11 -23 85 0 44 3 80 6 80 3 0
31 -13 61 -30z m892 -25 c25 -29 30 -41 25 -63 -10 -37 -19 -42 -95 -42 -46 0
-70 4 -79 14 -6 8 -21 16 -32 18 -42 6 -27 24 54 65 46 24 86 43 89 43 4 0 21
-16 38 -35z m-2409 -55 l0 -80 -83 0 c-58 0 -89 5 -103 15 -10 8 -27 15 -36
15 -30 0 -20 14 30 40 26 14 71 40 101 57 85 51 91 48 91 -47z m-918 32 c2 -5
33 -23 71 -40 37 -18 67 -36 67 -40 0 -19 -73 -42 -135 -42 l-65 0 0 42 c0 29
7 49 22 65 23 24 34 28 40 15z m3425 -218 c180 -91 335 -169 343 -174 8 -5 35
-18 60 -30 25 -11 52 -25 60 -30 8 -5 65 -33 125 -62 61 -29 112 -55 115 -58
3 -3 35 -20 73 -39 37 -18 67 -37 67 -41 0 -4 -64 -39 -142 -78 -79 -39 -199
-101 -269 -139 -246 -134 -259 -140 -273 -121 -8 11 -12 50 -12 105 l1 88 50
27 c28 14 87 46 133 69 45 24 81 48 79 53 -3 9 -17 19 -47 31 -8 3 -64 32
-125 64 -60 32 -211 109 -335 170 -124 62 -232 116 -240 121 -8 5 -57 30 -108
56 -51 25 -90 50 -85 55 14 13 177 99 190 99 6 0 159 -74 340 -166z m-2523 7
c143 -71 347 -170 451 -221 105 -51 320 -157 479 -236 159 -79 295 -144 302
-144 7 0 14 -4 16 -8 4 -12 151 -82 170 -82 9 0 18 -4 20 -9 2 -4 113 -62 247
-129 l244 -120 -29 -15 c-16 -8 -60 -31 -98 -51 -38 -20 -77 -36 -86 -36 -9 0
-38 11 -64 25 -26 14 -53 25 -61 25 -7 0 -15 3 -17 8 -3 7 -79 45 -613 307
-462 227 -717 353 -755 375 -33 18 -223 110 -407 195 -46 21 -83 42 -83 47 0
4 -6 8 -12 8 -16 0 -158 72 -158 80 0 3 39 26 86 50 47 25 88 48 90 53 3 4 8
7 11 7 3 0 123 -58 267 -129z m3230 8 c-27 -28 -88 -92 -135 -142 l-87 -89
-46 22 c-26 13 -74 55 -113 98 -37 41 -83 90 -100 110 -18 20 -33 39 -33 42 0
4 127 8 281 9 l282 2 -49 -52z m-1257 -11 c15 -17 81 -85 145 -151 l117 -120
55 58 c37 40 59 56 70 52 24 -9 20 -17 -34 -77 -28 -30 -50 -59 -50 -65 0 -5
39 -50 87 -100 74 -78 110 -135 83 -135 -9 0 -171 164 -183 186 -13 22 -33 17
-62 -18 -15 -18 -70 -78 -121 -133 -136 -146 -154 -167 -149 -175 3 -4 24 -6
47 -5 37 3 363 7 438 5 21 0 20 -2 -14 -19 -33 -17 -63 -20 -247 -23 -128 -1
-214 -7 -219 -13 -5 -6 15 -35 51 -73 32 -35 59 -68 59 -73 0 -25 -42 -3 -87
46 -29 30 -54 55 -57 55 -3 0 -6 -27 -6 -60 0 -85 -33 -79 -36 7 -3 65 -12 69
-53 29 -25 -25 -43 -35 -54 -30 -23 8 -22 11 13 51 17 18 30 38 30 43 0 6 -51
10 -125 10 -99 0 -134 4 -163 18 l-37 17 159 5 c112 4 161 9 163 17 3 7 -52
70 -120 140 -69 70 -136 141 -150 158 -21 25 -27 28 -41 16 -14 -12 -16 -9
-16 33 0 39 3 46 19 46 11 0 53 37 102 89 72 78 168 153 158 123 -2 -6 -52
-63 -111 -127 -60 -63 -108 -119 -108 -123 0 -14 312 -332 320 -327 5 3 6 146
3 319 -4 307 -4 315 16 325 11 6 22 11 25 11 3 0 6 -142 6 -315 0 -265 2 -315
14 -315 8 0 16 4 18 9 3 9 152 172 226 247 23 23 42 51 42 61 0 10 -65 85
-144 168 -80 82 -142 153 -140 157 10 16 33 7 61 -24z m195 -63 l158 -77 -21
-29 c-21 -29 -57 -59 -72 -59 -8 0 -52 44 -215 214 -26 26 -38 44 -27 39 11
-6 91 -45 177 -88z m-3422 57 c0 -15 -213 -233 -242 -248 -35 -18 -58 -18 -58
1 0 8 -7 15 -15 15 -8 0 -15 7 -15 15 0 8 -6 15 -14 15 -8 0 -16 4 -18 10 -1
5 -43 50 -91 99 l-88 90 53 4 c110 7 488 7 488 -1z m748 -11 c-24 -34 -245
-261 -255 -261 -16 0 -85 80 -80 93 3 7 29 25 58 40 106 53 244 128 253 137 6
6 16 10 24 10 11 0 11 -3 0 -19z m57 -1 c9 -15 -2 -31 -114 -147 -58 -59 -119
-124 -138 -143 l-33 -35 71 -75 c190 -201 228 -240 237 -240 16 0 34 27 23 34
-6 4 -6 18 0 38 4 17 6 41 3 52 -5 22 -11 496 -6 496 2 0 12 -5 23 -10 18 -10
19 -24 19 -310 0 -244 2 -300 13 -300 17 0 307 306 307 323 0 3 -46 51 -101
107 -56 55 -98 104 -95 108 4 3 15 1 24 -6 9 -7 27 -16 39 -21 11 -6 43 -33
70 -62 75 -81 85 -90 105 -83 16 5 18 -1 18 -44 0 -43 -3 -50 -17 -46 -22 5
-26 3 -92 -71 -30 -33 -95 -102 -144 -153 -49 -52 -86 -96 -83 -100 3 -3 73
-5 156 -4 124 2 148 -1 144 -12 -8 -21 -35 -25 -177 -27 -70 0 -129 -5 -132
-9 -3 -5 11 -25 30 -45 35 -34 39 -55 10 -55 -7 0 -22 12 -33 27 -24 33 -44
23 -39 -23 5 -44 -17 -66 -38 -38 -7 10 -10 23 -6 27 9 9 2 57 -7 57 -4 0 -36
-29 -72 -65 -47 -46 -69 -62 -79 -56 -11 7 0 25 50 80 35 40 66 76 67 81 2 6
-84 10 -227 10 -153 0 -239 4 -256 12 -54 24 -54 24 278 27 150 1 197 4 197
14 0 6 -52 66 -115 132 -63 66 -115 123 -115 127 0 5 -5 8 -10 8 -6 0 -23 14
-38 31 l-28 31 -104 -112 c-74 -79 -106 -108 -108 -96 -2 9 4 28 12 42 13 19
120 137 171 187 7 7 -10 30 -52 70 -67 64 -71 72 -49 80 9 4 35 -15 67 -49 29
-29 58 -54 64 -54 12 0 115 105 224 228 65 73 75 80 86 62z m3785 -175 c-1
-119 -5 -185 -11 -185 -18 0 -229 112 -229 121 0 5 5 9 10 9 6 0 10 5 10 11 0
13 199 229 211 229 5 0 9 -83 9 -185z m-1502 -116 c1 -155 -1 -285 -3 -290 -6
-8 -210 197 -251 252 -13 18 -20 37 -16 44 4 7 48 57 99 111 50 55 106 116
123 136 18 21 36 36 40 33 4 -2 7 -131 8 -286z m-757 264 c2 -31 -2 -88 -7
-103 -3 -8 -33 -28 -67 -45 -34 -16 -84 -42 -111 -58 -55 -32 -70 -30 -34 5
13 13 63 67 112 121 49 53 92 97 97 97 5 0 9 -8 10 -17z m882 -19 c47 -54 147
-162 186 -200 39 -39 48 -23 -88 -174 -98 -109 -128 -136 -138 -126 -8 7 -15
515 -7 527 8 14 14 11 47 -27z m-1436 -91 c61 -65 115 -122 119 -126 11 -10
-111 47 -129 60 -6 6 -33 18 -59 29 -46 18 -48 21 -49 59 0 22 -2 52 -3 68 -1
15 1 27 5 27 3 0 56 -53 116 -117z m-2297 5 c44 -45 80 -86 80 -90 0 -4 6 -8
13 -9 6 0 24 -15 40 -34 l27 -33 -107 -59 c-60 -32 -114 -59 -120 -61 -10 -3
-13 18 -13 80 0 46 -2 129 -3 186 -1 56 -1 102 0 102 1 0 38 -37 83 -82z
m1340 60 c1 -35 1 -511 1 -525 -1 -7 -18 4 -39 25 -22 20 -37 40 -35 45 2 4 0
7 -5 7 -13 0 -182 177 -182 191 0 7 15 25 117 136 43 47 89 98 103 113 31 35
40 36 40 8z m192 -65 c132 -135 168 -175 168 -183 0 -4 -40 -50 -88 -101 -49
-52 -107 -114 -130 -139 -22 -24 -43 -42 -46 -39 -3 3 -6 97 -7 210 -1 297 0
339 9 339 5 0 47 -39 94 -87z m1483 35 c3 -13 3 -56 1 -97 -4 -83 -10 -91
-101 -133 -27 -12 -52 -25 -55 -28 -3 -3 -32 -19 -65 -36 -60 -31 -92 -32
-110 -5 -3 6 -13 11 -20 11 -18 0 -115 59 -115 69 0 5 17 15 38 24 20 9 82 41
137 71 229 124 270 145 277 146 4 0 10 -10 13 -22z m-2445 -115 l0 -108 -63
-33 c-34 -19 -92 -50 -129 -69 -38 -19 -68 -41 -68 -48 0 -8 26 -25 58 -40 31
-14 80 -37 107 -51 28 -15 91 -47 140 -71 50 -25 137 -69 195 -99 58 -29 180
-91 272 -136 93 -46 167 -86 165 -91 -1 -4 -45 -29 -97 -55 l-95 -49 -470 236
c-258 130 -472 239 -475 242 -3 3 -16 10 -30 15 -63 24 -190 90 -190 99 0 6
26 22 57 38 32 15 101 50 153 78 52 28 165 87 250 132 85 44 169 89 185 99 17
10 31 18 33 18 1 0 2 -48 2 -107z m3639 38 c11 -7 15 -37 16 -131 0 -67 -2
-123 -6 -126 -4 -2 -39 31 -77 74 l-70 78 51 57 c53 59 62 63 86 48z m221
-593 c0 -319 -3 -478 -10 -478 -6 0 -46 18 -90 40 l-80 40 0 486 0 485 90 -48
90 -47 0 -478z m-3532 506 c29 -31 52 -61 52 -67 -1 -7 -32 -45 -70 -86 -78
-83 -73 -85 -72 37 0 35 -4 62 -9 62 -6 0 -7 6 -2 12 4 7 6 25 5 39 -3 24 19
59 37 59 4 0 31 -25 59 -56z m1008 -15 c46 -22 84 -46 85 -52 2 -51 6 -953 3
-958 -2 -3 -41 13 -89 35 l-85 40 -1 50 c-4 204 -5 926 -1 926 3 0 42 -18 88
-41z m2642 -71 c34 -18 62 -35 62 -38 0 -15 -141 -141 -152 -138 -9 3 -14 37
-16 112 l-3 108 23 -7 c13 -3 51 -20 86 -37z m-1532 -86 c0 -110 0 -112 -23
-112 -13 0 -23 4 -23 9 0 5 -9 11 -20 14 -19 5 -21 12 -18 93 3 83 5 89 28
101 50 26 55 18 56 -105z m-951 79 c28 -17 30 -21 33 -89 3 -72 3 -72 -30 -92
-41 -25 -50 -25 -46 -2 1 9 -1 23 -5 30 -5 7 -3 12 4 12 7 0 8 4 2 13 -5 6 -8
35 -7 62 3 98 0 94 49 66z m-1495 -106 c0 -76 -4 -115 -11 -115 -6 0 -43 32
-81 72 l-71 71 30 16 c17 9 52 28 79 43 27 15 50 27 52 28 1 0 2 -52 2 -115z
m3499 68 c24 -27 70 -76 102 -110 47 -50 57 -67 54 -90 -2 -15 -4 -31 -4 -35
-1 -10 -471 -10 -471 0 0 4 23 32 51 62 175 189 205 220 214 220 5 0 29 -21
54 -47z m-698 -68 c157 -164 168 -176 155 -181 -6 -2 -73 -3 -147 -2 l-134 3
-3 134 c-4 184 -4 184 129 46z m-1581 -76 l0 -128 -146 -3 c-80 -2 -148 -1
-150 1 -2 2 6 14 19 25 12 12 60 64 107 116 147 162 141 156 156 135 10 -14
14 -54 14 -146z m-721 99 c22 -24 79 -83 126 -133 47 -49 85 -92 85 -96 0 -3
-106 -7 -235 -8 l-235 -2 0 37 c0 32 11 47 98 139 53 56 102 103 109 104 6 0
30 -18 52 -41z m4101 -608 c-1 -573 -1 -585 -19 -563 -11 13 -17 31 -14 42 7
28 -14 35 -39 12 -42 -40 -60 -17 -22 29 37 43 21 51 -21 10 l-34 -33 -43 21
-43 21 58 1 c31 0 57 5 57 10 0 9 -79 15 -136 11 -12 -1 -37 7 -55 18 l-34 21
128 0 c70 0 127 4 127 9 0 8 -56 70 -229 251 l-80 84 -41 -44 c-99 -109 -163
-170 -176 -170 -31 0 -17 22 84 129 62 66 94 109 90 120 -1 5 -57 67 -123 137
-66 69 -121 130 -123 134 -2 4 4 10 13 14 11 4 49 -28 125 -105 61 -61 110
-114 110 -118 0 -12 41 -32 52 -25 6 4 25 23 42 43 17 19 82 91 144 159 61 68
112 129 112 135 0 9 -46 11 -186 7 -102 -3 -192 -3 -200 0 -11 4 -4 11 21 23
29 14 65 17 185 17 137 0 150 2 150 18 0 10 -16 32 -35 51 -39 36 -42 46 -19
55 10 4 23 -2 34 -16 39 -49 71 -79 81 -76 6 2 12 37 13 81 1 56 6 81 16 87 9
6 17 5 22 -3 4 -7 8 -275 8 -597z m-2799 539 c56 -27 100 -52 98 -53 -5 -4
-133 -72 -294 -156 -66 -34 -126 -67 -132 -72 -18 -14 -27 13 -25 79 2 129 0
122 35 138 17 8 73 37 122 64 50 26 91 49 93 50 1 0 48 -22 103 -50z m-2486
-1 c6 -16 13 -83 14 -125 1 -18 6 -33 12 -33 6 0 29 20 51 45 35 40 65 55 80
40 3 -3 -17 -28 -44 -56 -26 -27 -48 -54 -48 -60 0 -11 17 -12 200 -10 111 2
152 -1 173 -12 16 -8 24 -17 19 -21 -5 -3 -58 -5 -118 -5 -241 1 -274 0 -274
-14 0 -7 72 -87 160 -177 l159 -164 23 20 c13 10 26 22 29 27 3 4 46 50 95
103 49 53 93 102 97 110 11 20 37 17 37 -4 0 -10 -8 -25 -17 -33 -10 -9 -47
-49 -83 -89 -36 -40 -82 -91 -102 -114 -21 -23 -38 -46 -38 -53 0 -6 45 -57
99 -112 81 -82 96 -102 85 -112 -11 -9 -29 4 -93 67 -43 44 -90 89 -103 102
l-25 23 -29 -28 c-16 -15 -63 -66 -104 -112 -41 -47 -94 -105 -117 -130 -24
-25 -43 -51 -43 -58 0 -9 31 -13 108 -15 94 -3 104 -5 84 -16 -13 -7 -58 -15
-100 -17 -42 -2 -83 -4 -89 -4 -18 -1 -16 -30 2 -37 16 -7 21 -44 6 -44 -6 0
-22 11 -37 25 -43 40 -61 32 -39 -18 5 -13 1 -25 -13 -40 -12 -11 -24 -18 -27
-15 -4 3 -9 270 -12 592 -4 443 -3 586 6 586 6 0 14 -6 16 -12z m2872 -190
c16 -17 8 -18 -172 -19 -105 0 -229 -3 -277 -5 -49 -3 -88 -2 -88 0 0 3 17 15
38 26 34 18 53 20 259 17 196 -2 224 -4 240 -19z m1466 10 c2 -7 5 -54 6 -105
l2 -92 -38 -24 c-21 -13 -90 -51 -153 -84 -63 -33 -173 -91 -245 -128 -71 -38
-170 -89 -220 -114 -49 -25 -94 -49 -100 -53 -28 -20 -207 -108 -220 -108 -12
0 -15 18 -15 100 l0 99 33 17 c17 9 34 20 37 23 3 4 46 28 95 52 50 25 126 65
170 88 44 24 136 72 205 108 69 36 157 82 195 103 39 20 102 54 140 74 39 21
74 42 80 47 13 12 22 11 28 -3z m801 -50 c-16 -18 -59 -64 -95 -103 -36 -38
-86 -92 -112 -120 l-46 -50 -115 118 c-64 65 -116 122 -116 127 0 5 21 21 48
34 46 24 54 25 256 26 l210 0 -30 -32z m-3234 -77 l0 -100 -117 -57 c-65 -32
-129 -65 -143 -74 -14 -10 -126 -69 -250 -132 -124 -63 -277 -143 -341 -176
-64 -34 -119 -62 -122 -62 -4 0 -7 45 -7 100 0 57 4 100 10 100 5 0 33 14 62
31 29 18 145 79 258 137 113 58 237 123 275 143 39 20 106 55 150 78 44 23
109 57 145 76 36 19 68 35 73 35 4 0 7 -45 7 -99z m2285 91 c-5 -6 -59 -36
-118 -67 l-108 -56 -49 53 c-27 29 -50 56 -50 60 0 10 31 13 190 16 94 2 141
0 135 -6z m-1808 -94 c161 -169 241 -248 252 -248 6 0 23 14 38 32 16 18 44
48 63 68 19 19 75 79 124 133 80 88 111 110 111 80 0 -12 -32 -48 -189 -217
-55 -59 -105 -115 -109 -122 -6 -11 24 -50 110 -142 65 -70 124 -131 131 -135
17 -11 15 -37 -3 -37 -15 0 -122 104 -218 213 -28 31 -54 57 -58 57 -7 0 -89
-83 -131 -133 -71 -86 -133 -147 -150 -147 -27 0 -23 10 33 70 163 176 204
223 207 237 2 8 -32 51 -75 96 -44 45 -114 118 -156 162 -41 44 -79 76 -84 72
-8 -9 -5 -575 3 -589 3 -4 -1 -8 -8 -8 -36 0 -38 19 -38 317 l0 292 28 15 c15
8 30 15 34 16 4 0 42 -37 85 -82z m533 78 c0 -5 -108 -123 -202 -220 -38 -39
-68 -74 -68 -78 0 -4 -3 -8 -7 -8 -9 0 -293 293 -293 303 0 4 128 7 285 7 157
0 285 -2 285 -4z m-1510 -24 c0 -5 -27 -34 -59 -65 l-60 -57 -83 41 c-130 64
-149 73 -154 82 -3 4 76 7 175 7 100 0 181 -4 181 -8z m1609 -1 c10 -7 13 -66
15 -292 1 -261 0 -284 -16 -287 -16 -3 -18 19 -20 292 -2 163 -1 296 2 296 3
0 11 -4 19 -9z m-2439 -21 c22 -11 40 -25 40 -30 0 -6 -24 -36 -54 -68 -109
-115 -128 -136 -143 -159 -8 -12 -20 -23 -25 -23 -5 0 -46 37 -90 83 -44 45
-109 112 -146 149 l-65 67 221 1 c205 0 225 -1 262 -20z m2400 -305 c0 -249
-2 -285 -15 -285 -17 0 -33 16 -140 135 -38 43 -82 89 -97 103 -34 31 -35 40
-4 72 82 86 188 200 211 228 15 17 31 32 36 32 5 0 9 -120 9 -285z m119 248
l36 -38 0 -200 0 -199 -34 -23 c-19 -13 -36 -21 -38 -19 -6 6 -10 516 -4 516
2 0 21 -17 40 -37z m1519 -6 c7 -9 60 -63 117 -120 l104 -102 -107 -112 -108
-111 -27 16 -27 17 -1 125 c0 69 -1 166 -3 215 -3 108 0 121 23 103 9 -7 22
-21 29 -31z m-2398 -232 c0 -146 -3 -265 -7 -264 -5 0 -21 8 -38 18 l-30 18
-3 206 -3 207 32 40 c18 22 36 40 41 40 4 0 8 -119 8 -265z m310 28 c22 -22
40 -47 40 -53 0 -13 -94 -127 -123 -148 -10 -8 -22 -19 -27 -25 -51 -61 -105
-115 -112 -111 -4 3 -8 134 -8 291 l0 286 95 -99 c52 -54 113 -118 135 -141z
m727 167 l83 -41 0 -42 c3 -357 3 -927 -1 -931 -6 -6 -161 72 -171 86 -10 16
-11 968 -1 968 4 0 45 -18 90 -40z m-2453 -16 c39 -20 77 -42 85 -49 11 -11
15 -101 18 -489 3 -262 2 -476 -2 -476 -4 0 -44 18 -90 41 -73 37 -83 45 -88
73 -8 49 -9 936 -1 936 4 0 39 -16 78 -36z m-106 -196 l2 -215 -25 -13 c-25
-13 -28 -11 -98 63 -40 42 -85 89 -100 105 l-28 29 68 71 c37 39 90 96 116
127 27 30 52 53 56 51 3 -2 7 -101 9 -218z m3650 58 l0 -114 -62 25 c-88 38
-93 44 -61 79 15 16 46 50 68 77 22 26 44 47 48 47 4 0 7 -51 7 -114z m-3279
-79 c-9 -7 -128 -67 -134 -67 -3 0 -5 48 -5 107 l0 108 72 -73 c39 -39 69 -73
67 -75z m3070 39 c143 -76 1121 -556 1131 -556 24 0 -13 -32 -70 -60 -30 -16
-89 -46 -130 -68 -41 -21 -151 -78 -243 -125 -93 -47 -174 -90 -180 -94 -7 -5
-24 -14 -39 -21 l-28 -12 0 104 0 104 63 32 c34 19 93 50 131 69 38 20 71 41
73 47 2 5 -213 118 -476 250 -264 131 -479 243 -478 247 2 6 181 104 196 106
2 1 24 -10 50 -23z m-2438 -36 c35 -17 71 -34 79 -39 8 -5 94 -49 190 -96 255
-127 559 -279 680 -340 58 -30 150 -76 205 -103 55 -27 109 -54 120 -60 11 -6
45 -23 75 -37 30 -14 93 -46 140 -70 47 -25 90 -45 97 -45 6 0 13 -3 15 -7 2
-5 98 -54 213 -111 303 -149 298 -146 299 -156 0 -4 -41 -30 -91 -56 l-93 -47
-703 351 c-387 193 -794 395 -903 450 -109 54 -219 109 -244 121 -25 13 -70
35 -100 49 -30 15 -62 30 -70 35 -8 5 -50 26 -92 47 -43 21 -74 42 -69 47 9 9
173 96 182 97 3 0 34 -14 70 -30z m3459 -302 c0 -5 -61 -8 -135 -8 l-136 0
-89 46 c-50 25 -90 47 -90 49 0 6 99 114 144 158 l40 38 133 -138 c73 -76 133
-141 133 -145z m-2503 238 c4 -8 54 -62 111 -120 56 -58 102 -111 102 -118 0
-30 -53 -38 -246 -38 -106 0 -199 3 -208 6 -23 9 -20 37 7 61 12 11 65 65 117
121 52 56 98 102 102 102 4 0 11 -6 15 -14z m-2175 -101 c46 -47 84 -90 86
-95 2 -4 -39 -29 -90 -53 -92 -45 -94 -46 -220 -50 l-128 -5 78 85 c42 47 98
108 125 136 26 28 47 54 47 59 0 21 26 1 102 -77z m967 56 c26 -19 28 -24 28
-100 0 -45 -3 -81 -7 -81 -11 0 -152 152 -146 158 17 16 63 41 79 41 11 1 31
-8 46 -18z m2351 -79 c0 -49 3 -92 7 -96 4 -4 43 31 88 78 59 64 84 83 94 77
17 -11 -5 -43 -82 -123 -91 -94 -105 -88 193 -88 143 0 260 -3 260 -7 -1 -29
-23 -31 -265 -35 -213 -3 -250 -5 -253 -18 -1 -9 65 -85 152 -174 l154 -159
23 18 c13 10 57 58 98 107 41 48 78 88 82 88 5 0 9 -12 9 -26 0 -18 -17 -44
-54 -82 -75 -80 -116 -128 -116 -138 0 -4 14 -22 31 -40 30 -31 30 -33 11 -43
-16 -9 -24 -6 -45 15 -14 14 -32 24 -40 22 -8 -1 -51 -43 -97 -93 -73 -79
-127 -123 -153 -125 -11 0 53 75 147 174 42 43 76 82 76 86 0 5 -32 41 -70 82
-175 182 -232 238 -240 233 -4 -2 -5 -131 -3 -285 4 -243 3 -280 -10 -280 -8
0 -19 6 -24 13 -6 7 -11 125 -12 292 -2 154 -5 282 -8 285 -2 3 -27 -19 -54
-49 -58 -63 -57 -83 1 -26 l40 39 1 -239 c0 -132 2 -250 3 -262 2 -13 -1 -23
-5 -23 -4 0 -40 16 -81 36 -51 26 -92 56 -135 101 -35 36 -63 69 -63 74 0 5
27 37 60 72 78 83 104 117 96 124 -7 7 -171 -159 -186 -188 -8 -13 -1 -25 31
-54 22 -20 39 -38 37 -40 -2 -2 -31 9 -63 26 -53 26 -61 34 -66 65 -6 33 -5
35 17 30 12 -3 24 -2 26 3 2 5 37 46 78 92 41 46 87 97 102 114 15 16 48 52
73 80 25 27 45 53 45 57 0 10 9 9 -173 9 -81 0 -154 2 -162 6 -26 9 -17 33 13
33 15 0 91 1 170 2 78 1 142 6 142 10 0 8 -85 105 -104 119 -11 8 1 29 17 29
7 0 36 -25 66 -55 30 -31 59 -54 65 -52 7 2 12 36 13 86 2 93 6 111 28 111 12
0 15 -16 15 -88z m-2260 -54 c0 -43 3 -78 7 -78 4 0 30 26 59 57 45 48 55 55
68 44 14 -12 9 -21 -40 -73 -30 -33 -53 -65 -51 -72 3 -8 52 -10 165 -9 128 1
162 -1 162 -11 0 -20 -47 -26 -196 -26 -75 0 -135 -4 -139 -10 -3 -5 36 -52
87 -103 51 -52 124 -127 161 -166 38 -39 74 -71 81 -71 14 0 13 -47 -1 -60
-14 -13 -103 -62 -103 -57 0 2 13 20 30 38 16 19 30 39 30 44 0 6 -48 60 -106
120 -58 61 -125 131 -150 158 -25 26 -50 47 -55 47 -7 0 -10 -87 -7 -275 3
-257 2 -275 -14 -275 -16 0 -18 12 -19 108 -1 59 -3 148 -4 197 -1 50 -3 125
-4 168 -1 54 -5 77 -13 77 -7 0 -42 -33 -78 -72 -36 -40 -83 -91 -105 -114
-63 -65 -99 -106 -112 -128 -12 -22 2 -38 165 -202 35 -35 59 -64 53 -64 -32
0 -76 33 -162 122 l-96 100 -31 -31 c-29 -30 -52 -38 -65 -25 -3 4 9 25 29 47
l34 41 -77 79 c-43 44 -86 88 -95 98 -19 20 -25 59 -9 59 5 0 52 -45 104 -101
110 -115 103 -114 183 -22 29 32 67 74 85 94 98 103 149 161 149 170 0 6 -101
8 -262 7 -228 -3 -263 -1 -263 12 0 13 36 15 250 18 137 1 253 6 257 10 5 5
-34 53 -86 107 -53 54 -93 102 -90 106 13 21 40 4 117 -76 45 -47 90 -85 100
-85 15 0 17 12 17 97 0 95 0 96 20 78 17 -15 20 -31 20 -97z m2615 31 c55 -28
119 -61 142 -73 24 -11 43 -24 43 -28 0 -10 -448 -13 -458 -3 -2 2 12 20 30
41 78 88 117 124 129 119 8 -3 59 -28 114 -56z m-2853 -24 c3 -6 27 -33 52
-60 25 -27 45 -50 43 -51 -1 -1 -105 -4 -231 -6 -152 -2 -230 0 -233 7 -2 6
36 31 84 57 49 25 117 61 153 81 l65 35 30 -26 c16 -15 33 -32 37 -37z m1839
-74 c1 -82 -1 -96 -17 -108 -17 -13 -89 -51 -195 -104 -50 -25 -89 -34 -89
-20 0 6 -5 11 -12 11 -14 0 -158 70 -158 77 0 10 46 42 60 43 8 0 38 15 65 32
86 54 330 177 337 170 4 -4 8 -49 9 -101z m471 43 c24 -25 45 -50 46 -55 2 -5
-62 -9 -144 -9 -118 0 -146 3 -136 13 15 15 162 94 179 96 7 0 32 -20 55 -45z
m-2912 -64 l0 -99 -124 -61 c-68 -34 -132 -70 -141 -80 -19 -21 -22 -20 135
-95 263 -126 829 -411 829 -417 1 -8 -123 -75 -167 -91 -23 -9 -122 36 -497
226 -55 27 -235 118 -399 201 -165 83 -301 156 -303 162 -2 6 31 29 74 51 43
22 132 68 198 103 66 35 149 78 185 97 36 18 72 37 80 42 28 17 115 60 123 60
4 1 7 -44 7 -99z m1120 39 c8 -5 30 -17 48 -26 17 -9 32 -19 32 -22 0 -4 -63
-7 -140 -9 -77 -1 -140 0 -140 3 0 2 21 27 46 54 l46 50 47 -21 c25 -11 53
-25 61 -29z m2603 -54 c20 -8 38 -19 42 -25 3 -5 14 -10 23 -10 9 0 28 -9 40
-19 l24 -18 4 -284 c2 -156 6 -375 8 -486 4 -236 10 -225 -100 -167 -38 20
-70 37 -71 38 -5 4 -15 986 -11 986 3 0 22 -7 41 -15z m-2302 -108 c7 -64 11
-948 5 -954 -3 -3 -45 15 -93 40 l-88 45 -3 486 -3 485 90 -45 c50 -24 92 -50
92 -57z m1547 44 c8 -2 -21 -38 -109 -133 -53 -56 -109 -118 -124 -135 -55
-66 -67 -41 -69 140 l-1 122 135 5 c116 4 153 4 168 1z m692 -31 c0 -25 -7
-48 -17 -60 -10 -10 -45 -50 -78 -87 -33 -38 -73 -79 -88 -92 l-28 -23 -139
143 c-76 78 -137 146 -134 151 3 4 113 8 245 8 l239 0 0 -40z m-2951 4 c11 -3
7 -12 -15 -33 -16 -15 -58 -60 -94 -100 -104 -115 -148 -161 -154 -161 -3 0
-40 36 -83 79 -135 138 -135 137 -131 173 l3 33 150 5 c272 9 310 10 324 4z
m503 -26 c4 -92 5 -235 1 -245 -3 -7 -11 -13 -17 -13 -11 0 -262 250 -280 278
-5 9 28 12 143 12 l151 0 2 -32z m1953 -65 c11 -13 66 -72 123 -130 56 -58
102 -110 102 -115 0 -4 -26 -34 -57 -67 -32 -32 -85 -91 -118 -129 -60 -71
-79 -83 -88 -59 -3 7 -6 131 -6 276 -2 280 -2 278 44 224z m-2384 -248 c4
-267 4 -270 -17 -273 -14 -2 -34 12 -63 45 -24 26 -77 83 -118 125 l-76 78 19
22 c10 13 41 45 67 72 27 28 55 59 63 70 19 29 117 137 120 134 1 -2 3 -124 5
-273z m226 119 l132 -137 -61 -68 c-37 -41 -75 -73 -94 -79 -18 -6 -49 -22
-68 -35 -20 -13 -38 -21 -40 -16 -9 14 -18 471 -9 471 4 0 67 -61 140 -136z
m3589 64 c4 -18 6 -51 4 -73 -1 -22 -2 -58 -2 -80 0 -22 4 -259 8 -527 6 -449
5 -488 -10 -488 -9 0 -16 6 -17 13 -3 29 -8 234 -11 375 -1 93 -6 152 -12 152
-5 0 -27 -19 -49 -42 -41 -45 -253 -271 -264 -282 -4 -3 9 -20 27 -36 18 -16
31 -32 29 -35 -16 -15 -103 56 -247 201 -126 126 -164 171 -167 194 -2 16 -2
30 0 30 1 0 54 -52 116 -116 217 -222 223 -226 253 -183 17 24 109 127 208
233 37 39 68 77 68 84 0 9 -65 11 -307 8 -170 -3 -315 -7 -323 -10 -12 -5 -16
3 -17 40 -2 26 1 54 6 62 9 17 80 95 179 199 34 36 62 69 62 73 0 4 23 17 51
31 51 24 52 24 63 4 19 -35 292 -315 306 -315 6 0 10 97 10 253 0 140 3 257 7
260 13 14 22 6 29 -25z m-2783 -45 c53 -26 97 -50 97 -53 0 -4 -33 -22 -72
-42 -109 -53 -277 -140 -331 -172 -26 -16 -50 -27 -52 -25 -2 2 -5 49 -7 104
l-3 100 40 21 c125 66 181 97 190 105 17 16 39 10 138 -38z m2723 26 c6 -43 8
-418 2 -424 -6 -6 -85 70 -236 229 l-43 45 18 26 c10 14 63 48 118 76 55 28
104 55 110 60 13 12 28 6 31 -12z m-5196 -273 c1 -168 5 -248 12 -252 7 -4 35
19 67 53 151 164 212 230 234 256 23 28 25 28 59 14 19 -8 49 -28 66 -43 17
-16 37 -34 44 -40 7 -6 34 -33 59 -61 96 -102 128 -143 123 -158 -6 -15 -24
-21 -24 -7 0 4 -62 72 -139 151 l-138 144 -65 -69 c-59 -63 -121 -131 -205
-227 -60 -67 -66 -65 255 -60 158 2 293 6 300 8 11 4 14 0 16 -27 1 -10 -67
-14 -298 -18 -186 -3 -301 -9 -302 -15 -2 -5 69 -84 157 -175 l160 -165 42 46
c43 46 163 178 215 237 35 39 41 40 33 3 -3 -17 -46 -71 -103 -133 -54 -57
-107 -116 -118 -130 -24 -31 -123 -86 -106 -60 3 5 -3 19 -12 33 -30 43 -295
309 -309 309 -17 0 -17 -1 -9 -322 4 -183 3 -207 -11 -212 -9 -4 -20 -3 -23 1
-4 4 -11 204 -14 443 -4 239 -9 502 -12 584 -6 171 -3 189 26 158 18 -19 19
-38 20 -266z m4320 185 l0 -89 -34 -16 c-19 -9 -40 -16 -48 -16 -14 0 -58 43
-58 57 0 4 19 31 43 58 24 28 52 60 62 73 11 12 23 22 27 22 5 0 8 -40 8 -89z
m-4173 -1 c126 -64 153 -81 153 -97 0 -5 -35 -48 -77 -95 -43 -46 -100 -110
-128 -141 -27 -31 -54 -58 -60 -60 -7 -3 -11 73 -13 224 -2 126 -1 229 1 229
3 0 58 -27 124 -60z m785 27 c18 -18 53 -54 77 -80 l45 -47 -29 -30 c-34 -36
-41 -36 -92 -9 l-40 21 -1 89 c-1 49 1 89 3 89 3 0 19 -15 37 -33z m1656 -59
c9 -9 17 -9 36 1 36 20 52 4 25 -25 l-22 -23 74 -76 c41 -42 113 -116 160
-166 47 -49 91 -89 97 -89 8 0 12 33 12 110 0 61 4 110 9 110 20 0 32 -32 30
-87 -3 -137 7 -153 57 -88 14 19 30 32 35 29 13 -7 5 -42 -14 -65 -23 -26 -21
-49 3 -49 13 0 20 -7 20 -20 0 -16 -7 -20 -35 -20 -19 0 -35 -3 -35 -6 0 -4
16 -24 35 -45 33 -36 47 -79 26 -79 -5 0 -21 14 -34 30 -47 55 -55 42 -52 -87
2 -74 0 -93 -13 -98 -8 -3 -16 -4 -18 -2 -2 2 -5 56 -7 120 -2 64 -6 119 -8
122 -3 2 -35 -30 -72 -73 -37 -42 -105 -117 -152 -167 -47 -49 -85 -95 -85
-101 0 -6 7 -17 15 -24 8 -7 15 -18 15 -26 0 -24 -21 -26 -44 -5 l-22 21 -22
-20 c-12 -11 -26 -20 -31 -20 -21 0 -22 22 -2 41 12 11 21 24 21 29 0 15 -320
331 -329 326 -5 -3 -8 -57 -7 -121 1 -63 0 -115 -3 -115 -26 1 -33 24 -35 124
-2 59 -6 110 -10 113 -3 3 -23 -13 -44 -36 -21 -23 -41 -38 -45 -35 -15 15 -6
41 23 69 37 35 38 55 5 55 -18 0 -25 5 -25 20 0 15 7 20 25 20 33 0 32 15 -5
52 -29 28 -37 48 -24 60 3 3 22 -9 42 -28 20 -19 41 -33 46 -31 4 1 9 45 10
97 1 94 7 120 27 120 7 0 9 -39 7 -105 -5 -156 -11 -159 195 69 40 44 85 92
100 108 28 27 28 29 13 54 -24 36 2 62 32 32z m-58 -38 c9 -16 5 -25 -20 -52
-16 -18 -53 -58 -81 -88 -28 -30 -72 -79 -97 -107 -26 -29 -49 -53 -53 -53 -3
0 -6 42 -8 93 -1 67 2 97 11 104 14 11 226 123 233 123 2 0 9 -9 15 -20z m210
2 c5 -7 37 -23 131 -67 32 -14 61 -31 67 -38 5 -6 11 -54 11 -106 l1 -95 -26
25 c-20 17 -198 197 -263 264 -2 3 2 12 9 20 13 16 57 13 70 -3z m1578 -153
l-3 -102 -110 -56 c-60 -31 -162 -84 -225 -117 -63 -34 -207 -108 -320 -166
-113 -58 -229 -118 -258 -133 -29 -15 -54 -26 -56 -24 -7 7 -9 48 -8 125 l2
71 53 23 c28 13 59 29 67 36 8 6 98 54 200 106 102 53 212 110 245 128 33 18
125 67 205 108 80 41 154 81 165 89 42 28 46 19 43 -88z m-2440 -31 l-3 -103
-70 -36 c-79 -41 -293 -151 -495 -256 -74 -39 -184 -96 -245 -128 -60 -31
-114 -61 -120 -66 -5 -5 -16 -9 -26 -9 -14 0 -16 13 -15 96 l1 96 100 53 c55
29 141 74 190 100 50 26 124 66 165 88 41 22 122 65 180 95 58 30 130 68 160
85 30 17 73 39 95 49 22 10 47 23 55 28 28 17 31 10 28 -92z m-1374 -55 c75
-75 134 -138 132 -140 -9 -9 -538 -13 -535 -5 2 6 30 38 63 73 32 35 88 96
125 136 36 40 69 72 73 73 4 0 68 -62 142 -137z m2702 2 c37 -19 74 -35 80
-35 21 0 24 -29 23 -218 -1 -101 1 -185 5 -189 3 -3 1 -12 -5 -20 -6 -7 -7
-13 -2 -13 12 0 15 -527 4 -535 -10 -5 -138 59 -160 80 -12 12 -15 97 -19 490
-2 261 -2 475 1 475 2 0 35 -16 73 -35z m-2482 16 c3 -5 18 -12 33 -16 15 -3
30 -10 33 -13 3 -4 23 -16 45 -27 l40 -20 2 -115 c14 -689 14 -840 0 -840 -19
0 -149 69 -163 86 -8 10 -12 156 -13 484 -2 440 1 497 23 461z m2794 -169 c42
-22 41 -34 -5 -32 -66 3 -107 0 -99 -7 4 -4 28 -6 54 -4 31 2 44 -1 37 -7 -13
-13 -149 -82 -162 -82 -8 0 -9 21 -4 68 0 6 12 12 25 12 14 0 28 5 31 10 4 6
-6 10 -23 10 -21 0 -31 6 -35 19 -3 11 -3 21 -1 24 2 2 36 4 76 5 51 1 83 -4
106 -16z m1632 -30 c0 -7 -48 -62 -124 -142 -39 -42 -89 -95 -110 -119 l-39
-44 -145 149 -145 149 249 5 c137 3 264 5 282 6 17 0 32 -1 32 -4z m-740 -183
c190 -94 395 -196 455 -227 61 -31 168 -85 238 -120 71 -35 125 -68 120 -72
-8 -8 -61 -36 -328 -175 -215 -111 -299 -156 -309 -166 -22 -20 -26 -4 -26
104 l0 113 88 48 c48 26 98 54 112 61 14 8 26 20 28 27 1 8 -64 46 -170 99
-95 48 -268 134 -384 193 -116 58 -214 106 -217 106 -3 0 -29 14 -57 30 -28
17 -56 30 -63 30 -7 0 -20 7 -30 14 -16 12 -10 18 65 59 46 25 94 46 108 46
13 1 180 -76 370 -170z m-2558 47 c107 -53 200 -96 206 -96 6 0 12 -3 14 -7 2
-5 50 -31 108 -59 141 -69 391 -194 410 -204 8 -4 137 -67 285 -140 149 -72
277 -136 285 -140 8 -5 80 -41 160 -80 80 -39 152 -75 160 -80 8 -4 81 -41
163 -82 81 -40 147 -75 147 -79 0 -3 -43 -28 -95 -55 l-95 -49 -52 26 c-29 15
-93 47 -143 71 -49 25 -142 70 -205 102 -63 32 -131 65 -150 74 -19 9 -36 20
-38 25 -2 4 -8 7 -14 7 -15 0 -242 113 -246 122 -2 4 -10 8 -18 8 -7 0 -43 16
-78 35 -36 19 -72 35 -81 35 -8 0 -15 4 -15 8 0 4 -26 20 -57 35 -32 15 -65
31 -73 36 -8 5 -234 118 -502 251 -269 134 -488 246 -487 249 1 15 166 90 190
86 14 -2 114 -47 221 -99z m-1242 37 c-25 -27 -85 -92 -134 -146 -49 -53 -93
-97 -97 -97 -5 0 -35 26 -66 59 -130 132 -203 208 -203 214 0 10 39 12 295 15
l249 4 -44 -49z m4600 -212 c1 -128 -1 -235 -4 -238 -3 -3 -43 14 -88 37 -80
42 -178 126 -178 153 0 6 23 37 51 67 100 108 212 221 215 217 2 -2 4 -108 4
-236z m-548 107 c143 -148 140 -143 72 -113 -32 15 -65 29 -71 32 -7 3 -13 9
-13 14 0 5 -7 9 -15 9 -9 0 -33 9 -55 20 l-39 20 0 65 c1 36 3 65 6 65 3 0 54
-51 115 -112z m-2102 -188 c0 -4 -9 -15 -19 -24 -24 -22 -36 -18 -163 46 l-98
50 0 112 1 111 139 -144 c77 -79 140 -147 140 -151z m398 184 l-3 -105 -114
-60 -115 -60 -24 24 -24 24 74 79 c155 167 191 204 200 204 5 0 7 -48 6 -106z
m-2708 -131 c0 -2 16 -17 35 -34 19 -17 35 -36 35 -41 0 -17 -66 -69 -123 -98
-29 -15 -73 -38 -99 -52 -34 -19 -50 -23 -56 -14 -4 6 -9 115 -10 241 l-3 230
111 -114 c60 -62 110 -115 110 -118z m3651 125 c41 -45 80 -86 87 -92 33 -28
62 -62 62 -75 0 -7 -44 -61 -98 -120 -54 -58 -110 -119 -125 -136 l-27 -30 -1
140 c-1 77 -2 192 -3 255 -1 131 1 150 18 144 7 -3 46 -41 87 -86z m-2450 34
c5 -63 5 -502 0 -502 -3 0 -56 52 -116 117 -61 64 -120 125 -132 136 -13 11
-23 24 -23 29 0 5 31 41 68 81 38 39 86 92 108 117 21 25 43 48 48 52 14 10
46 -10 47 -30z m2320 -9 c1 -21 2 -76 4 -123 1 -47 3 -154 4 -237 0 -84 4
-153 9 -153 4 0 57 55 119 123 61 67 125 137 142 154 17 18 31 38 31 45 0 7
-25 37 -55 67 -30 30 -55 60 -55 68 0 7 -6 13 -12 13 -7 0 -31 18 -52 40 -22
22 -37 40 -34 40 26 0 86 -41 151 -104 78 -76 104 -89 127 -61 16 19 50 19 50
0 0 -8 -9 -20 -20 -27 -36 -23 -23 -50 65 -138 79 -79 106 -122 85 -135 -4 -3
-50 40 -101 95 -51 55 -99 100 -105 100 -11 0 -44 -33 -188 -185 -81 -86 -107
-119 -104 -134 3 -12 42 -14 256 -13 235 1 253 0 250 -16 -3 -15 -27 -18 -258
-22 -140 -3 -256 -7 -257 -8 -9 -7 6 -28 81 -107 47 -49 83 -92 80 -97 -13
-21 -43 -2 -110 67 -40 41 -77 75 -83 75 -7 0 -11 -35 -11 -100 0 -90 -8 -118
-24 -91 -3 5 -8 52 -10 105 -2 53 -7 100 -11 104 -4 4 -35 -23 -70 -61 -44
-47 -67 -66 -78 -61 -20 7 -12 25 30 69 71 77 78 86 65 94 -7 4 -87 6 -178 4
-160 -4 -164 -3 -164 17 0 19 6 20 154 20 147 0 186 4 186 19 0 3 -70 78 -154
166 -135 139 -156 157 -170 146 -14 -12 -16 -10 -16 18 0 17 0 34 -1 39 0 7
110 72 125 72 4 0 -6 -16 -23 -35 -17 -20 -31 -40 -31 -46 0 -10 85 -103 217
-238 40 -41 73 -78 73 -83 0 -4 8 -8 18 -8 18 0 19 13 14 271 -3 221 -1 273
10 280 23 15 28 10 29 -28z m-2411 24 c0 -2 -30 -35 -67 -73 -79 -83 -143
-156 -143 -164 0 -4 91 -101 267 -283 25 -26 51 -46 57 -44 12 4 13 171 4 415
-3 72 -3 132 -1 132 2 0 13 -5 24 -10 18 -10 19 -24 19 -261 0 -221 2 -250 16
-256 11 -4 25 5 43 27 14 18 46 54 71 80 64 68 162 178 172 192 12 19 10 27
-12 45 -33 29 -22 35 23 12 52 -27 48 -22 51 -53 2 -15 -1 -25 -8 -24 -6 2
-36 -24 -66 -57 -30 -33 -80 -87 -111 -120 -110 -114 -129 -138 -129 -156 0
-17 10 -18 160 -13 156 5 160 4 160 -16 0 -19 -6 -20 -159 -20 -91 0 -162 -4
-166 -10 -5 -9 35 -60 98 -122 32 -32 32 -34 11 -42 -10 -4 -33 13 -70 50 -29
31 -54 60 -54 65 0 14 -20 11 -21 -3 0 -7 0 -50 1 -96 1 -79 -8 -112 -31 -112
-5 0 -9 50 -9 110 0 85 -3 110 -13 110 -8 0 -51 -40 -97 -90 -46 -49 -89 -90
-97 -90 -16 0 -17 14 0 32 89 96 157 179 153 187 -3 5 -118 8 -260 6 -217 -1
-256 0 -261 13 -3 8 -4 17 -2 19 2 2 119 3 260 3 144 0 259 5 262 10 3 5 -31
46 -75 92 -44 46 -116 121 -160 168 l-81 85 -26 -30 c-67 -78 -169 -185 -175
-185 -26 0 4 47 82 133 50 53 90 101 90 105 0 5 -13 22 -30 39 -16 16 -27 33
-23 37 12 12 44 6 49 -9 4 -9 15 -20 26 -26 16 -9 23 -7 36 13 9 12 40 47 69
77 29 30 53 58 53 62 0 3 8 10 18 13 9 3 28 13 42 21 26 15 30 17 30 12z
m2353 -34 c8 -32 8 -473 0 -473 -7 0 -160 155 -247 250 -21 23 -35 45 -30 49
5 3 29 29 54 56 26 30 75 67 120 92 85 47 97 50 103 26z m-2070 -62 c37 -18
84 -49 105 -69 65 -64 65 -64 30 -103 -73 -82 -223 -239 -228 -239 -5 0 -6 35
-10 275 -2 195 -3 187 18 177 9 -5 47 -24 85 -41z m1468 -48 c1 -27 2 -69 4
-94 1 -26 0 -51 -4 -56 -3 -6 -64 -39 -136 -75 l-130 -65 -50 24 c-103 51
-135 68 -135 73 0 3 10 10 23 16 12 7 51 27 87 46 36 19 115 61 175 93 61 32
119 64 130 72 31 20 35 16 36 -34z m-2433 -84 l-3 -101 -119 -62 c-66 -33
-121 -66 -123 -72 -3 -10 74 -54 96 -54 6 0 11 -4 11 -9 0 -5 12 -12 27 -16
15 -3 30 -10 33 -13 8 -11 214 -112 228 -112 6 0 12 -4 12 -8 0 -5 30 -23 68
-40 37 -18 74 -36 82 -42 8 -5 33 -18 55 -29 96 -45 230 -115 235 -121 3 -4
21 -12 40 -19 47 -16 76 -39 64 -50 -5 -5 -51 -30 -102 -56 l-94 -48 -101 52
c-56 28 -158 81 -226 116 -67 36 -129 65 -137 65 -8 0 -14 4 -14 8 0 5 -39 28
-87 51 -132 65 -148 73 -151 83 -2 4 -9 8 -15 8 -9 0 -121 54 -307 149 -8 4
-41 21 -73 37 -31 15 -57 31 -57 35 0 3 42 28 93 55 50 26 124 65 162 86 39
20 122 64 185 96 63 33 135 71 160 86 25 14 49 26 53 26 4 0 6 -45 5 -101z
m3647 10 c9 -26 12 -114 6 -132 -5 -14 -22 -1 -81 58 l-74 75 27 28 27 29 45
-21 c25 -12 48 -28 50 -37z m-3271 -32 c-5 -8 -39 -47 -76 -87 l-68 -72 -1 43
c0 24 -2 63 -4 86 -2 25 2 44 8 47 7 3 30 16 52 30 l40 24 29 -28 c20 -20 26
-32 20 -43z m3341 13 c3 -5 30 -21 60 -35 29 -14 58 -32 64 -39 8 -9 13 -160
18 -485 5 -428 4 -471 -10 -471 -9 0 -49 18 -89 39 l-73 39 -1 99 c-1 54 -2
116 -3 138 -2 22 -2 42 -1 45 5 14 5 80 -1 80 -3 0 -7 135 -8 300 -2 293 -1
300 18 300 11 0 23 -4 26 -10z m-2379 -42 l84 -41 2 -481 c2 -265 2 -484 0
-488 -1 -3 -41 15 -90 41 -77 42 -87 51 -89 77 -7 127 -16 703 -13 912 0 12 5
22 11 22 6 0 49 -19 95 -42z m-134 -26 c3 -10 5 -77 5 -149 l1 -132 -72 -3
c-39 -2 -104 -2 -144 0 l-73 3 30 37 c16 21 57 67 91 103 34 35 80 85 103 112
45 52 52 56 59 29z m1604 -98 c60 -64 119 -125 132 -137 12 -11 22 -24 22 -28
0 -4 -66 -6 -147 -6 l-148 2 -3 129 c-2 121 4 156 28 156 4 0 56 -52 116 -116z
m693 68 c153 -161 161 -170 157 -194 -3 -13 -5 -26 -5 -30 -1 -5 -107 -8 -237
-8 l-235 0 19 25 c22 28 187 208 216 236 11 11 24 19 29 19 5 0 30 -22 56 -48z
m-2945 -81 c39 -40 92 -95 118 -122 26 -27 44 -50 40 -53 -16 -10 -444 -6
-463 4 -39 22 -23 56 84 174 l102 113 24 -21 c14 -12 57 -54 95 -95z m1026
-45 c0 -35 3 -65 6 -69 4 -3 31 7 62 24 30 16 62 29 71 29 19 0 181 -80 181
-90 0 -8 -159 -100 -171 -100 -5 0 -31 -13 -59 -30 -28 -16 -57 -30 -64 -30
-7 0 -24 -8 -37 -18 -25 -19 -110 -62 -123 -62 -3 0 -5 43 -4 97 l3 96 68 35
c65 35 83 52 52 52 -17 0 -16 -3 -19 70 -3 64 -1 71 19 63 11 -4 15 -22 15
-67z m3008 -16 c-3 -16 -1 -30 3 -30 5 0 8 -71 8 -157 0 -87 2 -346 5 -575 4
-360 3 -416 -10 -411 -8 3 -14 17 -15 32 0 14 -2 50 -3 80 -1 34 -6 56 -14 59
-7 2 -35 -20 -62 -50 -37 -41 -51 -50 -61 -41 -9 9 -6 17 12 35 60 58 91 101
78 109 -7 4 -93 5 -191 2 -162 -5 -182 -4 -218 13 -22 10 -40 22 -40 26 0 4
92 7 205 7 197 0 225 3 225 20 0 4 -68 77 -150 162 l-151 154 -47 -52 c-153
-169 -216 -231 -229 -226 -8 3 -13 9 -11 13 2 5 46 55 99 112 53 57 111 120
129 141 l33 38 -29 31 c-16 18 -59 63 -96 101 -38 39 -68 74 -68 78 0 4 -9 11
-21 14 -16 5 -18 10 -8 21 17 21 22 19 75 -36 27 -27 76 -76 108 -110 33 -33
63 -60 67 -60 3 0 26 22 50 48 191 208 226 248 241 270 9 14 14 30 12 34 -3 5
-52 9 -107 8 -162 -2 -158 -2 -114 21 21 11 43 19 50 18 6 -1 47 -1 90 0 83 1
92 8 56 47 -21 23 -19 44 5 44 7 0 21 -9 31 -20 27 -29 35 -25 35 20 0 30 4
40 16 40 12 0 15 -7 12 -30z m-5264 -26 c11 -4 16 -19 16 -50 0 -51 18 -59 44
-19 18 27 46 34 46 11 0 -7 -7 -19 -15 -26 -8 -7 -15 -19 -15 -26 0 -11 19
-14 79 -14 44 0 92 -6 108 -12 25 -12 18 -13 -72 -18 -79 -4 -100 -8 -103 -20
-1 -9 26 -46 60 -83 119 -126 189 -202 196 -212 4 -5 15 -16 24 -24 16 -12 25
-6 87 60 38 41 83 90 100 109 24 27 33 32 40 21 6 -9 3 -19 -8 -30 -21 -23
-113 -127 -146 -166 -15 -18 -23 -37 -19 -47 3 -10 33 -46 67 -81 199 -206
200 -207 177 -222 -5 -3 -22 7 -36 22 -125 137 -240 253 -250 253 -6 0 -31
-21 -54 -47 -71 -80 -183 -204 -211 -233 -15 -15 -32 -37 -38 -49 l-12 -21
221 0 c187 0 219 -2 208 -14 -10 -10 -65 -15 -203 -21 -105 -4 -193 -9 -197
-12 -16 -9 -7 -25 41 -73 42 -42 47 -51 34 -62 -13 -10 -24 -2 -73 50 -31 34
-60 62 -64 62 -3 0 -6 -42 -6 -94 0 -72 -4 -97 -15 -106 -9 -7 -18 -10 -21 -8
-3 3 -5 99 -5 212 0 113 -4 220 -9 236 -5 18 -5 32 1 36 6 3 7 28 3 57 -9 81
-10 167 -2 167 5 0 6 12 2 28 -9 41 -13 472 -4 472 5 0 15 -3 24 -6z m5159
-148 c-4 -8 -51 -61 -104 -118 -53 -56 -113 -121 -132 -143 l-36 -40 -68 68
c-37 37 -82 82 -100 100 -18 17 -29 35 -25 39 4 4 50 30 102 58 l95 49 138 1
c116 0 137 -2 130 -14z m-1513 -9 c0 -7 -24 -37 -54 -66 l-54 -53 -59 27
c-201 92 -198 96 65 103 78 2 102 -1 102 -11z m674 4 c-16 -15 -293 -161 -306
-161 -7 0 -58 49 -133 128 l-39 42 244 0 c141 0 240 -4 234 -9z m-1504 -23
c27 -12 50 -25 50 -28 0 -6 -59 -75 -120 -140 -19 -20 -50 -53 -68 -73 -18
-21 -37 -37 -42 -37 -6 0 -44 34 -86 75 -41 41 -73 75 -69 75 3 0 -17 19 -44
43 -27 23 -50 47 -50 52 -2 20 65 45 129 47 244 10 247 10 300 -14z m-1422 3
c-6 -19 -150 -171 -161 -171 -18 0 -317 153 -317 162 0 8 74 11 328 16 97 1
153 -1 150 -7z m490 -12 c-2 -15 -27 -35 -78 -65 -41 -24 -80 -43 -87 -43 -13
-1 -123 107 -123 121 0 4 66 8 146 8 143 0 145 0 142 -21z m-1439 -41 c56 -29
101 -58 101 -64 0 -7 -26 -39 -57 -73 -32 -33 -68 -73 -81 -88 l-22 -28 -27
30 c-14 17 -54 60 -89 97 -35 37 -64 70 -64 73 0 2 -20 23 -45 46 -25 23 -42
45 -39 50 3 5 54 9 114 9 l109 0 100 -52z m3886 -28 c0 -38 4 -70 8 -70 5 0 5
-6 0 -12 -4 -7 -8 -26 -8 -42 0 -32 -3 -33 -285 -179 -85 -44 -184 -96 -220
-116 -36 -21 -112 -62 -170 -91 -96 -50 -156 -82 -263 -140 -22 -12 -40 -20
-42 -18 -4 3 -7 132 -6 194 1 21 7 34 19 38 9 3 49 23 87 44 39 22 124 67 190
102 66 34 125 66 130 70 6 4 69 38 140 76 72 37 191 101 265 141 74 40 140 73
145 73 7 0 11 -28 10 -70z m-1841 -95 c71 -74 135 -135 142 -135 14 0 49 34
130 127 110 124 129 142 144 133 10 -6 8 -15 -15 -42 -47 -56 -148 -169 -187
-209 -21 -22 -38 -42 -38 -46 0 -8 70 -84 212 -230 92 -94 106 -113 92 -121
-13 -7 -30 4 -83 59 -36 37 -106 108 -155 158 -48 50 -92 91 -97 91 -9 0 -19
-10 -141 -141 -113 -123 -159 -182 -149 -192 4 -4 132 -6 284 -5 153 2 277 0
277 -4 0 -21 -82 -31 -278 -35 l-212 -4 -93 44 -93 44 -3 285 c-2 248 0 286
13 297 14 12 16 10 17 -15 1 -49 8 -333 12 -454 3 -90 7 -116 18 -118 11 -2
274 269 313 323 9 12 -60 89 -228 256 -23 24 -36 45 -32 54 3 8 9 15 13 15 4
0 66 -61 137 -135z m-1025 16 c2 -93 1 -100 -19 -106 -30 -10 -122 34 -118 56
3 16 118 149 129 149 4 0 7 -45 8 -99z m424 -1 c0 -50 -4 -95 -9 -100 -10 -10
-99 -58 -264 -142 -146 -75 -304 -157 -500 -262 -219 -118 -201 -118 -198 -1
l3 97 110 57 c176 92 312 163 430 226 61 32 146 76 190 99 44 23 82 44 85 47
8 10 145 77 149 73 2 -2 4 -44 4 -94z m475 33 c30 -32 90 -95 134 -141 69 -73
77 -86 66 -100 -17 -22 -83 -95 -128 -141 -19 -20 -57 -63 -84 -94 -27 -32
-53 -54 -57 -50 -12 13 -18 560 -6 572 16 16 17 16 75 -46z m596 49 c3 -5 6
-111 7 -238 0 -126 5 -234 11 -241 6 -7 5 -14 -2 -18 -5 -3 -10 -18 -10 -33 0
-24 -16 -11 -135 112 -74 76 -135 142 -135 145 0 7 5 13 89 107 25 27 71 78
101 111 56 63 65 69 74 55z m59 -30 c10 -10 14 -21 11 -25 -7 -7 -6 -155 2
-370 5 -109 3 -151 -6 -162 -18 -22 -32 -18 -25 5 4 12 2 27 -4 34 -7 9 -8 22
-3 37 5 13 6 35 2 49 -10 40 -13 450 -2 450 5 0 16 -8 25 -18z m67 -29 c16 -9
29 -24 29 -32 0 -9 2 -101 5 -206 l5 -190 -29 -34 c-15 -18 -33 -30 -38 -27
-11 7 -17 506 -6 506 3 0 19 -8 34 -17z m1636 -86 c57 -57 104 -109 104 -116
0 -12 -21 -36 -164 -187 -49 -51 -93 -91 -97 -88 -14 9 -11 468 3 482 26 26
53 10 154 -91z m-2516 -164 l0 -256 -41 42 c-25 25 -39 47 -35 56 3 8 0 15 -6
15 -6 0 -7 5 -1 13 5 6 8 28 6 47 -1 19 -5 96 -8 171 l-5 135 33 16 c60 29 57
40 57 -239z m-1532 221 c9 -7 13 -444 4 -444 -6 0 -25 17 -42 38 -18 20 -68
74 -111 119 -44 45 -79 86 -79 90 0 4 16 26 36 48 146 165 147 165 168 159 12
-4 23 -8 24 -10z m2559 -44 l83 -41 0 -122 c0 -67 3 -230 6 -362 9 -421 9
-477 3 -486 -3 -5 -43 10 -90 34 l-84 43 -2 429 c-2 237 -4 456 -5 488 -2 31
-1 57 1 57 3 0 42 -18 88 -40z m-2439 -21 c42 -22 81 -45 86 -49 10 -10 11
-223 1 -239 -3 -6 -2 -11 4 -11 10 0 16 -701 6 -712 -6 -6 -122 50 -142 69 -7
6 -17 13 -23 15 -13 4 -28 968 -16 968 4 0 42 -18 84 -41z m3543 -56 c1 -16 2
-35 3 -43 1 -8 -2 -27 -5 -42 -4 -14 -4 -29 -1 -32 9 -10 10 -46 1 -46 -5 0
-6 -8 -2 -17 3 -10 -26 15 -66 55 -39 39 -71 74 -71 76 0 6 122 76 133 76 4 0
8 -12 8 -27z m-3340 -45 c33 -18 58 -38 57 -44 -3 -12 -126 -144 -134 -144 -2
0 -4 50 -4 110 0 71 4 110 11 110 5 0 37 -14 70 -32z m3147 -102 c37 -18 211
-106 387 -193 176 -88 345 -173 375 -189 30 -17 75 -39 100 -49 25 -11 47 -22
50 -25 3 -3 49 -27 103 -54 55 -26 95 -52 90 -56 -4 -5 -42 -26 -83 -48 -41
-21 -188 -98 -325 -170 -138 -73 -256 -132 -263 -132 -10 0 -12 26 -10 101 l3
100 130 69 c72 37 131 74 133 82 1 8 -44 36 -120 73 -68 33 -125 62 -128 65
-3 3 -161 83 -352 178 -192 95 -348 176 -348 180 0 8 167 99 183 101 4 1 38
-14 75 -33z m886 -106 l139 -140 -244 0 c-181 0 -250 3 -262 13 -15 11 -8 21
63 97 45 47 97 104 117 128 19 23 38 42 42 42 3 0 69 -63 145 -140z m-3104
-14 c140 -70 266 -133 280 -141 14 -8 104 -53 200 -100 96 -48 182 -90 190
-95 20 -11 916 -464 1087 -549 73 -36 132 -70 130 -74 -1 -5 -47 -32 -102 -61
l-100 -53 -315 160 c-173 87 -322 163 -330 167 -8 5 -53 27 -100 49 -47 22
-105 52 -130 65 -25 14 -94 49 -155 78 -60 29 -112 55 -115 58 -10 10 -298
150 -309 150 -6 0 -11 4 -11 9 0 5 -13 12 -30 16 -16 4 -30 11 -30 16 0 5 -6
9 -12 9 -7 0 -38 13 -69 29 -66 33 -137 70 -159 82 -8 4 -67 33 -130 64 -63
31 -122 60 -130 66 -8 5 -37 20 -65 33 -98 47 -98 44 22 107 60 32 113 53 118
49 6 -4 125 -65 265 -134z m778 74 c34 -33 62 -64 62 -70 0 -5 7 -10 15 -10 8
0 15 -4 15 -9 0 -4 26 -34 57 -65 31 -31 53 -59 50 -63 -10 -9 -527 -16 -527
-6 0 9 31 43 163 186 50 53 94 97 97 97 3 0 33 -27 68 -60z m-2234 -38 c39
-41 90 -95 114 -120 23 -24 42 -46 42 -48 0 -2 -12 -11 -26 -21 -23 -15 -57
-17 -240 -19 -117 -2 -217 -5 -222 -8 -4 -2 -14 -1 -21 3 -9 6 8 29 56 81 37
40 85 92 105 114 79 86 101 105 111 99 6 -4 42 -40 81 -81z m3322 -63 c0 -13
1 -40 2 -59 l2 -35 58 63 c42 46 61 60 71 53 11 -7 2 -23 -43 -75 -32 -36 -55
-69 -53 -73 3 -5 98 -8 210 -7 185 1 209 -1 234 -17 28 -19 25 -19 -199 -19
-217 0 -228 -1 -228 -19 0 -11 64 -83 156 -175 86 -86 157 -156 159 -156 6 0
75 71 119 123 51 60 66 69 66 39 0 -17 -13 -34 -106 -134 -24 -26 -44 -52 -44
-58 0 -6 25 -38 55 -69 48 -50 53 -60 40 -71 -13 -10 -24 -3 -74 49 l-58 62
-21 -26 c-17 -21 -184 -200 -269 -287 -16 -17 -43 -24 -43 -12 0 10 135 163
248 281 28 30 52 61 52 67 0 7 -56 70 -125 141 -69 71 -125 132 -125 136 0 4
-9 11 -21 14 -11 4 -18 9 -15 13 3 3 -4 12 -17 21 -12 9 -24 13 -26 11 -2 -3
-3 -32 -3 -65 3 -283 2 -588 -3 -593 -3 -3 -12 1 -20 9 -11 11 -14 56 -15 219
-1 113 0 210 1 215 1 6 0 15 -1 20 -6 31 -4 105 3 105 6 0 5 5 0 13 -5 6 -8
24 -7 39 5 46 -14 42 -69 -14 -97 -100 -247 -278 -247 -292 0 -8 8 -20 18 -25
9 -6 14 -11 11 -11 -3 0 41 -48 97 -107 56 -60 101 -109 100 -111 -8 -7 -81
33 -104 57 -15 15 -56 58 -90 95 -46 49 -68 66 -80 61 -34 -13 -37 -9 -39 48
-2 61 1 66 29 41 17 -16 22 -13 85 57 38 40 86 92 108 115 72 75 120 136 120
153 0 14 -16 16 -142 13 -79 -2 -143 1 -143 5 0 21 71 35 178 35 62 1 115 5
119 11 3 5 -9 24 -27 42 -31 32 -33 55 -5 55 7 0 22 -11 33 -25 29 -37 42 -31
42 18 0 43 15 70 35 64 5 -2 10 -15 11 -28z m-2384 -46 c65 -63 78 -71 79 -51
0 7 1 29 2 48 3 53 31 47 35 -7 4 -49 22 -56 57 -23 13 12 25 16 34 10 12 -7
9 -14 -12 -40 -15 -17 -27 -35 -27 -40 0 -5 56 -10 125 -12 102 -2 127 -6 142
-20 16 -17 11 -18 -124 -18 -83 0 -144 -4 -148 -10 -3 -5 56 -74 132 -152 195
-200 191 -196 198 -217 11 -36 -162 -218 -209 -221 -9 0 88 113 142 165 17 18
32 35 32 39 0 9 -12 23 -90 105 -36 37 -102 107 -147 154 -45 48 -86 87 -91
87 -9 0 -7 -51 3 -77 2 -7 0 -15 -5 -18 -5 -3 -7 -18 -5 -33 2 -15 6 -133 9
-262 6 -224 5 -236 -13 -247 -17 -10 -20 -9 -24 14 -3 14 -5 157 -6 317 -1
163 -6 295 -11 300 -6 6 -24 -7 -47 -34 -21 -24 -53 -60 -72 -79 -118 -126
-201 -220 -201 -227 0 -9 21 -32 199 -223 72 -79 89 -102 77 -107 -17 -6 -59
33 -229 217 l-78 84 -53 -59 c-45 -49 -57 -57 -72 -48 -16 9 -12 16 39 68 31
32 57 63 57 69 0 5 -18 26 -40 45 -22 19 -40 38 -40 42 0 3 -25 31 -55 61 -39
39 -55 62 -55 81 0 26 0 27 23 10 12 -10 39 -38 61 -63 61 -73 127 -141 135
-141 9 0 51 35 51 43 0 3 17 23 38 45 20 22 62 67 92 101 30 34 74 83 98 108
25 27 39 50 34 55 -5 5 -117 7 -250 6 -229 -3 -241 -2 -224 14 15 15 46 18
236 23 120 3 222 8 228 11 5 4 -7 25 -29 48 -72 77 -85 94 -78 105 10 17 13
15 77 -46z m2673 -5 c44 -22 84 -44 90 -49 5 -5 -52 -9 -149 -9 -178 0 -170
-6 -96 72 40 43 39 43 155 -14z m-2716 -40 l43 -47 -166 -3 c-108 -2 -165 1
-163 7 2 6 50 33 108 61 117 58 108 58 178 -18z m1763 -45 c2 -38 1 -88 -2
-113 l-5 -44 -85 -44 c-47 -24 -102 -53 -123 -65 l-38 -21 -62 31 c-34 17 -83
41 -110 54 l-47 23 52 29 c119 67 402 216 410 217 3 0 8 -30 10 -67z m-2441
15 c5 -87 4 -157 -4 -174 -5 -12 -55 -43 -127 -80 -74 -37 -119 -65 -120 -75
0 -8 19 -24 43 -35 23 -11 107 -54 187 -96 80 -42 213 -111 295 -153 154 -80
187 -97 264 -140 24 -14 47 -25 51 -25 4 0 30 -13 59 -29 l52 -28 -58 -34
c-32 -19 -77 -43 -101 -53 l-42 -19 -198 100 c-108 55 -242 124 -297 154 -55
29 -152 79 -215 111 -63 32 -120 62 -125 66 -6 5 -82 44 -169 86 -87 43 -154
81 -150 86 5 5 45 27 89 50 221 117 402 215 415 225 8 7 31 18 50 24 19 6 46
20 60 31 29 23 40 25 41 8z m4484 -67 c8 -13 -77 -101 -98 -101 -9 0 -38 13
-64 28 -26 15 -67 36 -90 46 -24 11 -43 22 -43 26 0 11 288 11 295 1z m-831
-9 c3 -6 7 -29 8 -51 1 -36 -4 -47 -48 -93 -27 -29 -67 -74 -88 -100 -21 -27
-42 -48 -46 -48 -5 0 -62 55 -127 121 -65 67 -129 131 -141 143 l-24 21 74 5
c157 11 386 12 392 2z m-674 -7 c0 -3 -21 -26 -47 -52 -26 -27 -73 -77 -104
-113 -31 -36 -71 -80 -89 -99 l-33 -34 -24 29 c-21 27 -23 39 -23 145 0 64 3
119 7 122 7 8 313 10 313 2z m787 -35 c42 -23 79 -43 82 -45 6 -7 20 -972 14
-979 -4 -4 -152 70 -166 84 -8 7 -24 880 -18 968 1 17 2 17 88 -28z m-2562 18
c7 -7 8 -289 0 -296 -3 -3 -44 37 -92 88 -49 51 -112 118 -141 149 l-53 56 98
5 c124 6 180 6 188 -2z m845 -24 c-106 -58 -100 -58 -189 -13 -45 22 -81 42
-81 44 0 3 75 5 168 5 l167 0 -65 -36z m-1320 22 c0 -4 -32 -40 -118 -135 -89
-97 -122 -134 -140 -155 -7 -9 -17 -16 -21 -16 -5 0 -44 39 -88 86 -43 48 -90
100 -105 116 -21 21 -28 39 -28 69 l0 40 250 -2 c138 0 250 -2 250 -3z m-1045
-24 c-16 -10 -60 -33 -97 -51 l-68 -34 -26 29 c-15 16 -36 39 -47 52 l-20 22
144 0 c142 0 144 0 114 -18z m1637 -18 c20 -13 48 -26 62 -30 14 -3 28 -13 30
-22 11 -36 16 -645 5 -658 -7 -8 -7 -14 1 -19 12 -7 13 -295 2 -295 -4 0 -46
19 -94 42 l-87 43 -1 375 c-1 206 -2 420 -4 475 -1 55 0 106 2 113 5 16 34 8
84 -24z m1728 -131 c1 -76 3 -153 4 -170 2 -19 -2 -33 -8 -33 -7 0 -7 -3 -1
-8 14 -10 18 -242 4 -242 -6 0 -28 20 -50 44 -21 24 -82 87 -134 142 -90 93
-107 118 -86 126 9 3 51 48 209 225 26 29 50 52 53 53 4 0 8 -62 9 -137z m108
115 c9 -12 72 -78 139 -147 77 -79 120 -129 115 -137 -4 -7 -41 -48 -82 -91
-41 -44 -99 -107 -129 -141 -29 -34 -56 -62 -60 -62 -3 0 -7 93 -9 208 -1 114
-4 249 -6 300 -2 50 0 92 5 92 5 0 17 -10 27 -22z m-2363 -316 c4 -170 2 -302
-3 -302 -9 0 -181 180 -260 274 -25 30 -23 35 24 82 11 11 25 27 30 36 11 20
197 218 201 215 1 -2 5 -139 8 -305z m165 217 c3 -4 43 -48 90 -99 47 -51 88
-98 92 -104 7 -13 -4 -28 -120 -155 -42 -46 -79 -87 -82 -91 -7 -9 -51 -33
-55 -28 -2 2 -5 128 -7 280 l-4 278 40 -38 c23 -20 43 -40 46 -43z m2955 67
c28 -15 135 -121 135 -135 0 -13 -159 -91 -165 -81 -5 9 -5 230 1 230 1 0 14
-6 29 -14z m-3905 -130 c0 -58 -4 -107 -10 -111 -9 -6 -105 40 -127 61 -14 13
5 42 72 112 60 64 65 59 65 -62z m3650 -96 c0 -91 -3 -120 -13 -120 -7 0 -37
24 -66 54 l-54 55 59 65 c32 36 62 65 67 66 4 0 7 -54 7 -120z m-3408 100 c2
-5 28 -35 58 -67 90 -95 87 -86 44 -138 -50 -61 -69 -71 -100 -50 -23 15 -24
19 -24 140 0 69 4 125 9 125 5 0 11 -4 13 -10z m4350 -172 c2 -182 2 -196 -2
-273 -1 -22 0 -199 3 -393 2 -194 1 -355 -4 -357 -4 -3 -11 0 -14 6 -4 6 -9
142 -12 302 -3 161 -8 296 -13 300 -4 5 -17 -4 -29 -20 -23 -29 -119 -135
-216 -238 l-56 -59 123 -124 c68 -68 119 -122 113 -120 -90 36 -112 54 -229
181 l-26 28 -32 -26 c-21 -18 -34 -23 -41 -16 -8 8 -2 20 18 41 l29 30 -89 92
c-244 248 -238 240 -242 302 -2 46 1 57 25 83 15 17 50 57 77 88 46 52 90 85
114 85 6 0 0 -10 -12 -23 -77 -80 -172 -191 -172 -201 0 -8 79 -11 290 -12
160 0 298 2 308 4 27 7 20 26 -25 69 -24 22 -87 86 -141 143 -86 89 -97 104
-81 113 14 8 40 -14 151 -127 74 -75 139 -136 144 -136 5 0 8 82 7 208 -1 114
1 213 6 220 20 33 26 -1 28 -170z m-2791 100 c78 -41 97 -54 87 -64 -7 -6 -62
-37 -123 -69 -160 -83 -257 -136 -280 -152 -42 -28 -46 -20 -43 99 l3 111 120
63 c66 35 124 64 128 64 5 0 53 -23 108 -52z m2739 -139 c0 -98 -2 -179 -5
-179 -9 0 -235 235 -235 244 0 4 33 22 73 42 39 20 90 46 112 59 22 12 43 20
48 18 4 -2 7 -85 7 -184z m-5212 -57 c2 -179 5 -222 16 -222 7 0 51 42 97 92
127 140 176 188 193 188 22 0 20 -8 -11 -39 -16 -15 -57 -61 -93 -101 -36 -41
-76 -86 -90 -100 -63 -67 -65 -71 -50 -80 9 -5 140 -7 307 -3 267 5 293 4 299
-11 4 -9 5 -19 2 -21 -2 -3 -136 -5 -297 -5 -161 -1 -299 -4 -307 -7 -8 -3
-14 -10 -14 -16 0 -5 40 -51 88 -101 135 -139 182 -190 182 -198 0 -5 5 -8 11
-8 7 0 18 -8 26 -17 12 -17 20 -11 89 62 42 44 94 102 117 130 23 27 55 63 72
80 26 27 30 28 33 11 6 -27 -12 -49 -201 -251 -54 -58 -70 -96 -46 -111 8 -4
8 -9 0 -17 -7 -7 -18 -7 -35 2 -22 12 -27 10 -64 -31 -22 -24 -60 -54 -84 -67
l-43 -24 20 24 c11 13 23 26 26 29 3 3 27 31 54 64 l47 59 -61 61 c-33 33
-105 108 -160 165 -56 59 -104 100 -110 97 -8 -5 -11 -101 -11 -307 0 -259 -2
-299 -15 -299 -8 0 -15 1 -15 3 -1 1 -4 271 -7 600 -6 583 -5 599 13 595 18
-3 19 -17 22 -226z m140 142 c59 -30 111 -59 115 -63 7 -7 -49 -81 -92 -121
-9 -8 -41 -43 -70 -77 -30 -35 -58 -63 -62 -63 -5 0 -9 86 -9 190 0 105 3 190
6 190 3 0 53 -25 112 -56z m2517 -38 c20 -11 78 -68 240 -237 l80 -83 3 77 c2
42 5 77 7 77 27 0 35 -16 35 -71 0 -32 4 -59 8 -59 5 0 21 14 35 30 15 17 31
30 36 30 12 0 1 -48 -15 -61 -20 -17 -17 -46 6 -52 25 -7 16 -37 -11 -37 -24
0 -24 -18 0 -44 22 -23 38 -76 24 -76 -5 0 -22 14 -38 30 -16 17 -33 30 -37
30 -5 0 -8 -66 -7 -146 1 -112 -2 -149 -12 -155 -8 -4 -16 -4 -19 2 -4 5 -7
78 -9 161 -1 84 -5 155 -7 157 -3 3 -25 -17 -50 -44 -141 -156 -183 -200 -221
-237 -24 -23 -43 -49 -43 -59 0 -10 20 -40 45 -65 42 -44 49 -64 22 -64 -6 0
-33 21 -60 47 l-48 48 -48 -54 c-36 -41 -53 -53 -66 -47 -20 7 -22 3 49 84 43
50 46 42 -49 138 -33 33 -100 104 -150 157 -49 53 -93 97 -98 97 -4 0 -8 -57
-7 -127 2 -211 2 -213 -15 -213 -13 0 -15 23 -15 150 0 172 -3 177 -69 108
-38 -41 -40 -42 -40 -18 0 15 16 43 39 70 22 24 40 48 40 52 0 4 -17 8 -37 10
-27 2 -39 8 -41 21 -3 13 4 17 31 17 18 0 36 3 40 6 3 3 -12 24 -34 46 -39 39
-50 68 -26 68 6 0 25 -14 41 -30 45 -46 56 -40 56 29 0 43 4 60 15 65 12 4 15
-4 16 -42 2 -80 4 -100 10 -107 4 -3 56 49 116 117 214 240 212 238 278 204z
m1530 -57 c44 -49 43 -51 -60 -105 -162 -84 -191 -99 -220 -112 -16 -7 -25 -9
-21 -5 4 4 47 51 94 103 127 138 149 160 160 160 5 0 26 -19 47 -41z m850
-117 l129 -132 -164 -1 c-91 0 -216 -3 -277 -5 -62 -2 -113 -1 -113 3 0 8 17
27 143 167 74 82 123 120 141 108 6 -4 69 -67 141 -140z m-2640 18 c-59 -66
-111 -120 -116 -120 -6 0 -9 26 -7 61 l3 61 97 52 c53 28 100 55 104 59 4 4
11 7 16 7 5 0 -38 -54 -97 -120z m-1955 37 c0 -7 10 -19 137 -154 34 -37 61
-68 59 -70 -6 -6 -538 -9 -541 -2 -2 3 12 24 33 45 20 22 76 83 125 136 l87
97 50 -22 c27 -12 50 -25 50 -30z m764 -34 c108 -114 150 -163 140 -163 -5 1
-36 16 -69 35 -33 19 -102 56 -153 82 -51 26 -91 50 -90 53 9 22 64 80 75 80
8 0 51 -39 97 -87z m3116 -45 l0 -103 -73 -36 c-117 -59 -371 -191 -382 -199
-5 -4 -91 -49 -190 -100 -99 -51 -207 -108 -240 -127 -56 -33 -103 -47 -104
-30 -1 4 -1 47 -1 96 l0 89 58 32 c62 34 216 116 412 217 69 36 148 78 175 93
28 16 100 54 160 85 61 31 114 60 120 65 9 7 34 15 58 19 4 0 7 -45 7 -101z
m-2441 -60 l0 -77 -92 -49 c-89 -48 -172 -91 -472 -247 -77 -40 -185 -96 -240
-125 -195 -104 -179 -103 -181 -10 -1 41 0 89 3 107 5 35 -3 29 348 213 108
57 203 107 350 185 61 33 146 77 190 100 l80 40 7 -30 c4 -16 7 -65 7 -107z
m1344 -30 l84 -41 2 -434 2 -433 -91 0 -91 0 1 317 c0 175 0 323 0 328 -4 34
1 178 5 186 4 5 2 9 -2 9 -7 0 -9 89 -4 108 2 5 15 0 94 -40z m-2435 -9 l82
-42 0 -438 0 -439 -85 0 c-74 0 -85 2 -86 18 -3 91 -3 942 1 942 3 0 42 -19
88 -41z m2705 -128 c26 -13 46 -28 44 -35 -3 -11 -183 -114 -202 -115 -6 -1
-10 16 -9 37 1 20 3 58 3 84 l1 47 43 3 c66 5 69 4 120 -21z m836 15 c8 -10 9
-16 1 -21 -5 -3 -10 -22 -10 -42 0 -23 -7 -42 -20 -53 -20 -17 -24 -16 -110
28 -50 26 -90 50 -90 54 0 4 17 16 38 27 46 25 173 29 191 7z m-2449 -87 c0
-56 -4 -79 -12 -79 -16 -1 -198 92 -198 100 0 3 24 18 53 32 37 19 67 26 105
26 l52 -1 0 -78z m-1243 51 c-7 -10 -52 -60 -99 -112 -47 -51 -104 -113 -126
-137 l-40 -45 -56 60 c-31 32 -97 100 -146 151 l-89 92 47 3 c26 2 154 4 284
4 227 2 237 1 225 -16z m441 -2 c23 -13 42 -26 42 -29 0 -3 -12 -12 -27 -20
-16 -7 -50 -26 -77 -42 -53 -30 -48 -31 -104 20 -14 13 -25 71 -16 85 3 4 35
8 72 8 50 0 78 -6 110 -22z m3762 -299 c0 -3 -11 -16 -25 -29 l-26 -24 -115
58 c-63 33 -117 63 -120 67 -4 8 -8 178 -5 219 1 13 290 -276 291 -291z m-372
82 c12 -6 32 -16 45 -23 68 -36 397 -198 403 -198 3 0 19 -9 35 -21 16 -11 29
-17 29 -13 0 3 6 2 13 -4 10 -9 76 -44 229 -124 42 -22 46 -29 44 -83 l-1 -40
-117 -3 c-111 -2 -120 -1 -175 26 -121 59 -208 106 -211 114 -2 4 -11 8 -20 9
-9 0 -66 27 -127 59 -60 32 -257 132 -437 222 -180 89 -326 166 -325 170 1 4
49 32 107 62 l105 54 191 -98 c105 -54 200 -103 212 -109z m-1508 45 l0 -153
-76 -39 c-41 -21 -78 -42 -80 -46 -11 -17 -40 -6 -76 29 -44 43 -47 61 -15 94
27 29 185 203 218 241 13 15 25 28 27 28 1 0 2 -69 2 -154z m2252 -84 c2 -131
1 -251 -2 -265 l-5 -27 -50 49 c-27 26 -85 85 -128 129 l-77 81 22 23 c60 62
204 222 211 234 21 37 27 -2 29 -224z m-2835 130 c40 -43 97 -105 127 -138 31
-32 56 -61 56 -64 0 -12 -88 -100 -100 -100 -12 0 -166 75 -180 87 -3 3 -5 74
-5 158 0 179 -5 176 102 57z m-654 38 c353 -184 899 -453 905 -445 9 13 25 22
192 108 74 38 164 85 200 104 35 18 70 33 76 33 13 0 18 -141 8 -186 -4 -14
-31 -34 -82 -61 -42 -22 -113 -59 -157 -83 -107 -58 -252 -130 -262 -130 -4 0
-64 29 -133 65 -69 36 -163 84 -210 107 -47 24 -87 45 -90 48 -3 3 -93 49
-200 104 -107 54 -270 137 -362 183 -93 47 -165 89 -162 94 3 5 29 20 57 34
29 14 68 34 87 45 19 11 40 20 46 20 6 0 46 -18 87 -40z m476 -96 c-1 -63 -5
-114 -8 -114 -3 0 -17 9 -31 20 -14 11 -31 20 -37 20 -9 0 -13 19 -13 59 0 53
3 62 36 100 20 22 40 38 46 35 5 -3 8 -57 7 -120z m-2059 15 c52 -56 112 -119
133 -141 21 -22 37 -43 35 -47 -2 -5 -43 -51 -91 -103 -81 -88 -175 -157 -191
-140 -3 3 -6 124 -6 269 0 204 3 263 13 263 6 0 55 -46 107 -101z m530 -16 l0
-88 -106 -54 c-97 -49 -107 -52 -122 -37 -15 14 -13 19 18 53 19 21 43 43 52
50 9 8 45 47 78 88 34 41 65 75 71 75 5 0 9 -39 9 -87z m3164 39 c3 -5 43 -27
89 -50 70 -34 158 -102 157 -122 0 -5 -30 -39 -141 -160 -38 -41 -82 -90 -97
-107 -16 -18 -32 -33 -35 -33 -9 0 -9 465 0 473 9 9 21 9 27 -1z m-2399 -38
l25 -16 0 -219 c0 -121 -4 -219 -9 -219 -4 0 -33 28 -64 63 -31 35 -88 97
-126 137 -39 41 -71 81 -71 89 1 25 100 122 155 152 60 33 59 33 90 13z m2285
-226 l0 -213 -135 140 c-74 77 -134 142 -135 145 0 6 251 139 263 140 4 0 7
-96 7 -212z m-2212 190 c9 -9 12 -73 12 -224 0 -117 4 -215 8 -218 11 -7 27 8
127 120 102 113 153 164 164 164 29 0 16 -29 -40 -88 -177 -187 -219 -236
-219 -254 0 -4 72 -8 160 -8 130 0 160 -3 160 -14 0 -8 -6 -16 -12 -18 -28
-10 -966 -9 -972 1 -13 21 27 25 269 29 137 2 253 7 257 11 5 4 -10 26 -32 50
-22 23 -40 44 -40 46 0 1 -38 42 -85 90 -47 48 -95 101 -107 116 -13 16 -27
29 -31 29 -10 0 -66 -57 -162 -163 -54 -59 -75 -73 -75 -47 0 10 72 97 149
180 28 30 51 63 51 72 0 11 23 29 63 50 86 45 87 45 45 1 -21 -21 -38 -45 -38
-53 0 -15 23 -42 134 -161 33 -36 73 -79 88 -95 15 -16 33 -34 40 -41 7 -7 19
-19 26 -28 35 -41 38 -21 34 225 -2 132 1 240 5 240 5 0 14 -5 21 -12z m162
-79 l121 -61 -18 -21 c-10 -12 -39 -44 -65 -72 -96 -101 -138 -149 -138 -157
0 -4 -7 -8 -15 -8 -13 0 -15 28 -15 190 0 105 2 190 4 190 3 0 59 -27 126 -61z
m-999 -21 c4 -76 -4 -195 -14 -205 -7 -6 -82 -47 -167 -91 -85 -44 -185 -96
-222 -115 -64 -33 -74 -36 -170 -37 -57 -1 -109 -1 -116 -1 -9 1 -12 16 -10
53 l3 52 60 31 c33 17 90 48 126 68 90 51 492 256 502 257 4 0 7 -6 8 -12z
m3493 -79 c8 -12 45 -52 81 -90 65 -66 85 -105 85 -161 0 -27 -2 -28 -52 -29
-29 0 -133 -2 -231 -3 -98 -2 -180 0 -182 4 -3 4 8 19 23 33 27 25 39 38 177
190 38 42 72 77 77 77 4 0 14 -10 22 -21z m-571 -217 c27 -29 53 -52 60 -52 7
0 8 -3 1 -10 -7 -7 -69 -9 -165 -8 l-154 3 -3 124 c-3 117 -2 125 20 148 l23
25 85 -89 c47 -50 107 -113 133 -141z m-2435 166 c17 -18 75 -80 129 -136 54
-57 100 -108 101 -113 2 -6 -96 -8 -245 -7 -240 3 -248 4 -248 23 0 11 20 43
45 70 25 28 74 83 108 123 35 40 67 72 72 72 4 0 21 -15 38 -32z m720 -110
l-3 -143 -142 -3 c-79 -1 -143 -1 -143 2 0 2 15 20 33 39 17 19 77 82 132 141
55 58 105 106 112 106 11 0 13 -30 11 -142z m2556 108 c36 -19 71 -36 77 -38
9 -3 13 -41 15 -126 l3 -122 -90 0 -89 0 0 160 c0 92 4 160 9 160 5 0 39 -15
75 -34z m-2428 -17 l84 -42 0 -123 0 -123 -87 -3 c-49 -2 -91 -2 -95 0 -12 5
-9 332 3 332 6 0 48 -19 95 -41z m2648 -95 c12 -5 5 -18 -34 -62 -28 -31 -50
-60 -50 -64 0 -5 78 -8 174 -8 139 1 180 -2 203 -14 16 -8 21 -16 13 -16 -8
-1 -102 -3 -207 -6 l-193 -6 -2 23 c-3 58 5 84 40 121 20 21 37 38 38 38 1 0
9 -3 18 -6z m-1633 -29 c1 -14 2 -35 3 -47 2 -33 22 -32 46 2 12 16 26 30 31
30 16 0 10 -34 -11 -60 -24 -30 -25 -40 -5 -40 8 0 15 -8 15 -19 0 -14 -10
-19 -47 -24 -62 -7 -393 -9 -393 -3 0 18 69 35 161 40 57 3 107 5 112 5 13 1
7 18 -17 46 -37 43 -9 67 29 25 29 -32 45 -25 45 18 0 21 3 42 7 45 13 14 23
6 24 -18z m-775 -7 c4 -7 9 -23 10 -36 4 -39 14 -40 56 -10 32 23 36 -2 6 -45
-11 -14 -10 -19 1 -26 15 -10 51 -3 51 10 0 5 -7 9 -15 9 -21 0 -19 13 5 28
17 10 26 9 53 -5 30 -16 30 -18 9 -21 -35 -5 -15 -22 27 -22 44 0 101 -18 101
-31 0 -5 -96 -9 -221 -9 -205 0 -220 1 -217 18 2 9 11 16 20 14 29 -5 31 19 4
47 -25 26 -35 61 -18 61 5 0 25 -18 45 -41 20 -22 41 -38 47 -34 5 3 10 28 10
56 0 47 11 62 26 37z m-1602 -109 c-2 -4 -66 -6 -143 -5 -77 0 -138 2 -136 4
2 2 45 25 96 52 l94 48 47 -46 c26 -25 45 -49 42 -53z"/>
<path d="M2767 6103 c-13 -16 -46 -53 -73 -83 -27 -30 -86 -93 -131 -140 -52
-54 -79 -88 -72 -95 5 -5 110 -8 267 -6 359 5 336 4 340 21 1 8 -35 54 -80
101 -46 47 -112 118 -148 157 -36 39 -68 71 -72 72 -3 0 -17 -12 -31 -27z
m129 -106 c114 -119 174 -185 174 -190 0 -3 -125 -5 -277 -6 l-278 -2 51 53
c28 29 73 78 101 108 27 30 65 72 84 92 19 21 39 38 45 38 6 0 51 -42 100 -93z"/>
<path d="M3068 5745 c-2 -2 -116 -5 -253 -6 -262 -2 -325 -6 -325 -20 0 -5 44
-55 98 -111 55 -57 119 -124 144 -150 24 -27 50 -48 57 -48 6 0 35 26 64 57
29 31 84 91 123 132 111 117 126 138 110 144 -8 3 -16 4 -18 2z m-18 -32 c0
-16 -247 -273 -263 -273 -5 0 -33 24 -61 54 -28 30 -84 88 -123 130 -40 42
-73 79 -73 84 0 4 117 9 260 11 143 1 260 -1 260 -6z"/>
<path d="M5362 4905 c-18 -22 -186 -205 -255 -277 l-28 -29 27 -32 c14 -18 77
-85 140 -149 63 -64 114 -120 114 -125 0 -16 38 -34 46 -21 4 6 6 101 4 212
-1 111 -2 256 -2 324 -1 131 -8 146 -46 97z m26 -445 l-3 -151 -50 49 c-230
229 -230 228 -212 256 9 13 27 35 39 48 13 13 68 72 123 132 l100 108 3 -145
c1 -80 1 -214 0 -297z"/>
<path d="M181 4575 c1 -163 6 -298 10 -301 5 -3 6 -11 2 -17 -12 -20 -12 -56
1 -66 10 -9 21 -2 45 26 18 21 65 72 104 114 89 93 171 187 175 198 2 5 -21
35 -50 66 -76 83 -272 275 -280 275 -5 0 -7 -133 -7 -295z m164 118 c64 -67
124 -131 132 -143 13 -19 6 -29 -119 -169 -73 -82 -135 -148 -136 -146 -6 5
-11 130 -17 373 -5 190 -4 222 8 215 8 -4 67 -63 132 -130z"/>
<path d="M5048 3747 c-7 -8 -53 -58 -103 -112 -49 -54 -111 -121 -137 -149
-26 -27 -44 -54 -41 -60 7 -11 583 0 595 12 4 4 -36 53 -90 109 -53 55 -121
126 -150 157 -29 31 -55 56 -57 56 -2 0 -10 -6 -17 -13z m280 -292 c-2 -1
-122 -5 -267 -8 -291 -7 -272 -12 -211 54 14 14 61 66 105 114 44 49 86 94 93
102 11 11 36 -10 148 -123 75 -75 134 -137 132 -139z"/>
<path d="M2710 3644 c-41 -47 -99 -111 -128 -142 -29 -31 -62 -70 -74 -85
l-20 -28 313 4 c173 3 315 5 317 6 16 5 -300 331 -320 330 -7 0 -47 -39 -88
-85z m150 3 c84 -82 212 -218 208 -222 -5 -6 -528 -11 -528 -5 0 11 249 280
259 280 3 0 31 -24 61 -53z"/>
<path d="M2658 3352 c-93 -1 -168 -5 -168 -8 0 -5 215 -227 315 -325 19 -19
19 -19 42 7 32 37 222 243 256 276 15 15 27 35 27 43 0 14 -18 16 -152 13 -84
-2 -228 -4 -320 -6z m432 -22 c0 -5 -12 -22 -26 -37 -14 -15 -65 -70 -113
-122 -96 -105 -122 -131 -131 -131 -8 0 -280 275 -280 283 0 4 98 8 218 9 119
2 243 4 275 5 31 0 57 -3 57 -7z"/>
<path d="M5339 2428 c-46 -51 -111 -121 -144 -156 -33 -35 -64 -70 -68 -78 -6
-11 31 -54 139 -164 81 -82 151 -155 155 -161 4 -7 13 -9 21 -6 14 5 18 73 5
95 -4 5 -4 12 0 16 6 5 8 72 3 79 -3 2 -9 282 -10 395 0 39 -4 72 -9 72 -5 0
-46 -41 -92 -92z m82 -145 c1 -104 2 -230 3 -280 0 -51 -2 -93 -5 -93 -6 0
-139 129 -139 135 0 2 -29 31 -65 66 -36 34 -65 67 -65 73 0 6 28 40 61 76 33
36 81 89 107 119 57 66 83 91 94 91 4 0 8 -84 9 -187z"/>
<path d="M223 2273 c2 -176 6 -228 16 -231 11 -4 12 34 9 202 -3 113 -2 206 2
206 6 0 177 -179 225 -234 6 -7 20 -24 33 -38 l23 -26 -33 -34 c-32 -33 -172
-187 -213 -235 -11 -12 -24 -23 -28 -23 -4 0 -7 36 -7 79 0 44 -4 83 -10 86
-6 4 -10 -33 -10 -104 0 -61 4 -111 8 -111 5 0 56 51 114 113 151 162 198 216
198 230 0 13 -116 149 -132 155 -4 2 -8 7 -8 11 0 12 -168 181 -180 181 -8 0
-10 -67 -7 -227z"/>
<path d="M4814 958 c-3 -4 68 -80 156 -170 l160 -163 38 40 c20 22 73 80 117
129 44 49 92 102 108 118 57 60 58 60 -274 57 -165 -2 -302 -6 -305 -11z m548
-45 c-100 -123 -231 -253 -248 -246 -7 3 -14 8 -14 12 0 3 -56 63 -125 133
-118 120 -123 127 -97 130 15 2 137 5 271 6 l244 3 -31 -38z"/>
<path d="M2744 1223 c-48 -54 -113 -126 -145 -159 -33 -34 -59 -67 -59 -73 0
-9 81 -11 308 -9 229 2 307 6 307 15 0 6 -54 69 -120 139 -156 165 -175 184
-191 184 -7 0 -52 -44 -100 -97z m366 -205 c0 -10 -4 -10 -297 -12 -203 -1
-230 1 -223 14 8 14 105 122 214 239 l41 44 132 -139 c73 -76 133 -142 133
-146z"/>
<path d="M2550 940 c-19 -12 -15 -17 226 -272 36 -38 68 -68 73 -68 7 0 94 91
264 276 26 28 47 56 47 63 0 9 -73 12 -299 10 -164 -1 -304 -5 -311 -9z m570
-19 c0 -9 -180 -209 -234 -260 l-36 -35 -27 25 c-16 13 -31 29 -35 34 -4 6
-55 60 -114 120 l-106 110 93 6 c145 8 459 8 459 0z"/>
</g>
</svg>
