<?xml version="1.0" standalone="no"?>
<!DOCTYPE svg PUBLIC "-//W3C//DTD SVG 20010904//EN"
 "http://www.w3.org/TR/2001/REC-SVG-20010904/DTD/svg10.dtd">
<svg version="1.0" xmlns="http://www.w3.org/2000/svg"
 width="1140.000000pt" height="816.000000pt" viewBox="0 0 1140.000000 816.000000"
 preserveAspectRatio="xMidYMid meet">
<metadata>
Created by potrace 1.16, written by Peter Selinger 2001-2019
</metadata>
<g transform="translate(0.000000,816.000000) scale(0.100000,-0.100000)"
fill="#000000" stroke="none">
<path d="M4035 7753 c-51 -13 -211 -69 -322 -114 -771 -308 -1482 -749 -1978
-1231 -100 -96 -116 -108 -148 -108 -50 0 -70 9 -57 25 9 10 -2 22 -43 49 -54
36 -179 86 -216 86 -10 0 -37 6 -59 14 -46 16 -62 8 -62 -34 0 -33 -9 -43 -26
-29 -7 6 -25 9 -41 7 -23 -2 -28 -8 -28 -30 1 -26 -2 -28 -41 -28 -51 0 -248
64 -354 114 -96 46 -206 72 -351 85 -75 6 -144 19 -197 37 -75 24 -112 27
-112 7 0 -4 17 -9 38 -9 20 -1 69 -11 107 -23 42 -13 119 -25 190 -31 133 -9
230 -34 320 -81 72 -38 313 -119 352 -119 58 0 73 10 66 41 -7 34 9 38 46 12
23 -15 25 -15 37 2 8 10 14 32 14 48 0 24 3 28 18 22 9 -4 44 -13 77 -21 33
-7 87 -24 120 -37 61 -24 147 -77 126 -77 -21 0 -11 -19 17 -34 15 -8 42 -11
62 -9 l35 5 -31 -33 c-114 -127 -238 -321 -274 -432 -17 -53 -6 -105 26 -117
l24 -10 -21 -52 c-41 -105 -68 -189 -75 -233 -5 -37 -10 -45 -28 -45 -12 0
-32 -7 -45 -16 -51 -36 -64 -127 -36 -271 23 -120 21 -133 -31 -202 -77 -103
-86 -180 -28 -255 45 -59 42 -72 -37 -162 -33 -38 -68 -82 -76 -99 -37 -70
-36 -410 1 -468 16 -25 36 -274 36 -432 l0 -100 -33 -20 c-48 -29 -50 -29 -34
-4 24 39 28 64 15 95 -12 29 -13 43 -20 166 -3 75 -20 105 -42 76 -17 -23 -25
-23 -25 0 0 9 -1 24 -2 32 -2 8 1 32 5 54 6 27 3 68 -9 133 -10 53 -19 109
-20 127 -4 46 -36 180 -46 190 -5 5 -15 3 -25 -5 -16 -13 -17 -11 -10 16 18
67 18 131 2 144 -9 8 -16 24 -16 36 0 12 -6 28 -14 34 -9 8 -12 26 -8 61 3 32
0 55 -8 65 -20 24 -36 3 -50 -64 -9 -42 -16 -58 -26 -54 -18 7 -30 -44 -17
-77 8 -21 6 -31 -9 -50 -10 -13 -17 -29 -14 -36 3 -7 -1 -17 -7 -22 -9 -8 -12
19 -14 111 -1 72 -7 124 -13 131 -19 19 -37 -19 -44 -94 -3 -38 -11 -81 -18
-95 -8 -19 -9 -31 -2 -43 15 -24 -5 -69 -29 -64 -23 5 -32 -23 -19 -54 8 -16
8 -32 2 -50 -6 -14 -6 -33 -2 -42 4 -9 5 -35 2 -57 -4 -33 -9 -40 -27 -40 -36
0 -37 -13 -9 -64 19 -37 23 -52 14 -57 -6 -4 -14 -2 -16 4 -7 21 -33 42 -52
42 -22 0 -25 -5 -34 -46 -6 -25 -2 -37 17 -60 20 -24 24 -36 18 -68 -5 -33
-10 -39 -34 -42 -43 -4 -77 -31 -84 -65 -4 -19 -16 -35 -34 -45 -39 -20 -37
-49 6 -110 21 -29 35 -61 35 -78 0 -23 -3 -27 -12 -18 -7 7 -19 12 -28 12 -9
0 -29 13 -43 30 -15 16 -33 30 -41 30 -7 0 -19 7 -27 16 -14 17 -82 54 -98 54
-17 0 -32 -38 -25 -66 4 -14 17 -30 29 -36 28 -12 46 -49 38 -77 -7 -26 14
-53 36 -46 9 2 23 0 31 -5 12 -8 11 -10 -7 -10 -56 0 -31 -50 26 -50 l36 -1
-27 -15 c-33 -18 -34 -20 -8 -61 15 -25 16 -33 6 -33 -8 0 -16 7 -20 15 -7 20
-35 19 -58 -2 -15 -13 -23 -14 -44 -5 -38 18 -44 15 -44 -23 0 -28 4 -35 20
-35 20 0 20 0 0 -20 -24 -24 -25 -43 -4 -64 19 -19 38 -20 64 -4 28 18 34 5
15 -33 -12 -22 -16 -46 -12 -75 3 -31 0 -44 -9 -48 -8 -3 -14 -14 -14 -24 0
-14 -9 -21 -30 -25 -43 -9 -41 -38 3 -31 53 9 59 13 53 31 -5 11 2 24 21 40
26 21 27 24 10 37 -9 7 -17 21 -17 30 0 23 28 76 40 76 6 0 10 8 10 18 0 23
-57 49 -73 33 -16 -16 -47 -14 -47 4 0 8 9 19 21 26 14 7 19 17 16 30 -3 11 0
19 6 18 26 -3 37 2 37 16 0 8 5 15 10 15 6 0 10 -4 10 -9 0 -19 41 -23 67 -6
l25 17 -28 29 c-15 16 -26 30 -23 31 2 2 13 8 23 14 28 15 30 30 7 53 -12 12
-21 28 -21 36 0 17 -38 40 -63 36 -13 -2 -17 5 -17 35 0 29 -7 43 -35 70 -30
28 -47 64 -30 64 12 0 65 -31 65 -38 0 -4 14 -14 32 -21 18 -8 43 -27 55 -42
13 -15 34 -29 46 -31 16 -2 23 -11 25 -33 5 -38 30 -67 56 -63 16 2 21 10 19
33 -3 52 -28 142 -44 162 -9 10 -26 35 -38 55 l-23 38 25 9 c28 11 36 21 42
53 6 32 42 58 80 58 37 0 45 15 45 85 0 30 -6 44 -26 60 -24 19 -24 22 -11 47
10 21 17 24 25 16 7 -7 12 -18 12 -24 0 -22 42 -28 57 -8 17 24 17 33 -6 74
-18 34 -18 35 3 45 26 13 44 99 25 121 -9 11 -9 18 1 29 12 15 10 41 -5 78 -7
17 -6 18 14 5 18 -11 23 -11 31 2 5 8 7 17 4 21 -2 4 1 19 7 33 9 18 9 29 1
38 -7 9 -6 29 4 68 8 30 15 75 15 100 l2 45 7 -44 c4 -25 6 -84 4 -131 -3
-125 19 -147 51 -51 9 27 23 55 31 62 11 9 14 23 10 48 -5 29 -4 32 4 18 18
-29 29 -9 28 51 -1 31 3 66 10 77 9 16 10 10 5 -32 -5 -43 -3 -54 11 -59 9 -4
16 -17 16 -34 0 -15 6 -32 13 -39 10 -8 11 -23 5 -63 -17 -101 -6 -156 26
-129 15 13 22 -13 52 -194 24 -146 27 -200 15 -224 -8 -14 -9 -27 -2 -40 6
-10 12 -36 13 -57 4 -46 31 -59 44 -22 6 17 10 4 15 -52 6 -56 4 -81 -7 -102
-22 -43 -18 -61 11 -56 31 6 33 -15 5 -57 -11 -16 -20 -40 -20 -52 0 -12 -6
-23 -12 -25 -14 -5 -13 -125 2 -163 7 -19 12 -187 8 -330 -1 -49 15 -119 38
-163 12 -25 21 -32 35 -29 25 7 25 -10 0 -18 -12 -3 -23 -20 -28 -43 -6 -27
-15 -38 -33 -42 -15 -4 -25 -13 -25 -24 0 -10 -13 -28 -29 -41 -23 -18 -28
-29 -24 -53 3 -25 0 -33 -19 -41 -32 -15 -29 -28 7 -28 49 0 90 -49 58 -70 -7
-4 -23 -28 -36 -52 -20 -40 -21 -46 -7 -61 14 -15 13 -20 -1 -49 -13 -27 -14
-37 -4 -62 7 -17 23 -32 36 -35 13 -3 24 -14 24 -23 0 -9 3 -26 6 -38 5 -18 0
-25 -30 -37 -20 -8 -36 -18 -36 -22 0 -3 11 -15 25 -26 14 -11 25 -30 25 -43
0 -13 5 -36 10 -51 14 -35 5 -42 -21 -18 -20 18 -21 18 -36 -1 -11 -15 -14
-37 -10 -87 3 -46 0 -76 -10 -95 -7 -15 -11 -33 -9 -40 3 -8 0 -22 -6 -33 -10
-15 -9 -22 4 -37 9 -10 18 -40 20 -68 3 -45 1 -50 -19 -53 -35 -5 -43 -24 -36
-81 5 -45 10 -54 32 -63 l26 -10 -32 -27 c-38 -32 -42 -63 -12 -85 12 -8 18
-19 15 -24 -3 -6 -1 -22 6 -37 10 -22 17 -26 42 -22 36 5 86 -27 86 -54 0 -10
5 -21 11 -25 6 -3 9 -18 6 -32 -4 -21 3 -34 34 -64 45 -44 49 -69 14 -110 -25
-30 -36 -98 -15 -98 6 0 10 15 10 34 0 24 7 40 23 53 13 10 26 26 30 36 4 11
17 17 36 17 16 0 33 5 36 10 3 6 17 10 29 10 14 0 30 10 40 25 13 19 22 24 40
19 17 -4 31 2 52 23 16 16 37 32 46 36 13 5 18 17 18 47 0 40 13 53 24 24 3
-9 6 -28 6 -43 0 -15 9 -36 20 -46 15 -14 17 -22 9 -37 -15 -28 19 -63 96 -99
34 -15 73 -39 88 -53 16 -15 32 -26 36 -26 4 0 16 -9 26 -20 10 -11 22 -20 27
-20 9 0 48 -37 48 -45 0 -3 -28 -5 -62 -6 -35 -1 -74 -5 -88 -9 -24 -8 -23 -8
8 -9 18 -1 31 -5 28 -10 -5 -8 -76 -17 -201 -27 -27 -2 -81 -8 -120 -12 -44
-6 -76 -5 -86 1 -19 12 -85 1 -95 -15 -4 -6 0 -16 9 -23 26 -19 20 -26 -10
-14 -67 26 -139 39 -179 33 -31 -4 -49 -2 -66 10 -20 14 -42 15 -153 10 -75
-4 -139 -12 -150 -19 -11 -7 -33 -15 -50 -18 -16 -3 -52 -12 -80 -20 -44 -12
-53 -12 -73 1 -14 9 -22 23 -20 36 3 18 9 20 38 18 25 -2 41 2 52 15 22 25 31
80 14 90 -15 9 -28 39 -30 70 -1 12 -10 31 -20 42 -18 20 -15 58 4 46 5 -3 19
-1 31 5 17 10 24 8 41 -10 17 -18 19 -26 9 -46 -6 -14 -11 -29 -11 -34 0 -16
30 -11 60 10 23 16 30 31 35 73 7 56 20 79 49 90 15 6 17 14 12 40 -3 17 -12
37 -19 42 -7 6 -19 25 -26 43 -8 18 -22 37 -32 42 -12 7 -18 21 -17 48 0 22
-3 62 -7 91 -6 45 -12 56 -50 87 -40 32 -43 38 -33 59 8 18 8 28 0 38 -7 8 -7
18 -2 27 16 25 12 87 -6 94 -33 12 -131 6 -144 -9 -7 -8 -20 -15 -29 -15 -24
0 -64 -64 -56 -89 3 -12 2 -21 -3 -21 -5 0 -30 -14 -55 -31 -51 -33 -56 -49
-35 -107 11 -30 11 -35 -9 -50 -23 -19 -53 -83 -53 -115 0 -11 -8 -29 -17 -39
-14 -16 -15 -23 -5 -39 7 -10 18 -28 24 -39 10 -16 10 -24 0 -40 -6 -11 -12
-29 -12 -41 0 -12 -11 -30 -25 -41 -21 -16 -25 -28 -25 -74 0 -40 4 -54 14
-54 9 0 17 -16 21 -42 4 -24 11 -51 17 -61 11 -21 62 -23 102 -2 28 15 31 14
57 -11 20 -19 34 -25 51 -21 28 7 69 -23 66 -50 -3 -40 2 -55 17 -49 9 3 24 1
34 -5 13 -9 31 -8 73 5 31 9 69 16 86 16 16 0 35 7 42 15 9 10 32 15 74 15 34
0 88 5 120 11 48 9 61 8 81 -5 15 -10 46 -16 80 -16 58 0 137 -14 167 -31 46
-24 96 2 68 36 -11 13 -5 15 46 13 53 -2 157 4 299 18 28 2 61 5 75 5 14 0 30
5 36 10 6 5 24 4 43 -4 28 -10 37 -9 69 8 37 20 55 20 1565 17 1265 -3 1526
-6 1520 -17 -5 -7 -32 -31 -60 -54 -29 -23 -53 -46 -53 -51 0 -15 113 79 125
103 9 19 17 19 545 14 602 -6 994 -14 1090 -22 36 -4 228 -8 427 -10 l363 -3
77 -50 c205 -131 695 -383 743 -381 23 0 22 2 -10 17 -341 159 -514 249 -695
361 l-90 56 75 7 c41 4 125 8 185 9 104 3 118 1 255 -40 258 -75 721 -190 717
-178 -2 7 -62 26 -133 43 -226 54 -679 176 -689 185 -5 5 45 10 120 11 72 1
175 4 230 6 55 2 198 6 318 9 181 4 219 2 231 -10 15 -14 138 -33 154 -24 4 3
47 7 96 8 58 2 90 7 93 15 3 9 15 7 46 -7 27 -12 62 -18 97 -17 43 1 47 2 15
5 -43 3 -115 22 -128 33 -5 4 104 8 240 9 192 1 267 -3 328 -15 119 -24 134
-26 87 -10 -24 8 -66 17 -93 21 -47 7 -48 7 -34 28 8 12 15 34 15 50 0 34 19
43 62 28 26 -9 35 -9 43 2 7 9 79 21 215 37 113 13 216 28 230 33 14 6 34 12
45 13 232 27 519 75 534 90 2 2 11 -2 19 -8 11 -10 18 -8 32 10 15 17 29 22
69 22 28 0 51 5 51 10 0 6 -22 10 -49 10 l-49 0 -6 58 c-3 31 -8 91 -11 132
-3 41 -8 92 -11 112 -8 51 15 61 151 70 61 4 117 8 125 9 8 1 112 -1 230 -4
175 -4 194 -4 100 4 -63 5 -206 9 -317 10 -183 1 -203 3 -203 18 0 9 -4 21 -9
26 -6 6 -12 39 -15 75 -3 36 -8 91 -12 122 -3 31 -3 62 1 69 12 18 25 -10 25
-56 1 -51 25 -214 34 -222 14 -14 16 7 8 61 -8 47 -7 56 5 52 8 -3 24 1 36 9
18 12 30 12 59 3 38 -11 48 -33 48 -99 0 -17 5 -29 13 -29 11 0 12 14 5 68
-27 205 -27 192 -2 192 8 0 11 -6 8 -14 -7 -19 25 -238 37 -250 16 -18 20 1 9
49 -6 26 -9 49 -7 52 3 2 26 -4 52 -13 26 -8 59 -14 72 -11 13 2 26 0 29 -5 3
-5 23 -7 44 -3 23 4 41 2 45 -4 10 -17 27 -13 24 7 -4 23 10 63 29 85 15 16
14 18 -7 24 -19 5 -22 11 -17 33 5 26 2 28 -28 32 -44 5 -56 0 -56 -23 0 -13
-15 -27 -47 -42 -35 -17 -47 -28 -46 -42 2 -18 -3 -20 -42 -17 -54 5 -62 13
-71 81 -6 48 -5 52 12 49 12 -2 20 4 22 16 3 14 0 17 -11 13 -8 -3 -18 -3 -21
0 -22 22 -106 -2 -91 -26 3 -6 -1 -14 -9 -17 -25 -9 -19 -24 9 -24 22 0 25 -4
25 -37 0 -21 -4 -33 -8 -27 -13 20 -66 26 -87 10 -33 -25 -43 -19 -50 32 -3
26 -8 64 -10 84 -4 30 -1 38 15 43 10 3 28 2 38 -4 14 -7 24 -6 38 4 18 14 18
14 -3 15 -13 0 -23 4 -23 9 0 13 -43 22 -54 11 -4 -4 -15 -6 -22 -3 -8 3 -17
-2 -20 -11 -3 -9 -13 -16 -20 -16 -8 0 -19 -12 -24 -26 -18 -47 -30 -14 -30
88 0 55 -6 126 -14 157 -8 31 -19 108 -25 171 -6 63 -18 188 -26 276 -20 212
-19 240 2 249 13 4 25 -2 40 -21 22 -28 22 -28 42 -9 25 22 26 38 6 55 -18 15
-20 30 -3 30 6 0 20 8 31 17 19 17 20 17 34 -5 9 -12 26 -22 39 -22 12 0 26
-5 29 -11 4 -6 19 -7 36 -4 21 5 36 1 55 -14 15 -12 39 -21 53 -21 15 0 31 -4
37 -9 5 -5 37 -11 71 -14 64 -5 84 1 148 47 34 25 114 25 150 2 24 -16 25 -15
25 3 0 20 -14 28 -70 42 -45 11 -106 -6 -143 -40 -23 -21 -36 -25 -93 -24 -50
0 -69 4 -75 16 -7 11 -18 14 -43 10 -27 -4 -36 -1 -49 17 -11 16 -23 21 -49
19 -45 -4 -90 10 -106 33 -17 23 -48 23 -69 -1 -9 -11 -22 -17 -29 -14 -24 9
-28 -27 -6 -57 12 -15 18 -30 15 -34 -3 -3 -13 4 -21 15 -12 17 -22 20 -48 16
l-33 -6 -6 52 c-28 244 -88 743 -101 832 -13 95 -22 122 -62 200 -92 177 -259
311 -557 448 -167 76 -263 111 -632 226 -444 139 -904 256 -1183 301 -364 58
-813 83 -1015 56 -210 -28 -228 -38 -222 -122 2 -30 0 -54 -4 -54 -5 0 -9 4
-9 10 0 17 -58 40 -100 40 -30 0 -47 -6 -65 -25 -14 -13 -25 -29 -25 -35 0 -6
-37 -10 -100 -10 -148 0 -188 -26 -174 -116 l7 -46 -44 6 c-24 3 -98 10 -164
16 -168 16 -160 13 -180 67 -35 93 -130 250 -171 282 -78 61 -286 65 -332 6
-14 -17 -33 -25 -73 -30 -76 -8 -116 13 -151 84 -24 47 -28 67 -28 140 0 138
-13 193 -65 274 -41 64 -45 76 -45 131 0 62 -26 134 -69 195 -19 26 -19 27 0
50 13 16 19 39 19 75 0 28 7 72 14 97 19 63 40 308 33 390 -3 37 -15 87 -28
114 -23 49 -116 157 -153 178 -12 6 -59 14 -105 17 -133 10 -133 11 -261 500
-74 285 -98 357 -158 480 -50 104 -49 100 -51 133 -1 20 -120 196 -183 270
-23 27 -66 40 -103 30z m120 -178 c42 -56 75 -110 75 -123 l0 -23 -27 21 c-53
41 -120 108 -127 126 -6 16 -8 16 -16 4 -7 -10 -10 3 -10 43 0 47 3 58 15 55
9 -2 49 -48 90 -103z m-120 48 c-4 -27 -8 -48 -8 -48 -17 -1 -358 -121 -457
-161 -74 -31 -157 -63 -185 -73 -64 -23 -425 -207 -530 -269 -262 -157 -469
-300 -675 -468 -63 -51 -135 -110 -160 -130 -25 -20 14 22 85 92 72 70 121
122 110 116 -11 -6 -71 -62 -132 -124 -332 -334 -454 -460 -512 -528 -35 -41
-70 -79 -78 -83 -7 -4 -22 -26 -33 -48 -18 -35 -40 -52 -40 -31 0 15 107 189
164 266 380 514 1379 1160 2316 1497 142 51 144 51 135 -8z m110 -158 c55 -47
102 -85 106 -85 14 0 61 -81 95 -165 20 -49 74 -231 119 -405 90 -338 114
-414 145 -468 12 -19 20 -36 18 -37 -2 -1 -48 -8 -103 -14 -55 -7 -109 -15
-120 -17 -19 -5 -20 0 -21 95 0 116 -8 131 -67 131 l-40 0 9 143 c5 78 9 237
9 353 0 238 -2 244 -66 244 -33 0 -40 4 -45 25 -3 14 -4 32 0 40 9 25 -11 62
-37 69 -21 5 -26 14 -32 56 -9 64 -25 65 -25 2 0 -50 13 -71 53 -85 13 -5 17
-18 17 -52 0 -67 13 -85 60 -85 21 0 41 -4 44 -8 22 -37 16 -460 -8 -467 -6
-1 -64 -18 -129 -35 -64 -18 -116 -35 -114 -37 2 -2 57 11 121 28 64 17 119
29 122 26 3 -3 2 -54 -3 -113 l-8 -109 -105 -26 c-58 -14 -125 -29 -150 -33
l-45 -6 24 20 c35 30 21 24 -60 -24 -41 -25 -96 -50 -124 -56 -27 -7 -77 -23
-110 -35 -33 -13 -100 -33 -150 -45 -108 -26 -119 -29 -113 -35 13 -13 288 62
463 126 33 12 65 25 70 30 6 4 51 15 100 23 50 9 118 25 152 35 36 11 65 15
69 10 3 -5 23 -9 44 -9 36 0 40 -2 45 -32 3 -18 5 -64 3 -102 l-3 -69 -160
-32 c-769 -155 -1724 -569 -2280 -988 -193 -146 -464 -401 -620 -586 l-79 -93
-17 40 c-10 22 -22 43 -29 47 -8 5 -8 11 1 21 10 12 8 19 -10 37 -28 31 -27
49 3 41 31 -7 42 11 25 42 -11 22 -10 27 18 57 48 50 58 97 40 197 -15 83 -21
216 -10 233 3 4 16 1 30 -8 29 -19 53 -13 53 13 0 11 11 54 25 96 14 42 25 85
25 95 0 34 21 78 42 88 18 8 21 19 24 78 l3 70 66 60 c36 33 65 64 65 70 0 5
-28 -19 -63 -53 -61 -61 -64 -62 -80 -44 -17 18 -14 23 57 118 179 240 513
562 846 816 370 282 803 526 1247 702 160 64 444 165 463 166 3 0 50 -38 105
-85z m649 -1201 c72 -3 103 -20 128 -69 10 -19 10 -19 -13 1 -54 48 -44 48
-309 8 -614 -94 -1228 -258 -1810 -484 -93 -36 -41 -6 84 49 382 168 764 303
1076 380 298 74 676 137 745 124 17 -3 61 -7 99 -9z m22 -171 c-4 -60 -8 -109
-9 -109 -5 -4 -329 -25 -333 -22 -2 2 15 16 38 31 25 16 35 27 25 27 -9 0 -34
-15 -54 -33 -36 -32 -43 -34 -162 -46 -68 -7 -189 -23 -269 -37 -80 -13 -147
-24 -149 -24 -2 0 -3 8 -3 18 0 11 15 35 34 54 23 23 36 47 38 69 3 33 5 34
73 51 64 16 501 98 520 98 4 0 5 -30 2 -67 -3 -42 -2 -56 3 -38 4 17 8 46 9
66 1 24 7 39 17 43 28 11 44 6 45 -11 1 -17 2 -17 6 -1 5 22 51 34 137 37 l39
1 -7 -107z m85 60 c20 -21 50 -57 67 -79 35 -45 38 -72 26 -192 l-7 -61 -39
57 c-22 31 -54 71 -72 87 l-32 30 4 98 c2 53 7 97 11 97 4 0 23 -17 42 -37z
m-981 -141 c0 -15 -5 -33 -12 -40 -6 -6 -14 -31 -17 -54 -6 -41 -7 -43 -51
-51 -25 -5 -119 -24 -210 -44 -91 -20 -175 -38 -187 -40 -17 -4 -22 0 -26 23
l-4 29 -2 -31 c-1 -31 -1 -31 -123 -63 -68 -18 -194 -55 -280 -82 -86 -27
-159 -49 -162 -49 -8 0 -7 59 0 86 6 23 7 23 258 110 212 72 753 229 804 233
7 1 12 -11 12 -27z m877 -70 c7 -4 14 -23 15 -42 l3 -35 -130 -11 c-71 -7
-149 -12 -171 -13 l-42 -1 -4 43 c-3 23 -3 44 -2 46 3 3 184 15 284 19 19 1
40 -2 47 -6z m-347 -61 l0 -48 -62 -7 c-35 -4 -155 -23 -268 -42 -113 -19
-208 -34 -212 -34 -5 0 -8 22 -8 49 l0 49 48 10 c51 12 423 65 485 71 14 1 17
-7 17 -48z m-560 -85 l0 -53 -87 -17 c-49 -10 -155 -33 -237 -52 -83 -19 -154
-34 -159 -34 -5 0 -7 20 -5 45 3 24 2 42 -3 39 -5 -3 -9 -25 -9 -48 l0 -44
-115 -31 c-63 -17 -170 -50 -239 -71 -68 -22 -126 -40 -129 -40 -5 0 -37 76
-37 89 0 5 8 11 18 14 9 2 82 25 162 50 194 61 425 120 645 167 99 21 183 39
188 39 4 1 7 -23 7 -53z m1010 -36 c30 -39 55 -75 54 -80 -1 -6 -2 -31 -3 -57
l-1 -48 -26 55 c-30 65 -37 71 -77 59 -51 -15 -59 -33 -11 -25 l41 6 32 -68
c37 -82 38 -90 9 -94 -36 -5 -33 -35 11 -98 60 -86 81 -136 81 -202 0 -63 10
-92 54 -157 26 -40 30 -57 42 -184 16 -164 32 -219 80 -276 l36 -41 -29 0
c-19 0 -44 13 -71 36 -23 19 -42 31 -42 26 0 -6 13 -21 30 -35 l30 -25 -78 -7
c-42 -4 -126 -12 -187 -19 -60 -7 -111 -13 -111 -12 -5 4 20 565 36 806 10
163 15 299 11 303 -14 14 -19 -31 -36 -278 -22 -338 -36 -736 -29 -800 l7 -56
36 5 c93 15 281 27 486 31 l225 4 0 -78 0 -78 -247 -6 c-679 -18 -1377 -107
-2103 -268 -777 -173 -1580 -464 -1992 -722 -64 -40 -84 -49 -81 -35 3 10 12
18 19 18 11 0 14 29 15 148 2 132 3 139 9 69 4 -43 11 -81 14 -84 9 -9 76 24
76 37 0 13 -16 13 -41 0 -18 -10 -19 -6 -21 72 -5 158 1 221 23 251 18 24 19
33 9 56 -11 28 -8 61 12 114 22 58 44 9 27 -60 -7 -26 -10 -126 -8 -262 4
-196 9 -245 23 -230 3 3 9 175 15 383 6 270 13 381 21 390 9 8 11 2 6 -29 -3
-22 -8 -121 -11 -220 -3 -99 -8 -245 -10 -325 -4 -91 -2 -151 4 -160 8 -11 11
-6 11 23 0 21 4 36 8 33 11 -6 124 61 135 80 5 8 12 12 18 9 5 -4 10 134 11
357 l2 363 6 -355 c3 -195 7 -357 8 -360 2 -3 7 3 13 13 6 10 39 31 74 47 69
31 78 39 65 60 -7 11 -2 21 15 35 22 18 25 31 35 155 6 74 10 181 9 238 -2 68
1 106 9 114 9 9 12 -33 12 -178 0 -200 9 -378 19 -369 3 3 5 137 4 298 -2 358
7 559 25 565 11 3 12 -75 6 -429 -5 -327 -4 -430 4 -425 8 5 12 63 13 189 1
107 4 172 9 157 4 -14 8 -80 9 -147 1 -72 5 -124 11 -128 16 -10 110 42 145
80 17 17 36 34 43 36 17 6 29 90 42 302 8 122 9 181 2 190 -8 9 -5 20 8 37 19
25 20 22 20 -267 0 -168 4 -294 9 -298 5 -3 12 3 15 12 2 10 5 214 5 453 -1
404 1 435 17 447 10 7 21 13 25 13 3 0 9 -201 11 -447 3 -247 9 -456 13 -466
10 -23 24 -4 25 33 l1 25 9 -23 c8 -19 13 -21 30 -12 12 6 67 26 123 44 76 25
103 39 106 52 5 27 21 44 41 44 26 0 30 37 30 274 0 182 -2 215 -17 236 -16
22 -16 24 5 38 28 19 28 48 -2 115 -39 89 -90 115 -162 81 -59 -28 -137 -134
-165 -224 -4 -15 -8 32 -8 112 l-1 138 92 46 c100 50 266 124 280 124 4 0 8
-216 8 -481 0 -380 3 -480 13 -476 9 3 11 104 8 474 l-4 471 26 26 c15 15 27
29 27 31 0 12 -39 4 -50 -10 -7 -8 -16 -12 -21 -9 -21 13 -410 -174 -635 -306
-75 -44 -141 -80 -145 -80 -5 0 -9 -4 -9 -8 0 -4 -13 -15 -28 -24 -44 -26
-201 -145 -270 -206 -35 -30 -65 -52 -67 -50 -12 11 249 227 384 317 313 211
801 420 1331 572 230 65 729 183 739 174 6 -7 -8 -11 -269 -70 -135 -30 -268
-62 -297 -71 l-51 -15 -6 -102 c-13 -230 -36 -788 -36 -864 0 -46 4 -83 9 -83
16 0 21 29 21 113 -1 109 29 763 38 852 l7 70 150 37 c83 21 212 51 289 67
l139 29 -7 -61 c-14 -146 -50 -864 -44 -897 2 -14 7 18 11 70 4 52 19 259 34
460 15 201 27 389 27 417 0 39 4 54 16 58 37 12 401 76 570 100 102 15 192 31
200 36 31 18 -97 8 -285 -21 -914 -141 -1671 -354 -2222 -626 -445 -220 -840
-556 -1002 -854 -44 -80 -51 -83 -24 -10 66 182 382 501 723 730 381 257 963
492 1585 640 263 63 909 193 1065 214 19 3 71 11 115 19 44 8 110 18 148 22
37 4 67 12 67 18 0 11 -90 4 -224 -19 l-89 -15 -28 27 c-16 15 -29 22 -29 16
0 -7 9 -17 20 -24 27 -17 25 -28 -4 -28 -39 0 -648 -116 -887 -169 -749 -168
-1331 -391 -1754 -674 -185 -124 -404 -304 -518 -427 -33 -36 -52 -51 -42 -35
63 103 278 323 421 432 367 279 949 553 1520 718 88 25 167 48 177 51 12 4 17
0 18 -13 0 -16 1 -15 9 3 7 17 39 27 212 67 296 67 278 65 280 31 1 -16 1 -39
0 -52 0 -13 3 -20 10 -16 6 4 7 23 3 49 -3 24 -2 46 3 49 11 7 392 71 480 81
53 6 62 5 62 -9 0 -9 5 -16 11 -16 6 0 8 7 5 15 -3 9 0 18 7 20 13 5 232 21
317 24 l55 1 55 -70z m-2077 -159 c-4 -4 -75 -34 -158 -66 -306 -121 -605
-284 -837 -457 -358 -267 -694 -660 -771 -903 l-22 -70 -3 56 c-5 95 34 176
166 342 109 137 203 238 396 420 291 276 445 394 701 537 115 65 339 170 480
227 l50 20 3 -50 c2 -27 0 -53 -5 -56z m47 -68 c11 -26 17 -49 13 -53 -5 -4
-55 -24 -113 -45 -152 -55 -360 -145 -518 -224 -371 -186 -631 -368 -845 -590
-120 -126 -204 -245 -283 -403 -30 -59 -56 -108 -59 -108 -8 0 32 105 65 169
89 177 288 424 477 594 302 271 645 474 1103 653 74 29 136 53 137 54 1 0 11
-21 23 -47z m-441 -712 c11 -11 27 -34 36 -50 14 -28 14 -31 0 -31 -18 0 -57
-80 -82 -171 -13 -48 -14 -63 -4 -82 9 -18 10 -34 2 -63 -5 -21 -13 -113 -17
-204 l-6 -166 -62 -21 c-33 -12 -69 -25 -78 -28 -15 -6 -16 13 -15 238 l2 245
25 29 c14 15 21 25 17 22 -5 -4 -19 3 -33 16 -29 27 -27 50 17 135 35 68 54
92 98 125 42 30 74 32 100 6z m-378 -118 l-3 -118 -15 43 c-20 57 -51 78 -96
63 -19 -7 -43 -22 -55 -34 -30 -32 -69 -122 -83 -194 -11 -55 -11 -64 4 -81
16 -18 16 -20 -8 -42 l-25 -23 0 171 0 171 73 44 c77 48 199 117 207 117 3 0
3 -53 1 -117z m-51 -73 c25 -50 25 -91 0 -120 -23 -26 -25 -41 -9 -57 7 -7 7
-63 0 -194 -15 -248 -16 -254 -57 -278 -19 -11 -34 -26 -34 -34 0 -15 -78 -62
-87 -53 -4 3 -8 97 -11 208 l-4 203 26 24 c30 28 34 56 9 70 -16 8 -16 15 -5
67 17 83 58 162 96 185 44 27 53 24 76 -21z m483 -81 c3 -27 3 -127 0 -224 -5
-149 -9 -178 -22 -182 -27 -10 -51 -35 -51 -54 0 -10 -5 -21 -11 -25 -17 -10
-2 311 18 364 13 38 13 45 0 65 -13 20 -12 29 5 87 l20 64 18 -24 c10 -13 20
-45 23 -71z m-791 -39 c-3 -52 -7 -88 -10 -80 -8 27 -45 60 -67 60 -47 0 -107
-72 -130 -158 l-13 -47 -1 77 -1 76 112 86 c62 47 113 84 114 83 1 -1 -1 -45
-4 -97z m4018 49 c10 -12 22 -19 27 -16 16 10 23 -28 23 -116 l0 -79 -87 7
c-152 11 -143 5 -145 88 -1 40 -3 86 -3 102 -1 17 0 34 3 39 3 5 41 6 85 3 68
-4 83 -9 97 -28z m2024 -47 c82 -12 211 -33 287 -48 l139 -26 0 -70 c0 -44 11
-110 30 -185 16 -63 28 -118 25 -122 -6 -11 13 -140 27 -177 10 -27 8 -37 -12
-69 -20 -32 -21 -41 -12 -73 6 -21 14 -94 18 -164 4 -71 11 -128 15 -128 5 0
9 12 9 28 l0 27 20 -33 c11 -18 18 -38 14 -43 -14 -24 -13 -70 5 -149 23 -99
26 -90 9 26 -9 64 -9 89 0 109 11 23 9 30 -8 52 -17 21 -20 41 -20 114 0 48
-7 118 -16 155 -14 62 -14 70 2 115 17 47 17 50 -4 111 -16 44 -25 106 -33
208 -5 80 -12 171 -15 204 l-6 58 44 -7 c211 -34 864 -205 906 -238 17 -14 15
-54 -4 -65 -13 -7 -15 -17 -10 -43 4 -19 11 -99 16 -179 4 -80 13 -180 19
-222 6 -43 15 -137 21 -210 12 -153 30 -272 40 -261 4 4 4 60 -1 123 -5 63
-13 180 -18 260 -5 80 -16 199 -25 265 -22 180 -26 243 -13 248 6 2 11 20 10
41 -1 24 3 36 10 33 7 -2 69 -21 138 -42 l127 -38 26 -77 c31 -92 32 -112 9
-108 -16 3 -18 -7 -16 -112 1 -70 10 -155 22 -217 12 -55 21 -127 21 -158 0
-31 7 -71 14 -88 8 -18 17 -45 19 -62 4 -28 4 -28 6 5 0 20 -4 41 -10 47 -6 6
-13 51 -15 99 -3 49 -11 116 -19 149 -21 88 -26 133 -29 233 -2 80 -1 91 15
95 10 3 20 0 22 -7 2 -6 7 27 11 72 4 46 5 86 2 90 -3 3 -6 -10 -6 -29 0 -62
-16 -64 -35 -4 -19 63 -15 81 10 38 9 -15 14 -20 11 -10 -3 11 0 17 9 17 42 0
410 -164 434 -194 6 -8 16 -56 21 -107 l9 -94 -3 93 -4 93 27 -17 c62 -40 191
-147 247 -206 34 -34 77 -92 96 -128 30 -58 36 -82 52 -210 9 -80 21 -176 27
-215 11 -88 82 -779 109 -1063 11 -117 27 -239 35 -272 8 -32 15 -72 15 -89 0
-30 -13 -41 -25 -21 -3 6 -11 10 -17 10 -6 0 1 -9 16 -21 l26 -20 1 -177 c0
-97 4 -226 9 -287 18 -214 23 -342 14 -347 -5 -3 -21 -8 -35 -12 l-27 -6 -7
143 c-9 206 -3 459 11 428 15 -33 27 -11 18 33 -8 43 -29 65 -47 47 -9 -9 -11
-93 -9 -335 l3 -324 -37 -7 c-26 -4 -39 -3 -45 7 -5 7 -9 101 -9 208 -1 255
-14 428 -34 449 -12 11 -19 12 -27 4 -24 -24 -30 -116 -23 -399 l7 -291 -58
-7 c-32 -3 -60 -5 -62 -2 -9 8 -10 517 -1 522 11 7 10 92 -3 137 -5 21 -23 52
-38 70 -28 30 -29 31 -54 14 -17 -11 -32 -35 -42 -69 -19 -65 -19 -82 1 -119
13 -25 13 -33 2 -46 -10 -12 -14 -78 -15 -272 l-3 -256 -44 -3 -43 -3 -7 193
c-8 209 -29 446 -46 508 -19 70 -62 88 -78 31 -10 -36 -5 -532 7 -649 8 -75 7
-100 -2 -109 -7 -7 -41 -16 -75 -19 l-62 -7 0 279 c-1 368 -17 485 -75 548
-52 57 -111 24 -136 -77 -16 -61 -18 -356 -5 -609 l8 -166 -23 -4 c-20 -2 -25
-10 -27 -40 -4 -48 -20 -60 -79 -56 l-48 3 -2 240 c-5 521 -15 615 -71 718
-35 65 -71 92 -123 91 -46 -2 -72 -22 -100 -76 -34 -66 -41 -168 -28 -390 6
-112 15 -277 19 -368 5 -91 11 -180 15 -198 l7 -32 -76 0 -76 0 0 28 c-1 138
-23 696 -30 763 -20 179 -69 268 -154 284 -79 15 -126 -45 -145 -190 -16 -118
-23 -832 -8 -856 6 -10 9 -20 7 -22 -3 -3 -105 -8 -227 -12 l-223 -7 -1 68
c-3 156 -3 310 0 497 2 173 1 201 -14 217 -10 11 -12 20 -6 24 5 4 13 31 16
61 6 48 4 62 -20 111 -34 70 -84 120 -149 150 -110 49 -198 40 -271 -27 -51
-47 -85 -121 -85 -186 -1 -26 -1 -77 -1 -113 0 -63 16 -509 26 -717 l5 -102
-43 -5 c-23 -3 -84 -8 -136 -11 -83 -6 -93 -5 -88 9 8 20 -11 605 -22 703 -5
39 -15 84 -23 100 -12 23 -12 32 0 53 31 58 -19 192 -96 261 -102 89 -287 108
-376 38 -15 -12 -29 -20 -31 -18 -2 2 1 51 5 109 5 58 9 137 10 176 0 62 3 73
25 94 14 13 25 33 25 46 0 12 -11 29 -25 38 -22 15 -25 23 -25 82 0 56 3 68
25 88 34 31 32 55 -5 67 -37 13 -38 26 -5 39 34 13 33 47 -1 60 -14 6 -43 10
-65 10 l-39 0 0 99 c0 55 4 102 9 106 19 11 415 17 459 7 74 -17 76 -10 68
208 -11 313 -34 414 -117 505 -29 31 -73 65 -104 81 -48 23 -64 26 -129 22
-64 -3 -81 -8 -118 -34 -58 -41 -114 -124 -140 -208 -16 -54 -18 -73 -9 -88 9
-14 8 -26 -5 -56 -12 -27 -17 -74 -19 -180 -1 -78 -5 -145 -8 -148 -3 -3 -30
-3 -60 1 l-55 7 -6 57 c-18 160 -18 209 -2 257 9 26 15 70 15 98 l-2 51 -7
-65 c-4 -36 -13 -80 -20 -99 -12 -32 -10 -143 6 -262 6 -44 5 -47 -20 -53 -14
-3 -26 -13 -26 -22 0 -11 -5 -14 -16 -10 -9 3 -27 6 -40 6 l-24 0 0 173 c0
155 -2 174 -20 197 -25 33 -25 43 1 35 21 -7 22 -5 17 42 -9 93 -78 196 -160
239 -45 24 -115 23 -163 -2 -47 -25 -98 -85 -93 -110 3 -15 8 -12 28 18 33 48
95 88 139 88 92 0 187 -91 222 -213 7 -24 5 -29 -18 -38 -23 -8 -30 -6 -47 14
-47 54 -109 72 -140 41 -9 -8 -16 -18 -16 -22 0 -3 5 -1 12 6 17 17 75 15 109
-5 15 -9 34 -30 40 -46 7 -16 25 -41 41 -57 l28 -28 0 -167 c0 -127 -3 -166
-12 -163 -18 6 -26 43 -27 120 -4 251 -125 368 -256 247 l-42 -39 -33 108
c-18 59 -57 177 -85 263 l-53 156 -3 166 c-2 92 -2 167 1 167 3 0 6 18 7 40 0
22 9 53 19 68 12 18 19 53 22 105 3 42 9 80 14 83 5 4 43 3 85 -1 l75 -7 -6
-36 c-5 -27 -4 -33 3 -22 6 8 11 25 11 38 l0 22 533 0 c293 -1 557 2 587 6
l55 6 -6 105 c-4 58 -12 110 -18 116 -12 12 -123 18 -177 10 -30 -5 -34 -11
-70 -109 -36 -97 -41 -104 -66 -104 -28 0 -28 0 -23 58 2 31 7 97 10 147 5 90
12 105 48 105 13 0 17 -8 17 -36 0 -23 4 -33 11 -28 6 3 9 19 7 35 -4 22 0 29
16 33 12 2 147 3 301 1 213 -2 316 -8 429 -23z m-6095 -66 c7 -8 16 -29 21
-47 8 -26 6 -39 -10 -67 -18 -29 -19 -39 -9 -66 9 -24 9 -81 2 -221 -9 -187
-10 -188 -36 -207 -18 -13 -27 -29 -27 -48 0 -23 -7 -31 -42 -46 -24 -10 -46
-20 -49 -22 -4 -1 -7 87 -8 196 -2 186 -1 200 19 224 22 29 26 53 9 64 -17 10
-5 103 21 161 36 81 80 114 109 79z m5095 -44 c2 -4 8 -47 12 -95 l7 -87 -177
0 -176 0 0 59 c0 70 1 71 138 71 75 0 92 -3 92 -15 0 -8 5 -15 10 -15 6 0 10
9 10 19 0 44 18 71 49 71 16 0 32 -4 35 -8z m488 -92 l3 -99 -80 6 c-44 3 -81
6 -81 7 -1 1 -5 43 -8 94 l-8 92 86 0 85 0 3 -100z m-1504 14 c66 -10 47 -29
-24 -23 -32 2 -246 4 -474 3 -428 -1 -550 -8 -925 -55 -769 -96 -1552 -272
-2161 -488 -169 -59 -252 -84 -239 -72 11 10 293 111 460 164 582 186 1322
341 2050 428 175 21 189 22 510 44 187 13 711 12 803 -1z m-5 -51 c56 -5 58
-7 105 -67 39 -49 50 -72 55 -111 4 -34 1 -56 -8 -68 -7 -11 -17 -37 -20 -59
l-7 -40 -25 24 c-49 46 -60 77 -57 161 1 42 -2 77 -6 77 -5 0 -8 -28 -8 -62 1
-35 -2 -72 -5 -84 -6 -16 4 -33 43 -75 34 -36 50 -63 50 -81 0 -14 3 -35 6
-45 6 -16 5 -16 -15 2 -12 12 -23 31 -26 44 -5 27 -15 41 -15 21 0 -9 -10 -5
-27 11 -18 16 -15 9 10 -21 21 -25 43 -51 48 -58 6 -7 8 -20 5 -29 -4 -10 -2
-14 7 -10 12 4 12 -3 5 -39 -5 -24 -8 -81 -6 -127 3 -91 2 -92 -50 -59 -12 8
-25 12 -28 9 -3 -3 16 -17 43 -30 l49 -25 87 -269 c87 -270 140 -460 152 -543
l7 -45 186 2 c231 2 219 1 226 19 4 11 31 14 131 14 l125 0 -16 -25 c-9 -14
-26 -25 -39 -25 -12 0 -29 -8 -36 -17 -11 -15 -11 -16 1 -5 8 6 23 12 35 12
20 0 21 -4 17 -67 -3 -38 -9 -70 -14 -72 -7 -2 -7 -6 -1 -10 6 -3 13 -26 17
-50 l7 -44 -38 6 c-21 4 -189 11 -373 18 -1117 38 -3022 -70 -4204 -237 -46
-7 -48 -6 -38 13 8 15 19 19 39 16 l28 -3 -25 10 c-22 10 -28 8 -51 -18 -21
-24 -37 -31 -82 -35 -31 -4 -61 -8 -68 -9 -10 -2 -13 15 -14 64 0 36 -3 64 -7
62 -4 -3 -7 -32 -6 -64 1 -33 0 -62 -3 -64 -3 -3 -79 -17 -169 -31 -217 -34
-461 -79 -637 -117 -144 -31 -186 -31 -197 -2 -18 47 7 61 164 90 47 8 113 22
147 30 34 8 80 14 103 14 43 0 490 86 499 96 3 4 -7 4 -24 0 -219 -45 -408
-77 -462 -81 -38 -2 -90 -11 -118 -19 -27 -9 -66 -16 -85 -16 -19 0 -72 -9
-118 -20 -46 -11 -85 -20 -86 -20 -2 0 -6 14 -10 31 -6 32 11 75 38 98 23 19
20 41 -10 72 -14 15 -29 43 -34 62 -7 33 -5 38 26 59 19 13 34 28 34 33 0 6 9
16 19 22 11 7 22 26 26 44 4 18 19 42 33 54 28 24 25 55 -6 55 -20 0 -62 68
-62 102 0 10 -5 28 -10 39 -8 14 -6 27 5 50 11 20 14 41 10 61 -6 23 -2 35 17
55 106 114 547 302 1028 438 773 218 1764 392 2565 449 317 23 551 36 746 42
l227 7 6 -30 c4 -16 2 -142 -4 -279 -6 -137 -7 -339 -4 -449 4 -110 3 -248 -1
-307 -6 -95 -9 -108 -25 -108 -21 0 -30 -20 -29 -63 1 -30 2 -29 11 11 7 31
14 42 28 42 27 0 30 46 31 495 1 644 2 679 19 687 8 4 40 7 70 8 121 5 116 16
-10 24 -238 15 -1143 -43 -1650 -105 -943 -115 -2053 -376 -2605 -613 -71 -30
-131 -54 -132 -52 -7 6 247 121 401 181 338 132 728 247 1116 329 779 165
1811 286 2817 332 100 4 150 10 146 17 -16 26 -1066 -49 -1658 -119 -1041
-123 -1763 -279 -2395 -519 -296 -112 -489 -209 -636 -321 l-83 -62 1 51 c1
65 16 79 153 136 55 23 116 53 136 66 20 13 54 31 75 40 50 21 89 56 72 66
-16 10 21 41 96 80 32 17 56 33 53 36 -9 9 -123 -57 -153 -88 -15 -16 -22 -29
-16 -29 28 0 8 -20 -50 -50 -152 -80 -216 -111 -258 -127 -25 -9 -59 -27 -76
-39 l-32 -23 -5 25 c-3 20 4 31 37 58 200 163 702 409 1146 562 239 82 772
213 1195 293 553 105 947 159 1395 193 197 14 864 15 970 1 78 -11 99 -8 81
10 -6 6 -90 15 -193 21 -188 10 -768 -4 -1023 -24 -310 -25 -707 -79 -1073
-146 -135 -24 -250 -43 -256 -41 -13 4 315 69 539 107 512 84 885 124 1380
144 105 4 494 -3 568 -11z m-4309 -138 c0 -82 -18 -141 -34 -114 -5 7 -6 17
-4 21 3 4 0 8 -5 8 -13 0 -14 -22 -2 -35 16 -19 20 -70 6 -95 -8 -14 -14 -45
-13 -70 l1 -45 7 50 c18 133 40 101 40 -61 0 -133 2 -130 -73 -172 l-38 -22 7
158 c4 86 11 165 16 175 5 10 5 24 -2 36 -5 11 -10 36 -10 55 0 46 43 182 66
207 17 19 18 19 28 2 6 -10 10 -54 10 -98z m291 -543 c-6 -5 -48 -26 -95 -48
-211 -96 -480 -250 -606 -345 -89 -67 -80 -44 10 29 137 110 433 275 615 343
85 31 89 32 76 21z m5389 -196 c72 -49 112 -104 136 -186 24 -80 40 -244 40
-412 l0 -128 -110 0 -110 0 0 43 c0 68 -19 208 -36 259 -41 126 -141 183 -262
149 -28 -8 -32 -7 -32 8 0 10 9 30 20 44 17 21 31 27 73 30 l52 3 -53 2 c-49
2 -57 -1 -83 -29 -16 -18 -32 -30 -34 -27 -8 7 33 117 60 164 51 87 119 126
217 121 58 -2 73 -7 122 -41z m-222 -301 c77 -12 131 -115 143 -275 3 -41 8
-92 11 -112 l4 -38 -82 -1 c-46 0 -104 -4 -130 -8 -53 -9 -56 -6 -31 21 28 31
6 52 -56 56 l-51 3 0 153 c0 149 1 153 24 175 26 24 77 41 111 35 11 -1 37 -6
57 -9z m-637 -28 c18 -18 38 -51 44 -72 16 -53 31 -212 24 -245 -5 -25 -10
-28 -65 -34 -112 -11 -128 -9 -128 18 0 13 -14 79 -31 146 -35 139 -33 150 30
194 49 36 85 34 126 -7z m-595 -668 c0 -8 4 -8 13 -1 6 6 55 11 107 11 157 1
909 -18 987 -25 63 -6 71 -9 63 -23 -7 -14 -20 -16 -97 -10 -234 19 -828 31
-1263 25 -1479 -21 -2535 -100 -3689 -277 -145 -22 -265 -38 -267 -36 -14 14
812 131 1316 187 771 85 1735 141 2630 153 91 2 173 4 183 5 9 1 17 -3 17 -9z
m970 -69 c177 -10 240 -21 240 -42 0 -6 -16 -7 -37 -4 -162 26 -1187 50 -1768
42 -655 -9 -1021 -25 -1598 -67 -152 -11 -285 -18 -295 -16 -9 3 -3 5 13 6 17
0 113 8 215 16 753 60 1528 86 2465 80 319 -2 663 -9 765 -15z m-360 -39 c96
-4 -167 -5 -585 -3 -778 5 -1362 -6 -1923 -34 -172 -8 -318 -14 -325 -11 -21
7 760 49 1138 61 158 5 1487 -5 1695 -13z m105 -41 c220 -5 414 -12 430 -15
29 -5 30 -7 31 -64 1 -32 4 -69 7 -83 l7 -25 -68 13 c-88 16 -330 40 -567 56
-251 17 -1404 17 -1740 0 -733 -37 -1245 -79 -1990 -163 -725 -82 -1125 -141
-1375 -203 -74 -18 -138 -31 -142 -29 -5 2 -8 19 -8 37 0 18 -6 41 -14 51 -12
17 -11 21 10 38 13 10 24 24 24 30 0 12 132 38 605 118 711 120 1817 216 2815
242 278 8 1629 6 1975 -3z m-605 -130 c386 -11 604 -23 825 -46 206 -21 244
-35 80 -28 -71 3 -242 9 -380 15 -631 24 -2120 21 -2550 -6 -65 -4 -66 -4 -20
4 97 18 885 58 1250 64 357 6 473 6 795 -3z m430 -80 c261 -6 517 -13 569 -16
92 -6 93 -6 74 -25 -18 -18 -27 -19 -163 -9 -860 59 -2183 64 -3065 10 -835
-52 -1518 -130 -2300 -266 -365 -62 -355 -60 -355 -80 0 -10 6 -13 18 -10 72
23 1147 196 1214 196 10 0 18 -7 18 -15 0 -9 12 -18 30 -21 l30 -6 1 -77 c0
-42 5 -98 9 -126 8 -42 8 -38 5 29 -3 43 -5 103 -5 133 0 52 -1 54 -30 60 -56
11 -24 28 76 40 617 78 1745 153 2297 153 l107 0 0 -25 c0 -18 -7 -26 -25 -31
-14 -3 -25 -10 -25 -14 0 -5 12 -5 28 -1 21 6 28 14 30 39 l3 32 354 0 c384 0
365 3 365 -55 0 -23 34 -45 48 -31 3 4 -4 9 -16 13 -17 4 -22 13 -22 39 0 30
3 34 25 34 27 0 26 4 27 -145 l0 -60 8 50 c5 28 9 74 9 102 l1 52 93 -4 c50
-3 261 -10 467 -15 206 -6 385 -13 398 -16 14 -3 22 -12 22 -24 0 -15 6 -20
28 -19 23 2 24 2 5 6 -13 2 -23 11 -23 19 0 10 14 14 58 14 71 -1 242 -17 249
-24 3 -3 -2 -105 -11 -228 -27 -371 -48 -904 -43 -1052 5 -122 9 -144 27 -169
12 -16 20 -29 18 -30 -1 -1 -75 -1 -163 1 l-160 3 -1 97 c-4 269 -26 737 -36
756 -6 11 -17 25 -24 29 -16 9 -19 43 -4 52 17 11 11 121 -10 177 -53 142
-235 225 -393 179 -99 -29 -211 -166 -227 -278 -7 -53 -6 -61 17 -91 24 -32
24 -34 9 -73 -9 -22 -16 -47 -16 -56 0 -9 -8 -25 -17 -35 -12 -13 -14 -21 -6
-29 8 -8 10 -58 6 -158 -8 -199 13 -511 35 -528 8 -7 14 -14 11 -16 -2 -2
-101 -1 -220 1 l-216 4 3 182 c2 99 7 258 10 351 8 225 5 292 -12 334 -13 32
-13 35 6 48 62 43 -36 270 -145 338 -43 27 -57 30 -129 30 -110 0 -183 -33
-265 -121 -66 -70 -94 -136 -89 -205 3 -38 12 -51 46 -65 1 -1 -3 -13 -9 -28
-10 -21 -10 -76 0 -259 14 -253 29 -601 27 -604 -1 -1 -104 1 -228 4 l-226 6
13 21 c17 26 32 822 16 845 -7 11 -5 18 5 26 13 9 13 19 0 82 -18 88 -60 176
-105 221 -157 158 -398 42 -452 -216 -8 -41 -8 -61 1 -83 10 -23 10 -35 -1
-61 -11 -26 -14 -115 -14 -423 l0 -391 -65 4 c-70 3 -538 35 -785 52 -82 6
-165 13 -184 16 l-33 5 6 51 c4 28 9 83 12 122 2 39 9 140 14 224 16 243 14
302 -11 328 -20 21 -20 23 -4 48 14 21 17 41 13 99 -11 162 -123 286 -232 256
-74 -20 -149 -145 -181 -301 -16 -74 -10 -98 22 -98 11 0 14 -7 10 -27 -3 -16
-8 -138 -11 -273 -3 -135 -8 -283 -12 -328 l-7 -84 -41 6 c-23 3 -123 8 -223
12 -101 4 -183 9 -183 13 0 3 14 150 30 326 17 176 30 328 30 337 0 10 6 18
13 18 9 0 12 -34 11 -137 0 -119 0 -122 3 -23 4 162 3 160 61 160 84 0 87 -6
87 -177 -1 -81 -7 -223 -14 -316 -13 -152 -12 -191 5 -175 12 12 36 320 37
473 1 132 -1 167 -16 199 -21 47 -22 56 -3 30 14 -18 15 -18 22 10 11 47 -2
180 -24 228 -11 25 -36 58 -56 73 -30 23 -43 27 -77 22 -94 -12 -170 -126
-173 -257 0 -39 -4 -70 -8 -70 -5 0 -8 -7 -8 -15 0 -12 9 -13 44 -9 78 11 76
35 39 -352 -17 -192 -32 -349 -33 -349 0 0 -73 3 -162 6 -213 8 -201 -7 -196
226 2 95 0 173 -4 173 -10 0 -10 -5 -8 -197 1 -90 -3 -154 -9 -157 -5 -4 -12
-3 -15 2 -11 18 -18 567 -8 594 11 27 12 27 97 26 l87 -2 -7 -80 c-3 -45 -17
-188 -31 -320 -14 -131 -23 -241 -19 -244 3 -3 9 -1 14 4 10 10 43 309 66 584
29 353 18 410 -75 410 -73 0 -129 -104 -136 -254 -2 -43 -8 -84 -14 -91 -8
-10 -10 -105 -8 -314 2 -166 0 -301 -3 -301 -15 0 -37 49 -32 69 3 13 0 27 -9
34 -9 7 -18 29 -21 50 -7 45 -22 67 -47 67 -25 0 -43 -26 -38 -55 4 -18 1 -25
-10 -25 -12 0 -14 11 -9 63 18 202 40 691 31 724 -10 41 -34 54 -60 32 -46
-38 -97 -202 -93 -303 1 -28 -4 -67 -10 -86 -15 -47 -25 -369 -14 -457 8 -65
7 -73 -7 -73 -9 0 -25 -7 -36 -15 -28 -21 -53 -18 -64 9 -5 13 -14 27 -20 31
-5 3 -8 10 -5 14 12 21 75 646 75 750 0 23 -8 48 -18 61 l-19 23 -21 -21 c-15
-15 -22 -33 -21 -59 l1 -38 15 38 c9 20 20 37 26 37 17 0 -3 -312 -44 -673 -8
-70 -16 -106 -23 -104 -6 2 -12 14 -14 28 -7 65 -23 98 -59 119 -23 13 -45 19
-59 16 -26 -7 -50 24 -40 50 3 8 -1 17 -9 20 -23 9 -18 34 10 56 31 24 34 68
5 75 -13 3 -22 17 -26 39 -8 43 0 64 25 64 11 0 23 6 28 13 12 18 3 120 -12
137 -10 11 -11 20 -4 33 6 9 7 22 4 28 -4 5 -2 15 3 22 16 21 21 57 11 90 -5
18 -7 44 -3 59 5 24 8 26 24 18 14 -8 29 -5 57 9 58 30 522 114 1058 191 642
93 1179 134 2105 163 255 8 1652 6 2060 -3z m-1133 -309 c-32 -16 -68 -38 -80
-49 -12 -11 -39 -27 -59 -35 -27 -11 -42 -26 -53 -53 -17 -42 -20 -84 -5 -84
6 0 10 11 10 24 0 62 11 84 54 102 22 10 56 31 74 46 47 40 56 35 14 -9 -42
-45 -89 -140 -98 -200 -5 -36 -10 -43 -29 -43 -13 0 -30 -3 -38 -6 -29 -11
-45 21 -36 71 20 106 104 200 216 242 82 31 99 27 30 -6z m-832 4 c24 -11 26
-14 10 -14 -12 -1 -37 -9 -58 -20 -20 -10 -34 -14 -30 -7 12 18 -94 -73 -122
-105 -14 -17 -25 -41 -25 -54 0 -12 -7 -28 -16 -36 -21 -17 -46 -68 -41 -82 2
-7 9 4 16 24 6 20 21 45 31 54 11 10 20 28 20 39 0 13 20 41 47 66 36 35 42
38 26 15 -34 -50 -71 -130 -84 -179 -11 -46 -12 -47 -43 -40 -73 15 -79 32
-48 132 52 164 200 261 317 207z m2026 -20 c96 -49 144 -117 158 -220 6 -46 5
-55 -6 -50 -8 3 -140 5 -294 5 l-279 0 0 28 c1 63 78 180 150 228 66 44 194
48 271 9z m-981 -13 c42 -20 92 -99 119 -187 14 -44 16 -62 7 -67 -6 -4 -112
-8 -235 -8 l-224 0 7 42 c9 54 58 147 100 187 62 61 143 72 226 33z m-2688 -9
c-14 -6 -42 -56 -41 -75 0 -7 6 -2 12 13 33 72 69 92 122 67 31 -14 31 -20 3
-33 -13 -6 -37 -39 -57 -77 -28 -56 -35 -82 -39 -148 l-5 -80 -47 0 c-50 0
-66 14 -49 41 5 8 9 25 8 39 0 20 -3 17 -14 -15 -8 -22 -13 -46 -10 -52 5 -15
3 -15 -19 -7 -9 3 -16 14 -16 23 0 33 31 137 60 199 29 62 86 129 99 116 3 -4
0 -9 -7 -11z m1756 -63 c41 -68 74 -172 59 -182 -6 -4 -91 -7 -190 -7 l-178
-1 7 23 c11 36 50 109 82 153 37 51 84 75 142 72 43 -3 46 -5 78 -58z m-2257
8 l1 -43 8 38 c9 48 12 50 38 31 37 -25 63 -90 69 -169 5 -68 5 -72 -17 -78
-18 -5 -22 -11 -18 -34 l4 -28 -60 3 c-33 2 -66 10 -73 18 -8 8 -32 14 -52 14
-22 0 -44 6 -51 15 -24 29 12 169 58 224 l27 33 -1 -94 -2 -93 7 80 c7 85 22
125 46 125 11 0 15 -12 16 -42z m676 -43 c21 -39 27 -65 27 -117 1 -37 -2 -68
-6 -68 -5 0 -45 0 -89 0 l-82 0 5 48 c5 55 44 145 79 183 27 29 27 29 66 -46z
m-1446 6 c-24 -31 -29 -48 -34 -119 -7 -106 2 -99 14 10 7 63 15 88 31 103
l20 20 -6 -130 c-4 -71 -11 -249 -16 -394 -10 -285 -14 -303 -64 -294 -13 3
-27 0 -30 -6 -4 -6 -10 -11 -14 -11 -4 0 -5 107 -2 238 5 218 8 242 28 282 16
33 19 47 10 57 -14 17 -5 118 16 188 21 69 55 123 66 105 6 -9 -1 -26 -19 -49z
m5857 18 c83 -40 136 -111 157 -207 l7 -33 -174 1 c-95 1 -179 0 -185 -2 -8
-2 -33 41 -62 104 l-49 107 22 19 c65 58 176 63 284 11z m-5459 14 c7 -13 6
-23 -3 -33 -21 -26 -34 -82 -41 -172 -7 -84 -8 -88 -31 -88 -24 0 -24 1 -26
113 l-2 112 -3 -107 c-3 -94 -6 -108 -21 -108 -32 0 -42 33 -31 102 14 89 36
153 62 174 12 11 17 12 11 4 -15 -20 -25 -62 -13 -54 5 3 9 10 9 16 0 19 42
58 61 58 10 0 22 -8 28 -17z m6234 -19 c90 -31 177 -135 177 -212 l0 -32 -152
0 -153 0 -23 41 c-24 42 -74 79 -106 79 -15 0 -16 3 -6 15 18 22 162 21 184
-1 9 -8 16 -21 16 -28 0 -7 10 -21 23 -32 22 -19 22 -19 5 2 -10 11 -18 28
-18 37 0 10 -15 26 -32 38 -27 16 -46 19 -100 17 l-68 -4 33 34 c59 62 129 77
220 46z m-1005 -271 c65 -161 332 -866 332 -877 0 -3 -89 -6 -197 -5 l-198 0
-30 36 c-27 33 -30 45 -36 132 -5 90 12 676 27 860 l6 84 18 -41 c10 -22 45
-107 78 -189z m1839 210 c83 -39 108 -172 122 -659 6 -187 13 -348 17 -357 5
-15 -1 -17 -44 -17 -28 0 -54 4 -57 10 -4 7 -14 528 -15 804 0 4 -8 6 -18 4
-14 -4 -23 7 -41 54 -12 32 -36 71 -52 88 -29 28 -29 30 -14 54 15 22 30 31
58 35 5 0 25 -7 44 -16z m474 -34 c16 -17 37 -59 48 -95 37 -119 44 -220 38
-553 -3 -172 -7 -315 -9 -316 -2 -2 -24 -6 -51 -10 l-48 -7 1 376 c1 206 -1
380 -5 386 -3 5 -40 10 -81 10 l-75 0 6 58 c4 31 11 73 16 93 22 89 104 118
160 58z m413 -58 c9 -10 26 -45 38 -77 21 -55 22 -80 26 -396 l4 -338 -31 0
-30 0 0 297 c1 163 5 307 10 321 9 23 4 31 -38 74 -26 26 -53 48 -61 48 -9 0
-11 7 -7 23 20 64 56 84 89 48z m552 -43 c20 -40 31 -143 15 -152 -6 -4 -11
-26 -11 -50 0 -23 -4 -46 -9 -51 -5 -6 -5 -43 0 -85 l8 -75 -3 78 c-2 42 1 77
6 77 4 0 8 -96 8 -214 0 -213 0 -214 -22 -220 -13 -3 -33 -6 -45 -6 -23 0 -23
1 -24 168 -2 241 1 313 17 345 13 24 13 32 -2 62 -17 36 -14 82 8 131 15 33
34 30 54 -8z m-3816 11 c0 -5 -7 -9 -15 -9 -13 0 -15 -18 -13 -107 1 -60 3
-85 5 -58 6 73 23 82 23 12 0 -44 3 -57 15 -57 8 0 16 6 16 13 6 55 17 -129
18 -303 3 -372 1 -430 -9 -430 -6 0 -10 42 -10 105 0 87 -3 105 -15 105 -12 0
-15 -18 -15 -100 0 -135 -19 -133 -22 3 l-2 102 -3 -97 c-5 -124 -23 -130 -23
-8 0 124 -19 118 -22 -7 l-2 -98 -3 98 c-3 79 -7 97 -19 97 -13 0 -15 -16 -13
-95 1 -53 -1 -99 -5 -102 -3 -3 -6 39 -6 95 0 61 -4 102 -10 102 -6 0 -10 -40
-10 -100 0 -60 -4 -100 -10 -100 -6 0 -10 40 -10 100 0 86 -2 100 -16 100 -15
0 -16 -12 -11 -100 3 -57 1 -100 -4 -100 -9 0 -12 33 -9 138 1 41 -2 62 -10
62 -9 0 -11 -27 -8 -95 2 -78 1 -92 -9 -78 -8 10 -13 48 -13 95 0 45 -4 78
-10 78 -6 0 -10 -38 -10 -95 0 -124 -18 -124 -22 0 -4 130 -22 128 -26 -2 -4
-134 -22 -136 -22 -3 0 60 -4 100 -10 100 -6 0 -10 -37 -10 -91 0 -57 -4 -88
-10 -84 -5 3 -10 44 -10 91 0 49 -4 84 -10 84 -6 0 -10 -38 -10 -95 0 -57 -4
-95 -10 -95 -6 0 -10 38 -10 95 0 57 -4 95 -10 95 -6 0 -10 -40 -10 -100 0
-60 -4 -100 -10 -100 -6 0 -10 40 -10 100 0 64 -4 100 -11 100 -7 0 -9 -32 -7
-95 2 -52 0 -95 -4 -95 -5 0 -8 43 -8 95 0 57 -4 95 -10 95 -6 0 -10 -38 -11
-92 0 -73 -2 -88 -10 -68 -6 14 -9 55 -7 93 2 37 0 67 -4 67 -5 0 -8 -43 -8
-95 0 -57 -4 -95 -10 -95 -6 0 -10 38 -10 94 0 66 -4 96 -12 100 -10 5 -10 7
0 12 9 4 12 64 12 250 0 188 -3 244 -12 245 -10 0 -10 2 0 6 8 3 12 27 12 69
0 36 4 64 10 64 6 0 10 -29 10 -66 0 -41 4 -63 10 -59 13 8 13 205 1 205 -5 0
-11 -6 -13 -12 -3 -9 -9 -8 -21 4 -9 9 -17 19 -17 23 0 3 128 5 285 5 168 -1
285 -5 285 -11z m3554 -99 c18 -114 34 -305 40 -492 l4 -136 -26 -5 c-15 -3
-28 -4 -29 -3 -6 6 -23 252 -29 432 -7 201 0 324 16 308 5 -5 16 -52 24 -104z
m-5585 93 c-1 -5 -1 -43 0 -85 1 -71 3 -78 21 -78 11 0 20 -4 20 -10 0 -5 -9
-10 -20 -10 -19 0 -20 -7 -20 -250 0 -216 2 -250 15 -250 8 0 15 -4 15 -10 0
-5 -7 -10 -15 -10 -12 0 -15 -16 -15 -86 0 -111 -19 -103 -22 9 l-2 82 -3 -67
c-5 -87 -23 -89 -23 -3 0 37 -4 65 -10 65 -6 0 -10 -33 -10 -80 0 -107 -19
-105 -22 3 l-2 82 -3 -72 c-2 -40 -8 -73 -13 -73 -5 0 -11 33 -13 73 l-3 72
-2 -87 c-3 -115 -22 -117 -22 -3 0 50 -4 85 -10 85 -6 0 -10 -35 -10 -85 0
-114 -19 -112 -22 3 l-2 87 -3 -88 c-2 -48 -8 -87 -13 -87 -6 0 -11 39 -12 88
l-2 87 -3 -88 c-5 -112 -23 -114 -23 -2 0 50 -4 85 -10 85 -6 0 -10 -35 -10
-84 0 -79 -1 -84 -20 -79 -18 5 -20 14 -20 84 0 46 -4 79 -10 79 -6 0 -10 -35
-10 -85 0 -50 -4 -85 -10 -85 -11 0 -12 58 -10 350 1 96 5 193 10 215 5 26 8
-34 9 -167 1 -134 5 -208 11 -208 7 0 10 106 10 311 -1 287 -3 313 -20 345
l-20 34 175 0 c96 0 174 -3 174 -7z m971 -3 c13 -8 12 -10 -2 -10 -16 0 -18
-11 -18 -95 0 -78 3 -95 15 -95 12 0 15 16 15 86 0 54 4 83 10 79 6 -3 10 -42
10 -85 0 -53 4 -80 13 -84 9 -5 9 -7 -1 -12 -10 -5 -13 -53 -12 -218 2 -379 0
-446 -10 -446 -6 0 -10 45 -10 115 0 96 -3 115 -15 115 -12 0 -15 -19 -15
-115 0 -70 -4 -115 -10 -115 -6 0 -10 45 -10 115 0 96 -3 115 -15 115 -12 0
-15 -19 -15 -110 0 -77 3 -110 12 -110 6 0 9 -2 6 -5 -3 -3 -12 -3 -21 1 -13
5 -17 26 -20 117 l-3 112 -2 -117 c-3 -156 -22 -159 -22 -3 0 96 -3 115 -15
115 -12 0 -15 -19 -15 -115 0 -156 -19 -153 -22 3 l-2 117 -3 -117 c-5 -154
-23 -156 -23 -3 0 70 -4 115 -10 115 -6 0 -10 -45 -10 -115 0 -156 -19 -153
-22 3 l-2 117 -3 -117 c-5 -154 -23 -156 -23 -3 0 70 -4 115 -10 115 -6 0 -10
-45 -10 -115 0 -70 -4 -115 -10 -115 -6 0 -10 45 -10 115 0 100 -2 115 -17
115 -14 0 -15 -12 -9 -115 4 -75 3 -115 -4 -115 -6 0 -11 47 -12 118 l-2 117
-3 -117 c-2 -67 -8 -118 -13 -118 -6 0 -10 49 -10 118 -1 304 1 736 4 739 2 2
11 1 20 -3 13 -5 16 -21 16 -90 0 -68 3 -84 15 -84 12 0 15 16 15 84 0 47 5
88 10 91 6 4 10 -27 10 -84 0 -54 4 -91 10 -91 6 0 11 38 11 93 l2 92 9 -70
c5 -38 7 -80 5 -92 -2 -13 0 -23 4 -23 5 0 9 30 9 68 0 37 5 74 10 82 7 10 10
-11 10 -67 0 -49 4 -83 10 -83 6 0 10 38 10 95 l0 95 -95 0 c-57 0 -95 4 -95
10 0 13 370 13 390 0z m-2590 -30 c0 -5 -11 -10 -25 -10 -25 0 -25 -1 -25 -80
0 -47 4 -80 10 -80 6 0 10 30 10 69 0 39 5 73 10 76 6 4 10 -22 10 -69 0 -44
4 -76 10 -76 6 0 10 23 10 50 0 28 4 50 9 50 4 0 6 -22 3 -50 -2 -27 0 -50 4
-50 5 0 8 18 6 40 -3 25 0 40 7 40 7 0 11 -36 11 -110 0 -116 -16 -153 -23
-52 -2 31 -2 -19 0 -113 2 -93 0 -201 -5 -240 -5 -38 -10 -60 -11 -47 0 12 -5
22 -11 22 -6 0 -10 -30 -10 -70 0 -40 -4 -70 -10 -70 -6 0 -10 30 -10 70 0 40
-4 70 -10 70 -6 0 -10 -30 -10 -70 0 -93 -19 -91 -22 3 l-2 72 -3 -67 c-5 -87
-23 -89 -23 -3 0 87 -19 84 -22 -2 l-2 -68 -3 68 c-3 54 -7 67 -21 68 -16 1
-15 2 1 6 15 4 17 23 17 219 0 207 -1 214 -20 214 -11 0 -20 5 -20 10 0 6 9
10 20 10 18 0 20 7 22 63 l2 62 3 -62 c5 -88 23 -79 23 12 0 99 18 97 23 -2
l3 -78 2 83 c2 75 0 82 -18 82 -10 0 -24 -8 -29 -17 -9 -16 -10 -16 -11 4 0
12 6 24 13 26 23 10 117 7 117 -3z m2172 -420 c-3 -422 -5 -447 -36 -437 -10
3 -12 35 -20 257 -3 85 -11 242 -18 347 -11 183 -10 194 8 228 15 28 24 35 44
33 l25 -3 -3 -425z m-4462 389 c0 -10 -9 -28 -21 -40 -20 -20 -20 -22 -3 -40
13 -15 14 -22 4 -33 -10 -12 -8 -21 8 -44 11 -15 32 -34 46 -42 28 -15 46 -61
46 -122 0 -27 -4 -38 -15 -38 -22 0 -19 -7 25 -46 21 -19 42 -45 46 -57 4 -12
9 -24 13 -27 3 -3 11 -14 18 -26 10 -18 7 -24 -24 -48 -19 -15 -32 -34 -30
-40 8 -19 -13 -106 -24 -106 -6 0 -8 9 -4 19 4 13 -1 27 -12 39 -10 10 -23 27
-29 38 -11 18 -12 18 -31 1 -11 -9 -31 -17 -45 -17 -16 0 -29 -8 -38 -24 -11
-21 -10 -28 10 -56 19 -26 20 -34 9 -41 -12 -8 -11 -12 4 -23 9 -7 15 -20 12
-28 -4 -10 1 -17 15 -21 17 -4 20 -10 14 -34 -9 -39 -18 -46 -45 -37 -13 4
-28 7 -33 6 -4 -2 -14 2 -22 8 -7 7 -28 11 -46 10 -53 -3 -58 -1 -68 25 -11
28 -30 32 -63 11 -12 -7 -34 -16 -49 -20 -32 -7 -48 14 -50 70 -1 28 -7 38
-25 45 -17 6 -23 15 -19 27 2 9 7 27 11 39 3 13 17 26 31 29 19 5 24 12 24 40
0 24 5 34 15 34 20 0 19 -38 0 -88 -16 -40 -9 -116 10 -110 11 3 8 38 -5 51
-4 5 1 32 11 60 11 29 19 66 19 84 0 17 4 34 9 37 10 7 20 86 10 86 -10 0 -19
-27 -19 -55 0 -12 -6 -28 -14 -34 -11 -9 -15 -6 -21 16 -3 16 -14 36 -23 46
-16 18 -16 20 2 32 13 10 17 22 13 40 -6 32 17 83 49 111 23 19 24 23 13 71
-11 46 -10 52 9 71 11 11 31 23 44 27 36 11 46 23 41 49 -6 29 24 75 48 76 9
0 21 6 27 13 7 8 30 11 66 9 47 -3 56 -7 56 -23z m6860 1 c0 -5 -7 -10 -15
-10 -11 0 -15 -12 -15 -50 0 -42 3 -50 19 -50 28 0 31 -34 31 -301 0 -184 3
-239 13 -240 10 0 10 -2 0 -6 -9 -3 -13 -35 -13 -109 0 -63 -4 -104 -10 -104
-6 0 -10 42 -10 106 0 80 -3 105 -12 102 -8 -3 -15 -34 -19 -84 l-5 -79 -2 83
c-2 75 -4 82 -22 82 -11 0 -20 -7 -20 -16 0 -8 -4 -12 -10 -9 -6 4 -10 108
-10 281 0 176 -4 274 -10 274 -6 0 -10 -82 -10 -225 0 -143 -4 -225 -10 -225
-6 0 -10 82 -10 225 0 143 -4 225 -10 225 -6 0 -10 -63 -10 -170 0 -107 -4
-170 -10 -170 -6 0 -10 63 -10 170 0 107 -4 170 -10 170 -6 0 -11 -52 -12
-132 l-2 -133 -3 133 c-4 143 -23 187 -23 51 0 -51 -4 -78 -10 -74 -5 3 -10
40 -10 81 0 59 -3 74 -15 74 -8 0 -15 -7 -15 -17 0 -9 -3 -13 -7 -9 -4 4 -6
38 -5 76 2 57 0 70 -13 70 -9 0 -15 -9 -15 -22 0 -27 -5 -21 -14 15 l-6 27
170 0 c107 0 170 -4 170 -10z m-3348 -42 l1 -43 4 43 c4 39 6 42 26 36 12 -3
23 -7 23 -8 1 0 -4 -46 -11 -101 -17 -126 -34 -392 -38 -557 -2 -125 -2 -128
-24 -128 l-23 0 0 255 c0 163 -4 255 -10 255 -6 0 -10 -92 -10 -255 0 -152 -4
-255 -9 -255 -19 0 -23 91 -19 421 4 366 5 379 58 379 28 0 30 -2 32 -42z
m4132 30 c-3 -5 -11 -8 -19 -8 -11 0 -13 -15 -8 -72 7 -88 13 -101 13 -28 0
37 3 51 10 44 7 -7 11 -116 11 -305 0 -457 0 -459 -11 -459 -5 0 -11 37 -13
83 l-3 82 -3 -90 c-3 -105 -19 -91 -20 18 -1 37 -5 67 -11 67 -6 0 -10 -35
-10 -85 0 -50 -4 -85 -10 -85 -6 0 -10 35 -10 85 0 57 -4 85 -11 85 -9 0 -10
-24 -6 -85 3 -47 2 -85 -3 -85 -8 0 -13 30 -23 140 -2 19 -5 1 -6 -40 -2 -111
-21 -126 -21 -17 0 71 -3 87 -15 87 -12 0 -15 -17 -17 -82 l-2 -83 -3 83 c-3
74 -6 82 -23 82 -18 0 -20 -8 -22 -87 l-2 -88 -3 87 c-2 49 -8 88 -13 88 -5 0
-11 -39 -12 -88 -2 -49 -7 -86 -13 -84 -5 1 -8 39 -6 87 2 56 -1 85 -8 85 -7
0 -11 -31 -11 -85 0 -66 -3 -85 -14 -85 -11 0 -13 17 -8 85 4 74 3 85 -12 85
-13 0 -16 -14 -18 -92 l-2 -93 -3 92 c-2 51 -8 93 -13 93 -6 0 -11 -35 -11
-77 -1 -69 -2 -73 -10 -38 -4 22 -8 57 -8 77 -1 20 -7 39 -13 42 -10 5 -10 7
0 12 15 7 18 474 2 474 -6 0 -11 -82 -12 -222 l-2 -223 -6 227 c-3 124 -2 259
1 300 l6 73 1 -67 c2 -84 22 -91 22 -8 0 33 4 60 10 60 6 0 10 -27 10 -60 0
-83 20 -76 22 8 l2 67 3 -67 c3 -51 8 -68 18 -68 12 0 15 16 15 75 l0 75 -47
2 -48 1 50 6 c73 9 374 8 369 -1z m-5527 -36 c-10 -10 -17 -32 -17 -48 0 -17
-5 -35 -12 -42 -8 -8 -8 -15 1 -25 8 -11 10 -87 7 -288 -2 -151 -5 -275 -5
-276 -1 -2 -28 -3 -62 -3 -53 0 -60 2 -55 18 8 26 28 446 25 542 -1 47 2 97 6
113 7 26 10 27 68 27 58 0 59 -1 44 -18z m6163 -11 c0 -5 -18 -7 -40 -5 l-40
4 2 -48 c1 -43 2 -44 5 -9 5 47 23 49 23 2 0 -44 18 -46 22 -2 2 17 8 31 13
31 6 -1 9 -15 7 -32 -3 -23 2 -31 20 -37 l23 -8 -22 -4 -23 -4 0 -250 c0 -241
1 -249 20 -249 19 0 20 8 23 188 2 186 2 186 3 -38 1 -124 -1 -213 -3 -197 -3
19 -10 27 -24 27 -17 0 -19 -8 -19 -76 0 -47 -4 -73 -10 -69 -5 3 -10 37 -10
76 0 39 -4 69 -10 69 -6 0 -10 -32 -10 -77 0 -96 -18 -87 -23 12 l-3 70 -2
-77 c-3 -101 -22 -104 -22 -4 0 50 -4 76 -12 79 -10 4 -10 7 0 15 10 7 12 73
10 315 l-3 307 53 0 c28 0 52 -4 52 -9z m452 -63 l2 -63 3 58 c2 31 8 57 13
57 6 0 10 -145 10 -375 0 -243 -4 -375 -10 -375 -5 0 -11 30 -12 68 l-2 67 -3
-67 c-5 -87 -23 -89 -23 -3 0 58 -2 65 -20 65 -18 0 -20 -7 -20 -67 0 -36 -3
-64 -6 -61 -3 3 -5 146 -4 317 0 204 -3 311 -10 311 -6 0 -10 -46 -10 -122 0
-67 -3 -118 -7 -114 -4 3 -9 85 -12 181 l-6 174 50 4 c28 2 53 4 58 5 4 1 8
-26 9 -60z m466 36 c2 -1 3 -139 3 -305 -2 -286 -8 -374 -22 -284 l-6 40 -2
-42 c0 -24 -5 -43 -11 -43 -5 0 -11 19 -12 43 l-1 42 -4 -42 c-2 -24 -8 -43
-12 -43 -12 0 -24 323 -22 582 l1 66 43 -5 c23 -3 44 -7 45 -9z m-7698 -644
c55 2 438 -21 485 -30 28 -5 127 -11 222 -14 94 -3 319 -17 500 -30 180 -14
418 -30 528 -36 110 -7 202 -13 204 -16 6 -6 -731 -5 -1460 3 l-645 6 -24 33
c-14 19 -34 37 -45 40 -11 4 -31 18 -45 32 l-25 25 140 -7 c77 -4 151 -7 165
-6z"/>
<path d="M2740 6862 c-64 -31 -203 -115 -310 -186 -107 -71 -196 -130 -197
-130 -1 -1 -4 -37 -7 -81 l-5 -80 13 78 c7 42 17 81 22 86 16 14 274 182 290
188 16 6 17 -4 8 -59 -6 -32 -15 -42 -68 -74 -64 -39 -191 -139 -216 -170 -8
-10 14 6 50 35 95 76 96 77 92 29 -3 -22 1 -45 7 -51 8 -8 11 5 11 49 l0 60
98 56 c53 31 129 72 169 92 87 43 243 135 243 142 0 3 -30 -11 -67 -32 -67
-36 -306 -164 -309 -164 -1 0 0 23 1 51 4 61 2 59 180 151 71 37 126 67 120
68 -5 0 -62 -26 -125 -58z"/>
<path d="M3070 6478 c-30 -11 -71 -20 -90 -22 -31 -2 -36 -6 -48 -40 -14 -44
-32 -193 -26 -211 3 -7 -4 -15 -15 -18 -12 -3 -21 -11 -21 -17 0 -10 3 -10 15
0 8 6 18 9 24 6 9 -6 12 4 32 152 l11 83 29 -27 c35 -34 49 -25 20 12 l-22 28
63 18 c35 9 66 17 70 18 3 0 0 -24 -8 -52 -8 -29 -19 -93 -25 -143 -6 -49 -15
-98 -20 -107 -8 -15 -93 -48 -125 -48 -6 0 -14 9 -17 20 -5 20 -6 20 -46 1
-43 -19 -71 -40 -36 -26 45 17 58 18 53 4 -2 -7 -29 -23 -59 -35 -97 -39 -152
-64 -147 -69 3 -3 35 8 71 25 95 43 145 59 168 53 31 -9 159 45 168 71 5 11
11 53 15 93 4 39 16 108 27 153 18 76 18 102 1 99 -4 -1 -32 -10 -62 -21z"/>
<path d="M2065 5929 c-16 -11 -40 -24 -52 -29 -20 -8 -23 -17 -23 -69 0 -33 5
-63 10 -66 6 -4 10 11 10 36 l0 43 30 -29 c39 -37 49 -26 16 18 -14 19 -26 37
-26 41 0 6 60 46 70 46 3 0 3 -54 0 -121 l-5 -120 -35 -29 c-19 -16 -38 -30
-42 -30 -5 0 -8 15 -8 34 0 19 -4 37 -9 40 -12 8 -22 -34 -15 -60 4 -17 -6
-30 -48 -63 -113 -88 -147 -116 -148 -122 -1 -17 77 35 135 90 38 35 71 58 79
55 8 -3 36 11 64 30 l49 36 7 76 c3 43 6 108 6 146 0 77 -10 85 -65 47z"/>
<path d="M1508 5381 c-28 -29 -38 -45 -31 -52 7 -7 7 -21 2 -37 -12 -39 -27
-165 -22 -179 7 -18 37 -16 61 5 17 13 24 41 38 137 9 66 17 129 18 139 2 34
-24 29 -66 -13z"/>
<path d="M4633 5580 c-13 -15 -30 -20 -70 -20 -64 0 -324 -33 -490 -62 l-123
-21 -5 -31 c-5 -32 -27 -388 -46 -773 -7 -145 -7 -228 -1 -239 8 -15 11 -13
16 12 3 16 10 112 15 214 5 102 18 323 28 491 l17 307 36 5 c19 3 114 17 210
31 96 15 231 32 299 39 l124 14 -6 -241 c-3 -133 -11 -370 -18 -527 -8 -198
-9 -291 -1 -304 8 -15 11 -3 16 56 7 101 26 553 33 820 3 121 10 222 15 225
15 10 8 24 -12 24 -11 0 -28 -9 -37 -20z"/>
<path d="M4242 5424 c-61 -30 -132 -107 -169 -183 -29 -58 -43 -154 -24 -165
18 -11 13 -33 -9 -39 -19 -5 -20 -14 -20 -300 0 -238 3 -297 14 -306 10 -9 44
-6 137 9 68 11 180 25 249 31 68 5 126 12 129 15 9 9 32 460 27 549 -10 211
-29 294 -76 349 -63 71 -164 87 -258 40z m86 -33 c-18 -15 -37 -30 -43 -32 -5
-2 -40 -36 -77 -74 -51 -54 -69 -81 -77 -114 -6 -27 -6 -40 0 -34 5 5 12 23
15 38 5 31 112 151 175 198 63 47 126 38 171 -25 l23 -33 -33 23 c-26 19 -39
22 -76 17 -37 -6 -53 -17 -112 -78 -38 -39 -58 -62 -44 -52 l25 20 -24 -27
c-13 -15 -28 -25 -33 -22 -5 3 -8 0 -7 -7 2 -8 -9 -37 -24 -66 -15 -29 -27
-63 -27 -77 0 -13 -5 -26 -11 -28 -6 -2 4 -18 22 -35 26 -27 30 -35 20 -47 -9
-10 -14 -77 -17 -213 -7 -270 -4 -259 -61 -268 -25 -4 -52 -9 -61 -12 -13 -5
-14 27 -10 269 l4 276 27 32 c31 37 33 43 11 61 -21 17 -13 91 15 147 48 95
167 192 234 192 l28 0 -33 -29z m186 -152 c27 -22 33 -48 15 -66 -8 -8 -5 -23
9 -56 20 -44 20 -51 6 -322 -7 -152 -16 -280 -19 -285 -4 -6 -25 -10 -48 -10
-23 0 -89 -7 -147 -15 -160 -22 -147 -28 -138 63 3 42 7 136 7 207 1 111 4
136 21 168 l20 38 -25 23 c-30 28 -31 56 -6 112 58 128 224 207 305 143z"/>
<path d="M3110 5280 c-424 -137 -471 -154 -466 -167 3 -7 1 -24 -3 -36 -15
-38 -37 -799 -24 -821 13 -24 18 51 32 514 9 287 12 326 27 337 17 12 437 153
456 153 6 0 8 -14 4 -32 -20 -117 -61 -868 -50 -915 13 -49 23 3 23 117 1 128
29 682 39 765 8 62 5 96 -6 94 -4 0 -18 -4 -32 -9z"/>
<path d="M3490 5277 c-57 -30 -74 -45 -117 -102 -53 -70 -103 -165 -103 -196
0 -13 6 -30 14 -38 12 -14 11 -25 -9 -86 -17 -51 -26 -112 -34 -225 -20 -288
-21 -325 -12 -339 8 -12 33 -8 158 27 176 50 264 70 318 74 l40 3 6 275 c6
263 5 277 -14 310 l-20 36 26 27 c48 47 32 146 -32 200 -54 45 -167 62 -221
34z m144 -28 c22 -6 52 -24 68 -39 30 -31 37 -53 14 -44 -8 3 -48 -5 -88 -17
-64 -20 -82 -32 -145 -92 -39 -38 -76 -82 -82 -98 -6 -18 -6 -27 -1 -24 6 4
10 12 10 20 0 26 110 134 165 160 60 30 165 46 165 25 0 -7 -7 -10 -16 -6 -28
11 -102 -15 -143 -50 -71 -61 -99 -143 -90 -264 1 -14 -6 -71 -15 -128 -9 -57
-18 -154 -19 -217 l-2 -114 -75 -20 c-137 -37 -130 -36 -130 -10 0 13 7 119
15 234 12 177 19 223 42 294 26 79 26 84 9 96 -22 16 -17 37 29 120 86 156
171 207 289 174z m106 -162 c0 -9 -11 -23 -25 -29 -31 -14 -33 -48 -6 -92 19
-30 19 -46 14 -287 l-6 -256 -96 -21 c-53 -12 -107 -25 -120 -29 l-24 -6 6
105 c4 59 14 153 24 210 9 56 16 126 15 153 -5 126 33 206 118 248 58 29 100
31 100 4z"/>
<path d="M2883 5085 c-23 -7 -54 -22 -70 -34 -43 -34 -99 -124 -113 -181 -12
-48 -11 -53 11 -76 l22 -24 -21 -23 c-21 -23 -22 -30 -22 -296 l0 -273 30 6
c20 4 30 2 30 -7 0 -6 8 -3 18 9 18 22 127 61 198 71 24 3 50 13 58 22 33 36
64 499 37 550 -10 18 -9 26 8 48 27 34 26 58 -5 121 -41 83 -100 112 -181 87z
m77 -25 c11 -7 3 -10 -28 -10 -39 0 -50 -6 -103 -57 -56 -54 -59 -58 -57 -102
l2 -46 3 47 c4 41 10 52 59 98 l55 52 56 -4 c43 -4 61 -10 75 -28 23 -29 23
-40 -1 -40 -41 0 -102 -99 -122 -198 -11 -53 -11 -66 2 -94 15 -30 14 -35 -8
-78 -18 -35 -25 -71 -33 -170 -5 -69 -10 -135 -10 -148 0 -17 -10 -27 -35 -38
-19 -7 -37 -14 -40 -14 -3 0 -5 79 -5 175 0 110 -4 175 -10 175 -6 0 -10 -66
-10 -179 0 -142 -3 -180 -14 -184 -11 -4 -14 37 -18 236 l-5 242 29 35 c35 43
35 55 3 76 -22 14 -25 22 -19 48 18 86 90 176 160 201 47 17 55 17 74 5z m97
-126 c3 -8 -4 -25 -17 -39 -18 -19 -21 -30 -15 -52 14 -53 17 -218 5 -353 -17
-209 -12 -196 -78 -209 -30 -6 -60 -11 -66 -11 -8 0 -9 40 -1 150 10 131 14
154 34 181 18 24 21 38 16 62 -16 68 -9 133 19 191 25 51 66 96 88 96 5 0 11
-7 15 -16z"/>
<path d="M7985 4312 c-11 -2 -24 -8 -28 -12 -14 -13 4 -299 19 -315 10 -10 12
-29 8 -68 -3 -30 -2 -57 3 -60 5 -3 10 8 10 26 0 61 8 107 18 107 6 0 10 -16
8 -37 -3 -40 1 -36 11 8 6 26 7 26 53 17 27 -6 54 -15 61 -21 7 -5 15 -7 19
-3 10 9 -13 316 -24 327 -12 12 -133 36 -158 31z m87 -35 c26 -7 50 -16 54
-20 11 -11 24 -251 13 -262 -6 -5 -9 -5 -9 3 0 6 -6 9 -14 6 -10 -4 -16 8 -20
48 -14 116 -29 194 -38 206 -6 6 -20 12 -32 12 -11 0 -28 5 -36 10 -22 14 23
12 82 -3z m-24 -42 c7 -7 26 -224 20 -230 -2 -2 -20 -2 -40 1 -34 6 -36 8 -42
58 -3 28 -6 83 -6 123 l0 72 31 -9 c18 -5 34 -12 37 -15z"/>
<path d="M8941 4220 c-5 -72 1 -316 7 -349 7 -30 11 -34 47 -39 22 -3 58 -6
80 -6 l40 -1 -1 148 c0 92 -4 151 -11 158 -14 14 -143 59 -144 51 -1 -4 -5 11
-9 33 l-7 40 -2 -35z m107 -91 l42 -18 0 -136 0 -135 -27 6 c-16 4 -29 8 -30
8 -1 1 -5 53 -9 115 -7 113 -7 113 -36 123 -22 8 -28 16 -28 40 0 33 4 33 88
-3z"/>
<path d="M9675 3881 c-12 -21 6 -364 21 -388 12 -19 92 -63 115 -63 17 0 17
42 1 224 l-17 190 -30 17 c-42 24 -81 33 -90 20z m111 -242 c8 -89 12 -164 10
-167 -3 -2 -22 2 -43 11 -37 14 -38 17 -44 73 -10 89 -10 216 0 210 4 -3 19 6
31 19 13 14 25 23 28 21 2 -3 11 -78 18 -167z"/>
<path d="M10134 3663 c13 -66 19 -133 20 -208 l1 -79 38 -9 c59 -14 63 -5 48
120 -7 60 -14 121 -15 137 -2 19 -10 32 -24 37 -11 4 -23 12 -27 18 -3 6 -15
11 -26 11 -17 0 -20 -5 -15 -27z"/>
<path d="M8557 3623 c-17 -11 -42 -46 -62 -88 -31 -64 -35 -80 -40 -185 -7
-160 -5 -163 110 -172 50 -3 114 -11 143 -16 46 -8 55 -7 60 7 4 9 7 84 7 166
0 144 -1 152 -28 207 -15 31 -39 64 -54 73 -39 26 -102 29 -136 8z m107 -24
c13 -6 37 -34 52 -63 24 -44 29 -65 32 -148 3 -54 1 -123 -3 -153 -6 -54 -7
-55 -40 -55 -19 0 -36 4 -39 9 -3 4 -6 47 -7 95 -1 48 -4 84 -7 81 -3 -3 -5
-44 -3 -92 l2 -86 -32 7 c-17 3 -56 6 -85 6 -51 0 -54 1 -54 25 0 14 14 44 30
67 37 51 38 91 5 140 -21 31 -23 40 -14 67 6 17 14 31 19 31 4 0 24 -18 44
-40 20 -22 36 -35 36 -29 0 6 -18 30 -41 52 l-41 41 31 28 c34 30 73 36 115
17z"/>
<path d="M10025 3228 c-4 -13 -8 -32 -9 -43 -1 -12 -12 -31 -24 -43 -24 -24
-25 -27 -13 -57 5 -12 3 -33 -5 -53 -8 -19 -13 -64 -13 -100 1 -41 4 -59 9
-47 4 11 5 37 2 57 -2 20 -2 45 2 54 6 16 9 15 27 -4 13 -15 32 -22 58 -22 44
0 55 8 40 27 -8 9 -8 20 0 40 24 60 14 123 -30 184 -25 35 -34 36 -44 7z m59
-68 c9 -23 10 -45 3 -83 -5 -29 -9 -61 -9 -73 0 -18 -4 -20 -31 -15 -28 6 -32
12 -44 65 -13 57 -12 59 13 88 14 17 23 37 20 44 -3 8 -3 21 1 29 5 14 8 13
20 -4 7 -11 20 -34 27 -51z"/>
<path d="M8057 3120 c-68 -54 -106 -207 -114 -461 l-6 -177 -296 -7 c-173 -4
-310 -12 -331 -19 -42 -13 -48 -31 -49 -144 -1 -62 -6 -93 -21 -122 -19 -37
-19 -42 -5 -105 17 -74 34 -115 47 -115 5 0 6 10 4 23 -3 12 -8 40 -11 62 -4
22 -9 50 -12 63 -5 22 -4 22 105 22 103 0 110 -1 105 -19 -3 -10 0 -22 6 -25
7 -5 8 -1 4 9 -3 10 0 21 8 26 16 10 564 12 750 2 l127 -6 -14 -56 c-22 -94
-12 -106 27 -30 30 60 31 107 2 126 -13 9 -22 22 -19 29 3 8 2 14 -3 14 -4 0
-6 24 -3 53 4 55 -13 197 -26 207 -4 3 -7 82 -7 175 0 193 -16 280 -69 387
-50 100 -136 138 -199 88z m139 -43 c69 -75 110 -264 100 -466 -3 -69 -9 -128
-13 -132 -5 -4 -77 -5 -162 -2 l-153 6 5 201 c4 185 15 266 37 290 5 5 23 4
42 -3 30 -10 31 -9 14 4 -11 8 -28 15 -38 15 -23 0 -22 2 2 50 46 90 105 103
166 37z m-732 -674 c3 -21 6 -56 7 -78 0 -22 5 -51 10 -65 8 -25 4 65 -7 143
-5 32 -3 37 14 37 16 0 22 -9 27 -42 4 -24 12 -50 17 -58 6 -11 7 -7 3 14 -3
15 -9 41 -12 57 l-6 29 396 0 c251 -1 399 -5 403 -11 9 -16 16 -193 7 -205 -6
-7 -131 -8 -423 -3 -228 5 -462 6 -519 2 l-104 -6 6 33 c4 18 7 68 7 111 l0
79 84 0 83 0 7 -37z m866 -223 c5 -8 8 -16 6 -17 -2 -2 -244 0 -539 4 -464 5
-534 8 -529 21 8 21 1049 13 1062 -8z"/>
<path d="M8566 3061 c-16 -10 -38 -34 -50 -52 -30 -48 -33 -182 -7 -404 11
-99 23 -244 27 -321 l7 -142 151 -4 c83 -3 154 -2 158 1 9 8 -17 553 -32 686
-12 104 -53 202 -98 231 -41 27 -120 30 -156 5z m135 -34 c72 -48 90 -144 109
-595 6 -133 13 -248 15 -255 4 -9 -24 -11 -122 -8 -71 1 -129 4 -131 6 -2 2
-10 97 -18 212 -7 114 -18 246 -24 293 -11 99 -12 256 -1 285 7 18 9 17 25
-12 38 -75 55 -214 71 -593 7 -164 10 -180 32 -180 9 0 13 6 9 15 -3 9 -10
118 -16 243 -16 352 -39 501 -85 552 -28 30 2 34 41 5 31 -23 54 -61 75 -120
6 -17 7 -18 8 -2 2 29 -35 92 -75 126 -29 26 -34 35 -23 42 25 16 75 9 110
-14z"/>
<path d="M9034 3009 c-64 -32 -81 -186 -61 -549 8 -129 14 -257 13 -283 0 -29
5 -51 12 -56 17 -10 275 -22 284 -13 10 11 -9 609 -22 677 -17 92 -58 164
-114 203 -50 33 -76 38 -112 21z m98 -45 c43 -30 82 -102 98 -179 5 -27 12
-142 15 -255 3 -113 7 -249 9 -303 l4 -98 -46 3 -47 3 3 42 c2 22 -1 49 -6 60
-6 10 -15 81 -21 158 -18 223 -46 312 -115 373 -28 24 -36 39 -36 64 0 52 12
63 47 44 17 -8 42 -29 57 -46 14 -18 26 -28 26 -23 -1 17 -57 70 -87 82 -37
15 -40 26 -16 61 33 49 60 52 115 14z m-85 -257 c34 -54 50 -130 68 -312 8
-88 18 -182 21 -208 l6 -48 -63 3 -64 3 -6 105 c-4 58 -10 199 -14 315 -7 200
-7 209 10 195 10 -8 28 -32 42 -53z"/>
<path d="M9448 2960 c-9 -6 -21 -25 -27 -43 -13 -44 -19 -793 -6 -806 13 -12
197 -33 207 -23 4 4 3 151 -2 327 -8 335 -15 386 -61 483 -12 24 -34 49 -50
57 -33 17 -38 18 -61 5z m62 -40 c57 -57 71 -144 79 -490 5 -168 7 -307 5
-309 -2 -2 -38 0 -82 4 l-79 7 -2 231 c-2 205 -1 229 13 218 27 -22 40 -84 40
-192 1 -59 4 -105 9 -102 10 6 9 127 -4 203 -6 39 -20 79 -35 101 -22 32 -25
45 -22 115 l3 79 23 -50 c13 -27 27 -84 32 -125 l9 -75 -4 79 c-3 64 -10 91
-36 144 -25 52 -30 73 -26 108 8 72 38 93 77 54z"/>
<path d="M9778 2860 c-43 -33 -52 -91 -45 -278 12 -306 27 -486 40 -498 15
-15 149 -36 160 -25 13 13 -10 597 -27 674 -18 79 -40 121 -73 136 -30 14 -26
14 -55 -9z m67 -44 c31 -47 45 -158 55 -421 5 -143 12 -270 15 -281 9 -28 -6
-37 -49 -29 l-34 7 -8 166 c-8 144 -10 157 -14 92 -3 -41 -2 -83 2 -92 5 -9 8
-48 8 -87 0 -54 -3 -71 -14 -71 -19 0 -26 32 -26 134 0 48 -5 152 -11 230 -6
77 -9 179 -7 226 l3 85 23 -35 c19 -29 22 -30 17 -10 -4 14 -14 33 -23 43 -12
14 -13 22 -4 42 15 32 47 32 67 1z"/>
<path d="M10051 2766 c-26 -31 -33 -142 -26 -396 9 -328 10 -329 58 -346 73
-25 71 -33 63 265 -8 317 -22 445 -53 476 -18 19 -27 19 -42 1z m33 -43 c15
-51 26 -195 32 -421 6 -213 5 -252 -7 -252 -37 1 -42 17 -50 157 -10 169 -11
445 -3 496 7 39 19 48 28 20z"/>
<path d="M10247 2643 c-13 -32 -13 -521 0 -608 7 -43 11 -50 33 -53 24 -3 24
-2 5 13 -18 14 -19 32 -23 320 -3 195 -1 305 5 305 12 0 21 -126 29 -400 6
-219 9 -250 24 -250 6 0 10 40 10 97 0 103 -28 569 -35 591 -8 22 -35 13 -48
-15z"/>
<path d="M10393 2283 c3 -170 9 -321 13 -336 8 -33 32 -46 46 -26 15 23 -9
587 -28 652 -3 9 -12 17 -21 17 -14 0 -15 -32 -10 -307z"/>
<path d="M5049 3727 c-64 -24 -109 -58 -150 -113 -65 -85 -97 -192 -67 -222 9
-9 8 -16 -5 -30 -15 -17 -17 -53 -17 -338 0 -175 3 -329 6 -342 l6 -22 294 0
294 1 0 98 c0 54 3 220 7 369 6 246 5 272 -10 272 -9 0 -19 5 -23 11 -4 7 2 9
17 7 22 -3 24 0 22 37 -4 49 -83 185 -130 221 -70 53 -177 76 -244 51z m129
-27 c39 -11 126 -60 119 -66 -3 -3 -20 4 -38 15 -26 16 -51 21 -105 21 l-70 0
-82 -84 c-45 -46 -82 -88 -82 -93 0 -6 39 29 87 78 l87 89 66 0 c53 0 73 -4
94 -21 15 -11 34 -22 43 -23 9 -2 19 -8 21 -14 3 -9 -3 -9 -25 -1 -35 13 -153
3 -203 -17 -19 -8 -50 -29 -69 -47 -61 -58 -118 -209 -91 -242 9 -10 8 -20 -3
-42 -21 -40 -26 -111 -29 -350 -1 -117 -4 -213 -7 -213 -3 0 -15 -3 -27 -6
-21 -5 -21 -4 -27 316 -6 318 -6 322 15 351 19 26 20 31 8 54 -19 36 -1 103
47 173 73 107 171 151 271 122z m143 -141 c29 -14 45 -32 58 -62 18 -41 18
-42 0 -51 -30 -14 -33 -39 -7 -61 l23 -20 -3 -343 c-3 -303 -5 -343 -18 -338
-9 3 -115 6 -236 6 l-221 0 5 254 c5 240 7 257 29 301 20 39 21 49 10 66 -16
27 -7 69 31 141 47 89 114 125 236 127 35 1 66 -6 93 -20z"/>
<path d="M4123 3656 c-73 -35 -134 -100 -178 -191 -44 -92 -57 -155 -30 -155
12 0 15 -5 10 -17 -21 -53 -27 -102 -45 -353 -11 -151 -20 -288 -20 -303 l0
-29 128 7 c268 13 427 26 435 34 20 20 -22 22 -179 11 -91 -7 -167 -10 -169
-8 -6 6 11 220 30 386 8 73 20 133 29 147 22 34 20 50 -9 73 -24 19 -24 21
-12 69 19 71 61 137 103 164 45 28 133 30 181 6 59 -31 98 -107 54 -107 -29 0
-43 -23 -32 -53 5 -14 15 -28 20 -32 14 -8 14 -275 1 -477 -9 -142 -7 -183 10
-173 15 9 21 110 22 376 2 235 0 270 -15 292 -22 34 -22 50 2 42 74 -23 26
152 -66 242 -76 73 -178 91 -270 49z m171 -17 c37 -10 136 -96 136 -118 0 -6
-16 -3 -37 6 -59 24 -151 14 -198 -21 -49 -38 -91 -106 -106 -172 l-12 -53
-31 13 c-34 13 -43 37 -45 106 -1 41 3 48 58 101 32 32 51 54 41 51 -10 -4
-39 -31 -65 -60 -47 -52 -47 -53 -43 -112 5 -64 2 -67 -50 -54 -29 8 -26 26
23 128 72 152 196 222 329 185z m-320 -347 c3 -5 37 -21 76 -36 57 -23 70 -31
64 -45 -22 -52 -35 -135 -50 -334 -9 -122 -19 -225 -23 -229 -7 -7 -149 -14
-155 -7 -5 5 32 556 39 583 19 66 36 89 49 68z"/>
<path d="M3335 3553 c-79 -41 -153 -148 -176 -252 -15 -70 3 -102 76 -132 53
-22 55 -24 57 -63 l1 -41 4 38 c2 20 6 37 8 37 4 0 57 -22 63 -26 2 -1 -7 -16
-19 -34 -28 -38 -38 -115 -38 -322 l-1 -148 -30 0 -29 0 -4 133 -3 132 0 -137
1 -136 -31 -4 -31 -4 -8 236 c-5 129 -9 263 -10 297 -2 71 -10 88 -24 50 -6
-16 -6 -49 0 -94 6 -37 11 -166 12 -285 1 -119 4 -219 7 -222 3 -2 102 3 219
12 l215 17 7 29 c11 40 29 342 29 482 0 106 -2 120 -21 140 -24 26 -19 57 7
47 15 -6 16 -1 10 37 -13 83 -95 195 -159 219 -40 15 -97 13 -132 -6z m145
-31 c27 -17 50 -38 50 -45 0 -3 -13 -8 -29 -12 -60 -13 -123 -118 -143 -237
-6 -40 -13 -74 -13 -76 -5 -7 -140 61 -151 76 -19 25 -16 60 10 125 67 162
178 230 276 169z m77 -97 c25 -18 50 -84 36 -94 -6 -3 -16 -17 -22 -30 -11
-20 -10 -27 7 -50 10 -14 22 -42 25 -61 7 -47 -21 -518 -33 -540 -7 -13 -28
-18 -92 -23 -46 -4 -98 -7 -117 -7 l-34 0 6 201 6 201 31 46 c33 50 38 77 15
89 -12 7 -12 17 -1 74 18 84 51 153 88 184 34 29 55 31 85 10z"/>
<path d="M2684 3462 c-75 -36 -136 -133 -169 -270 -12 -52 -14 -77 -7 -84 8
-8 4 -19 -11 -40 -21 -29 -22 -39 -23 -308 l-1 -279 26 4 c14 3 82 11 151 20
174 21 192 25 188 37 -2 6 8 22 22 37 l27 26 6 280 c3 154 4 312 1 350 -14
198 -92 282 -210 227z m119 -32 c15 -12 34 -45 46 -82 23 -69 27 -108 10 -125
-8 -8 -6 -19 5 -41 13 -25 14 -52 6 -188 -5 -88 -10 -209 -10 -271 l0 -111
-39 -31 c-21 -17 -50 -31 -64 -31 -23 0 -24 3 -21 43 2 23 9 105 14 182 6 77
18 169 26 204 13 52 14 71 5 103 -15 48 6 131 44 176 40 48 29 74 -13 30 -34
-37 -62 -109 -62 -162 l0 -49 -95 5 c-52 3 -92 1 -89 -3 3 -5 11 -9 17 -9 12
0 16 -24 18 -115 l1 -50 9 48 c6 32 6 53 0 61 -6 7 -8 22 -4 34 4 16 13 22 35
22 26 0 29 -3 22 -22 -8 -25 -7 -158 1 -166 3 -3 5 28 5 69 0 106 5 119 46
119 44 0 56 -22 38 -73 -13 -37 -26 -146 -42 -357 l-7 -95 -70 -12 c-38 -6
-85 -12 -102 -12 l-33 -1 0 259 0 260 25 27 c29 31 28 29 14 52 -9 14 -6 37
11 100 47 174 170 277 253 212z"/>
<path d="M2122 3330 c-61 -38 -135 -187 -131 -265 1 -22 -3 -50 -9 -62 -16
-29 -17 -609 -1 -618 5 -4 18 0 27 8 9 8 37 17 62 21 163 24 170 26 184 60 7
18 19 88 25 157 6 68 13 144 16 169 3 25 5 100 6 167 0 68 5 125 10 129 30 18
-13 163 -65 219 -39 41 -74 45 -124 15z m111 -52 c34 -43 37 -70 12 -148 -15
-46 -19 -107 -22 -357 l-5 -301 -102 -19 -101 -18 -7 40 c-12 74 -9 494 4 518
7 12 12 47 13 77 0 101 100 257 157 248 12 -2 34 -20 51 -40z"/>
<path d="M1706 3229 c-45 -35 -78 -113 -81 -194 -2 -39 -9 -84 -16 -100 -16
-42 -5 -554 13 -571 10 -10 27 -9 76 1 93 20 90 16 97 92 4 37 18 171 31 296
14 125 22 232 19 237 -3 6 1 20 9 32 9 12 16 30 16 39 0 34 -42 151 -61 170
-25 25 -70 24 -103 -2z m90 -33 c8 -14 22 -51 31 -82 14 -55 14 -58 -8 -87
-18 -25 -20 -34 -10 -49 9 -14 7 -63 -8 -216 -11 -108 -23 -232 -27 -275 -4
-44 -11 -80 -18 -82 -58 -17 -66 -16 -66 12 0 16 -5 35 -11 43 -8 11 -9 4 -7
-27 2 -30 -1 -44 -11 -48 -7 -3 -15 -4 -17 -2 -2 2 -7 118 -10 258 -5 194 -4
260 5 278 7 12 14 57 15 99 5 143 92 253 142 178z"/>
<path d="M1392 3117 c-34 -37 -64 -133 -67 -217 -1 -41 -5 -95 -9 -120 -3 -25
-13 -133 -21 -242 -8 -108 -18 -203 -21 -211 -3 -8 -2 -17 3 -20 14 -9 144 19
159 35 16 16 64 323 65 418 0 30 1 66 1 80 4 225 3 238 -18 267 -27 37 -63 41
-92 10z m63 -24 c10 -13 10 -22 0 -42 -17 -35 -47 -156 -51 -206 -3 -35 -2
-34 11 15 7 30 21 84 29 118 8 35 17 66 20 69 13 14 18 -34 11 -105 -4 -42 -7
-106 -6 -142 3 -85 -48 -447 -63 -447 -6 0 -32 -4 -57 -8 l-46 -7 8 59 c4 32
13 132 19 223 6 91 14 172 18 180 3 8 7 49 8 90 1 46 10 98 23 134 31 86 50
104 76 69z"/>
<path d="M1161 2978 c-33 -35 -55 -116 -58 -208 -1 -47 -9 -139 -17 -205 -19
-150 -34 -345 -26 -350 10 -6 110 47 110 57 0 10 -28 6 -64 -8 -19 -7 -20 7
-5 151 5 55 12 125 15 155 2 30 9 74 15 97 6 23 8 58 5 77 -7 37 2 136 13 136
3 0 7 -39 9 -87 2 -48 7 -94 13 -102 6 -11 7 -4 3 23 -5 30 -4 37 6 31 10 -6
12 -49 7 -205 -4 -109 -11 -210 -17 -224 -8 -21 -7 -28 6 -33 9 -3 20 0 24 7
14 22 25 304 18 470 0 14 5 62 13 107 10 63 10 87 1 107 -14 32 -44 34 -71 4z"/>
<path d="M3285 1764 c-70 -36 -118 -106 -134 -198 -17 -92 -14 -132 10 -155
19 -18 19 -20 4 -29 -25 -13 -33 -111 -41 -474 l-7 -307 26 -6 c37 -10 351
-22 360 -15 10 8 32 200 52 449 20 253 20 335 -1 366 -13 20 -14 28 -4 40 29
35 -17 224 -68 278 -55 60 -139 81 -197 51z m133 -38 c59 -31 97 -103 109
-209 8 -67 -6 -76 -128 -77 l-96 0 9 63 c10 75 50 144 95 166 38 19 42 31 11
31 -12 0 -39 -18 -63 -43 -41 -43 -65 -101 -80 -190 l-6 -38 -47 3 -47 3 1 54
2 54 102 98 c55 55 103 99 106 99 3 0 17 -6 32 -14z m82 -315 c5 -11 11 -48
12 -83 l2 -63 5 60 5 60 6 -65 c3 -36 3 -119 0 -185 l-5 -120 -5 120 c-5 101
-6 84 -9 -110 -1 -126 -6 -248 -10 -270 -5 -22 -9 -30 -10 -17 0 12 -5 22 -11
22 -6 0 -11 -34 -12 -77 l-2 -78 -3 78 c-5 100 -23 100 -23 0 0 -42 -3 -73 -7
-70 -3 4 -5 38 -4 77 2 58 0 70 -13 70 -13 0 -16 -14 -16 -75 0 -43 -4 -75
-10 -75 -6 0 -10 32 -10 75 0 100 -19 98 -22 -2 l-2 -78 -6 80 -6 80 -2 -72
c-3 -100 -21 -105 -24 -6 l-2 78 -3 -72 c-5 -93 -23 -95 -23 -3 0 40 -4 70
-10 70 -6 0 -11 -32 -11 -72 -1 -53 -3 -65 -9 -43 -7 29 -1 376 6 384 2 2 4
-53 4 -122 0 -78 4 -127 10 -127 6 0 10 85 10 235 0 176 -3 235 -12 235 -9 0
-9 3 0 12 7 7 12 31 12 55 0 58 18 55 23 -4 2 -31 4 -19 5 35 l2 82 85 0 c73
0 86 -3 95 -19z m-220 -16 c0 -3 -7 -17 -16 -30 -21 -33 -32 -182 -36 -497 -3
-228 -4 -248 -20 -248 -17 0 -18 22 -18 318 0 261 3 322 15 347 l15 30 -20
-24 c-19 -22 -20 -38 -20 -348 0 -255 -3 -324 -12 -321 -19 7 -21 116 -8 435
l11 283 27 29 c16 17 38 29 55 30 15 0 27 -1 27 -4z"/>
<path d="M7220 970 c0 -253 1 -260 20 -260 19 0 20 7 20 260 0 253 -1 260 -20
260 -19 0 -20 -7 -20 -260z"/>
<path d="M7270 970 c0 -224 2 -260 15 -260 13 0 15 36 15 260 0 224 -2 260
-15 260 -13 0 -15 -36 -15 -260z"/>
<path d="M7850 935 c0 -228 1 -235 20 -235 19 0 20 7 20 235 0 228 -1 235 -20
235 -19 0 -20 -7 -20 -235z"/>
<path d="M9110 930 c0 -233 1 -240 20 -240 19 0 20 7 20 240 0 233 -1 240 -20
240 -19 0 -20 -7 -20 -240z"/>
<path d="M11377 2334 c-4 -4 -4 -18 -1 -30 6 -23 4 -24 -54 -24 -34 0 -72 5
-86 11 -50 23 -186 -23 -186 -63 0 -17 45 -54 80 -66 42 -14 164 -10 183 6 9
8 24 9 48 2 42 -12 39 -13 39 3 0 20 -61 36 -91 24 -88 -36 -262 7 -204 49 23
17 110 28 132 16 21 -11 132 -10 151 1 6 5 12 24 12 43 0 32 -8 42 -23 28z"/>
<path d="M10681 2141 c-66 -9 -68 -34 -3 -28 37 4 54 1 63 -9 6 -8 16 -14 22
-14 6 0 19 -8 30 -17 15 -13 21 -15 24 -5 3 6 8 12 13 12 15 0 70 -64 70 -82
0 -9 9 -22 20 -28 11 -6 20 -17 20 -25 0 -8 11 -17 25 -21 14 -3 25 -10 25
-14 0 -5 16 -18 35 -30 19 -12 35 -29 35 -38 1 -9 9 -35 20 -57 11 -22 19 -48
20 -57 0 -10 7 -18 15 -18 9 0 29 -7 44 -15 26 -13 30 -13 41 0 10 12 10 19
-4 33 -9 10 -16 26 -16 35 0 9 -4 19 -10 22 -5 3 -7 19 -3 35 4 23 2 30 -10
30 -56 0 -214 114 -231 166 -13 41 -72 89 -111 90 -22 1 -45 10 -58 23 -13 11
-25 20 -28 19 -2 0 -24 -4 -48 -7z"/>
<path d="M20 2052 c0 -29 29 -62 56 -62 20 0 24 -5 24 -30 0 -29 2 -30 43 -30
57 0 73 -27 48 -80 -9 -19 -18 -37 -21 -40 -3 -3 -15 -18 -27 -33 -24 -32 -21
-51 14 -84 18 -17 22 -29 17 -48 -8 -33 13 -33 28 0 10 23 8 29 -22 60 -32 33
-34 50 -7 50 7 0 12 8 12 17 0 10 6 23 13 30 6 6 12 20 12 30 0 9 7 21 15 26
14 7 14 12 0 45 -18 43 -45 60 -80 51 -23 -6 -25 -4 -19 25 6 30 5 31 -28 31
-38 0 -58 15 -58 42 0 10 -4 18 -10 18 -5 0 -10 -8 -10 -18z"/>
<path d="M11332 1990 c-7 -11 -21 -20 -32 -20 -11 0 -20 -6 -20 -14 0 -8 -6
-16 -14 -19 -11 -4 -13 -22 -10 -73 2 -37 8 -70 12 -73 5 -3 15 -28 24 -56 8
-27 20 -51 27 -53 14 -5 15 54 1 63 -5 3 -10 16 -10 29 0 12 -5 27 -12 34 -19
19 -14 100 7 120 17 16 17 16 11 -2 -4 -10 0 -29 8 -41 8 -12 16 -37 18 -56 2
-29 7 -34 31 -37 15 -2 27 1 27 7 0 6 -7 11 -15 11 -11 0 -15 11 -15 36 0 23
-6 41 -17 50 -17 12 -17 15 -1 57 15 41 15 57 -1 57 -4 0 -12 -9 -19 -20z"/>
<path d="M4466 322 c-1360 -1 -2303 -6 -2310 -11 -7 -6 -10 -40 -8 -90 l4 -81
606 0 c3554 -2 4466 1 4473 11 8 14 0 151 -11 162 -11 12 -171 12 -2754 9z
m2754 -98 l0 -74 -352 0 c-194 0 -967 0 -1718 0 -751 0 -1731 0 -2177 0 l-813
0 0 80 0 80 2518 2 c1421 2 2522 -1 2530 -6 8 -5 12 -35 12 -82z"/>
<path d="M2532 231 l3 -66 33 -3 32 -3 0 60 c0 77 18 80 22 4 l3 -58 50 0 50
0 3 53 c2 28 7 52 12 52 5 0 10 -24 12 -52 l3 -53 105 0 105 0 3 58 c2 31 8
57 13 57 7 0 10 -22 7 -57 l-3 -58 55 0 55 0 -3 58 c-3 35 0 57 7 57 5 0 11
-26 13 -57 l3 -58 120 0 120 0 0 65 0 65 -50 0 -50 0 -3 -57 c-2 -32 -7 -58
-12 -58 -5 0 -10 26 -12 58 l-3 57 -188 2 -188 1 1 -51 c2 -72 1 -79 -10 -72
-5 3 -10 33 -10 65 l0 59 -150 -1 -151 -1 3 -66z"/>
<path d="M3374 286 c-3 -7 -4 -38 -2 -67 l3 -54 60 0 60 0 3 58 c2 31 7 57 12
57 5 0 10 -26 12 -57 l3 -58 50 0 50 0 3 58 c4 76 22 74 22 -3 l0 -61 63 3 62
3 0 65 0 65 -198 2 c-156 2 -199 -1 -203 -11z"/>
<path d="M3797 292 c-1 -4 -1 -35 1 -70 l4 -63 61 3 62 3 3 58 c2 31 7 57 12
57 5 0 10 -26 12 -57 l3 -58 58 -3 58 -3 -3 68 -3 68 -132 2 c-73 2 -134 -1
-136 -5z"/>
<path d="M4094 287 c-3 -8 -4 -39 -2 -68 l3 -54 70 0 70 0 0 65 0 65 -68 3
c-51 2 -69 -1 -73 -11z m136 -57 l0 -61 -62 3 -63 3 -3 58 -3 57 66 0 65 0 0
-60z"/>
<path d="M4264 286 c-3 -7 -4 -38 -2 -67 l3 -54 65 0 65 0 -4 60 c-1 33 -5 63
-8 68 -8 13 -113 8 -119 -7z"/>
<path d="M4417 293 c-12 -11 -8 -108 5 -121 13 -13 124 -17 131 -4 2 4 2 35
-1 70 l-4 62 -63 0 c-34 0 -65 -3 -68 -7z"/>
<path d="M4570 248 c0 -65 13 -88 50 -88 30 0 30 0 30 60 0 77 18 79 22 3 l3
-58 60 0 c42 0 60 4 59 13 -1 6 -2 37 -2 67 l-2 54 -110 -1 -110 -1 0 -49z"/>
<path d="M4812 233 l3 -68 60 0 60 0 3 68 3 67 -66 0 -66 0 3 -67z"/>
<path d="M4959 296 c-2 -2 -2 -34 -1 -71 l4 -66 56 3 57 3 3 68 3 67 -59 0
c-32 0 -61 -2 -63 -4z"/>
<path d="M5102 233 l3 -68 60 0 60 0 3 68 3 67 -66 0 -66 0 3 -67z"/>
<path d="M5252 232 l3 -67 55 0 55 0 3 58 c2 31 7 57 12 57 5 0 10 -26 12 -57
l3 -58 63 -3 62 -3 0 70 0 70 -135 -1 -136 0 3 -66z"/>
<path d="M5542 233 l3 -68 69 -3 c60 -3 68 -1 62 13 -3 9 -6 41 -6 71 l0 54
-65 0 -66 0 3 -67z"/>
<path d="M5697 293 c-12 -11 -8 -108 5 -121 7 -7 36 -12 65 -12 l53 0 0 70 0
70 -58 0 c-32 0 -62 -3 -65 -7z"/>
<path d="M5842 233 l3 -68 185 -2 c102 -1 190 -1 195 1 6 2 8 29 5 67 l-5 64
-62 3 -63 3 -1 -63 -2 -63 -9 63 -10 62 -54 0 -54 0 0 -60 c0 -33 -4 -60 -8
-60 -4 0 -6 16 -4 35 2 19 1 46 -2 60 -6 23 -11 25 -62 25 l-55 0 3 -67z"/>
<path d="M6240 252 c0 -68 20 -92 76 -92 l44 0 0 70 0 70 -60 0 -60 0 0 -48z"/>
<path d="M6512 233 l3 -68 55 0 55 0 0 65 0 65 -58 3 -58 3 3 -68z"/>
<path d="M6647 293 c-4 -3 -7 -32 -7 -64 0 -61 6 -69 60 -69 60 0 71 22 54
109 -6 29 -9 31 -54 31 -25 0 -50 -3 -53 -7z"/>
<path d="M6902 233 l3 -68 50 0 50 0 3 68 3 67 -56 0 -56 0 3 -67z"/>
</g>
</svg>
