<?xml version="1.0" standalone="no"?>
<!DOCTYPE svg PUBLIC "-//W3C//DTD SVG 20010904//EN"
 "http://www.w3.org/TR/2001/REC-SVG-20010904/DTD/svg10.dtd">
<svg version="1.0" xmlns="http://www.w3.org/2000/svg"
 width="1130.000000pt" height="784.000000pt" viewBox="0 0 1130.000000 784.000000"
 preserveAspectRatio="xMidYMid meet">
<metadata>
Created by potrace 1.16, written by Peter Selinger 2001-2019
</metadata>
<g transform="translate(0.000000,784.000000) scale(0.100000,-0.100000)"
fill="#000000" stroke="none">
<path d="M3632 6378 c-7 -7 -12 -16 -12 -21 0 -6 -6 -15 -13 -21 -16 -14 -70
-185 -137 -436 -39 -146 -86 -485 -95 -682 -4 -87 -8 -158 -10 -158 -1 0 -23
9 -48 20 -102 45 -360 87 -634 103 -82 5 -83 5 -107 -24 -14 -16 -39 -57 -56
-92 -18 -34 -56 -107 -85 -162 -54 -103 -116 -272 -157 -429 l-23 -88 -65 6
c-326 35 -514 41 -670 22 -210 -26 -261 -36 -268 -55 -3 -9 -18 -34 -33 -56
-14 -22 -35 -65 -47 -95 -11 -30 -36 -91 -54 -135 -88 -203 -112 -378 -113
-800 0 -176 3 -338 7 -360 l8 -41 -43 0 c-42 0 -223 -33 -329 -60 -32 -7 -66
-14 -76 -14 -19 0 -81 -26 -230 -96 -40 -19 -78 -34 -85 -34 -13 0 -46 -26
-66 -52 -11 -15 -8 -24 20 -64 18 -26 39 -54 48 -63 21 -22 73 -91 87 -117 13
-22 19 -234 8 -290 -6 -33 -7 -34 -54 -34 -65 0 -95 13 -116 49 -20 34 -46 44
-70 26 -17 -12 -16 -13 3 -19 12 -4 31 -22 44 -41 29 -42 67 -59 113 -51 18 4
46 2 61 -4 51 -19 56 -3 60 190 2 94 7 175 10 178 4 4 109 9 235 12 l229 5 33
30 c18 17 56 54 85 84 l52 53 138 -4 138 -3 125 -64 c69 -35 206 -105 305
-156 99 -50 195 -101 214 -113 19 -11 38 -19 42 -17 14 9 575 5 609 -4 19 -5
118 -44 220 -85 102 -42 193 -76 202 -76 9 0 23 -9 30 -19 13 -18 21 -19 138
-10 68 5 131 7 139 4 7 -3 197 1 420 9 223 8 611 18 861 21 267 3 513 11 595
20 77 7 298 17 490 20 193 4 420 11 505 16 85 5 282 13 437 18 l282 10 113
-58 c62 -32 138 -71 169 -87 40 -22 66 -29 91 -26 26 3 61 -9 144 -48 207 -98
139 -90 824 -98 333 -4 725 -7 873 -7 147 0 267 -3 267 -7 0 -4 27 -21 59 -37
32 -16 79 -40 103 -54 23 -13 75 -37 113 -53 39 -16 76 -35 84 -42 10 -10 29
-12 67 -7 42 5 60 2 92 -14 22 -11 63 -29 91 -40 28 -10 104 -50 169 -88 l117
-68 -47 -3 c-26 -2 -85 1 -130 7 -72 8 -97 17 -188 65 -58 31 -114 59 -124 62
-18 6 -102 44 -291 134 l-80 37 -275 6 c-151 3 -288 3 -303 0 l-29 -6 4 -149
3 -150 -175 -3 c-96 -2 -293 -7 -437 -10 -144 -4 -318 -4 -387 0 l-124 7 -4
96 c-2 53 -2 112 2 132 10 63 7 62 507 54 l445 -7 -7 -93 c-7 -95 1 -183 15
-167 13 14 19 271 6 282 -6 5 -230 12 -498 15 -393 6 -488 5 -494 -6 -5 -7
-10 -79 -12 -160 l-4 -148 -67 0 c-36 0 -103 -3 -149 -7 l-83 -6 2 132 c2 149
1 153 -66 149 -37 -3 -40 -5 -41 -33 -1 -16 -4 -70 -7 -120 -4 -49 -6 -98 -7
-107 0 -16 -13 -18 -134 -18 l-134 0 -6 54 c-4 30 -4 70 0 90 4 23 2 42 -6 50
-8 11 -8 20 -1 35 15 26 14 27 -11 51 -29 27 -52 25 -77 -6 -25 -32 -26 -47
-5 -68 8 -9 12 -21 8 -27 -4 -7 -6 -42 -5 -78 1 -36 -2 -71 -6 -77 -5 -8 -86
-14 -240 -19 l-232 -7 -3 118 -3 119 -31 3 c-21 2 -35 12 -48 33 -21 35 -46
34 -98 -4 l-30 -22 5 -134 c2 -76 1 -127 -4 -120 -5 8 -9 64 -9 126 0 124 -5
133 -69 133 -16 0 -33 4 -36 10 -3 5 -29 8 -58 6 -29 -3 -134 -8 -235 -11
-100 -4 -185 -11 -188 -16 -3 -5 -18 0 -34 11 -35 25 -41 25 -74 -1 -20 -16
-30 -19 -39 -10 -7 7 -73 11 -199 11 -226 0 -216 6 -222 -141 -2 -52 -4 -104
-5 -116 -1 -13 -7 -23 -16 -23 -12 0 -14 17 -9 108 2 59 7 117 9 128 9 43 -14
48 -217 47 -142 0 -192 -3 -198 -13 -5 -8 -19 -11 -43 -6 -49 9 -82 -18 -73
-60 4 -16 16 -35 27 -43 18 -11 24 -9 46 11 l26 23 -7 -90 c-4 -49 -10 -93
-12 -97 -3 -4 -35 -8 -71 -8 l-66 0 6 134 c5 97 4 137 -5 142 -6 4 -66 7 -134
6 -159 -1 -161 -3 -163 -120 -1 -47 -3 -88 -6 -90 -3 -3 -5 42 -5 101 l0 106
-32 6 c-18 3 -53 6 -78 8 l-45 2 -8 -140 c-5 -77 -10 -142 -12 -144 -2 -2
-118 0 -257 4 l-253 7 -3 56 c-5 84 -6 85 -152 82 -173 -4 -164 -5 -144 25 24
37 12 72 -28 78 -18 2 -38 1 -45 -5 -18 -15 -26 -60 -11 -69 10 -6 10 -15 2
-36 -6 -16 -8 -53 -4 -86 3 -32 4 -60 1 -62 -15 -16 -21 4 -22 73 0 42 -4 100
-7 127 l-7 50 -45 -3 c-25 -1 -67 2 -94 7 -34 6 -57 6 -74 -2 -16 -8 -27 -8
-29 -2 -2 6 -39 9 -92 7 -87 -3 -89 -4 -97 -30 -4 -15 -8 -71 -8 -125 -1 -78
2 -101 14 -108 10 -5 -9 -8 -53 -9 l-69 0 5 94 c4 89 3 95 -18 106 -12 7 -31
10 -41 8 -17 -3 -19 -13 -18 -106 l0 -102 -55 -1 c-57 -1 -580 4 -681 6 -30 1
-157 2 -281 3 l-226 2 -83 79 c-49 46 -80 83 -76 90 15 24 -5 49 -50 60 -25 6
-49 9 -54 6 -5 -3 -17 6 -26 21 -15 23 -23 25 -63 22 -53 -5 -58 -2 -196 108
-50 39 -101 76 -112 83 -30 16 -290 15 -322 -2 -48 -25 -16 -32 141 -33 l157
-1 83 -63 c46 -35 85 -67 88 -70 3 -3 26 -23 52 -43 41 -34 51 -37 82 -31 42
7 80 -13 98 -51 6 -13 26 -30 44 -37 18 -7 75 -51 126 -96 l93 -83 400 -4
c220 -3 441 -7 490 -10 96 -5 917 10 1225 22 102 5 241 7 310 6 69 0 397 -5
730 -10 333 -5 878 -8 1213 -8 463 0 607 -3 607 -12 0 -18 -20 -27 -33 -14
-12 12 -50 15 -60 5 -3 -4 -42 -7 -87 -8 -60 -1 -83 -5 -90 -16 -12 -19 -13
-57 -2 -64 5 -3 50 -6 101 -7 54 -1 103 -8 118 -16 21 -11 28 -11 35 -1 12 19
10 29 -8 49 -16 17 -15 19 9 28 14 5 27 16 30 23 4 10 8 9 18 -3 8 -9 20 -18
27 -20 8 -3 4 -12 -12 -30 -37 -40 -50 -69 -36 -83 8 -8 15 -7 24 7 7 9 18 17
25 17 6 0 11 7 11 15 0 8 5 15 10 15 6 0 10 9 10 20 0 11 5 19 11 17 26 -5 17
19 -12 32 -22 10 -29 19 -27 35 3 23 15 25 301 42 121 7 127 6 127 -12 0 -31
-15 -47 -39 -39 -11 3 -21 11 -21 16 0 5 -8 9 -17 9 -13 0 -14 -3 -5 -12 7 -7
12 -19 12 -27 0 -12 -3 -12 -17 1 -27 23 -67 27 -141 12 -96 -20 -93 -18 -81
-53 14 -39 44 -49 164 -54 75 -3 106 0 123 11 24 16 29 38 10 45 -22 8 29 49
52 42 21 -7 28 -25 10 -25 -5 0 -10 -11 -10 -25 0 -17 -6 -25 -17 -25 -21 0
-46 -47 -32 -56 6 -3 16 0 24 6 8 6 19 9 25 5 6 -3 10 3 10 14 0 14 6 21 19
21 26 0 36 17 14 23 -15 4 -15 6 5 12 12 4 22 11 22 14 0 9 -27 37 -52 54 -12
8 -16 19 -12 35 6 20 12 22 75 22 65 0 80 -6 62 -24 -13 -13 -9 -136 3 -136 7
0 14 -7 18 -15 7 -20 32 -19 40 0 4 12 10 13 24 6 11 -6 24 -6 36 1 10 6 37 8
60 5 54 -8 69 2 64 42 -4 38 12 50 55 42 29 -6 51 -31 28 -31 -6 0 -11 -7 -11
-15 0 -9 -9 -15 -25 -15 -28 0 -50 -32 -40 -58 6 -15 9 -14 25 6 10 12 27 21
37 20 43 -3 54 2 48 22 -5 14 -2 20 9 20 23 0 20 26 -5 44 -18 12 -20 19 -12
43 l10 28 181 0 c142 1 182 -2 182 -12 0 -7 -9 -13 -20 -13 -26 0 -26 -24 -1
-71 13 -24 16 -40 10 -51 -6 -11 -5 -19 2 -24 15 -9 50 37 43 56 -18 46 -17
50 15 50 26 0 31 -4 31 -25 0 -14 -9 -34 -20 -45 -21 -21 -27 -60 -11 -60 6 0
18 14 28 30 14 24 23 30 39 26 18 -5 22 -1 22 19 0 13 -7 26 -14 29 -20 8 -17
30 7 52 l20 18 -21 8 c-38 14 -11 28 54 28 35 0 124 -3 199 -7 142 -6 151 -10
123 -48 -13 -18 -14 -18 -32 3 -10 12 -25 22 -32 22 -12 0 -12 -3 -2 -15 7 -8
10 -25 7 -37 -4 -15 1 -30 15 -45 21 -23 21 -23 2 -39 -18 -15 -18 -15 4 -11
17 4 22 1 22 -14 0 -21 15 -25 26 -8 3 6 17 8 30 5 17 -5 24 -2 24 8 0 8 14
17 30 21 32 7 41 25 13 25 -14 0 -13 3 6 16 17 13 25 14 31 5 11 -20 77 -31
194 -36 75 -3 112 -8 118 -17 7 -10 11 -9 22 5 17 22 22 22 29 -3 5 -20 27
-28 27 -10 0 5 7 7 16 3 10 -4 22 1 30 12 11 15 28 18 98 18 71 -1 88 3 102
19 29 32 0 49 -98 59 -46 4 -84 8 -86 8 -1 1 0 12 4 26 7 29 -6 32 -29 7 -21
-23 -21 -36 -1 -67 15 -22 14 -24 -11 -41 -25 -17 -28 -17 -37 -1 -5 9 -16 17
-23 17 -8 0 -15 8 -15 19 0 13 9 20 29 24 24 5 31 13 36 40 l7 34 74 6 c40 4
143 4 229 0 142 -6 155 -8 155 -25 0 -19 -34 -26 -45 -8 -9 15 -25 2 -25 -21
0 -16 -7 -19 -45 -19 -39 0 -45 -3 -51 -25 -7 -28 10 -55 33 -55 17 0 76 -31
81 -42 6 -13 30 -9 35 5 3 9 9 9 26 0 27 -16 31 -16 31 1 0 9 7 12 19 9 10 -3
22 0 25 6 4 6 0 11 -11 11 -15 0 -16 2 -3 10 9 6 17 5 21 -1 4 -7 70 -9 188
-7 167 3 181 2 181 -14 0 -22 28 -24 36 -3 4 8 12 15 19 15 7 0 15 -7 19 -15
6 -17 51 -20 61 -5 3 6 -1 10 -10 10 -9 0 -13 5 -10 10 3 6 15 10 25 10 24 0
37 20 19 31 -7 4 -10 11 -6 15 4 4 2 13 -5 21 -8 10 -8 17 0 25 17 17 15 25
-10 32 -87 22 175 50 382 40 63 -3 117 -7 119 -10 3 -2 -5 -14 -16 -26 -21
-20 -23 -21 -48 -4 -31 20 -45 14 -28 -13 8 -13 9 -21 1 -29 -8 -8 -8 -15 1
-26 7 -8 9 -25 6 -39 -9 -33 10 -43 29 -15 l16 22 0 -26 c0 -33 15 -44 29 -21
8 14 12 16 22 6 17 -17 32 -17 26 0 -4 10 3 12 24 9 17 -3 29 0 29 7 0 6 -7
11 -15 11 -20 0 -19 10 1 25 14 10 15 14 3 33 -8 12 -19 22 -26 22 -15 0 -17
19 -4 39 7 10 46 14 167 16 88 2 277 6 422 10 253 7 262 8 262 28 0 19 -4 20
-315 12 -200 -4 -315 -3 -315 3 0 5 -19 17 -43 26 -23 8 -92 43 -152 77 -207
117 -275 147 -345 153 -86 9 -104 14 -174 48 -33 15 -63 28 -68 28 -11 0 -167
89 -190 108 -13 11 -62 13 -255 10 -131 -1 -530 0 -888 4 l-650 6 -134 67
c-73 36 -140 73 -149 81 -9 10 -23 13 -36 9 -39 -12 -69 -5 -140 34 -39 21
-105 57 -146 79 l-76 41 -234 0 c-129 1 -287 -4 -350 -9 -63 -6 -315 -14 -560
-20 -245 -5 -463 -11 -485 -14 -162 -21 -339 -28 -910 -37 -357 -5 -801 -13
-985 -19 l-335 -9 -80 29 c-91 32 -230 87 -325 129 -66 30 -127 47 -145 42 -5
-1 -134 -3 -285 -3 l-275 1 -330 173 -330 173 -144 5 -144 5 -83 -84 c-101
-101 -93 -99 -382 -102 l-210 -2 -33 38 c-19 21 -38 43 -44 49 -5 6 -22 29
-38 51 -32 47 -28 53 57 81 28 9 84 32 123 51 112 53 123 37 19 -27 -49 -30
-91 -60 -93 -67 -6 -19 59 -23 317 -19 225 3 248 5 281 24 20 11 47 26 60 34
13 7 27 17 31 22 4 6 65 6 161 -1 166 -12 189 -19 287 -87 51 -35 201 -126
208 -126 10 0 144 -67 216 -108 71 -41 87 -46 150 -49 39 -1 92 -5 117 -9 l45
-6 12 40 c17 57 30 60 24 6 l-5 -46 149 7 c135 5 156 4 219 -15 39 -12 97 -30
130 -40 33 -10 98 -32 145 -48 182 -65 205 -69 344 -65 71 1 134 7 140 12 19
14 176 22 511 26 176 2 435 6 575 9 530 12 740 17 895 21 88 3 374 7 635 11
261 3 478 8 481 10 3 1 130 4 282 5 l276 1 29 -23 c16 -13 42 -33 57 -44 15
-11 42 -30 58 -42 17 -13 41 -23 53 -23 12 0 33 -9 46 -20 20 -15 32 -18 55
-11 23 7 40 4 69 -11 81 -40 189 -104 207 -123 17 -16 68 -6 97 20 17 16 116
33 254 44 75 6 80 7 87 32 3 15 24 42 45 61 36 34 43 36 148 46 62 7 436 14
851 18 941 8 1130 14 1147 37 11 15 18 15 48 6 50 -16 718 -25 733 -10 28 28
-12 33 -274 33 -267 0 -426 12 -584 44 -137 28 -288 55 -335 61 l-46 5 18 87
c44 205 68 349 94 551 29 229 33 265 38 329 3 37 10 68 18 72 10 6 10 15 1 40
-15 39 -9 52 20 43 21 -6 21 -5 5 12 -14 15 -21 16 -43 6 -21 -10 -24 -16 -19
-39 6 -21 4 -25 -8 -21 -13 5 -16 -13 -22 -114 -6 -111 -40 -402 -66 -573 -14
-95 -48 -226 -49 -193 -1 14 -6 28 -12 30 -8 3 -8 47 0 158 6 85 16 225 21
310 5 85 15 193 21 239 7 59 8 91 0 107 -9 20 -6 24 19 36 31 13 42 48 15 48
-8 0 -15 5 -15 10 0 6 11 10 25 10 20 0 25 -5 25 -25 0 -16 6 -25 16 -25 12 0
14 7 9 33 -4 17 -9 35 -12 40 -6 10 -41 9 -63 -3 -29 -16 -31 3 -4 35 13 15
24 36 24 47 0 10 6 18 14 18 7 0 19 7 26 15 12 14 15 14 30 0 23 -21 43 -19
68 8 27 29 28 41 3 27 -30 -15 -38 -12 -45 15 -6 24 -26 35 -26 14 0 -5 -5 -7
-10 -4 -6 3 -14 -5 -20 -19 -11 -29 -54 -36 -64 -11 -8 23 -28 18 -21 -5 5
-14 2 -20 -9 -20 -9 0 -16 -4 -16 -10 0 -5 -20 -10 -45 -10 -36 0 -45 3 -45
18 0 32 -49 175 -71 207 -19 27 -33 34 -102 49 -69 16 -108 18 -276 12 -108
-3 -209 -7 -226 -8 -29 -3 -30 -2 -29 37 1 22 5 124 9 226 8 198 1 347 -18
373 -15 21 -216 70 -395 98 -147 23 -451 30 -625 16 -78 -7 -88 -6 -94 10 -23
59 -200 305 -311 432 -31 36 -96 101 -145 145 -49 44 -101 91 -116 104 -14 13
-91 78 -171 145 -80 66 -147 124 -150 127 -3 4 -29 21 -58 39 -49 30 -56 31
-79 19 -28 -15 -75 -84 -117 -174 -15 -33 -36 -71 -46 -85 -20 -29 -97 -179
-133 -260 -20 -44 -121 -338 -133 -386 -1 -7 -27 -15 -56 -19 -59 -7 -216 -52
-235 -67 -19 -15 -28 -4 -87 95 -30 51 -89 139 -131 197 -42 58 -88 123 -103
145 -60 90 -435 491 -502 538 -25 17 -43 31 -211 168 -52 42 -110 87 -130 100
-20 13 -82 54 -137 92 -56 37 -113 72 -127 79 -14 6 -25 14 -25 18 0 13 -316
154 -390 175 -14 3 -63 22 -110 40 -138 55 -269 85 -436 99 -48 4 -74 2 -82
-6z m235 -59 c105 -24 463 -147 583 -201 68 -30 258 -134 270 -147 3 -4 25
-19 50 -36 214 -140 446 -325 605 -481 111 -109 275 -282 307 -324 101 -132
295 -415 325 -473 17 -33 146 -235 162 -254 18 -20 188 -376 211 -440 24 -68
41 -81 67 -55 51 51 243 181 398 269 94 53 427 210 518 243 304 111 616 159
940 147 153 -6 336 -27 402 -46 17 -5 58 -15 93 -21 l63 -13 -70 -71 c-97
-100 -222 -234 -262 -281 -19 -22 -38 -45 -44 -51 -21 -25 -49 -59 -82 -103
-19 -25 -54 -68 -77 -96 -23 -27 -66 -84 -96 -125 -29 -41 -56 -77 -59 -80
-11 -9 -88 -114 -122 -166 -87 -132 -151 -224 -158 -228 -4 -3 -50 11 -102 30
-169 63 -295 90 -566 119 -60 7 -62 6 -67 -17 -68 -298 -100 -577 -111 -957
-2 -84 -6 -155 -8 -157 -8 -8 -247 299 -247 317 0 3 -25 48 -56 98 -95 159
-148 286 -208 506 -17 63 -50 221 -91 440 -33 174 -33 172 -51 179 -20 8 -202
-87 -389 -203 -138 -86 -177 -110 -263 -158 -97 -55 -372 -240 -448 -303 -7
-5 -88 -60 -180 -122 -179 -120 -495 -347 -604 -433 -36 -28 -99 -71 -140 -95
-66 -39 -117 -77 -195 -145 -13 -11 -59 -51 -103 -90 -45 -38 -84 -78 -87 -87
-6 -16 -26 -18 -219 -18 l-214 0 -10 43 c-6 24 -16 117 -22 207 -7 91 -22 289
-36 440 -64 735 -80 1381 -54 2175 16 485 46 686 164 1095 58 198 43 180 147
180 49 0 110 -5 136 -11z m3123 -833 c36 -28 88 -70 116 -95 27 -26 79 -71
114 -101 136 -118 157 -137 231 -210 42 -41 93 -97 114 -124 21 -28 42 -55 47
-60 45 -54 203 -295 196 -300 -8 -6 -112 -26 -132 -26 -35 0 -340 -103 -436
-147 -47 -22 -105 -48 -130 -59 -90 -38 -276 -133 -320 -163 -25 -17 -49 -31
-53 -31 -8 0 -179 -112 -256 -168 -55 -40 -67 -40 -74 -2 -4 16 -16 51 -28 77
-59 129 -59 129 -48 191 31 169 157 628 203 733 8 19 26 63 41 99 32 77 101
215 125 250 9 14 38 66 64 115 69 130 69 130 120 97 22 -15 70 -49 106 -76z
m-4065 -377 c144 -12 305 -46 389 -83 l55 -24 -6 -494 -6 -493 -39 -50 c-22
-27 -60 -77 -84 -110 -25 -33 -62 -79 -81 -103 -41 -49 -196 -258 -288 -388
-22 -31 -51 -68 -64 -83 -48 -51 -200 -269 -276 -396 -12 -19 -32 -47 -46 -62
-78 -89 -154 -204 -218 -333 -39 -79 -71 -150 -71 -157 0 -8 -17 -10 -62 -6
-35 2 -65 7 -68 10 -3 2 -7 109 -8 236 -3 185 0 272 17 427 11 107 23 222 27
255 7 83 32 271 50 385 55 345 77 461 120 605 14 50 32 115 40 145 61 232 123
399 207 560 104 201 82 181 190 175 50 -3 151 -10 222 -16z m3442 -481 c-3
-18 -12 -58 -22 -88 -9 -30 -20 -75 -25 -100 -10 -51 -29 -111 -40 -123 -4 -4
-22 21 -40 55 -18 35 -53 93 -77 129 -24 36 -43 71 -43 76 0 21 165 80 229 82
21 1 23 -2 18 -31z m2567 -224 c10 -75 -11 -752 -27 -853 -11 -68 -15 -75 -40
-84 -16 -5 -31 -6 -35 -2 -4 3 -8 106 -9 228 -4 375 -12 506 -34 528 -10 10
-26 19 -35 19 -8 0 -85 -71 -171 -157 -86 -87 -152 -151 -148 -143 23 42 145
187 260 309 170 181 211 220 220 217 6 -1 14 -29 19 -62z m-7019 -34 c268 -18
301 -21 313 -29 10 -6 6 -32 -17 -112 -29 -103 -47 -190 -91 -441 -11 -64 -14
-67 -58 -96 -26 -16 -87 -64 -137 -106 -49 -43 -102 -87 -117 -99 -14 -12 -57
-51 -95 -87 -38 -36 -92 -84 -119 -107 -47 -40 -179 -164 -292 -276 -60 -58
-105 -138 -136 -242 -20 -66 -24 -70 -53 -73 l-31 -3 -7 83 c-3 46 -11 121
-16 167 -5 46 -10 196 -10 335 0 342 26 546 94 733 38 103 115 275 133 294 18
21 104 38 273 54 166 17 179 17 366 5z m6852 -445 c4 -127 7 -290 5 -363 -3
-119 -5 -133 -20 -130 -15 3 -19 27 -29 178 -6 96 -14 245 -18 330 -4 85 -12
160 -17 166 -11 14 51 69 63 57 5 -5 12 -112 16 -238z m-88 -52 c7 -120 16
-272 20 -338 8 -120 5 -134 -25 -135 -16 0 -21 24 -33 180 -6 74 -17 207 -24
295 l-14 160 25 28 c14 15 29 27 32 27 4 0 13 -98 19 -217z m-95 95 c6 -37 17
-177 21 -253 2 -27 8 -106 15 -175 6 -69 13 -134 13 -144 2 -13 -6 -20 -25
-23 -20 -3 -28 1 -28 12 0 30 -31 308 -35 315 -2 3 -11 48 -20 100 -9 52 -21
100 -26 106 -9 11 54 94 71 94 5 0 11 -15 14 -32z m-5214 -135 c1 -200 35
-720 69 -1058 9 -88 30 -412 34 -530 l2 -60 -33 -3 c-24 -2 -34 1 -38 15 -3
10 -12 32 -20 48 -8 17 -18 54 -24 84 -5 29 -17 76 -26 105 -9 28 -17 62 -19
75 -4 30 -19 39 -75 46 -25 3 -72 10 -105 15 -160 25 -478 50 -627 50 l-98 0
-26 -42 c-15 -23 -37 -65 -50 -93 -13 -27 -32 -63 -44 -80 -20 -28 -21 -28
-14 -5 21 78 116 252 177 325 53 64 163 219 260 369 19 29 90 124 151 201 30
39 78 102 106 140 27 39 67 93 88 122 40 55 124 165 132 173 6 6 46 58 114
148 26 34 52 62 57 62 5 0 9 -48 9 -107z m5125 -32 c8 -45 17 -86 20 -90 3 -5
12 -71 20 -148 8 -76 17 -154 20 -174 4 -33 2 -38 -25 -49 -17 -7 -32 -11 -34
-9 -3 4 -15 82 -52 319 -8 52 -19 110 -25 128 -8 26 -8 38 4 56 20 30 48 58
53 53 3 -2 11 -41 19 -86z m969 11 c2 -4 -9 -23 -26 -42 -38 -45 -149 -169
-165 -186 -7 -7 -13 -17 -13 -22 0 -6 -24 -15 -52 -22 -29 -6 -80 -17 -113
-25 -114 -26 -127 -27 -134 -16 -4 6 -4 43 0 83 4 40 8 103 8 140 l1 67 63 14
c67 16 422 24 431 9z m-3098 -43 c1 -7 10 -59 19 -114 9 -55 24 -129 35 -165
10 -36 21 -90 25 -120 18 -152 110 -433 191 -585 9 -16 39 -72 66 -124 28 -52
66 -112 86 -133 19 -21 43 -49 51 -62 26 -40 84 -121 90 -126 3 -3 21 -22 39
-41 l33 -36 -25 -5 c-22 -4 -32 3 -68 54 -24 33 -63 87 -88 121 -25 34 -55 80
-67 102 -16 30 -29 41 -50 43 -25 2 -174 -18 -588 -79 -125 -19 -284 -40 -448
-59 -42 -5 -105 -14 -138 -20 -147 -27 -220 -15 -449 70 -74 28 -180 67 -235
87 -55 19 -112 42 -127 49 -43 22 -63 17 -108 -26 -23 -22 -63 -52 -88 -67
-26 -15 -65 -42 -88 -60 -23 -18 -46 -33 -51 -33 -6 0 -30 -17 -54 -38 -24
-20 -73 -59 -109 -86 -36 -28 -85 -68 -109 -90 -25 -22 -46 -35 -48 -29 -2 6
17 31 43 55 26 24 68 64 95 89 26 25 67 58 90 75 33 22 270 196 344 251 6 5
35 25 65 45 57 39 115 82 216 158 32 24 88 64 124 87 36 24 74 50 85 58 11 7
65 45 120 84 55 38 108 76 117 83 81 62 352 238 468 304 52 29 133 78 180 108
115 75 333 196 344 193 5 -2 10 -10 12 -18z m2042 -61 c6 -40 16 -95 22 -123
5 -27 17 -93 25 -145 8 -52 18 -103 21 -112 3 -11 -2 -19 -15 -23 -28 -9 -38
0 -46 38 -14 70 -46 197 -56 224 -6 15 -17 53 -24 83 -13 54 -13 55 17 92 16
21 33 38 37 38 4 0 12 -33 19 -72z m1170 45 c6 -16 18 -53 25 -83 8 -30 18
-63 22 -72 6 -16 -1 -18 -76 -18 -46 0 -113 -5 -149 -10 -35 -5 -66 -7 -68 -5
-5 5 88 114 146 172 51 51 84 56 100 16z m-1258 -148 c12 -33 26 -76 31 -95
12 -48 49 -213 49 -220 0 -6 -45 -30 -55 -30 -3 0 -5 9 -5 20 0 10 -16 68 -35
127 -19 59 -35 122 -35 140 0 17 -4 35 -10 38 -5 3 -10 12 -10 19 0 13 40 70
45 64 2 -2 13 -30 25 -63z m-6239 -47 c-35 -280 -51 -423 -72 -653 -5 -55 -9
-202 -10 -327 0 -126 -3 -228 -6 -228 -15 0 -73 43 -77 58 -14 49 -46 239 -46
276 0 24 -6 48 -12 53 -7 6 -74 24 -148 42 -74 17 -146 36 -160 40 -14 5 -43
13 -65 19 -22 6 -66 18 -98 27 -32 9 -62 14 -65 10 -4 -4 -16 -43 -27 -88 -18
-74 -22 -82 -45 -85 -45 -4 -52 9 -34 64 32 94 66 159 102 199 82 88 271 273
332 325 36 30 92 80 125 111 33 31 98 88 145 125 47 37 103 83 124 103 23 20
41 30 44 23 2 -6 -1 -49 -7 -94z m6166 -35 c15 -65 60 -234 68 -255 5 -12 -2
-21 -23 -32 -31 -16 -42 -13 -42 13 0 8 -14 53 -31 100 -48 136 -49 142 -38
163 13 25 42 58 49 58 3 0 11 -21 17 -47z m1527 -24 c-9 -17 -14 -42 -11 -56
4 -20 -4 -30 -52 -60 -63 -41 -292 -173 -299 -173 -3 0 -32 -24 -66 -53 -34
-29 -74 -61 -89 -71 -27 -17 -37 -25 -97 -76 -14 -12 -61 -46 -105 -76 -44
-29 -111 -76 -150 -104 -38 -28 -82 -59 -97 -69 -16 -10 -45 -33 -65 -52 -88
-80 -151 -129 -166 -129 -9 0 -18 -3 -21 -8 -2 -4 -26 -22 -53 -40 -44 -31
-43 -29 22 32 38 36 73 66 78 66 4 0 63 47 130 105 67 57 183 146 257 196 74
51 137 95 140 98 3 4 25 21 50 39 25 18 99 73 165 121 66 48 136 96 155 106
19 10 78 47 130 84 51 36 99 69 104 73 8 5 8 10 0 18 -15 15 -318 -177 -544
-344 -102 -75 -223 -163 -270 -194 -73 -48 -125 -89 -262 -208 -15 -13 -55
-44 -90 -69 -34 -26 -80 -64 -102 -85 -41 -38 -61 -57 -151 -135 -68 -59 -148
-139 -255 -256 -159 -173 -153 -169 -230 -169 -60 0 -66 2 -67 21 -3 32 48
217 67 244 4 6 21 55 39 110 50 152 101 296 119 334 8 18 27 68 42 110 98 276
87 259 195 314 49 25 146 70 215 100 69 30 151 67 183 81 72 34 249 91 308
101 24 4 109 23 189 42 165 40 333 60 533 62 l138 1 -17 -31z m-1614 -64 c0
-12 50 -178 67 -221 2 -6 -8 -16 -22 -22 -30 -14 -46 -15 -43 -4 3 9 -22 83
-32 97 -4 6 -14 29 -24 53 -16 43 -16 43 11 82 27 37 43 43 43 15z m-718 -80
c146 -22 322 -75 456 -137 37 -17 91 -40 121 -52 30 -12 56 -27 58 -33 3 -7
-35 -38 -84 -69 -48 -31 -100 -66 -115 -78 -15 -11 -44 -34 -65 -51 -86 -68
-394 -369 -464 -455 -30 -36 -61 -72 -70 -80 -35 -32 -137 -166 -144 -189 -7
-23 -8 -23 -24 -5 -15 17 -16 45 -10 319 4 165 12 341 18 390 25 216 52 402
62 433 l11 35 79 -7 c43 -3 120 -13 171 -21z m2335 -57 c-12 -117 -26 -372
-31 -548 -3 -96 -10 -190 -15 -209 -6 -19 -8 -38 -5 -43 9 -14 -5 -78 -16 -78
-6 0 -10 7 -10 15 0 8 -11 25 -23 38 -41 40 -51 127 -36 307 7 85 14 216 15
291 1 75 5 145 8 155 7 24 -7 48 -25 42 -10 -3 -14 -45 -14 -189 -2 -188 -11
-349 -25 -429 -13 -70 -6 -112 34 -190 42 -84 134 -226 165 -254 31 -28 26
-36 -21 -36 -37 0 -46 4 -64 33 -134 202 -184 281 -184 290 0 6 -7 18 -16 28
-18 20 -20 149 -5 474 6 137 5 192 -3 197 -14 9 8 26 107 79 42 23 92 52 110
65 53 38 61 33 54 -38z m-298 -293 c-4 -104 -8 -251 -9 -325 -1 -162 -17 -127
203 -458 15 -23 27 -44 27 -47 0 -3 -29 -5 -64 -5 -56 0 -66 3 -71 20 -4 11
-17 32 -29 48 -26 31 -31 40 -103 183 l-52 104 4 304 5 305 47 33 c25 18 47
32 48 30 1 -1 -2 -87 -6 -192z m-121 -51 c2 -71 -2 -188 -9 -261 -6 -73 -8
-141 -3 -150 4 -10 9 -25 10 -33 2 -19 77 -153 142 -255 l51 -80 -52 -3 c-46
-3 -54 0 -73 24 -26 32 -144 268 -144 287 0 7 -6 22 -14 32 -10 15 -12 64 -9
239 2 121 7 224 10 230 4 5 1 12 -5 14 -7 2 -12 8 -12 14 0 11 25 38 35 38 4
0 18 9 32 20 14 11 28 18 32 16 3 -2 7 -62 9 -132z m-1364 -1 c-62 -83 -63
-84 -137 -214 -27 -46 -61 -104 -77 -129 -37 -57 -110 -203 -110 -220 0 -7 -7
-10 -16 -6 -9 3 -81 6 -160 6 -79 0 -144 3 -144 8 1 27 353 385 480 488 80 64
213 155 218 149 2 -2 -22 -39 -54 -82z m50 -29 c-15 -33 -32 -70 -39 -84 -7
-14 -45 -122 -85 -240 -40 -118 -77 -224 -83 -235 -17 -31 -77 -203 -96 -273
-10 -35 -22 -63 -27 -63 -23 1 -32 319 -10 359 8 15 36 70 61 122 26 52 69
127 96 165 27 39 57 86 65 105 9 19 37 67 62 105 79 122 101 137 56 39z m1180
-41 c4 -60 3 -160 -2 -223 -8 -94 -7 -118 4 -131 8 -9 25 -44 39 -78 32 -83
95 -211 116 -236 9 -11 19 -28 22 -38 6 -16 1 -18 -40 -15 -46 3 -46 3 -63 55
-9 28 -33 79 -53 113 -20 34 -37 64 -37 66 0 13 -50 113 -59 119 -31 19 19
-115 87 -232 22 -38 42 -80 46 -95 6 -28 6 -28 -48 -28 -53 0 -55 1 -61 33 -4
17 -11 37 -16 43 -5 6 -18 35 -28 65 -10 30 -37 92 -59 139 l-41 85 -3 145
c-1 80 1 150 5 157 4 6 3 14 -3 18 -13 8 5 27 48 49 l32 16 -5 -42 c-17 -161
-11 -348 12 -355 18 -6 23 27 15 107 -4 41 -5 120 -2 175 3 55 2 105 -3 112
-5 7 5 21 30 40 21 15 40 31 41 36 12 26 21 -7 26 -100z m-8199 -124 c4 -44 6
-81 4 -83 -2 -1 -31 -16 -64 -33 l-61 -32 -247 -2 c-136 -1 -251 1 -254 5 -4
3 1 6 10 6 10 0 17 4 17 9 0 6 47 33 105 61 58 28 105 57 105 65 0 13 82 35
215 56 39 6 88 14 110 19 22 4 43 8 46 9 4 0 10 -35 14 -80z m450 47 c66 -18
172 -46 236 -62 l116 -29 16 -105 c9 -58 19 -126 23 -152 l6 -47 -68 26 c-38
14 -78 30 -89 36 -11 6 -36 19 -55 30 -60 32 -79 43 -97 59 -49 41 -202 128
-226 128 -31 0 -32 8 -12 65 8 22 15 50 15 63 0 12 4 22 8 22 4 0 61 -15 127
-34z m7523 -138 l3 -161 74 -151 c101 -207 99 -196 31 -196 -55 0 -56 1 -72
38 -17 40 -55 146 -80 227 -9 28 -20 55 -24 60 -11 14 -19 86 -21 175 -1 41
-6 81 -12 88 -5 7 -8 14 -6 17 17 16 86 64 94 64 6 1 11 -61 13 -161z m-124
20 c3 -29 6 -78 6 -108 0 -31 6 -64 13 -75 7 -11 19 -44 26 -73 13 -53 60
-180 88 -240 9 -18 13 -35 11 -38 -3 -2 -23 -2 -45 2 -29 4 -43 13 -58 37 -22
38 -65 138 -65 153 0 6 -10 40 -21 75 -14 42 -23 94 -24 150 -1 48 -5 91 -9
97 -10 16 2 36 32 54 15 9 30 17 33 17 3 1 9 -23 13 -51z m-104 -109 c0 -85 4
-101 95 -336 19 -49 28 -83 21 -83 -6 0 -20 -3 -32 -6 -17 -5 -24 1 -37 33 -8
21 -29 69 -47 106 -37 81 -60 179 -60 264 0 51 4 66 22 83 12 11 25 20 30 20
4 0 8 -37 8 -81z m-6090 -4 c200 -8 445 -32 503 -50 81 -24 104 -43 117 -94 6
-25 15 -60 20 -77 6 -16 13 -65 16 -106 l7 -77 -34 -6 c-19 -3 -83 -4 -144 -2
-107 5 -200 26 -283 63 -38 18 -106 38 -214 63 -42 9 -83 23 -91 29 -9 8 -49
9 -135 4 -113 -7 -122 -6 -122 11 0 27 38 133 71 199 l30 59 57 -5 c31 -3 122
-8 202 -11z m2140 -29 c69 -25 188 -68 265 -96 237 -88 266 -92 467 -61 68 10
173 24 233 30 61 7 160 20 220 31 133 23 136 24 350 54 94 14 211 28 260 31
l91 7 31 -48 c18 -27 57 -86 87 -132 31 -45 56 -87 56 -91 0 -23 -105 -30
-464 -31 -154 -1 -414 -6 -576 -11 -162 -5 -495 -12 -740 -14 -245 -3 -535 -9
-645 -13 -223 -9 -281 -9 -290 -1 -7 8 63 75 120 117 22 16 51 41 64 56 14 14
29 26 35 26 9 0 84 47 96 61 9 10 94 64 125 79 16 8 37 23 47 33 10 9 24 17
31 17 6 0 68 -20 137 -44z m3853 -23 c7 -68 53 -213 93 -298 16 -33 30 -63 32
-67 2 -5 -28 -8 -67 -8 -67 0 -72 2 -81 25 -13 33 -56 200 -64 248 -5 24 -12
37 -23 37 -11 0 -14 -7 -11 -22 3 -13 18 -78 33 -146 15 -67 26 -124 24 -127
-2 -2 -32 -7 -65 -10 l-61 -7 -6 68 c-4 38 -7 95 -7 126 0 39 -5 60 -14 65
-16 9 34 54 134 120 30 20 57 40 58 45 9 23 20 2 25 -49z m-230 -240 c3 -65 4
-120 1 -122 -9 -10 -267 -22 -275 -14 -5 5 20 36 62 74 39 35 96 90 127 121
32 31 62 57 68 57 7 1 13 -40 17 -116z m-797 51 c6 -8 14 -85 18 -180 4 -91
10 -173 13 -182 5 -12 0 -14 -30 -8 -42 8 -212 90 -243 118 -15 13 -42 20 -90
24 -89 6 -130 29 -126 70 3 27 73 136 104 161 29 24 335 21 354 -3z m2289 -93
c55 -10 133 -24 173 -31 39 -7 72 -16 72 -20 0 -4 -68 -10 -151 -14 -144 -7
-152 -6 -170 13 -11 11 -19 25 -19 31 0 5 -4 10 -10 10 -5 0 -10 7 -10 15 0
19 -5 19 115 -4z m-460 -591 c28 -10 77 -32 110 -48 33 -16 89 -42 125 -57
124 -51 205 -90 224 -107 11 -10 27 -19 35 -20 64 -6 -220 -18 -615 -24 l-471
-7 -6 39 c-8 49 -9 192 -1 221 8 28 18 29 314 25 199 -3 243 -6 285 -22z
m-5415 -51 c32 -11 32 -13 26 -57 -3 -25 -6 -76 -6 -113 l0 -69 -46 0 -47 0 6
40 c3 22 1 43 -5 46 -9 6 -2 139 9 157 6 10 25 9 63 -4z m909 -13 c11 -8 12
-30 7 -106 -4 -52 -7 -103 -7 -112 0 -17 -16 -18 -185 -18 l-185 0 3 120 3
120 135 6 c74 3 136 6 137 8 6 6 80 -8 92 -18z m1039 -1 c5 -24 31 -55 46 -55
6 0 24 11 40 25 16 14 37 25 48 25 16 0 18 -10 18 -108 l0 -109 -138 -11 c-76
-7 -194 -12 -263 -12 l-124 0 3 130 3 129 142 4 c222 5 221 5 225 -18z m-1610
3 c13 -13 15 -69 5 -170 l-6 -68 -103 0 c-56 0 -108 2 -116 5 -10 4 -12 31
-10 119 3 98 6 115 20 119 39 11 198 7 210 -5z m1072 -10 c1 -32 25 -61 52
-63 22 -2 23 -6 26 -88 l3 -87 -134 0 c-74 0 -181 3 -239 6 l-105 7 -2 107
c-2 78 1 109 11 118 16 13 52 16 241 20 l147 4 0 -24z m-2484 -13 c8 -2 12
-40 13 -109 l2 -106 -89 0 -89 0 -2 113 -2 112 78 -3 c43 -2 83 -5 89 -7z
m3391 -30 c1 -22 0 -68 -3 -103 l-6 -63 -66 3 -67 3 -3 92 -3 91 39 -5 c28 -4
42 -1 52 11 7 10 23 16 34 14 17 -2 21 -11 23 -43z m-3629 -82 l3 -113 -70 0
c-54 0 -70 4 -75 16 -8 22 -8 199 1 208 4 4 37 6 73 4 l65 -3 3 -112z m656 -5
c3 -13 6 -35 6 -49 0 -25 -2 -26 -82 -32 -46 -4 -120 -7 -165 -7 l-83 0 0 55
0 55 159 0 c156 0 159 0 165 -22z m6116 -107 c0 -6 -9 -15 -20 -21 -21 -11
-28 -40 -10 -40 6 0 10 -7 10 -16 0 -14 -2 -15 -17 -3 -19 17 -340 31 -360 16
-15 -11 -15 -12 -18 34 l-2 35 208 3 c136 1 209 -2 209 -8z m-1053 -23 c-14
-22 -22 -23 -133 -24 -145 0 -139 1 -162 -25 -18 -18 -21 -19 -35 -5 -9 9 -23
16 -31 16 -19 0 -20 13 -4 40 12 19 24 20 197 20 l183 0 -15 -22z"/>
<path d="M6297 1960 c-374 -5 -410 -6 -421 -23 -15 -19 -10 -61 8 -76 13 -10
780 4 811 15 27 10 35 23 35 62 0 20 -5 31 -12 30 -7 -1 -197 -4 -421 -8z
m380 -41 c-30 -17 -222 -31 -347 -25 -63 3 -176 2 -250 -3 -129 -8 -184 -1
-164 19 13 13 94 16 454 18 234 1 320 -2 307 -9z"/>
<path d="M10382 1737 c-3 -13 -11 -17 -23 -13 -11 3 -28 9 -39 12 -15 5 -20 2
-20 -13 0 -10 5 -24 12 -31 9 -9 8 -12 -4 -12 -9 0 -18 -11 -20 -25 -6 -29 -2
-35 25 -35 15 0 18 -5 13 -24 -5 -20 -3 -23 14 -19 11 3 20 0 20 -6 0 -6 7
-11 15 -11 8 0 15 5 15 10 0 6 9 10 21 10 16 0 19 4 14 20 -5 16 -2 20 19 20
26 0 38 19 14 21 -7 1 1 4 17 8 35 7 36 23 3 33 -13 3 -18 7 -13 8 6 1 0 5
-13 10 -18 8 -21 15 -16 34 5 21 3 24 -22 22 -17 0 -29 -8 -32 -19z"/>
<path d="M358 1504 c-3 -5 -4 -49 -3 -97 2 -71 6 -91 21 -101 20 -15 94 -10
107 8 11 14 2 165 -10 177 -13 13 -109 23 -115 13z"/>
<path d="M7410 1311 c-57 -32 -71 -35 -92 -22 -30 19 -45 0 -29 -36 12 -25 10
-30 -14 -51 -35 -30 -24 -40 20 -19 23 11 35 24 35 36 0 23 34 45 56 37 23 -9
17 -46 -7 -46 -11 0 -34 -14 -51 -31 -24 -23 -28 -33 -19 -42 10 -9 17 -6 32
12 17 21 23 23 40 13 15 -10 24 -10 42 -1 21 12 21 12 2 19 -16 6 -14 8 13 18
18 6 32 14 32 17 0 10 -28 35 -39 35 -14 0 -14 37 -1 45 12 7 13 25 3 24 -5 0
-15 -4 -23 -8z"/>
<path d="M154 1046 c-3 -8 -4 -20 -2 -26 3 -10 439 -27 608 -24 290 5 611 2
815 -7 388 -17 1048 -22 1395 -11 188 6 424 7 585 2 149 -5 781 -12 1405 -15
624 -4 1155 -9 1180 -10 25 -2 367 -12 760 -22 779 -20 1462 -21 1745 -4 558
34 1189 39 1462 11 145 -15 338 -16 641 -6 193 7 265 13 273 22 27 33 1 35
-434 32 -272 -2 -537 2 -717 11 -294 14 -753 10 -975 -8 -304 -26 -1006 -43
-1240 -30 -71 4 -263 10 -425 14 -162 3 -448 10 -635 15 -636 18 -3195 37
-4130 32 -334 -2 -613 1 -730 8 -104 7 -488 13 -852 15 -364 2 -675 6 -692 10
-23 5 -33 3 -37 -9z"/>
</g>
</svg>
