<?xml version="1.0" standalone="no"?>
<!DOCTYPE svg PUBLIC "-//W3C//DTD SVG 20010904//EN"
 "http://www.w3.org/TR/2001/REC-SVG-20010904/DTD/svg10.dtd">
<svg version="1.0" xmlns="http://www.w3.org/2000/svg"
 width="3625.000000pt" height="2533.000000pt" viewBox="0 0 3625.000000 2533.000000"
 preserveAspectRatio="xMidYMid meet">
<metadata>
Created by potrace 1.16, written by Peter Selinger 2001-2019
</metadata>
<g transform="translate(0.000000,2533.000000) scale(0.100000,-0.100000)"
fill="#000000" stroke="none">
<path d="M13637 25228 c-35 -27 -50 -125 -67 -450 -11 -214 -30 -1136 -33
-1618 l-2 -325 -43 -24 c-156 -86 -158 -203 -3 -281 42 -21 43 -23 38 -58 -30
-213 -159 -1037 -163 -1044 -3 -4 -43 -8 -90 -8 -174 0 -329 -52 -402 -135
-47 -54 -65 -112 -61 -196 l4 -63 -139 -21 c-101 -16 -142 -26 -151 -38 -9
-13 -14 -116 -18 -385 -5 -388 1 -291 -142 -2172 -31 -399 -68 -895 -84 -1103
-15 -207 -30 -380 -33 -382 -3 -3 -63 1 -134 9 -586 68 -1771 185 -2399 237
-214 17 -391 32 -392 33 0 1 6 29 15 63 14 53 15 72 4 133 -15 88 -67 217 -90
224 -62 19 -461 83 -692 112 -172 21 -618 30 -745 15 -294 -35 -462 -130 -498
-282 -5 -20 -17 -29 -49 -38 -145 -43 -305 -175 -348 -286 -18 -46 -24 -81
-24 -147 -1 -49 -1 -88 -2 -88 0 0 -77 -15 -170 -34 -484 -98 -882 -219 -989
-301 -104 -79 -80 -137 75 -186 228 -71 859 -134 1639 -165 l173 -7 97 -64
c299 -201 683 -303 1029 -274 151 13 323 50 452 98 52 19 104 37 115 40 11 2
68 -12 127 -32 215 -72 486 -133 758 -170 156 -22 607 -31 778 -16 377 33 752
133 1061 282 79 38 147 69 150 69 4 0 -8 -190 -26 -422 -18 -233 -66 -877
-108 -1433 -145 -1947 -165 -2210 -170 -2251 l-6 -42 -67 17 -67 17 -5 155 -5
154 -43 80 c-122 229 -354 433 -667 585 -171 83 -315 136 -501 184 -188 48
-319 66 -493 66 -369 0 -672 -103 -956 -325 -76 -59 -206 -187 -252 -247 -12
-16 -50 -40 -89 -57 -61 -25 -72 -34 -91 -72 -32 -66 -47 -149 -40 -234 5 -69
4 -75 -14 -75 -18 0 -19 -10 -19 -244 l0 -243 -86 -17 c-47 -10 -88 -16 -90
-14 -3 3 -74 1329 -74 1381 0 11 -22 18 -84 27 l-85 13 -5 46 c-3 25 -8 78
-11 116 -12 141 -16 165 -32 165 -8 0 -55 7 -104 16 l-89 16 -567 515 c-332
301 -572 512 -580 509 -12 -5 -217 -130 -1132 -690 -195 -120 -366 -223 -380
-231 -15 -7 -61 -18 -103 -25 l-77 -13 -3 -135 -3 -136 -150 -26 -150 -25 -3
-3232 -2 -3233 -210 0 -210 0 0 -125 0 -125 -39 0 c-39 0 -40 1 -45 43 -3 23
-10 524 -16 1112 -6 589 -15 1417 -20 1840 -5 424 -14 1155 -20 1625 -25 2151
-32 2625 -38 2632 -18 18 -301 49 -493 55 -553 16 -1080 -99 -1679 -367 -319
-142 -720 -385 -998 -603 l-104 -82 6 -530 c3 -291 8 -696 11 -900 5 -376 7
-573 26 -2165 5 -492 11 -1163 12 -1490 l2 -594 -97 -56 -98 -55 -2 -1209 -3
-1209 -65 -22 -65 -22 -21 -279 c-22 -283 -68 -945 -80 -1152 -6 -109 -8 -113
-33 -126 -23 -12 -30 -11 -60 10 -61 42 -189 76 -343 92 l-78 8 0 -42 0 -42
53 -7 c195 -24 304 -59 353 -114 31 -35 66 -40 86 -12 22 31 62 44 110 37 51
-8 149 -52 214 -96 196 -136 331 -119 679 81 138 79 239 118 306 119 65 0 229
-44 275 -73 73 -47 135 -45 191 6 42 38 133 22 320 -54 108 -44 128 -47 156
-21 15 13 42 18 125 20 171 6 329 -29 510 -114 71 -33 82 -35 142 -30 115 10
253 89 420 241 80 73 169 121 276 149 119 31 187 16 255 -54 45 -46 49 -48
120 -55 97 -10 189 -39 223 -70 15 -14 32 -25 39 -25 7 0 96 21 199 47 l186
48 119 -40 c73 -24 145 -42 189 -45 l70 -5 -89 -590 c-49 -324 -91 -592 -93
-594 -2 -2 -84 9 -184 23 -99 15 -184 25 -190 21 -6 -4 -10 -61 -10 -141 0
-134 0 -134 -22 -129 -13 3 -133 25 -268 50 -429 79 -653 126 -730 151 -94 31
-225 60 -312 69 -59 6 -69 5 -74 -10 -4 -9 -1 -20 5 -25 7 -4 101 -26 209 -49
240 -52 246 -53 352 -105 90 -43 250 -145 250 -159 0 -5 -24 -6 -52 -3 -29 4
-206 20 -393 37 -1541 137 -2958 343 -3745 543 -118 30 -227 59 -243 65 -25
10 -27 9 -27 -13 0 -29 32 -40 317 -110 816 -202 2246 -403 3873 -546 l345
-30 45 -46 45 -46 -160 6 c-982 39 -2689 255 -4178 529 l-287 53 0 -22 c0 -16
7 -24 28 -28 364 -76 1531 -267 2142 -350 785 -107 1660 -195 2270 -227 244
-12 222 -4 297 -114 l48 -70 90 -7 c50 -4 707 -55 1460 -113 754 -58 1447
-112 1540 -120 133 -11 172 -12 181 -2 15 16 184 539 178 549 -8 13 -45 10
-315 -32 -143 -22 -264 -40 -270 -40 -5 0 -9 42 -9 95 0 76 -3 97 -15 101 -11
5 -15 22 -15 69 0 35 -4 66 -9 70 -5 3 -58 -2 -117 -10 -59 -8 -109 -15 -110
-15 -2 0 -4 12 -6 27 -3 27 -3 27 -173 56 -93 15 -171 30 -174 33 -4 4 76 849
96 1017 l6 48 78 -2 78 -2 63 57 c74 68 145 110 210 126 42 11 52 10 91 -9 24
-12 48 -21 54 -21 6 0 18 24 28 52 84 261 282 396 526 360 44 -6 105 -19 134
-28 53 -17 54 -17 172 14 154 40 268 56 357 49 91 -7 137 -26 198 -83 101 -94
254 -135 515 -138 l162 -1 28 26 c78 74 142 87 207 41 74 -51 167 -28 270 67
62 58 77 64 127 51 96 -26 229 -202 377 -499 135 -273 230 -357 362 -321 59
16 143 98 202 197 74 125 137 177 299 246 31 14 94 54 141 89 93 72 150 95
248 104 86 8 180 -6 445 -67 295 -68 316 -70 450 -29 96 29 117 32 189 27 88
-6 182 -32 346 -95 169 -65 276 -94 361 -95 69 -2 79 1 119 28 l43 30 436 -3
c337 -3 441 -7 457 -17 11 -7 31 -35 45 -62 21 -40 35 -53 90 -81 35 -18 99
-39 141 -47 68 -13 91 -13 190 0 62 9 164 16 227 17 107 1 115 0 129 -20 8
-12 20 -22 27 -22 7 0 31 29 53 64 41 62 78 96 105 96 8 0 27 -10 42 -22 16
-12 47 -23 75 -26 41 -4 62 2 149 42 128 59 174 61 228 12 47 -41 75 -56 106
-56 13 0 80 29 149 64 157 80 213 90 334 56 104 -29 125 -28 214 5 66 25 89
28 195 29 120 1 121 1 197 -36 55 -28 92 -55 134 -101 79 -84 120 -170 200
-418 3 -9 23 -22 43 -29 46 -15 81 0 129 54 33 38 98 146 127 214 36 85 100
111 182 77 20 -8 39 -13 42 -9 3 3 6 26 6 51 1 54 30 85 98 104 63 17 242 5
372 -27 179 -43 214 -48 252 -36 29 9 41 7 84 -15 40 -21 64 -26 122 -27 85 0
116 9 262 77 134 63 176 66 280 22 65 -27 79 -30 190 -30 107 1 127 3 182 27
113 48 225 128 474 339 205 174 260 199 300 137 25 -40 21 -95 -10 -134 -30
-38 -27 -48 19 -69 23 -10 56 -36 75 -57 53 -58 47 -97 -28 -175 -36 -38 -39
-44 -26 -61 90 -123 122 -173 139 -219 22 -59 19 -92 -11 -119 -21 -18 -25
-64 -9 -94 17 -32 77 -62 124 -62 93 0 120 47 110 192 -6 88 -5 103 11 120 22
24 52 25 120 4 l53 -17 34 26 c48 37 101 57 150 57 47 0 69 -12 135 -72 65
-58 84 -53 203 50 41 36 93 73 115 83 74 34 156 19 246 -46 l49 -35 63 32 c59
31 67 33 172 33 104 0 114 -2 180 -33 l71 -33 158 45 c280 81 444 159 491 233
17 28 24 32 50 27 69 -14 214 -100 406 -241 l87 -63 333 75 c184 41 356 75
384 75 65 0 143 -21 197 -54 100 -60 142 -76 199 -76 67 0 145 22 221 62 l57
30 58 -52 c176 -161 342 -240 503 -240 68 0 85 4 146 35 44 22 106 68 173 129
57 52 126 107 153 121 69 38 131 32 268 -25 294 -121 349 -121 628 2 74 32
120 47 133 43 11 -4 53 -25 92 -48 124 -70 249 -126 319 -143 75 -19 91 -15
284 60 186 72 402 67 652 -15 l62 -21 128 41 c222 71 309 85 537 85 176 1 210
-2 281 -21 216 -60 366 -173 482 -365 28 -45 79 -112 114 -147 116 -118 182
-152 244 -126 55 23 67 60 75 230 5 112 12 166 28 215 11 36 21 91 21 123 l0
58 55 25 c133 58 198 54 262 -15 42 -45 43 -46 105 -45 71 0 134 29 241 107
55 40 62 42 126 42 57 0 78 -5 142 -37 41 -20 106 -64 146 -98 l72 -60 128 26
c153 30 310 41 370 25 27 -7 51 -23 65 -41 12 -17 26 -30 32 -30 5 0 62 40
127 90 l117 90 54 -10 c88 -17 145 -38 318 -121 192 -91 252 -109 370 -109 95
0 176 17 248 54 l47 23 135 -33 135 -33 28 20 c84 61 126 84 190 107 60 22 89
26 177 26 121 1 210 -17 380 -74 111 -37 284 -69 467 -86 l72 -7 21 34 c11 19
28 59 36 89 l16 56 222 98 c121 53 245 105 273 114 43 14 53 21 53 40 0 19 -4
22 -27 16 -41 -10 -123 -44 -353 -145 l-206 -91 -24 -77 c-24 -74 -26 -76 -59
-79 -75 -7 -344 38 -478 81 l-133 42 0 186 c0 138 -3 189 -13 197 -7 6 -106
13 -242 17 -127 3 -258 8 -293 11 l-62 6 2 3086 3 3086 70 27 c39 16 264 103
500 194 237 92 520 201 630 244 110 43 309 120 443 172 l242 94 0 47 c0 45 -1
47 -22 39 -177 -69 -440 -171 -633 -246 -132 -51 -379 -147 -550 -213 -170
-66 -392 -152 -493 -191 -101 -39 -185 -71 -187 -71 -3 0 -5 155 -5 345 0 320
1 346 18 352 24 9 643 247 917 353 127 49 392 152 590 228 l360 139 3 47 c2
25 1 46 -2 46 -2 0 -55 -20 -118 -44 l-113 -45 -5 2682 -5 2682 -162 216 -163
217 -162 31 c-90 17 -433 83 -763 146 -330 62 -745 141 -923 175 l-323 62
-200 -133 -200 -133 -172 -32 c-95 -18 -305 -58 -467 -89 -217 -41 -298 -60
-307 -72 -10 -13 -13 -385 -13 -1780 l0 -1762 -37 -10 c-21 -6 -534 -121
-1141 -256 -1290 -286 -1193 -264 -1211 -281 -12 -11 -14 -52 -13 -221 l2
-208 -27 35 c-56 71 -146 159 -178 174 -45 22 -87 20 -117 -4 -59 -46 -149
-273 -234 -589 l-38 -144 -43 -18 c-24 -10 -46 -25 -49 -32 -3 -8 16 -78 41
-156 35 -111 45 -156 45 -209 0 -60 -3 -71 -25 -92 -54 -51 -56 -125 -4 -203
l30 -45 -11 -114 c-23 -232 -107 -649 -186 -926 l-15 -52 -169 0 c-157 0 -170
-1 -180 -19 -6 -13 -10 -173 -10 -451 0 -285 -3 -429 -10 -425 -6 4 -10 80
-10 194 0 153 -3 191 -15 201 -8 6 -46 20 -86 30 -39 10 -75 22 -79 27 -3 4 5
477 18 1051 22 900 23 1045 11 1057 -16 16 -1106 295 -1152 295 -16 0 -185
-27 -376 -60 -190 -32 -548 -93 -796 -134 -552 -92 -557 -93 -573 -110 -10
-10 -16 -196 -27 -912 -8 -494 -15 -947 -15 -1005 l0 -107 -61 -11 c-34 -6
-68 -16 -76 -22 -12 -10 -13 -44 -7 -209 l7 -198 -69 -15 c-38 -9 -87 -19
-109 -22 -22 -4 -50 -13 -62 -21 l-21 -13 5 -1288 6 -1288 -84 3 c-46 2 -235
11 -419 21 l-335 16 -3 114 c-1 64 -8 121 -14 128 -14 18 -368 19 -386 1 -9
-9 -12 -214 -12 -859 l0 -848 -57 -11 c-32 -7 -129 -27 -216 -46 -87 -19 -165
-34 -173 -34 -11 0 -14 23 -14 128 0 70 -4 133 -9 141 -7 10 -65 19 -218 32
-114 10 -209 18 -210 19 -2 0 -3 159 -3 354 0 283 -3 356 -13 365 -9 7 -127
12 -368 13 l-354 3 -3 189 c-1 119 -7 194 -13 203 -9 10 -57 13 -205 13 l-194
0 0 23 c0 12 11 382 25 822 89 2878 96 3157 81 3174 -9 9 -63 32 -121 51
l-105 34 0 512 c0 369 -3 515 -11 520 -6 4 -32 12 -58 18 l-46 12 -3 140 -3
139 -102 154 -102 154 -695 199 -695 198 -415 -25 c-228 -14 -520 -32 -649
-40 l-234 -15 -196 -157 c-108 -86 -202 -164 -208 -172 -9 -10 -13 -55 -13
-142 l0 -128 -42 -5 c-24 -3 -70 -8 -102 -11 -33 -3 -66 -10 -73 -16 -10 -9
-13 -106 -15 -462 l-3 -451 -180 -28 c-99 -16 -185 -34 -192 -41 -13 -13 -17
-125 -63 -2157 -41 -1770 -48 -2051 -52 -2055 -2 -3 -24 -1 -47 3 l-43 7 -2
130 c-1 92 -7 140 -18 165 -18 42 -71 90 -99 90 -19 0 -19 18 -19 883 0 829
-1 885 -17 899 -12 11 -69 21 -178 32 -88 9 -170 19 -182 22 l-23 4 0 1740 0
1740 -26 10 c-16 6 -317 10 -790 10 l-764 0 0 38 c0 41 -103 1872 -170 3007
-22 374 -74 1279 -115 2010 -41 732 -93 1636 -115 2010 -22 374 -48 831 -59
1015 -18 303 -21 336 -39 350 -10 9 -98 49 -195 90 l-177 75 0 57 c0 209 -206
373 -567 453 l-73 17 0 41 c0 23 -7 233 -15 467 -8 234 -15 469 -16 523 l-3
97 54 33 c114 68 133 165 45 239 -11 10 -44 30 -74 45 l-54 27 7 180 c3 100 9
548 12 996 8 978 -1 1171 -56 1200 -24 13 -33 13 -53 -2z m28 -798 c-1 -63 -4
-299 -6 -525 -1 -225 -6 -561 -11 -745 -4 -184 -6 -344 -3 -356 3 -15 22 -28
66 -43 33 -13 75 -35 92 -51 l32 -29 -27 -28 c-15 -16 -52 -41 -83 -57 l-55
-29 0 -96 c0 -53 7 -313 16 -579 9 -266 14 -486 11 -489 -6 -5 -229 16 -236
23 -5 4 6 74 108 734 39 248 56 381 50 392 -5 10 -39 32 -76 51 -37 18 -71 41
-77 50 -14 22 19 57 89 91 30 14 59 34 63 44 5 9 12 366 16 792 3 426 9 861
13 965 7 185 8 188 14 95 4 -52 6 -147 4 -210z m-179 -3100 c437 -35 726 -140
822 -300 21 -36 32 -67 32 -92 0 -21 -2 -38 -5 -38 -3 0 -143 59 -310 130
-168 72 -313 130 -324 130 -10 0 -38 9 -62 19 -145 64 -420 70 -658 15 -35 -8
-66 -12 -69 -10 -8 9 38 65 71 84 61 38 194 66 333 71 23 0 99 -4 170 -9z
m-19 -199 c7 -4 -105 -24 -250 -45 -144 -21 -272 -40 -283 -43 -22 -5 -42 23
-27 38 12 12 183 48 276 58 84 10 262 4 284 -8z m266 -73 c20 -16 13 -55 -12
-62 -35 -11 -1086 -206 -1108 -206 -11 0 -13 13 -11 57 l3 57 509 77 c279 43
520 80 535 82 51 8 67 7 84 -5z m644 -275 l361 -155 4 -64 c2 -35 -1 -64 -6
-64 -4 0 -117 57 -250 126 -132 70 -328 172 -434 227 -181 94 -221 123 -206
149 3 4 42 -9 87 -28 45 -20 245 -105 444 -191z m-651 90 c-3 -16 -42 -316
-86 -668 -43 -352 -140 -1121 -214 -1710 -173 -1371 -542 -4294 -786 -6235
-105 -833 -193 -1519 -195 -1525 -2 -5 -2 105 0 245 6 310 7 380 50 3185 93
5981 102 6516 112 6526 5 4 132 30 283 59 151 28 390 73 530 99 140 27 268 49
283 50 26 1 28 -1 23 -26z m524 -223 c118 -62 279 -146 357 -186 l141 -75 6
-72 c4 -40 29 -472 56 -962 28 -489 70 -1234 95 -1655 25 -421 74 -1285 110
-1920 36 -635 85 -1499 110 -1920 25 -421 81 -1402 125 -2180 44 -778 83
-1455 86 -1505 4 -49 4 -88 1 -85 -3 3 -33 210 -66 460 -34 250 -102 748 -151
1105 -94 682 -169 1236 -325 2380 -180 1324 -266 1953 -321 2350 -30 220 -93
681 -140 1025 -46 344 -104 769 -129 945 -24 176 -83 604 -130 950 -47 347
-112 826 -145 1065 -33 239 -60 445 -60 458 0 23 2 22 83 -21 45 -25 179 -95
297 -157z m-365 -600 c47 -349 90 -662 95 -695 5 -33 54 -393 110 -800 55
-407 127 -936 160 -1175 32 -239 86 -633 119 -875 137 -1005 215 -1576 276
-2020 36 -258 105 -767 154 -1130 96 -704 184 -1352 336 -2460 82 -602 203
-1485 252 -1848 9 -64 14 -119 12 -121 -2 -1 -206 20 -454 47 l-450 51 -422
-66 c-233 -36 -430 -71 -438 -78 -12 -10 -15 -43 -15 -182 l0 -170 -37 6 c-21
4 -321 44 -667 91 -345 46 -630 86 -632 88 -2 2 10 109 26 238 32 242 224
1760 380 3004 49 391 155 1230 235 1865 80 635 184 1457 230 1825 46 369 150
1190 230 1825 227 1802 405 3214 405 3219 0 2 2 2 5 0 2 -3 43 -290 90 -639z
m-1409 -1642 c-4 -150 -11 -570 -16 -933 -6 -363 -15 -943 -20 -1290 -6 -346
-17 -1057 -25 -1580 -8 -522 -17 -1087 -20 -1255 -3 -168 -10 -593 -15 -945
-5 -352 -12 -757 -15 -900 -3 -143 -10 -568 -16 -945 l-11 -685 -52 -417 c-29
-230 -55 -420 -59 -424 -3 -4 -56 4 -117 16 l-110 23 0 82 c0 54 -4 86 -12 92
-7 6 -56 25 -108 43 -52 18 -98 36 -102 40 -8 6 28 504 132 1865 27 358 86
1136 130 1730 44 594 91 1222 105 1395 14 173 61 801 105 1395 44 594 87 1163
95 1265 28 348 125 1652 125 1676 0 13 3 24 6 24 3 0 3 -123 0 -272z m-4151
-698 c260 -19 551 -58 815 -107 l95 -18 30 -70 c26 -61 30 -82 30 -166 0 -85
-3 -99 -24 -131 -48 -69 -135 -110 -277 -129 -84 -11 -249 -8 -350 7 -33 5
-42 3 -48 -11 -3 -10 -5 -20 -2 -22 14 -14 173 -24 306 -20 178 5 253 23 341
83 l53 36 261 -22 c383 -31 884 -76 1275 -115 449 -45 1414 -147 1417 -149 2
-1 -9 -148 -22 -327 -14 -178 -25 -328 -25 -332 0 -5 -74 -44 -164 -88 -253
-123 -575 -221 -866 -263 -284 -41 -640 -45 -930 -11 -256 30 -613 111 -827
186 l-85 30 -109 -41 c-293 -109 -604 -137 -893 -80 -230 45 -460 146 -641
279 l-40 30 -245 11 c-856 38 -1454 105 -1642 183 -168 70 259 234 1002 385
l185 37 -3 95 c-5 130 18 192 102 275 66 65 131 104 241 145 65 24 70 28 76
60 25 150 185 230 529 263 80 8 304 6 435 -3z m25910 -796 c336 -64 781 -148
990 -188 l380 -72 3 -2937 c2 -2927 2 -2936 -18 -2947 -11 -6 -125 -51 -252
-100 -128 -48 -316 -121 -418 -160 -102 -39 -284 -110 -405 -156 -121 -47
-226 -93 -232 -102 -10 -12 -13 -397 -13 -1844 l0 -1828 -417 0 c-363 0 -419
-2 -434 -16 -15 -14 -16 -36 -11 -245 l5 -229 -47 0 -46 0 0 128 c0 70 5 307
10 527 15 589 63 2743 120 5320 50 2289 54 2473 90 4050 11 479 20 883 20 899
0 27 2 28 33 22 17 -4 307 -59 642 -122z m-774 -434 c-6 -272 -27 -1204 -46
-2070 -19 -866 -46 -2063 -60 -2660 -14 -597 -45 -1996 -70 -3110 -24 -1114
-47 -2143 -51 -2288 l-7 -262 -128 0 -129 0 0 283 c0 155 13 971 30 1812 16
842 43 2225 60 3075 17 850 37 1876 45 2280 22 1072 65 3211 65 3242 0 24 18
39 148 126 113 76 148 96 151 83 2 -9 -2 -239 -8 -511z m-381 263 c0 -21 -9
-486 -20 -1033 -11 -547 -31 -1580 -45 -2295 -14 -715 -39 -1993 -55 -2840
-61 -3154 -64 -3287 -76 -3772 l-6 -253 -27 0 c-88 0 -344 25 -347 34 -2 6
-10 91 -17 189 -10 125 -18 182 -28 192 -16 16 -181 57 -324 81 -141 24 -429
24 -550 1 -164 -32 -263 -69 -270 -101 -3 -11 -16 -97 -30 -190 -14 -94 -28
-173 -32 -177 -5 -4 -289 -37 -633 -73 -344 -37 -635 -69 -646 -71 -22 -5 -22
-3 -28 228 -4 127 -20 943 -37 1812 -16 869 -40 2136 -53 2815 -14 679 -23
1237 -20 1239 2 2 90 23 196 47 106 23 488 108 848 189 360 80 808 180 995
221 187 42 346 81 352 86 10 8 13 381 15 1782 l3 1771 405 76 c223 42 411 77
418 78 8 1 12 -12 12 -36z m2840 -3164 c0 -1475 -1 -2683 -2 -2684 -2 -1 -28
-11 -58 -23 -30 -11 -79 -29 -107 -41 l-53 -21 0 2872 0 2871 110 -146 110
-147 0 -2681z m-28655 400 c256 -232 465 -425 465 -430 0 -5 -6 -6 -12 -4 -7
3 -296 55 -643 115 -346 61 -633 114 -636 118 -11 12 334 633 348 628 7 -3
223 -195 478 -427z m-767 109 c-79 -146 -150 -275 -158 -286 -13 -20 -56 -29
-420 -87 -222 -36 -410 -64 -418 -63 -8 2 64 51 159 109 96 59 305 186 464
284 160 98 339 208 400 245 60 38 111 67 113 65 2 -2 -61 -122 -140 -267z
m-2520 -352 c51 -8 95 -16 98 -18 6 -7 14 -486 34 -2268 11 -927 24 -2056 30
-2510 5 -454 12 -1043 15 -1310 3 -267 8 -621 11 -787 l6 -303 -25 0 -25 0 -6
143 c-3 78 -13 459 -21 847 -8 388 -18 824 -22 969 l-6 263 -31 13 c-17 7 -61
20 -98 30 -38 10 -68 23 -68 29 -1 6 -2 72 -3 146 l-2 135 -85 21 -85 20 -3
141 -3 141 -94 22 -95 22 0 83 0 82 -60 17 -60 17 0 114 c0 111 -1 115 -22
120 -13 3 -180 44 -373 91 l-350 86 -350 -31 c-192 -17 -364 -34 -382 -37
l-32 -5 0 -110 c1 -61 -2 -114 -6 -117 -3 -4 -30 -12 -58 -17 l-52 -10 -5
-110 -5 -109 -30 -7 c-16 -4 -74 -17 -127 -29 l-98 -22 0 -123 0 -124 -37 -7
c-21 -3 -76 -14 -123 -23 l-85 -17 -3 -102 c-1 -56 -4 -102 -6 -102 -2 0 -49
-9 -105 -21 -57 -11 -104 -19 -106 -17 -2 2 -9 397 -15 878 -6 481 -15 1228
-20 1660 -6 432 -10 893 -10 1025 l0 240 100 78 c466 363 1114 684 1657 821
150 37 394 81 538 95 127 13 589 5 703 -13z m2342 -160 c0 -63 -3 -117 -7
-119 -10 -6 -125 13 -138 23 -8 6 -704 -102 -955 -148 -30 -6 -58 -8 -62 -5
-5 2 -8 42 -8 88 0 83 0 83 28 89 15 3 221 37 457 76 237 39 480 79 540 89 61
10 118 19 128 20 15 1 17 -11 17 -113z m535 33 c220 -39 575 -101 788 -139
213 -37 390 -70 393 -72 5 -6 26 -219 21 -224 -3 -3 -339 50 -1257 199 l-385
63 -3 127 -3 128 23 -6 c13 -2 203 -37 423 -76z m-766 -639 c1 -201 12 -1643
26 -3204 14 -1562 23 -2841 21 -2844 -3 -2 -45 -5 -93 -6 l-88 -1 -3 -148 -3
-147 -162 2 -162 3 -5 125 -5 125 -45 2 c-25 2 -82 5 -127 9 l-83 6 0 139 0
139 -255 0 -255 0 0 3005 c0 2396 3 3006 13 3009 6 2 282 48 612 102 l600 99
6 -25 c4 -14 7 -189 8 -390z m431 360 c168 -28 472 -77 675 -110 554 -89 1037
-169 1040 -172 8 -11 67 -1330 59 -1337 -5 -4 -96 -25 -201 -46 l-193 -38 -2
-1306 -3 -1305 -60 -11 -60 -10 3 -320 c1 -176 9 -680 17 -1119 8 -439 15
-848 15 -907 l0 -109 -215 0 -215 0 0 206 0 206 -145 -7 -145 -7 -2 178 -3
179 -420 0 -420 0 -5 -195 -5 -195 -7 335 c-4 184 -10 695 -13 1135 -3 440
-10 1275 -15 1855 -5 580 -12 1442 -15 1915 -3 473 -8 944 -11 1048 l-6 187
24 0 c12 0 160 -23 328 -50z m3655 -160 c139 -13 300 -49 479 -107 336 -108
566 -236 760 -422 81 -79 192 -218 182 -229 -3 -2 -47 14 -99 36 -204 88 -543
200 -762 252 -304 73 -567 108 -865 117 -291 8 -568 -19 -812 -81 -48 -12 -88
-19 -88 -15 0 4 33 36 73 72 243 217 523 344 832 377 106 11 179 11 300 0z
m55 -464 c394 -53 865 -182 1213 -332 84 -36 164 -71 180 -77 l27 -11 0 -112
0 -112 -57 15 c-32 8 -168 44 -303 79 -135 36 -407 108 -605 159 -198 52 -461
121 -584 154 -167 43 -228 56 -236 47 -7 -6 -269 -63 -584 -126 -494 -99 -573
-113 -581 -100 -16 24 -11 141 8 194 17 47 20 49 92 78 41 16 127 44 190 63
165 49 280 71 520 99 91 10 601 -2 720 -18z m-338 -492 c9 -109 15 -205 13
-212 -4 -10 -30 -13 -107 -11 -96 2 -138 -5 -618 -104 -283 -58 -516 -105
-517 -103 -1 1 -3 89 -4 196 l-1 195 599 121 c329 67 603 120 608 119 6 -1 18
-90 27 -201z m543 76 c231 -61 609 -160 840 -220 644 -168 590 -151 593 -186
1 -16 -36 -546 -83 -1179 -47 -632 -88 -1188 -91 -1235 -3 -47 -7 -90 -9 -96
-3 -11 -309 95 -390 136 l-40 20 -253 -35 c-139 -19 -260 -35 -268 -35 -10 0
-14 -13 -14 -49 0 -28 -3 -52 -7 -54 -5 -2 -78 11 -163 30 -85 19 -317 69
-515 112 l-360 77 -3 65 c-4 111 86 2251 96 2261 5 5 59 8 121 6 l111 -3 0 25
c0 31 -28 378 -35 439 -5 43 -5 43 23 37 15 -3 216 -55 447 -116z m9496 -50
c15 -52 24 -98 20 -101 -7 -7 -1490 -93 -1514 -88 -10 3 31 42 116 110 l132
106 585 36 c322 19 596 34 610 33 22 -1 27 -10 51 -96z m728 -106 l624 -178
55 -83 c30 -46 53 -85 51 -88 -6 -5 -1298 311 -1319 323 -8 5 -27 55 -42 111
-24 90 -25 101 -10 97 9 -3 298 -85 641 -182z m8911 107 c32 -33 87 -104 124
-159 l66 -99 0 -178 c0 -165 -1 -177 -17 -170 -86 32 -348 51 -445 32 -32 -7
-38 -5 -38 9 0 9 21 88 46 177 77 273 151 447 190 447 9 0 42 -27 74 -59z
m-12772 -1773 l2 -1698 -21 0 c-27 0 -207 20 -236 26 -23 4 -23 5 -23 194 l0
190 -32 20 c-58 36 -108 45 -238 44 -125 -1 -284 -28 -317 -55 -10 -9 -13 -50
-13 -165 l0 -154 -30 0 c-45 0 -383 40 -389 46 -3 3 -22 305 -43 672 -21 367
-62 1094 -93 1615 -30 522 -53 953 -49 958 3 5 298 8 742 7 l737 -3 3 -1697z
m3092 1494 l0 -78 -772 -62 c-425 -35 -779 -63 -785 -62 -10 0 -13 26 -13 95
0 52 1 95 3 96 11 3 1430 87 1490 88 l77 1 0 -78z m840 -110 l715 -178 3 -100
3 -101 -543 144 c-299 78 -624 164 -723 190 -99 25 -186 51 -192 56 -9 6 -13
37 -13 88 0 69 2 79 18 79 9 -1 339 -81 732 -178z m-11060 11 c0 -16 -14 -352
-30 -748 -16 -396 -37 -898 -46 -1115 -8 -217 -17 -400 -19 -406 -2 -7 -65
-14 -182 -18 -98 -4 -193 -10 -210 -13 l-33 -5 -2 -157 -3 -156 -133 -19 c-73
-10 -135 -16 -137 -14 -3 3 -11 86 -18 186 -8 100 -16 185 -20 188 -3 3 -160
-18 -349 -48 l-343 -53 -3 -212 c-3 -236 4 -215 -77 -228 -22 -3 -48 -8 -57
-11 -17 -5 -18 60 -18 1258 l0 1263 313 63 c171 35 539 110 817 167 278 57
515 104 528 104 18 1 22 -4 22 -26z m10170 -473 c0 -220 -2 -400 -4 -400 -2 0
-49 16 -105 35 l-100 35 -248 -39 c-137 -22 -473 -74 -748 -116 -275 -41 -510
-78 -522 -80 l-23 -5 0 415 0 415 28 1 c15 0 387 31 827 69 440 37 821 68 848
69 l47 1 0 -400z m275 345 c94 -25 274 -73 400 -106 360 -94 945 -249 1003
-265 l52 -15 0 -464 c0 -366 -3 -465 -12 -464 -7 0 -375 121 -818 268 l-805
267 -3 412 c-1 227 1 412 6 412 4 0 84 -20 177 -45z m7089 -675 c-25 -1094
-33 -1393 -38 -1397 -3 -3 -28 2 -56 10 -50 15 -59 14 -788 -109 -405 -68
-743 -124 -751 -124 -11 0 -12 77 -6 483 4 265 10 699 14 964 4 288 11 486 16
491 6 5 125 28 265 51 140 24 500 84 800 135 300 51 548 90 552 87 3 -3 0
-269 -8 -591z m626 462 l504 -128 -2 -140 c-3 -124 -19 -834 -38 -1606 -4
-165 -11 -278 -17 -278 -5 0 -140 34 -301 76 -160 41 -385 100 -500 130 -115
30 -212 56 -214 59 -2 2 5 417 17 922 12 505 21 957 21 1006 0 63 3 87 13 87
6 0 239 -58 517 -128z m1755 58 c39 -6 93 -17 121 -25 l52 -15 7 -71 c4 -38 5
-72 3 -75 -3 -2 -22 3 -43 12 -87 36 -259 28 -424 -20 l-80 -23 -30 88 c-36
108 -40 104 149 133 52 7 177 5 245 -4z m92 -251 c15 -5 43 -20 60 -32 28 -19
33 -28 33 -63 l0 -41 -67 20 c-91 27 -354 31 -420 6 l-43 -17 0 38 0 37 73 21
c39 12 92 25 117 30 63 14 213 14 247 1z m3 -203 c80 -20 85 -23 88 -50 3 -25
1 -28 -15 -21 -107 46 -283 20 -520 -76 -29 -12 -34 -11 -48 6 -35 48 -9 90
80 131 103 48 252 51 415 10z m36 -155 c31 -14 44 -27 52 -53 9 -26 22 -591
27 -1073 l0 -50 -377 -3 c-317 -2 -378 0 -378 12 0 7 22 105 49 217 77 318
123 565 141 753 5 60 12 111 14 113 9 10 207 76 261 88 87 19 163 18 211 -4z
m-10140 -518 c-3 -280 -11 -1073 -17 -1763 -6 -690 -14 -1516 -17 -1835 l-7
-580 -195 -48 c-107 -27 -312 -77 -455 -112 l-260 -63 -3 101 c-1 55 -8 107
-14 114 -8 10 -79 13 -329 13 l-319 0 0 74 c0 52 -4 77 -14 85 -8 7 -86 24
-173 38 -87 14 -162 29 -166 33 -5 4 1 416 13 916 66 2815 77 3235 83 3240 4
4 179 34 389 66 211 33 624 97 918 143 294 46 544 84 554 84 18 1 19 -12 12
-506z m1169 142 c578 -191 1054 -350 1058 -354 4 -4 -2 -306 -13 -672 -25
-816 -120 -4034 -120 -4067 0 -21 -4 -23 -37 -20 l-38 3 -3 144 c-1 80 -7 150
-13 157 -5 6 -24 14 -41 18 -107 21 -107 21 -148 109 -51 112 -70 191 -77 330
l-6 118 24 -6 c41 -10 56 18 69 134 15 126 7 256 -21 347 -27 86 -101 166
-169 184 -25 6 -51 13 -57 15 -9 3 -13 30 -13 90 l0 85 -45 0 -45 0 0 -94 0
-94 -50 -17 c-31 -10 -71 -36 -105 -66 -93 -86 -137 -208 -138 -388 0 -124 6
-149 39 -157 23 -6 24 -10 24 -79 0 -115 -34 -205 -115 -303 -3 -4 -732 173
-954 231 l-124 32 2 375 c1 206 6 812 11 1345 5 534 12 1344 15 1800 6 944 12
1158 29 1152 6 -2 484 -161 1061 -352z m-18155 -635 c0 -22 -3 -40 -8 -40 -4
0 -137 -25 -296 -55 -158 -30 -297 -55 -307 -55 -17 0 -19 8 -19 65 0 36 1 65
3 66 4 2 572 56 600 58 25 1 27 -2 27 -39z m375 -40 c137 -33 266 -65 287 -71
l38 -10 0 -65 c0 -58 -2 -65 -17 -60 -10 3 -126 37 -258 75 -132 39 -260 77
-285 84 l-45 14 -3 52 c-3 47 -1 52 15 47 10 -3 130 -32 268 -66z m-437 -156
l-2 -55 -37 6 c-21 4 -45 2 -55 -4 -16 -9 -566 -141 -588 -141 -4 0 -6 28 -4
62 l3 62 330 62 c182 34 336 62 343 63 9 1 12 -15 10 -55z m426 -48 c177 -52
351 -104 389 -116 l67 -21 0 -38 0 -39 -67 15 c-38 9 -216 50 -398 93 l-330
77 -3 61 c-2 43 1 62 9 62 7 0 157 -43 333 -94z m26846 -82 c0 -120 19 -1099
25 -1291 l5 -173 -580 0 -580 0 0 770 0 770 565 0 565 0 0 -76z m-27360 -119
c0 -90 -1 -95 -22 -100 -13 -3 -77 -14 -143 -25 -66 -10 -248 -44 -405 -75
-157 -30 -286 -55 -287 -55 -2 0 -3 36 -3 79 l0 79 133 31 c376 88 694 159
710 160 15 1 17 -10 17 -94z m542 -4 c238 -55 475 -110 526 -122 l92 -22 0
-93 c0 -52 -2 -94 -5 -94 -12 0 -1050 232 -1057 236 -11 7 -10 194 1 194 6 0
205 -45 443 -99z m24018 -71 l0 -149 -47 5 c-36 4 -146 -15 -443 -76 -471 -97
-1082 -220 -1090 -220 -6 0 -14 319 -8 321 8 1 1574 267 1581 268 4 1 7 -66 7
-149z m437 55 c181 -47 483 -125 673 -175 190 -49 348 -90 353 -90 4 0 7 -70
7 -155 l0 -155 -27 7 c-16 4 -325 81 -688 172 l-660 166 -3 158 c-2 100 1 157
8 157 5 0 157 -38 337 -85z m-17869 -135 c-2 -77 -6 -142 -9 -144 -9 -9 -234
27 -244 39 -6 7 -24 10 -43 7 l-32 -4 0 111 0 111 28 1 c33 2 247 15 281 17
l24 2 -5 -140z m-804 98 c3 -18 10 -102 15 -187 6 -84 13 -156 15 -159 3 -3
100 8 216 23 115 16 213 26 216 22 4 -3 3 -1323 -1 -2932 l-8 -2926 -26 17
c-14 9 -42 32 -61 52 -58 58 -109 76 -235 80 -120 4 -234 -11 -369 -50 l-79
-23 -91 23 c-76 20 -109 23 -201 19 -72 -2 -123 -10 -149 -21 -22 -9 -41 -15
-42 -13 -6 6 -14 347 -29 1212 -15 851 -44 2452 -66 3668 -7 356 -10 649 -7
652 3 3 86 20 184 38 l179 32 3 212 2 211 73 13 c176 29 414 67 434 68 18 1
23 -6 27 -31z m1376 -71 c596 -130 1021 -222 1575 -341 l470 -101 3 -2496 2
-2496 -67 -6 c-38 -4 -192 -14 -343 -22 -151 -9 -290 -18 -307 -21 l-33 -5 0
-485 0 -485 -39 -47 c-22 -26 -56 -76 -77 -112 -43 -74 -106 -145 -145 -166
-47 -24 -111 -18 -156 15 -62 45 -98 99 -191 284 -107 212 -200 354 -286 434
-110 103 -179 109 -272 23 -98 -89 -173 -112 -228 -69 -65 51 -156 41 -234
-27 l-43 -37 -177 6 c-97 3 -199 11 -227 19 l-50 13 -3 2943 -2 2942 27 0 c16
0 84 -9 153 -19 87 -13 129 -15 141 -8 13 8 17 35 23 130 3 66 6 147 6 180 0
56 1 59 23 54 12 -3 218 -48 457 -100z m1048 -41 c2 -44 -1 -83 -5 -87 -8 -7
-352 63 -373 76 -15 9 -12 35 5 42 23 8 326 52 350 50 18 -2 20 -10 23 -81z
m467 -66 c127 -46 236 -88 243 -93 6 -5 12 -27 12 -48 0 -31 -4 -39 -18 -39
-19 0 -602 127 -608 132 -2 3 -7 161 -5 180 1 3 34 -6 74 -22 39 -15 176 -65
302 -110z m-8519 -90 c344 -76 629 -142 634 -145 6 -4 10 -67 10 -145 l0 -139
83 -26 c46 -14 88 -25 94 -25 7 0 14 -4 17 -9 3 -5 15 -404 26 -887 10 -484
22 -968 26 -1076 l6 -198 -26 0 -26 0 0 -485 0 -485 -160 0 -160 0 0 415 0
415 -275 0 -275 0 0 495 0 495 -27 7 c-16 3 -194 47 -398 97 l-370 91 -3 748
-2 747 -45 0 -46 0 3 107 3 107 100 17 c55 9 120 17 143 18 24 0 325 -62 668
-139z m-1006 -55 l0 -135 45 0 45 0 0 -696 c0 -553 -3 -695 -12 -691 -7 2 -58
15 -112 28 -74 18 -100 28 -104 41 -2 10 -6 18 -8 18 -3 0 -211 -117 -464
-260 -253 -143 -464 -260 -469 -260 -5 0 -11 201 -15 468 -3 257 -9 634 -12
838 l-6 372 151 28 151 28 0 97 c0 57 4 101 10 104 14 9 738 153 773 154 l27
1 0 -135z m24752 -1562 l-3 -1628 -380 -300 c-209 -165 -387 -303 -397 -307
-14 -6 -878 -88 -924 -88 -10 0 -13 362 -15 1803 l-1 1803 156 32 c297 59
1437 293 1497 306 33 7 62 12 65 10 3 -1 4 -735 2 -1631z m903 1429 l790 -198
3 -1372 c1 -755 -1 -1372 -5 -1372 -5 0 -165 41 -358 90 -554 144 -783 200
-807 200 -15 0 -96 -58 -225 -160 -111 -88 -204 -160 -207 -160 -3 0 -6 713
-6 1585 0 1261 3 1585 13 1585 6 0 368 -90 802 -198z m-11377 140 c21 -12 22
-17 22 -172 l0 -160 -27 1 c-16 0 -111 10 -213 22 l-185 22 0 135 0 135 80 17
c93 20 286 20 323 0z m-1948 -1564 l0 -1341 -132 7 c-73 3 -181 9 -239 13
l-106 6 -6 705 c-4 388 -7 882 -7 1097 0 361 -1 393 -17 407 -11 10 -56 21
-113 28 -150 18 -140 6 -140 164 0 97 4 137 13 143 14 9 728 121 740 116 4 -2
7 -608 7 -1345z m1240 1222 c591 -67 1158 -130 1260 -141 102 -11 195 -22 208
-25 l22 -4 -2 -848 -3 -847 -79 -8 c-44 -4 -91 -13 -105 -20 -26 -12 -26 -13
-29 -155 -3 -141 -3 -142 -25 -137 -12 2 -76 14 -142 25 l-119 21 -371 -67
c-203 -37 -376 -71 -382 -77 -10 -7 -13 -55 -13 -178 0 -92 -4 -170 -8 -173
-4 -2 -296 11 -647 29 -352 19 -657 35 -677 35 l-38 0 0 1351 0 1351 38 -6
c20 -4 521 -60 1112 -126z m-2965 -239 c242 -33 598 -81 791 -107 l351 -48 6
-696 c4 -382 7 -863 7 -1069 l0 -373 -158 7 c-142 6 -159 5 -172 -10 -11 -14
-21 -234 -50 -1171 -20 -635 -39 -1156 -41 -1158 -3 -3 -171 7 -374 20 -330
23 -389 24 -550 15 -99 -6 -199 -11 -222 -11 l-43 0 0 2330 c0 1282 4 2330 8
2330 4 0 206 -27 447 -59z m17095 -526 c0 -25 7 -397 16 -826 8 -430 14 -782
12 -784 -2 -1 -192 -23 -422 -49 -230 -25 -425 -51 -432 -57 -10 -8 -14 -42
-15 -118 -1 -58 -4 -136 -8 -172 l-6 -66 -139 33 c-77 18 -146 36 -153 38 -11
4 -13 195 -13 1026 l0 1020 580 0 580 0 0 -45z m-27295 -593 l480 -118 3 -507
2 -507 275 0 275 0 2 -412 3 -413 203 -3 202 -2 0 -1190 0 -1190 -76 -73
c-142 -135 -257 -206 -368 -228 -55 -12 -56 -11 -175 40 -189 82 -287 104
-463 105 l-148 1 0 751 c0 585 -3 754 -12 766 -12 14 -175 75 -593 221 l-150
53 -3 1418 -2 1419 32 -7 c18 -3 249 -59 513 -124z m-635 -1281 l0 -1390 -105
37 c-58 20 -105 43 -105 50 0 18 -12 16 -185 -39 -289 -91 -643 -199 -654
-199 -8 0 -11 347 -11 1168 l0 1167 257 145 c141 80 377 213 523 297 146 83
268 151 273 152 4 1 7 -624 7 -1388z m5102 867 l3 -182 60 2 c33 1 97 5 143 8
l82 6 0 -201 0 -201 263 -2 262 -3 16 -925 c10 -509 22 -1212 29 -1562 l12
-638 -52 -57 c-31 -35 -70 -96 -98 -155 -41 -85 -50 -96 -67 -90 -11 4 -45 7
-76 6 -74 0 -159 -42 -254 -124 -69 -59 -71 -60 -132 -60 -61 0 -63 1 -63 26
0 15 20 238 45 497 35 357 43 473 34 483 -16 20 -57 17 -67 -3 -5 -10 -31
-238 -58 -507 l-48 -488 -120 7 c-169 9 -387 60 -471 110 l-42 24 47 319 c28
196 43 328 39 341 -9 24 -50 29 -68 8 -6 -8 -32 -160 -59 -338 l-48 -324 -146
-12 c-80 -6 -182 -19 -227 -28 l-82 -16 -44 25 c-24 14 -55 26 -69 26 -14 0
-26 6 -26 13 0 6 12 94 27 194 22 151 24 184 14 197 -18 21 -44 20 -63 -1 -9
-11 -26 -90 -44 -210 l-29 -193 -70 0 c-55 0 -96 9 -192 41 l-121 40 -190 -48
-190 -48 -29 22 c-37 30 -138 61 -224 69 -62 6 -71 10 -94 39 -66 88 -209 110
-362 56 l-83 -29 0 1659 0 1659 180 0 180 0 0 120 0 120 210 0 210 0 0 190 0
190 210 0 209 0 3 -137 3 -138 55 -2 c30 -2 87 -5 127 -9 l72 -6 3 -125 3
-124 250 0 250 0 3 146 3 145 144 -7 145 -6 0 196 0 197 335 0 335 0 2 -182z
m25076 -64 c67 -8 163 -25 214 -37 l93 -22 14 -158 c7 -87 12 -160 10 -162 -3
-2 -145 7 -316 21 l-312 24 -216 -23 -216 -23 6 40 c4 23 14 95 23 161 l17
120 66 22 c152 51 399 66 617 37z m-10862 -43 c43 -26 72 -78 89 -158 15 -71
19 -191 9 -255 l-6 -37 -47 24 c-128 64 -259 70 -364 16 l-60 -31 6 92 c11
177 65 287 166 340 67 35 158 39 207 9z m-3920 -96 c12 -8 24 -28 28 -46 8
-44 8 -217 -1 -222 -5 -3 -64 5 -133 17 l-125 21 -3 117 c-3 115 -2 118 20
122 78 18 180 13 214 -9z m-656 -1679 c0 -778 -3 -1417 -7 -1419 -5 -2 -147 6
-318 17 l-310 21 -3 1341 -2 1342 117 21 c390 71 490 89 506 90 16 1 17 -73
17 -1413z m644 1324 c298 -49 551 -92 562 -95 21 -5 22 -8 28 -347 3 -189 11
-687 16 -1108 18 -1361 30 -2143 34 -2219 5 -82 -2 -82 -34 -1 -56 143 -156
257 -278 317 l-76 38 -135 0 c-123 0 -144 -3 -220 -28 -51 -18 -93 -26 -108
-23 l-24 7 7 327 c6 295 5 329 -9 344 -12 12 -45 18 -134 22 -65 4 -135 9
-155 12 l-38 6 0 1419 c0 1059 3 1419 11 1419 7 0 255 -40 553 -90z m6866 -80
c-3 -286 -37 -1601 -42 -1605 -12 -12 -862 -113 -882 -105 -11 5 -17 9 -13 9
45 4 668 147 685 157 l22 14 0 841 0 840 116 -3 116 -3 -2 -145z m7578 -1461
l-3 -1611 -160 1 c-88 1 -175 4 -192 7 -31 6 -33 9 -33 50 0 31 -5 46 -17 52
-10 5 -107 26 -215 47 l-198 37 0 102 c0 97 -2 105 -30 147 -73 111 -219 163
-365 129 -60 -14 -65 -27 -65 -167 0 -68 -1 -123 -2 -123 -2 0 -128 24 -280
53 l-277 54 -413 -43 c-227 -24 -423 -43 -436 -44 l-23 0 6 288 c4 158 17 747
29 1309 12 562 24 1025 27 1028 5 5 302 38 1889 210 440 47 723 79 753 84 4 0
6 -724 5 -1610z m667 1566 c259 -19 474 -35 478 -35 4 0 7 -83 7 -185 l0 -185
-269 0 c-148 0 -276 -3 -285 -6 -15 -6 -16 -138 -16 -1395 l0 -1389 -63 0
c-35 0 -146 3 -245 7 l-182 6 0 1614 0 1614 53 -5 c28 -4 264 -22 522 -41z
m1875 -1631 l0 -1627 -167 6 c-93 4 -264 10 -381 13 l-212 7 7 96 c20 248 4
2325 -23 2979 l-6 152 391 0 391 0 0 -1626z m-13160 1584 c-1 -7 -7 -67 -14
-133 -8 -66 -12 -123 -9 -127 2 -5 21 -8 42 -8 44 0 44 1 56 135 9 101 13 115
30 108 13 -4 14 -18 9 -78 -9 -105 12 -263 51 -380 18 -55 32 -101 31 -103 -3
-2 -499 119 -505 124 -1 1 9 19 24 38 49 64 77 159 82 281 4 84 9 113 21 123
9 6 19 12 24 12 4 0 8 -58 8 -130 l0 -130 40 0 40 0 0 133 c0 74 3 137 7 140
12 12 63 8 63 -5z m3587 -183 c165 -8 320 -15 342 -15 l42 0 -1 -497 c-1 -398
2 -498 12 -504 7 -5 9 -9 3 -9 -64 0 -463 -45 -472 -52 -10 -8 -13 -171 -13
-754 l0 -744 -33 0 c-19 0 -103 5 -188 10 l-154 11 -494 -70 c-272 -39 -496
-69 -498 -67 -7 6 40 1001 47 1009 4 4 204 32 446 63 266 33 444 60 451 67 10
10 17 189 28 732 9 396 18 748 21 783 l6 62 76 -5 c42 -3 213 -12 379 -20z
m3048 -86 c171 -44 517 -132 769 -195 253 -63 461 -116 464 -118 6 -6 -17
-828 -23 -835 -6 -5 -470 81 -1555 288 l-465 88 -315 -28 c-382 -35 -349 -34
-325 -10 45 43 1119 891 1129 891 6 0 151 -36 321 -81z m-9215 1 c3 -102 -104
-3269 -112 -3305 l-10 -51 -63 4 c-58 4 -64 2 -99 -29 -24 -20 -53 -64 -77
-115 -39 -83 -121 -204 -138 -204 -14 0 -20 127 -26 530 -3 201 -8 520 -11
710 -19 1208 -32 2465 -25 2470 5 3 133 5 285 5 238 0 276 -2 276 -15z m3573
10 c4 0 7 -85 7 -188 0 -133 4 -192 12 -200 9 -9 104 -12 365 -12 l353 0 0
-354 c0 -309 2 -355 16 -367 10 -8 90 -19 216 -30 110 -9 204 -21 209 -26 6
-6 8 -56 7 -114 l-3 -103 -124 -28 c-68 -15 -130 -33 -137 -39 -10 -8 -14 -57
-16 -198 l-3 -186 -150 0 -150 0 4 485 c3 401 1 488 -10 496 -8 6 -198 37
-424 68 -225 31 -432 60 -460 64 l-50 7 -3 81 c-4 105 13 628 20 640 5 7 183
9 321 4z m-7482 -50 c519 -27 1000 -52 1069 -55 69 -3 149 -8 178 -11 l52 -5
-2 -1147 -3 -1147 -60 2 c-130 3 -2280 147 -2286 152 -4 3 8 490 27 1081 18
591 33 1099 34 1128 0 48 2 52 23 52 13 0 448 -22 968 -50z m4910 -70 c-1 -58
-10 -411 -21 -785 -11 -374 -22 -783 -25 -910 -3 -126 -8 -272 -11 -323 l-6
-93 -123 66 -124 65 -337 0 -336 0 6 113 c3 61 18 479 32 927 18 556 30 819
38 826 6 6 157 46 336 88 179 42 377 90 440 106 63 16 119 28 124 26 5 -1 8
-49 7 -106z m545 1 c1101 -269 1361 -332 1397 -342 l37 -10 0 -119 c0 -65 -4
-121 -8 -124 -4 -2 -152 -17 -327 -31 -289 -24 -322 -29 -338 -47 -16 -19 -17
-78 -15 -1006 l3 -986 23 -6 c20 -4 4 -21 -127 -133 -178 -151 -259 -213 -339
-260 -163 -96 -299 -108 -463 -41 -95 39 -155 32 -294 -33 -60 -28 -127 -57
-148 -63 -53 -17 -167 -9 -200 13 l-27 17 0 536 c0 486 1 536 16 530 9 -3 66
-33 127 -66 60 -33 119 -60 129 -60 10 0 23 10 28 23 8 17 70 2028 70 2262 0
30 2 55 4 55 2 0 205 -49 452 -109z m13345 -281 c20 -657 31 -1832 20 -2146
-6 -182 -15 -342 -19 -355 l-10 -24 -508 15 -509 15 -3 1345 c-1 740 0 1351 3
1358 3 10 111 12 512 10 l508 -3 6 -215z m-11831 -1705 l0 -1305 40 0 40 0 0
1299 c0 715 3 1302 8 1304 8 5 934 -122 941 -129 5 -4 -18 -1766 -22 -1771 -2
-1 -76 -12 -166 -24 -99 -14 -169 -28 -177 -37 -11 -11 -14 -63 -14 -263 l0
-249 25 0 c35 0 31 -14 -9 -28 -18 -7 -73 -46 -121 -87 -48 -41 -96 -75 -107
-75 -11 0 -42 20 -69 44 -30 27 -65 48 -91 54 -63 16 -146 -4 -211 -50 -25
-18 -34 -20 -61 -10 -63 21 -94 23 -130 8 -56 -23 -68 -63 -60 -189 6 -95 5
-103 -15 -121 -26 -24 -84 -16 -117 15 -30 28 -30 34 1 71 47 56 23 154 -71
284 -55 77 -55 77 -36 98 100 108 79 216 -57 296 -11 6 -12 12 -4 22 6 7 16
30 23 51 10 33 10 45 -4 81 -18 46 -48 80 -82 90 -19 6 -57 -4 -117 -29 -16
-7 -17 40 -15 946 l3 954 300 26 c165 15 317 27 338 28 l37 1 0 -1305z m5287
-541 c-2 -2 -104 3 -228 11 -529 35 -1925 125 -1936 125 -10 0 -13 151 -13
720 l0 720 21 0 c19 0 393 34 1859 168 l295 27 3 -884 c1 -486 1 -886 -1 -887z
m386 1712 c155 -30 509 -98 787 -150 763 -145 898 -171 904 -177 7 -7 -22
-1311 -30 -1318 -3 -3 -99 -15 -214 -27 -124 -12 -216 -26 -225 -34 -10 -8
-15 -30 -15 -62 l0 -49 -97 7 c-54 3 -390 25 -748 48 l-650 41 -3 888 c-1 488
0 887 3 887 3 0 132 -25 288 -54z m-25663 -1354 l0 -848 -47 -23 c-27 -12
-102 -54 -168 -91 -183 -104 -306 -138 -403 -111 -18 5 -72 35 -121 66 -95 60
-191 104 -229 105 -12 0 -25 7 -29 16 -9 23 87 1448 99 1459 2 2 134 45 293
94 160 49 355 110 435 135 80 25 151 45 158 46 9 0 12 -176 12 -848z m345 759
c138 -49 355 -126 483 -172 l232 -83 0 -719 c0 -681 -1 -719 -17 -712 -132 50
-228 77 -293 82 -71 5 -77 4 -120 -26 -25 -17 -49 -31 -55 -31 -5 0 -41 16
-80 35 -118 59 -295 86 -387 59 -17 -5 -18 39 -18 825 0 457 1 831 3 831 1 0
115 -40 252 -89z m21215 -49 l35 -17 -3 -65 c-20 -486 -44 -965 -48 -969 -5
-6 -387 -60 -426 -61 l-28 0 1 303 c1 166 4 336 8 377 l6 75 185 3 c160 2 187
5 198 19 8 12 12 66 12 185 0 184 -2 180 60 150z m-3990 -1162 l0 -550 -43 0
c-24 0 -66 7 -93 15 -149 45 -370 72 -458 56 -33 -6 -60 -10 -61 -8 -2 2 33
1028 34 1035 1 1 141 2 311 2 l310 0 0 -550z m-6510 60 c0 -214 -4 -380 -9
-380 -5 0 -73 16 -152 35 -201 48 -308 65 -408 65 -144 0 -211 -26 -345 -133
-45 -36 -95 -65 -140 -81 -39 -15 -73 -26 -76 -26 -3 0 -4 187 -2 415 l2 415
23 1 c12 0 245 15 517 33 272 19 516 34 543 35 l47 1 0 -380z m550 350 c370
-25 2328 -153 3380 -221 173 -11 330 -22 348 -25 l32 -5 0 -192 c0 -106 -3
-235 -6 -287 l-7 -95 -94 0 -94 -1 -122 -62 c-67 -34 -133 -62 -147 -62 -14 0
-46 17 -73 40 -78 64 -141 63 -276 -4 -98 -50 -123 -53 -175 -22 -65 38 -106
35 -154 -11 -21 -21 -47 -50 -58 -65 -18 -26 -20 -26 -71 -15 -41 8 -90 8
-210 -4 -87 -7 -192 -14 -233 -14 -128 0 -238 47 -272 114 -24 48 -57 80 -93
90 -17 4 -129 6 -250 3 -142 -3 -270 0 -363 8 -172 16 -274 5 -332 -35 -73
-51 -211 -26 -506 91 -212 83 -356 99 -489 52 -89 -32 -139 -41 -176 -33 l-29
7 0 382 c0 211 3 386 7 389 8 9 -32 11 463 -23z m17483 -61 c43 -12 101 -59
123 -100 15 -30 20 -169 5 -169 -4 0 -68 11 -141 25 -73 14 -134 25 -136 25
-7 0 -4 217 3 223 10 11 104 8 146 -4z m-6208 -194 c44 -3 580 -37 1190 -75
1720 -109 2664 -169 2733 -176 l62 -6 0 -259 c0 -238 -1 -260 -17 -266 -10 -3
-70 -26 -133 -50 -98 -38 -122 -44 -166 -40 -64 7 -166 49 -317 132 -73 40
-130 65 -149 65 -17 0 -71 -19 -122 -41 -133 -61 -223 -89 -296 -95 -75 -7
-115 5 -310 87 -211 89 -268 78 -451 -87 -112 -102 -164 -140 -220 -159 -147
-52 -381 43 -575 232 -62 61 -69 65 -88 52 -93 -59 -202 -99 -271 -99 -30 0
-86 25 -180 80 -51 30 -159 60 -214 60 -17 0 -158 -29 -313 -64 -156 -35 -300
-67 -320 -71 l-38 -7 0 401 0 402 58 -5 c31 -3 93 -8 137 -11z m-283 -372 c3
-208 4 -379 3 -381 -1 -1 -54 33 -116 77 -148 104 -274 170 -337 178 -49 5
-49 5 -78 -38 -50 -74 -246 -163 -530 -239 l-81 -22 -68 26 c-137 55 -251 56
-367 3 l-53 -24 -50 33 c-50 34 -167 70 -185 59 -7 -4 -10 73 -10 222 l0 228
243 34 c133 19 539 76 902 126 363 51 674 93 691 94 l31 1 5 -377z m5639 22
l0 -350 -38 -2 c-240 -16 -390 -42 -575 -100 l-116 -36 -94 27 c-131 38 -275
59 -374 55 l-84 -4 0 318 c0 174 3 317 8 318 4 0 277 29 607 64 330 34 615 62
633 61 l33 -1 0 -350z m659 245 c294 -56 583 -111 643 -122 l107 -20 0 -218 0
-217 -56 -6 c-33 -3 -87 -21 -135 -43 l-79 -37 0 -61 c0 -36 -10 -94 -26 -145
-21 -70 -26 -107 -28 -215 -2 -143 -13 -182 -53 -192 -13 -4 -38 0 -56 7 -52
21 -198 175 -247 259 -62 109 -201 243 -305 297 -79 40 -169 72 -275 96 l-55
12 -3 345 c-1 190 0 350 2 357 3 7 11 11 18 8 7 -2 254 -50 548 -105z m2320
-305 c635 -19 1317 -39 1515 -45 198 -6 402 -13 453 -16 l92 -6 0 -138 0 -139
-122 6 c-97 4 -137 2 -187 -12 -74 -19 -184 -72 -228 -109 l-31 -26 -135 32
-136 31 -68 -30 c-119 -54 -223 -66 -343 -38 -36 9 -135 49 -220 90 -178 85
-291 125 -370 132 l-55 4 -102 -80 -103 -81 -35 25 c-20 13 -57 27 -82 31 -73
11 -259 -2 -375 -26 l-106 -22 -69 57 c-98 81 -199 129 -284 133 -83 5 -124
-8 -187 -58 -70 -56 -149 -93 -200 -94 -38 -1 -47 3 -72 34 l-29 35 -1 178 0
179 163 -7 c89 -3 682 -21 1317 -40z m-26545 -462 c-18 -120 -52 -354 -75
-520 -24 -166 -46 -307 -50 -313 -4 -7 -41 -4 -116 10 -60 11 -122 20 -138 20
l-29 0 7 -72 c3 -40 9 -94 12 -120 l7 -48 -44 6 c-24 3 -107 16 -184 28 -128
19 -140 23 -138 41 3 26 127 846 156 1035 23 144 23 145 50 148 16 2 47 -7 73
-22 l45 -25 100 20 c85 18 332 40 350 32 3 -1 -8 -100 -26 -220z m353 131
c107 -27 166 -36 270 -41 92 -4 132 -10 132 -18 0 -30 -100 -1038 -103 -1041
-6 -6 -671 107 -680 115 -4 4 13 146 38 315 25 169 45 312 45 317 0 6 9 8 20
4 15 -5 23 2 40 35 47 92 127 155 213 166 57 8 155 -18 235 -61 70 -39 95 -44
90 -18 -4 24 -99 79 -177 103 -155 49 -286 7 -368 -116 -20 -30 -38 -53 -40
-51 -3 4 45 341 52 364 3 8 18 4 50 -13 25 -14 107 -41 183 -60z m-263 -1054
c226 -39 531 -91 680 -116 148 -25 271 -47 273 -49 5 -5 -15 -145 -22 -152 -2
-3 -206 25 -453 61 -246 36 -550 79 -675 97 l-226 32 -6 31 c-3 17 -8 61 -12
99 -6 62 -5 67 12 67 11 0 204 -32 429 -70z m-535 -155 c963 -138 1422 -205
1448 -211 21 -4 23 -9 20 -72 l-3 -67 -110 -3 c-352 -11 -1112 65 -1857 184
l-228 37 0 119 0 120 33 -6 c17 -3 331 -48 697 -101z m-1340 -64 c625 -122
1190 -211 1715 -270 607 -69 1142 -83 1493 -40 56 7 104 10 106 8 8 -8 196
-402 193 -405 -5 -5 -3187 242 -3191 248 -2 2 -27 39 -57 83 -75 111 -233 267
-349 344 -107 71 -113 76 -85 68 11 -3 90 -19 175 -36z m3075 -31 l0 -45 -103
-13 c-57 -8 -106 -11 -109 -8 -3 3 -2 25 1 49 l7 44 77 10 c124 17 127 16 127
-37z m27 -166 c2 -42 1 -77 -2 -79 -3 -1 -60 -6 -127 -10 l-123 -7 0 71 c0 39
1 71 3 72 7 3 196 27 219 28 26 1 26 0 30 -75z m585 -58 c-3 -8 -34 -103 -68
-210 -35 -108 -66 -196 -71 -196 -9 0 -175 327 -180 356 -3 17 10 21 127 40
163 27 199 29 192 10z"/>
<path d="M5855 2457 c-87 -35 -149 -100 -199 -208 -18 -37 -22 -57 -15 -65 17
-21 33 -7 58 52 29 66 103 152 148 170 64 27 149 15 225 -33 42 -26 68 -30 68
-10 0 19 -26 40 -89 72 -63 31 -150 41 -196 22z"/>
<path d="M6623 2212 c1 -49 -3 -65 -30 -108 -18 -27 -48 -65 -67 -83 -40 -39
-46 -61 -17 -61 24 0 113 96 140 153 32 66 24 157 -13 157 -11 0 -14 -15 -13
-58z"/>
<path d="M2535 24433 c-502 -24 -1236 -92 -1604 -148 -190 -29 -592 -110 -790
-158 -224 -54 -162 -58 102 -6 585 115 1212 214 1582 248 361 34 1103 40 1455
11 598 -48 1078 -142 1477 -289 59 -22 109 -39 111 -37 1 2 -39 22 -90 44
-428 186 -960 298 -1583 332 -171 9 -504 11 -660 3z"/>
<path d="M5064 24157 c-60 -52 -147 -107 -166 -107 -10 0 -18 -4 -18 -10 0
-13 -148 -87 -270 -135 -208 -82 -532 -177 -850 -249 -226 -52 -230 -60 -8
-15 613 122 1120 310 1326 490 28 25 41 29 90 29 99 0 401 -30 567 -55 343
-53 519 -121 606 -231 l16 -21 204 24 c574 66 1166 172 1308 234 24 10 48 19
54 19 6 0 8 -60 5 -172 -7 -215 0 -243 78 -327 68 -73 143 -124 254 -172 236
-101 591 -163 1080 -189 l184 -10 39 -38 c21 -20 72 -76 113 -124 278 -331
337 -575 174 -722 -75 -68 -150 -94 -440 -152 -757 -152 -1361 -401 -1766
-727 -162 -131 -308 -305 -403 -479 -99 -180 -307 -305 -607 -364 -128 -26
-444 -25 -617 0 -96 14 -131 16 -140 7 -17 -17 -3 -26 113 -69 200 -75 329
-156 314 -196 -20 -53 -180 -86 -529 -111 -457 -32 -803 -89 -1570 -259 -728
-160 -1042 -215 -1340 -231 -106 -6 -259 3 -344 21 -19 4 -22 3 -11 -4 52 -33
364 -42 590 -17 183 21 496 75 840 145 157 33 416 86 575 119 517 106 826 151
1207 176 376 25 542 57 600 115 42 43 37 75 -20 129 -26 25 -76 60 -111 78
l-65 32 195 -1 c358 -2 605 68 807 227 76 59 102 92 173 219 67 118 116 183
219 290 383 398 1068 711 1939 886 125 25 233 53 278 71 84 35 164 102 195
163 26 51 34 144 18 220 -27 133 -161 342 -331 521 l-88 91 -213 12 c-651 37
-1084 150 -1268 332 -93 92 -96 100 -91 346 3 221 -1 244 -37 210 -79 -71
-487 -153 -1202 -241 -157 -19 -300 -35 -318 -35 -25 0 -40 8 -62 34 -104 118
-451 205 -984 246 -222 17 -246 15 -292 -23z"/>
<path d="M20885 21679 c-91 -11 -173 -32 -226 -59 -43 -22 -99 -84 -99 -108 1
-10 7 -4 14 14 131 301 1522 122 3836 -492 135 -36 247 -67 249 -69 7 -8 -20
-13 -674 -124 -950 -162 -1228 -210 -1242 -216 -24 -8 -13 -30 53 -108 36 -43
64 -80 62 -82 -1 -2 -163 -17 -358 -34 -1071 -94 -2017 -184 -2027 -193 -7 -6
-13 -18 -13 -27 0 -27 -98 -220 -144 -285 -50 -70 -123 -141 -184 -180 -195
-123 -484 -104 -611 40 -41 47 -81 135 -81 179 0 16 -6 25 -16 25 -8 0 -80
-34 -160 -76 l-144 -76 -93 86 -92 85 -186 0 c-205 1 -447 19 -734 56 -274 35
-285 37 -285 44 1 3 66 43 145 89 80 46 145 87 145 91 0 4 -172 13 -382 19
-1087 35 -1749 117 -2007 247 -66 33 -111 74 -111 100 0 7 8 22 18 34 46 56
500 130 1452 236 409 45 400 44 400 60 0 8 -19 44 -41 80 -24 38 -38 70 -33
75 16 15 137 50 259 75 426 86 1187 129 2399 134 258 1 471 3 473 5 12 11
-980 16 -1357 7 -980 -25 -1500 -78 -1772 -181 -32 -12 -58 -26 -58 -31 0 -5
19 -39 41 -75 23 -36 40 -67 38 -69 -3 -2 -132 -18 -289 -35 -545 -59 -1035
-125 -1270 -171 -220 -43 -290 -76 -290 -135 0 -210 688 -333 2105 -374 203
-6 371 -13 373 -15 2 -1 -60 -40 -137 -86 -78 -46 -138 -86 -133 -90 8 -8 207
-39 412 -64 238 -29 466 -45 640 -45 l175 0 92 -85 c50 -47 97 -85 104 -85 7
0 72 32 145 70 74 39 138 70 144 70 5 0 10 -10 10 -22 0 -47 56 -142 113 -195
78 -71 143 -94 277 -100 187 -9 307 36 440 164 86 82 167 205 216 326 l33 82
878 77 c483 42 1024 88 1203 103 218 19 330 32 339 41 12 11 3 25 -53 92 -36
44 -66 84 -66 89 0 5 192 42 428 82 1683 286 1567 265 1567 286 0 25 -17 30
-650 190 -1082 273 -1984 452 -2630 520 -186 19 -523 27 -630 14z"/>
<path d="M3355 19725 c5 -11 10 -52 13 -92 3 -60 0 -80 -18 -117 -67 -140
-284 -226 -683 -272 -99 -11 -269 -18 -566 -21 -464 -6 -674 3 -1011 42 -283
32 -1029 124 -1063 130 -20 3 -27 1 -24 -8 4 -13 109 -34 372 -71 256 -37 404
-52 945 -93 443 -33 535 -37 875 -37 316 -1 403 2 520 18 447 59 675 193 675
394 0 60 -14 119 -33 137 -7 7 -7 3 -2 -10z"/>
<path d="M25780 17779 c-124 -4 -340 -15 -480 -24 -445 -27 -1379 -110 -1280
-114 19 0 105 6 190 14 1472 140 2778 142 3146 4 51 -19 64 -20 316 -9 652 26
1649 56 2663 82 671 16 2227 16 2500 0 297 -18 505 -47 505 -71 0 -43 -270
-149 -560 -220 -389 -94 -1169 -231 -1740 -307 -179 -23 -189 -40 -50 -83 81
-25 145 -54 173 -79 66 -59 -64 -151 -346 -243 -308 -102 -987 -249 -1562
-339 -77 -12 -143 -27 -147 -34 -4 -6 -8 -22 -8 -37 0 -35 -49 -109 -104 -155
-140 -118 -449 -257 -788 -354 -94 -27 -118 -38 -118 -52 0 -10 4 -18 9 -18 5
0 119 18 253 40 708 115 1289 185 1833 221 238 16 785 16 955 0 426 -39 696
-120 833 -250 42 -39 77 -99 77 -129 0 -42 -154 -159 -315 -239 -380 -191
-1183 -403 -2065 -548 -118 -19 -230 -37 -247 -40 -30 -5 -37 -14 -72 -88 -56
-117 -113 -197 -195 -275 -89 -82 -161 -126 -270 -163 -287 -96 -664 -31
-1108 192 -65 32 -158 83 -207 114 -49 30 -93 55 -98 55 -5 0 -25 -22 -46 -50
-43 -57 -88 -83 -227 -128 -81 -27 -327 -92 -345 -92 -3 0 1 10 9 22 24 33 20
82 -9 116 -104 124 -631 230 -1505 301 -852 70 -1995 111 -3588 127 l-662 7
-21 33 c-55 89 -204 186 -375 243 -373 125 -1079 140 -1862 41 -84 -11 -155
-20 -158 -20 -3 0 9 12 28 27 168 135 273 282 330 463 19 64 23 96 23 216 l0
141 55 -23 c189 -77 541 -73 958 12 193 39 225 49 220 67 -3 6 -38 30 -79 52
-184 100 -221 169 -116 215 88 39 153 43 478 30 435 -18 1168 -8 1475 19 938
84 1571 274 1990 597 93 72 259 244 282 291 23 49 5 78 -71 113 -64 30 -216
65 -322 75 -39 3 -16 -4 63 -19 229 -45 322 -83 322 -132 0 -61 -195 -259
-369 -376 -413 -276 -1054 -454 -1886 -522 -453 -38 -854 -42 -1530 -14 -272
10 -282 10 -364 -11 -92 -23 -122 -39 -147 -76 -33 -51 12 -116 132 -191 41
-26 73 -48 71 -50 -8 -8 -242 -54 -377 -75 -187 -28 -497 -32 -606 -7 -72 16
-163 56 -197 86 -30 26 -41 3 -28 -58 6 -28 11 -98 11 -154 0 -265 -135 -496
-392 -674 -89 -62 -90 -87 -2 -71 22 4 132 19 245 33 590 74 1131 85 1509 30
276 -40 509 -132 610 -242 30 -32 63 -70 72 -84 l17 -25 1018 -6 c958 -6 1283
-12 1958 -37 1734 -64 2717 -202 2795 -390 13 -31 4 -56 -33 -97 -18 -20 -18
-23 -4 -23 32 0 363 88 452 121 78 28 97 40 147 92 l57 59 108 -65 c228 -137
456 -235 682 -294 175 -45 383 -56 521 -29 257 52 442 200 570 456 23 47 43
86 45 88 1 1 29 7 61 12 32 6 154 26 269 45 1023 168 1847 406 2180 628 89 59
165 136 165 167 -1 108 -160 239 -381 313 -370 124 -1068 149 -1934 72 -366
-33 -776 -84 -1139 -141 -87 -14 -160 -23 -162 -21 -2 2 40 21 94 42 307 121
487 234 552 349 17 28 30 61 30 74 0 12 4 22 8 22 4 0 149 25 322 55 977 169
1561 330 1707 471 36 34 43 47 43 79 0 48 -44 92 -124 125 -31 12 -55 25 -52
27 3 3 125 22 273 44 749 108 1467 251 1765 350 128 43 226 89 271 129 156
136 -202 180 -1483 180 -982 0 -2181 -31 -3928 -101 l-523 -21 -67 21 c-269
85 -823 117 -1572 90z"/>
<path d="M20795 3066 c-79 -25 -151 -70 -216 -135 -55 -55 -76 -87 -128 -195
-67 -136 -138 -226 -179 -226 -11 0 -32 11 -47 24 -104 97 -460 23 -553 -114
-32 -47 -26 -106 16 -163 32 -45 41 -49 56 -24 8 12 5 22 -11 39 -79 84 -33
161 129 222 156 59 273 58 339 -1 35 -32 43 -35 76 -28 65 12 139 99 212 249
48 98 75 140 119 185 59 60 153 115 220 129 28 6 38 13 40 30 4 26 -12 27 -73
8z"/>
<path d="M8294 3016 c-17 -7 -41 -27 -52 -44 -28 -38 -52 -132 -52 -199 0 -50
1 -53 25 -53 24 0 25 2 25 66 0 80 15 136 46 169 45 48 147 28 257 -51 48 -34
77 -39 77 -11 0 7 -20 28 -45 46 -102 74 -219 106 -281 77z"/>
<path d="M9932 2979 c2 -17 11 -25 32 -29 40 -7 64 -44 76 -115 11 -68 32
-101 81 -130 29 -17 52 -20 146 -20 l112 0 -7 -40 c-15 -86 -8 -158 21 -208
15 -26 31 -47 36 -47 4 0 26 -17 49 -38 51 -47 56 -90 17 -143 -36 -49 -75
-130 -75 -157 0 -53 49 -92 115 -92 28 0 35 4 35 20 0 15 -7 20 -25 20 -32 0
-72 19 -79 37 -8 19 26 96 59 134 65 78 55 152 -31 226 -31 25 -62 59 -70 74
-19 37 -18 132 2 198 9 30 12 57 7 62 -5 5 -46 4 -94 -2 -65 -9 -99 -8 -144 1
-75 16 -100 40 -109 110 -12 91 -54 146 -120 157 -35 6 -38 4 -34 -18z"/>
<path d="M20841 2913 c-21 -104 -109 -232 -254 -369 -74 -70 -190 -167 -249
-208 -21 -15 -21 -17 -6 -32 15 -16 23 -12 105 52 114 89 273 242 335 323 64
85 107 174 115 239 5 47 4 52 -14 52 -17 0 -22 -10 -32 -57z"/>
<path d="M4332 2911 c-48 -23 -129 -103 -158 -156 -15 -29 -16 -37 -5 -47 11
-11 17 -8 35 17 39 54 110 127 138 141 61 32 98 18 149 -57 27 -40 44 -56 54
-53 22 9 18 27 -17 80 -60 88 -119 110 -196 75z"/>
<path d="M2363 2839 c-50 -25 -90 -71 -129 -152 -24 -48 -26 -59 -14 -67 20
-12 27 -6 59 59 37 73 100 131 142 131 28 0 187 -61 217 -84 10 -7 12 -23 7
-57 -10 -72 24 -77 43 -6 12 43 4 74 -24 98 -23 19 -218 99 -242 99 -9 0 -36
-9 -59 -21z"/>
<path d="M8626 2801 c-27 -52 -36 -111 -24 -166 9 -43 21 -60 87 -126 88 -87
111 -115 111 -131 0 -8 6 -7 16 3 25 26 -3 76 -79 144 -36 32 -73 72 -81 90
-21 44 -20 101 3 151 14 31 16 45 8 53 -17 17 -25 13 -41 -18z"/>
<path d="M23758 2751 c-119 -80 -233 -212 -253 -293 -6 -23 -4 -28 11 -28 13
0 29 19 49 58 36 68 137 174 219 228 l58 38 24 -27 c37 -43 103 -159 126 -223
18 -48 22 -83 23 -184 1 -71 8 -143 15 -165 20 -62 56 -128 83 -153 21 -20 26
-21 36 -8 10 12 8 21 -12 48 -61 82 -70 113 -78 273 -8 196 -30 258 -146 423
-27 38 -51 62 -63 62 -10 0 -51 -22 -92 -49z"/>
<path d="M11923 2763 c-6 -16 1 -24 95 -104 l43 -36 -61 -62 c-49 -51 -59 -65
-49 -77 18 -21 33 -17 52 15 9 16 35 44 57 61 l40 32 73 -54 c118 -88 137
-100 152 -94 28 10 14 31 -48 73 -91 62 -123 90 -114 100 5 4 45 8 90 8 67 0
82 3 85 16 6 30 -108 40 -191 17 l-44 -11 -79 66 c-43 37 -83 67 -87 67 -4 0
-10 -7 -14 -17z"/>
<path d="M643 2740 c-47 -19 -56 -82 -22 -161 16 -35 27 -49 41 -49 23 0 22
12 -7 89 -8 24 -13 52 -10 62 8 24 39 24 190 4 150 -20 165 -20 165 5 0 22 1
21 -190 45 -142 17 -137 17 -167 5z"/>
<path d="M31359 2745 c-4 -3 -5 -14 -2 -24 4 -15 18 -19 72 -24 209 -17 255
-126 131 -307 -35 -52 -37 -60 -23 -71 13 -11 19 -9 40 16 14 17 41 63 60 103
32 64 35 79 31 134 -4 56 -8 64 -45 99 -25 23 -61 44 -92 53 -61 18 -163 31
-172 21z"/>
<path d="M1196 2701 c-3 -5 3 -29 14 -52 24 -53 25 -114 4 -179 -21 -65 -7
-106 52 -159 58 -51 163 -113 181 -107 28 11 11 33 -53 71 -37 21 -84 55 -105
75 -44 42 -48 68 -23 140 19 55 13 122 -16 179 -19 39 -42 52 -54 32z"/>
<path d="M9020 2695 c-61 -15 -249 -107 -274 -134 -14 -15 -14 -20 -3 -29 11
-9 32 -2 93 33 107 61 176 86 256 92 56 5 73 2 102 -15 31 -18 36 -19 48 -5
10 13 9 18 -11 34 -47 39 -117 47 -211 24z"/>
<path d="M5046 2670 c-46 -14 -101 -57 -135 -105 -61 -84 -90 -175 -56 -175 9
0 27 27 44 64 31 69 88 139 132 162 41 21 122 18 174 -7 44 -21 75 -20 75 1 0
5 -23 21 -51 36 -56 28 -137 39 -183 24z"/>
<path d="M35677 2590 c-59 -44 -107 -84 -107 -89 0 -5 6 -13 13 -19 10 -8 38
9 117 69 58 44 110 77 118 74 7 -3 21 -5 30 -5 14 0 16 -9 14 -48 -4 -47 18
-122 35 -122 27 1 31 17 16 64 -15 46 -15 51 4 96 12 27 18 51 15 54 -3 3 -38
6 -77 6 l-72 0 -106 -80z"/>
<path d="M4015 2643 c-46 -24 -83 -62 -121 -125 -46 -75 -82 -104 -149 -119
-44 -10 -72 -10 -128 -1 -114 19 -112 19 -112 -3 0 -16 11 -22 50 -31 73 -17
184 -16 236 1 60 22 89 48 142 131 50 79 89 112 136 117 41 5 62 24 41 37 -22
14 -61 11 -95 -7z"/>
<path d="M18687 2633 c-10 -3 -17 -12 -15 -21 3 -13 19 -18 73 -22 153 -12
217 -91 250 -305 18 -119 24 -142 50 -195 28 -54 58 -84 107 -105 47 -19 81
-19 146 0 54 16 58 20 43 44 -7 11 -15 11 -41 2 -52 -17 -121 -14 -158 9 -46
28 -81 109 -98 229 -33 222 -93 316 -230 357 -46 14 -91 16 -127 7z"/>
<path d="M13 2623 c-7 -2 -13 -18 -13 -33 0 -29 0 -29 28 -13 19 11 39 14 64
9 34 -6 55 -20 144 -91 32 -26 46 -30 99 -30 38 0 76 7 103 19 69 31 49 71
-21 41 -20 -8 -58 -15 -85 -15 -43 0 -54 5 -103 47 -30 25 -68 52 -86 60 -31
13 -105 17 -130 6z"/>
<path d="M12700 2612 c0 -18 8 -21 58 -27 220 -23 331 -57 371 -113 12 -18 33
-64 47 -104 36 -107 83 -148 169 -148 38 0 46 3 43 17 -2 11 -21 20 -56 28
-29 7 -61 20 -71 29 -11 10 -32 53 -47 96 -31 91 -69 142 -126 171 -51 26
-189 56 -300 65 -85 6 -88 6 -88 -14z"/>
<path d="M18399 2621 c-46 -14 -69 -31 -85 -62 -32 -62 21 -176 144 -310 52
-55 61 -62 75 -50 14 11 9 21 -46 84 -141 163 -172 256 -96 288 19 7 65 12
111 11 70 -1 78 0 78 17 0 11 -9 21 -22 25 -31 8 -127 6 -159 -3z"/>
<path d="M13793 2600 c-81 -9 -95 -14 -86 -35 4 -13 23 -14 112 -9 162 10 221
-15 221 -92 0 -38 -42 -121 -101 -199 -34 -46 -40 -58 -28 -66 22 -14 24 -12
66 44 117 156 137 258 63 321 -28 23 -45 27 -150 40 -14 2 -57 0 -97 -4z"/>
<path d="M8045 2576 c-161 -52 -211 -99 -181 -171 8 -18 39 -66 70 -106 31
-41 56 -80 56 -86 0 -7 9 -13 20 -13 14 0 20 7 20 23 0 23 -12 42 -88 140 -29
37 -42 64 -40 79 4 29 59 61 166 94 64 21 82 30 82 45 0 24 -18 24 -105 -5z"/>
<path d="M16022 2565 c-69 -30 -232 -218 -232 -267 0 -28 39 -45 115 -52 45
-4 87 -14 118 -30 70 -37 106 -18 46 25 -39 27 -110 49 -163 49 -67 0 -75 11
-40 61 49 72 148 165 188 179 35 11 39 10 65 -14 29 -28 61 -34 61 -12 0 8
-13 28 -29 45 -33 35 -73 40 -129 16z"/>
<path d="M4253 2529 c-76 -38 -134 -125 -166 -248 -13 -50 -17 -55 -53 -66
-47 -14 -107 -44 -178 -89 -66 -43 -81 -60 -63 -74 9 -8 27 -1 67 24 88 56
169 95 206 98 20 2 39 7 43 12 4 5 13 38 20 74 24 125 90 215 178 245 21 7 39
20 41 29 5 23 -43 21 -95 -5z"/>
<path d="M22103 2521 c-43 -11 -109 -51 -166 -101 -43 -38 -47 -45 -34 -58 14
-13 22 -9 74 33 98 81 179 106 205 65 13 -21 43 -27 53 -10 9 14 -46 69 -75
74 -14 2 -39 1 -57 -3z"/>
<path d="M26505 2501 c-50 -29 -125 -101 -125 -121 0 -29 33 -18 78 27 57 57
119 88 157 79 14 -4 54 -35 89 -70 40 -41 74 -66 94 -71 18 -3 32 -11 32 -15
0 -5 -12 -54 -26 -109 -21 -84 -24 -106 -14 -135 16 -48 43 -68 99 -74 51 -5
151 14 151 28 0 34 -10 37 -67 22 -45 -11 -65 -12 -95 -3 -59 18 -61 49 -13
220 13 48 13 58 1 76 -8 12 -29 25 -46 28 -20 4 -49 26 -83 63 -28 30 -64 62
-79 70 -43 22 -97 17 -153 -15z"/>
<path d="M10973 2504 c-8 -21 7 -30 90 -55 47 -15 82 -20 111 -16 41 6 42 6
66 -41 14 -25 44 -73 68 -105 23 -32 41 -61 38 -65 -14 -23 -26 -262 -17 -321
12 -73 23 -90 45 -72 11 9 13 19 5 37 -13 35 -11 185 3 300 l11 95 -31 32
c-17 18 -53 70 -80 117 -38 66 -53 84 -68 81 -73 -13 -113 -11 -164 8 -66 25
-69 25 -77 5z"/>
<path d="M29610 2489 c-77 -20 -312 -127 -325 -148 -3 -7 -2 -18 4 -25 9 -10
29 -3 103 35 152 78 252 110 348 110 60 1 89 -9 127 -44 22 -19 53 -18 53 3 0
19 -60 67 -99 79 -55 16 -125 13 -211 -10z"/>
<path d="M31275 2491 c-58 -36 -95 -100 -95 -166 0 -72 -72 -165 -191 -246
-61 -41 -64 -45 -50 -68 19 -29 216 132 256 210 10 19 24 67 31 107 13 77 29
104 77 129 17 8 27 21 25 30 -4 24 -19 25 -53 4z"/>
<path d="M2120 2469 c-52 -45 -104 -69 -150 -69 -49 0 -74 12 -116 56 -26 28
-39 34 -73 34 -36 0 -48 -6 -84 -42 -23 -24 -59 -75 -80 -114 -49 -95 -110
-253 -103 -270 13 -33 34 -9 65 74 69 181 153 312 201 312 11 0 37 -18 58 -39
67 -68 148 -76 244 -24 55 30 113 87 104 102 -11 18 -29 12 -66 -20z"/>
<path d="M3177 2460 c-53 -22 -110 -40 -125 -40 -60 0 -125 -64 -212 -211 -53
-90 -61 -119 -32 -119 11 0 25 14 36 38 24 50 119 193 144 215 11 10 46 25 79
32 32 8 91 28 132 45 96 39 141 46 178 28 50 -25 76 5 31 36 -41 29 -122 20
-231 -24z"/>
<path d="M33935 2478 c-16 -6 -47 -22 -69 -35 -35 -23 -37 -26 -23 -41 15 -14
21 -13 65 11 93 51 172 31 228 -57 26 -41 34 -46 74 -51 89 -11 152 -25 185
-41 43 -20 74 -13 54 13 -23 27 -89 51 -175 63 -79 12 -81 12 -115 58 -57 78
-144 108 -224 80z"/>
<path d="M32197 2461 c-3 -12 -2 -23 1 -25 4 -2 62 -11 130 -21 67 -10 122
-21 122 -24 0 -3 -11 -33 -25 -66 -48 -118 -28 -213 56 -256 48 -24 167 -36
243 -25 46 7 47 8 76 72 36 80 117 167 176 190 32 12 59 15 106 10 214 -22
238 -21 238 16 0 20 -4 20 -59 15 -36 -4 -85 -1 -129 8 -77 16 -146 9 -204
-21 -51 -26 -124 -109 -158 -178 -32 -64 -33 -64 -81 -71 -63 -9 -144 2 -190
26 -71 35 -75 115 -14 237 26 52 31 70 22 78 -7 6 -68 19 -137 28 -69 10 -135
19 -146 22 -16 4 -23 0 -27 -15z"/>
<path d="M22308 2463 c-28 -4 -34 -17 -20 -40 5 -8 21 -9 57 -2 100 20 229
-13 304 -77 30 -26 55 -64 90 -138 27 -55 60 -111 73 -123 85 -80 188 -43 347
123 111 117 136 128 219 101 39 -14 49 -14 61 -3 20 21 -28 48 -95 54 -79 7
-131 -16 -178 -78 -49 -64 -138 -146 -187 -170 -46 -24 -97 -26 -128 -4 -12 9
-42 58 -66 109 -65 141 -138 209 -257 241 -50 13 -158 16 -220 7z"/>
<path d="M14655 2434 c-38 -19 -185 -164 -185 -182 0 -33 32 -15 112 63 47 47
93 85 101 85 8 0 46 -26 85 -59 38 -32 76 -61 83 -63 9 -3 5 -20 -15 -62 -18
-38 -27 -74 -28 -109 0 -46 3 -54 36 -84 40 -37 51 -40 60 -16 5 12 -3 24 -24
41 -47 37 -38 105 27 203 28 43 26 54 -15 62 -16 3 -58 30 -93 60 -55 46 -99
77 -111 77 -2 0 -16 -7 -33 -16z"/>
<path d="M27678 2411 c-77 -20 -83 -24 -74 -47 4 -11 13 -14 29 -10 133 39
272 45 321 13 22 -15 25 -15 40 2 16 18 15 20 -27 40 -55 27 -191 28 -289 2z"/>
<path d="M2259 2404 c-8 -10 -13 -44 -14 -93 0 -74 2 -80 39 -134 38 -55 38
-57 22 -82 -29 -43 9 -65 38 -23 25 35 19 68 -20 125 -37 54 -40 75 -31 192 2
29 -15 37 -34 15z"/>
<path d="M11779 2373 c-18 -21 -57 -89 -87 -152 -43 -90 -51 -115 -40 -122 26
-17 33 -8 72 82 21 50 53 112 70 138 27 40 35 46 61 42 57 -8 69 -6 73 10 2
11 -9 19 -36 27 -61 19 -77 15 -113 -25z"/>
<path d="M16442 2314 c-62 -53 -146 -127 -185 -165 -63 -61 -70 -71 -54 -80
14 -8 38 9 140 98 211 186 218 192 247 181 14 -6 73 -12 133 -15 104 -6 107
-5 107 16 0 19 -5 21 -57 21 -75 0 -177 17 -181 30 -8 24 -44 3 -150 -86z"/>
<path d="M9017 2389 c-16 -10 -15 -14 14 -67 50 -90 121 -179 161 -204 21 -13
38 -25 38 -28 0 -6 -71 -50 -117 -74 -35 -18 -38 -23 -24 -45 18 -28 209 98
199 131 -2 7 -21 21 -41 31 -48 24 -109 94 -165 190 -24 42 -45 77 -46 77 0 0
-9 -5 -19 -11z"/>
<path d="M25050 2380 c-102 -17 -165 -62 -205 -145 -23 -50 -29 -55 -58 -55
-60 0 -136 -46 -222 -134 -81 -83 -188 -241 -189 -279 -1 -32 28 -32 43 0 29
63 128 201 185 259 73 73 131 105 205 113 l54 6 14 47 c29 101 115 148 272
148 85 0 244 -23 271 -40 10 -6 4 -19 -28 -55 -46 -53 -158 -268 -147 -284 16
-27 36 -3 90 105 41 83 74 134 116 179 69 74 68 76 -44 104 -144 37 -261 47
-357 31z"/>
<path d="M20960 2344 c-35 -8 -70 -20 -76 -27 -16 -16 -58 -158 -85 -287 -40
-192 -27 -420 25 -420 24 0 27 15 10 56 -13 32 -15 64 -11 174 4 112 11 158
41 273 19 75 40 146 45 156 12 22 81 41 150 41 50 0 50 0 69 -44 20 -44 140
-176 161 -176 6 0 14 7 18 16 4 10 -16 37 -60 81 -40 39 -73 82 -82 108 -26
67 -72 78 -205 49z"/>
<path d="M4740 2339 c-30 -5 -83 -23 -118 -40 -83 -41 -116 -88 -117 -169 0
-35 5 -63 14 -74 22 -27 34 -4 35 70 1 65 2 67 43 104 44 39 129 70 194 70 43
0 64 13 56 34 -7 17 -24 18 -107 5z"/>
<path d="M21463 2339 c-29 -8 -63 -41 -63 -61 0 -14 41 -9 56 7 33 32 121 7
236 -66 38 -25 49 -38 54 -67 10 -57 23 -75 47 -69 12 3 41 11 65 17 50 12
110 0 153 -31 24 -17 28 -17 40 -3 12 14 9 20 -15 39 -52 41 -137 54 -225 33
-9 -2 -18 11 -24 35 -11 46 -57 83 -162 132 -81 38 -118 46 -162 34z"/>
<path d="M31886 2340 c-35 -11 -72 -45 -94 -85 -22 -42 -19 -153 7 -235 11
-35 19 -65 18 -67 -7 -6 -322 -113 -327 -111 -4 2 -48 47 -98 101 -123 131
-152 191 -121 249 9 16 8 24 -5 36 -14 15 -17 14 -30 -3 -32 -43 -29 -102 8
-174 20 -37 223 -261 238 -261 16 0 371 129 381 139 5 5 -2 42 -17 90 -43 137
-30 236 36 272 13 7 55 13 95 13 60 -1 72 2 76 17 3 11 -2 19 -17 23 -30 8
-116 6 -150 -4z"/>
<path d="M27310 2316 c-44 -24 -135 -111 -178 -173 -22 -31 -22 -32 -4 -42 16
-8 27 0 75 59 56 69 122 122 166 133 13 3 37 -1 52 -8 28 -15 59 -11 59 6 0
16 -64 49 -95 48 -16 0 -50 -10 -75 -23z"/>
<path d="M35055 2313 c-59 -12 -106 -36 -103 -52 4 -19 19 -18 108 4 85 22
168 9 265 -40 91 -46 123 -45 175 1 40 37 51 68 27 77 -8 3 -25 -10 -40 -28
-38 -47 -66 -51 -129 -16 -93 52 -214 73 -303 54z"/>
<path d="M35741 2296 c-10 -12 -2 -23 46 -61 106 -83 347 -206 374 -189 25 15
-2 38 -86 73 -93 38 -172 85 -261 152 -58 44 -57 44 -73 25z"/>
<path d="M26095 2276 c-55 -25 -126 -91 -184 -170 -59 -80 -66 -96 -48 -113
13 -13 20 -8 58 48 57 85 135 167 181 190 20 10 55 19 76 19 23 0 45 6 52 15
10 12 8 16 -15 25 -40 15 -65 12 -120 -14z"/>
<path d="M4891 2256 c-17 -21 -29 -101 -21 -145 13 -70 79 -151 124 -151 28 0
18 29 -23 65 -62 56 -72 105 -45 218 5 20 3 27 -9 27 -8 0 -20 -6 -26 -14z"/>
<path d="M7274 2218 c3 -18 19 -45 36 -60 43 -39 99 -51 209 -44 l93 6 82 -60
c45 -33 112 -73 149 -90 65 -29 67 -31 67 -66 0 -50 -31 -96 -90 -134 -43 -28
-48 -34 -39 -51 10 -19 11 -19 42 -2 50 29 113 97 127 137 14 44 6 98 -18 118
-9 8 -47 29 -84 47 -38 18 -103 59 -147 91 l-79 58 -73 -9 c-126 -17 -208 5
-227 61 -8 21 -17 30 -33 30 -19 0 -21 -4 -15 -32z"/>
<path d="M29062 2224 c-86 -43 -137 -122 -172 -266 -24 -99 -25 -144 -5 -151
18 -8 23 0 31 54 20 140 60 235 123 292 40 36 110 63 137 53 14 -6 38 27 27
38 -15 15 -92 4 -141 -20z"/>
<path d="M17594 2226 c-18 -14 -15 -19 66 -98 144 -140 272 -226 362 -242 44
-8 101 13 117 42 9 17 8 22 -10 27 -13 4 -27 1 -38 -9 -58 -52 -199 23 -387
206 -83 81 -92 87 -110 74z"/>
<path d="M17117 2189 c-97 -23 -179 -84 -244 -182 -55 -83 -107 -136 -198
-203 -63 -46 -76 -66 -54 -79 26 -16 209 138 264 222 83 128 164 186 277 202
57 8 174 0 220 -15 14 -4 18 0 18 19 0 22 -6 25 -69 36 -80 13 -159 13 -214 0z"/>
<path d="M8315 2167 c-53 -21 -66 -32 -59 -50 7 -21 23 -21 48 -2 10 8 39 17
64 21 60 9 103 -14 142 -78 28 -44 33 -48 69 -48 39 0 91 17 91 29 0 3 -4 12
-9 20 -7 11 -15 11 -41 2 -48 -16 -54 -15 -75 26 -32 58 -88 93 -149 92 -28 0
-64 -6 -81 -12z"/>
<path d="M30345 2101 c-63 -18 -211 -87 -221 -103 -3 -5 -1 -15 6 -22 9 -12
26 -6 98 30 54 28 119 51 170 62 78 16 85 16 132 -1 28 -10 55 -15 60 -12 21
13 8 34 -30 49 -51 20 -138 19 -215 -3z"/>
<path d="M33526 2105 c-10 -26 0 -33 86 -60 146 -46 262 -53 384 -24 37 10 45
8 93 -22 79 -49 201 -51 266 -3 17 13 17 16 4 29 -14 14 -20 13 -64 -6 -72
-32 -140 -19 -216 42 -26 21 -27 21 -98 4 -121 -30 -291 -10 -432 49 -11 5
-19 1 -23 -9z"/>
<path d="M12928 2081 c-57 -36 -98 -102 -98 -157 0 -23 13 -66 30 -102 17 -35
30 -72 30 -82 0 -29 -38 -67 -85 -86 -48 -18 -50 -21 -36 -43 8 -12 16 -12 53
3 50 19 68 32 91 66 24 34 21 92 -7 148 -32 64 -38 96 -25 129 13 35 55 80 92
99 28 15 38 54 14 54 -7 0 -34 -13 -59 -29z"/>
<path d="M19479 2082 c-43 -112 -48 -238 -11 -274 24 -25 83 -26 136 -4 32 13
36 18 26 35 -9 19 -13 19 -45 5 -85 -35 -113 -6 -95 97 6 33 17 78 25 100 19
53 19 56 -6 62 -15 4 -23 -1 -30 -21z"/>
<path d="M3480 2077 c-127 -36 -217 -147 -237 -293 -5 -39 -4 -44 14 -44 16 0
23 12 37 67 29 117 91 193 183 224 31 10 128 9 233 -3 16 -2 25 3 28 14 2 12
-7 20 -35 27 -63 18 -174 22 -223 8z"/>
<path d="M15914 2072 c-90 -32 -144 -88 -224 -232 -89 -161 -144 -234 -189
-251 -23 -9 -23 -11 -8 -27 16 -15 19 -15 50 1 44 25 93 91 172 232 103 186
172 244 286 245 40 0 70 -7 105 -25 60 -30 74 -31 74 -4 0 15 -14 27 -53 44
-73 34 -149 40 -213 17z"/>
<path d="M28372 2059 c-206 -43 -508 -158 -822 -310 -144 -71 -213 -99 -234
-97 -27 3 -36 -6 -110 -104 l-81 -107 -80 5 -80 6 -242 -175 -242 -174 -152
23 c-84 12 -169 26 -189 29 -29 5 -39 3 -43 -9 -5 -12 18 -32 84 -77 50 -33
120 -89 157 -123 l66 -64 -799 -7 c-440 -4 -1357 -5 -2038 -2 -700 4 -1374 2
-1550 -3 -1305 -39 -4439 -188 -5917 -281 -607 -38 -837 -36 -1545 12 -1196
81 -3305 275 -5581 514 -392 41 -721 75 -733 75 -19 0 -40 -25 -29 -35 16 -16
3294 -344 4553 -455 1841 -162 2520 -202 2985 -175 2652 155 5224 275 6445
303 187 4 1223 6 2302 4 l1961 -4 42 -59 c23 -33 40 -62 37 -65 -2 -3 -314 0
-693 5 -1302 18 -3010 -16 -4889 -99 -1704 -75 -3179 -157 -4619 -255 -483
-33 -521 -35 -740 -25 -923 41 -3078 248 -6036 581 -586 65 -1125 127 -1199
135 -113 14 -135 14 -142 3 -14 -23 -11 -27 29 -33 47 -8 1753 -201 2302 -260
2697 -294 4369 -448 5115 -472 170 -5 279 -1 735 30 2710 182 5397 306 7530
346 1006 19 2612 7 2644 -19 6 -6 20 -32 30 -60 10 -27 23 -54 29 -58 7 -5 62
-5 122 -1 61 4 369 10 685 14 746 9 1132 -9 1569 -72 96 -13 178 -21 183 -16
4 4 13 107 20 228 6 120 15 224 20 231 27 34 464 183 753 256 1393 353 3319
468 5685 342 157 -9 344 -20 415 -25 171 -13 165 -13 165 10 0 26 -1 26 -310
44 -1222 73 -2352 85 -3285 36 -1410 -75 -2657 -289 -3342 -576 -59 -24 -112
-46 -118 -47 -5 -1 -11 24 -13 55 l-3 57 40 21 c144 73 680 225 1091 309 851
173 1761 273 3025 332 561 26 2312 21 2808 -8 l109 -6 -4 24 -3 24 -185 7
c-2913 108 -5434 -117 -6764 -604 -78 -29 -111 -37 -119 -29 -6 6 -37 11 -69
11 l-58 0 0 48 0 49 -122 7 c-68 4 -146 9 -175 13 -51 6 -52 6 -55 41 l-3 36
-489 113 c-269 62 -492 116 -495 119 -9 10 84 89 172 148 136 88 255 152 458
245 114 52 194 94 194 102 0 21 -59 20 -163 -2z m-222 -142 c-223 -113 -338
-187 -443 -286 l-57 -54 -103 23 c-56 12 -108 26 -115 30 -14 7 303 164 458
225 144 58 363 134 385 134 11 1 -45 -32 -125 -72z m-521 -381 c174 -41 467
-109 651 -152 363 -83 380 -88 380 -105 0 -9 -23 -10 -87 -5 -182 14 -1383
153 -1391 161 -4 4 119 173 127 175 2 0 146 -33 320 -74z m-436 -151 c911
-111 1466 -170 1772 -188 35 -2 40 -5 40 -27 0 -24 -2 -25 -60 -22 -33 1 -478
21 -988 43 -510 22 -934 38 -942 36 -7 -3 -25 -45 -40 -94 -15 -48 -28 -89
-30 -91 -1 -1 -86 9 -188 23 -102 14 -188 25 -192 25 -20 0 20 33 209 169 115
83 211 151 213 151 2 0 94 -11 206 -25z m792 -240 c435 -19 849 -37 920 -40
72 -3 154 -8 183 -11 l52 -5 0 -74 0 -73 -127 -7 c-154 -9 -802 0 -1038 15
-346 22 -937 73 -972 85 -10 3 3 62 32 142 3 9 26 11 82 7 43 -3 434 -20 868
-39z m-1591 -75 c365 -59 930 -120 1456 -157 185 -13 379 -17 789 -17 l543 -1
-6 -75 c-3 -41 -9 -132 -12 -202 -4 -71 -10 -128 -13 -128 -4 0 -69 9 -146 20
-319 44 -660 67 -1154 76 -303 6 -890 -6 -1106 -23 l-80 -6 -52 104 c-64 129
-156 244 -270 339 -48 41 -92 78 -97 82 -15 12 15 10 148 -12z"/>
<path d="M14288 1986 c-40 -35 -95 -56 -149 -56 -32 0 -42 -11 -151 -145 -65
-79 -118 -149 -118 -154 0 -12 32 -24 39 -13 3 5 52 65 109 134 84 103 109
128 135 133 85 16 120 31 162 67 36 32 43 43 34 54 -16 19 -19 18 -61 -20z"/>
<path d="M29500 2005 c0 -75 138 -174 335 -239 100 -33 138 -37 143 -14 2 13
-18 23 -99 48 -181 56 -296 121 -326 185 -17 36 -53 49 -53 20z"/>
<path d="M19873 1995 c-52 -36 -32 -118 47 -189 44 -40 216 -156 231 -156 8 0
10 4 13 29 1 5 -41 37 -92 70 -105 69 -182 143 -182 174 0 11 7 28 16 38 16
18 13 49 -3 49 -5 0 -18 -7 -30 -15z"/>
<path d="M15030 1967 c-14 -6 -70 -31 -125 -55 -281 -123 -396 -235 -302 -292
41 -25 57 -25 57 0 0 13 -10 24 -25 30 -34 13 -32 22 14 63 56 51 167 114 305
173 90 38 121 56 121 70 0 22 -13 26 -45 11z"/>
<path d="M18267 1962 c-30 -33 -38 -77 -43 -222 -4 -127 -23 -315 -41 -402 -5
-23 -2 -28 15 -28 11 0 22 6 25 14 15 38 39 253 46 411 8 177 8 178 34 199 15
12 27 27 27 34 0 18 -45 14 -63 -6z"/>
<path d="M15994 1952 c-9 -5 -9 -24 -2 -67 5 -33 8 -105 6 -160 -4 -99 -4
-101 -61 -208 -71 -134 -75 -182 -16 -212 39 -21 49 -19 49 9 0 15 -7 26 -20
29 -39 10 -34 36 31 164 l64 126 -2 126 c-3 168 -15 216 -49 193z"/>
<path d="M25605 1935 c-46 -17 -62 -35 -71 -83 -8 -41 4 -85 62 -222 74 -172
62 -190 -133 -190 -114 0 -123 -1 -123 -19 0 -16 11 -20 80 -26 144 -13 237
11 260 65 15 36 4 76 -64 240 -62 148 -46 200 60 200 42 0 53 3 57 19 8 33
-58 41 -128 16z"/>
<path d="M22387 1803 c-4 -3 -4 -35 -1 -69 10 -96 0 -129 -57 -186 -46 -46
-58 -78 -29 -78 19 0 91 73 112 114 41 80 20 264 -25 219z"/>
<path d="M24855 1738 c-97 -49 -152 -136 -143 -225 7 -76 27 -108 68 -111 94
-6 200 -26 242 -44 27 -12 55 -17 65 -13 16 6 15 9 -10 31 -36 31 -110 52
-217 61 l-85 8 -13 40 c-28 85 16 163 119 215 42 22 57 34 53 45 -8 20 -31 18
-79 -7z"/>
<path d="M11910 1631 c-116 -117 -249 -211 -299 -211 -11 0 -59 20 -107 45
-67 35 -89 43 -100 34 -20 -16 -11 -24 72 -70 41 -22 74 -42 74 -44 0 -14
-319 -105 -371 -105 -24 0 -29 -4 -29 -25 0 -14 2 -25 4 -25 2 0 41 7 87 16
104 19 234 57 308 91 46 21 73 25 148 27 50 0 94 4 97 7 4 3 4 14 0 23 -5 14
-15 16 -50 10 -24 -3 -44 -4 -44 -1 0 3 20 17 45 31 127 75 327 275 303 303
-6 7 -13 12 -17 12 -3 -1 -58 -54 -121 -118z"/>
<path d="M19034 1734 c2 -15 17 -22 69 -31 158 -29 191 -86 129 -223 -44 -97
-57 -169 -38 -215 25 -58 41 -40 42 46 0 63 6 86 38 158 42 93 45 143 11 194
-25 39 -113 78 -189 84 -59 5 -64 4 -62 -13z"/>
<path d="M10357 1666 c-51 -19 -69 -36 -106 -106 -18 -33 -43 -73 -57 -90 -14
-16 -23 -34 -19 -40 19 -31 63 11 116 111 47 87 98 108 213 84 36 -8 94 -26
127 -41 51 -23 62 -25 70 -13 14 23 12 25 -49 52 -120 54 -222 69 -295 43z"/>
<path d="M23752 1627 c-5 -7 -17 -26 -25 -43 -34 -66 -131 -80 -234 -34 -37
16 -43 17 -55 3 -10 -13 -9 -18 7 -29 30 -22 113 -44 166 -44 63 0 95 13 135
56 l34 35 45 -16 c25 -8 56 -15 69 -15 25 0 87 38 93 56 6 19 -27 25 -50 9
-31 -22 -78 -18 -130 9 -34 19 -48 22 -55 13z"/>
<path d="M17305 1592 c-151 -81 -263 -174 -312 -261 -79 -140 -215 -204 -330
-156 -36 15 -52 9 -53 -18 0 -17 78 -39 139 -39 114 1 219 70 276 181 42 83
179 194 327 267 43 21 54 31 51 45 -7 26 -18 24 -98 -19z"/>
<path d="M21886 1612 c-2 -4 -7 -22 -11 -41 -11 -50 -97 -133 -159 -154 -73
-25 -210 -38 -294 -29 -78 9 -82 8 -82 -19 0 -39 251 -38 370 1 87 28 149 75
181 136 38 72 44 100 19 107 -11 3 -22 2 -24 -1z"/>
<path d="M14616 1459 c-148 -140 -201 -234 -172 -304 22 -52 64 -68 184 -73
97 -4 104 -3 100 14 -3 16 -16 20 -88 25 -91 7 -115 13 -142 37 -44 38 -2 118
130 250 67 66 102 108 98 117 -3 8 -10 15 -15 15 -5 0 -48 -36 -95 -81z"/>
<path d="M14893 1523 c-19 -7 18 -73 66 -116 45 -41 100 -71 177 -97 55 -19
64 -18 64 10 0 11 -14 21 -42 30 -96 28 -176 81 -214 141 -24 39 -28 42 -51
32z"/>
<path d="M23143 1495 c-45 -19 -118 -89 -171 -163 -36 -51 -42 -66 -31 -73 22
-14 23 -13 78 61 61 82 128 137 180 146 33 6 50 18 51 37 0 12 -73 7 -107 -8z"/>
<path d="M13587 1454 c-54 -19 -137 -39 -185 -46 -48 -7 -90 -17 -94 -23 -4
-5 -8 -26 -8 -47 0 -53 -34 -153 -65 -194 -35 -46 -105 -91 -156 -99 -30 -5
-39 -11 -39 -27 0 -19 4 -20 45 -15 63 9 114 37 163 91 51 55 77 113 92 199
l11 63 81 12 c44 7 124 28 177 45 77 26 96 36 96 51 0 11 -4 20 -10 21 -5 1
-54 -13 -108 -31z"/>
<path d="M20265 1415 c-71 -30 -158 -67 -192 -81 -59 -25 -77 -44 -53 -59 6
-4 101 30 211 76 150 62 199 86 197 98 -5 27 -28 22 -163 -34z"/>
<path d="M9842 1375 c-41 -59 -70 -65 -137 -31 -64 32 -142 35 -214 7 -74 -28
-93 -44 -78 -64 11 -15 17 -14 67 11 71 35 158 37 210 4 49 -31 110 -29 149 3
37 32 75 91 66 105 -12 20 -32 9 -63 -35z"/>
<path d="M18522 1270 c-72 -59 -101 -98 -109 -144 -7 -42 9 -71 49 -92 25 -13
32 -14 39 -2 14 21 11 26 -21 43 -16 9 -30 24 -30 33 0 28 55 95 115 142 44
34 53 45 44 56 -17 21 -23 18 -87 -36z"/>
<path d="M17850 1291 c-114 -25 -249 -62 -254 -70 -3 -4 -1 -13 4 -20 6 -11
31 -8 133 17 69 17 151 35 183 38 33 4 67 13 77 20 18 12 18 13 -1 23 -26 14
-39 13 -142 -8z"/>
<path d="M16298 1136 c-31 -13 -73 -33 -93 -45 l-37 -21 -29 24 c-16 14 -54
30 -85 37 -49 11 -69 10 -136 -3 -93 -20 -192 -62 -185 -80 6 -18 41 -13 127
17 61 22 88 26 146 23 64 -3 77 -7 114 -37 l42 -33 92 46 c51 26 109 49 130
53 21 3 41 14 47 24 9 17 6 19 -33 19 -24 0 -69 -11 -100 -24z"/>
<path d="M12228 1138 c-46 -10 -56 -20 -40 -44 5 -9 24 -8 72 2 144 30 286 11
428 -57 86 -41 88 -41 172 -36 98 6 122 13 118 36 -4 17 -6 17 -120 5 -63 -6
-70 -5 -138 30 -105 55 -201 76 -334 75 -61 -1 -132 -6 -158 -11z"/>
<path d="M15265 1040 c-77 -20 -237 -76 -273 -94 -19 -10 -20 -14 -10 -29 12
-16 18 -15 89 13 175 68 338 102 391 81 24 -9 29 -7 38 9 9 17 7 22 -15 30
-41 15 -143 11 -220 -10z"/>
</g>
</svg>
