<?xml version="1.0" standalone="no"?>
<!DOCTYPE svg PUBLIC "-//W3C//DTD SVG 20010904//EN"
 "http://www.w3.org/TR/2001/REC-SVG-20010904/DTD/svg10.dtd">
<svg version="1.0" xmlns="http://www.w3.org/2000/svg"
 width="282.000000pt" height="284.000000pt" viewBox="0 0 282.000000 284.000000"
 preserveAspectRatio="xMidYMid meet">
<metadata>
Created by potrace 1.16, written by Peter Selinger 2001-2019
</metadata>
<g transform="translate(0.000000,284.000000) scale(0.100000,-0.100000)"
fill="#000000" stroke="none">
<path d="M2589 2610 c-6 -16 -14 -30 -18 -30 -3 0 -15 -15 -25 -34 -20 -38
-44 -53 -52 -33 -2 7 -6 31 -7 53 -2 32 -6 39 -22 39 -21 0 -23 -13 -10 -72 6
-26 4 -33 -7 -33 -8 0 -25 -11 -38 -25 -25 -27 -50 -33 -50 -12 0 6 -11 24
-24 40 -43 50 -120 32 -133 -33 -5 -29 -47 -57 -58 -40 -4 7 -13 6 -26 0 -25
-14 -25 -50 -1 -50 13 0 24 -13 35 -40 12 -31 25 -45 58 -59 23 -11 47 -17 53
-15 7 3 12 -13 14 -41 2 -37 8 -51 35 -75 28 -25 40 -29 90 -30 61 0 85 8 118
41 20 20 20 20 53 0 24 -15 50 -21 94 -21 56 0 62 2 81 29 22 31 27 66 11 76
-6 4 -10 -6 -10 -23 0 -66 -81 -92 -161 -51 -37 19 -41 23 -35 50 5 27 4 29
-14 19 -73 -39 -272 52 -222 102 7 7 18 5 33 -6 29 -20 49 -21 49 -2 0 21 -18
30 -34 17 -10 -8 -16 -7 -25 3 -12 14 -45 11 -37 -3 2 -3 -2 -21 -9 -39 -16
-37 -41 -41 -85 -15 -29 17 -50 51 -50 82 0 23 35 55 53 48 10 -4 13 1 9 19
-6 30 22 74 48 74 10 0 31 -10 45 -23 27 -23 33 -51 20 -97 l-7 -25 14 25 c7
14 22 26 32 28 10 2 27 13 37 23 27 27 68 41 96 34 27 -6 63 -72 63 -115 0
-36 6 -37 31 -8 23 25 24 32 4 24 -10 -4 -17 6 -25 33 -5 21 -17 44 -25 51
-16 13 -9 29 48 103 16 20 26 44 23 52 -9 24 -26 17 -37 -15z"/>
<path d="M130 1956 c0 -8 5 -18 10 -21 6 -4 8 -11 5 -16 -4 -5 2 -9 11 -9 9 0
41 -25 71 -56 62 -64 121 -94 243 -124 173 -42 171 -42 191 -74 13 -21 19 -25
19 -13 0 9 2 17 5 17 15 0 116 -83 136 -112 13 -18 40 -53 61 -77 28 -32 46
-69 69 -141 16 -54 29 -104 28 -111 -2 -8 7 -40 19 -72 12 -31 25 -83 28 -115
12 -114 83 -367 114 -404 27 -32 25 -20 -8 54 -16 34 -34 86 -40 113 -35 157
-42 193 -42 223 l0 32 89 0 c49 0 106 6 127 14 22 7 63 17 92 21 l52 7 1 -54
c4 -117 -4 -186 -28 -261 -27 -81 -73 -157 -97 -157 -13 0 -46 -31 -46 -43 0
-12 63 13 76 30 32 40 69 109 85 159 21 63 41 228 37 298 l-3 49 43 15 c54 21
55 34 1 16 -22 -8 -45 -11 -51 -8 -6 4 -14 1 -18 -5 -8 -13 -62 -30 -122 -38
-21 -3 -38 -8 -38 -12 0 -4 -34 -8 -76 -10 -68 -2 -76 0 -70 15 4 11 2 15 -8
11 -12 -5 -15 6 -14 61 1 104 2 102 -26 89 -28 -13 -42 -47 -20 -47 8 0 14 5
14 11 0 5 4 8 9 5 12 -8 8 -106 -6 -130 -9 -16 -14 -6 -36 65 -14 46 -29 98
-33 114 -25 117 -87 245 -119 245 -7 0 -21 17 -30 38 -25 52 -96 116 -158 141
-28 11 -106 34 -172 51 -66 17 -132 39 -147 50 -15 11 -30 20 -33 20 -4 0 -13
6 -20 13 -33 29 -45 37 -54 37 -5 0 -31 25 -57 55 -50 57 -64 66 -64 41z"/>
<path d="M99 1261 c-5 -14 -47 -23 -54 -10 -12 19 -23 8 -20 -20 13 -99 90
-252 160 -316 12 -11 35 -42 50 -70 16 -27 54 -75 85 -105 30 -30 74 -76 98
-103 23 -26 45 -47 48 -47 3 0 20 -11 37 -24 18 -14 45 -28 62 -32 29 -7 30
-7 11 12 -11 10 -23 19 -26 19 -19 0 -186 154 -215 198 -9 15 -21 25 -25 22
-10 -6 -90 102 -90 122 0 7 -4 13 -8 13 -12 0 -142 195 -142 212 0 8 -5 19
-11 25 -20 20 -6 57 26 67 39 13 38 12 27 32 -6 10 -11 12 -13 5z"/>
<path d="M1129 536 c-2 -3 -22 -7 -44 -9 -22 -3 -65 -17 -95 -31 -43 -20 -71
-26 -125 -26 -87 0 -176 10 -170 20 2 4 -16 11 -40 17 -38 9 -43 8 -34 -3 6
-8 20 -14 31 -14 10 0 30 -7 43 -16 18 -12 56 -17 136 -20 108 -4 113 -4 172
26 62 31 158 42 172 20 3 -5 14 -10 24 -10 14 0 20 -11 25 -42 4 -22 14 -53
22 -67 18 -30 61 -54 70 -40 3 6 -8 15 -25 22 -21 8 -32 20 -36 39 -3 15 -8
41 -11 58 -3 16 -18 38 -32 48 -27 19 -76 35 -83 28z"/>
</g>
</svg>
