<?xml version="1.0" standalone="no"?>
<!DOCTYPE svg PUBLIC "-//W3C//DTD SVG 20010904//EN"
 "http://www.w3.org/TR/2001/REC-SVG-20010904/DTD/svg10.dtd">
<svg version="1.0" xmlns="http://www.w3.org/2000/svg"
 width="700.000000pt" height="700.000000pt" viewBox="0 0 700.000000 700.000000"
 preserveAspectRatio="xMidYMid meet">
<metadata>
Created by potrace 1.16, written by Peter Selinger 2001-2019
</metadata>
<g transform="translate(0.000000,700.000000) scale(0.100000,-0.100000)"
fill="#000000" stroke="none">
<path d="M1279 6601 c-112 -44 -215 -145 -319 -317 -201 -328 -286 -674 -251
-1029 16 -164 43 -290 103 -475 30 -92 40 -119 125 -320 62 -144 76 -196 69
-246 -10 -75 -88 -212 -179 -312 -44 -49 -77 -118 -77 -159 0 -31 -14 -169
-25 -248 -8 -57 16 -197 66 -391 70 -269 69 -263 54 -429 -17 -183 -38 -295
-67 -351 -30 -62 -128 -168 -250 -274 -113 -97 -130 -122 -146 -210 -11 -59
-8 -368 8 -774 6 -136 10 -317 10 -400 l0 -152 43 -41 c23 -23 58 -49 77 -57
93 -38 331 -47 368 -12 10 9 31 16 46 16 39 0 66 17 66 42 0 34 -59 181 -86
211 -25 29 -92 66 -157 87 l-38 12 6 51 c3 29 10 129 15 222 8 147 13 181 38
255 37 108 65 160 97 183 l25 18 0 -295 c0 -508 11 -532 258 -563 139 -17 181
-13 231 21 20 14 46 26 58 26 33 0 46 25 40 75 -17 121 -119 228 -240 250
l-37 7 0 163 c0 227 23 347 92 475 147 273 184 318 333 400 127 71 330 261
342 320 3 17 9 30 13 30 5 0 50 -11 102 -24 203 -54 258 -45 277 44 6 27 8 76
5 109 -6 54 -5 60 16 71 31 17 105 2 356 -71 115 -34 231 -67 257 -75 27 -7
85 -24 130 -38 198 -60 270 -80 416 -117 171 -43 406 -89 461 -89 61 0 61 0
66 -196 2 -98 9 -237 15 -309 6 -71 14 -258 18 -415 5 -157 12 -293 16 -302 4
-10 16 -20 26 -23 40 -13 51 -48 60 -207 13 -204 36 -282 104 -351 24 -23 35
-25 163 -33 169 -10 232 -7 252 11 8 8 42 20 74 27 74 16 85 32 67 95 -23 81
-21 94 27 126 38 26 42 32 42 70 0 118 -66 217 -145 217 -52 0 -75 27 -89 104
-25 138 17 971 60 1190 22 116 59 201 102 236 20 17 44 30 53 30 9 0 21 11 27
25 9 18 19 25 41 25 20 0 30 6 34 20 3 12 14 20 26 20 23 0 23 0 21 86 -1 54
4 71 48 160 63 125 116 256 132 326 7 29 14 59 16 66 2 6 14 12 28 12 29 0 37
17 30 62 -5 27 -1 38 20 57 29 27 33 49 11 57 -8 3 -19 22 -26 41 -25 77 11
249 141 681 44 144 80 264 80 266 0 2 44 6 98 9 132 9 193 29 249 80 48 44 76
91 101 171 19 58 21 257 3 323 -6 22 -7 51 -2 68 l8 30 109 -4 c200 -6 320 25
420 110 124 106 164 213 179 479 3 52 8 115 11 140 6 54 -7 95 -36 110 -12 6
-67 18 -123 26 -110 17 -257 53 -342 85 -57 21 -125 85 -125 117 0 30 -48 90
-94 117 -45 26 -181 72 -296 100 -36 8 -128 18 -205 21 -286 13 -435 -48 -583
-240 -49 -63 -53 -70 -105 -171 -17 -33 -62 -112 -100 -175 -38 -63 -79 -131
-90 -150 -148 -253 -304 -507 -390 -633 -43 -64 -83 -106 -143 -155 -222 -180
-226 -183 -465 -294 l-154 -72 -180 0 c-99 -1 -313 3 -475 9 -443 14 -1020 12
-1176 -4 l-131 -14 -53 29 c-125 68 -236 225 -294 416 -55 180 -67 267 -71
513 -6 335 18 467 116 652 44 84 101 174 135 213 7 8 37 55 68 104 72 114 76
170 15 201 -37 20 -94 18 -150 -4z m151 -36 c6 -8 10 -19 8 -25 -12 -36 -292
-200 -341 -200 -16 0 -8 8 27 26 58 29 152 103 216 168 46 48 69 56 90 31z
m-11 -87 c-48 -90 -92 -148 -122 -157 -99 -32 -297 -61 -297 -44 0 23 29 41
73 47 26 3 78 19 115 34 68 30 204 112 217 131 13 22 26 11 14 -11z m4127
-137 c-18 -29 -291 -76 -361 -62 l-40 8 29 12 c86 35 389 70 372 42z m82 -9
c10 -7 10 -16 -1 -48 -13 -37 -17 -40 -83 -58 -133 -37 -434 -23 -434 20 0 17
1 17 115 15 91 -2 229 25 315 63 39 17 69 20 88 8z m119 -39 c30 -23 48 -28
102 -30 81 -3 165 -42 199 -92 34 -51 30 -61 -20 -49 -41 9 -128 5 -162 -8
-13 -5 -16 2 -16 44 0 43 -4 54 -26 71 -34 26 -60 27 -76 1 -19 -30 -37 -24
-54 15 -31 76 -10 96 53 48z m-4475 -39 l-37 -56 -125 4 c-140 4 -156 9 -137
38 10 17 24 20 82 21 41 0 105 10 155 23 47 13 88 24 92 25 3 1 -10 -24 -30
-55z m3791 -41 c-5 -17 -5 -17 11 -2 16 15 21 15 64 -2 39 -14 47 -21 44 -40
-5 -46 -29 -59 -106 -59 -62 0 -73 3 -84 21 -12 19 -10 25 24 60 41 42 57 49
47 22z m551 -15 c-12 -39 -78 -181 -107 -230 l-29 -48 20 -27 c48 -69 129
-258 114 -267 -4 -2 -23 3 -42 13 -33 15 -36 21 -67 131 -17 63 -32 131 -32
150 -1 30 44 214 64 261 7 19 41 37 68 38 15 1 17 -4 11 -21z m-93 -5 c-5 -10
-23 -74 -40 -143 l-31 -125 30 -123 c16 -68 35 -133 41 -144 10 -19 9 -20 -23
-13 -57 13 -64 21 -97 126 -48 148 -48 156 -4 294 37 116 40 120 73 132 51 17
63 16 51 -4z m-4424 -32 c-2 -9 -20 -65 -38 -124 l-33 -108 19 -67 c31 -109
28 -202 -5 -202 -30 0 -45 23 -83 122 -54 141 -54 135 -11 256 45 127 64 150
118 144 29 -3 37 -8 33 -21z m4201 14 c2 -2 -13 -54 -32 -116 -20 -62 -36
-122 -36 -135 0 -12 16 -73 35 -135 20 -61 34 -113 33 -115 -2 -1 -19 -5 -39
-9 -26 -5 -40 -2 -51 9 -18 17 -98 219 -98 246 0 29 71 218 91 245 16 20 25
23 57 18 20 -3 38 -7 40 -8z m-4088 -4 c0 -5 -18 -42 -39 -83 -35 -64 -64
-148 -86 -243 -7 -29 -8 -29 -26 24 l-19 54 36 116 c20 64 41 122 46 129 12
14 88 17 88 3z m4200 2 c0 -5 -16 -57 -35 -117 -19 -60 -35 -119 -35 -130 0
-12 16 -74 36 -138 21 -65 35 -121 31 -124 -3 -3 -24 -3 -46 1 l-41 7 -39 125
-40 125 36 117 c19 64 40 122 45 129 11 13 88 17 88 5z m-425 -52 c8 -25 42
-33 111 -25 33 4 55 3 53 -2 -2 -5 -12 -30 -22 -55 l-19 -46 -79 -7 c-44 -4
-84 -4 -90 -1 -5 4 -16 20 -24 36 -15 28 -15 31 16 74 36 50 45 54 54 26z
m1125 -63 c26 -24 63 -55 80 -71 30 -25 32 -31 28 -72 -11 -96 -94 -162 -217
-172 -96 -8 -159 9 -217 60 -26 23 -55 59 -65 81 -16 36 -16 44 -3 76 20 49
96 117 152 135 31 10 72 13 120 11 70 -4 76 -7 122 -48z m-1200 -63 c13 -24
18 -25 99 -25 l86 0 -1 -46 -1 -47 -84 2 -84 2 -25 -43 c-14 -24 -32 -58 -39
-75 l-13 -33 -28 20 c-16 11 -35 20 -44 20 -18 0 -22 15 -6 25 17 10 80 126
75 136 -7 10 34 89 45 89 4 0 13 -11 20 -25z m1732 -105 c42 -12 63 -40 54
-74 -3 -12 -6 -52 -7 -89 -2 -69 -12 -87 -23 -41 -11 41 -51 98 -102 142 -26
23 -45 44 -43 46 6 5 62 24 74 25 6 1 27 -4 47 -9z m-121 -49 c54 -34 114
-112 136 -176 18 -55 14 -146 -10 -191 -30 -58 -54 -74 -107 -74 -148 0 -274
138 -275 302 0 59 3 70 31 105 40 49 67 63 130 63 38 0 61 -7 95 -29z m-5595
-28 c11 -27 21 -51 22 -55 2 -5 -30 -8 -72 -8 -70 0 -77 -2 -92 -25 -21 -33
-26 -28 -14 16 5 19 14 53 20 77 l11 42 53 0 53 0 19 -47z m4205 -8 l25 -55
-81 0 -81 0 -33 -65 c-17 -36 -34 -65 -36 -65 -2 0 -18 21 -35 47 l-32 47 36
73 36 73 87 0 88 0 26 -55z m-346 -55 c13 0 115 -117 164 -188 25 -35 23 -46
-14 -95 -13 -18 -18 -15 -74 45 -33 36 -70 77 -82 92 -12 16 -39 36 -60 45
l-38 16 30 48 c21 34 35 47 45 43 9 -3 22 -6 29 -6z m1361 -7 c-11 -36 -23
-113 -18 -118 3 -2 29 15 57 40 51 43 53 44 59 22 3 -12 6 -31 6 -42 0 -28 52
-134 85 -173 15 -18 26 -34 24 -35 -2 -1 -17 -9 -34 -19 -43 -23 -62 -60 -49
-95 5 -15 18 -29 29 -31 45 -7 47 -10 28 -43 -16 -28 -77 -79 -94 -79 -4 0 -1
17 7 38 19 52 17 97 -5 140 -39 76 -129 132 -186 118 -20 -5 -26 -2 -31 19
-16 64 -133 116 -217 96 -40 -9 -105 -53 -114 -77 -12 -32 -19 -10 -12 40 7
54 23 96 37 96 4 0 15 -9 25 -20 22 -26 55 -25 84 2 18 17 23 32 23 70 0 48 0
48 28 41 46 -13 174 -7 212 10 47 21 63 21 56 0z m-5182 -23 c8 -8 17 -26 21
-40 5 -23 1 -27 -42 -42 -45 -16 -49 -16 -67 0 -18 16 -19 16 -14 -5 4 -16 -4
-31 -33 -59 -38 -37 -39 -37 -59 -19 -28 26 -26 77 8 137 l27 50 72 -4 c47 -2
78 -9 87 -18z m4200 0 c8 -8 17 -26 21 -40 5 -23 1 -27 -42 -42 -45 -16 -49
-16 -67 0 -18 16 -19 16 -14 -5 4 -16 -4 -31 -33 -59 -38 -37 -39 -37 -58 -19
-32 28 -34 51 -11 102 35 79 45 86 122 81 42 -2 73 -9 82 -18z m361 -94 c39
-9 75 -20 82 -24 13 -8 40 -98 32 -107 -3 -3 -48 10 -100 29 -146 52 -238 70
-335 63 -53 -4 -86 -2 -90 4 -32 52 245 75 411 35z m-790 1 c0 -1 37 -41 83
-89 86 -92 93 -108 66 -159 l-15 -31 -95 100 c-64 68 -104 103 -124 107 l-30
7 23 39 c21 37 24 39 57 34 19 -4 35 -8 35 -8z m-3855 -59 c0 -11 -11 -35 -24
-52 -36 -47 -74 -127 -93 -198 l-18 -63 -7 40 c-21 118 -9 154 81 248 50 52
61 57 61 25z m4200 0 c0 -11 -11 -35 -24 -52 -57 -75 -96 -179 -126 -334 -11
-58 -23 -108 -25 -111 -3 -2 -21 11 -40 29 -42 40 -44 64 -14 152 35 103 99
217 157 279 59 64 72 71 72 37z m307 -12 c76 -16 245 -75 254 -88 3 -5 6 -32
8 -61 1 -28 4 -60 7 -70 4 -11 -20 1 -68 36 -130 93 -224 136 -330 150 -52 8
-100 17 -107 21 -44 28 123 35 236 12z m551 -10 c36 -19 61 -48 71 -82 5 -18
14 -27 22 -25 75 22 140 -9 182 -87 31 -58 33 -81 11 -145 -22 -66 -76 -97
-164 -97 -64 0 -100 -16 -100 -45 0 -12 -43 -25 -83 -25 -37 0 -106 40 -126
74 -25 39 -51 144 -61 246 -9 88 2 122 56 170 31 27 42 30 100 30 36 0 77 -6
92 -14z m-1190 -93 c115 -121 116 -123 101 -171 l-11 -40 -106 104 c-65 64
-116 105 -134 109 -33 8 -32 5 -11 50 14 29 22 35 47 35 26 0 45 -14 114 -87z
m-3845 64 c3 -8 -11 -49 -31 -93 -35 -76 -36 -84 -40 -214 -2 -74 0 -159 6
-187 5 -29 7 -53 3 -53 -3 0 -18 12 -34 25 -20 18 -31 41 -42 95 -8 39 -15 88
-15 109 0 68 62 234 113 303 23 31 32 34 40 15z m4200 0 c3 -8 -11 -49 -31
-93 -35 -77 -36 -83 -40 -220 -2 -78 0 -162 6 -188 5 -25 8 -46 5 -46 -2 0
-24 15 -48 33 -23 17 -50 37 -59 42 -15 9 -15 17 -2 90 30 166 61 259 118 348
31 49 42 56 51 34z m263 -33 c77 -34 165 -87 235 -141 56 -44 57 -45 77 -131
11 -48 19 -88 18 -90 -2 -1 -15 16 -29 37 -79 119 -227 260 -339 321 -66 37
-41 39 38 4z m-87 -31 c76 -45 190 -163 257 -264 27 -41 74 -127 104 -192 l55
-117 105 6 c58 4 114 11 125 16 15 6 11 7 -15 4 -19 -3 -73 -6 -119 -8 l-83
-2 -64 123 c-82 157 -142 249 -206 317 -76 81 -39 65 44 -19 81 -81 142 -162
213 -284 l47 -82 110 0 c61 0 112 -2 114 -4 2 -2 7 -31 10 -64 l7 -60 -151 -7
c-84 -3 -158 -9 -165 -12 -10 -3 -24 18 -47 70 -87 200 -253 451 -371 560 -70
65 -60 71 30 19z m-4219 -103 c0 -46 16 -192 26 -244 11 -54 -13 -17 -55 83
-39 95 -88 268 -78 278 3 2 15 -14 28 -36 12 -23 25 -39 27 -36 2 2 -5 19 -17
38 -33 53 -25 55 24 7 40 -40 45 -49 45 -90z m4283 -43 c69 -83 137 -196 232
-380 45 -87 78 -141 86 -139 7 2 84 6 172 9 l159 6 -8 -49 c-4 -27 -12 -67
-19 -89 l-11 -40 -105 2 c-57 0 -127 4 -154 7 l-51 6 -53 -110 c-30 -61 -57
-110 -61 -110 -4 0 -11 -11 -14 -25 -8 -32 -67 -133 -132 -225 -69 -98 -210
-238 -225 -223 -13 13 16 144 56 248 40 106 170 335 263 464 18 24 32 48 32
54 0 5 -15 30 -34 56 -148 204 -267 439 -307 607 -22 93 -20 114 6 65 8 -17
18 -31 21 -31 2 0 -2 13 -11 30 -8 16 -15 32 -15 35 0 14 121 -103 173 -168z
m-4344 -84 c11 -29 40 -92 64 -140 24 -48 54 -122 66 -163 21 -69 61 -158 106
-236 l18 -31 -55 -84 c-60 -90 -148 -246 -148 -260 0 -5 -4 -9 -9 -9 -4 0 -14
20 -21 45 -16 58 -10 74 97 233 46 69 83 129 83 134 0 5 -32 56 -71 114 -132
197 -209 396 -209 538 0 40 3 76 7 79 3 4 16 -32 29 -81 12 -48 31 -110 43
-139z m3719 114 c100 -99 103 -103 97 -137 -4 -19 -9 -37 -11 -39 -13 -14
-162 184 -179 238 -5 17 -15 21 -45 21 -32 0 -38 3 -33 16 4 12 14 14 37 10
22 -5 62 -37 134 -109z m491 -138 c41 -99 137 -271 217 -387 35 -52 64 -97 64
-101 0 -4 -19 -34 -42 -67 -151 -211 -279 -477 -304 -634 -10 -62 -24 -36 -24
44 0 149 70 334 200 529 l87 130 -72 106 c-106 156 -164 276 -199 417 -16 62
-22 195 -9 207 3 4 16 -33 29 -81 12 -49 36 -122 53 -163z m-4337 142 c-10
-103 43 -332 105 -454 13 -27 23 -51 21 -52 -2 -2 -33 25 -70 60 -65 64 -66
65 -75 132 -16 134 -3 363 20 363 2 0 2 -22 -1 -49z m4200 -14 c-7 -108 43
-318 105 -440 13 -27 23 -51 21 -53 -2 -2 -34 27 -70 64 l-67 67 -11 100 c-15
126 -1 325 23 325 1 0 1 -28 -1 -63z m-551 -127 c84 -99 55 -269 -64 -376 -55
-49 -109 -68 -165 -58 -49 8 -75 26 -102 68 l-22 36 39 44 38 44 7 -46 c10
-65 27 -79 78 -63 52 15 103 61 129 115 23 47 26 92 10 150 -10 36 -13 38 -42
33 -18 -3 -41 -9 -52 -13 -18 -7 -18 -6 3 27 13 19 28 45 35 57 9 20 16 23 47
18 23 -3 44 -16 61 -36z m-3576 -50 c22 -70 107 -231 185 -349 l60 -91 -68
-103 c-37 -56 -78 -123 -92 -149 -28 -53 -35 -58 -43 -28 -5 21 42 128 100
223 l35 57 -47 81 c-78 135 -134 274 -154 382 -11 61 1 49 24 -23z m4199 0
c23 -71 101 -219 183 -342 l64 -98 -59 -87 c-91 -136 -158 -261 -183 -338 -28
-87 -39 -101 -29 -38 16 97 91 282 165 403 l36 60 -55 98 c-61 108 -129 277
-144 360 -12 65 -1 56 22 -18z m-694 -56 c26 -67 -4 -145 -78 -201 -47 -36
-86 -43 -96 -17 -26 66 20 191 83 224 51 27 79 26 91 -6z m405 -39 l40 -17
-58 -18 c-72 -22 -93 -41 -123 -105 -29 -61 -30 -118 -4 -168 20 -37 20 -37 0
-69 -47 -78 -5 -213 80 -255 24 -13 57 -23 72 -23 39 0 35 -14 -9 -33 -79 -33
-144 -29 -114 7 20 24 6 62 -28 76 -34 14 -67 6 -98 -23 -22 -19 -23 -19 -28
-1 -19 64 -72 149 -116 186 -27 23 -49 44 -49 48 0 3 22 12 49 19 27 7 56 18
66 24 16 12 -1 21 -104 53 -10 3 4 22 41 58 48 47 90 115 112 179 5 17 8 16
36 -4 38 -29 85 -29 113 -1 18 19 20 26 10 51 -6 17 -8 33 -4 36 9 10 71 -1
116 -20z m107 -73 c62 -37 182 -144 209 -188 28 -47 24 -137 -9 -180 -36 -46
-170 -160 -217 -183 -38 -19 -48 -20 -94 -10 -29 6 -63 21 -76 32 -38 35 -65
97 -65 149 0 39 6 54 31 83 17 19 26 35 20 35 -20 0 -51 64 -51 104 0 45 30
113 63 144 49 46 125 52 189 14z m-4086 -87 c99 -90 117 -121 112 -194 -4 -54
-36 -121 -58 -121 -14 0 -61 133 -70 199 -5 35 -17 76 -27 90 -21 28 -46 91
-36 91 3 0 39 -29 79 -65z m3234 -140 c35 -125 -73 -225 -244 -225 -64 0 -136
15 -136 29 0 16 98 53 147 55 99 6 187 70 162 118 -10 19 -8 25 17 45 16 13
32 23 35 23 4 0 12 -20 19 -45z m286 -111 c47 -23 111 -89 142 -149 34 -64 38
-179 8 -235 -34 -64 -44 -70 -111 -70 -142 0 -254 115 -272 280 -6 62 14 116
59 157 39 35 118 43 174 17z m-3018 -133 c4 -11 -102 -204 -163 -298 -63 -96
-236 -279 -254 -268 -17 10 -5 54 40 149 24 49 42 104 45 136 8 67 71 187 197
376 l21 31 55 -60 c31 -33 57 -63 59 -66z m4475 93 c48 -3 87 -9 85 -12 -2 -4
-10 -20 -18 -35 l-14 -28 -106 7 -107 7 -23 -57 c-23 -55 -24 -56 -65 -56
l-42 0 46 96 45 95 56 -5 c30 -3 95 -8 143 -12z m-678 -73 c-63 -130 -111
-336 -103 -444 7 -94 -13 -49 -24 55 -7 66 -7 127 1 208 l12 115 67 62 c37 34
68 60 69 59 2 -1 -8 -26 -22 -55z m-1130 -3 c-3 -13 -9 -45 -12 -73 l-6 -49
40 32 c22 17 46 39 53 48 13 15 15 14 21 -3 4 -10 8 -28 8 -40 2 -41 41 -129
76 -170 19 -23 35 -43 35 -46 0 -2 -14 -10 -30 -17 -74 -31 -81 -122 -10 -134
14 -3 26 -5 28 -5 1 -1 -5 -15 -13 -31 -14 -28 -93 -95 -102 -87 -2 2 4 20 12
40 23 56 19 107 -13 158 -16 24 -38 52 -50 62 -28 26 -92 46 -122 41 -21 -4
-28 1 -45 33 -28 53 -90 83 -171 83 -53 0 -67 -4 -96 -27 -18 -15 -39 -36 -46
-45 -23 -31 -29 -20 -21 35 7 52 26 97 41 97 4 0 12 -9 18 -20 7 -13 21 -20
40 -20 46 0 70 31 70 90 0 49 0 49 26 40 42 -16 154 -11 209 10 66 24 69 24
60 -2z m-2617 -45 c15 -9 28 -18 30 -19 2 -1 -13 -35 -34 -75 -83 -167 -193
-309 -299 -387 -51 -37 -115 -72 -133 -72 -3 0 28 32 68 72 113 111 224 270
306 441 16 31 30 57 31 57 2 0 16 -8 31 -17z m672 -7 c0 -9 -78 -49 -148 -77
l-73 -29 -77 22 c-42 12 -81 24 -85 28 -4 4 25 10 65 13 40 4 107 15 148 26
68 17 170 27 170 17z m103 -38 c-21 -22 -67 -63 -102 -92 l-63 -51 -64 30
c-35 17 -64 33 -64 36 0 3 17 11 38 17 20 7 73 32 117 56 64 35 90 44 128 44
l48 -1 -38 -39z m130 11 c-33 -56 -144 -179 -167 -185 -27 -6 -106 13 -106 26
0 5 26 29 58 53 31 25 77 66 102 91 39 41 49 46 88 46 l43 0 -18 -31z m182 -5
l110 -26 87 -91 c94 -98 105 -124 71 -166 -18 -22 -18 -22 -109 76 -100 108
-92 104 -287 144 -32 7 -60 16 -63 20 -7 12 46 69 64 69 10 0 67 -11 127 -26z
m239 20 c9 -3 39 -37 67 -75 53 -72 55 -83 20 -129 l-20 -25 -93 98 c-90 96
-95 99 -163 117 l-70 18 122 1 c67 1 128 -2 137 -5z m-1227 -18 c1 -1 -19 -35
-43 -76 -80 -133 -196 -272 -268 -322 -25 -18 -23 -13 14 28 61 65 115 146
185 276 55 101 60 107 84 101 14 -3 27 -6 28 -7z m1563 5 c0 -5 -21 -16 -47
-25 -43 -15 -48 -15 -66 2 -19 16 -20 16 -14 -8 5 -21 -1 -31 -34 -59 -38 -32
-41 -32 -59 -16 -29 26 -33 50 -15 85 l16 30 109 0 c61 0 110 -4 110 -9z
m1948 -47 c-6 -26 -8 -110 -6 -188 4 -127 7 -146 30 -196 39 -80 47 -105 39
-118 -11 -17 -43 21 -79 93 -35 69 -77 206 -87 285 -3 30 -9 63 -11 72 -4 12
12 28 53 56 32 22 61 41 64 41 4 1 2 -20 -3 -45z m-1618 12 c47 -10 81 -23 91
-36 17 -20 34 -88 25 -97 -2 -3 -49 11 -103 30 -152 54 -241 71 -333 63 -55
-5 -80 -4 -85 4 -11 19 7 30 76 45 77 18 221 14 329 -9z m-1605 -65 c50 -16
112 -42 139 -57 110 -62 113 -199 5 -286 -37 -30 -75 -37 -121 -25 -25 6 -28
5 -28 -16 0 -56 -76 -107 -160 -107 -62 0 -98 17 -135 66 -26 34 -29 45 -28
108 2 85 38 235 67 278 27 40 81 68 131 68 23 0 81 -13 130 -29z m646 -6 l117
-26 78 -86 c110 -120 107 -115 93 -163 l-12 -40 -106 103 c-105 102 -107 103
-196 130 -49 15 -114 32 -143 39 l-52 12 32 33 c22 23 39 32 53 29 11 -2 72
-16 136 -31z m519 7 c0 -10 -12 -34 -26 -53 -14 -19 -37 -56 -51 -84 -26 -51
-83 -257 -83 -304 0 -14 -5 -33 -10 -41 -8 -12 -15 -9 -45 20 -42 41 -43 57
-9 158 36 107 86 199 145 266 51 57 79 70 79 38z m299 -7 c78 -16 174 -47 230
-73 35 -17 36 -18 42 -87 3 -39 4 -71 4 -73 -1 -1 -24 15 -51 36 -123 96 -238
151 -347 163 -44 5 -89 14 -100 21 -21 11 -21 11 -2 19 33 13 150 10 224 -6z
m578 -21 c15 -11 37 -38 48 -61 18 -36 23 -39 44 -32 78 30 201 -88 188 -180
-10 -76 -32 -108 -94 -139 -75 -38 -214 -82 -259 -82 -47 0 -111 34 -133 71
-28 46 -60 183 -62 270 -3 69 -1 78 26 113 42 55 69 67 147 63 48 -2 75 -8 95
-23z m1057 4 c40 -218 69 -311 127 -397 69 -103 42 -126 -40 -35 -58 66 -108
157 -144 264 -37 109 -37 114 2 154 41 42 49 44 55 14z m-1919 -62 c-7 -17
-23 -53 -36 -81 -20 -43 -24 -70 -27 -191 -2 -78 0 -162 6 -188 5 -26 7 -46 3
-44 -3 2 -32 20 -63 42 -46 30 -57 43 -53 60 2 11 9 55 16 96 11 72 56 215 85
271 7 15 25 41 40 59 32 38 50 23 29 -24z m-1517 -56 l-21 -85 -68 -53 c-73
-56 -189 -122 -258 -147 -48 -17 -71 -12 -25 5 82 31 256 188 341 308 25 35
47 62 48 60 2 -2 -6 -41 -17 -88z m1834 37 c58 -29 137 -77 176 -106 l70 -53
20 -87 c11 -47 19 -87 17 -89 -1 -2 -24 27 -50 63 -26 36 -78 97 -116 135 -71
71 -202 170 -225 170 -7 0 -16 5 -19 10 -13 21 25 8 127 -43z m-913 12 l116
-32 104 -102 c99 -99 103 -104 96 -137 -4 -18 -8 -34 -10 -36 -14 -15 -99 89
-157 193 l-34 60 -79 2 c-122 4 -245 23 -245 38 0 18 40 44 69 44 13 1 76 -13
140 -30z m781 -17 c66 -37 188 -164 256 -267 33 -49 82 -138 109 -197 l49
-108 46 1 c25 1 83 5 130 9 80 8 77 8 -41 5 l-126 -3 -41 87 c-66 137 -155
281 -218 350 -68 75 -39 66 37 -12 70 -71 156 -186 212 -283 l47 -81 158 -6
c157 -6 287 -28 362 -61 44 -19 23 -20 -55 -1 -33 8 -96 14 -140 13 l-80 -1
80 -7 c169 -15 352 -74 400 -130 l20 -23 -20 8 c-51 21 -202 55 -296 66 -101
11 -396 7 -480 -7 l-35 -6 -29 63 c-89 202 -232 423 -351 543 -89 91 -88 102
6 48z m2270 -65 c-28 -86 -37 -101 -81 -141 -51 -46 -117 -88 -158 -101 -17
-5 -2 14 49 66 72 73 159 183 196 246 10 18 19 31 21 29 2 -2 -10 -46 -27 -99z
m-2108 -222 c36 -60 97 -171 135 -247 64 -130 70 -138 93 -133 62 12 440 17
527 6 97 -12 261 -55 278 -73 7 -7 2 -9 -17 -4 -15 3 -30 2 -33 -4 -4 -6 7
-10 27 -10 31 -1 29 -2 -20 -20 -129 -46 -197 -55 -432 -55 -124 0 -254 2
-290 5 l-65 4 -33 -69 c-60 -123 -183 -338 -232 -405 -27 -36 -88 -103 -136
-150 -85 -83 -86 -84 -61 -38 36 63 34 74 -3 18 -36 -54 -37 -49 -6 71 42 164
128 336 283 562 29 43 53 82 53 87 0 4 -29 50 -64 101 -80 119 -169 271 -207
354 -30 67 -71 201 -83 270 l-7 40 26 -42 c33 -54 42 -56 15 -3 -11 21 -20 43
-20 47 1 4 47 -40 103 -98 70 -73 123 -140 169 -214z m1473 266 c7 -32 4 -37
-96 -136 l-104 -102 -121 -31 c-66 -18 -129 -32 -140 -32 -21 1 -64 33 -64 48
0 12 138 32 245 35 l79 2 36 63 c44 79 142 204 151 194 4 -4 10 -22 14 -41z
m-2714 -11 c53 -53 58 -72 19 -75 -12 -1 -29 -10 -36 -20 -29 -40 -8 -92 46
-115 35 -15 37 -21 10 -45 -42 -38 -80 -122 -95 -208 l-6 -38 -52 46 c-28 25
-54 45 -58 45 -6 0 3 -65 16 -112 4 -16 5 -28 3 -28 -2 0 -31 10 -63 21 -49
18 -75 20 -147 16 l-88 -4 0 39 c0 52 -13 74 -51 87 -27 9 -33 8 -54 -15 l-24
-25 -17 27 c-17 25 -37 124 -25 124 3 0 25 -19 48 -42 41 -40 47 -43 111 -46
84 -4 146 24 177 81 18 34 23 37 65 37 56 0 99 25 139 81 46 62 50 120 16 202
-13 32 15 18 66 -33z m971 -115 c44 -146 160 -368 279 -533 21 -31 39 -58 39
-61 0 -4 -39 -65 -86 -136 -47 -72 -115 -188 -150 -260 -58 -119 -114 -279
-114 -327 0 -10 -4 -16 -10 -13 -17 11 -11 137 11 226 34 135 116 298 232 457
l38 53 -29 37 c-95 121 -182 281 -227 417 -28 84 -45 238 -30 272 8 16 9 15
12 -7 2 -14 18 -70 35 -125z m-96 -18 c2 -119 34 -255 89 -375 20 -41 34 -76
33 -78 -2 -1 -33 25 -70 60 -66 61 -66 62 -74 131 -17 132 -5 365 18 365 2 0
4 -46 4 -103z m1850 -20 c-19 -23 -61 -70 -93 -104 l-58 -62 -135 -30 -135
-31 -34 34 -34 34 34 7 c19 3 84 20 144 38 l110 31 105 102 105 103 13 -40
c14 -39 13 -40 -22 -82z m-3374 -19 c-2 -35 -8 -70 -12 -78 -10 -18 -167 -74
-265 -95 -73 -15 -187 -19 -218 -6 -35 13 6 32 90 41 43 4 98 15 121 24 58 21
195 103 241 143 20 18 39 32 42 33 3 0 3 -28 1 -62z m3448 -35 c0 -17 -26 -53
-85 -117 l-84 -92 -127 -29 -127 -29 -29 34 c-15 19 -25 37 -20 41 4 4 61 19
127 33 l120 26 95 101 c95 99 95 100 113 78 9 -12 17 -32 17 -46z m-2475 -17
c74 -97 51 -257 -52 -359 -60 -61 -106 -81 -172 -73 -63 8 -92 29 -123 90 -50
97 25 292 134 347 48 25 100 35 149 31 30 -3 45 -12 64 -36z m614 -29 c19 -79
93 -220 193 -370 l59 -87 -65 -98 c-80 -121 -159 -270 -182 -342 -22 -72 -34
-84 -23 -23 20 108 80 256 155 385 l46 78 -35 57 c-78 129 -150 306 -166 405
-10 58 3 54 18 -5z m1911 -22 c25 -41 23 -49 -57 -147 -88 -110 -92 -113 -179
-129 -44 -7 -106 -14 -138 -14 -57 0 -60 1 -79 33 -11 18 -17 35 -14 38 3 3
60 18 128 33 l124 29 90 96 c50 53 93 96 97 96 3 0 16 -16 28 -35z m-612 -52
c84 -96 139 -185 166 -272 40 -125 13 -134 -48 -16 -42 83 -144 199 -238 271
-32 25 -58 49 -58 54 0 12 49 28 86 29 27 1 41 -9 92 -66z m-2898 35 c0 -7 -5
-30 -11 -51 -13 -48 -40 -61 -176 -83 -142 -23 -338 -2 -338 37 0 11 23 14
110 15 116 2 202 20 325 67 75 29 90 32 90 15z m2758 -52 c130 -99 268 -275
260 -328 -4 -23 -4 -22 -31 7 -15 17 -42 50 -60 75 -18 25 -55 62 -82 83 -53
40 -237 137 -261 137 -8 0 -14 4 -14 8 0 9 99 60 118 61 8 1 39 -19 70 -43z
m-3318 -8 c0 -15 -5 -19 -20 -15 -23 6 -28 -8 -6 -16 9 -4 12 -14 9 -26 -5
-22 12 -30 19 -10 5 14 108 -17 108 -32 0 -6 -7 -23 -15 -38 -11 -23 -23 -29
-61 -35 -83 -11 -102 -8 -120 19 -23 35 -12 82 32 138 37 48 54 52 54 15z
m4149 -10 c22 -20 35 -39 33 -51 -3 -16 0 -17 16 -8 15 8 32 6 66 -5 51 -17
53 -22 31 -64 -13 -25 -21 -29 -80 -35 -35 -4 -71 -5 -79 -2 -14 6 -76 116
-76 135 0 11 39 62 47 62 3 0 22 -14 42 -32z m-2276 -5 c39 -17 49 -33 20 -31
-27 2 -95 -22 -117 -41 -31 -26 -66 -112 -66 -161 0 -27 8 -58 20 -77 20 -33
20 -33 0 -65 -12 -20 -20 -51 -20 -78 0 -50 35 -134 68 -163 19 -18 112 -51
112 -41 0 3 5 2 11 -2 15 -9 -44 -41 -93 -49 -50 -9 -59 -2 -45 35 10 26 9 33
-10 52 -28 28 -75 28 -114 -1 -17 -13 -32 -21 -33 -19 -1 1 -8 21 -14 43 -17
58 -65 127 -118 168 l-46 36 41 11 c22 6 54 17 72 24 l33 14 -30 15 c-16 8
-46 18 -67 22 -20 4 -37 10 -37 14 0 3 22 25 49 49 45 38 91 113 115 186 6 18
7 18 29 -2 35 -33 77 -38 110 -12 28 23 35 48 16 67 -6 6 -8 17 -4 23 9 14 64
6 118 -17z m1308 -34 c105 -44 198 -101 255 -154 l49 -46 -58 36 c-103 64
-281 120 -422 132 -41 3 -73 9 -69 12 6 6 143 49 160 50 7 1 45 -13 85 -30z
m909 -84 l25 -50 78 1 c42 1 77 -2 77 -7 0 -5 -10 -28 -22 -53 -24 -49 -40
-56 -138 -56 l-58 0 -38 73 -38 74 34 52 c38 58 32 60 80 -34z m-3550 70 c0
-21 -67 -173 -100 -228 l-41 -67 35 -58 c39 -62 111 -230 103 -239 -3 -3 -22
0 -41 7 -38 12 -35 5 -91 199 -21 76 -19 105 15 231 17 61 30 113 30 115 0 3
15 14 33 25 31 19 57 26 57 15z m1453 -32 c59 -37 175 -142 198 -179 26 -43
26 -126 -1 -169 -25 -40 -154 -155 -215 -190 -37 -22 -51 -25 -90 -20 -97 15
-160 96 -152 194 3 42 9 59 29 76 l25 21 -28 32 c-23 26 -29 42 -29 81 0 89
58 166 137 182 50 9 76 4 126 -28z m-1557 -5 c-4 -13 -20 -75 -36 -138 l-29
-115 20 -92 c11 -51 29 -118 39 -148 10 -30 18 -55 17 -55 -1 0 -22 6 -47 14
l-45 13 -38 119 c-44 137 -44 149 5 304 35 109 41 116 102 119 14 1 17 -4 12
-21z m-216 -3 c0 -3 -16 -57 -35 -121 -19 -63 -35 -125 -35 -137 0 -12 16 -71
35 -132 19 -60 35 -113 35 -117 0 -5 -21 -8 -46 -8 l-45 0 -34 73 c-18 39 -41
98 -51 130 -18 59 -18 59 5 125 13 37 36 95 51 130 l29 62 45 0 c25 0 46 -2
46 -5z m110 -4 c0 -5 -15 -54 -32 -108 -41 -122 -40 -170 1 -292 17 -51 31
-98 31 -102 0 -14 -64 -11 -82 4 -26 19 -88 243 -78 275 5 15 21 66 35 114 14
48 33 95 41 103 17 16 84 21 84 6z m4087 -13 c-3 -13 -19 -67 -36 -122 -17
-54 -31 -108 -31 -120 0 -12 14 -63 30 -114 17 -51 30 -96 30 -100 0 -4 -16
-16 -36 -27 -35 -19 -36 -19 -50 -1 -18 26 -70 152 -85 208 -11 41 -10 52 10
109 13 35 36 92 52 127 l28 62 47 0 c43 0 46 -2 41 -22z m-4417 -65 c40 3 70
2 70 -3 0 -5 -10 -29 -22 -54 -23 -47 -41 -56 -119 -56 l-39 0 0 58 c0 64 6
78 27 60 9 -7 38 -9 83 -5z m3989 -28 c11 -25 30 -60 42 -77 l22 -31 81 6 81
6 0 -49 0 -49 -81 6 -81 6 -22 -31 c-12 -17 -31 -52 -42 -77 -11 -25 -22 -45
-25 -45 -3 0 -17 9 -31 20 -14 11 -32 20 -39 20 -18 0 -18 14 1 30 8 7 29 37
46 66 l30 54 -30 54 c-17 29 -38 59 -46 66 -19 16 -19 30 -1 30 8 0 24 9 37
20 13 10 27 19 31 20 4 0 16 -20 27 -45z m-2985 19 c157 -54 180 -241 38 -313
-150 -76 -337 -29 -397 101 -19 42 -21 54 -11 80 15 42 80 106 129 129 54 24
174 25 241 3z m2904 -92 c23 -35 42 -67 42 -71 0 -4 -20 -39 -45 -78 l-45 -70
-57 5 c-32 2 -59 6 -61 7 -2 2 15 30 38 64 47 68 47 75 -5 150 -34 49 -34 50
-12 54 12 3 40 4 62 3 37 -1 43 -5 83 -64z m-171 36 c11 -13 33 -42 48 -65
l28 -43 -28 -42 c-54 -84 -85 -104 -124 -79 -21 14 -5 102 20 108 24 7 25 23
0 23 -14 0 -20 10 -25 38 -9 58 -7 70 12 75 35 9 49 6 69 -15z m-95 -134 c9
-9 -22 -114 -49 -168 -33 -65 -94 -147 -158 -213 l-50 -52 -49 12 c-28 7 -51
18 -53 24 -2 5 21 29 51 52 97 75 198 190 241 273 37 71 52 88 67 72z m-161
-28 c-52 -55 -222 -112 -368 -123 -46 -3 -83 -10 -83 -15 0 -12 124 -1 209 18
76 17 88 13 29 -9 -85 -32 -186 -48 -346 -54 l-163 -6 -20 -39 c-57 -112 -156
-246 -248 -335 -83 -82 -99 -81 -24 1 63 69 136 186 211 338 l47 96 65 -4 c36
-3 92 -6 125 -9 36 -2 52 -1 40 4 -11 5 -69 11 -130 15 l-110 7 -50 -108
c-113 -245 -298 -457 -432 -498 -15 -4 7 24 60 77 102 102 222 280 315 470
l67 137 40 -7 c22 -4 144 -7 270 -7 241 0 329 10 455 54 30 10 57 19 59 20 3
0 -5 -10 -18 -23z m99 7 c0 -39 -68 -133 -164 -229 -55 -55 -115 -110 -131
-121 l-30 -21 -65 33 -65 33 30 11 c71 27 201 99 253 141 31 25 76 74 100 108
43 61 72 79 72 45z m-2165 -22 c47 -21 114 -91 147 -153 44 -84 25 -237 -37
-288 -26 -22 -112 -17 -173 9 -92 41 -160 147 -169 265 -5 57 -3 65 28 111 49
73 123 93 204 56z m-1433 3 c41 -6 47 -10 67 -50 11 -25 21 -48 21 -53 0 -5
-34 -8 -77 -7 -56 1 -77 -3 -81 -12 -3 -11 0 -12 17 -3 13 8 44 9 87 5 63 -7
67 -9 80 -40 8 -18 14 -35 14 -38 0 -2 -23 -12 -50 -21 -43 -14 -53 -15 -67
-3 -15 11 -16 10 -11 -9 5 -17 -1 -28 -21 -43 l-28 -19 -11 50 c-7 28 -12 62
-12 75 0 14 -4 33 -9 42 -5 9 -12 43 -16 75 l-7 57 29 0 c17 0 50 -3 75 -6z
m4200 0 c41 -6 47 -10 67 -50 11 -25 21 -48 21 -53 0 -5 -35 -8 -77 -7 l-77 1
-33 -65 c-18 -36 -35 -65 -37 -65 -3 0 -19 21 -36 47 l-32 48 37 75 37 75 43
0 c23 0 62 -3 87 -6z m-712 -63 c-11 -21 -147 -115 -217 -150 -23 -11 -67 -30
-98 -42 l-56 -21 -84 24 c-47 12 -85 26 -85 31 0 4 21 7 48 7 117 0 363 74
450 135 26 18 48 33 50 34 1 1 -2 -8 -8 -18z m-1273 -48 c-62 -122 -115 -351
-105 -454 3 -32 2 -47 -4 -41 -16 16 -30 172 -23 262 11 149 15 158 86 227 35
34 65 60 67 58 2 -2 -8 -25 -21 -52z m1639 16 c65 -11 72 -15 124 -68 30 -31
72 -82 94 -113 l38 -57 -22 -35 c-12 -20 -25 -36 -29 -36 -4 0 -46 42 -94 94
l-87 94 -117 27 c-65 15 -124 29 -130 31 -14 4 -2 46 20 72 13 16 76 13 203
-9z m-2771 -26 c-15 -61 -22 -113 -15 -113 4 0 31 21 59 46 28 25 51 44 51 42
0 -2 5 -31 11 -63 13 -70 37 -121 81 -171 26 -29 29 -37 17 -45 -8 -5 -17 -9
-20 -9 -16 0 -59 -55 -59 -74 0 -33 28 -66 56 -66 13 0 24 -4 24 -10 0 -16
-61 -80 -93 -97 -28 -14 -29 -14 -22 3 35 84 30 143 -18 205 -39 52 -89 79
-142 79 -36 0 -43 4 -59 35 -27 50 -75 76 -150 82 -73 6 -107 -7 -154 -61 -16
-19 -32 -33 -34 -30 -9 9 9 103 25 127 l17 26 25 -25 c45 -45 105 -5 105 70
l0 42 93 -4 c75 -3 101 0 142 16 66 26 68 26 60 -5z m3207 -9 c12 -4 38 -50
38 -70 0 -1 -23 -10 -50 -19 -43 -14 -53 -15 -67 -4 -14 12 -15 11 -9 -7 5
-16 -3 -28 -35 -53 -38 -32 -41 -32 -59 -16 -32 29 -32 51 -4 107 40 81 40 80
108 73 34 -4 68 -9 78 -11z m-538 -73 l119 -29 83 -89 c89 -94 100 -121 66
-163 l-17 -22 -88 96 c-96 104 -105 109 -272 141 -43 8 -80 17 -83 20 -7 7 47
75 61 75 7 0 66 -13 131 -29z m-1676 -37 c-6 -26 -8 -110 -6 -188 4 -138 5
-143 42 -224 28 -63 35 -87 27 -95 -13 -13 -11 -15 -59 58 -39 60 -85 197
-106 320 -15 83 -14 89 2 101 9 7 35 26 57 42 22 17 43 31 46 31 4 1 2 -20 -3
-45z m-1630 10 c94 -18 106 -25 120 -72 23 -76 27 -75 -138 -16 -97 34 -115
37 -242 42 -105 3 -138 7 -138 17 0 16 51 34 124 45 61 10 173 3 274 -16z
m2588 -60 c49 -14 115 -39 148 -57 62 -33 83 -64 93 -138 13 -93 -114 -216
-189 -182 -21 9 -25 6 -43 -30 -30 -61 -63 -81 -145 -85 -63 -4 -73 -2 -104
22 -19 14 -43 41 -55 59 -18 30 -19 40 -11 118 21 186 55 268 124 300 54 25
77 24 182 -7z m682 -14 l93 -22 69 -72 c122 -128 123 -129 109 -176 l-12 -40
-97 94 c-53 51 -110 100 -126 108 -28 15 -174 58 -242 73 l-34 7 29 30 c33 35
52 35 211 -2z m502 11 c0 -10 -8 -29 -19 -42 -63 -81 -106 -197 -136 -369 -8
-46 -16 -84 -18 -86 -2 -2 -21 12 -42 31 -35 33 -37 38 -32 78 15 110 123 319
198 381 36 31 49 33 49 7z m-3847 -21 c43 -11 107 -32 142 -46 70 -28 67 -23
79 -131 4 -45 -3 -53 -24 -28 -21 25 -149 106 -227 143 -55 25 -95 37 -154 43
-89 9 -130 28 -88 41 40 12 189 0 272 -22z m503 1 c46 -21 74 -54 74 -88 0
-21 3 -23 40 -17 51 8 81 0 120 -32 93 -79 92 -206 -4 -271 -58 -40 -222 -93
-286 -93 -58 0 -106 29 -136 83 -35 63 -72 284 -55 328 11 29 68 88 96 100 35
14 109 9 151 -10z m1079 -18 c31 -180 83 -333 140 -407 26 -34 32 -61 16 -70
-15 -10 -117 111 -156 185 -42 80 -85 201 -85 238 0 23 53 91 72 91 4 0 10
-17 13 -37z m2279 -56 c-8 -22 -18 -45 -23 -51 -26 -32 -41 -125 -41 -251 0
-129 -1 -132 -24 -144 -21 -12 -28 -10 -55 10 -18 13 -29 29 -27 38 3 9 8 41
11 71 16 125 86 312 138 368 28 31 39 10 21 -41z m-3879 -13 c50 -24 124 -69
166 -100 l76 -57 21 -86 c11 -47 19 -87 17 -89 -1 -1 -26 28 -54 67 -77 104
-228 243 -300 277 -33 16 -60 33 -60 37 -1 13 36 -1 134 -49z m2364 -35 l-20
-87 -82 -61 c-83 -62 -217 -134 -272 -146 -23 -5 -18 0 23 24 112 63 223 167
320 298 26 34 47 61 48 60 1 -1 -7 -41 -17 -88z m886 55 c146 -37 170 -51 268
-152 87 -89 88 -91 81 -129 -4 -21 -9 -40 -11 -43 -10 -11 -114 127 -166 221
l-25 44 -128 6 c-135 7 -194 16 -194 30 0 11 50 49 64 49 7 0 57 -12 111 -26z
m-3346 -51 c108 -75 222 -226 321 -431 59 -120 61 -122 87 -115 43 11 434 8
468 -5 l30 -10 -32 -1 c-25 -1 -34 -6 -38 -23 -6 -23 -8 -23 -173 -24 -92 0
-203 -4 -247 -8 l-80 -7 -77 153 c-104 205 -184 323 -298 442 -90 93 -93 97
-55 82 22 -9 64 -33 94 -53z m-55 -35 c111 -113 188 -228 298 -445 l83 -164
40 5 c88 12 442 19 448 9 11 -17 -156 -183 -179 -178 -10 2 -85 6 -165 9
l-146 6 -71 -143 c-123 -247 -232 -403 -353 -507 l-63 -55 28 48 c15 27 26 50
24 53 -3 2 -15 -14 -27 -37 -13 -22 -24 -39 -26 -37 -6 6 24 135 46 200 33 98
122 265 224 418 l92 140 -45 63 c-55 75 -162 249 -204 332 -43 84 -76 175 -99
272 -18 76 -19 103 -2 103 4 0 48 -42 97 -92z m1646 70 c0 -7 3 -23 6 -36 5
-18 -10 -39 -91 -121 -53 -55 -109 -104 -124 -110 -45 -18 -215 -61 -241 -61
-32 1 -79 35 -65 49 15 14 143 31 235 31 80 0 81 0 98 31 55 99 153 229 173
229 5 0 9 -6 9 -12z m1478 -25 c17 -13 39 -37 47 -54 17 -31 15 -34 -30 -41
-11 -2 -24 -16 -29 -31 -16 -44 16 -88 78 -110 5 -2 -9 -26 -31 -55 -40 -53
-73 -130 -73 -169 0 -53 -10 -55 -65 -8 -29 25 -54 45 -57 45 -6 0 7 -89 17
-120 8 -24 4 -24 -65 0 -59 21 -146 26 -197 11 l-31 -9 0 45 c0 33 -6 51 -23
69 -28 30 -74 32 -89 4 -14 -26 -22 -25 -39 2 -15 24 -32 128 -20 128 3 0 14
-11 22 -24 64 -97 256 -88 311 15 18 33 22 35 67 35 39 0 56 6 86 31 43 34 81
85 90 122 6 24 -6 97 -22 135 -10 22 -1 19 53 -21z m-3166 -269 c41 -95 126
-242 209 -365 33 -47 59 -89 59 -93 0 -4 -24 -41 -54 -84 -74 -105 -188 -307
-226 -400 -18 -41 -42 -115 -54 -164 -13 -48 -26 -85 -29 -81 -4 3 -7 39 -7
79 0 145 80 349 214 544 l73 107 -72 107 c-138 203 -203 361 -212 518 -9 134
4 140 36 18 15 -58 43 -142 63 -186z m291 116 c69 -75 161 -206 198 -282 l23
-48 100 0 c125 0 289 -22 378 -50 82 -25 100 -45 21 -22 -47 14 -104 17 -294
17 l-236 0 -61 120 c-75 148 -128 231 -201 315 -76 87 -18 47 72 -50z m1446
33 c1 -7 -40 -57 -89 -112 -88 -95 -93 -99 -155 -115 -35 -9 -77 -16 -92 -16
-15 0 -47 -7 -71 -17 l-43 -16 -34 33 -35 34 70 17 c193 49 208 56 289 132 41
40 89 87 105 106 l30 33 12 -33 c7 -19 13 -40 13 -46z m794 -50 c-7 -87 -14
-113 -27 -113 -7 0 -35 -9 -60 -21 -84 -37 -233 -69 -320 -69 -137 0 -137 32
0 46 38 4 92 15 120 26 58 21 198 104 253 148 19 17 36 30 37 30 1 0 0 -21 -3
-47z m-753 -53 c0 -21 -18 -48 -74 -107 l-75 -80 -65 17 c-80 20 -87 26 -42
34 28 5 55 27 128 107 92 99 93 99 111 78 9 -12 17 -34 17 -49z m1709 1 c34
-34 53 -83 59 -148 4 -58 2 -70 -32 -139 -60 -120 -144 -175 -248 -161 -46 6
-81 35 -110 91 -55 107 41 314 167 360 60 22 141 20 164 -3z m-3560 -76 c23
-74 123 -257 198 -363 l45 -63 -45 -67 c-113 -169 -175 -284 -203 -377 -22
-73 -35 -92 -27 -39 16 106 88 287 163 411 l42 68 -18 30 c-92 157 -173 351
-188 449 -8 55 7 33 33 -49z m1899 9 c27 -42 23 -56 -33 -122 l-31 -36 -50 14
c-27 7 -52 15 -57 17 -7 4 132 162 143 163 3 0 16 -17 28 -36z m-621 -41 c95
-99 130 -169 114 -230 -7 -25 -8 -24 -49 30 -23 30 -84 93 -137 138 -52 46
-95 87 -95 91 0 9 55 26 88 27 16 1 41 -17 79 -56z m1313 26 c0 -5 -5 -30 -11
-55 -11 -42 -14 -45 -63 -58 -103 -29 -189 -39 -280 -33 -100 6 -171 26 -171
48 0 11 18 13 90 11 100 -4 243 25 353 73 63 27 82 30 82 14z m-1434 -60 c70
-55 179 -170 207 -218 17 -29 17 -30 -4 -41 -11 -7 -22 -10 -23 -8 -45 74
-185 176 -307 225 -38 16 -69 30 -69 33 1 5 110 58 124 59 4 1 37 -22 72 -50z
m823 -12 c21 -19 35 -40 33 -50 -4 -19 8 -23 24 -7 10 10 104 -19 104 -33 0
-4 -7 -21 -15 -37 l-15 -28 -57 18 c-32 10 -76 23 -98 29 -33 9 -43 17 -54 46
-12 35 -10 46 17 78 20 22 19 22 61 -16z m1921 -4 c47 -21 51 -33 12 -33 -15
0 -48 -10 -72 -22 -87 -44 -126 -174 -78 -259 21 -38 21 -39 2 -60 -20 -22
-24 -97 -9 -186 l7 -43 -35 0 c-19 0 -45 -9 -60 -20 -33 -26 -34 -26 -41 14
-9 46 -69 134 -116 171 -22 17 -39 33 -40 37 0 4 24 14 53 22 80 24 87 32 45
49 -19 8 -49 18 -67 22 -17 3 -31 10 -31 14 0 4 18 22 40 40 47 38 92 101 111
156 7 22 14 41 15 43 1 2 17 -6 35 -17 43 -26 83 -27 109 -1 21 21 26 55 10
65 -45 28 49 34 110 8z m-2903 -31 c128 -52 303 -164 303 -193 0 -6 -13 0 -29
14 -64 53 -257 118 -422 141 l-94 13 80 25 c44 14 83 26 86 27 4 1 38 -12 76
-27z m2991 -27 c11 -9 -30 -50 -70 -71 -54 -27 -66 -44 -98 -131 -12 -35 -26
-63 -30 -63 -13 0 -30 51 -30 92 0 48 41 130 77 153 40 26 130 38 151 20z
m-4036 -128 c60 -53 88 -103 88 -159 0 -27 -6 -61 -14 -77 -19 -37 -136 -145
-202 -187 -55 -36 -86 -41 -144 -24 -65 18 -69 26 -35 60 29 28 33 30 64 19
50 -18 118 -6 152 27 45 43 53 81 46 236 -4 76 -3 138 1 138 4 -1 23 -15 44
-33z m3114 -10 c68 -34 99 -83 99 -154 0 -59 -8 -72 -30 -49 -9 9 -25 16 -36
16 -17 0 -18 3 -8 22 10 19 7 26 -28 59 -74 69 -182 72 -270 9 -38 -27 -49
-31 -83 -25 -22 4 -40 11 -40 16 0 22 94 109 133 123 67 25 199 16 263 -17z
m-3171 -155 c-3 -134 -36 -182 -129 -190 -34 -3 -56 0 -60 7 -4 7 19 40 54 79
66 71 120 155 120 185 0 10 4 16 9 13 5 -3 7 -45 6 -94z m3123 59 c53 -27 66
-45 53 -70 -12 -22 -17 -22 -171 5 -120 22 -117 20 -90 49 45 48 132 55 208
16z m439 -128 c41 -19 105 -88 133 -144 44 -85 34 -212 -21 -278 -47 -56 -193
-28 -264 51 -71 78 -111 206 -86 279 34 101 133 140 238 92z m-2792 -31 l130
-7 -45 -33 c-45 -34 -46 -34 -125 -28 l-80 6 -45 -97 c-86 -189 -155 -288
-277 -404 -56 -52 -170 -125 -180 -115 -2 1 37 44 86 94 108 110 202 250 302
450 52 104 78 147 89 145 8 -2 74 -7 145 -11z m-633 -59 c-63 -124 -118 -355
-110 -459 5 -59 -6 -74 -16 -21 -15 85 -17 193 -7 288 l12 104 67 67 c36 37
68 66 70 64 2 -2 -5 -21 -16 -43z m3167 -108 c2 -43 46 -134 87 -176 l35 -36
-31 -13 c-37 -15 -70 -55 -70 -83 0 -26 28 -57 51 -57 36 0 30 -23 -20 -71
-28 -27 -55 -49 -60 -49 -5 0 -3 17 5 38 19 54 17 97 -7 145 -18 35 -23 64
-27 189 -4 114 -2 151 9 164 12 15 14 14 20 -3 4 -10 8 -31 8 -48z m-3314
-172 c0 -184 1 -189 28 -247 15 -32 27 -60 27 -62 0 -2 -9 -8 -20 -14 -17 -9
-22 -5 -44 38 -38 75 -66 167 -87 282 -17 90 -17 105 -5 112 13 7 101 75 101
77 0 1 0 -83 0 -186z m-121 65 c3 -13 10 -54 16 -91 14 -91 56 -221 88 -275
23 -41 24 -44 8 -60 -16 -16 -19 -15 -51 22 -58 69 -145 269 -145 333 0 17 12
39 32 60 38 39 46 41 52 11z m-101 -100 c3 -20 -1 -42 -10 -57 -19 -29 -185
-193 -190 -187 -16 16 160 276 187 276 4 0 10 -15 13 -32z m-41 -236 c-58 -64
-101 -101 -123 -108 l-34 -12 -3 44 c-3 40 0 46 40 80 24 21 75 70 113 109
l70 71 13 -44 14 -43 -90 -97z m4077 20 c-38 -32 -70 -44 -202 -78 -102 -26
-115 -24 -150 14 -17 19 -17 20 5 25 41 10 202 28 238 27 71 -4 74 -2 105 58
l30 57 3 -38 c3 -32 -2 -41 -29 -65z m-3959 17 c19 -44 7 -66 -83 -158 -78
-79 -115 -101 -175 -101 -21 0 -23 4 -20 42 3 40 5 43 40 51 30 7 55 28 115
95 106 119 104 117 123 71z m3984 -71 c-3 -29 -7 -58 -9 -64 -2 -6 -59 -23
-128 -39 l-126 -28 -35 29 c-19 16 -35 31 -35 34 -1 3 27 11 62 17 93 18 219
62 242 84 30 29 35 24 29 -33z m-3925 -29 l23 -40 -26 -38 c-15 -21 -54 -70
-86 -109 -64 -75 -59 -73 -202 -97 l-38 -6 -1 41 c-1 22 -2 45 -3 52 -1 7 27
19 62 27 59 15 67 21 147 106 46 50 84 93 85 98 1 18 18 3 39 -34z m3588 -53
c74 -80 122 -154 158 -243 51 -126 24 -165 -35 -51 -48 94 -99 154 -207 249
-51 45 -93 85 -93 89 0 8 60 27 92 29 9 1 47 -32 85 -73z m-111 -36 c119 -101
234 -250 234 -305 0 -34 -34 -6 -84 70 -29 45 -118 117 -189 155 -44 23 -47
28 -47 65 0 22 -3 50 -6 63 -4 12 -3 22 1 22 4 0 45 -32 91 -70z m437 -60
c-15 -14 -178 -47 -193 -40 -8 5 -23 22 -33 39 l-18 30 38 9 c21 5 76 18 123
28 l85 20 3 -40 c2 -21 0 -42 -5 -46z m-3565 -35 c2 -2 -14 -56 -34 -121 -21
-66 -37 -126 -37 -134 1 -9 18 -66 38 -129 20 -62 35 -114 33 -116 -2 -1 -19
-5 -40 -9 -47 -9 -59 4 -97 104 -43 111 -43 197 0 309 34 91 56 113 103 104
17 -3 32 -7 34 -8z m80 -57 c-2 -35 -13 -93 -23 -130 l-19 -68 33 -107 c51
-164 51 -157 6 -150 -21 4 -44 12 -51 19 -7 7 -28 64 -47 127 l-35 113 35 117
c19 64 40 122 45 129 6 6 22 12 35 12 24 0 25 -2 21 -62z m3488 12 c-1 -56 0
-55 -88 -65 l-57 -7 -21 42 c-12 23 -20 43 -18 45 6 5 134 33 159 34 25 1 26
-1 25 -49z m-3956 -205 c0 -53 -6 -76 -34 -131 -21 -43 -36 -62 -41 -54 -4 7
-23 19 -42 26 l-35 15 25 32 c13 18 33 50 44 72 l21 40 -24 47 c-13 25 -28 49
-34 53 -5 3 -15 15 -20 25 -9 17 -6 22 24 34 18 8 37 19 41 26 4 7 20 -15 41
-55 28 -55 34 -77 34 -130z m-125 76 c25 -38 45 -72 45 -76 0 -4 -20 -38 -45
-76 l-45 -69 -57 6 c-32 4 -59 7 -60 8 -1 1 16 27 38 60 21 32 39 64 39 70 0
7 -18 38 -40 70 -22 31 -40 59 -40 61 0 2 21 6 48 8 26 2 53 4 60 5 7 1 33
-29 57 -67z m4055 5 c20 -30 30 -57 30 -81 0 -24 -10 -51 -30 -81 -28 -39 -35
-44 -70 -44 -44 0 -45 3 -34 72 5 26 13 39 28 44 20 7 20 7 2 14 -14 4 -23 23
-31 58 -7 28 -10 54 -7 57 3 3 22 5 43 5 34 0 42 -5 69 -44z m-381 -31 c121
-33 141 -44 81 -46 l-45 -2 45 -6 45 -7 -90 -28 c-49 -15 -97 -30 -106 -32
-25 -7 -36 15 -43 84 -5 48 -4 62 6 62 7 0 55 -11 107 -25z m-3030 -140 l44
-11 21 -79 c12 -44 25 -86 30 -94 7 -10 2 -12 -25 -6 -60 13 -66 21 -102 137
-43 139 -43 135 -31 178 8 32 9 29 14 -40 l5 -74 44 -11z m3294 68 c8 -14 -23
-115 -53 -175 -37 -73 -92 -148 -156 -211 -53 -54 -59 -51 -65 25 -3 32 3 41
59 93 61 57 141 165 162 220 18 47 41 68 53 48z m-67 -33 c-3 -17 -21 -54 -40
-84 -36 -56 -152 -186 -167 -186 -5 0 -9 20 -9 44 0 42 3 47 50 81 28 20 65
58 82 84 62 92 96 116 84 61z m214 -101 c130 -20 128 -19 175 -74 71 -84 86
-146 39 -167 -25 -11 -29 -9 -88 55 -34 37 -65 67 -68 67 -12 0 -242 51 -246
55 -5 5 29 69 42 77 11 7 34 5 146 -13z m-4138 -10 c64 -11 70 -14 113 -64 25
-29 45 -60 45 -69 0 -8 13 -25 29 -37 50 -37 57 -61 29 -103 -12 -19 -25 -36
-28 -36 -3 0 -43 43 -89 95 -82 92 -97 102 -173 119 -26 6 -28 10 -28 60 0 46
3 54 18 51 9 -2 47 -9 84 -16z m4087 -105 c107 -25 109 -26 166 -84 55 -56 58
-61 46 -84 -8 -13 -11 -38 -9 -55 3 -17 1 -31 -4 -31 -4 0 -8 4 -8 8 0 18
-131 137 -164 148 -19 7 -72 20 -118 29 -111 23 -112 23 -88 63 24 40 37 40
179 6z m-4134 -15 c36 -9 60 -27 130 -100 91 -95 102 -121 67 -167 l-18 -23
-77 90 c-51 59 -91 96 -117 107 -38 17 -40 20 -40 61 0 24 3 43 6 43 3 0 25
-5 49 -11z m801 -5 c95 -18 134 -32 134 -48 0 -18 -71 -58 -94 -53 -11 3 -65
17 -120 31 -59 16 -125 26 -166 26 -54 0 -69 3 -74 16 -4 9 -4 19 -2 22 24 24
214 28 322 6z m3264 -73 l125 -29 82 -88 c79 -85 104 -134 69 -134 -8 0 -21
-2 -28 -5 -8 -3 -47 25 -94 69 -76 70 -85 75 -179 104 -55 17 -119 34 -143 38
l-43 7 32 33 c18 19 38 34 43 34 6 -1 67 -14 136 -29z m-3690 -38 c0 -4 -6
-14 -14 -22 -25 -30 -64 -111 -82 -176 l-19 -65 -40 6 c-22 3 -42 8 -44 10 -9
8 89 191 124 231 31 36 40 41 56 33 10 -6 19 -14 19 -17z m-391 8 c10 -6 56
-52 104 -104 80 -88 86 -97 81 -127 -10 -46 -33 -35 -136 61 -87 81 -88 82
-88 130 0 50 7 57 39 40z m4067 -70 c76 -21 85 -27 150 -92 65 -66 67 -69 49
-84 -11 -8 -23 -15 -26 -15 -8 0 -62 83 -80 123 -12 26 -15 27 -93 28 -105 0
-238 21 -243 36 -3 7 10 21 27 32 35 21 40 20 216 -28z"/>
<path d="M5890 6009 c-30 -12 -90 -68 -90 -84 0 -14 57 -69 90 -85 38 -20 130
-15 177 9 52 26 86 67 74 90 -35 65 -169 103 -251 70z m199 -42 c22 -15 41
-34 41 -42 0 -20 -70 -65 -120 -76 -27 -6 -55 -6 -83 2 -44 11 -110 65 -101
81 3 5 25 23 47 40 39 27 47 29 108 26 51 -3 75 -10 108 -31z"/>
<path d="M6360 5760 c-33 -79 18 -206 100 -247 64 -33 95 -31 109 8 31 89 -11
194 -100 248 -19 12 -48 21 -65 21 -26 0 -34 -6 -44 -30z m112 -16 c20 -13 49
-44 64 -69 23 -40 26 -54 21 -97 -9 -69 -16 -75 -71 -54 -76 29 -116 95 -116
192 0 69 27 77 102 28z"/>
<path d="M5824 5480 c-29 -11 -70 -63 -84 -105 -17 -50 1 -96 57 -145 25 -22
50 -40 54 -40 5 0 30 -13 56 -30 38 -24 58 -30 104 -30 53 0 61 3 92 35 47 48
63 105 42 148 -14 31 -60 67 -83 67 -19 0 -42 -31 -42 -56 0 -19 -5 -24 -24
-24 -13 0 -26 7 -30 15 -3 8 -14 15 -25 15 -22 0 -51 42 -34 47 55 19 54 71
-1 97 -38 18 -51 19 -82 6z m94 -33 c18 -14 14 -37 -7 -37 -23 0 -36 -42 -21
-70 5 -10 20 -22 32 -26 13 -4 33 -15 46 -25 24 -19 45 -16 74 9 14 12 15 18
6 29 -8 10 -8 17 0 25 17 17 58 -5 78 -43 13 -27 14 -39 5 -70 -17 -56 -62
-89 -121 -89 -54 0 -69 6 -150 53 -97 58 -128 143 -77 218 31 46 94 58 135 26z"/>
<path d="M4863 4923 c-60 -12 -97 -112 -57 -153 12 -12 20 -12 46 -2 40 15 46
6 46 -57 -1 -60 -11 -73 -45 -56 -33 17 -49 10 -62 -27 -8 -22 -7 -38 3 -63
20 -47 51 -65 114 -65 114 0 151 53 152 213 0 107 -18 162 -63 192 -25 16 -98
26 -134 18z m106 -31 c57 -28 78 -81 76 -189 -1 -79 -5 -96 -26 -127 -30 -45
-61 -61 -115 -61 -68 0 -121 65 -94 115 13 24 30 26 30 5 0 -19 29 -19 57 0
17 12 21 25 20 75 0 41 -5 64 -16 74 -25 22 -49 23 -64 2 -14 -19 -15 -19 -26
3 -9 17 -9 30 -1 57 20 60 92 81 159 46z"/>
<path d="M4262 4555 c-31 -67 5 -189 70 -238 18 -14 53 -30 77 -36 42 -9 43
-9 57 25 29 69 10 150 -49 212 -63 66 -134 83 -155 37z m147 -57 c17 -18 36
-48 42 -66 13 -41 3 -121 -16 -128 -23 -9 -80 14 -108 44 -53 55 -76 171 -41
206 14 14 19 14 54 -4 21 -11 53 -34 69 -52z"/>
<path d="M1760 4291 c-25 -9 -126 -66 -169 -97 -13 -9 -32 -36 -43 -60 -24
-56 -12 -107 36 -159 27 -29 41 -35 73 -35 46 0 93 31 93 60 0 10 -12 27 -27
38 -23 17 -25 22 -14 36 7 9 18 16 23 16 5 0 22 10 37 21 33 24 51 19 51 -15
0 -75 103 -52 130 30 11 31 9 41 -12 81 -13 25 -35 55 -49 65 -29 22 -92 31
-129 19z m132 -48 c41 -39 53 -84 33 -126 -17 -37 -54 -60 -75 -47 -11 7 -11
11 0 25 11 13 10 18 -6 30 -35 26 -55 28 -78 6 -12 -12 -30 -21 -39 -21 -24 0
-46 -40 -40 -73 4 -21 10 -26 24 -22 14 5 19 1 19 -14 0 -25 -28 -41 -70 -41
-42 0 -67 15 -85 50 -36 69 -3 164 69 201 23 11 59 32 81 45 52 32 126 26 167
-13z"/>
<path d="M3685 4237 c-19 -19 -38 -52 -45 -76 -10 -38 -9 -48 12 -89 19 -39
36 -55 103 -95 101 -60 146 -73 197 -57 42 12 92 70 103 120 12 54 -41 120
-97 120 -22 0 -29 -6 -34 -27 -13 -62 -21 -66 -54 -33 -11 11 -26 20 -34 20
-7 0 -20 7 -27 16 -11 14 -9 19 14 36 34 25 34 51 1 77 -42 33 -99 28 -139
-12z m126 3 c26 -14 26 -54 0 -45 -14 4 -20 -1 -24 -22 -7 -36 7 -61 38 -69
13 -3 31 -14 41 -25 22 -24 35 -24 68 2 22 17 24 24 15 35 -8 10 -9 18 -2 25
17 17 68 -15 83 -50 37 -91 -87 -191 -183 -146 -102 48 -151 84 -175 130 -27
53 -8 139 35 164 23 14 79 14 104 1z"/>
<path d="M2288 3924 c-55 -17 -109 -73 -126 -133 -18 -57 -15 -115 6 -141 56
-69 211 65 212 183 0 40 -23 107 -37 106 -4 0 -29 -7 -55 -15z m66 -62 c13
-62 -5 -111 -58 -160 -46 -42 -84 -59 -111 -48 -11 4 -15 20 -15 56 0 85 41
157 105 186 50 23 69 15 79 -34z"/>
<path d="M2770 3710 c-70 -17 -108 -105 -64 -150 11 -11 20 -12 44 -3 38 14
47 3 48 -58 0 -62 -8 -73 -41 -58 -76 35 -98 -73 -28 -136 17 -15 37 -20 80
-20 111 0 151 57 151 212 -1 146 -32 203 -120 216 -19 3 -51 1 -70 -3z m88
-21 c17 -6 43 -28 58 -51 26 -37 28 -47 28 -138 -1 -84 -4 -103 -24 -135 -53
-85 -182 -86 -210 -1 -8 27 -8 40 1 57 l11 22 19 -24 18 -24 28 21 c25 19 28
28 29 83 1 52 -2 64 -20 76 -27 20 -46 19 -62 -2 -11 -16 -13 -16 -24 8 -10
22 -9 33 5 62 24 51 79 69 143 46z"/>
<path d="M1701 3588 c-35 -12 -101 -68 -101 -86 0 -23 53 -71 95 -88 80 -30
193 -3 238 59 19 24 19 27 3 51 -36 56 -159 89 -235 64z m130 -19 c52 -16 102
-59 94 -81 -11 -27 -103 -68 -152 -68 -47 0 -107 25 -136 57 -17 19 -16 21 10
48 52 52 110 66 184 44z"/>
<path d="M2166 3349 c-32 -47 -15 -152 36 -214 34 -40 68 -60 120 -70 36 -7
37 -7 48 36 7 24 10 63 7 87 -9 78 -88 167 -160 179 -28 4 -37 1 -51 -18z
m101 -28 c77 -56 110 -136 84 -203 -17 -45 -77 -32 -132 29 -41 44 -62 136
-43 187 9 24 47 19 91 -13z"/>
<path d="M3872 3080 c-18 -4 -49 -19 -70 -32 -20 -14 -47 -28 -58 -32 -32 -10
-92 -75 -105 -113 -24 -73 44 -174 118 -175 78 -1 120 56 70 96 -20 17 -24 25
-16 39 6 9 18 17 28 17 11 0 21 7 25 15 3 8 17 15 31 15 20 0 25 -5 25 -24 0
-34 27 -58 54 -50 32 9 73 52 79 82 11 58 -44 146 -102 162 -20 5 -38 9 -41 9
-3 -1 -20 -5 -38 -9z m123 -50 c39 -36 51 -89 31 -129 -20 -38 -61 -60 -78
-43 -8 8 -8 15 0 25 9 11 8 17 -6 29 -29 25 -50 28 -74 9 -13 -10 -33 -21 -46
-25 -29 -9 -41 -34 -35 -69 4 -18 12 -27 24 -27 26 0 31 -15 11 -32 -27 -24
-62 -28 -98 -13 -88 36 -83 184 7 233 17 9 48 28 68 41 20 13 47 27 61 31 39
10 108 -5 135 -30z"/>
<path d="M1586 3026 c-18 -18 -38 -52 -44 -75 -11 -36 -10 -46 6 -84 26 -58
33 -64 192 -148 76 -41 156 -11 198 73 21 41 22 52 12 82 -28 86 -130 104
-130 24 0 -18 -5 -28 -14 -28 -18 0 -106 58 -106 70 0 4 11 15 25 24 14 9 25
25 25 36 0 29 -47 60 -93 60 -32 0 -46 -6 -71 -34z m134 -6 c22 -22 18 -45 -6
-36 -9 4 -18 -4 -25 -21 -12 -31 11 -73 40 -73 10 0 26 -9 36 -20 23 -25 43
-25 75 0 20 15 23 21 13 31 -19 19 -16 29 10 29 51 0 90 -77 64 -126 -30 -58
-63 -79 -125 -79 -45 0 -64 5 -92 25 -19 14 -52 33 -73 42 -53 24 -89 101 -75
159 20 77 110 117 158 69z"/>
<path d="M4348 2691 c-78 -49 -121 -171 -86 -246 21 -46 92 -29 155 37 57 59
77 136 52 207 -9 26 -16 31 -43 31 -18 0 -52 -13 -78 -29z m105 -31 c21 -80
-22 -164 -104 -205 -64 -33 -79 -24 -79 47 0 86 36 147 105 179 53 25 67 21
78 -21z"/>
<path d="M4266 2138 c-18 -26 -21 -86 -5 -141 13 -49 63 -105 114 -128 62 -29
81 -25 95 17 36 107 -46 246 -157 269 -25 5 -34 2 -47 -17z m82 -17 c47 -24
77 -56 97 -103 18 -44 19 -74 4 -115 -10 -30 -11 -30 -51 -20 -76 19 -128 95
-128 189 0 72 15 81 78 49z"/>
</g>
</svg>
