<?xml version="1.0" standalone="no"?>
<!DOCTYPE svg PUBLIC "-//W3C//DTD SVG 20010904//EN"
 "http://www.w3.org/TR/2001/REC-SVG-20010904/DTD/svg10.dtd">
<svg version="1.0" xmlns="http://www.w3.org/2000/svg"
 width="500.000000pt" height="395.000000pt" viewBox="0 0 500.000000 395.000000"
 preserveAspectRatio="xMidYMid meet">
<metadata>
Created by potrace 1.16, written by Peter Selinger 2001-2019
</metadata>
<g transform="translate(0.000000,395.000000) scale(0.100000,-0.100000)"
fill="#000000" stroke="none">
<path d="M3412 3712 c-15 -21 -33 -37 -39 -35 -6 2 -51 -21 -100 -52 l-88 -56
58 56 c58 55 66 78 24 68 -12 -3 -96 -41 -186 -84 l-163 -79 64 73 c77 86 102
123 90 131 -5 3 -73 -37 -151 -90 -77 -52 -141 -92 -141 -89 0 4 27 37 60 73
33 37 60 70 60 74 0 27 -63 -17 -252 -177 -38 -31 -68 -54 -68 -50 0 3 32 49
71 102 76 103 88 123 69 123 -16 0 -172 -122 -229 -178 -24 -24 -41 -38 -38
-30 28 69 68 201 63 205 -18 19 -112 -79 -191 -199 -21 -32 -39 -58 -40 -58
-2 0 5 32 15 70 10 39 21 93 25 120 11 81 -14 62 -83 -62 -98 -178 -98 -177
-94 -57 3 81 1 100 -9 97 -8 -3 -18 -24 -22 -48 -10 -52 -21 -41 -37 38 -6 28
-15 52 -18 52 -4 0 -24 -48 -44 -107 -35 -104 -37 -107 -49 -80 -19 42 -33 27
-39 -39 l-5 -59 -12 57 c-16 76 -41 160 -53 178 -9 13 -11 13 -20 0 -5 -8 -10
-24 -10 -35 0 -11 -10 -53 -22 -94 l-22 -75 -13 70 c-28 158 -51 184 -67 76
-5 -34 -12 -62 -16 -62 -4 0 -13 21 -21 47 -15 50 -35 66 -45 36 -3 -10 -18
-49 -32 -87 -29 -76 -30 -76 -52 37 -6 31 -15 57 -20 57 -17 0 -59 -183 -61
-264 l-1 -41 -34 73 c-18 39 -37 72 -42 72 -9 0 -22 -78 -22 -140 l0 -35 -28
50 c-39 72 -91 145 -102 145 -12 0 -12 1 5 -95 19 -108 17 -131 -5 -67 -29 82
-90 202 -101 202 -7 0 -9 -10 -4 -27 4 -16 18 -78 31 -139 13 -61 28 -124 34
-139 14 -38 7 -42 -15 -8 -10 15 -43 60 -74 98 -30 39 -56 72 -57 74 -2 1 -7
0 -13 -3 -6 -4 -3 -23 9 -51 11 -25 29 -65 40 -90 l19 -45 -74 65 c-41 36 -79
65 -84 65 -24 0 -18 -25 27 -114 27 -53 47 -96 45 -96 -2 0 -35 27 -75 60 -39
33 -76 60 -83 60 -37 0 -22 -34 59 -135 71 -89 72 -106 2 -29 -30 32 -57 56
-60 53 -6 -6 43 -119 97 -224 16 -32 3 -15 -52 65 -56 83 -105 140 -121 140
-12 0 -12 -6 0 -50 l10 -35 -20 25 c-35 46 -39 12 -14 -110 33 -158 30 -169
-17 -65 -22 50 -44 94 -49 99 -20 20 -22 -7 -7 -86 8 -46 18 -105 22 -133 11
-91 26 -155 36 -150 5 4 7 16 4 28 -7 29 -34 241 -31 244 1 1 19 -39 41 -90
64 -155 74 -147 46 34 -12 74 -24 145 -27 159 -4 20 0 17 18 -12 38 -63 49
-47 24 35 -23 76 -14 68 94 -88 38 -55 83 -113 101 -130 l32 -30 -16 30 c-18
34 -117 256 -117 262 0 2 27 -25 59 -59 33 -35 62 -60 66 -57 11 12 -50 121
-109 194 -30 38 -53 71 -51 73 6 6 105 -81 175 -152 60 -62 87 -75 47 -23 -27
36 -140 257 -134 263 2 2 38 -28 81 -68 62 -57 83 -84 108 -139 17 -38 35 -69
39 -69 5 0 9 2 9 4 0 8 -50 134 -79 201 l-31 70 31 -35 c17 -19 38 -47 47 -62
9 -16 19 -28 23 -28 17 0 19 59 4 132 -18 85 -15 114 5 51 22 -68 72 -183 79
-183 17 0 16 15 -5 135 -11 69 -18 125 -15 125 3 0 28 -38 55 -85 27 -47 52
-88 57 -91 5 -3 9 25 10 63 1 109 9 112 49 22 19 -43 37 -79 41 -79 3 0 9 48
13 108 3 59 12 134 20 167 15 69 15 69 46 -92 19 -104 33 -143 50 -143 6 0 10
8 10 18 1 9 7 31 14 47 13 30 14 30 21 -33 5 -39 12 -61 19 -59 11 4 54 240
55 305 1 17 5 32 10 32 11 0 17 -29 31 -160 15 -133 18 -150 31 -150 6 0 8 21
4 58 -5 48 0 74 28 162 l34 105 27 -120 c15 -66 31 -130 37 -143 16 -40 29
-14 29 59 0 38 4 69 9 69 5 0 14 -24 21 -52 24 -106 31 -128 40 -128 6 0 10 8
10 17 0 17 92 234 97 229 2 -2 -1 -27 -7 -56 -5 -29 -10 -69 -10 -89 l0 -36
24 42 c13 23 38 62 55 86 17 25 49 78 71 119 22 40 40 69 40 63 0 -5 -12 -55
-26 -110 -15 -55 -29 -110 -31 -122 -10 -44 17 -22 68 55 69 102 162 218 166
206 2 -5 -15 -60 -37 -122 -27 -75 -36 -113 -28 -118 6 -4 15 2 20 12 14 26
180 189 209 205 l24 12 -26 -34 c-99 -131 -142 -199 -124 -199 11 0 85 51 146
101 117 95 106 88 84 58 -11 -15 -35 -45 -53 -67 -43 -53 -24 -64 31 -18 55
45 267 185 267 177 0 -4 -38 -44 -85 -91 -47 -47 -81 -88 -76 -93 5 -5 95 34
202 88 l194 96 -99 -94 c-65 -60 -96 -96 -88 -101 6 -4 24 2 39 13 45 31 223
141 230 141 3 0 -32 -38 -78 -85 -46 -47 -85 -90 -87 -95 -9 -25 27 -5 83 48
111 103 165 151 165 146 0 -10 -55 -113 -103 -192 -76 -125 -49 -120 68 12 55
63 101 113 103 111 2 -2 -18 -44 -45 -93 -26 -50 -44 -94 -40 -99 5 -4 16 1
25 13 10 12 46 58 82 104 35 45 66 78 68 72 2 -6 -13 -53 -32 -105 -56 -148
-47 -156 37 -34 110 160 115 160 63 11 -19 -54 -32 -102 -29 -107 2 -4 15 2
28 15 13 13 61 43 107 67 l83 45 -82 -90 c-46 -49 -83 -94 -83 -101 0 -23 18
-23 71 1 63 27 199 77 199 72 0 -1 -36 -33 -80 -70 -118 -98 -107 -108 54 -51
54 20 107 40 117 46 45 23 12 -11 -66 -70 -109 -82 -113 -105 -10 -61 53 23
165 53 172 47 2 -3 -32 -28 -77 -56 -44 -28 -80 -56 -80 -60 0 -5 48 -7 108
-5 114 4 111 -3 -12 -30 -97 -21 -77 -31 61 -33 71 -1 142 -5 158 -11 l30 -9
-70 -34 c-74 -36 -86 -55 -32 -52 335 22 355 16 172 -56 -127 -50 -154 -65
-142 -78 3 -3 43 0 89 7 46 6 106 10 133 8 47 -3 43 -5 -88 -37 -128 -32 -158
-44 -143 -58 3 -4 70 0 149 7 79 7 150 11 157 8 8 -2 -24 -17 -70 -31 -113
-36 -161 -58 -157 -71 2 -6 8 -11 13 -11 5 1 47 5 94 9 92 9 193 -4 155 -19
-11 -4 -77 -34 -147 -66 -69 -33 -131 -59 -137 -59 -6 0 -11 -4 -11 -9 0 -12
75 -28 175 -37 84 -7 144 -22 95 -23 -45 -1 -161 -34 -157 -44 2 -6 40 -22 84
-37 78 -26 179 -77 170 -86 -2 -2 -34 3 -72 11 -71 17 -180 17 -179 0 0 -5 22
-14 50 -18 111 -17 151 -26 188 -42 21 -9 36 -18 34 -20 -2 -2 -47 2 -100 9
-112 16 -163 10 -163 -19 0 -21 0 -21 153 -65 41 -12 72 -23 70 -25 -1 -1 -44
4 -95 12 -141 24 -167 1 -55 -48 100 -44 170 -80 142 -74 -14 3 -67 8 -117 12
-80 5 -93 4 -93 -10 0 -9 15 -20 38 -28 90 -29 203 -72 199 -75 -2 -3 -48 7
-102 22 -73 19 -100 23 -109 14 -8 -9 -5 -16 13 -31 13 -10 19 -19 15 -19 -5
0 16 -26 47 -58 63 -66 101 -112 79 -96 -8 6 -39 30 -69 53 -66 51 -83 44 -21
-10 25 -21 41 -39 37 -39 -5 0 -40 14 -79 31 -47 20 -74 27 -80 21 -15 -15 -6
-25 80 -85 103 -73 153 -117 127 -111 -11 2 -69 10 -128 17 -109 13 -133 9
-105 -20 21 -20 142 -63 178 -63 17 0 30 -4 30 -10 0 -6 -35 -10 -82 -11 -108
-1 -188 -11 -191 -24 -1 -5 56 -24 126 -41 71 -18 131 -35 134 -38 10 -10
-116 -7 -182 5 -64 11 -125 3 -132 -18 -3 -7 40 -25 104 -45 116 -35 119 -52
3 -19 -45 12 -72 16 -76 9 -9 -14 2 -23 97 -78 46 -27 81 -50 78 -50 -3 0 -59
14 -124 30 -65 17 -122 30 -126 30 -23 0 -3 -21 52 -55 54 -33 158 -113 199
-152 8 -8 -36 10 -97 41 -62 31 -119 56 -128 56 -34 0 -11 -33 60 -86 42 -31
74 -58 73 -60 -2 -1 -53 17 -113 41 -121 49 -149 47 -99 -7 69 -76 64 -77 -30
-9 -55 39 -104 70 -109 68 -23 -7 -15 -27 36 -93 30 -38 69 -96 88 -129 l33
-59 -59 42 c-85 61 -112 53 -60 -18 37 -50 31 -50 -22 1 -81 77 -180 159 -192
159 -22 0 -10 -26 54 -115 35 -49 87 -126 115 -169 l51 -79 -64 57 c-35 31
-67 56 -71 56 -16 0 -2 -32 40 -89 26 -34 45 -64 42 -66 -2 -3 -37 15 -77 40
-40 25 -77 45 -82 45 -16 0 -10 -23 20 -78 l29 -52 -28 0 c-38 0 -78 18 -112
49 -46 41 -44 15 3 -36 36 -40 41 -48 26 -51 -23 -5 -74 30 -162 112 l-70 65
40 -6 c22 -3 51 -12 64 -20 13 -9 54 -17 90 -19 46 -3 60 -1 46 5 -11 5 -31
10 -45 11 l-25 2 28 10 c39 14 25 26 -25 21 -32 -4 -54 1 -87 19 -53 27 -61
44 -26 50 14 3 25 1 25 -3 0 -5 7 -9 15 -9 12 0 7 15 -20 65 -20 36 -34 65
-30 65 11 0 85 -59 136 -108 76 -72 70 -33 -15 94 -42 63 -72 114 -67 114 5 0
52 -45 103 -100 92 -99 108 -112 108 -87 0 22 -309 322 -320 311 -7 -7 4 -30
35 -71 24 -34 65 -95 91 -135 l47 -72 -39 28 c-22 16 -56 45 -76 64 -21 20
-41 32 -45 28 -4 -4 0 -28 9 -53 l17 -46 -65 64 c-88 87 -81 57 9 -38 85 -90
49 -69 -87 52 -95 85 -119 113 -72 81 38 -25 42 -1 7 46 -31 42 -34 61 -6 38
46 -38 19 42 -35 103 -26 30 -27 34 -10 30 27 -7 26 13 -1 28 -16 8 -18 13 -9
19 9 6 1 14 -26 29 -21 11 -33 20 -26 21 25 0 11 20 -35 47 -27 16 -48 35 -48
43 0 13 -46 51 -78 64 -9 3 -8 7 3 15 17 12 17 11 -46 56 -27 19 -43 35 -36
35 22 0 13 28 -18 53 -16 14 -30 28 -30 30 0 3 16 8 35 11 65 12 38 26 -37 19
-53 -4 -69 -3 -64 5 4 7 15 12 24 12 35 0 92 21 92 35 0 7 -22 21 -49 30 -35
11 -60 29 -85 60 -40 48 -43 55 -21 55 23 0 18 13 -18 39 -17 13 -24 21 -14
18 34 -12 16 12 -44 57 -45 34 -55 46 -40 46 36 0 23 17 -24 30 -49 14 -60 30
-20 30 14 0 25 4 25 9 0 11 -7 13 -113 36 l-77 16 55 61 c77 86 75 90 -27 58
-34 -11 -66 -20 -71 -20 -16 0 23 56 58 83 42 33 38 47 -13 47 l-36 0 31 33
c55 56 76 111 81 204 6 115 -11 191 -60 259 l-39 55 42 69 c24 38 45 68 46 66
2 -2 -6 -42 -18 -90 -12 -48 -19 -89 -16 -92 3 -3 29 12 59 34 29 22 64 45 78
52 20 10 17 4 -15 -31 -67 -72 -77 -87 -70 -99 4 -7 11 -8 18 -2 16 13 144 58
187 65 l35 7 -35 -30 c-19 -17 -56 -44 -82 -62 -26 -17 -45 -35 -42 -40 8 -12
60 20 144 88 66 53 83 74 60 74 -25 0 -168 -33 -197 -45 -18 -8 -33 -11 -33
-8 0 4 27 34 60 69 55 57 72 84 52 84 -12 0 -160 -88 -167 -100 -19 -30 -21 0
-4 73 10 45 19 94 19 110 0 53 -11 38 -114 -146 -17 -30 -25 -36 -41 -30 -11
4 -60 6 -110 5 -71 -2 -101 -8 -145 -28 -123 -56 -162 -134 -191 -384 l-12
-104 -66 -73 c-36 -40 -74 -73 -83 -73 -9 0 -33 -16 -54 -35 -20 -19 -38 -35
-40 -35 -2 0 3 19 11 41 19 52 19 59 0 59 -17 0 -109 -87 -118 -110 -4 -12 -7
-11 -20 5 -19 24 -34 13 -39 -30 l-3 -30 -28 48 c-29 49 -55 64 -43 25 4 -13
10 -43 13 -68 l6 -45 -34 50 c-42 61 -69 71 -69 24 l0 -32 -23 21 c-27 26 -57
29 -57 6 0 -9 -3 -14 -7 -12 -42 22 -85 37 -120 43 -36 6 -43 4 -43 -9 0 -14
-5 -14 -39 4 -49 24 -121 37 -121 21 0 -6 -13 -11 -30 -11 -19 0 -30 5 -30 14
0 8 -40 52 -90 97 -49 46 -87 85 -85 87 5 6 142 -68 210 -113 85 -57 88 -43
12 53 -62 78 -100 132 -93 132 2 0 36 -42 75 -93 66 -88 126 -147 150 -147 19
0 12 20 -28 78 -38 57 -81 135 -81 148 0 4 18 -19 41 -52 50 -71 128 -154 147
-154 7 0 -14 30 -47 68 -34 37 -87 105 -119 151 -96 142 -111 117 -29 -51 29
-59 46 -101 38 -95 -7 6 -44 52 -81 102 -73 97 -116 142 -127 132 -10 -11 22
-72 83 -159 30 -43 52 -78 49 -78 -2 0 -27 13 -53 30 -69 42 -181 91 -200 88
-10 -1 -30 6 -45 16 -16 11 -42 26 -59 35 -22 12 -44 43 -84 121 -58 114 -57
114 58 -29 71 -90 77 -81 39 64 -11 43 -19 81 -17 83 2 2 27 -38 56 -87 55
-98 88 -125 44 -38 -35 69 -165 269 -172 263 -2 -3 3 -24 12 -48 21 -51 67
-220 62 -225 -2 -2 -14 11 -27 29 -13 18 -58 71 -101 117 -43 46 -78 88 -78
92 0 5 -7 9 -16 9 -21 0 -17 -11 60 -139 63 -105 96 -165 96 -175 0 -3 -14 0
-30 6 -17 5 -62 8 -100 6 -57 -3 -77 -9 -112 -34 -110 -77 -117 -289 -13 -384
15 -14 44 -54 65 -90 38 -64 76 -107 115 -128 18 -10 17 -11 -12 -12 -40 0
-42 -12 -5 -27 25 -11 24 -11 -12 -6 -32 5 -37 3 -30 -9 12 -19 73 -72 102
-87 12 -7 20 -16 16 -22 -9 -15 21 -54 62 -80 21 -12 32 -25 26 -27 -22 -7
-12 -43 29 -102 39 -55 42 -63 42 -127 0 -57 4 -74 24 -101 16 -21 23 -41 20
-54 -7 -24 12 -65 42 -92 26 -23 15 -40 -35 -56 -20 -7 -33 -14 -31 -17 3 -2
21 2 40 11 33 13 38 13 81 -9 26 -13 72 -26 104 -30 31 -3 66 -11 77 -18 11
-6 49 -14 85 -17 l65 -5 -105 -33 c-142 -46 -328 -123 -425 -177 -90 -50 -94
-60 -7 -16 106 53 256 113 402 161 176 57 202 63 225 46 16 -11 11 -15 -41
-36 -191 -75 -430 -222 -557 -342 l-62 -59 74 60 c158 129 350 245 513 310 90
36 108 38 108 11 0 -11 5 -20 12 -20 7 0 8 -3 3 -9 -14 -12 -100 -38 -169 -50
-74 -14 -151 -49 -196 -91 l-34 -33 28 -22 c41 -33 160 -77 198 -74 18 1 52
-4 75 -11 70 -22 105 -8 194 76 68 63 83 73 99 64 11 -6 70 -26 132 -46 100
-32 122 -35 188 -31 72 5 74 5 51 -11 -14 -10 -34 -25 -45 -34 l-21 -17 24 -8
c23 -9 21 -11 -30 -45 -90 -58 -128 -67 -252 -55 -135 12 -198 1 -272 -49 -61
-40 -69 -59 -27 -69 20 -4 36 -18 50 -44 55 -97 195 -170 297 -156 28 4 59 6
70 5 114 -10 144 2 244 93 37 34 95 77 129 95 62 33 190 132 205 158 6 10 25
15 65 14 96 -1 114 0 133 11 14 7 19 6 19 -4 0 -20 52 -39 83 -31 17 4 27 2
27 -5 0 -22 93 -12 139 14 40 23 43 24 38 6 -6 -24 11 -32 36 -19 12 6 23 5
33 -2 7 -7 20 -10 29 -7 8 4 17 2 20 -2 2 -5 -27 -32 -65 -60 -39 -28 -70 -56
-70 -63 0 -7 13 -26 29 -43 17 -16 36 -48 43 -70 13 -38 15 -40 51 -37 23 2
37 -1 37 -9 0 -8 24 -10 85 -7 50 3 85 1 85 -5 0 -6 31 -8 74 -5 107 7 177 43
215 110 16 28 32 66 36 84 6 34 6 34 34 19 16 -8 47 -35 69 -61 24 -26 46 -43
52 -39 6 4 22 -3 36 -16 13 -12 25 -21 26 -18 2 2 12 21 23 42 16 32 20 36 26
20 4 -12 10 -1 18 39 12 55 13 57 37 48 55 -21 94 -4 63 27 -7 7 4 9 39 5 30
-2 52 0 56 7 4 5 -3 28 -14 51 -11 22 -17 40 -13 40 5 0 43 -23 86 -50 106
-68 115 -67 72 9 -14 23 -25 46 -25 49 0 3 22 -18 49 -47 52 -56 83 -62 56
-12 -8 16 -62 99 -120 186 -95 142 -101 154 -65 125 23 -18 82 -77 132 -131
51 -54 96 -99 100 -99 18 0 6 38 -25 85 -76 113 -74 109 -51 97 11 -6 44 -31
72 -57 30 -27 53 -41 57 -35 9 15 -77 172 -133 245 l-47 59 50 -34 c28 -19 83
-63 123 -98 103 -89 112 -70 23 48 -27 36 -48 66 -46 68 5 6 161 -60 222 -94
37 -21 64 -30 68 -24 9 15 1 24 -83 91 -42 34 -81 67 -87 72 -5 5 44 -18 110
-51 147 -75 169 -69 73 21 -37 35 -94 83 -127 107 -33 24 -59 46 -56 48 7 7
118 -29 203 -65 131 -56 124 -30 -15 61 l-118 77 55 -7 c30 -4 81 -15 113 -24
55 -17 81 -13 54 8 -25 20 -124 66 -202 93 l-80 29 59 -7 c100 -10 311 -9 316
2 6 12 -38 27 -184 64 -97 25 -106 29 -77 34 19 4 77 7 130 7 97 0 141 6 141
20 0 13 -47 28 -124 40 -43 6 -94 18 -114 26 -36 13 -35 14 33 8 39 -4 96 -15
127 -25 67 -22 68 -22 68 -9 0 13 -46 56 -132 122 -37 29 -66 54 -64 55 7 7
149 -57 181 -81 34 -27 55 -33 55 -17 0 5 -6 14 -14 20 -8 6 -42 46 -77 89
l-64 77 53 -39 c29 -21 56 -36 59 -33 13 13 -10 40 -86 99 -44 35 -79 64 -78
64 2 2 50 -11 226 -57 7 -2 15 1 18 7 6 18 -82 71 -178 105 -49 17 -89 33 -89
35 0 5 72 -7 163 -28 49 -11 91 -17 95 -13 14 14 -66 60 -248 144 -23 10 -22
11 10 5 63 -12 212 -20 217 -11 7 11 -111 62 -192 81 -94 23 -118 39 -45 31
127 -14 270 -17 270 -7 0 6 -9 14 -20 17 -11 4 -17 11 -14 17 16 26 -108 117
-209 153 l-62 23 43 11 c23 7 75 14 115 16 39 2 73 7 75 11 5 13 -60 32 -134
39 -38 4 -98 13 -134 20 l-65 12 80 38 c44 20 114 50 155 65 41 15 76 32 77
37 4 12 -107 33 -183 34 l-59 1 85 28 c47 15 97 31 113 34 15 4 27 10 27 15 0
14 -40 21 -135 22 -99 0 -94 9 18 30 41 7 67 17 67 25 0 16 -74 29 -163 28
-79 -1 -74 4 46 47 48 18 87 37 87 45 0 23 -72 38 -186 38 l-111 0 38 25 c28
18 35 28 28 37 -8 10 -73 25 -169 38 -8 1 12 9 44 17 101 25 83 38 -55 41
l-123 3 92 59 c51 33 92 66 92 73 0 17 8 18 -120 -17 -61 -16 -113 -30 -116
-30 -3 0 16 18 43 39 98 81 118 100 111 107 -5 4 -69 -16 -145 -44 -75 -28
-138 -50 -140 -49 -1 2 36 34 82 72 80 67 102 92 90 103 -3 3 -22 -2 -43 -12
-20 -10 -75 -32 -122 -48 -47 -17 -97 -37 -112 -44 -16 -8 -28 -12 -28 -8 0 3
38 47 85 96 79 84 100 118 75 118 -13 0 -122 -55 -173 -87 -21 -13 -41 -23
-43 -20 -2 2 7 36 20 75 51 150 33 177 -48 70 -28 -37 -52 -65 -53 -64 -2 2 3
21 11 42 7 22 17 58 21 82 10 58 -11 56 -59 -8 -42 -55 -57 -60 -32 -11 17 33
21 71 7 71 -4 0 -37 -33 -71 -72 -35 -40 -68 -77 -73 -83 -5 -5 1 10 13 35 37
73 90 201 90 216 0 25 -19 15 -48 -24z m-983 -866 c15 -8 40 -31 55 -50 47
-63 59 -103 60 -206 1 -86 -2 -100 -27 -148 -20 -39 -41 -61 -74 -80 -51 -30
-126 -92 -119 -99 2 -3 32 3 66 11 34 9 74 16 88 16 26 0 26 0 6 -14 -11 -8
-49 -26 -85 -41 -65 -26 -106 -51 -98 -59 2 -3 33 9 67 26 35 16 66 27 69 24
3 -3 -10 -21 -31 -39 -20 -18 -36 -36 -36 -40 0 -13 37 -7 111 18 l74 25 -50
-50 c-27 -27 -47 -51 -44 -53 2 -2 15 -12 29 -22 14 -9 17 -15 8 -12 -10 4
-18 2 -18 -3 0 -15 43 -40 82 -46 20 -4 45 -15 54 -26 15 -16 15 -18 2 -13 -9
4 -19 2 -23 -4 -3 -6 1 -11 9 -11 21 0 129 -41 123 -47 -3 -2 -22 3 -42 12
-21 8 -41 12 -44 9 -3 -4 0 -9 7 -11 44 -16 118 -63 120 -77 4 -16 2 -16 -28
-1 -42 22 -58 7 -28 -26 32 -34 129 -105 169 -124 l34 -15 -44 5 c-24 3 -57
13 -73 21 -16 9 -32 13 -35 10 -3 -3 18 -17 48 -32 l54 -26 -45 6 c-25 3 -53
8 -62 11 -11 4 -16 2 -14 -8 4 -29 28 -46 82 -57 59 -12 86 -33 32 -25 -23 4
-17 0 20 -14 29 -10 56 -22 60 -26 4 -5 0 -6 -10 -2 -33 12 -27 -8 14 -45 l43
-39 -57 36 c-31 19 -65 35 -75 35 -16 -1 -16 -2 3 -13 11 -7 38 -31 59 -55 21
-24 58 -55 82 -69 23 -13 43 -26 43 -28 0 -9 -68 17 -93 36 -43 32 -43 16 0
-18 21 -16 65 -40 98 -53 33 -12 71 -27 84 -32 37 -14 21 -17 -33 -7 -27 5
-73 22 -102 38 -57 31 -73 26 -26 -8 32 -22 87 -45 147 -60 22 -6 49 -17 60
-25 18 -14 17 -14 -20 -10 -22 3 -58 9 -80 15 -87 22 -82 22 -62 6 9 -8 57
-23 105 -32 48 -10 91 -22 97 -27 11 -10 -77 0 -119 13 -37 11 -49 11 -42 0 4
-5 41 -17 84 -27 42 -10 89 -27 105 -38 27 -20 62 -65 55 -71 -2 -2 -31 15
-65 39 -62 43 -161 82 -185 73 -14 -5 -17 -4 72 -37 80 -29 111 -51 150 -106
l34 -49 -34 28 c-57 45 -123 87 -139 87 -18 0 -11 -7 30 -29 29 -16 66 -61 68
-84 1 -4 -12 -1 -29 8 -52 27 -32 -1 28 -38 31 -20 88 -64 126 -98 39 -34 92
-79 118 -100 27 -21 42 -39 35 -42 -19 -7 -96 36 -175 98 -40 31 -75 55 -78
52 -9 -9 128 -118 186 -147 65 -33 92 -60 38 -37 -41 17 -104 56 -175 109 -29
21 -53 35 -53 30 0 -15 142 -117 209 -149 36 -18 59 -32 50 -33 -8 0 -55 20
-105 45 -68 34 -82 39 -59 19 17 -14 42 -32 58 -40 59 -31 124 -108 159 -186
33 -74 41 -138 17 -138 -5 0 -23 22 -41 49 -42 62 -108 134 -115 127 -4 -3 8
-28 25 -56 17 -27 30 -50 28 -50 -2 0 -27 32 -56 70 -29 39 -54 70 -57 70 -5
0 2 -12 41 -70 29 -43 29 -44 6 -29 -14 9 -49 44 -77 78 -62 72 -72 56 -12
-19 47 -60 48 -86 7 -169 -29 -58 -82 -89 -168 -98 l-63 -6 6 29 c4 16 9 40
13 54 5 20 1 17 -24 -16 -17 -22 -43 -46 -57 -52 -27 -12 -95 -17 -95 -6 0 4
21 38 46 76 25 38 44 71 42 74 -7 6 -46 -38 -82 -93 -29 -44 -34 -48 -66 -44
-19 1 -38 8 -43 15 -14 20 3 68 39 113 50 61 36 65 -18 4 -44 -48 -45 -49 -67
-32 l-23 18 46 39 c25 21 65 47 88 59 41 19 43 22 41 59 -3 47 -16 64 -36 47
-12 -9 -16 -7 -20 9 -7 27 -27 25 -28 -2 -1 -15 -4 -11 -9 12 l-7 35 -2 -32
c-1 -22 -8 -36 -23 -44 -19 -10 -20 -9 -14 7 4 11 9 33 12 49 4 28 3 28 -13
-8 -14 -30 -21 -35 -30 -26 -9 9 -16 9 -28 -1 -14 -12 -14 -10 -5 14 13 34 13
56 0 56 -5 0 -10 -8 -10 -17 0 -23 -31 -70 -57 -88 -20 -14 -20 -14 -2 22 21
41 24 63 9 63 -5 0 -10 -4 -10 -10 0 -5 -4 -10 -9 -10 -6 0 -6 12 0 32 11 40
11 38 0 38 -5 0 -12 -14 -16 -31 -7 -31 -59 -99 -76 -99 -15 0 -10 20 11 47
11 14 20 31 20 37 0 6 -12 -4 -26 -22 -14 -17 -35 -37 -46 -43 -18 -10 -19 -8
-13 11 7 21 5 22 -27 15 -18 -4 -39 -12 -45 -17 -17 -14 -16 3 2 26 8 11 15
27 15 35 -1 10 -7 5 -16 -11 -8 -15 -24 -33 -36 -39 -20 -11 -19 -8 5 21 41
48 25 48 -23 0 -40 -40 -71 -50 -37 -12 22 24 22 46 1 38 -15 -6 -15 -4 0 18
15 24 15 25 -7 23 -13 -1 -42 -17 -65 -35 -40 -32 -52 -33 -33 -2 21 32 -3 27
-54 -13 -57 -44 -59 -65 -3 -26 33 23 33 23 14 1 -26 -29 -15 -37 23 -17 31
16 32 16 19 -5 -15 -25 -155 -140 -196 -161 -46 -23 -145 -96 -177 -129 -36
-38 -87 -66 -138 -75 -35 -7 -37 -6 -37 20 0 14 14 47 31 71 17 25 28 48 24
52 -8 8 -49 -41 -70 -84 -17 -37 -75 -64 -134 -64 -47 0 -131 34 -131 53 0 17
57 73 107 103 21 13 32 24 25 24 -24 0 -76 -32 -118 -72 l-41 -39 -31 26 c-18
15 -36 41 -40 58 -6 22 -15 33 -30 35 -37 6 -25 17 48 41 79 27 163 31 232 12
37 -11 54 -11 85 -1 53 18 138 61 200 103 28 19 64 37 80 41 l28 7 -30 -25
-30 -26 35 7 c19 3 49 12 65 20 l30 14 -25 -21 -25 -22 34 6 c34 6 107 53 98
63 -3 2 -18 -4 -34 -14 -26 -16 -27 -16 -14 0 17 21 6 35 -17 21 -9 -6 -35
-21 -57 -34 l-40 -23 21 24 c36 41 40 53 16 47 -12 -4 -24 -2 -27 3 -3 4 -17
4 -31 -1 -46 -18 -47 -11 -6 29 l40 39 94 -4 c82 -4 98 -2 138 18 35 18 51 35
73 78 26 50 28 63 25 135 -4 100 -33 164 -113 255 -80 91 -153 202 -192 290
-35 80 -41 78 -19 -7 14 -53 71 -144 178 -286 128 -168 151 -302 69 -390 -46
-50 -77 -61 -181 -62 -60 0 -119 -7 -159 -19 -47 -13 -81 -16 -120 -12 -99 11
-190 34 -243 61 l-52 26 -78 -83 c-76 -82 -78 -83 -125 -83 -27 0 -56 3 -66 7
-16 7 -16 10 3 60 17 46 17 50 2 32 -9 -12 -25 -36 -34 -53 -16 -30 -20 -31
-60 -25 -65 10 -73 22 -41 67 14 20 24 40 20 43 -3 3 -18 -12 -34 -35 -31 -44
-47 -50 -74 -25 -18 16 -16 18 24 50 42 35 91 52 204 73 86 16 176 46 181 60
2 6 -3 11 -12 11 -10 0 -16 9 -16 21 0 18 -2 19 -15 9 -9 -7 -19 -9 -23 -5 -4
4 -1 10 6 12 6 3 12 11 12 18 0 7 12 16 28 19 15 2 45 8 67 12 l40 7 -40 10
c-22 6 -74 11 -115 12 -41 2 -87 3 -102 4 -20 1 -26 5 -22 16 5 13 1 13 -36 0
-78 -28 -106 -12 -37 20 l32 15 -50 -5 -50 -5 37 20 c62 34 56 40 -41 40 -49
0 -92 4 -95 9 -10 15 188 34 272 26 68 -6 146 -25 206 -50 13 -6 17 -5 12 3
-3 6 -32 21 -64 33 -47 18 -87 23 -222 29 -123 5 -174 11 -200 23 -31 15 -32
16 -7 12 15 -3 48 -8 75 -12 42 -6 46 -5 34 10 -8 9 -30 21 -50 28 -20 6 -57
22 -81 35 -24 13 -46 22 -48 20 -7 -6 53 -46 94 -62 l38 -14 -35 5 c-121 19
-116 19 -98 0 9 -10 40 -25 68 -35 58 -19 56 -25 -10 -34 -25 -4 -55 -12 -67
-18 -17 -8 -28 -6 -55 10 -35 22 -63 62 -57 80 3 7 17 6 42 -3 48 -17 47 -4
-3 29 -43 29 -51 41 -20 31 43 -14 40 8 -11 62 -28 30 -49 56 -46 59 2 2 16 0
31 -5 37 -15 33 -4 -21 53 -28 29 -40 46 -28 41 54 -21 67 -14 22 10 -55 30
-56 41 -3 27 46 -13 49 4 4 21 l-33 11 30 6 c30 5 30 5 -30 42 -95 59 -94 58
-57 51 17 -3 32 -3 32 0 0 16 -63 68 -127 106 -77 44 -89 55 -48 45 30 -8 95
3 95 16 0 5 -16 12 -36 16 -44 8 -29 20 36 29 74 10 84 25 17 25 -99 0 -146
31 -194 125 -14 28 -48 75 -76 105 -63 70 -77 104 -77 186 0 155 109 220 277
164 46 -16 79 -38 140 -93 44 -40 97 -92 119 -117 49 -57 154 -162 154 -155 0
3 -7 18 -16 33 -12 20 -7 17 17 -11 39 -43 54 -47 45 -12 -8 30 4 32 29 5 18
-20 45 -27 45 -12 -1 4 -7 18 -15 32 -8 14 -14 28 -15 33 0 12 73 -29 128 -72
28 -23 55 -41 59 -41 4 -1 23 -14 42 -30 45 -38 50 -31 15 17 l-28 38 32 -29
c44 -41 40 -20 -5 26 -20 21 -32 38 -26 38 14 0 93 -61 121 -95 31 -36 38 -25
17 27 l-17 43 42 -40 41 -40 -5 45 -5 45 27 -44 c14 -24 28 -39 30 -33 2 7 8
9 14 6 14 -9 28 15 29 51 0 26 2 27 9 10 5 -11 9 -34 9 -51 1 -17 8 -37 17
-45 14 -11 15 -9 13 27 -5 70 0 111 11 94 5 -8 10 -28 10 -45 0 -16 4 -36 9
-44 7 -11 11 -5 15 22 3 20 8 53 12 72 3 20 18 50 35 68 l29 32 -6 -51 c-7
-56 10 -84 30 -49 6 10 24 33 40 52 25 30 30 32 40 17 11 -14 18 -9 54 38 22
29 53 65 68 78 l26 25 -30 -60 c-16 -33 -39 -69 -51 -79 -29 -27 -26 -40 5
-20 14 10 43 51 65 93 41 80 44 65 3 -23 -13 -27 -21 -52 -18 -55 7 -8 19 11
49 79 23 53 30 87 37 180 17 236 33 293 100 358 19 18 57 41 84 52 60 23 173
26 213 6z"/>
<path d="M2110 1827 c-14 -7 -33 -29 -44 -50 -40 -83 10 -187 91 -187 58 0 83
22 83 74 0 44 -23 86 -71 125 -22 19 -23 20 -4 21 20 1 20 1 1 15 -24 18 -24
18 -56 2z m73 -87 c47 -51 52 -104 12 -122 -74 -33 -149 89 -99 160 19 27 35
20 87 -38z"/>
<path d="M2348 1704 c-30 -62 -21 -72 17 -17 19 29 25 33 25 18 0 -11 -9 -37
-20 -58 -27 -50 -25 -59 5 -22 26 32 35 22 10 -11 -8 -10 -15 -23 -15 -27 0
-15 21 5 41 37 l19 31 0 -33 c0 -37 -12 -66 -43 -99 -11 -13 -16 -23 -10 -23
13 0 47 38 66 75 9 17 16 23 17 15 0 -9 -9 -33 -20 -55 -11 -22 -20 -43 -20
-48 0 -17 18 3 36 40 17 34 19 36 22 15 2 -13 -6 -42 -17 -65 -24 -47 -18 -63
9 -27 20 25 29 120 12 120 -7 0 -23 46 -38 113 -7 32 -24 46 -25 20 0 -14 -2
-14 -9 5 -5 12 -14 22 -19 22 -5 0 -11 6 -13 14 -2 8 -15 -10 -30 -40z"/>
<path d="M1074 1607 c-21 -18 -28 -34 -31 -78 -4 -43 -3 -52 7 -42 10 10 17 4
33 -29 15 -30 32 -46 65 -60 50 -22 85 -18 120 14 40 38 23 95 -49 166 -58 57
-102 66 -145 29z m107 -41 c24 -18 54 -51 66 -73 20 -36 21 -41 7 -61 -18 -26
-70 -30 -113 -7 -53 27 -83 141 -43 164 27 16 36 13 83 -23z"/>
<path d="M1925 1182 c-6 -5 -31 -17 -57 -26 -73 -27 -137 -118 -138 -197 0
-45 37 -158 60 -182 27 -29 89 -33 144 -8 35 15 59 19 90 15 58 -8 109 10 146
52 25 28 30 43 30 83 0 99 -47 180 -136 237 -53 34 -117 46 -139 26z m146 -63
c23 -16 29 -27 24 -43 -3 -11 -8 -44 -12 -72 -5 -44 -2 -55 16 -73 17 -17 29
-21 52 -16 33 7 33 8 18 -33 -17 -49 -66 -74 -141 -71 -43 1 -72 -3 -93 -14
-54 -30 -145 -16 -145 23 0 5 -3 15 -6 23 -4 12 0 14 14 10 24 -6 78 21 91 45
5 9 5 26 1 38 -11 29 -91 86 -112 80 -29 -7 -21 12 28 64 32 35 57 52 82 56
19 4 46 13 60 20 29 15 67 3 123 -37z"/>
<path d="M3060 3228 c-84 -37 -210 -103 -210 -110 0 -14 19 -9 93 27 52 26 64
29 42 13 -131 -100 -125 -123 16 -69 84 33 239 81 239 76 0 -2 -21 -16 -47
-31 -140 -79 -183 -106 -183 -116 0 -14 46 -6 164 31 55 17 101 29 103 27 2
-2 -39 -31 -91 -65 -52 -34 -98 -66 -101 -71 -14 -23 22 -17 116 20 56 23 104
39 106 36 2 -2 -25 -21 -62 -41 -86 -49 -73 -61 36 -36 46 11 111 22 144 26
33 4 69 9 80 12 35 9 3 -13 -45 -31 -99 -38 -160 -69 -160 -82 0 -18 -5 -18
119 6 57 11 106 18 109 16 6 -6 -126 -90 -194 -124 -83 -40 -71 -51 37 -33 98
17 175 23 164 13 -13 -12 -242 -109 -277 -117 -16 -4 -28 -12 -28 -17 0 -19
68 0 183 50 62 27 134 59 160 71 77 33 53 45 -76 38 l-110 -6 59 37 c32 21 80
51 106 67 48 31 62 55 31 54 -10 0 -53 -6 -95 -13 -43 -7 -76 -10 -73 -8 2 3
44 22 92 42 122 53 121 65 -3 56 -55 -3 -128 -12 -164 -20 -61 -13 -63 -13
-42 3 52 36 87 70 79 77 -4 4 -40 -2 -80 -13 -39 -12 -73 -21 -74 -19 -1 1 34
24 77 51 44 28 80 56 80 63 0 6 -3 12 -7 12 -7 0 -151 -37 -218 -56 -11 -3 35
27 103 67 113 68 139 89 111 89 -20 0 -312 -91 -358 -111 -24 -11 -46 -18 -48
-16 -2 3 30 30 72 61 42 31 73 61 70 66 -7 12 -13 12 -45 -2z"/>
<path d="M2155 3153 c-72 -87 -166 -272 -171 -339 l-4 -49 23 65 c40 110 150
311 163 297 2 -2 -6 -26 -17 -53 -30 -66 -60 -187 -50 -197 4 -4 20 10 35 32
15 22 55 63 88 92 l60 52 -32 -57 c-53 -94 -26 -88 90 21 108 103 117 102 59
-6 -31 -59 -35 -71 -19 -71 11 0 100 175 100 196 0 30 -24 22 -77 -28 -32 -29
-73 -66 -92 -83 l-34 -30 27 46 c56 97 22 93 -89 -13 -76 -72 -85 -78 -79 -52
11 48 44 126 75 181 33 61 34 63 14 63 -8 0 -40 -30 -70 -67z"/>
<path d="M1516 3132 c-3 -5 -6 -25 -8 -45 -2 -42 -8 -45 -33 -17 -23 25 -45
26 -45 1 0 -33 23 -121 32 -121 11 0 10 27 -1 68 -12 40 -7 40 26 2 13 -17 29
-28 34 -24 5 3 9 29 9 57 l1 52 37 -42 c21 -24 41 -43 44 -43 4 0 8 19 10 43
l3 42 22 -48 c21 -46 43 -55 43 -19 0 9 9 32 21 51 11 18 18 36 15 39 -8 7
-34 -17 -41 -39 -9 -27 -19 -24 -32 12 -15 38 -46 36 -53 -4 l-5 -27 -28 35
c-28 35 -41 42 -51 27z"/>
<path d="M1872 2851 l4 -149 -33 106 c-18 59 -32 110 -33 115 0 4 -4 7 -10 7
-12 0 -12 -177 0 -260 6 -48 7 -42 9 55 2 109 3 110 17 70 8 -22 24 -85 35
-140 19 -96 31 -126 45 -112 3 3 1 65 -5 138 -6 72 -11 155 -10 183 l1 51 14
-45 c8 -25 21 -88 30 -140 14 -87 34 -143 34 -95 0 89 -70 365 -92 365 -7 0
-9 -46 -6 -149z"/>
<path d="M1320 2806 c0 -18 45 -137 71 -188 24 -47 20 -61 -6 -21 -29 45 -137
153 -146 147 -10 -6 23 -74 81 -170 22 -35 36 -64 31 -64 -5 0 -14 7 -21 15
-7 8 -53 40 -104 71 -50 32 -98 63 -107 71 -36 30 -40 6 -4 -32 61 -67 228
-268 215 -260 -8 5 -66 42 -128 82 -62 40 -117 73 -122 73 -26 0 0 -33 115
-149 136 -137 173 -147 47 -13 -43 45 -72 80 -65 78 19 -8 128 -82 195 -133
66 -50 86 -41 36 17 -18 21 -67 78 -110 127 -132 152 -132 152 -58 105 35 -22
85 -59 112 -82 33 -28 48 -36 48 -25 0 17 -41 101 -86 175 -25 42 -26 44 -5
25 13 -11 50 -57 83 -102 33 -46 64 -83 69 -83 17 0 9 28 -40 131 -27 57 -52
115 -55 129 l-7 25 20 -25 c23 -28 97 -136 130 -190 30 -50 26 -13 -5 46 -31
58 -162 234 -175 234 -5 0 -9 -6 -9 -14z"/>
<path d="M3868 2792 c-57 -7 -88 -21 -52 -23 10 -1 63 -1 118 1 54 1 96 -2 93
-6 -3 -5 -35 -20 -71 -34 -36 -13 -66 -30 -66 -36 0 -13 32 -24 71 -24 15 0
43 -7 64 -16 l38 -15 -52 -24 c-62 -29 -69 -55 -13 -55 35 0 72 -14 62 -23 -3
-3 -20 -12 -37 -21 -31 -16 -44 -36 -23 -36 5 0 30 10 55 22 53 26 55 44 8 67
-18 9 -33 19 -33 23 0 3 16 12 35 18 19 6 35 17 35 24 0 12 -69 48 -120 62
-23 6 -19 9 32 28 70 26 84 38 65 54 -17 15 -135 22 -209 14z"/>
<path d="M2824 2678 c-16 -12 -54 -45 -84 -73 -30 -28 -68 -61 -84 -73 -16
-12 -26 -25 -23 -28 8 -8 92 54 136 100 19 20 39 36 43 36 11 0 -64 -107 -114
-165 -21 -24 -38 -46 -38 -49 0 -11 41 -6 70 9 31 16 210 67 210 59 0 -2 -54
-31 -120 -64 -66 -33 -120 -65 -120 -70 0 -6 50 -10 128 -10 138 -1 148 -12
26 -30 -80 -11 -164 -38 -164 -52 0 -13 70 -42 170 -71 l85 -25 -87 -7 c-49
-4 -88 -11 -88 -15 0 -5 42 -18 93 -29 129 -30 136 -38 39 -46 -126 -11 -103
-29 26 -21 59 4 109 10 111 12 14 14 -82 60 -137 66 -9 1 18 4 61 7 128 10
115 18 -148 96 -107 32 -102 38 48 65 112 19 182 44 172 60 -4 6 -61 10 -143
10 l-137 1 120 62 c144 75 179 97 168 108 -7 7 -260 -56 -308 -76 -15 -7 -11
3 17 41 19 27 54 76 77 108 57 82 55 109 -5 64z"/>
<path d="M3630 2559 c-111 -10 -196 -28 -217 -46 -17 -13 -16 -14 7 -9 61 14
256 38 248 31 -3 -3 -35 -15 -72 -28 -37 -12 -68 -27 -69 -32 -1 -6 44 -13
103 -16 166 -11 172 -19 43 -58 -158 -48 -178 -56 -178 -69 0 -9 45 -13 170
-16 94 -2 185 -7 204 -11 26 -6 33 -5 29 6 -6 18 -105 38 -198 40 l-75 1 100
34 c55 18 108 33 117 34 18 0 34 18 25 27 -9 9 -201 43 -214 38 -7 -2 -13 -1
-13 4 0 4 37 19 82 33 141 44 110 56 -92 37z"/>
<path d="M3992 2403 c-21 -8 -3 -23 29 -23 43 0 122 -21 112 -30 -4 -4 -41
-17 -80 -29 -91 -27 -96 -46 -15 -55 56 -7 133 -34 100 -35 -30 -2 -150 -61
-146 -72 2 -6 30 -20 62 -30 92 -28 92 -39 2 -39 -49 0 -75 -4 -71 -10 3 -5
32 -10 64 -10 32 0 79 -6 104 -14 43 -13 57 -12 57 4 0 16 -96 81 -134 91
l-41 12 41 17 c22 10 59 21 82 25 23 4 44 10 47 15 9 15 -44 48 -97 60 l-51
13 62 22 c34 13 65 26 68 29 14 14 -24 36 -87 50 -72 17 -86 18 -108 9z"/>
<path d="M3470 2242 c0 -5 30 -15 68 -21 37 -7 96 -22 132 -34 l65 -22 -135
-6 c-141 -6 -170 -12 -170 -35 0 -8 8 -14 18 -14 24 0 174 -54 199 -71 18 -12
8 -14 -89 -11 -146 5 -163 -13 -21 -21 59 -4 135 -13 167 -22 32 -9 61 -13 63
-11 17 16 -90 87 -192 128 l-70 28 168 -2 c108 -2 166 1 164 7 -4 14 -101 61
-175 85 -76 24 -192 37 -192 22z"/>
<path d="M3285 1991 c-3 -6 11 -13 32 -16 112 -19 255 -69 307 -108 17 -12 9
-13 -65 -10 -46 3 -112 11 -146 19 -126 28 -125 -12 2 -65 104 -44 200 -101
171 -101 -11 0 -62 8 -113 17 -71 12 -96 14 -105 5 -17 -17 -3 -28 99 -79 48
-24 79 -41 68 -38 -357 85 -355 84 -355 60 0 -10 25 -27 63 -44 59 -27 224
-157 213 -168 -2 -3 -28 11 -58 31 -52 35 -98 47 -98 25 0 -6 11 -25 25 -41
14 -17 33 -44 41 -62 13 -26 6 -21 -45 28 -33 33 -63 58 -65 55 -6 -6 192
-229 204 -229 19 0 8 26 -49 120 -32 52 -57 97 -55 99 1 1 18 -8 36 -22 69
-51 128 -71 128 -43 0 18 -156 173 -193 193 -16 8 -27 17 -24 19 3 3 82 -14
177 -36 94 -23 174 -39 177 -36 13 13 -28 42 -124 88 -57 27 -103 51 -103 52
0 1 46 -6 103 -16 135 -25 139 -25 144 -11 5 15 -109 96 -188 133 l-64 29 75
-5 c121 -8 177 -14 194 -20 24 -9 20 19 -6 43 -84 77 -377 175 -403 134z"/>
<path d="M3892 1940 c2 -8 33 -13 83 -16 47 -2 95 -10 118 -20 54 -25 29 -36
-63 -29 -74 6 -116 -5 -95 -23 6 -5 36 -19 68 -32 60 -23 73 -41 16 -21 -37
13 -79 15 -79 3 0 -5 28 -29 63 -54 73 -54 143 -125 112 -113 -125 47 -195 62
-221 47 -15 -8 -14 -12 12 -28 16 -9 48 -36 71 -58 24 -22 46 -36 50 -32 4 4
-13 27 -39 52 -26 24 -41 44 -34 44 31 0 125 -34 167 -61 55 -35 59 -35 59 -8
0 13 -30 51 -79 101 -44 43 -72 77 -63 74 9 -3 36 -10 60 -17 30 -9 46 -9 53
-2 12 12 -16 35 -91 74 l-45 24 83 3 c72 2 83 5 80 20 -2 9 -25 30 -52 47 -44
27 -59 30 -144 34 -70 2 -93 0 -90 -9z"/>
<path d="M3800 1501 c0 -5 32 -32 70 -61 39 -29 70 -54 70 -56 0 -2 -17 3 -37
12 -21 9 -53 19 -70 22 -41 5 -43 -12 -10 -66 13 -20 30 -48 37 -61 l12 -24
-28 20 c-35 24 -103 48 -112 39 -3 -4 0 -17 8 -29 7 -12 25 -42 38 -67 l25
-45 -43 40 c-23 22 -41 35 -39 29 8 -25 130 -164 139 -159 5 3 -12 47 -38 98
-26 51 -48 96 -51 100 -5 12 57 -21 96 -51 52 -39 53 -6 4 77 -23 38 -41 72
-41 74 0 3 26 -6 58 -18 96 -38 102 -39 102 -16 0 14 -21 37 -60 68 -33 25
-60 47 -60 48 0 1 23 -4 52 -11 61 -16 108 -18 108 -4 0 5 -17 12 -37 15 -21
3 -63 13 -94 21 -63 16 -99 18 -99 5z"/>
</g>
</svg>
