<?xml version="1.0" standalone="no"?>
<!DOCTYPE svg PUBLIC "-//W3C//DTD SVG 20010904//EN"
 "http://www.w3.org/TR/2001/REC-SVG-20010904/DTD/svg10.dtd">
<svg version="1.0" xmlns="http://www.w3.org/2000/svg"
 width="1024.000000pt" height="768.000000pt" viewBox="0 0 1024.000000 768.000000"
 preserveAspectRatio="xMidYMid meet">
<metadata>
Created by potrace 1.16, written by Peter Selinger 2001-2019
</metadata>
<g transform="translate(0.000000,768.000000) scale(0.100000,-0.100000)"
fill="#000000" stroke="none">
<path d="M2789 7563 c-73 -81 -120 -173 -159 -308 l-17 -60 -149 0 c-157 0
-190 -7 -178 -34 20 -48 28 -46 -180 -44 -170 2 -200 5 -233 22 -68 34 -146
52 -255 58 -140 8 -143 6 -135 -102 7 -94 29 -183 68 -279 l28 -69 -24 -32
c-65 -85 -118 -226 -102 -270 5 -12 13 -11 50 5 45 20 167 42 167 31 0 -4 -21
-30 -46 -59 -69 -78 -208 -266 -237 -320 -30 -56 -45 -122 -28 -122 7 0 26 7
43 16 27 14 30 14 25 1 -3 -8 -11 -43 -18 -76 -11 -56 -9 -71 16 -176 15 -65
32 -115 39 -115 6 0 27 30 45 67 18 36 56 103 84 147 l52 81 6 -110 c8 -149
31 -198 160 -343 130 -145 192 -281 193 -417 0 -70 -4 -87 -31 -140 -108 -211
-94 -375 46 -514 87 -87 228 -151 332 -151 37 0 214 41 258 60 21 9 27 6 57
-28 43 -51 80 -65 153 -60 73 5 130 40 171 104 35 55 70 184 79 284 l6 75 60
32 c33 18 65 33 70 33 14 0 209 -293 235 -353 24 -54 27 -114 11 -222 -15 -98
-13 -226 4 -399 18 -182 14 -204 -59 -274 -99 -96 -354 -307 -407 -338 -30
-17 -112 -62 -184 -100 -138 -74 -199 -126 -372 -320 -55 -62 -109 -107 -230
-190 -87 -60 -201 -143 -253 -184 -133 -105 -228 -175 -352 -259 -83 -57 -111
-81 -128 -114 -11 -23 -31 -57 -44 -74 -53 -73 -38 -149 41 -209 57 -43 134
-71 278 -101 107 -23 136 -25 265 -19 270 10 493 65 650 158 l55 33 5 95 c4
77 1 105 -13 145 -11 28 -21 85 -24 128 -6 74 -4 81 30 150 64 129 223 292
335 344 43 20 77 26 190 33 175 11 300 38 515 112 48 16 93 28 100 25 19 -7
66 -169 77 -263 5 -50 5 -119 -1 -180 -20 -219 -52 -335 -145 -539 -40 -88
-89 -216 -109 -285 -20 -69 -56 -167 -81 -218 -48 -100 -54 -106 -333 -377
-67 -66 -151 -158 -186 -204 -75 -100 -169 -274 -162 -301 3 -11 -2 -25 -11
-32 -54 -45 -85 -122 -63 -157 15 -24 339 -79 601 -102 256 -22 526 4 574 56
21 23 46 114 46 168 0 15 9 44 20 64 28 52 25 87 -16 254 -19 79 -38 178 -41
219 -7 108 25 251 98 436 39 99 69 197 89 287 16 75 34 146 40 159 7 13 72 82
145 153 216 212 386 452 575 810 l53 101 176 28 c349 55 566 127 751 251 98
65 248 202 326 298 l39 48 67 -84 c85 -109 180 -187 293 -242 126 -61 179 -69
411 -62 l194 6 0 -116 c0 -405 147 -721 372 -800 43 -16 53 -25 79 -73 29 -54
139 -187 186 -223 12 -10 40 -21 60 -24 29 -5 49 -18 85 -58 26 -29 71 -65
101 -80 l55 -29 33 28 c59 48 169 178 235 277 120 180 171 323 181 504 l6 111
-48 45 c-45 43 -57 49 -182 83 -271 73 -348 123 -426 274 -80 156 -121 291
-157 527 -37 235 -74 315 -164 356 -48 22 -93 23 -199 7 -69 -10 -80 -10 -94
5 -24 24 -27 112 -9 267 43 361 33 479 -60 667 -70 143 -193 328 -278 419
l-66 72 49 45 c64 60 141 98 212 104 101 10 116 2 251 -118 173 -155 279 -221
368 -231 39 -5 30 14 -29 63 -51 42 -117 137 -109 159 1 5 23 -6 47 -25 57
-45 133 -81 229 -107 65 -18 105 -21 252 -21 191 0 263 9 268 34 2 13 -10 17
-59 22 -91 8 -193 62 -262 137 -45 50 -117 160 -104 160 2 0 35 -11 73 -24
276 -97 528 -105 689 -24 89 45 203 172 171 190 -8 4 -30 1 -51 -8 -21 -8 -57
-14 -83 -12 l-47 3 55 35 c97 62 223 174 282 251 105 137 142 260 120 392 -20
113 -118 278 -157 264 -12 -5 -15 -13 -10 -25 20 -48 35 -123 35 -178 0 -140
-98 -232 -284 -265 -44 -7 -131 -10 -245 -6 -195 5 -364 31 -606 92 -192 48
-285 59 -445 52 -192 -8 -311 -46 -443 -141 -180 -127 -315 -363 -358 -622
-11 -60 -16 -74 -29 -70 -261 83 -356 100 -535 93 -133 -5 -202 -19 -307 -61
-87 -35 -153 -78 -318 -208 -156 -121 -227 -167 -301 -194 -61 -22 -148 -35
-185 -28 l-31 6 -6 126 c-7 178 -51 324 -114 384 l-23 21 0 -32 c0 -34 -25
-91 -39 -91 -5 0 -12 48 -16 108 -9 160 -21 208 -61 251 l-33 36 -1 -47 c0
-26 -5 -59 -12 -75 -10 -25 -13 -13 -24 103 -13 145 -32 202 -101 298 -52 73
-145 176 -153 171 -4 -3 -9 -40 -12 -83 -3 -52 -11 -92 -24 -117 -37 -71 -44
-58 -44 87 0 194 -31 348 -71 348 -17 0 -19 -8 -19 -64 0 -60 -14 -125 -25
-114 -3 3 -14 47 -25 99 -35 161 -99 264 -251 401 -84 75 -115 83 -98 25 10
-37 12 -111 3 -120 -4 -4 -20 14 -37 40 -37 55 -216 207 -290 245 -84 44 -87
42 -87 -57 0 -47 -2 -85 -4 -85 -3 0 -28 23 -56 50 -89 87 -243 180 -297 180
-17 0 -24 7 -28 28 -16 75 -58 188 -88 235 -53 82 -162 167 -215 167 -11 0
-35 -17 -53 -37z m112 -21 c98 -63 164 -162 198 -295 23 -90 45 -334 36 -397
-11 -76 -62 -222 -99 -282 -27 -45 -31 -59 -21 -68 9 -8 16 -4 27 12 41 62 82
161 104 247 13 52 26 96 27 98 6 6 112 -34 177 -67 243 -123 479 -354 819
-803 57 -75 167 -215 245 -309 78 -95 179 -222 225 -283 47 -60 120 -145 163
-187 129 -128 269 -181 413 -158 134 21 211 63 425 230 69 54 150 115 180 134
70 46 192 94 288 112 205 39 489 -6 712 -113 83 -40 107 -58 191 -142 139
-140 287 -375 344 -545 38 -115 42 -211 15 -471 -26 -255 -24 -314 11 -351 22
-24 29 -25 79 -20 182 20 186 20 230 -5 76 -43 104 -112 145 -362 40 -246 108
-447 190 -571 47 -71 83 -101 171 -143 68 -32 259 -92 297 -93 23 0 22 -1 -17
-62 -44 -70 -141 -263 -205 -413 -109 -251 -177 -336 -269 -335 -42 1 -68 20
-148 110 -85 95 -136 191 -160 297 -10 44 -18 167 -24 348 -13 388 -27 470
-92 538 -36 39 -39 39 -95 35 -43 -3 -81 -15 -144 -47 l-86 -43 -176 -5 c-248
-8 -344 15 -490 121 -90 65 -247 235 -247 268 0 5 11 24 25 42 64 85 122 262
146 448 16 127 17 413 2 413 -9 0 -13 -46 -17 -165 -5 -187 -26 -342 -62 -466
-26 -93 -73 -192 -99 -214 -9 -8 -33 -38 -51 -68 -48 -75 -203 -232 -299 -304
-147 -110 -334 -190 -567 -242 -127 -29 -369 -68 -376 -61 -2 2 12 42 31 89
28 67 33 86 22 90 -17 6 -12 15 -70 -122 -90 -216 -252 -496 -404 -700 -60
-82 -145 -177 -236 -267 -78 -77 -150 -155 -159 -173 -10 -19 -30 -94 -46
-167 -18 -82 -50 -188 -83 -272 -82 -210 -101 -287 -101 -423 -1 -101 4 -133
38 -271 41 -168 43 -211 6 -244 -36 -33 -118 -46 -330 -52 -213 -6 -295 0
-485 37 -55 11 -138 24 -185 30 -47 7 -86 13 -88 15 -8 7 70 146 123 220 83
116 169 209 310 335 68 61 142 136 165 166 59 78 113 199 155 344 20 69 65
186 100 261 77 164 97 223 124 355 55 269 45 469 -33 661 -30 73 -47 223 -35
304 5 30 10 63 11 73 2 10 -2 21 -9 23 -18 6 -35 -62 -36 -143 -1 -41 -5 -74
-8 -74 -12 0 -149 152 -195 216 -88 124 -141 274 -131 374 4 30 0 118 -8 195
-18 177 -18 273 -1 406 16 117 10 172 -25 241 -26 52 -116 192 -169 264 -22
29 -40 57 -40 62 0 5 19 18 42 28 178 80 317 231 374 408 22 67 28 105 32 219
5 162 -12 274 -65 437 -44 131 -69 181 -87 174 -11 -4 -7 -21 18 -82 70 -168
103 -321 105 -490 3 -215 -50 -354 -189 -492 -91 -91 -156 -132 -306 -189
-109 -42 -130 -66 -136 -156 -8 -102 -45 -229 -82 -278 -48 -62 -78 -80 -145
-85 -56 -4 -60 -3 -100 33 -22 21 -41 45 -41 54 1 10 6 6 16 -11 12 -23 21
-28 54 -28 33 0 43 6 66 35 38 51 48 105 30 175 -15 57 -15 59 18 150 31 86
36 94 70 108 20 8 36 18 36 22 0 17 -20 21 -42 9 -12 -6 -44 -14 -72 -18 -55
-6 -69 -24 -23 -29 15 -2 27 -7 27 -10 0 -16 -63 -171 -93 -227 -44 -83 -133
-171 -189 -185 -24 -6 -65 -18 -93 -25 -166 -47 -300 -9 -433 122 -130 128
-143 246 -49 448 40 86 42 94 41 180 -2 155 -55 271 -200 440 -97 113 -120
148 -139 210 -16 56 -19 173 -5 250 6 28 12 66 14 85 3 20 17 69 32 110 64
180 136 282 279 399 97 80 184 137 268 177 74 35 294 98 301 86 2 -4 7 -28 10
-54 14 -96 110 -248 138 -220 9 9 5 19 -19 44 -74 77 -109 212 -98 378 12 182
44 317 107 445 35 70 105 165 122 165 7 0 32 -13 57 -28z m-1203 -382 c66 -11
172 -47 172 -58 -1 -4 -15 -16 -32 -27 -49 -31 -45 -42 18 -50 103 -13 104
-16 28 -61 -131 -77 -239 -146 -261 -166 l-22 -20 -16 38 c-45 107 -86 301
-72 339 8 18 88 20 185 5z m898 -3 c3 -3 -1 -73 -8 -157 l-13 -152 -114 -29
c-175 -44 -291 -104 -461 -239 -106 -85 -177 -171 -239 -290 -36 -68 -91 -226
-91 -260 0 -7 -30 -59 -67 -114 -37 -56 -82 -127 -99 -160 l-32 -59 -15 54
c-28 96 -29 122 -11 190 22 83 33 149 24 149 -4 0 -15 -9 -26 -21 -10 -11 -27
-25 -36 -30 -54 -29 72 159 239 358 29 34 59 76 68 94 l17 31 -74 -7 c-40 -4
-95 -13 -123 -20 -27 -8 -51 -12 -53 -11 -6 7 32 103 60 154 49 86 119 154
224 218 168 102 208 124 254 138 l45 13 -55 17 c-30 9 -74 19 -98 23 -49 7
-46 14 15 33 32 10 89 12 233 7 104 -3 190 -3 190 -1 0 3 -6 20 -14 39 -13 30
-13 34 2 39 20 6 251 0 258 -7z m649 -46 c109 -51 242 -166 266 -228 l10 -26
16 23 c11 16 18 52 21 107 3 46 6 83 9 83 33 0 230 -154 298 -233 19 -22 45
-67 57 -99 31 -87 44 -76 53 47 4 58 10 105 15 105 16 0 180 -181 209 -231 18
-32 41 -98 56 -164 28 -121 43 -165 55 -165 13 0 49 65 57 100 6 33 6 33 16 9
6 -13 12 -111 15 -216 2 -106 8 -193 13 -193 13 0 78 60 91 83 6 11 16 51 22
89 l12 69 54 -66 c115 -138 137 -198 147 -404 l8 -144 33 34 c18 18 38 51 44
72 11 37 12 38 21 16 4 -13 13 -76 18 -139 5 -63 12 -142 15 -175 l7 -59 40
44 c22 25 43 54 47 65 6 17 10 15 27 -20 34 -66 54 -164 60 -287 7 -137 10
-135 -88 -86 -78 38 -211 168 -316 308 -40 52 -138 176 -219 275 -81 99 -186
232 -234 295 -223 295 -368 462 -514 592 -163 144 -322 244 -455 284 l-59 17
-7 96 c-3 53 -9 108 -11 124 -7 36 13 36 91 -2z m5990 -611 c129 -255 13 -501
-352 -748 l-115 -77 39 -8 c21 -4 68 -7 106 -5 37 2 67 0 67 -4 0 -15 -96 -89
-144 -112 -153 -71 -369 -65 -611 18 -55 19 -117 41 -137 50 -47 20 -48 12 -9
-71 67 -140 177 -244 301 -285 34 -12 -71 -20 -174 -15 -205 11 -362 71 -456
173 -44 49 -49 52 -55 34 -15 -47 21 -157 68 -207 11 -13 18 -25 15 -28 -10
-11 -127 76 -241 177 -147 133 -165 142 -271 136 -99 -5 -169 -37 -248 -110
-47 -44 -55 -48 -73 -37 -11 7 -44 26 -74 42 l-53 30 6 52 c11 93 55 228 113
345 51 103 67 125 152 211 79 78 111 103 181 137 133 65 241 85 425 79 98 -4
178 -12 230 -25 391 -96 498 -113 727 -119 262 -7 380 17 472 98 66 59 89 122
84 231 -2 48 -3 88 -1 88 1 0 14 -23 28 -50z m-5757 -3055 c32 -129 135 -289
279 -432 76 -74 83 -85 83 -121 l0 -39 -147 -46 c-219 -69 -303 -87 -461 -97
-198 -12 -237 -31 -387 -183 -140 -142 -186 -222 -193 -337 -3 -51 1 -92 12
-129 9 -30 16 -58 16 -63 0 -19 -273 -110 -423 -140 -299 -60 -740 5 -755 110
-5 32 5 42 147 139 69 47 203 145 296 218 94 72 226 169 295 216 158 106 173
120 285 255 110 131 141 155 350 269 185 101 206 116 420 303 88 77 162 137
166 134 3 -4 11 -29 17 -57z m4075 -272 c60 -64 76 -156 87 -528 5 -184 13
-294 24 -344 9 -41 14 -76 11 -79 -13 -13 -96 39 -150 93 -136 136 -215 390
-215 694 l0 122 72 34 c90 44 134 45 171 8z m1087 -625 c0 -236 -129 -500
-363 -745 l-59 -62 -37 19 c-20 10 -56 39 -81 65 -41 42 -43 47 -27 56 79 45
125 114 231 352 106 234 182 382 219 424 l29 33 44 -36 44 -36 0 -70z m-5972
-752 c-36 -30 -157 -83 -254 -111 -202 -59 -457 -79 -620 -50 -204 36 -325 90
-358 159 -18 39 -12 79 19 120 13 17 15 17 47 -7 39 -30 121 -58 238 -84 127
-27 377 -24 530 6 105 20 291 77 380 115 l35 14 3 -71 c3 -65 1 -74 -20 -91z
m552 -1399 c170 -31 183 -32 440 -31 199 2 278 6 318 17 l53 14 -7 -64 c-8
-81 -29 -105 -109 -129 -82 -25 -431 -25 -620 -1 -172 23 -418 67 -429 77 -14
14 12 65 58 115 49 52 20 51 296 2z"/>
<path d="M2810 7421 c-137 -215 -141 -496 -11 -766 27 -55 55 -108 63 -118 13
-17 16 -15 40 30 15 27 37 84 49 128 30 106 33 317 6 445 -22 102 -81 288
-100 314 -12 17 -16 14 -47 -33z m69 -113 c82 -257 91 -464 28 -646 -12 -36
-27 -67 -33 -69 -11 -4 -72 120 -97 197 -44 135 -54 306 -24 419 20 72 73 191
87 191 5 0 22 -42 39 -92z"/>
<path d="M2787 5970 c-127 -38 -188 -215 -121 -349 45 -90 143 -136 235 -111
60 16 133 90 149 150 19 72 9 160 -25 216 -49 81 -150 120 -238 94z m25 -118
c36 -31 35 -115 -2 -152 -49 -49 -120 -5 -120 74 0 85 66 127 122 78z"/>
<path d="M2460 4770 c-14 -14 -20 -33 -20 -65 0 -80 74 -116 119 -59 61 78
-30 193 -99 124z"/>
</g>
</svg>
