<?xml version="1.0" standalone="no"?>
<!DOCTYPE svg PUBLIC "-//W3C//DTD SVG 20010904//EN"
 "http://www.w3.org/TR/2001/REC-SVG-20010904/DTD/svg10.dtd">
<svg version="1.0" xmlns="http://www.w3.org/2000/svg"
 width="500.000000pt" height="257.000000pt" viewBox="0 0 500.000000 257.000000"
 preserveAspectRatio="xMidYMid meet">
<metadata>
Created by potrace 1.16, written by Peter Selinger 2001-2019
</metadata>
<g transform="translate(0.000000,257.000000) scale(0.100000,-0.100000)"
fill="#000000" stroke="none">
<path d="M2180 2384 c-148 -26 -228 -53 -297 -100 -20 -13 -46 -24 -58 -24
-34 0 -112 -37 -201 -96 -82 -54 -286 -254 -298 -292 -4 -11 -18 -28 -32 -37
-32 -21 -123 -205 -159 -324 -14 -47 -37 -115 -50 -151 -13 -36 -28 -82 -33
-102 -13 -47 -41 -88 -105 -155 -43 -44 -49 -56 -44 -81 5 -27 2 -32 -41 -55
-91 -49 -238 -106 -337 -131 -132 -33 -323 -66 -379 -66 -25 0 -47 -4 -50 -8
-10 -16 183 -82 286 -98 117 -18 312 -13 449 11 79 13 183 55 240 96 l29 21
33 -28 c38 -32 128 -74 160 -74 12 0 27 -8 34 -19 10 -16 7 -23 -19 -47 -17
-16 -48 -51 -69 -77 -33 -41 -39 -56 -39 -96 0 -66 30 -109 95 -134 145 -56
180 -74 219 -114 23 -24 44 -43 49 -43 4 0 7 18 7 40 0 22 2 40 5 40 20 0 87
-45 105 -70 12 -16 26 -30 31 -30 14 0 11 58 -6 90 -10 19 -11 30 -5 30 21 0
59 -48 70 -89 12 -47 31 -53 48 -16 29 64 13 112 -65 191 l-59 60 65 12 c37 7
81 18 98 24 28 10 38 9 73 -11 59 -33 225 -41 296 -14 41 16 67 19 132 15 93
-5 149 6 238 49 34 16 77 29 95 29 45 0 161 42 219 78 26 16 67 32 92 36 25 4
77 20 114 36 38 16 74 30 79 30 11 0 81 -103 115 -170 15 -30 25 -71 29 -128
6 -71 10 -87 29 -103 29 -23 125 -59 157 -59 17 0 32 -11 47 -35 13 -19 26
-35 31 -35 4 0 7 20 7 45 0 25 4 45 8 45 14 0 50 -43 61 -73 15 -40 31 -24 31
31 l1 47 45 -49 c51 -55 66 -53 68 12 1 53 -23 84 -98 132 -35 22 -72 52 -81
66 -9 14 -28 78 -41 141 -14 64 -28 121 -31 127 -4 6 14 -8 41 -31 36 -32 59
-43 94 -48 26 -3 69 -10 95 -16 52 -10 79 -2 96 28 8 16 13 16 46 4 43 -15 50
-11 41 23 -6 25 -102 96 -129 96 -7 0 -21 14 -30 30 -10 17 -36 52 -58 78 -22
26 -55 66 -74 89 -41 49 -42 53 -12 53 38 0 137 36 249 90 121 59 158 83 390
251 95 69 213 150 261 180 162 100 226 174 227 260 0 21 13 59 30 90 36 65 38
109 8 144 -22 24 -30 26 -188 36 -231 15 -300 10 -384 -29 -100 -47 -182 -135
-290 -311 -107 -174 -138 -211 -176 -211 -74 0 -109 32 -253 230 -185 254
-314 390 -369 390 -10 0 -18 4 -18 9 0 21 -145 98 -302 162 -176 71 -254 90
-408 96 -41 2 -115 5 -165 7 -49 2 -101 2 -115 0z m199 -72 c39 -40 170 -297
178 -347 5 -36 -47 -126 -119 -206 -44 -47 -51 -51 -82 -46 -48 8 -290 104
-319 127 -13 10 -29 37 -36 59 -6 23 -34 91 -62 152 -27 61 -53 124 -56 140
-9 45 33 83 126 114 112 37 147 43 245 44 l89 1 36 -38z m160 22 c2 -2 -3 -12
-12 -22 -10 -10 -17 -24 -17 -30 0 -18 90 -215 105 -230 7 -8 44 -24 81 -37
38 -13 96 -35 129 -49 100 -42 127 -33 185 62 25 41 31 61 28 92 -2 22 -2 40
-1 40 2 0 21 -12 43 -26 58 -38 54 -60 -26 -147 -86 -93 -125 -126 -147 -127
-9 0 -68 16 -130 36 -212 68 -185 47 -247 186 -30 67 -70 147 -88 177 -30 50
-31 55 -16 72 13 15 26 17 63 12 25 -3 48 -7 50 -9z m120 -20 c3 -3 -1 -10 -7
-16 -7 -7 -12 -21 -12 -32 0 -21 62 -137 83 -154 21 -18 144 -62 172 -62 33 0
57 39 63 100 l4 49 28 -14 c21 -11 30 -25 35 -55 6 -34 2 -47 -30 -101 -49
-80 -68 -88 -142 -60 -32 13 -93 35 -136 50 -43 15 -84 34 -92 42 -23 23 -106
216 -100 232 10 24 47 37 90 30 22 -3 42 -7 44 -9z m147 -49 c65 -24 125 -52
132 -62 27 -36 -7 -143 -46 -143 -9 1 -48 13 -87 28 -62 24 -74 34 -107 82
-43 63 -55 104 -38 125 7 8 16 15 20 15 5 0 61 -20 126 -45z m-966 -60 c18 -9
33 -28 41 -52 6 -20 31 -80 55 -133 23 -53 47 -116 54 -139 11 -41 10 -45 -29
-109 -21 -37 -62 -99 -90 -139 -55 -78 -49 -75 -229 -130 -51 -16 -96 -27
-101 -23 -11 6 -72 94 -93 135 -95 178 -105 214 -74 273 24 46 176 185 256
233 113 69 164 98 173 99 4 0 21 -7 37 -15z m1358 -148 c9 -10 1 -24 -34 -58
-124 -119 -130 -154 -53 -322 115 -253 149 -324 175 -356 24 -30 30 -33 69
-28 54 6 132 43 139 65 3 10 22 42 42 72 20 30 44 77 53 104 l17 48 31 -36
c28 -31 31 -39 23 -68 -6 -17 -25 -48 -44 -67 -18 -20 -45 -55 -60 -78 -17
-28 -46 -54 -87 -78 -35 -20 -80 -52 -103 -71 -45 -38 -64 -42 -95 -16 -23 19
-308 604 -318 652 -5 26 0 36 28 63 19 18 67 67 107 110 73 78 91 88 110 64z
m94 -76 l28 -24 -38 -25 c-20 -14 -43 -32 -49 -40 -24 -30 -14 -89 31 -189 88
-192 110 -223 162 -223 46 0 67 25 93 110 l24 74 23 -29 c13 -17 24 -37 24
-45 0 -28 -30 -99 -63 -152 -19 -29 -37 -61 -40 -71 -7 -20 -80 -56 -130 -64
-47 -7 -75 29 -142 177 -31 69 -76 168 -101 220 -46 98 -54 146 -31 187 7 13
41 52 76 88 71 73 59 72 133 6z m1442 20 c96 -7 106 -18 88 -88 -17 -64 -57
-111 -125 -148 -70 -37 -74 -49 -7 -24 28 10 57 19 65 19 21 0 19 -27 -6 -66
-23 -38 -73 -76 -236 -181 -65 -41 -165 -112 -223 -158 -232 -182 -455 -300
-624 -330 l-39 -7 44 50 c24 27 51 62 59 78 8 16 32 48 53 72 52 59 80 125 81
192 1 30 4 57 7 60 3 3 29 40 58 82 47 70 54 76 72 65 25 -16 43 -4 91 59 40
52 47 87 23 121 -13 19 -12 24 21 66 43 56 125 113 196 139 46 16 71 18 188
12 74 -3 171 -9 214 -13z m-1984 -115 c90 -30 169 -61 176 -68 7 -7 51 -96 97
-198 47 -102 115 -248 151 -325 36 -77 66 -150 66 -161 0 -12 -8 -31 -17 -42
-37 -43 -129 -102 -183 -118 -30 -8 -102 -37 -160 -64 -59 -27 -128 -51 -157
-55 -46 -6 -55 -4 -76 17 -31 31 -63 128 -137 423 -33 132 -70 268 -81 303
-26 79 -21 101 39 167 26 28 63 79 82 113 19 34 36 62 36 62 1 0 75 -25 164
-54z m647 -18 c32 -40 76 -99 97 -130 l39 -58 -25 -82 c-29 -95 -55 -120 -105
-103 -23 8 -40 33 -95 145 -70 142 -84 184 -74 225 6 24 69 75 93 75 6 0 38
-33 70 -72z m-1217 -113 c74 -30 142 -55 152 -55 25 0 66 -55 83 -113 8 -28
42 -159 76 -292 33 -132 74 -282 90 -334 17 -52 29 -106 27 -120 -4 -36 -57
-61 -129 -61 -30 0 -91 -11 -135 -24 -70 -20 -96 -23 -227 -21 -136 3 -150 5
-171 24 -36 34 -52 132 -83 491 -26 319 -30 293 66 438 51 76 89 122 99 122 9
0 78 -25 152 -55z m-819 -22 c19 -45 64 -123 122 -213 24 -38 28 -52 23 -88
-15 -111 -132 -366 -184 -400 -17 -11 -46 -17 -89 -17 -82 0 -94 14 -123 133
-20 82 -21 99 -10 135 l12 42 24 -62 c37 -101 72 -153 100 -153 53 0 82 27
123 113 50 105 63 148 64 205 1 48 -25 100 -128 256 l-33 49 20 33 c17 29 23
32 40 23 10 -6 28 -31 39 -56z m-49 -98 c11 -22 39 -68 61 -103 37 -60 39 -67
34 -122 -7 -84 -80 -246 -121 -271 -17 -10 -39 -19 -48 -19 -40 0 -127 206
-108 256 l10 26 23 -32 c12 -18 34 -42 48 -53 31 -23 52 -14 88 39 18 26 22
43 18 68 -5 33 -80 157 -98 164 -14 5 -11 25 13 82 l21 52 19 -24 c10 -12 28
-41 40 -63z m-57 -115 c60 -94 63 -111 31 -160 -15 -23 -34 -40 -45 -40 -25 0
-91 75 -91 103 0 20 18 81 45 155 7 20 13 15 60 -58z m578 -82 c18 -262 38
-483 51 -558 8 -46 13 -87 10 -92 -6 -10 -104 -2 -177 14 -26 5 -77 30 -114
54 -37 24 -83 46 -102 50 -69 11 -98 25 -136 64 l-38 39 21 18 c34 30 127 223
158 331 16 55 32 98 35 96 7 -4 163 43 239 71 19 7 38 11 41 9 3 -2 9 -45 12
-96z m1979 12 c18 0 29 -7 33 -20 11 -34 -23 -125 -65 -179 -52 -66 -76 -67
-136 -7 -37 37 -44 50 -44 83 0 30 6 46 26 64 14 13 33 38 41 54 22 43 31 45
77 24 22 -10 53 -19 68 -19z m-204 -199 c18 -22 46 -48 62 -58 20 -11 30 -25
30 -41 0 -33 -82 -117 -145 -148 -50 -24 -55 -24 -82 -10 -48 24 -110 128 -98
165 3 9 26 30 52 47 27 17 66 43 88 57 22 14 45 26 51 26 6 1 25 -17 42 -38z
m-2520 -108 c6 -16 14 -41 18 -58 4 -16 12 -41 19 -55 15 -32 3 -79 -28 -108
l-24 -23 -49 33 c-55 38 -86 83 -77 116 7 28 23 29 23 1 0 -24 60 -89 83 -89
31 0 40 27 27 78 -16 57 -26 72 -51 72 -23 0 -24 5 -1 35 23 32 47 31 60 -2z
m2264 -20 c8 -10 19 -31 26 -46 7 -15 33 -50 58 -77 34 -36 44 -54 39 -69 -16
-51 -197 -143 -229 -117 -25 20 -96 135 -102 163 -4 24 1 32 38 58 24 16 52
40 62 53 16 21 67 50 87 52 3 0 12 -8 21 -17z m-1997 -170 c25 -26 45 -53 45
-62 0 -21 -80 -152 -97 -158 -42 -16 -156 56 -189 119 -14 27 -13 32 5 61 34
55 63 75 111 80 25 2 53 4 63 5 9 1 38 -19 62 -45z m2288 1 c63 -64 105 -126
89 -132 -65 -21 -48 -110 27 -142 37 -15 59 -8 70 22 8 22 9 22 30 -12 12 -19
20 -42 18 -50 -3 -18 -54 -18 -143 -1 -53 11 -70 21 -125 70 l-63 57 -16 86
c-12 61 -13 90 -6 100 12 14 57 47 68 47 3 1 26 -20 51 -45z m-2688 6 c3 -6
33 -28 65 -50 87 -59 91 -71 30 -110 -91 -58 -239 -91 -470 -105 -120 -7 -248
5 -317 29 -36 13 -37 14 -13 19 237 52 250 54 250 35 0 -22 37 -38 85 -38 54
0 85 16 85 44 0 16 -8 30 -21 37 -17 9 -19 13 -8 20 27 17 48 10 51 -18 2 -19
12 -32 31 -41 24 -12 35 -11 79 5 89 32 124 92 70 119 -24 12 -23 12 20 38 48
29 54 30 63 16z m2177 -27 c15 -16 41 -57 58 -92 l32 -63 -24 -25 c-32 -34
-154 -92 -210 -99 -38 -5 -49 -3 -63 13 -26 31 -68 134 -69 172 -1 31 3 37 44
58 62 32 150 62 181 63 15 0 36 -11 51 -27z m387 -123 c21 -150 70 -359 97
-412 8 -15 32 -38 54 -50 44 -26 47 -30 25 -52 -12 -12 -22 -13 -42 -5 -17 6
-30 6 -39 -2 -7 -6 -26 -10 -41 -8 -15 1 -36 -2 -46 -6 -26 -11 -102 13 -129
42 -18 20 -23 38 -26 98 -4 67 -2 74 17 80 31 10 37 48 12 89 -33 53 -47 61
-75 43 -23 -15 -24 -14 -65 44 -22 33 -41 64 -41 67 0 13 66 52 113 66 51 15
157 89 157 109 1 35 19 -28 29 -103z m-2660 89 c51 -18 34 -60 -36 -90 -51
-22 -93 -25 -111 -7 -18 18 -15 58 6 64 15 5 106 41 108 43 1 1 15 -4 33 -10z
m658 -20 c48 -18 142 -83 142 -99 1 -8 -15 -46 -34 -84 -19 -37 -35 -75 -35
-82 0 -39 -150 3 -215 59 -31 27 -37 38 -32 58 11 42 71 133 97 146 31 16 41
16 77 2z m1305 -66 c31 -35 68 -122 68 -162 0 -27 -6 -33 -74 -67 -54 -26 -92
-38 -139 -41 l-65 -6 -17 54 c-21 70 -29 132 -22 161 9 35 63 69 121 78 89 13
101 12 128 -17z m-939 -65 c38 -8 51 -16 59 -37 10 -27 4 -119 -13 -183 l-10
-38 -60 0 c-34 0 -85 7 -114 15 -63 19 -135 68 -135 93 0 25 48 123 73 150 20
22 28 23 87 18 36 -4 87 -12 113 -18z m654 0 c14 -18 46 -179 41 -209 -5 -36
-101 -72 -195 -73 -43 -1 -77 4 -84 11 -11 11 -38 153 -39 205 0 25 6 29 78
52 84 27 183 34 199 14z m-337 -37 c33 -9 59 -83 60 -168 0 -60 -1 -63 -32
-79 -36 -19 -165 -30 -222 -20 -54 10 -60 30 -45 154 7 59 18 110 23 114 14 9
182 9 216 -1z m-770 -97 c29 -14 75 -29 104 -33 38 -5 65 -17 101 -44 26 -20
66 -42 89 -47 74 -19 72 -23 -19 -41 -73 -15 -106 -17 -175 -10 -47 5 -98 14
-114 21 -40 15 -45 5 -7 -15 17 -9 71 -21 119 -26 67 -9 99 -18 140 -43 65
-37 81 -61 53 -76 -32 -17 -49 -12 -102 30 -65 52 -88 52 -29 1 44 -38 44 -40
25 -55 -11 -8 -27 -13 -35 -9 -8 3 -38 7 -66 8 -62 3 -94 18 -88 43 6 21 -27
53 -74 72 -30 12 -35 11 -57 -10 l-24 -22 -20 41 c-34 66 -29 87 45 169 36 39
69 72 74 72 5 0 32 -12 60 -26z"/>
<path d="M2126 2260 c-125 -24 -156 -36 -156 -64 0 -30 85 -266 102 -283 22
-21 254 -113 286 -113 22 0 36 9 54 33 34 44 58 92 58 116 0 32 -114 263 -147
299 -37 38 -52 39 -197 12z m203 -40 c15 -21 52 -91 80 -154 52 -114 52 -115
36 -152 -9 -21 -27 -53 -41 -72 -23 -30 -30 -33 -59 -28 -43 8 -246 93 -263
110 -14 14 -90 211 -99 257 -3 19 0 28 14 34 37 16 190 43 245 44 56 1 59 0
87 -39z"/>
<path d="M2114 2170 c-12 -5 -25 -13 -28 -19 -10 -16 33 -114 67 -149 36 -38
139 -92 174 -92 21 0 23 4 23 48 0 55 -56 184 -87 200 -27 14 -125 22 -149 12z
m132 -16 c44 -12 124 -234 84 -234 -19 0 -84 30 -132 62 -38 24 -54 44 -79 94
-16 35 -27 69 -24 74 7 11 116 14 151 4z"/>
<path d="M1689 2070 c-41 -27 -102 -71 -136 -97 -34 -27 -76 -57 -95 -68 -52
-32 -50 -75 7 -188 26 -50 59 -106 73 -125 25 -33 28 -34 77 -29 27 3 74 13
103 22 52 16 55 19 128 129 42 64 74 124 74 138 0 28 -105 249 -123 260 -21
14 -33 9 -108 -42z m164 -88 c32 -64 57 -124 57 -133 0 -9 -33 -65 -73 -125
-70 -104 -76 -110 -126 -126 -28 -9 -72 -20 -96 -23 -42 -7 -44 -6 -75 36 -55
74 -111 200 -108 239 3 30 9 38 43 53 22 11 72 45 110 76 119 97 177 133 201
124 6 -2 36 -57 67 -121z"/>
<path d="M1623 1912 c-108 -54 -110 -58 -59 -153 35 -66 50 -76 113 -78 25 -1
37 6 56 32 39 51 67 113 67 148 0 44 -36 99 -63 98 -12 0 -64 -21 -114 -47z
m147 6 c32 -53 25 -89 -33 -176 -28 -42 -30 -43 -79 -40 -49 3 -51 4 -79 53
-52 94 -53 94 53 147 51 26 99 47 106 47 7 1 21 -14 32 -31z"/>
<path d="M4262 1797 c-18 -19 -22 -35 -22 -85 0 -78 19 -102 83 -102 70 0 81
15 73 94 -10 99 -20 116 -71 116 -30 0 -47 -6 -63 -23z m106 -19 c6 -18 13
-57 16 -85 4 -45 2 -54 -14 -63 -28 -15 -72 -12 -98 6 -19 13 -22 24 -22 75 0
71 21 99 74 99 30 0 36 -4 44 -32z"/>
<path d="M4170 1601 c-49 -26 -52 -62 -10 -101 38 -35 54 -37 98 -10 44 27 44
68 1 104 -36 31 -44 32 -89 7z"/>
<path d="M2573 1782 c-54 -63 -83 -123 -83 -169 0 -120 163 -568 223 -615 31
-25 66 -22 177 12 129 40 187 66 205 93 19 30 5 83 -65 249 -85 200 -107 245
-163 332 -54 82 -55 83 -133 114 -44 18 -88 32 -100 32 -13 0 -37 -19 -61 -48z
m145 10 c88 -35 91 -38 146 -127 50 -79 74 -130 160 -331 65 -155 77 -206 51
-234 -18 -20 -136 -65 -248 -95 -96 -26 -108 -18 -163 101 -60 128 -110 267
-140 389 -29 121 -30 137 -4 189 25 51 97 136 115 136 8 0 45 -13 83 -28z"/>
<path d="M2634 1638 c-11 -21 -15 -47 -12 -78 7 -72 148 -373 192 -409 12 -10
25 -10 68 4 82 27 83 30 49 111 -140 332 -155 361 -202 385 -54 27 -76 24 -95
-13z m80 7 c45 -19 55 -35 118 -182 28 -65 64 -151 81 -190 20 -46 28 -76 22
-82 -6 -6 -31 -15 -57 -22 -42 -11 -49 -11 -66 5 -22 19 -106 186 -152 299
-34 85 -37 126 -14 162 19 29 21 30 68 10z"/>
<path d="M2023 1694 c-10 -14 -34 -45 -55 -69 -52 -63 -62 -101 -55 -219 6
-100 54 -358 83 -447 20 -64 47 -85 145 -114 l84 -26 95 26 c132 36 144 43
148 87 4 43 -27 176 -97 423 -53 184 -75 237 -113 271 -26 24 -177 94 -201 94
-9 0 -24 -12 -34 -26z m157 -37 c65 -29 101 -66 124 -125 34 -89 156 -553 156
-595 0 -35 -16 -45 -122 -74 -108 -30 -119 -30 -204 -3 -90 27 -99 34 -119 82
-26 65 -85 361 -92 464 -7 108 3 144 58 214 21 27 39 54 39 60 0 6 10 14 23
19 23 9 30 7 137 -42z"/>
<path d="M2057 1522 c-34 -34 -37 -43 -37 -92 0 -59 42 -321 60 -376 9 -25 26
-42 71 -69 55 -34 63 -36 114 -30 92 12 92 11 55 160 -42 173 -87 311 -116
362 -21 37 -77 83 -101 83 -5 0 -26 -17 -46 -38z m97 -3 c46 -36 85 -136 146
-373 35 -137 37 -163 13 -169 -82 -23 -116 -16 -189 39 -34 25 -33 21 -70 227
-32 182 -32 226 2 266 30 36 61 39 98 10z"/>
<path d="M1615 1413 c-22 -3 -44 -9 -50 -15 -7 -7 -4 -8 10 -4 43 12 136 9
150 -5 30 -29 90 -498 68 -520 -17 -17 -167 47 -188 81 -4 6 -31 22 -61 35
-71 31 -75 51 -39 163 35 108 66 227 56 216 -4 -5 -16 -38 -26 -74 -9 -36 -28
-96 -41 -135 -39 -115 -31 -152 38 -179 23 -10 55 -29 71 -42 45 -38 123 -74
165 -77 l37 -2 -3 125 c-2 118 -32 342 -52 395 -5 13 -18 29 -29 34 -20 11
-30 11 -106 4z"/>
<path d="M1638 1323 c-19 -5 -54 -101 -64 -176 -5 -38 -3 -51 11 -67 28 -31
113 -82 125 -75 15 9 13 298 -2 313 -12 12 -37 14 -70 5z m64 -58 c11 -84 9
-245 -3 -245 -6 0 -35 16 -66 37 l-55 36 7 46 c13 92 38 163 59 172 39 15 51
6 58 -46z"/>
<path d="M3713 1430 c-47 -29 -66 -56 -59 -85 8 -32 40 -65 64 -65 27 0 70 41
87 82 14 35 14 38 -6 57 -30 28 -54 31 -86 11z"/>
<path d="M3510 1203 c-74 -38 -79 -50 -46 -107 19 -33 33 -46 49 -46 29 0 127
66 127 86 0 34 -46 94 -73 94 -2 0 -28 -12 -57 -27z m103 -29 c10 -19 15 -40
12 -45 -11 -16 -93 -69 -109 -69 -16 0 -66 66 -66 87 0 17 88 62 121 63 19 0
29 -8 42 -36z"/>
<path d="M3271 1044 c-52 -44 -55 -58 -27 -119 17 -38 31 -55 43 -55 28 0 113
57 113 75 0 8 -14 40 -31 70 -35 63 -52 68 -98 29z m91 -40 c15 -27 27 -54 28
-60 0 -14 -72 -54 -99 -54 -16 0 -27 12 -42 47 l-20 48 41 38 c22 21 46 37 52
35 7 -3 25 -27 40 -54z"/>
<path d="M1189 921 c-37 -38 -37 -53 4 -91 49 -46 66 -48 99 -11 29 33 35 63
18 105 -8 22 -16 26 -51 26 -32 0 -47 -6 -70 -29z"/>
<path d="M3008 896 c-52 -19 -88 -44 -88 -61 0 -33 45 -106 69 -112 25 -6 113
19 139 39 19 16 14 51 -14 102 -28 51 -42 55 -106 32z m97 -41 c14 -25 25 -53
23 -63 -4 -19 -57 -47 -110 -57 -36 -7 -37 -6 -62 44 -14 28 -26 54 -26 58 0
16 84 53 142 62 3 1 18 -19 33 -44z"/>
<path d="M3391 774 c-30 -38 -37 -89 -17 -119 27 -42 59 -57 98 -47 29 7 33
13 36 44 5 61 -15 116 -48 133 -39 20 -45 19 -69 -11z m93 -29 c3 -9 6 -41 6
-71 l0 -54 -34 0 c-26 0 -41 7 -60 31 -14 17 -26 36 -26 44 0 22 29 83 42 88
18 6 64 -19 72 -38z"/>
<path d="M1484 830 c-35 -14 -85 -71 -82 -94 3 -24 89 -75 126 -76 26 0 62 52
62 91 0 42 -68 93 -106 79z m62 -31 c22 -13 34 -28 34 -42 0 -26 -35 -87 -50
-87 -27 0 -120 50 -120 65 0 22 63 85 85 85 10 0 33 -9 51 -21z"/>
<path d="M2662 770 c-35 -21 -34 -18 -11 -111 5 -20 16 -42 24 -49 20 -17 97
-8 131 15 23 15 25 22 20 54 -3 21 -13 54 -21 74 -15 35 -18 37 -63 37 -29 0
-59 -8 -80 -20z m134 -25 c20 -49 18 -102 -5 -114 -37 -20 -96 -24 -110 -8
-17 21 -40 112 -32 125 10 17 52 31 94 31 34 1 39 -3 53 -34z"/>
<path d="M1701 688 c-17 -29 -31 -61 -31 -70 0 -26 35 -45 117 -64 65 -16 75
-16 88 -3 16 16 23 118 10 139 -10 16 -60 36 -112 45 l-42 7 -30 -54z m139 13
c32 -15 35 -20 38 -66 2 -30 -2 -57 -10 -67 -12 -16 -18 -17 -78 -2 -116 27
-127 45 -74 126 22 34 27 37 56 32 18 -4 49 -14 68 -23z"/>
<path d="M2362 700 c-19 -4 -38 -12 -43 -17 -13 -13 10 -146 29 -160 25 -20
93 -15 142 10 45 22 45 22 44 72 -1 28 -7 62 -13 78 -10 25 -14 27 -68 26 -32
-1 -73 -5 -91 -9z m147 -22 c5 -13 12 -42 16 -65 6 -40 5 -43 -25 -62 -40 -24
-113 -36 -139 -22 -14 8 -22 28 -28 73 -5 35 -6 67 -2 72 10 12 67 24 122 25
41 1 49 -2 56 -21z"/>
<path d="M2014 665 c-4 -9 -4 -45 -2 -80 5 -79 20 -94 96 -95 76 0 92 11 92
66 0 68 -21 110 -60 118 -59 11 -120 7 -126 -9z m119 -5 c22 0 31 -7 43 -35
18 -45 18 -90 -2 -109 -19 -19 -103 -22 -126 -3 -16 13 -33 139 -20 152 4 4
23 4 42 1 19 -3 48 -6 63 -6z"/>
</g>
</svg>
