<?xml version="1.0" standalone="no"?>
<!DOCTYPE svg PUBLIC "-//W3C//DTD SVG 20010904//EN"
 "http://www.w3.org/TR/2001/REC-SVG-20010904/DTD/svg10.dtd">
<svg version="1.0" xmlns="http://www.w3.org/2000/svg"
 width="560.000000pt" height="373.000000pt" viewBox="0 0 560.000000 373.000000"
 preserveAspectRatio="xMidYMid meet">
<metadata>
Created by potrace 1.16, written by Peter Selinger 2001-2019
</metadata>
<g transform="translate(0.000000,373.000000) scale(0.100000,-0.100000)"
fill="#000000" stroke="none">
<path d="M4315 3720 c-38 -4 -97 -15 -130 -24 -33 -9 -97 -16 -145 -16 -63 0
-96 -6 -129 -20 -24 -11 -62 -20 -86 -20 -88 0 -230 -38 -337 -89 -74 -36
-125 -53 -181 -62 -90 -14 -100 -33 -29 -57 35 -11 41 -17 31 -28 -6 -8 -23
-14 -36 -14 -20 0 -24 -4 -20 -20 4 -17 0 -20 -30 -20 -29 0 -33 -3 -28 -19 4
-15 0 -20 -17 -23 -13 -2 -23 -7 -24 -13 -2 -25 -18 -45 -36 -45 -16 0 -19 -5
-14 -25 6 -23 4 -24 -23 -19 -34 7 -46 -7 -31 -36 10 -18 8 -20 -25 -20 -38 0
-40 -2 -25 -31 9 -16 7 -19 -10 -19 -15 0 -20 -7 -20 -25 0 -19 -5 -25 -21
-25 -17 0 -20 -4 -15 -24 5 -19 1 -25 -15 -29 -19 -5 -21 -11 -15 -46 5 -31 0
-53 -20 -98 -36 -80 -69 -179 -101 -298 -14 -55 -28 -102 -29 -104 -2 -2 -17
10 -34 27 -45 46 -135 66 -181 42 -25 -14 -68 -101 -108 -218 -17 -52 -45
-119 -61 -149 -17 -31 -30 -66 -30 -79 0 -15 -8 -25 -22 -30 -13 -3 -90 -39
-173 -79 -82 -40 -175 -80 -206 -88 -30 -9 -75 -32 -100 -50 -24 -18 -83 -57
-131 -85 l-87 -52 -38 20 c-137 71 -342 73 -489 6 -118 -54 -245 -237 -261
-376 l-8 -65 -147 -75 c-194 -99 -189 -95 -200 -161 -16 -102 -20 -166 -11
-172 10 -6 278 124 325 157 12 9 27 16 34 16 6 0 18 -49 28 -117 19 -126 66
-281 123 -403 19 -41 45 -104 58 -140 58 -168 148 -380 161 -380 21 0 18 11
-31 136 -25 62 -45 117 -45 122 0 5 14 6 32 4 27 -4 30 -2 25 14 -3 11 -15 51
-26 89 -11 39 -29 90 -40 115 -11 25 -21 59 -21 76 0 18 -11 61 -25 97 -28 76
-43 167 -27 167 6 0 17 -19 23 -42 6 -24 17 -61 24 -83 7 -22 18 -65 25 -95
26 -112 41 -151 66 -162 18 -8 26 -23 34 -64 5 -30 15 -78 20 -107 6 -28 11
-100 13 -160 1 -74 6 -107 14 -107 21 0 25 102 9 245 -12 113 -24 166 -61 275
-25 74 -52 160 -60 190 -16 64 -55 368 -55 434 0 45 1 46 50 71 27 14 60 25
72 25 13 0 41 11 63 25 22 13 63 37 92 52 l52 27 128 -53 c156 -65 290 -103
468 -132 l135 -23 199 23 c109 12 239 33 290 46 50 14 121 29 158 35 37 6 99
25 137 42 39 17 89 38 111 48 22 10 85 34 140 54 54 21 131 54 170 75 38 20
111 52 160 70 50 18 126 50 170 71 44 21 109 49 145 63 211 79 292 113 351
147 l66 37 57 -50 c56 -49 96 -109 96 -145 0 -34 13 -32 59 10 59 54 72 76 65
113 -7 31 -55 100 -86 123 -39 28 -47 62 -34 137 16 91 26 107 83 140 103 59
135 116 112 198 -7 23 -16 46 -19 50 -4 5 -35 -10 -68 -33 -78 -54 -97 -51
-93 13 1 26 -3 62 -9 81 -13 39 -117 139 -137 132 -36 -14 -40 -110 -6 -166
11 -19 13 -37 8 -56 l-7 -29 -68 73 c-41 45 -69 68 -72 60 -19 -50 -31 -153
-22 -186 5 -20 7 -50 4 -67 -5 -28 -8 -30 -63 -36 -81 -9 -92 -23 -44 -61 47
-38 52 -80 10 -96 -53 -20 -135 -32 -226 -32 -106 -1 -162 -11 -229 -45 -56
-28 -65 -15 -19 29 16 16 35 42 42 60 7 17 21 42 31 55 9 12 21 39 24 59 4 20
19 57 34 81 22 38 33 47 63 52 48 8 81 39 115 110 25 53 33 60 102 96 43 22
76 46 78 56 3 15 -5 17 -60 17 l-63 0 25 20 c14 11 34 23 45 26 11 4 96 47
189 97 152 80 176 90 243 98 93 10 119 23 161 79 59 77 169 123 326 135 82 7
91 9 126 41 35 32 69 89 58 99 -2 3 -29 8 -59 13 l-54 9 41 11 c45 13 69 49
80 122 8 50 1 51 -97 9 -41 -17 -119 -48 -174 -70 -55 -22 -129 -53 -164 -70
-35 -16 -65 -29 -66 -27 -1 2 -17 29 -35 61 l-33 58 28 29 c39 41 45 106 15
157 -19 31 -23 50 -21 102 2 54 0 63 -13 58 -13 -5 -16 1 -16 32 0 26 -5 41
-16 45 -19 7 -83 6 -179 -4z m107 -32 c-19 -19 -14 -30 9 -23 20 7 21 4 15
-20 -6 -22 -4 -26 8 -22 10 4 16 1 16 -8 0 -8 7 -15 15 -15 18 0 19 -12 3 -28
-9 -9 -8 -12 8 -13 10 0 13 -3 7 -6 -8 -3 -13 -25 -13 -61 0 -31 -3 -68 -7
-82 -6 -21 -10 -13 -24 45 -11 46 -17 60 -18 40 -1 -53 37 -183 78 -260 72
-138 79 -244 18 -287 -30 -21 -42 -23 -162 -22 -147 1 -202 14 -341 81 -44 22
-120 53 -169 69 -83 27 -136 61 -146 93 -3 8 -11 12 -18 10 -9 -3 2 -20 30
-49 36 -37 58 -49 124 -69 44 -14 114 -41 155 -61 144 -71 229 -93 364 -94
101 -1 127 2 149 17 36 23 44 22 21 -4 -32 -37 -77 -49 -176 -49 -97 0 -201
17 -304 48 -55 18 -94 26 -252 53 -31 5 -73 22 -98 38 -31 22 -44 26 -44 16 0
-15 58 -57 95 -68 11 -4 56 -11 99 -17 100 -13 158 -28 151 -41 -4 -5 -33 -23
-65 -39 -42 -21 -60 -26 -64 -17 -3 8 -8 6 -16 -6 -9 -14 -19 -17 -43 -13 -29
6 -30 5 -8 -4 l24 -11 -28 -29 c-28 -29 -28 -29 -43 -9 -10 15 -21 19 -38 15
-18 -5 -30 0 -47 18 -12 13 -34 27 -49 30 -23 5 -29 2 -34 -19 -3 -14 -8 -25
-10 -25 -2 0 -40 18 -84 40 -72 37 -86 41 -143 38 -47 -2 -62 -7 -62 -18 0
-15 73 -55 83 -45 3 3 -13 13 -36 22 -58 22 -42 36 33 29 44 -4 83 -16 134
-42 71 -36 101 -39 101 -9 0 24 34 18 61 -11 16 -17 31 -24 46 -21 13 2 28 -2
34 -10 15 -17 -7 -43 -66 -77 -74 -44 -84 -43 -192 14 -86 44 -102 50 -126 41
-32 -13 -35 -41 -6 -59 30 -19 9 -39 -54 -51 -66 -13 -187 -19 -187 -10 0 10
55 26 98 28 35 2 30 47 -8 69 -53 30 -40 37 96 54 52 6 94 15 94 19 0 13 -189
-14 -222 -32 -25 -13 -22 -28 5 -38 51 -20 59 -61 12 -61 -33 0 -95 -31 -95
-47 0 -16 84 -16 180 0 101 16 136 48 88 81 -17 12 -19 19 -11 27 19 19 59 13
95 -14 18 -14 58 -37 88 -51 47 -22 69 -26 155 -26 62 -1 111 -6 130 -15 l30
-13 -35 -2 c-29 -1 -31 -3 -15 -10 11 -5 49 -14 84 -21 55 -11 61 -14 46 -25
-21 -16 -141 -54 -169 -54 -17 0 -18 -2 -6 -10 8 -5 25 -7 37 -3 32 8 29 -13
-7 -47 -34 -32 -38 -42 -12 -33 11 4 7 -5 -12 -25 -39 -42 -92 -43 -167 -4
-30 16 -110 59 -178 96 l-124 66 -55 -10 c-67 -12 -166 2 -224 31 -46 23 -62
19 -24 -6 39 -26 96 -44 139 -45 20 0 37 -3 37 -7 0 -20 -457 -255 -481 -248
-34 11 -53 44 -51 88 1 23 -2 49 -8 57 -7 11 -10 2 -10 -34 0 -42 -2 -47 -17
-41 -59 23 -60 25 26 -44 35 -28 72 -51 81 -51 30 0 66 -37 88 -90 l21 -50
-44 0 c-35 0 -45 4 -50 20 -8 26 -72 80 -136 115 -71 38 -53 16 32 -41 81 -55
99 -83 99 -155 0 -40 -3 -50 -14 -46 -8 3 -34 11 -58 17 -58 16 -68 26 -68 70
0 22 -8 47 -17 58 -23 27 -126 87 -121 70 3 -7 24 -24 48 -38 64 -37 80 -65
73 -126 l-5 -52 -50 13 c-60 16 -76 29 -87 69 -8 31 -12 33 -43 21 -27 -11
-22 16 16 93 19 37 51 110 72 162 20 52 45 112 56 134 l20 39 50 -6 c28 -4 62
-14 75 -22 29 -19 73 -108 73 -147 0 -16 5 -28 10 -28 6 0 10 11 10 24 0 60
75 366 90 366 9 0 30 -47 30 -69 0 -37 22 -82 39 -79 13 3 16 18 16 83 1 85
16 170 34 188 7 7 16 6 29 -6 28 -25 49 -21 55 12 4 18 18 36 40 49 25 14 37
30 42 54 4 18 13 40 20 48 7 8 15 26 17 40 3 22 7 25 38 22 53 -4 80 5 80 29
0 11 -8 22 -17 26 -37 13 -44 24 -30 47 8 12 17 32 20 46 3 14 13 34 21 45 14
20 14 20 36 0 27 -24 50 -12 66 35 10 29 37 60 54 60 3 0 10 -10 15 -22 8 -19
18 -23 56 -24 25 0 53 -3 62 -7 18 -7 63 25 71 51 3 9 20 26 36 37 l30 20 -21
18 c-21 17 -21 17 10 17 35 0 39 7 14 26 -16 12 -15 13 11 14 25 0 27 2 15 17
-13 15 -11 16 20 10 30 -6 33 -5 28 13 -6 24 5 26 23 5 16 -20 30 -19 30 2 0
14 4 12 25 -7 36 -34 31 -12 -7 27 -34 35 -54 43 -44 17 5 -12 2 -15 -11 -9
-48 20 -56 19 -48 -5 7 -20 5 -22 -25 -15 -29 6 -31 5 -25 -14 5 -18 2 -21
-19 -21 -30 0 -34 -14 -8 -29 15 -9 15 -10 -4 -11 -28 0 -36 -10 -23 -27 9
-10 8 -13 -2 -14 -30 -2 -55 -6 -77 -13 -19 -6 -23 -4 -20 11 3 18 -3 20 -34
8 -13 -5 -15 -2 -11 15 6 22 5 22 -25 6 -38 -20 -42 -20 -42 -1 0 12 -5 12
-40 0 -22 -8 -40 -10 -40 -5 0 6 5 10 10 10 6 0 10 4 10 9 0 5 -19 12 -42 16
l-43 8 55 11 c30 6 87 28 125 48 131 67 199 82 377 83 87 0 158 3 158 6 0 3
-19 10 -42 16 l-43 9 53 12 c29 7 77 12 107 12 30 0 76 7 102 16 26 10 86 20
133 24 47 4 89 8 95 9 5 0 4 -4 -3 -11z m-1016 -304 c-6 -17 3 -17 62 1 19 6
21 4 15 -11 -5 -14 -3 -16 10 -11 9 4 24 10 33 13 11 5 15 2 12 -12 -2 -13 2
-18 12 -15 8 2 39 10 68 18 56 15 79 10 51 -10 -9 -7 -23 -26 -32 -44 -16 -31
-18 -31 -85 -30 -67 1 -69 2 -80 30 l-11 29 -33 -20 c-21 -13 -37 -34 -43 -56
-14 -48 -20 -51 -52 -26 l-28 21 -17 -22 c-10 -12 -21 -33 -24 -48 -4 -14 -13
-36 -21 -49 -18 -29 -11 -49 22 -62 42 -16 28 -29 -32 -32 -49 -3 -58 -6 -61
-23 -2 -11 -13 -39 -23 -62 -10 -23 -19 -46 -19 -51 0 -5 -18 -23 -40 -41 -22
-18 -40 -41 -40 -51 0 -26 -14 -25 -40 2 -18 20 -22 20 -36 7 -24 -24 -46
-136 -40 -199 7 -73 -8 -99 -23 -39 -6 24 -16 58 -22 74 -21 58 -20 71 12 150
20 49 31 94 30 117 -2 34 1 38 21 35 20 -2 23 2 20 27 -3 23 0 27 13 22 26 -9
35 2 25 29 -9 23 -7 25 16 25 24 0 26 3 21 29 -6 29 -6 30 30 24 31 -5 35 -4
30 10 -4 10 -10 24 -13 32 -5 13 -2 14 20 6 31 -12 41 0 25 30 -10 20 -9 21 7
15 33 -13 39 -12 36 7 -2 13 4 17 24 17 26 0 27 0 9 20 -18 20 -17 20 18 20
39 0 45 8 25 28 -9 9 -5 12 20 12 34 0 40 8 20 28 -7 7 -10 12 -7 12 3 0 29 9
59 20 67 24 63 23 56 4z m1658 -51 c-11 -44 -34 -84 -52 -89 -49 -16 -99 -40
-100 -49 -2 -10 2 -11 86 -13 65 -2 69 -21 15 -75 -37 -35 -41 -36 -148 -47
-92 -8 -121 -16 -183 -45 -41 -19 -75 -35 -76 -35 0 0 0 32 2 70 4 70 4 70 40
86 20 8 43 21 52 28 8 8 26 17 40 21 42 11 181 67 177 71 -6 7 -211 -67 -227
-82 -29 -25 -88 -45 -96 -32 -10 15 12 29 98 63 74 29 279 115 333 140 43 20
46 18 39 -12z m-801 -489 l58 -7 -83 -44 c-46 -25 -143 -76 -216 -114 l-133
-70 -24 19 c-14 11 -50 23 -80 27 l-56 7 38 28 c21 15 56 46 77 69 24 24 58
47 85 56 25 8 65 28 89 44 l44 29 71 -19 c40 -10 98 -21 130 -25z m68 -301
c67 -57 75 -127 25 -234 -19 -41 -37 -85 -40 -99 -4 -14 9 7 28 47 l34 72 49
-5 c43 -5 52 -3 87 25 l40 32 13 -32 c7 -17 13 -37 13 -44 0 -24 -44 -67 -111
-110 -62 -40 -140 -128 -126 -142 3 -3 12 4 19 16 21 34 25 25 14 -37 -12 -74
-5 -100 38 -144 44 -45 76 -97 76 -122 0 -11 -15 -34 -34 -51 l-34 -31 -6 30
c-4 19 -32 54 -82 102 l-75 73 -72 -39 c-62 -33 -245 -106 -412 -165 -27 -9
-133 -55 -235 -100 -255 -114 -424 -185 -441 -185 -8 0 -23 -7 -34 -16 -11 -8
-40 -21 -65 -28 -25 -8 -69 -23 -98 -35 -45 -18 -53 -19 -57 -6 -3 8 -7 22
-10 31 -4 13 -13 15 -53 9 -58 -10 -65 -9 -124 6 -43 11 -54 10 -140 -19 -81
-26 -103 -29 -170 -25 -67 5 -81 3 -112 -17 -20 -12 -36 -25 -36 -30 0 -4 -12
-11 -26 -14 -37 -10 -30 -48 11 -58 17 -4 -19 -5 -80 -3 -60 2 -139 11 -175
20 -94 22 -95 22 -80 40 10 12 10 21 1 41 -6 14 -11 28 -11 33 0 10 71 32 82
25 12 -7 30 45 23 67 -6 17 0 18 67 14 40 -2 95 -12 121 -22 47 -17 49 -17 62
0 7 10 11 27 8 37 -5 17 0 20 31 20 20 0 53 9 73 20 21 11 45 20 53 20 25 0
101 53 141 97 51 57 56 89 26 165 -14 35 -28 77 -31 94 -7 31 -7 31 84 68 79
33 94 37 122 27 44 -16 48 -14 48 17 0 23 8 32 47 51 30 14 49 19 51 12 2 -6
13 -21 24 -33 l20 -23 -16 27 c-21 36 -20 41 5 28 11 -7 23 -9 26 -7 2 3 -5 8
-16 12 -12 3 -21 9 -21 13 0 4 45 25 100 47 54 21 121 55 147 74 49 37 175
103 182 96 11 -11 -12 -35 -33 -35 -30 0 -42 -16 -26 -35 15 -18 5 -35 -19
-35 -31 0 -46 -26 -32 -57 11 -25 10 -29 -24 -58 -37 -31 -37 -31 -24 -73 10
-35 10 -51 -4 -100 -22 -79 -29 -150 -16 -158 7 -4 42 26 83 69 39 41 90 84
113 96 38 19 42 24 40 55 -2 19 -10 43 -20 54 -19 21 -11 34 30 46 11 4 26 13
33 21 9 10 7 15 -9 20 -12 3 -21 9 -21 13 1 15 49 52 88 67 48 20 53 31 16 45
-17 7 -23 14 -17 22 4 7 8 22 8 33 0 12 8 21 20 23 61 9 67 13 61 35 -10 40 6
49 49 27 22 -11 45 -20 52 -20 17 0 16 -13 -1 -55 -10 -23 -26 -39 -51 -49
-32 -14 -35 -18 -25 -35 9 -18 6 -22 -25 -35 -40 -17 -51 -36 -36 -64 8 -15 6
-23 -8 -36 -15 -13 -19 -32 -19 -86 -1 -113 -33 -154 -147 -190 -58 -18 -93
-38 -104 -58 -8 -16 -2 -14 42 7 29 14 76 34 106 44 29 10 65 31 78 45 18 19
33 26 54 24 20 -3 39 5 60 22 24 20 41 26 79 26 59 0 100 14 100 35 0 8 7 15
16 15 9 0 28 8 42 19 15 10 50 21 77 25 61 7 151 39 176 62 24 22 20 76 -9
107 l-23 25 25 6 c34 8 69 -7 94 -41 17 -22 21 -24 22 -10 0 10 -11 29 -24 42
-24 23 -24 26 -9 55 9 20 13 41 8 58 -14 56 -16 98 -6 125 l11 28 46 -52 c34
-38 44 -57 40 -73 -3 -11 -8 -46 -11 -76 l-5 -55 15 50 c8 28 15 64 15 81 0
23 5 33 20 37 11 3 24 16 29 30 10 26 7 41 -22 122 -25 68 -2 85 54 38z m-997
-46 c17 -12 14 -15 -27 -31 -27 -10 -56 -31 -72 -52 -14 -19 -48 -45 -75 -59
-26 -13 -57 -35 -67 -48 -10 -14 -37 -34 -58 -46 -25 -13 -31 -19 -15 -15 50
13 67 23 82 46 9 13 41 36 72 52 31 16 64 41 73 56 8 15 39 38 67 52 l51 25
63 -30 c34 -17 62 -34 62 -37 0 -3 -78 -46 -172 -94 -95 -49 -184 -98 -198
-110 -37 -31 -239 -126 -268 -126 -5 0 -19 27 -31 61 -16 42 -31 65 -52 78
l-28 17 52 26 c107 51 225 113 325 171 128 74 181 90 216 64z m203 -146 c-2
-38 -4 -40 -40 -46 -40 -7 -42 -9 -51 -63 -5 -28 -2 -35 14 -39 30 -8 24 -17
-17 -32 -21 -8 -51 -27 -67 -44 -29 -28 -29 -30 -11 -43 21 -16 21 -16 -22
-38 -36 -18 -40 -31 -19 -55 7 -9 16 -28 20 -43 5 -24 2 -30 -32 -47 -20 -10
-69 -51 -107 -90 -38 -39 -73 -71 -77 -71 -4 0 -3 12 2 26 6 14 10 41 10 60 0
19 7 51 16 72 13 31 13 44 3 81 -12 44 -12 44 22 72 32 26 33 29 22 60 -14 36
-6 49 30 49 22 0 34 27 19 42 -8 8 -2 16 21 27 19 10 34 26 37 41 4 20 25 35
100 72 120 59 128 60 127 9z m-1123 -309 c11 -34 53 -64 108 -76 42 -10 49
-15 33 -21 -191 -75 -389 -182 -441 -238 -34 -37 -52 -47 -108 -61 -55 -13
-221 -94 -261 -126 -6 -5 -73 -36 -150 -70 -182 -81 -273 -127 -308 -156 -15
-13 -44 -26 -65 -30 -20 -4 -54 -15 -75 -26 -22 -11 -41 -17 -45 -14 -8 8 17
113 38 162 14 33 29 47 76 71 324 167 413 214 499 267 55 33 117 72 138 87 21
15 68 38 105 50 37 12 123 50 192 84 69 34 148 70 175 80 28 10 54 22 60 27
14 13 23 10 29 -10z m1376 -77 c-7 -8 -24 -15 -37 -15 -18 0 -24 -4 -20 -15 8
-20 -4 -25 -73 -29 -45 -3 -67 -9 -84 -25 -30 -28 -86 -40 -86 -17 0 55 129
112 264 115 42 1 47 -1 36 -14z m-1302 -180 c38 -110 39 -108 -48 -188 -41
-38 -72 -58 -97 -63 -86 -16 -443 31 -428 57 3 4 43 20 87 34 67 20 90 33 128
70 30 29 92 69 180 115 74 38 137 69 140 70 3 0 20 -43 38 -95z m-1039 -65
c12 -7 6 -9 -22 -10 -44 0 -58 -21 -33 -49 21 -23 12 -31 -40 -31 -44 0 -60
-15 -43 -41 5 -8 9 -24 9 -37 0 -22 -27 -39 -118 -72 -17 -7 -45 -28 -61 -46
-29 -32 -30 -33 -37 -12 -9 29 31 63 89 78 80 20 97 48 40 65 -18 5 -33 15
-33 22 0 17 -42 27 -84 19 -31 -6 -34 -5 -29 14 3 13 -1 22 -12 26 -27 11 69
65 140 80 64 14 207 10 234 -6z m117 -38 c18 -10 22 -7 -118 -86 -24 -13 -60
-31 -81 -40 -37 -15 -38 -15 -32 3 3 11 1 22 -5 26 -5 3 -10 13 -10 22 0 11 6
14 24 9 26 -6 86 11 86 24 0 5 -10 16 -22 24 -29 21 -15 34 42 38 47 3 87 -4
116 -20z m-488 -69 c-2 -23 1 -27 17 -25 11 2 34 6 51 9 26 4 32 1 37 -16 3
-13 13 -21 25 -21 11 0 28 -3 36 -6 22 -9 1 -34 -28 -34 -33 -1 -102 -35 -119
-60 -12 -18 -13 -28 -5 -43 8 -15 5 -38 -12 -94 -19 -63 -22 -93 -19 -188 2
-62 1 -111 -3 -108 -5 2 -8 15 -8 28 0 13 -8 30 -18 37 -10 7 -22 25 -26 41
-5 22 -12 27 -36 27 -35 0 -35 1 -14 61 19 52 14 91 -16 116 -14 12 -17 24
-13 45 5 24 2 30 -16 35 -26 7 -26 4 0 56 34 65 80 125 113 147 43 27 57 25
54 -7z m952 -93 c30 -5 101 -13 158 -16 101 -7 125 -20 47 -26 -34 -3 -40 -7
-43 -28 -6 -40 -17 -43 -67 -21 -25 11 -65 21 -88 21 -23 0 -55 1 -72 2 -29 3
-30 1 -33 -39 -3 -35 -7 -43 -23 -43 -30 0 -79 -28 -79 -46 0 -8 4 -23 10 -33
7 -14 5 -23 -8 -35 -17 -14 -23 -14 -75 1 -61 17 -70 32 -36 57 l22 15 -22 27
c-21 27 -21 29 -5 41 10 7 23 13 30 13 23 0 35 26 24 55 -12 33 -3 48 48 74
32 16 41 17 96 4 34 -7 86 -18 116 -23z m-276 -46 c12 -30 6 -54 -12 -54 -10
0 -27 -7 -38 -15 -18 -14 -18 -15 -1 -46 16 -29 16 -34 3 -41 -9 -5 -16 -16
-16 -23 0 -20 -1 -20 -125 29 -108 43 -109 45 -80 55 17 6 80 34 140 61 61 27
113 49 116 50 4 0 10 -7 13 -16z m-839 -95 c0 -13 10 -37 23 -53 27 -35 28
-51 1 -110 -23 -53 -19 -66 21 -66 22 0 29 -6 35 -27 3 -15 15 -33 26 -41 10
-7 19 -23 19 -34 0 -12 7 -29 16 -39 10 -11 21 -59 31 -136 9 -67 34 -182 58
-268 24 -82 41 -152 38 -155 -11 -11 -31 35 -52 122 -51 212 -74 269 -101 253
-17 -10 -6 -99 20 -168 11 -28 20 -66 20 -84 0 -17 13 -61 30 -97 16 -36 33
-87 39 -113 5 -27 13 -59 17 -72 6 -21 5 -23 -17 -16 -33 10 -44 26 -75 109
-15 39 -40 105 -57 146 -61 153 -98 277 -124 424 -33 184 -37 358 -10 419 18
42 42 45 42 6z m1777 -41 c20 -7 42 -7 74 1 51 13 68 6 62 -25 -3 -17 -28 -25
-238 -74 -92 -21 -334 -48 -352 -39 -9 5 -30 9 -47 9 -21 0 -31 5 -31 15 0 8
7 15 15 15 8 0 25 11 36 24 33 38 72 50 147 43 57 -5 81 -2 157 22 89 29 121
30 177 9z m-1867 -179 l0 -91 -65 -40 c-73 -45 -255 -138 -269 -138 -29 0 -12
107 18 117 9 3 39 16 66 28 28 13 65 26 82 30 18 3 36 11 40 17 4 8 0 9 -13 4
-10 -5 -32 -12 -49 -16 -16 -4 -38 -11 -47 -15 -39 -16 -15 6 32 30 28 14 56
35 63 46 6 12 30 30 52 40 32 15 35 19 17 19 -14 0 -39 -15 -60 -36 -34 -34
-155 -104 -181 -104 -7 0 -11 9 -9 22 2 18 35 38 158 100 85 42 157 77 160 78
3 0 5 -41 5 -91z"/>
<path d="M3790 3441 c-40 -21 -59 -62 -59 -129 -2 -89 56 -152 137 -152 83 0
123 74 96 177 -20 76 -30 93 -69 109 -45 18 -63 18 -105 -5z m120 -29 c31 -32
57 -123 46 -167 -4 -15 -19 -38 -34 -52 -22 -20 -34 -24 -62 -19 -92 15 -148
123 -105 206 34 65 106 80 155 32z"/>
</g>
</svg>
