<?xml version="1.0" standalone="no"?>
<!DOCTYPE svg PUBLIC "-//W3C//DTD SVG 20010904//EN"
 "http://www.w3.org/TR/2001/REC-SVG-20010904/DTD/svg10.dtd">
<svg version="1.0" xmlns="http://www.w3.org/2000/svg"
 width="612.000000pt" height="526.000000pt" viewBox="0 0 612.000000 526.000000"
 preserveAspectRatio="xMidYMid meet">
<metadata>
Created by potrace 1.16, written by Peter Selinger 2001-2019
</metadata>
<g transform="translate(0.000000,526.000000) scale(0.100000,-0.100000)"
fill="#000000" stroke="none">
<path d="M1862 5250 c-87 -13 -181 -51 -230 -94 -46 -41 -81 -103 -82 -143 0
-18 -9 -24 -42 -33 -173 -45 -332 -124 -470 -236 -98 -79 -83 -85 20 -9 103
77 297 176 402 204 41 12 77 21 80 21 3 0 12 -16 19 -35 47 -132 326 -193 431
-95 41 38 42 90 3 118 -65 46 -243 73 -358 54 -33 -6 -62 -8 -64 -6 -10 10 23
88 51 120 44 50 103 81 199 105 73 19 103 21 249 16 397 -12 732 -140 853
-327 18 -29 26 -36 22 -20 -29 100 -182 213 -374 279 -217 74 -518 109 -709
81z m43 -287 c129 -42 137 -94 22 -143 -110 -48 -289 2 -338 94 -13 25 -21 48
-17 51 12 12 143 23 213 19 39 -3 93 -12 120 -21z"/>
<path d="M3830 5036 c-54 -14 -66 -34 -89 -152 -16 -80 -17 -83 -53 -99 -20
-9 -47 -28 -60 -43 -20 -23 -31 -27 -83 -28 -101 -2 -191 -47 -425 -212 -43
-30 -52 -32 -210 -46 -183 -17 -389 -29 -865 -51 -297 -14 -415 -22 -935 -60
-107 -8 -294 -19 -415 -25 -233 -11 -304 -23 -364 -63 -20 -14 -60 -28 -89
-32 -110 -15 -193 -109 -227 -257 -37 -163 2 -353 97 -472 l31 -38 2 -212 c2
-116 8 -290 15 -386 14 -195 11 -257 -26 -545 -21 -164 -25 -225 -21 -335 11
-254 78 -462 217 -670 143 -212 237 -543 244 -855 3 -109 5 -120 22 -123 17
-3 19 -14 21 -132 2 -143 6 -166 31 -174 71 -22 305 -33 362 -17 22 6 25 12
22 44 -3 31 -1 37 15 35 39 -3 99 3 112 11 11 7 5 24 -34 88 -27 43 -67 103
-91 134 -35 48 -55 95 -122 300 -83 251 -122 391 -122 444 l0 30 18 -30 c18
-29 76 -85 118 -115 18 -13 22 -28 26 -115 9 -160 37 -210 110 -192 38 10 51
53 46 148 -4 66 -2 79 9 74 8 -3 26 -5 39 -5 23 0 24 -3 24 -57 1 -78 16 -194
31 -225 21 -47 89 -62 129 -30 20 16 22 27 22 95 -1 68 -14 171 -27 217 -3 10
6 20 27 28 39 14 43 9 52 -65 9 -81 29 -113 69 -113 82 0 95 50 53 210 l-24
93 33 60 33 60 11 -39 c20 -76 62 -289 81 -408 13 -86 19 -166 18 -276 -2
-196 1 -202 80 -194 74 8 229 39 266 53 23 9 27 16 24 35 -4 22 1 27 54 46 32
11 58 27 58 35 0 15 -64 100 -125 165 -42 45 -42 45 -55 159 -6 62 -23 166
-35 229 -13 64 -23 118 -21 119 1 2 50 -3 107 -11 206 -29 402 -38 868 -42
260 -2 476 -6 479 -8 3 -3 -5 -104 -17 -223 -12 -120 -21 -256 -21 -303 0 -47
-7 -106 -14 -132 -8 -25 -18 -82 -21 -127 l-8 -81 29 -11 c82 -31 286 -50 352
-32 19 5 23 11 20 33 l-4 27 84 6 c46 3 86 7 89 11 7 7 -50 160 -87 236 -15
30 -31 80 -35 110 -3 30 -20 141 -36 245 -16 105 -29 204 -29 220 l0 30 138
23 c75 12 147 25 160 28 22 6 22 6 22 -112 0 -66 -9 -193 -20 -284 -22 -181
-25 -240 -11 -240 5 0 8 -53 7 -117 l-1 -118 30 -6 c44 -10 338 -10 353 0 8 5
11 17 7 33 -6 24 -4 26 28 26 61 0 118 13 124 29 4 10 -26 47 -88 109 l-93 93
-3 79 c-1 43 -11 136 -22 207 -11 72 -23 184 -26 251 l-7 121 50 31 c105 64
129 126 143 362 5 91 11 172 14 180 4 12 22 14 104 12 260 -9 405 62 457 224
33 102 -9 202 -106 246 -31 14 -50 29 -50 40 0 9 4 83 10 165 5 81 14 357 20
613 6 256 13 494 16 530 15 196 36 435 38 437 1 2 15 -27 30 -64 89 -217 256
-318 485 -292 259 29 538 226 612 432 11 33 11 39 -3 54 -22 22 -118 21 -178
-2 -68 -25 -97 -29 -133 -14 -53 21 -330 206 -523 350 -99 74 -194 144 -211
156 -30 21 -30 23 -22 75 13 81 3 116 -35 126 -29 8 -31 11 -27 48 11 98 9
107 -29 116 -19 4 -80 10 -135 14 -116 8 -115 9 -140 -80 l-17 -58 -67 6 c-36
3 -180 9 -318 12 l-253 7 0 98 0 99 -72 -1 c-40 -1 -93 -6 -118 -13z m140
-105 l0 -80 -47 -6 c-27 -3 -70 -10 -96 -16 -26 -5 -52 -9 -58 -9 -12 0 -4 54
18 123 18 57 33 65 121 66 l62 1 0 -79z m959 -27 c4 -4 -16 -94 -22 -101 -1
-1 -50 3 -109 9 -106 11 -106 11 -97 34 5 13 14 36 19 50 l11 27 96 -7 c54 -4
99 -9 102 -12z m-574 -94 c365 -22 618 -49 638 -69 8 -8 -24 -237 -49 -351 -5
-23 -4 -23 12 5 10 17 30 62 44 102 l25 72 142 -109 c339 -260 565 -411 642
-430 44 -10 54 -9 107 13 73 30 115 38 134 27 22 -13 -9 -66 -82 -141 -141
-144 -358 -239 -549 -239 -92 0 -160 19 -216 60 -78 57 -184 244 -215 379 -6
28 -15 51 -20 51 -4 0 -8 -28 -8 -63 0 -35 -7 -111 -15 -169 -24 -170 -45
-456 -50 -693 -3 -121 -7 -269 -9 -330 l-3 -110 -41 -9 c-60 -13 -123 1 -188
41 -138 84 -146 88 -209 88 -75 -1 -114 -19 -201 -96 -59 -52 -72 -59 -109
-59 -35 0 -53 9 -114 55 -102 77 -137 82 -201 29 -35 -30 -59 -74 -85 -154
-46 -143 -95 -190 -226 -215 -41 -7 -84 -17 -97 -21 -23 -7 -23 -5 -18 37 11
84 28 642 22 692 -13 94 -46 146 -93 147 l-22 0 24 -24 c20 -21 44 -91 34
-100 -2 -2 -46 -6 -96 -9 l-93 -6 0 55 c0 90 18 143 65 190 68 67 130 70 210
8 50 -38 54 -36 26 10 -18 28 -19 41 -10 151 18 233 52 413 98 509 33 71 51
148 50 214 l-1 47 -18 -62 c-25 -84 -57 -147 -103 -199 -77 -87 -346 -245
-473 -278 -161 -42 -379 -3 -609 109 -98 47 -141 84 -131 111 11 28 123 15
175 -19 l42 -28 -17 26 c-20 30 -21 28 36 44 126 36 316 150 638 385 195 142
294 196 358 196 25 0 54 -5 65 -10 19 -11 46 -55 60 -100 5 -19 7 -12 8 28 1
29 -4 62 -10 73 -30 57 110 118 318 138 126 12 215 12 408 1z m-1356 -398
c-83 -64 -288 -192 -364 -228 -143 -67 -174 -75 -269 -68 -94 8 -156 -6 -156
-35 0 -49 78 -116 215 -184 289 -144 538 -146 816 -7 88 45 213 122 224 139
20 33 20 0 -1 -78 -28 -110 -54 -279 -54 -357 l0 -59 -69 0 c-62 0 -73 -3
-108 -31 -59 -47 -86 -111 -91 -216 l-4 -87 -57 -17 c-71 -20 -151 -63 -151
-81 0 -19 27 -83 35 -83 4 0 37 13 73 29 37 16 79 31 95 35 47 11 32 -19 -25
-52 -77 -43 -158 -110 -158 -130 0 -23 36 -81 55 -88 8 -4 44 12 80 35 l65 40
-50 -60 c-48 -57 -85 -117 -78 -124 2 -2 43 12 91 31 49 19 92 32 97 29 4 -3
10 -16 12 -29 4 -18 -3 -33 -24 -53 -74 -70 -238 -311 -238 -350 0 -21 50 -83
67 -83 4 0 37 38 73 85 54 70 70 84 93 85 34 0 83 24 120 58 l27 26 0 -90 0
-89 -42 -13 c-122 -38 -169 -142 -114 -250 29 -56 70 -97 149 -146 31 -20 57
-40 57 -44 0 -4 -14 -20 -31 -37 -42 -41 -132 -161 -180 -241 -32 -52 -37 -68
-29 -84 12 -22 49 -50 66 -50 6 0 30 28 52 63 42 65 139 182 158 190 7 3 4
-21 -7 -66 -25 -94 -25 -97 12 -97 32 0 109 37 109 52 0 4 5 8 10 8 6 0 10
-15 11 -32 1 -73 11 -75 66 -13 28 31 73 88 100 126 47 68 49 69 86 65 21 -2
40 -6 42 -8 2 -1 -3 -34 -10 -73 -7 -38 -15 -90 -17 -115 l-3 -45 75 -1 c41
-1 103 -5 138 -9 l62 -8 0 84 0 83 37 -52 c20 -29 40 -49 44 -45 4 4 13 46 18
92 6 46 12 85 13 86 4 3 176 -14 217 -21 l34 -5 -7 -47 c-4 -26 -13 -107 -21
-179 -8 -73 -22 -151 -31 -173 -19 -48 -71 -95 -133 -122 -106 -45 -450 -133
-551 -140 l-45 -3 -6 90 c-8 102 -24 192 -40 215 -8 11 -9 -5 -5 -55 3 -38 9
-137 12 -219 l7 -148 -96 3 c-52 2 -99 7 -103 12 -4 4 -11 98 -15 210 -4 111
-8 204 -9 207 0 3 -6 -4 -12 -15 -7 -11 -14 -80 -16 -161 l-4 -140 -112 3
c-61 1 -293 5 -516 7 -644 7 -819 35 -1119 177 -68 32 -189 98 -270 146 -145
87 -302 153 -365 153 -32 0 -32 -4 -1 110 28 101 24 257 -14 490 -17 107 -31
236 -32 285 0 75 -2 86 -11 65 -21 -45 -15 -262 11 -414 18 -109 22 -163 19
-255 -6 -143 -32 -228 -118 -382 -33 -59 -71 -142 -86 -185 -24 -72 -26 -88
-20 -179 3 -55 8 -110 12 -121 7 -26 -16 -34 -101 -33 -106 2 -104 0 -156 139
-25 69 -65 174 -89 234 -115 299 -107 410 46 628 59 85 84 141 84 193 0 17
-20 92 -44 166 -63 189 -80 348 -55 525 10 72 9 79 -13 121 -17 33 -45 59
-113 106 -51 36 -102 81 -120 105 -29 42 -30 49 -33 163 -2 65 -1 119 3 119 4
0 28 -19 55 -42 129 -116 371 -205 650 -240 115 -14 549 -18 645 -5 l60 7 2
-80 c2 -62 8 -94 28 -139 32 -71 61 -100 190 -187 188 -126 296 -242 331 -353
19 -61 24 -168 11 -243 -7 -43 -6 -48 11 -48 33 0 98 56 121 104 13 25 26 67
30 93 l8 48 7 -36 c4 -19 6 -75 4 -122 -2 -48 -1 -87 2 -87 12 0 88 88 118
135 39 63 89 211 98 292 3 35 11 60 16 57 5 -3 28 -35 52 -70 51 -77 56 -72
56 55 0 99 -18 178 -60 269 -24 52 -28 70 -23 111 7 65 -21 124 -91 189 -58
52 -166 114 -233 131 -123 33 -353 29 -485 -7 -59 -17 -69 -17 -80 -5 -20 25
-82 51 -144 61 -105 18 -164 22 -454 32 -167 6 -314 16 -356 24 -190 38 -340
112 -450 221 -138 137 -175 291 -108 443 28 64 26 78 -5 29 -109 -177 -45
-407 158 -560 183 -140 343 -176 878 -202 305 -15 362 -22 416 -53 79 -47 5
-57 -413 -57 -295 0 -336 2 -441 22 -201 39 -395 116 -515 205 -73 55 -154
160 -190 248 -39 94 -46 258 -15 360 32 106 95 169 185 185 37 7 38 7 26 -15
-6 -12 -9 -24 -6 -27 3 -3 8 2 12 11 10 26 84 72 142 90 62 18 338 42 376 32
39 -10 78 -72 136 -215 93 -233 139 -286 241 -279 46 3 74 15 160 64 l104 59
109 -2 c89 -2 117 1 152 16 53 24 70 49 90 137 28 124 50 147 159 164 100 16
152 43 187 101 l30 47 146 7 c81 4 251 12 377 19 127 7 254 14 284 15 l54 1
-24 -18z m-879 -41 c0 -5 -12 -22 -27 -38 -30 -32 -110 -66 -183 -78 -94 -15
-135 -60 -146 -159 -8 -63 -36 -114 -74 -133 -15 -8 -70 -13 -140 -14 -127 -1
-140 -4 -254 -68 -94 -52 -147 -61 -193 -32 -45 28 -86 88 -123 179 -57 139
-87 197 -119 234 l-31 36 117 7 c65 3 224 15 353 25 129 10 312 24 405 30 94
6 188 12 210 14 93 7 205 5 205 -3z m129 -1147 c82 -21 170 -66 222 -112 58
-51 95 -118 85 -155 l-6 -27 -61 45 c-34 25 -65 45 -69 45 -5 0 -17 3 -27 7
-10 4 16 -21 58 -54 115 -92 166 -187 189 -350 10 -77 7 -102 -11 -70 -20 34
-108 135 -138 156 -29 21 -101 55 -101 48 0 -2 27 -25 60 -51 l60 -47 0 -60
c0 -120 -40 -258 -104 -364 l-31 -50 -6 72 c-12 131 -76 278 -156 354 -44 42
-45 42 -19 8 48 -65 78 -156 83 -249 4 -75 2 -90 -19 -129 -13 -24 -33 -50
-44 -57 -20 -14 -20 -13 -16 69 5 100 -10 162 -65 262 -53 96 -110 150 -259
247 -71 46 -142 100 -158 119 -45 52 -69 116 -74 196 l-5 71 41 21 c55 28 181
62 267 71 88 10 230 3 304 -16z m1111 -33 c0 -5 3 -16 6 -24 4 -11 -8 -16 -53
-22 -79 -9 -132 -22 -242 -57 -95 -31 -110 -30 -111 9 0 27 118 77 220 92 77
12 180 13 180 2z m-3040 -185 c101 -71 115 -96 105 -190 -19 -196 0 -368 61
-559 42 -130 42 -174 -2 -241 -16 -24 -51 -76 -78 -116 -95 -141 -123 -266
-93 -418 8 -40 10 -69 5 -64 -20 20 -92 203 -114 290 -31 120 -48 295 -39 402
4 47 17 158 31 247 28 188 31 335 9 508 -8 66 -18 154 -21 195 l-6 75 31 -37
c17 -20 67 -62 111 -92z m3048 58 c-3 -35 -6 -37 -67 -60 -81 -31 -168 -75
-234 -119 -28 -19 -54 -35 -58 -35 -6 0 -29 46 -29 59 0 8 64 53 150 107 59
37 178 83 213 84 26 0 28 -2 25 -36z m-8 -152 l0 -58 -77 -23 c-43 -12 -110
-38 -150 -56 l-74 -34 21 29 c55 77 219 200 267 200 9 0 13 -17 13 -58z m1261
-67 l101 -70 80 2 81 1 -6 -148 c-3 -81 -12 -206 -18 -277 l-12 -130 -91 -6
c-92 -6 -205 -34 -241 -61 -17 -12 -12 -12 35 1 70 19 269 22 328 5 24 -7 60
-28 79 -46 30 -27 36 -41 40 -83 13 -132 -77 -224 -255 -260 -82 -16 -240 -13
-398 7 -44 6 -155 15 -249 20 -306 19 -472 54 -641 135 -124 60 -185 110 -213
175 -38 89 -5 149 96 171 96 22 195 1 338 -70 89 -45 112 -53 88 -33 -82 70
-223 135 -322 148 l-51 7 0 48 c0 44 3 51 30 68 17 10 62 23 101 30 39 6 84
18 99 26 51 26 98 93 126 179 37 113 60 154 97 176 55 34 65 30 226 -86 62
-44 100 -33 198 58 73 67 123 90 195 85 52 -3 67 -10 159 -72z m-1273 -192
l-6 -117 -38 -34 c-37 -31 -79 -50 -90 -39 -3 3 9 31 27 63 22 40 27 54 15 44
-26 -21 -125 -145 -175 -217 -45 -67 -65 -77 -82 -39 -9 18 -7 31 6 57 55 106
191 279 277 350 32 27 62 49 65 49 3 0 3 -53 1 -117z m105 -804 c12 -7 23 -13
25 -14 2 -2 -34 -49 -80 -106 -46 -57 -103 -132 -128 -166 -25 -34 -48 -63
-51 -63 -3 0 -13 6 -24 13 -13 10 -16 21 -12 38 13 47 215 309 238 309 6 0 20
-5 32 -11z m138 -48 c35 -11 81 -23 102 -26 20 -4 37 -10 37 -12 0 -9 -97
-137 -117 -156 -18 -16 -19 -14 -32 28 -17 59 -27 63 -45 22 -15 -37 -50 -67
-78 -67 -22 0 -22 4 -5 61 13 42 67 169 72 169 2 0 31 -9 66 -19z m353 -148
c-4 -54 -12 -101 -18 -105 -6 -4 -24 -8 -39 -8 l-29 0 7 78 c11 129 12 132 51
132 l34 0 -6 -97z m121 85 c2 -7 5 -55 7 -106 l3 -92 -47 0 -48 0 0 105 0 105
40 0 c24 0 42 -5 45 -12z m-2955 -259 c71 -27 148 -71 355 -203 103 -66 102
-63 54 -166 -61 -132 -170 -200 -319 -200 -110 0 -174 16 -247 62 -92 58 -163
150 -163 210 0 30 55 145 121 253 l52 85 36 -6 c20 -4 70 -19 111 -35z m712
-382 l63 -22 21 -94 c12 -52 25 -114 29 -137 6 -40 5 -42 -26 -53 -35 -12
-119 -15 -167 -5 -30 6 -32 9 -52 103 -20 85 -65 255 -77 288 -3 7 29 -3 71
-22 42 -20 104 -46 138 -58z m2431 -114 c4 -76 12 -167 17 -202 13 -74 11 -76
-64 -85 -41 -5 -155 7 -161 17 -1 1 1 81 3 178 l4 177 72 17 c39 10 80 21 91
26 11 4 23 8 26 8 3 1 9 -61 12 -136z m-2737 -123 l18 -83 -23 -18 c-13 -11
-27 -19 -33 -19 -15 0 -38 66 -45 129 -5 57 -4 61 23 84 34 30 33 32 60 -93z
m2054 44 c92 -8 79 15 109 -199 28 -201 30 -243 15 -256 -19 -16 -183 -33
-236 -25 l-48 7 0 92 c0 86 13 266 26 364 5 40 6 42 30 33 13 -5 60 -13 104
-16z m-2864 -2 l72 5 12 -56 c7 -31 41 -145 76 -255 35 -109 64 -200 64 -201
0 -2 -44 -6 -97 -9 -54 -4 -123 -8 -153 -11 l-55 -4 -1 152 c0 129 -4 168 -26
257 -15 58 -30 113 -33 122 -6 15 -3 16 32 6 21 -6 70 -8 109 -6z m324 -2 l40
-20 0 -99 c0 -89 -2 -99 -20 -104 -31 -8 -49 14 -60 72 -11 57 -14 171 -5 171
3 0 24 -9 45 -20z m274 -55 c3 -8 11 -64 17 -125 13 -126 7 -143 -45 -138 -28
3 -32 8 -43 53 -7 27 -16 89 -19 137 l-7 88 45 0 c32 0 48 -5 52 -15z m573
-87 c37 6 69 10 71 7 2 -2 6 -39 9 -83 l6 -79 -84 -12 c-46 -6 -96 -14 -110
-17 -29 -6 -30 -4 -45 132 l-6 62 45 -11 c33 -7 66 -7 114 1z m2349 -82 l61 6
7 -47 c3 -26 6 -73 6 -104 l0 -57 -137 -12 c-75 -7 -140 -9 -144 -5 -5 5 -4
51 2 103 16 151 8 139 81 123 38 -8 87 -11 124 -7z m-2213 -153 c51 -43 107
-109 107 -128 0 -7 -19 -17 -42 -23 l-43 -11 -39 45 c-33 39 -81 74 -102 74
-4 0 6 -12 21 -27 32 -32 69 -88 79 -120 6 -19 2 -23 -31 -32 -67 -19 -224
-43 -231 -36 -9 9 -4 237 6 247 12 12 153 47 193 47 28 1 47 -8 82 -36z m2397
-158 c41 -41 71 -77 68 -81 -4 -3 -33 -8 -65 -11 l-58 -5 -48 47 c-27 25 -51
44 -54 41 -3 -2 12 -32 33 -66 29 -47 35 -63 25 -70 -19 -11 -144 -22 -185
-16 -20 4 -52 8 -71 12 l-36 5 3 97 3 97 144 7 c79 4 146 10 149 13 10 10 18
4 92 -70z m-642 -18 c14 -29 35 -71 44 -95 20 -49 22 -47 -65 -56 -56 -6 -58
-5 -67 21 -20 54 -43 103 -47 99 -3 -2 2 -41 11 -87 9 -46 14 -84 12 -86 -2
-3 -28 -7 -57 -9 -67 -7 -220 20 -235 40 -12 17 -2 115 16 172 l11 32 142 4
c78 3 153 10 167 15 32 14 35 11 68 -50z m-2731 -100 c86 -127 86 -127 27
-127 -48 0 -49 1 -77 50 -27 48 -47 70 -47 52 0 -5 11 -42 25 -82 14 -40 25
-77 25 -82 0 -12 -139 -10 -241 3 -85 11 -87 12 -93 41 -3 17 -6 75 -6 129 l0
98 98 4 c53 1 126 4 162 5 l65 1 62 -92z"/>
<path d="M3923 4441 c-57 -27 -117 -92 -152 -165 -16 -33 -28 -62 -26 -65 3
-2 33 23 69 56 75 71 157 114 227 121 54 5 58 15 18 44 -37 28 -88 32 -136 9z"/>
<path d="M4770 4262 c-30 -12 -51 -13 -142 -2 -84 9 -120 9 -165 -1 l-58 -12
125 -28 c142 -32 189 -35 228 -15 26 13 61 61 51 70 -2 2 -20 -4 -39 -12z"/>
<path d="M3873 4121 c-127 -58 -216 -245 -215 -451 0 -164 50 -273 145 -319
87 -42 171 -19 250 69 72 80 92 155 92 340 0 122 -4 156 -23 217 -45 144 -134
196 -249 144z m133 -36 c27 -11 40 -26 59 -68 24 -51 44 -159 45 -238 l0 -36
-127 -6 c-116 -6 -207 -17 -257 -33 -18 -6 -19 -2 -12 52 9 85 53 208 90 257
62 82 125 104 202 72z m98 -407 c-23 -134 -81 -242 -146 -269 -46 -19 -109
-16 -149 7 -48 28 -90 114 -96 197 -6 71 -9 67 64 82 28 6 32 4 38 -23 10 -49
66 -83 122 -74 32 5 72 47 79 82 6 28 10 30 50 30 l44 0 -6 -32z"/>
<path d="M4443 4065 c-59 -30 -119 -98 -158 -180 -74 -157 -74 -384 1 -494 36
-53 99 -91 151 -91 217 0 360 416 232 677 -52 108 -128 137 -226 88z m152 -48
c46 -46 75 -144 75 -253 0 -96 -3 -100 -71 -84 -24 6 -106 13 -181 17 -159 7
-154 3 -118 108 46 134 151 243 234 245 19 0 39 -11 61 -33z m-201 -361 c-3
-7 2 -30 10 -50 20 -48 72 -72 122 -56 30 10 77 53 86 80 6 19 38 -1 38 -24 0
-32 -53 -137 -90 -180 -18 -20 -46 -44 -61 -52 -63 -32 -142 -4 -183 65 -23
41 -46 131 -46 189 l0 42 65 0 c51 0 63 -3 59 -14z"/>
<path d="M3406 2154 c-24 -23 -20 -47 13 -78 39 -38 93 -49 142 -30 35 15 40
14 87 -10 47 -24 132 -49 140 -41 2 1 -25 17 -60 35 -35 18 -85 48 -112 67
-96 69 -177 91 -210 57z"/>
<path d="M4639 2036 c-25 -7 -86 -32 -136 -54 -49 -23 -107 -49 -129 -57 l-39
-15 60 4 c35 2 84 15 120 30 33 15 76 31 97 35 37 9 37 8 31 -19 -12 -63 80
-62 152 1 62 55 39 90 -57 88 -29 0 -74 -6 -99 -13z"/>
</g>
</svg>
