<?xml version="1.0" standalone="no"?>
<!DOCTYPE svg PUBLIC "-//W3C//DTD SVG 20010904//EN"
 "http://www.w3.org/TR/2001/REC-SVG-20010904/DTD/svg10.dtd">
<svg version="1.0" xmlns="http://www.w3.org/2000/svg"
 width="700.000000pt" height="541.000000pt" viewBox="0 0 700.000000 541.000000"
 preserveAspectRatio="xMidYMid meet">
<metadata>
Created by potrace 1.16, written by Peter Selinger 2001-2019
</metadata>
<g transform="translate(0.000000,541.000000) scale(0.100000,-0.100000)"
fill="#000000" stroke="none">
<path d="M2515 4750 c-122 -19 -218 -73 -322 -183 -234 -246 -370 -604 -379
-996 l-3 -163 -93 -82 c-280 -246 -505 -625 -568 -956 -6 -36 -13 -70 -15 -76
-2 -7 -24 8 -50 32 -106 98 -213 96 -283 -6 -25 -37 -47 -110 -82 -265 -12
-55 -64 -227 -116 -381 -105 -316 -121 -387 -101 -455 15 -50 47 -76 135 -109
48 -18 72 -21 147 -17 127 7 255 23 288 36 16 6 54 11 85 12 31 1 68 4 82 8
22 6 25 12 22 45 -7 86 -67 193 -121 216 -26 11 -32 20 -46 83 -9 39 -19 99
-22 133 l-6 63 44 -22 c29 -14 68 -23 114 -25 133 -7 245 49 489 244 86 69
159 124 160 122 2 -1 15 -70 30 -153 16 -82 39 -195 53 -250 38 -151 42 -184
32 -256 -11 -88 -49 -193 -111 -309 l-51 -94 42 -37 c44 -40 178 -98 271 -119
31 -7 94 -11 141 -9 72 3 95 9 150 37 61 31 69 33 131 26 81 -8 154 8 205 45
21 15 54 30 73 33 55 10 90 26 90 43 0 33 -44 174 -72 233 -17 34 -46 76 -65
92 -34 30 -76 39 -88 20 -4 -6 -15 0 -26 14 -11 14 -37 31 -57 37 -31 9 -45
24 -88 92 -67 107 -111 194 -119 240 -4 20 -5 37 -3 37 3 0 83 -18 179 -41
313 -73 542 -118 641 -125 l97 -7 13 -36 c21 -61 15 -197 -11 -264 l-23 -58
26 -40 c57 -85 177 -147 357 -186 157 -33 289 -35 404 -5 44 11 111 25 148 31
37 7 91 23 120 36 29 13 78 31 110 40 67 18 67 16 15 124 -31 65 -106 151
-131 151 -8 0 -22 10 -33 21 -22 25 -81 52 -94 44 -11 -7 -107 17 -210 52
-148 50 -280 135 -280 182 0 10 11 23 24 29 37 17 160 136 181 176 20 37 33
44 52 25 7 -7 2 -25 -18 -62 -16 -29 -29 -59 -29 -67 0 -8 14 12 31 45 17 33
33 62 35 64 2 2 41 -19 86 -46 111 -68 151 -87 232 -112 85 -26 131 -26 198
-1 114 43 255 191 343 363 50 97 107 188 129 206 10 9 43 5 131 -14 64 -14
122 -25 128 -24 23 1 -63 28 -147 45 -47 10 -86 21 -86 25 0 11 99 92 142 117
64 36 97 37 177 4 39 -17 71 -28 71 -26 0 2 -31 19 -68 38 -38 19 -75 42 -83
52 -8 9 -27 25 -44 36 -24 15 -26 18 -10 18 17 0 60 -16 154 -57 44 -19 -81
134 -133 162 l-35 19 31 26 c29 25 30 27 13 43 -9 10 -15 20 -12 24 3 3 36 8
72 10 36 3 68 10 72 16 5 9 -71 4 -147 -9 -21 -4 -43 13 -131 98 -106 102
-107 103 -124 174 l-17 72 40 70 c80 141 131 304 152 487 16 147 20 137 -52
130 -99 -10 -266 -43 -351 -69 -72 -22 -80 -23 -125 -10 -26 8 -81 17 -122 21
-100 7 -175 -13 -304 -81 -106 -57 -164 -81 -282 -115 l-71 -21 -129 61 c-261
124 -393 168 -519 176 -54 3 -101 1 -117 -6 -27 -10 -28 -13 -28 -90 0 -109
34 -296 74 -413 42 -119 90 -209 152 -277 25 -28 43 -51 38 -51 -17 0 -189 93
-241 131 -170 124 -304 260 -408 415 -105 155 -168 194 -316 194 l-68 0 -15
53 c-74 258 -29 475 133 649 70 75 181 158 210 158 22 0 116 -62 164 -108 22
-20 87 -104 145 -187 118 -166 188 -241 254 -274 86 -41 189 -17 238 56 21 31
25 48 25 113 0 68 -4 84 -39 156 -69 140 -227 274 -440 374 -167 78 -319 109
-441 90z m271 -60 c98 -25 236 -91 333 -160 l75 -53 -50 -22 c-58 -27 -103
-71 -142 -143 l-29 -53 -58 76 c-68 89 -132 148 -198 181 -54 28 -162 58 -180
50 -7 -2 -4 -5 6 -5 28 -1 20 -14 -26 -40 -195 -111 -311 -285 -332 -498 -8
-76 13 -211 46 -297 10 -28 19 -54 19 -57 0 -3 -18 -11 -41 -18 -56 -17 -46
-21 21 -9 73 14 184 4 241 -20 56 -24 100 -67 158 -153 205 -303 539 -578 782
-643 l66 -18 -13 -68 c-23 -124 -34 -154 -110 -305 -66 -133 -76 -158 -81
-221 -6 -76 3 -164 16 -164 5 0 19 25 31 55 29 70 39 77 32 20 -2 -25 -1 -45
4 -45 5 0 38 25 74 54 36 30 67 50 71 45 3 -6 16 -1 30 10 l24 20 -35 1 c-37
0 -65 -15 -112 -58 -32 -29 -32 -27 -14 51 7 31 9 57 4 57 -13 0 -70 -85 -90
-133 l-17 -42 0 41 c-1 58 31 170 67 239 89 165 116 250 128 398 l7 72 -62 30
c-199 95 -347 419 -339 744 l3 116 38 3 c100 8 270 -50 540 -185 l169 -84 106
42 c133 51 190 80 270 135 99 68 161 88 272 88 55 0 114 -6 140 -14 l45 -15
-40 -3 c-50 -3 -205 -51 -205 -63 0 -5 26 -8 58 -7 61 1 110 -11 184 -48 50
-26 76 -50 36 -35 -40 14 -156 22 -163 11 -10 -17 9 -34 98 -85 45 -26 83 -49
85 -50 1 -1 -13 -26 -32 -54 -38 -59 -94 -216 -101 -288 -5 -47 -5 -47 18 22
51 155 111 245 161 245 53 -1 89 -62 157 -273 l42 -127 104 -85 c57 -46 104
-87 103 -90 0 -3 -33 -23 -74 -44 -42 -21 -110 -65 -153 -98 l-78 -59 -57 29
-57 30 33 41 c36 44 66 119 66 164 -1 38 -34 108 -58 121 -55 29 -122 -5 -157
-80 l-23 -50 -12 73 c-7 40 -16 82 -21 93 l-8 20 0 -20 c-1 -35 48 -294 60
-317 6 -12 31 -50 55 -86 24 -35 44 -65 44 -68 0 -2 -10 -4 -23 -4 -13 0 -59
-17 -103 -39 l-80 -38 -82 76 c-62 57 -82 82 -82 102 0 76 -68 182 -141 219
-113 58 -218 -28 -189 -155 21 -96 111 -185 201 -200 l42 -7 -26 -22 c-14 -11
-69 -58 -124 -102 -107 -89 -160 -141 -151 -149 3 -3 44 32 91 77 46 46 126
112 176 148 73 53 93 72 102 103 7 20 16 37 20 37 4 0 51 -43 105 -96 112
-110 119 -114 173 -114 34 0 44 6 75 42 49 57 56 98 22 139 -15 17 -33 44 -42
60 -13 26 -13 29 1 29 27 0 115 -38 151 -65 40 -31 69 -80 53 -91 -8 -5 -8 -9
1 -14 38 -24 -33 -142 -123 -204 -60 -41 -71 -44 -62 -16 3 11 2 28 -4 37 -9
15 -10 11 -11 -19 0 -46 -15 -61 -87 -88 -152 -57 -268 -71 -359 -46 -32 10
-70 24 -82 33 l-24 15 33 24 c18 13 29 24 25 24 -4 0 -21 -9 -37 -21 l-29 -20
-30 21 c-29 20 -39 40 -22 40 5 0 17 7 28 15 50 41 -61 -25 -189 -111 l-138
-94 -47 24 c-70 35 -149 56 -214 56 -58 0 -68 6 -46 28 6 6 8 15 4 19 -8 8
-27 -19 -37 -52 -6 -19 -1 -20 68 -20 71 0 76 -2 99 -30 13 -16 32 -50 41 -74
l17 -44 -40 -36 c-23 -20 -47 -45 -55 -56 -8 -11 9 0 36 25 l50 45 3 -31 c8
-85 -76 -206 -180 -258 -47 -24 -63 -26 -172 -26 -110 0 -287 22 -410 50 -23
5 -90 18 -151 29 -60 11 -194 36 -296 56 -102 19 -192 35 -200 34 -21 -1 52
-27 79 -28 19 -1 22 -6 22 -41 0 -21 9 -64 21 -95 20 -54 114 -191 157 -229
l22 -19 -41 -20 c-22 -11 -58 -41 -81 -68 l-40 -48 -39 19 c-128 66 -269 -37
-385 -282 l-36 -78 -30 18 c-55 32 -55 35 0 145 59 119 87 198 102 291 12 74
9 97 -25 231 -40 159 -95 434 -95 482 0 20 3 21 32 12 50 -14 51 -12 25 36
-22 39 -23 44 -7 35 28 -15 40 -12 40 9 0 24 -16 18 255 80 338 76 351 79 329
80 -12 1 -59 -5 -105 -13 -46 -8 -163 -26 -259 -40 -96 -15 -195 -30 -220 -34
-46 -8 -51 -16 -34 -56 6 -17 3 -16 -27 6 -43 33 -79 51 -79 41 0 -4 18 -32
40 -60 22 -29 37 -53 34 -53 -3 0 -19 7 -36 16 l-31 16 6 -36 6 -36 -202 -144
c-111 -79 -229 -157 -262 -173 -116 -58 -211 -66 -294 -24 -53 28 -132 117
-166 189 -32 67 -44 75 -25 15 19 -58 57 -132 92 -175 29 -37 31 -47 33 -121
1 -45 5 -109 10 -143 l7 -61 -33 -19 -34 -20 -42 29 c-47 34 -74 32 -121 -8
-26 -21 -33 -23 -59 -13 -16 6 -42 8 -57 4 -39 -10 -118 -92 -147 -153 -13
-29 -27 -52 -31 -53 -3 0 -12 16 -18 35 -23 69 -2 152 121 480 43 116 92 262
109 325 58 214 69 245 100 283 28 33 36 37 78 37 34 0 61 -8 97 -30 93 -55 99
-62 97 -121 -1 -53 0 -51 24 41 54 209 111 356 211 544 126 233 342 499 541
664 71 59 70 71 -2 17 -25 -20 -46 -35 -47 -33 -15 55 2 277 33 417 76 355
290 696 505 806 112 57 260 70 399 35z m474 -277 c85 -96 130 -195 130 -286 0
-65 -23 -103 -77 -123 -84 -32 -145 1 -259 142 l-71 88 21 50 c36 85 133 169
203 175 6 1 30 -20 53 -46z m1847 -741 c-12 -163 -51 -309 -120 -447 l-40 -80
-12 35 c-11 30 -10 39 6 65 49 83 110 285 133 439 l5 39 -37 -5 c-20 -3 -117
-29 -214 -58 -160 -48 -180 -52 -207 -40 -17 7 -31 15 -31 19 0 17 411 117
494 120 l29 1 -6 -88z m-53 -4 c-19 -109 -28 -152 -51 -228 -14 -46 -39 -111
-55 -144 -34 -68 -33 -68 -74 37 -26 66 -58 107 -83 107 -19 0 -201 82 -201
90 0 10 149 -9 172 -21 45 -24 26 2 -32 42 -57 41 -59 44 -38 52 55 20 325 96
345 96 20 1 22 -3 17 -31z m-254 -738 c34 -18 52 -123 30 -175 -7 -17 -9 -15
-9 11 -1 39 -35 84 -65 84 -49 0 -95 -64 -97 -137 l-1 -38 -10 41 c-30 124 66
260 152 214z m-571 -114 c66 -34 122 -125 121 -196 -1 -20 -3 -18 -15 13 -26
74 -89 114 -147 95 -35 -12 -62 -68 -53 -111 8 -36 35 -87 47 -87 4 0 8 -5 8
-11 0 -6 -14 -1 -30 11 -102 73 -136 222 -63 280 31 24 91 27 132 6z m1005
-85 c17 -18 15 -20 -35 -44 l-52 -24 37 -13 c32 -10 152 -107 143 -116 -1 -2
-22 4 -46 12 -51 17 -142 15 -149 -3 -2 -7 4 -13 13 -13 20 0 75 -28 75 -38 0
-5 -46 -8 -102 -8 -57 1 -121 -2 -143 -6 -39 -7 -41 -6 -66 36 l-26 43 73 54
c68 51 226 138 250 139 6 0 19 -9 28 -19z m-95 -289 c-24 -16 -71 -53 -104
-83 -56 -52 -62 -55 -95 -48 -19 4 -38 5 -42 3 -13 -8 -9 4 12 38 11 18 20 50
20 70 0 43 2 44 154 47 l100 1 -45 -28z m-186 -148 c16 -5 14 -11 -16 -53 -19
-26 -57 -92 -86 -148 -84 -163 -202 -301 -302 -354 -65 -34 -161 -33 -256 4
-64 25 -223 113 -247 137 -8 8 88 150 102 150 4 0 18 -19 31 -42 35 -62 116
-144 164 -166 162 -76 305 12 419 256 23 48 43 81 45 75 8 -24 20 -13 26 25
21 135 30 143 120 116z m-858 -121 c5 -28 3 -38 -9 -45 -9 -5 -54 -40 -101
-79 l-85 -70 -40 23 c-22 13 -40 26 -40 30 0 7 250 178 261 178 4 0 10 -17 14
-37z m32 -87 c16 -34 16 -35 -13 -71 -16 -20 -43 -56 -60 -80 l-31 -43 -49 34
c-27 19 -49 39 -49 45 0 10 164 149 177 149 5 0 16 -16 25 -34z m-284 -102
l37 -25 -37 -47 c-59 -75 -60 -81 -2 -19 l54 57 33 -21 c17 -11 32 -25 32 -31
0 -5 -35 -44 -77 -86 -60 -60 -97 -87 -163 -119 -86 -42 -200 -78 -200 -63 0
5 9 12 20 15 66 21 147 150 157 249 5 48 10 57 46 85 22 17 46 31 51 31 6 0
28 -11 49 -26z m675 -79 c28 -15 52 -32 52 -37 0 -11 -78 -47 -101 -48 -39 0
-119 33 -158 67 -39 33 -42 38 -25 45 11 4 55 6 99 5 66 -3 90 -8 133 -32z
m-800 -300 c38 -64 174 -130 362 -176 52 -13 97 -25 99 -26 2 -1 -11 -19 -30
-40 -19 -21 -43 -57 -53 -81 l-19 -43 -37 36 c-49 48 -140 80 -186 65 -69 -23
-119 -112 -144 -258 l-13 -73 -31 6 c-42 9 -174 71 -213 101 -18 13 -44 39
-57 57 -24 31 -24 35 -11 72 18 52 19 186 1 255 -8 30 -13 56 -12 57 1 2 36 7
77 13 77 11 193 43 219 60 23 15 26 13 48 -25z m-2759 -231 c57 -51 124 -162
119 -195 -3 -24 -45 -43 -123 -54 -43 -7 -45 -6 -45 16 -1 35 -44 153 -71 190
l-23 32 34 29 c19 15 40 28 46 28 7 0 35 -21 63 -46z m195 -5 c35 -30 71 -106
77 -164 4 -29 2 -30 -50 -38 -29 -5 -56 -5 -61 0 -4 4 -15 28 -24 52 -10 25
-33 68 -52 96 -19 29 -34 55 -34 59 0 11 42 25 77 25 22 1 43 -8 67 -30z
m3145 -8 c28 -30 64 -135 76 -222 5 -43 4 -49 -22 -67 -36 -24 -108 -51 -152
-54 -33 -3 -34 -2 -51 58 -10 33 -27 82 -39 108 l-21 49 22 45 c54 109 131
143 187 83z m-3498 -23 c31 -35 65 -114 75 -177 l6 -39 -65 -7 c-36 -4 -85 -4
-108 0 -50 9 -149 50 -149 62 0 4 19 38 43 75 74 118 142 147 198 86z m1863
-38 c19 -22 43 -57 51 -77 21 -49 61 -187 70 -239 6 -39 4 -44 -28 -68 -41
-31 -131 -50 -196 -41 l-46 6 -17 110 c-11 65 -28 131 -42 161 l-25 52 32 40
c57 73 88 96 133 96 24 0 40 -9 68 -40z m1289 10 c93 -35 148 -108 162 -215 5
-38 3 -54 -7 -63 -23 -19 -178 -52 -243 -52 -53 0 -131 12 -140 22 -7 7 26
167 46 214 27 69 65 104 121 113 4 0 31 -8 61 -19z m-1164 -47 c34 -42 73
-136 94 -230 16 -70 12 -78 -41 -89 -28 -6 -32 -4 -37 22 -21 102 -58 232 -78
274 -13 27 -22 52 -19 55 16 16 54 1 81 -32z m-440 -38 c66 -34 97 -98 122
-250 l12 -78 -26 -23 c-44 -38 -130 -64 -210 -64 -72 0 -193 27 -248 55 l-28
15 43 87 c106 215 232 312 335 258z"/>
<path d="M3133 3564 c13 -251 160 -559 319 -666 50 -34 68 -35 95 -5 68 74 71
165 5 202 l-27 16 30 -6 c17 -3 39 -9 49 -12 17 -5 18 -1 13 33 -4 21 -16 51
-27 66 -27 37 -13 36 28 -2 18 -16 34 -30 36 -30 1 0 1 13 -2 29 -2 16 1 37 7
48 10 17 10 17 11 -3 0 -19 36 -62 44 -53 16 18 86 170 86 187 0 12 -14 32
-33 46 -76 58 -514 245 -595 254 l-45 5 6 -109z m87 72 c79 -24 352 -136 450
-184 127 -63 131 -72 78 -174 -33 -64 -43 -77 -54 -67 -8 6 -14 25 -14 42 0
29 0 30 -20 12 -11 -10 -20 -29 -20 -42 l0 -25 -34 21 c-18 12 -44 21 -57 21
-23 -1 -23 -1 -5 -15 28 -21 56 -67 56 -91 0 -19 -4 -21 -42 -17 -24 3 -56 -1
-73 -8 l-30 -13 46 -6 c26 -3 53 -11 62 -18 25 -21 29 -70 9 -116 -39 -87 -77
-85 -168 7 -137 141 -254 422 -254 613 0 82 -1 82 70 60z"/>
<path d="M2551 3388 c63 -122 271 -358 404 -460 118 -89 339 -189 414 -187 26
1 26 1 -4 10 -135 45 -265 116 -389 213 -93 73 -310 292 -380 384 -49 64 -65
79 -45 40z"/>
<path d="M3800 3117 c-65 -34 -89 -88 -89 -197 -1 -94 17 -147 63 -189 24 -22
39 -18 16 5 -18 18 -42 135 -35 172 10 56 43 111 78 133 53 33 101 21 282 -69
141 -71 215 -101 215 -88 0 2 -31 22 -70 45 -38 23 -98 65 -132 94 -83 69
-104 82 -168 101 -73 22 -109 20 -160 -7z"/>
<path d="M5395 1116 c-17 -7 -46 -30 -65 -49 -19 -20 -37 -33 -40 -29 -18 26
-67 52 -97 52 -49 0 -71 -15 -84 -59 -15 -52 -5 -99 32 -151 17 -23 29 -43 27
-44 -27 -14 -112 -77 -140 -105 -30 -27 -41 -32 -50 -23 -19 19 -92 15 -119
-7 -23 -18 -23 -20 -6 -39 15 -17 37 -20 177 -26 293 -13 540 -8 649 13 105
21 127 30 221 90 95 62 162 61 340 -4 84 -31 240 -44 320 -27 41 9 36 10 -51
11 -101 1 -102 1 -334 85 -110 40 -181 45 -250 21 -39 -14 -41 -14 -82 15 -55
40 -159 89 -204 96 -35 6 -37 8 -41 54 -11 107 -108 167 -203 126z m126 -55
c72 -72 1 -211 -107 -211 -47 0 -77 19 -94 59 -23 57 16 148 74 171 46 19 96
11 127 -19z m-263 -33 c18 -17 22 -32 22 -78 0 -55 -1 -57 -36 -74 -32 -15
-39 -15 -59 -2 -28 18 -55 75 -55 115 0 20 9 41 24 56 22 22 29 23 53 14 15
-6 38 -20 51 -31z m444 -139 c52 -20 121 -61 153 -90 19 -17 22 -17 80 3 78
26 152 20 265 -23 47 -17 103 -37 125 -45 22 -7 31 -13 20 -13 -11 -1 -71 17
-134 39 -176 61 -240 56 -367 -31 -22 -15 -67 -34 -100 -43 -89 -23 -322 -39
-469 -32 -71 3 -163 7 -202 8 -40 0 -73 4 -73 8 0 20 192 159 257 187 34 14
38 14 52 -5 22 -28 74 -52 112 -52 46 0 124 46 145 86 17 31 21 34 54 28 19
-4 56 -15 82 -25z"/>
</g>
</svg>
