<?xml version="1.0" standalone="no"?>
<!DOCTYPE svg PUBLIC "-//W3C//DTD SVG 20010904//EN"
 "http://www.w3.org/TR/2001/REC-SVG-20010904/DTD/svg10.dtd">
<svg version="1.0" xmlns="http://www.w3.org/2000/svg"
 width="622.000000pt" height="880.000000pt" viewBox="0 0 622.000000 880.000000"
 preserveAspectRatio="xMidYMid meet">
<metadata>
Created by potrace 1.16, written by Peter Selinger 2001-2019
</metadata>
<g transform="translate(0.000000,880.000000) scale(0.100000,-0.100000)"
fill="#000000" stroke="none">
<path d="M3442 8470 c-99 -26 -199 -81 -275 -151 l-64 -58 -12 55 c-7 30 -24
68 -39 85 -24 29 -28 31 -76 24 -146 -19 -295 -173 -316 -328 -14 -95 -38
-112 -181 -127 -82 -8 -93 -12 -161 -58 -116 -78 -127 -132 -47 -218 l30 -31
-36 -18 -35 -19 -47 46 c-128 124 -315 202 -608 253 -49 8 -106 19 -126 24
l-37 8 -6 -52 c-7 -62 9 -199 30 -263 19 -54 50 -105 92 -150 l32 -34 -52 -47
c-50 -46 -52 -50 -56 -109 -10 -146 80 -282 268 -401 l65 -40 -140 5 -140 6
-24 31 c-54 70 -191 194 -257 233 -240 141 -515 163 -731 58 -89 -43 -163
-121 -215 -226 -50 -101 -130 -316 -123 -328 9 -15 31 -12 46 6 20 25 105 64
138 64 47 0 70 -13 171 -100 52 -46 119 -98 148 -118 29 -19 49 -38 45 -42 -4
-4 -37 -17 -73 -30 -84 -30 -128 -58 -174 -112 -53 -61 -114 -190 -132 -278
-18 -84 -15 -197 5 -209 23 -15 234 -21 346 -11 135 12 251 40 328 80 l57 30
0 -45 c0 -85 38 -138 139 -193 l53 -30 -203 -5 c-240 -5 -294 -17 -366 -81
-61 -53 -76 -91 -63 -152 6 -26 19 -59 30 -74 20 -28 86 -65 135 -75 27 -6 22
-10 -73 -60 -120 -63 -183 -107 -241 -170 -53 -57 -71 -100 -71 -165 0 -49 3
-55 56 -110 93 -98 229 -153 416 -166 134 -10 209 22 356 151 35 30 67 53 71
50 5 -2 11 -32 15 -66 12 -119 69 -178 181 -187 l64 -5 16 -54 c39 -134 52
-152 277 -376 241 -240 395 -418 509 -590 146 -221 253 -479 204 -493 -5 -2
-28 26 -50 62 -23 38 -81 105 -137 159 -150 144 -265 192 -438 183 -159 -9
-331 -88 -495 -225 -106 -89 -185 -134 -237 -135 -35 0 -46 5 -75 36 -54 57
-59 51 -58 -77 0 -111 -1 -114 -39 -191 -29 -59 -59 -99 -120 -161 -44 -45
-98 -95 -119 -111 -51 -39 -43 -57 38 -79 124 -33 286 -150 381 -275 49 -64
68 -64 89 0 18 54 65 107 191 217 62 54 73 69 83 111 19 76 -11 183 -69 248
-16 19 -30 41 -30 48 0 20 103 113 188 169 98 66 153 89 205 85 l42 -3 -1 -75
c-1 -41 -13 -142 -27 -225 -34 -201 -40 -250 -32 -274 9 -30 42 -26 59 8 20
37 109 117 180 160 94 56 230 104 364 126 53 9 54 -4 12 -93 -60 -126 -152
-224 -385 -404 -74 -58 -121 -101 -123 -114 -2 -16 14 -33 67 -72 64 -47 161
-153 161 -177 0 -20 -60 -167 -104 -253 -60 -120 -102 -184 -196 -296 -81 -98
-101 -137 -83 -164 5 -8 33 -29 62 -45 66 -38 170 -49 219 -23 37 19 88 78
123 143 21 39 31 47 50 45 13 -1 52 -5 87 -9 l62 -5 0 -33 c0 -18 -7 -70 -16
-116 -17 -91 -13 -149 14 -193 14 -23 34 -34 107 -57 104 -32 163 -36 211 -13
53 25 67 62 66 171 -1 76 1 93 14 93 8 0 16 -6 18 -12 2 -7 18 -76 35 -153 44
-197 59 -243 80 -250 19 -6 159 28 195 47 21 11 19 38 -7 178 -8 41 -18 91
-22 111 l-7 37 53 7 c29 4 75 15 103 25 50 17 51 18 50 56 -1 21 -5 64 -9 95
l-7 56 87 36 c94 40 115 44 115 23 0 -7 11 -33 23 -57 13 -24 27 -56 31 -71 8
-34 28 -35 69 -4 18 13 60 38 95 55 34 17 62 34 62 38 0 3 -15 29 -34 57 -18
28 -50 84 -71 125 -20 41 -78 143 -128 225 -94 158 -131 231 -152 306 -30 104
-35 93 65 134 116 48 154 75 158 108 3 24 -5 31 -95 77 -111 57 -191 122 -229
186 l-25 43 56 115 c30 63 55 119 55 125 0 13 150 53 227 60 57 4 63 3 88 -23
30 -29 29 -13 9 -205 -8 -73 7 -110 43 -110 16 0 78 25 139 56 128 64 182 75
229 46 40 -25 88 -115 95 -177 7 -71 28 -70 73 4 91 147 282 304 459 376 46
19 83 40 83 47 0 29 -102 182 -140 210 -38 29 -43 30 -125 25 -93 -5 -164 -26
-350 -103 -67 -28 -132 -48 -155 -48 l-40 -1 2 40 c1 22 15 70 32 107 68 149
29 219 -112 199 -129 -18 -238 -69 -385 -181 -104 -79 -105 -78 -68 40 53 170
159 332 359 546 261 280 345 396 421 577 14 32 20 37 49 37 95 0 237 63 371
164 47 36 90 67 96 71 5 3 43 -62 86 -145 84 -167 168 -286 247 -353 133 -112
293 -166 492 -167 98 -1 150 -12 179 -39 12 -12 27 -21 32 -21 6 0 29 39 52
88 124 261 143 398 92 648 -41 197 -111 368 -216 526 -104 156 -222 235 -372
247 l-77 6 3 33 c3 29 -13 165 -24 202 -3 12 11 18 58 27 77 15 186 69 255
125 28 24 100 88 160 144 116 107 119 109 296 148 47 11 34 39 -28 65 -31 13
-86 44 -123 69 -301 205 -302 206 -492 207 -69 0 -162 -4 -207 -9 l-83 -9 3
71 c2 80 -12 109 -77 151 l-37 25 77 28 c98 35 152 67 196 116 43 48 62 101
55 154 -9 68 -30 89 -127 125 -23 9 -21 11 35 32 110 42 265 62 320 41 16 -6
33 -7 43 -1 13 7 9 12 -19 26 -73 38 -281 12 -409 -52 -48 -24 -118 -47 -192
-64 -65 -14 -118 -24 -118 -22 0 3 11 24 25 47 17 29 24 55 22 81 l-2 39 60
16 c67 18 105 36 185 89 103 68 195 94 315 88 109 -5 198 -34 237 -77 53 -58
73 -203 40 -291 -18 -45 -241 -119 -360 -119 -43 0 -45 -1 -30 -17 23 -22 90
-20 190 6 87 22 207 68 225 85 7 6 15 52 19 102 12 164 -27 249 -139 303 -90
44 -181 56 -284 39 -46 -8 -83 -12 -83 -10 0 2 32 42 72 90 96 116 129 188
130 281 1 87 -15 115 -80 144 -72 32 -162 28 -246 -11 -104 -49 -228 -154
-301 -256 -20 -27 -20 -27 -57 -12 -55 23 -141 20 -222 -9 -71 -25 -79 -25
-185 4 -24 7 -24 8 12 30 70 43 105 108 79 148 -23 36 -118 42 -234 14 -81
-19 -88 -18 -88 9 0 9 -9 25 -20 35 -16 14 -29 16 -72 11 l-53 -7 -2 42 c-4
61 -31 100 -88 129 -82 41 -240 38 -415 -7 -19 -4 -7 13 56 78 96 100 126 148
128 199 1 47 -31 85 -83 100 -49 14 -74 12 -159 -10z m173 -32 c37 -17 35 -81
-4 -134 -42 -58 -200 -206 -265 -249 -54 -36 -67 -57 -46 -70 6 -4 54 12 108
35 148 64 235 83 356 78 155 -7 206 -37 206 -121 0 -26 -12 -42 -72 -99 -70
-65 -75 -68 -123 -68 -102 0 -185 -47 -185 -103 0 -22 -6 -26 -42 -32 -57 -9
-143 -50 -160 -78 -8 -12 -18 -34 -21 -48 -14 -56 -184 -96 -295 -69 -28 6
-53 18 -56 26 -9 23 -34 16 -50 -14 -18 -34 -93 -105 -134 -126 -32 -16 -108
-21 -128 -8 -20 13 -34 50 -34 91 0 52 -25 69 -69 46 -45 -23 -57 -19 -69 23
-6 20 -25 58 -41 85 -31 48 -58 65 -140 87 -87 23 -117 91 -65 144 55 54 125
85 231 101 55 8 108 18 117 21 24 9 51 68 70 153 22 95 33 116 98 178 62 58
118 90 176 99 36 6 42 4 59 -22 14 -23 18 -48 18 -124 0 -78 3 -95 15 -95 8 0
22 16 32 36 24 51 154 169 229 207 100 51 232 74 284 50z m1797 -505 c18 -18
22 -34 22 -85 0 -101 -52 -192 -200 -351 -94 -100 -255 -196 -311 -185 -22 4
170 199 250 253 55 37 73 65 42 65 -41 0 -111 -53 -234 -177 -127 -128 -135
-134 -170 -131 l-36 3 1 75 c1 83 16 128 92 263 69 120 221 250 341 288 14 4
61 7 103 6 65 -2 81 -6 100 -24z m-1292 -37 c0 -7 -9 -25 -20 -39 -44 -56 -22
-64 76 -26 115 44 264 53 264 15 0 -26 -50 -75 -111 -108 -90 -50 -78 -72 43
-81 74 -5 115 -18 130 -41 30 -44 -24 -115 -95 -126 -33 -5 -53 -3 -65 6 -30
23 -42 16 -42 -24 0 -73 -96 -168 -179 -179 -39 -5 -41 -4 -41 21 0 35 -28 34
-63 -2 -47 -48 -184 -113 -255 -119 -93 -9 -112 14 -68 80 21 31 23 37 10 48
-12 10 -25 9 -66 -6 -76 -27 -187 -12 -188 27 0 16 53 67 85 83 55 25 44 49
-27 55 -102 9 -131 68 -56 117 36 24 52 28 120 29 43 1 81 4 85 8 3 3 -2 15
-11 25 -47 52 32 116 134 108 30 -2 65 -8 77 -12 19 -6 22 -3 25 26 2 23 14
40 40 62 62 50 198 87 198 53z m-2500 -21 c173 -34 286 -68 377 -112 79 -38
165 -108 188 -152 12 -25 11 -31 -27 -86 -22 -33 -43 -64 -48 -68 -4 -5 -51
26 -105 67 -137 108 -416 289 -427 278 -17 -17 4 -38 101 -100 122 -77 299
-205 364 -262 34 -31 46 -47 41 -59 -4 -9 -10 -79 -13 -156 l-6 -140 -65 110
c-109 183 -198 254 -350 275 -48 6 -59 13 -96 53 -73 81 -103 168 -104 300 0
92 -14 88 170 52z m3140 -201 c41 -9 47 -26 25 -72 -14 -30 -31 -44 -94 -74
-118 -58 -219 -140 -349 -284 -53 -59 -63 -66 -77 -54 -9 7 -33 16 -53 20 -29
4 -37 10 -35 25 1 11 10 25 20 30 32 17 120 112 132 143 11 26 18 30 67 35
103 11 161 70 149 153 l-6 41 63 21 c66 22 105 26 158 16z m-2320 -63 c69 -69
81 -275 23 -422 -52 -133 -188 -306 -243 -310 -54 -3 -58 0 -85 70 -27 68 -28
74 -22 218 7 169 19 225 64 303 89 155 194 211 263 141z m2295 -201 c0 -101
-5 -109 -65 -110 -53 0 -208 -72 -336 -156 l-28 -19 19 33 c27 44 132 151 205
207 44 34 199 136 205 135 0 0 0 -41 0 -90z m-1300 54 l45 -26 -30 -31 c-17
-18 -33 -40 -36 -49 -6 -20 22 -78 38 -78 7 0 0 -12 -14 -27 -13 -16 -40 -49
-58 -75 -18 -27 -36 -48 -39 -48 -3 0 -18 62 -33 138 -15 75 -29 144 -32 152
-5 11 9 22 51 42 32 14 59 26 61 27 2 1 23 -11 47 -25z m-799 -59 c7 -22 30
-55 50 -74 33 -31 40 -33 82 -27 64 9 118 37 185 96 55 50 57 51 94 41 21 -6
70 -11 110 -11 l71 0 26 -108 c14 -59 31 -146 37 -192 15 -111 37 -140 62 -82
26 56 88 141 129 175 36 29 53 36 100 39 l57 3 -6 -30 c-4 -18 -30 -56 -67
-95 -34 -36 -90 -100 -125 -142 -59 -72 -66 -77 -109 -83 -26 -3 -72 -9 -102
-14 -30 -5 -56 -8 -57 -7 -1 1 -9 36 -18 77 l-15 76 35 59 c39 64 45 112 21
169 -22 51 -65 70 -161 69 -95 -1 -218 -41 -328 -106 -38 -22 -69 -38 -70 -36
-2 1 -13 23 -25 48 -12 25 -31 59 -41 75 -11 17 -22 46 -26 65 -6 33 -4 36 27
46 45 15 48 14 64 -31z m-860 -19 c32 -15 72 -39 87 -54 16 -15 60 -88 97
-163 38 -74 83 -155 102 -180 38 -52 68 -103 68 -117 0 -5 -24 -28 -54 -50
l-54 -41 -149 77 c-82 43 -169 92 -194 109 -113 78 -176 173 -186 282 -6 67 9
104 59 146 30 25 38 27 99 23 42 -3 87 -15 125 -32z m1374 -101 c28 -25 26
-90 -3 -146 -44 -84 -233 -216 -430 -301 -83 -36 -379 -128 -411 -128 -9 0
-15 20 -19 63 l-6 62 107 103 c59 57 145 133 192 168 97 74 277 167 365 189
77 19 179 14 205 -10z m1691 -15 c25 -14 25 -74 0 -117 -24 -38 -100 -100
-192 -154 -47 -28 -69 -47 -69 -60 0 -11 5 -19 12 -19 6 0 66 27 132 60 67 33
157 70 201 81 96 25 264 30 312 10 65 -27 64 -112 -4 -191 -69 -80 -285 -160
-436 -160 -65 0 -68 -1 -65 -22 3 -22 8 -23 128 -28 129 -5 157 -13 193 -54
14 -17 17 -32 13 -81 -3 -33 -7 -67 -11 -75 -3 -9 -35 -23 -75 -34 -92 -23
-210 -82 -293 -144 -37 -29 -70 -52 -71 -52 -2 0 -6 12 -9 28 -20 93 -86 132
-227 132 -232 -1 -499 -106 -587 -232 -14 -21 -34 -38 -43 -38 -28 0 -68 38
-75 71 -10 45 -29 45 -73 1 -22 -22 -69 -54 -104 -70 -60 -29 -162 -55 -172
-44 -12 12 28 81 69 117 33 30 42 44 36 55 -8 12 -25 9 -108 -19 -161 -55
-293 -44 -361 30 -53 56 2 168 118 237 60 36 184 72 247 72 91 0 133 10 133
30 0 27 -25 31 -118 19 -157 -21 -290 6 -329 66 -32 51 61 139 180 169 141 35
359 12 463 -49 51 -30 54 -30 54 -6 0 11 -11 28 -25 39 -56 44 -57 110 -2 138
40 21 133 21 199 1 l47 -15 22 44 c38 80 147 153 240 162 46 4 49 3 49 -19 0
-14 -9 -41 -20 -62 -39 -72 -18 -108 33 -60 170 160 494 293 588 243z m-743
-24 c43 -14 41 -38 -5 -60 -57 -27 -130 -86 -160 -129 -25 -36 -29 -38 -62
-32 -51 9 -55 18 -36 68 9 25 14 50 11 56 -4 6 26 27 71 50 43 22 87 46 98 55
11 8 27 13 35 9 8 -3 30 -11 48 -17z m-3085 -55 c150 -44 258 -112 372 -232
l69 -74 -44 -8 c-25 -5 -78 -19 -119 -31 l-74 -23 -41 23 c-155 86 -388 121
-596 90 -118 -18 -215 -59 -288 -121 -23 -20 -42 -31 -42 -25 0 24 72 165 115
225 78 110 173 175 285 194 86 15 284 6 363 -18z m2735 -41 c47 0 52 -2 52
-22 0 -13 -9 -38 -20 -55 -15 -26 -27 -33 -50 -33 -39 0 -90 -21 -114 -48 -15
-17 -18 -32 -14 -71 l5 -49 -66 19 c-36 11 -76 19 -89 19 l-23 0 22 31 c12 18
63 74 112 126 72 75 95 93 111 89 12 -3 45 -6 74 -6z m-634 -187 c4 -27 9 -55
11 -63 3 -10 -13 -25 -45 -43 l-50 -27 -57 29 -57 28 59 38 c33 21 73 49 88
62 16 12 32 23 37 23 4 0 11 -21 14 -47z m-2174 -79 c87 -16 189 -49 216 -69
18 -13 17 -16 -27 -62 -78 -80 -96 -140 -64 -204 9 -16 13 -34 10 -39 -14 -23
-122 -52 -193 -52 -98 1 -166 33 -300 143 -194 159 -178 149 -235 149 l-50 0
22 24 c29 31 142 90 200 106 117 31 269 33 421 4z m1991 -60 c33 -15 59 -31
59 -35 0 -5 -17 -9 -38 -9 -51 0 -134 -25 -203 -62 -51 -27 -63 -29 -115 -23
-153 16 -153 12 -4 64 74 26 153 57 175 69 51 27 56 27 126 -4z m-697 -18 c21
-39 16 -64 -20 -113 -53 -70 -160 -105 -187 -61 -35 55 91 205 173 208 9 0 24
-15 34 -34z m-438 4 c45 -10 107 -31 138 -46 55 -26 57 -28 50 -58 -9 -44 -8
-43 -85 -81 -165 -84 -289 -120 -477 -139 -81 -9 -165 -13 -187 -10 -57 9
-110 41 -131 80 -15 28 -16 38 -5 74 24 82 120 157 236 186 29 7 120 13 215
13 131 1 182 -3 246 -19z m1175 -117 l20 -46 -21 -22 c-48 -51 -61 -51 -144
-2 l-77 45 53 26 c30 15 74 30 98 35 25 5 46 9 48 10 1 1 12 -20 23 -46z
m-425 -34 c60 -5 137 -19 171 -30 80 -26 175 -88 207 -135 l25 -37 -25 -42
c-15 -26 -24 -57 -24 -82 0 -37 -3 -42 -31 -52 -111 -39 -308 22 -469 143 -86
65 -190 164 -190 180 0 24 20 40 52 43 18 2 58 7 88 12 78 12 75 12 196 0z
m-522 -72 c17 -12 17 -17 -2 -98 -26 -105 -60 -199 -109 -292 -28 -53 -66 -99
-149 -182 l-111 -111 -6 140 c-6 133 -20 215 -45 263 -11 19 -6 26 46 70 89
77 162 129 248 178 84 48 100 52 128 32z m189 -59 c162 -191 247 -357 247
-484 0 -92 -29 -137 -112 -180 -105 -54 -190 -19 -250 103 l-33 68 2 235 c1
129 6 248 11 265 8 28 30 41 74 44 9 1 37 -23 61 -51z m-534 -65 c-19 -15 -52
-44 -74 -64 -37 -33 -42 -35 -65 -22 -14 7 -39 13 -56 13 -23 0 -36 7 -48 25
-16 24 -15 24 17 29 105 17 210 38 230 45 34 13 33 5 -4 -26z m-516 -8 c22 -9
68 -15 115 -15 65 0 84 -4 106 -21 14 -11 26 -27 26 -34 0 -20 -63 -35 -143
-35 -60 0 -168 -22 -238 -48 -21 -8 -32 -3 -84 44 -65 58 -66 56 35 74 36 7
81 20 100 31 43 22 40 22 83 4z m4414 -44 c37 -12 110 -54 175 -99 l113 -77
-195 -7 c-240 -8 -376 -31 -553 -95 -84 -30 -199 -86 -242 -117 -16 -12 -85
-42 -152 -65 -67 -24 -151 -58 -186 -76 l-65 -32 43 70 c39 62 83 167 100 237
11 49 176 161 315 215 194 74 502 96 647 46z m-3182 -27 c48 -36 146 -90 197
-109 l48 -18 -28 -27 c-21 -21 -40 -29 -84 -33 -52 -5 -58 -4 -64 16 -6 19
-37 70 -113 187 -18 27 -11 25 44 -16z m-1542 -8 c29 -18 65 -47 80 -63 l28
-30 -25 -17 c-45 -29 -68 -21 -150 57 -42 40 -74 76 -70 80 19 19 87 6 137
-27z m-155 -18 c55 -49 93 -91 108 -120 9 -16 14 -31 12 -32 -249 -162 -353
-243 -398 -309 -14 -20 -33 -37 -42 -37 -15 0 -18 10 -18 68 0 171 102 361
229 427 58 30 77 31 109 3z m847 -32 c43 -43 50 -85 50 -331 0 -212 1 -230 18
-233 13 -3 23 9 38 42 11 25 56 84 100 131 76 80 84 85 122 85 61 0 121 -34
173 -98 53 -65 104 -161 104 -196 0 -62 -53 -122 -180 -206 -44 -29 -80 -56
-80 -60 0 -4 6 -13 13 -19 10 -8 34 -2 98 23 226 91 563 150 638 112 36 -19
37 -30 16 -131 -24 -115 -156 -369 -218 -421 -125 -106 -331 -89 -557 45 -37
23 -73 41 -79 41 -25 0 -33 -82 -20 -196 20 -184 1 -220 -155 -296 -59 -28
-93 -38 -128 -38 -97 0 -130 39 -147 174 -7 57 -15 85 -30 99 l-20 21 -83 -80
c-46 -44 -108 -94 -139 -111 -61 -35 -153 -63 -210 -63 -110 0 -329 89 -393
160 -30 34 -36 47 -36 85 0 133 134 244 462 384 53 22 106 41 117 41 27 0 37
19 19 36 -12 13 -23 12 -84 -2 -94 -22 -190 -22 -232 0 -41 21 -78 92 -68 130
9 38 60 91 109 114 23 11 74 25 114 31 83 13 325 14 428 2 130 -15 112 16 -58
99 -162 80 -179 111 -133 248 40 116 85 191 167 274 114 116 213 155 264 104z
m2939 13 c21 -6 50 -22 63 -36 24 -23 25 -29 21 -113 -4 -80 -8 -97 -46 -173
-23 -46 -73 -124 -112 -174 -38 -50 -70 -96 -70 -102 0 -25 26 -19 89 23 92
62 187 104 361 161 128 42 153 47 214 43 l69 -4 53 -56 c77 -84 126 -232 128
-388 1 -63 -4 -84 -27 -132 -53 -108 -143 -160 -315 -180 -83 -9 -128 -8 -307
11 -115 12 -213 21 -217 21 -5 0 -8 -8 -8 -19 0 -13 32 -35 123 -81 226 -117
296 -171 317 -246 11 -39 10 -48 -11 -91 -49 -103 -237 -251 -386 -304 -68
-25 -186 -30 -222 -10 -49 27 -114 97 -142 153 -22 44 -99 295 -99 324 0 2 -8
4 -18 4 -14 0 -24 -24 -50 -122 -18 -68 -38 -155 -45 -194 -31 -168 -175 -287
-363 -301 -210 -16 -460 80 -615 237 -128 131 -142 249 -42 360 59 66 138 119
283 191 143 71 229 99 418 135 13 3 22 12 22 23 0 17 -10 18 -132 17 -159 -1
-354 21 -376 43 -19 19 -12 175 13 274 26 101 83 206 131 239 78 55 204 57
348 5 89 -33 146 -69 221 -139 53 -49 66 -57 71 -43 7 17 3 36 -35 179 -26 97
-26 148 -2 201 36 79 183 186 317 229 128 42 298 57 378 35z m-3252 -98 c-56
-66 -103 -136 -147 -226 -16 -33 -33 -47 -93 -76 -63 -32 -199 -75 -208 -67
-4 4 29 119 54 191 40 113 52 130 116 161 62 30 261 85 309 86 28 0 28 -1 -31
-69z m792 -188 l6 -53 -47 30 c-26 17 -55 30 -65 30 -10 0 -18 3 -18 8 0 4 23
52 50 106 28 55 51 107 51 115 1 9 5 -29 10 -84 4 -55 10 -124 13 -152z m928
170 c34 -32 38 -77 8 -93 -11 -6 -20 -20 -20 -31 0 -23 18 -23 85 -1 17 5 40
6 53 1 30 -11 17 -38 -32 -64 -37 -20 -48 -51 -22 -61 8 -3 28 2 45 10 35 19
67 21 77 5 7 -11 -11 -82 -27 -109 -5 -8 -22 -37 -38 -63 -37 -62 -84 -97
-131 -97 -20 0 -41 5 -47 11 -18 18 -33 0 -33 -41 0 -33 -6 -43 -36 -67 -44
-33 -114 -39 -171 -13 -21 9 -60 20 -87 23 -72 10 -94 28 -98 79 l-3 43 -62
-3 c-61 -3 -62 -3 -69 24 -5 18 -3 29 5 32 32 11 108 71 129 102 21 32 23 44
21 135 l-3 100 27 9 c19 7 38 6 63 -3 40 -14 43 -13 49 19 3 13 8 26 12 30 18
15 95 30 159 31 38 0 78 4 89 9 28 12 26 13 57 -17z m2930 -45 l71 -11 -44
-14 c-76 -22 -135 -64 -252 -180 -63 -61 -135 -125 -162 -142 -48 -31 -141
-64 -206 -75 -35 -6 -35 -6 -58 50 -47 111 -159 214 -236 214 -27 0 -25 3 25
26 129 61 349 118 520 137 81 9 276 6 342 -5z m-2584 -36 c-43 -77 11 -127
109 -103 53 14 154 63 200 98 l32 25 51 -44 c48 -41 50 -45 44 -83 -3 -26 2
-74 16 -133 12 -51 20 -96 18 -101 -2 -5 -37 13 -78 40 -152 100 -343 142
-477 103 -19 -5 -23 -2 -23 17 0 30 -9 43 -38 58 -19 10 -22 17 -16 45 7 41
-21 72 -73 82 -18 3 -33 11 -33 16 0 7 14 8 38 4 86 -16 139 -16 187 -2 28 8
53 15 57 15 3 1 -3 -16 -14 -37z m-2488 -8 c0 -4 -16 -57 -34 -118 -19 -61
-37 -123 -41 -138 -5 -26 -9 -28 -50 -28 l-44 0 5 33 c3 17 17 68 31 112 23
74 29 83 71 112 47 32 62 38 62 27z m-196 -203 l-17 -81 -74 0 c-40 0 -73 4
-73 9 0 22 165 169 177 157 3 -2 -3 -40 -13 -85z m1664 -137 c27 -4 34 -10 39
-35 7 -36 51 -62 87 -53 22 5 27 1 40 -31 22 -51 21 -55 -16 -55 -35 0 -230
-40 -285 -58 l-32 -10 39 49 c54 69 59 108 25 191 -7 18 -3 18 103 2z m742
-121 c0 -3 -7 -42 -16 -85 -9 -47 -15 -110 -12 -153 5 -111 37 -135 198 -150
36 -4 74 -9 84 -12 23 -7 1 -17 -147 -69 -107 -37 -167 -41 -342 -25 -44 4
-102 4 -129 -1 -28 -4 -51 -6 -53 -4 -2 1 15 43 36 92 45 100 71 190 71 244 0
35 1 35 44 36 58 2 118 37 145 85 21 37 34 43 99 48 12 0 22 -2 22 -6z m2484
-302 c96 -47 177 -131 248 -256 31 -55 68 -129 82 -164 25 -61 43 -131 34
-131 -2 0 -62 13 -134 30 -71 16 -178 35 -239 42 l-110 12 -69 64 c-81 73
-230 176 -272 186 -29 8 -28 8 31 37 72 36 154 114 185 176 l22 45 77 -3 c62
-3 89 -10 145 -38z m-754 -202 c150 -10 173 -14 258 -46 51 -20 110 -48 132
-64 l40 -29 -64 -85 c-36 -46 -104 -150 -151 -230 -48 -81 -91 -143 -95 -138
-4 4 -21 34 -38 67 l-31 59 27 39 c19 30 27 56 30 102 3 55 1 65 -29 110 -38
57 -115 116 -228 175 -44 23 -81 44 -81 47 0 7 52 5 230 -7z m-1817 -47 c27
-7 27 -8 -45 -59 -82 -59 -120 -102 -150 -170 -55 -125 41 -298 241 -434 42
-29 80 -56 85 -60 5 -4 -5 -25 -21 -46 -69 -88 -119 -190 -223 -451 -18 -46
-36 -80 -40 -75 -4 4 -25 58 -47 118 -131 356 -166 607 -129 900 28 215 48
280 88 289 30 6 205 -2 241 -12z m-326 -24 c-3 -13 -14 -59 -26 -103 -12 -44
-27 -137 -33 -207 -28 -312 46 -661 230 -1083 93 -214 126 -322 151 -491 12
-78 21 -150 21 -161 0 -16 -20 -28 -87 -57 -89 -38 -178 -54 -227 -42 -26 6
-26 7 -20 74 6 62 4 74 -31 157 -120 292 -323 565 -696 936 -103 102 -199 205
-213 228 -31 49 -61 122 -70 172 -6 33 -4 36 32 52 70 31 130 78 162 125 l32
47 -7 116 c-4 63 -3 132 0 152 l7 36 77 -39 c218 -111 362 -126 509 -54 40 20
64 41 95 85 52 72 105 104 94 57z m2682 -154 l51 -46 -61 -66 c-64 -70 -182
-241 -259 -374 -25 -43 -48 -78 -51 -78 -3 0 -20 31 -38 68 l-33 68 37 74 c79
156 256 400 291 400 6 0 35 -21 63 -46z m-1255 -322 c34 -67 87 -126 142 -158
l43 -25 -14 -45 c-33 -109 -129 -242 -361 -499 -316 -348 -413 -511 -454 -762
-6 -39 -17 -78 -23 -86 -10 -12 -34 -13 -139 -8 -70 4 -129 9 -133 12 -10 10
15 198 51 376 19 95 34 182 34 193 0 27 -16 18 -35 -20 -18 -35 -70 -295 -88
-440 -12 -100 -14 -105 -37 -105 -23 0 -24 5 -41 124 -31 211 -59 307 -162
553 -9 23 -5 38 30 115 22 48 44 99 48 113 35 115 147 320 207 378 33 32 35
32 69 18 80 -33 189 -49 302 -44 149 7 221 37 321 134 52 50 73 102 101 247
13 67 29 136 35 152 12 29 13 28 44 -70 18 -55 45 -124 60 -153z m1491 228
c39 -5 137 -26 219 -47 132 -34 149 -41 158 -63 16 -42 38 -159 38 -202 0 -37
-2 -40 -22 -34 -70 20 -207 46 -244 46 -33 0 -44 4 -49 19 -9 30 -82 139 -141
213 -30 37 -54 69 -54 72 0 8 13 7 95 -4z m-97 -57 c65 -76 121 -160 176 -264
37 -69 55 -124 96 -288 28 -112 49 -205 47 -207 -9 -9 -368 27 -406 41 -84 29
-183 89 -249 150 -102 95 -103 97 -52 192 83 156 295 433 332 433 3 0 28 -26
56 -57z m371 -303 c46 -11 97 -30 113 -41 27 -19 29 -25 23 -63 -12 -80 -47
-192 -87 -284 -22 -51 -42 -91 -45 -89 -2 2 -26 89 -53 193 -45 174 -65 241
-85 287 -10 23 26 23 134 -3z m-3657 -1120 c111 -41 252 -163 338 -292 64 -96
73 -204 19 -220 -13 -4 -72 -18 -130 -31 -165 -38 -303 -106 -437 -214 l-34
-27 7 50 c4 27 16 92 27 144 11 52 22 145 25 206 6 108 5 111 -18 128 -54 37
-165 10 -291 -73 -92 -60 -228 -178 -228 -197 0 -8 15 -30 34 -48 46 -47 79
-120 84 -189 5 -71 -17 -110 -105 -182 -99 -83 -134 -119 -155 -159 l-19 -38
-82 79 c-118 114 -219 180 -328 216 -11 4 13 34 91 114 134 136 180 220 188
338 4 70 12 89 27 65 3 -5 27 -10 53 -10 59 0 150 50 301 164 168 127 259 175
379 196 70 13 191 4 254 -20z m1876 -2 c19 -19 14 -53 -24 -150 -25 -65 -34
-101 -30 -122 18 -89 93 -89 289 0 105 48 260 94 317 94 65 0 123 -48 169
-138 12 -24 20 -49 18 -56 -3 -7 -45 -30 -94 -51 -159 -70 -317 -195 -388
-307 -17 -27 -33 -48 -37 -48 -3 0 -11 15 -18 34 -18 54 -67 121 -103 141 -58
31 -142 17 -267 -44 -58 -27 -109 -46 -113 -42 -5 5 -3 51 4 103 14 108 8 156
-24 186 -49 46 -103 52 -217 22 -104 -27 -104 -27 -95 18 11 63 51 109 173
200 154 115 275 169 383 171 25 1 50 -4 57 -11z m-676 -386 c11 -11 -87 -231
-110 -249 -21 -17 -88 -16 -143 2 -62 20 -406 65 -500 65 -25 0 -29 22 -15 76
9 34 17 48 27 44 8 -2 43 -6 79 -8 69 -3 123 10 249 63 35 15 94 30 130 34 69
6 268 -12 283 -27z m-670 -232 c60 -4 111 -10 115 -13 7 -8 -10 -49 -107 -255
-69 -147 -82 -200 -54 -209 6 -2 19 18 29 44 10 26 58 128 106 225 69 138 94
179 111 183 21 5 155 -9 163 -17 2 -2 0 -55 -4 -118 -11 -157 3 -309 41 -459
29 -114 30 -125 15 -136 -10 -7 -66 -14 -140 -17 -145 -6 -162 -12 -283 -102
-124 -92 -178 -105 -262 -62 -61 31 -100 68 -207 195 -49 57 -110 119 -137
138 l-49 35 38 35 c21 19 90 74 153 123 63 48 138 112 167 141 54 57 144 197
163 255 7 20 16 31 22 28 6 -4 60 -10 120 -14z m488 -69 c51 -11 57 -15 79
-57 35 -64 123 -141 229 -199 50 -27 92 -53 92 -57 1 -28 -370 -177 -442 -178
-13 0 -21 18 -34 77 -14 64 -16 100 -9 218 5 77 8 157 9 178 0 23 4 36 11 33
6 -2 35 -9 65 -15z m174 -548 c28 -90 76 -184 182 -358 102 -169 184 -323 184
-346 0 -13 -117 -86 -125 -78 -12 14 -69 169 -135 369 -82 248 -144 416 -161
437 -14 16 -3 33 20 33 12 0 22 -16 35 -57z m43 -362 c45 -135 83 -248 83
-252 0 -4 -37 -26 -81 -49 -65 -34 -83 -40 -90 -29 -17 28 -8 49 42 96 85 80
85 87 -7 184 -58 62 -58 61 -99 283 -21 117 -24 150 -14 156 19 12 69 -105
166 -389z m-223 106 c23 -37 74 -105 114 -151 39 -46 72 -90 72 -97 0 -16 -90
-109 -105 -109 -35 0 -197 373 -181 416 4 10 16 14 32 12 21 -2 36 -18 68 -71z
m-154 42 c0 -24 96 -253 147 -351 19 -37 47 -80 61 -95 21 -23 26 -41 33 -117
5 -49 11 -97 14 -107 8 -24 -41 -49 -111 -56 -63 -7 -52 -26 -124 217 -44 150
-67 269 -86 449 -7 68 -1 81 44 81 16 0 22 -6 22 -21z m-120 -1 c0 -56 57
-382 80 -453 70 -225 140 -510 140 -574 0 -21 -7 -31 -27 -40 -42 -20 -115
-41 -124 -36 -4 3 -9 19 -11 37 -3 18 -17 76 -32 128 -35 127 -45 256 -49 633
-2 253 0 317 10 317 7 0 13 -5 13 -12z m-69 -105 c12 -128 -1 -573 -17 -573
-6 0 -14 11 -18 24 -13 53 -26 263 -26 433 0 176 1 182 22 197 12 9 24 14 26
11 3 -2 8 -44 13 -92z m-478 4 c15 -12 27 -28 27 -33 0 -11 -150 -375 -190
-461 -28 -61 -86 -121 -127 -132 -66 -19 -193 21 -193 60 0 11 29 55 64 99
136 167 233 334 307 528 l9 24 38 -31 c20 -17 49 -41 65 -54z m371 -159 c7
-172 33 -486 42 -500 3 -4 5 -34 5 -67 1 -65 -19 -114 -52 -132 -31 -16 -134
-6 -201 20 -50 19 -59 27 -67 57 -5 19 -8 49 -5 67 2 18 13 106 24 197 22 176
51 336 76 412 12 37 21 48 42 53 15 3 48 19 72 35 25 17 48 30 51 30 3 0 9
-78 13 -172z m-246 93 c22 -14 -30 -296 -65 -350 -13 -21 -21 -23 -69 -19 -30
3 -57 8 -60 11 -10 10 30 116 94 250 54 115 67 129 100 108z"/>
<path d="M2906 7815 c-70 -35 -88 -53 -84 -89 l3 -31 66 0 c54 0 72 5 106 27
51 34 65 75 33 100 -30 24 -65 22 -124 -7z"/>
<path d="M3930 7659 c-19 -12 -40 -29 -47 -38 -16 -21 -16 -78 0 -88 34 -22
131 -8 162 24 16 15 20 70 7 89 -10 16 -47 34 -69 34 -10 0 -34 -10 -53 -21z"/>
<path d="M4012 6824 c-83 -41 -112 -92 -74 -127 16 -15 27 -15 78 -6 129 24
200 93 146 142 -27 25 -90 21 -150 -9z"/>
<path d="M1480 5823 c0 -16 14 -59 30 -98 17 -38 33 -83 36 -101 5 -30 3 -33
-47 -60 -67 -37 -94 -73 -93 -125 1 -36 -2 -42 -43 -70 -69 -48 -161 -127
-173 -149 -22 -41 2 -42 44 -1 22 22 77 65 120 95 76 53 80 54 107 40 15 -7
34 -14 42 -14 17 0 25 -32 37 -149 13 -120 30 -128 30 -15 0 49 -4 105 -9 125
-10 43 -8 46 41 79 45 30 63 68 55 115 -5 31 -1 38 42 77 26 24 87 65 134 92
78 44 104 66 77 66 -26 0 -122 -47 -197 -96 -102 -66 -110 -63 -149 46 -28 78
-71 170 -79 170 -3 0 -5 -12 -5 -27z m128 -316 c4 -59 -10 -84 -59 -106 -98
-44 -141 26 -63 101 31 28 92 59 109 54 6 -1 11 -23 13 -49z"/>
<path d="M4210 5986 c-48 -32 -95 -101 -141 -204 -37 -85 -38 -86 -84 -98 -67
-16 -110 -62 -108 -113 l2 -39 -47 -7 c-26 -4 -61 -16 -79 -26 -29 -18 -35
-19 -60 -6 -40 21 -174 49 -213 45 -57 -5 -46 -25 17 -31 32 -4 94 -17 138
-29 73 -21 80 -25 83 -51 2 -16 15 -36 32 -49 28 -20 28 -22 14 -49 -7 -15
-14 -50 -14 -76 l0 -48 -83 -65 c-118 -93 -187 -160 -187 -182 0 -16 9 -12 53
25 113 97 233 187 248 187 9 0 30 -5 47 -11 25 -9 38 -6 79 14 46 24 117 90
141 132 10 19 12 19 53 -10 68 -48 104 -125 138 -300 19 -95 36 -154 46 -164
16 -15 17 -13 11 35 -10 77 -62 284 -85 334 -28 61 -27 67 14 74 72 14 110
122 64 180 -26 33 -21 39 56 64 96 32 216 46 348 39 90 -5 117 -3 114 6 -2 7
-35 18 -73 25 -84 15 -227 8 -340 -16 l-81 -18 5 42 c4 35 1 44 -19 58 -31 22
-88 20 -151 -4 -66 -25 -63 -25 -76 4 -9 20 -4 38 33 117 24 52 61 114 83 139
48 56 77 100 65 100 -4 0 -24 -11 -43 -24z m-165 -353 c16 -15 16 -36 2 -106
-1 -6 6 -13 16 -15 13 -3 22 7 34 36 13 33 24 44 64 61 26 12 62 21 79 21 64
0 43 -62 -34 -100 -52 -25 -59 -32 -50 -54 3 -9 21 -16 46 -18 31 -2 46 -10
61 -30 18 -24 18 -30 7 -58 -17 -41 -46 -60 -93 -60 -48 0 -90 21 -105 54 -16
36 -28 32 -50 -16 -39 -88 -114 -148 -185 -148 -42 0 -57 15 -57 56 0 40 41
91 88 111 22 9 32 19 30 31 -4 17 -6 17 -88 6 -43 -6 -64 7 -56 33 10 30 59
53 114 53 l49 0 -1 57 c-1 56 -1 57 39 80 48 27 68 29 90 6z"/>
<path d="M2668 6083 c-32 -20 -59 -69 -51 -92 20 -55 73 -66 122 -25 39 33 41
74 6 109 -28 29 -40 30 -77 8z"/>
<path d="M2320 3969 c0 -6 33 -54 73 -108 143 -190 289 -459 351 -648 28 -84
39 -102 51 -82 18 28 -22 143 -115 334 -133 271 -295 515 -341 515 -10 0 -19
-5 -19 -11z"/>
<path d="M3457 3844 c-95 -135 -207 -379 -207 -451 0 -41 27 -25 39 22 15 60
140 310 207 414 30 46 54 90 54 98 0 33 -30 6 -93 -83z"/>
</g>
</svg>
