<?xml version="1.0" standalone="no"?>
<!DOCTYPE svg PUBLIC "-//W3C//DTD SVG 20010904//EN"
 "http://www.w3.org/TR/2001/REC-SVG-20010904/DTD/svg10.dtd">
<svg version="1.0" xmlns="http://www.w3.org/2000/svg"
 width="1450.000000pt" height="1550.000000pt" viewBox="0 0 1450.000000 1550.000000"
 preserveAspectRatio="xMidYMid meet">
<metadata>
Created by potrace 1.16, written by Peter Selinger 2001-2019
</metadata>
<g transform="translate(0.000000,1550.000000) scale(0.100000,-0.100000)"
fill="#000000" stroke="none">
<path d="M8238 15479 c-21 -10 -79 -34 -130 -51 -86 -30 -104 -32 -238 -34
-168 -3 -285 -27 -329 -67 -14 -14 -38 -35 -52 -48 -14 -13 -29 -35 -32 -49
-4 -14 -18 -68 -33 -120 -18 -67 -29 -136 -35 -235 -6 -95 -16 -170 -33 -231
-28 -104 -84 -230 -96 -217 -5 4 -18 44 -30 88 -12 44 -26 84 -31 90 -5 5 -9
19 -9 31 0 12 -13 52 -30 89 -16 37 -30 77 -30 88 0 12 -7 31 -15 41 -8 11
-15 30 -15 43 0 13 -33 90 -74 171 -71 140 -79 152 -173 244 l-98 97 -89 16
c-142 24 -266 17 -266 -15 0 -10 -8 -27 -17 -39 l-18 -22 -39 27 c-78 53 -166
45 -231 -21 l-42 -44 -79 34 c-89 38 -183 65 -229 65 -21 0 -40 -9 -56 -26
-21 -22 -23 -33 -21 -92 4 -93 -2 -98 -72 -66 -63 29 -133 38 -177 22 -27 -9
-89 -61 -89 -76 0 -4 -7 -15 -14 -25 -12 -16 -17 -16 -56 -2 -59 21 -155 19
-206 -4 -62 -28 -114 -78 -114 -110 0 -35 27 -125 52 -175 l20 -39 -41 -81
c-59 -118 -73 -182 -56 -248 19 -76 44 -147 66 -190 12 -23 15 -39 9 -43 -21
-13 -50 -85 -50 -123 0 -35 6 -44 45 -76 49 -40 209 -115 368 -172 342 -122
572 -252 792 -447 48 -44 49 -44 26 -56 -19 -11 -37 -6 -133 34 -223 95 -471
138 -668 116 -169 -18 -430 -104 -438 -143 -2 -9 13 -37 32 -63 20 -26 36 -52
36 -59 0 -14 -136 -65 -215 -81 l-50 -10 1 -43 c0 -27 9 -53 23 -72 l21 -30
-72 -36 c-40 -20 -102 -47 -138 -60 -36 -12 -69 -29 -74 -37 -14 -22 10 -94
41 -125 16 -16 22 -27 14 -30 -6 -2 -39 -24 -72 -49 -96 -72 -131 -140 -109
-208 l12 -36 -74 -72 c-69 -66 -138 -154 -138 -174 0 -10 110 -84 166 -112 23
-11 75 -29 114 -40 40 -11 74 -22 75 -23 1 -2 10 -17 19 -35 l16 -31 -50 -36
c-32 -23 -93 -50 -177 -77 -70 -23 -135 -48 -144 -56 -9 -8 -48 -29 -85 -47
-67 -33 -156 -93 -259 -176 -27 -22 -70 -56 -95 -74 -25 -19 -118 -110 -206
-203 -89 -92 -165 -171 -170 -175 -9 -9 33 -44 90 -75 27 -16 58 -23 93 -23
28 0 64 -5 80 -11 33 -12 156 -36 228 -44 28 -3 61 -10 75 -14 14 -5 61 -12
105 -16 162 -14 409 -48 510 -71 39 -9 100 -15 136 -15 36 1 91 -6 123 -14 32
-8 70 -15 84 -14 15 1 50 -4 77 -11 28 -6 84 -16 125 -21 41 -5 105 -14 143
-19 90 -11 276 -102 347 -168 l50 -47 -14 -40 c-9 -22 -15 -52 -16 -66 0 -15
-20 -67 -45 -117 -25 -49 -45 -102 -45 -116 0 -29 -220 -531 -257 -586 -13
-19 -23 -47 -23 -61 0 -15 -36 -105 -81 -200 -310 -665 -489 -1338 -561 -2104
-17 -186 -17 -851 0 -1045 60 -669 189 -1281 411 -1950 43 -129 86 -271 95
-316 9 -44 31 -125 50 -180 18 -54 36 -112 40 -129 7 -30 6 -30 -31 12 -21 23
-58 67 -83 98 -25 31 -57 71 -71 88 -15 18 -29 42 -33 54 -4 12 -18 38 -32 58
-14 21 -47 85 -73 144 -49 108 -59 149 -110 456 -11 66 -25 147 -31 180 -5 33
-15 101 -20 150 -62 545 -192 1003 -396 1393 -181 347 -422 652 -704 895 -52
45 -97 86 -99 91 -2 5 -11 15 -20 22 -248 214 -376 341 -565 561 -58 68 -92
100 -102 96 -8 -3 -12 -13 -10 -22 29 -92 67 -267 72 -324 3 -40 10 -86 15
-103 11 -36 23 -129 44 -339 9 -82 20 -174 25 -204 6 -30 10 -84 10 -120 1
-70 24 -197 73 -408 l15 -63 -49 -41 c-27 -22 -49 -46 -49 -53 0 -6 -21 -32
-46 -56 -25 -25 -57 -67 -71 -95 -14 -27 -41 -69 -59 -92 -19 -23 -34 -45 -34
-50 0 -4 -10 -26 -21 -48 -12 -22 -30 -63 -39 -90 -10 -28 -30 -75 -46 -105
-29 -54 -29 -55 -32 -24 -5 52 35 193 83 289 24 50 51 110 59 135 8 25 29 75
46 112 l32 67 -18 78 c-10 45 -28 95 -44 118 -15 22 -43 72 -63 110 l-35 70
-57 12 c-62 14 -145 61 -168 97 -10 15 -26 23 -46 24 -52 1 -69 11 -88 53 -18
40 -19 40 -62 35 -58 -8 -118 9 -164 46 l-38 30 -22 -20 c-30 -28 -73 -43
-103 -36 -27 7 -65 48 -85 92 l-13 29 -58 -20 c-50 -17 -64 -18 -98 -8 -22 6
-52 23 -67 36 l-28 24 -62 -35 -63 -35 -66 40 c-37 22 -87 48 -112 58 l-45 17
-34 -39 c-19 -22 -41 -64 -51 -96 -15 -52 -20 -57 -67 -80 -41 -20 -50 -28
-47 -48 1 -16 -13 -40 -50 -80 -57 -62 -102 -148 -118 -226 -8 -38 -20 -60
-47 -85 -42 -40 -72 -101 -73 -146 0 -29 -3 -32 -39 -38 l-39 -6 0 -93 c1 -99
-16 -177 -57 -257 -18 -37 -35 -115 -38 -176 0 -6 8 -34 18 -62 17 -45 29 -59
98 -109 43 -32 115 -74 160 -93 45 -20 107 -52 138 -73 105 -69 203 -168 152
-153 -17 5 -94 10 -333 21 -172 8 -290 -7 -400 -50 -52 -21 -103 -47 -112 -59
-27 -32 -85 -147 -97 -190 -9 -36 -8 -40 15 -58 l24 -20 -46 -41 c-56 -52 -67
-100 -35 -161 l20 -39 -48 -43 c-26 -24 -65 -68 -86 -99 l-39 -55 17 -35 c11
-23 24 -35 37 -35 22 0 80 -26 80 -36 0 -3 -20 -28 -44 -55 -26 -29 -46 -63
-50 -83 -7 -38 10 -92 37 -115 15 -12 15 -16 -10 -45 -54 -64 -67 -140 -37
-215 18 -44 36 -51 141 -51 l65 0 45 -50 c25 -28 65 -64 89 -81 40 -27 54 -31
151 -36 l106 -6 39 -39 c71 -71 91 -59 353 205 128 129 241 234 290 268 88 62
227 144 263 154 41 12 25 -28 -34 -85 -121 -117 -228 -288 -273 -434 -27 -87
-43 -229 -35 -302 l7 -56 45 7 c24 4 50 9 57 11 18 7 23 -41 13 -133 -10 -94
0 -108 70 -99 l42 6 0 -115 0 -115 28 -11 c26 -10 62 -8 92 5 12 5 19 -8 34
-64 22 -87 65 -138 116 -136 30 0 33 -3 57 -64 22 -54 50 -106 84 -154 11 -15
113 61 182 135 50 54 71 70 88 67 34 -5 47 -70 38 -193 -3 -55 -3 -110 2 -123
5 -13 9 -41 9 -64 0 -87 80 -332 175 -538 37 -80 69 -147 70 -148 2 -2 13 -1
24 3 35 11 83 57 100 96 9 20 27 49 39 65 21 28 48 69 108 164 15 25 47 83 72
130 24 47 62 114 84 150 22 36 49 81 59 100 11 19 33 53 49 75 16 22 29 48 30
59 0 10 15 39 33 65 18 25 43 66 56 91 12 25 31 54 41 65 10 11 34 52 53 91
63 126 224 263 337 287 14 3 75 21 135 40 94 30 130 36 249 42 137 6 192 2
421 -32 55 -8 117 -16 137 -18 20 -1 41 -6 47 -9 17 -11 266 -28 411 -30 172
-1 303 12 359 36 24 10 45 17 47 16 1 -2 19 -67 38 -144 l36 -141 0 -246 c0
-153 -4 -248 -10 -252 -6 -4 -10 -56 -10 -124 0 -94 -4 -130 -21 -177 -11 -32
-25 -89 -29 -126 -5 -36 -19 -93 -31 -125 -12 -32 -25 -83 -29 -113 -4 -30
-17 -80 -28 -110 -24 -63 -91 -280 -97 -311 -2 -12 -8 -26 -13 -33 -5 -6 -12
-31 -16 -56 -4 -25 -18 -70 -31 -100 -13 -30 -26 -82 -30 -115 -3 -34 -18 -87
-35 -124 -17 -35 -30 -73 -30 -85 0 -22 -44 -220 -55 -247 -5 -13 5 -17 57
-22 35 -4 92 -16 128 -28 55 -18 97 -22 276 -26 l211 -6 74 36 c41 19 121 49
179 67 215 65 258 82 335 128 33 20 67 42 76 49 8 7 31 13 50 13 25 0 50 11
88 40 71 54 169 108 263 146 42 17 93 45 113 63 20 17 55 44 78 59 23 14 57
39 75 54 18 15 41 28 52 28 11 0 34 13 52 28 66 57 271 187 397 253 42 22 105
60 141 84 87 61 246 142 304 155 26 6 101 35 167 64 115 53 125 55 326 85 115
17 245 31 290 31 46 0 85 5 88 10 4 7 54 10 133 9 146 -2 270 -28 457 -98 101
-38 123 -52 263 -161 84 -65 165 -121 181 -125 16 -3 39 -17 51 -30 12 -13 35
-27 51 -30 15 -4 39 -22 54 -41 14 -19 50 -46 78 -61 81 -41 164 -100 182
-130 18 -31 113 -99 190 -138 28 -13 78 -47 112 -74 34 -27 76 -57 95 -67 18
-9 52 -34 75 -55 22 -21 63 -49 90 -63 26 -13 66 -43 88 -65 21 -23 43 -41 47
-41 12 0 114 -76 161 -119 21 -20 58 -47 81 -61 97 -57 111 -66 130 -86 12
-12 32 -25 46 -29 14 -4 54 -29 90 -55 36 -26 90 -60 120 -75 30 -15 78 -49
105 -75 51 -47 141 -90 190 -90 13 0 27 -5 30 -10 3 -6 26 -10 51 -10 l44 0 0
400 c0 220 -4 430 -10 467 -5 38 -14 109 -20 158 -23 196 -61 380 -97 470 -20
50 -36 103 -35 118 2 19 -30 88 -98 213 -92 170 -101 193 -118 285 l-19 101
21 8 c85 32 106 34 134 13 43 -31 169 -88 260 -117 118 -37 273 -61 283 -44
27 44 45 364 26 459 -7 35 -6 36 30 47 47 14 86 50 115 105 19 36 23 57 22
142 -1 86 -17 189 -39 246 -5 13 3 16 52 15 66 0 109 18 164 71 l37 35 -44 81
c-37 70 -118 265 -138 333 -6 19 -2 22 41 29 57 8 103 35 137 77 l24 31 -40
51 c-50 65 -174 314 -162 325 16 15 75 31 139 37 94 10 98 23 45 155 -200 500
-596 857 -1200 1084 -147 55 -155 60 -159 113 -2 20 289 12 444 -13 372 -60
626 -137 985 -300 117 -53 354 -144 480 -185 30 -10 96 -21 146 -25 88 -7 91
-6 122 20 37 31 78 113 87 176 l7 47 71 27 c83 32 175 80 268 142 54 36 73 57
111 121 51 85 90 185 108 280 l12 61 57 17 c71 20 225 100 264 137 30 28 30
28 24 114 -11 159 -89 271 -243 349 -65 33 -74 41 -69 59 15 46 17 175 5 207
-35 87 -114 147 -245 187 -44 14 -82 26 -84 27 -2 2 8 22 22 46 26 44 70 89
120 121 27 17 28 21 25 84 l-3 67 -65 44 c-81 54 -203 114 -295 143 -135 43
-120 27 -120 132 0 75 -4 99 -22 132 -43 80 -126 132 -229 142 -53 6 -54 7
-54 37 0 17 9 46 21 65 19 32 19 34 3 59 -35 54 -171 179 -259 238 -134 91
-141 94 -226 89 -41 -2 -136 -7 -212 -10 -132 -6 -145 -9 -275 -55 -271 -95
-337 -121 -362 -144 -14 -13 -40 -27 -58 -31 -18 -4 -45 -17 -60 -30 -16 -13
-75 -43 -133 -66 -57 -23 -115 -52 -129 -64 -14 -13 -38 -25 -54 -29 -16 -4
-43 -17 -60 -30 -62 -45 -206 -117 -206 -102 0 27 62 190 102 271 75 148 223
352 332 455 41 38 179 257 197 311 7 19 23 46 36 61 24 25 25 30 18 115 -12
155 -12 158 -63 231 -26 38 -56 87 -65 108 -12 25 -38 54 -73 79 -77 55 -210
196 -267 282 -51 77 -127 231 -147 301 -10 32 -18 42 -34 42 -21 0 -107 -21
-136 -34 -11 -4 -23 10 -44 54 -51 107 -154 191 -273 220 -61 16 -62 17 -156
131 -137 166 -282 269 -463 329 -60 20 -63 23 -80 71 l-18 49 -117 0 c-110 0
-119 2 -133 22 -15 21 -12 25 72 112 229 238 448 529 604 806 119 210 224 441
294 648 21 59 45 116 56 128 10 11 18 28 18 37 0 25 130 369 146 388 8 9 21
40 30 70 9 30 24 65 34 79 21 31 90 170 90 183 0 5 43 86 96 181 84 151 94
174 84 195 l-11 24 -27 -25 c-73 -68 -264 -194 -383 -254 -36 -18 -79 -44 -95
-57 -16 -14 -74 -48 -129 -77 -370 -193 -519 -270 -661 -339 -89 -44 -165 -84
-168 -89 -4 -6 -19 -17 -34 -25 -45 -23 -76 -41 -97 -58 -11 -10 -67 -49 -125
-87 l-105 -70 -65 33 c-36 18 -81 35 -102 38 -20 3 -65 18 -100 32 -37 16 -94
31 -139 35 -42 4 -103 16 -135 25 -63 19 -118 23 -306 23 -124 0 -208 9 -208
22 0 11 86 43 97 37 5 -3 29 -1 54 4 42 10 97 11 534 6 l201 -2 84 54 c68 43
95 67 134 122 27 38 75 97 107 131 l57 61 -13 64 c-19 92 -7 173 38 255 17 31
19 42 9 63 -7 14 -12 44 -12 66 0 32 7 47 40 83 27 29 37 47 29 51 -6 4 -22
31 -35 59 -28 60 -31 133 -9 196 8 23 15 44 15 45 0 2 -20 15 -45 30 -55 32
-77 63 -77 110 0 37 36 107 71 139 28 25 27 33 -8 62 -35 30 -81 117 -81 156
0 15 7 49 16 75 l17 48 -43 35 c-24 19 -56 46 -72 60 l-30 25 16 77 c9 43 16
115 16 162 l0 84 -32 12 c-18 6 -46 14 -63 16 -16 3 -39 7 -51 9 -11 2 -45 0
-75 -4 -52 -9 -55 -8 -89 23 -76 69 -74 68 -111 53 -30 -12 -39 -11 -92 11
-122 49 -226 61 -362 41 -71 -11 -79 -10 -114 9 -65 37 -131 46 -201 28 -34
-9 -63 -16 -65 -16 -2 0 -15 20 -29 45 -15 25 -28 45 -29 45 -1 -1 -19 -10
-39 -21z m525 -163 c30 -23 98 -55 115 -55 24 1 115 -15 162 -28 30 -8 92 -21
138 -29 46 -8 105 -25 132 -39 27 -14 66 -25 87 -25 23 0 45 -7 58 -20 21 -20
21 -20 5 -135 l-17 -116 88 -65 88 -65 -15 -34 c-19 -45 -18 -99 2 -141 16
-33 60 -78 85 -86 8 -3 -7 -42 -44 -113 l-57 -109 36 -30 c41 -34 73 -96 74
-142 0 -18 -14 -58 -30 -90 l-31 -57 36 -32 c41 -38 47 -84 15 -125 -25 -32
-25 -40 1 -100 l21 -49 -51 -61 c-28 -33 -51 -68 -51 -76 0 -17 24 -59 54 -92
18 -20 19 -25 6 -32 -83 -47 -141 -115 -174 -202 -11 -31 -28 -54 -49 -67 -47
-29 -205 -71 -264 -70 -28 1 -56 -2 -62 -5 -6 -4 -61 -9 -123 -11 -62 -2 -140
-8 -173 -13 -93 -15 -861 4 -907 23 -25 10 -23 22 13 93 21 43 52 82 104 129
77 70 144 109 320 187 118 52 336 158 332 162 -5 5 -171 -53 -269 -95 -53 -22
-158 -72 -233 -111 -131 -67 -282 -121 -372 -134 -37 -5 -43 -4 -43 12 0 40
71 120 298 341 130 125 261 249 290 274 29 25 66 62 82 83 44 61 103 178 91
182 -19 6 -66 -35 -269 -240 -203 -205 -292 -288 -308 -288 -4 0 -26 -18 -49
-39 -41 -40 -238 -181 -252 -181 -4 0 -16 12 -26 26 -18 24 -18 26 7 92 15 37
55 106 90 154 36 47 69 102 74 122 6 19 29 61 51 94 23 32 41 64 41 72 0 8 54
123 120 254 66 132 118 242 115 244 -12 12 -94 -73 -130 -134 -22 -37 -72
-110 -112 -160 -40 -51 -84 -117 -99 -146 -15 -29 -42 -73 -61 -98 -106 -139
-153 -204 -198 -273 l-50 -77 -56 0 c-43 0 -70 7 -118 31 -56 28 -62 34 -56
56 3 13 8 66 10 116 3 67 17 145 55 290 27 109 54 207 60 216 5 10 14 43 19
72 18 97 49 223 65 264 8 22 17 63 20 90 2 28 11 91 20 140 8 50 18 121 20
159 5 61 10 74 46 122 22 29 64 76 92 103 l52 50 30 -16 c17 -9 37 -24 44 -34
17 -24 23 -24 52 4 13 12 39 34 58 49 l34 27 39 -19 c45 -24 113 -26 153 -5
15 8 30 15 31 15 2 0 10 -18 19 -40 9 -22 18 -40 20 -40 10 0 188 71 224 89
l39 20 34 -35 c18 -18 40 -34 48 -34 9 0 54 18 101 39 47 22 89 40 93 40 5 1
23 -10 40 -23z m-2121 -55 c102 -46 303 -303 411 -522 51 -105 97 -239 124
-362 22 -104 25 -401 4 -526 -12 -73 -19 -90 -50 -125 -21 -23 -45 -53 -54
-68 -10 -16 -21 -28 -26 -28 -5 0 -29 40 -54 90 -78 152 -200 321 -290 399
l-36 32 -6 -35 c-6 -32 -2 -41 48 -100 73 -86 140 -196 172 -281 34 -90 39
-214 12 -292 -10 -29 -20 -53 -22 -53 -2 0 -59 56 -127 124 -133 134 -242 219
-356 279 -39 21 -72 36 -72 34 0 -2 45 -41 99 -87 202 -169 301 -322 301 -466
0 -29 -5 -65 -10 -79 l-10 -27 -78 73 c-42 39 -93 82 -112 94 -19 12 -44 32
-55 45 -11 12 -33 29 -50 38 -16 8 -76 55 -132 104 -56 48 -108 88 -116 88 -8
0 -20 7 -28 16 -7 9 -38 29 -70 44 -31 16 -88 53 -125 81 -43 33 -88 57 -121
66 -62 16 -249 76 -318 102 -27 10 -84 29 -125 41 -90 27 -196 80 -243 123
-34 31 -35 35 -46 140 -7 67 -22 141 -39 194 l-29 86 28 46 c36 58 69 153 69
199 0 19 -18 75 -40 124 -22 50 -40 96 -40 103 0 23 137 65 211 65 30 0 55 7
70 19 13 10 44 29 69 42 61 32 174 33 242 2 l47 -21 18 26 c10 15 34 56 53 92
27 51 39 64 55 62 11 -2 29 -3 40 -2 11 0 79 -14 152 -31 l132 -32 45 41 c39
36 52 42 89 42 24 0 58 -5 74 -11 24 -8 42 -7 79 5 66 21 174 15 236 -13z
m-901 -1806 c234 -41 521 -187 707 -360 l74 -69 -34 -17 c-19 -10 -77 -22
-130 -28 -52 -6 -126 -20 -164 -32 -72 -22 -204 -86 -204 -99 0 -4 53 6 118
23 105 27 133 30 272 31 140 1 161 -2 213 -22 74 -30 122 -69 107 -88 -17 -19
-135 -62 -262 -93 -62 -16 -139 -40 -171 -54 -101 -45 -235 -143 -169 -123 9
3 40 10 67 17 28 7 57 15 66 20 8 4 53 15 100 23 46 9 158 33 247 55 l164 38
26 -22 c24 -20 25 -24 12 -41 -8 -9 -55 -37 -105 -61 -49 -24 -121 -67 -160
-94 -38 -28 -92 -62 -120 -76 -63 -32 -135 -90 -135 -109 0 -24 53 -16 167 24
148 53 267 78 293 62 9 -6 4 -19 -21 -56 -46 -68 -221 -284 -254 -314 -15 -14
-43 -48 -62 -77 -73 -110 -301 -300 -448 -373 -190 -94 -364 -103 -536 -27
-30 13 -78 27 -107 31 -77 10 -214 59 -269 96 -26 18 -85 49 -131 71 -65 30
-83 42 -78 55 20 52 18 59 -26 91 -57 41 -152 138 -188 193 -25 38 -37 46
-100 66 -68 21 -150 66 -150 81 0 4 27 35 60 68 57 57 60 63 66 120 3 33 1 71
-4 85 -9 23 -3 32 74 111 76 78 84 90 84 125 0 22 -4 54 -9 72 -11 37 -8 40
147 137 78 49 80 51 96 108 25 87 102 155 218 191 12 4 18 23 23 90 l7 85 77
25 c42 14 101 29 131 35 30 6 64 13 75 15 51 10 271 5 346 -9z m1428 -48 c-5
-17 -18 -44 -29 -59 -41 -55 -30 -78 85 -180 58 -51 105 -95 104 -98 0 -3 -20
-22 -45 -42 l-44 -37 -77 37 c-101 48 -169 51 -210 9 -26 -26 -28 -33 -28
-117 l0 -89 50 -51 c38 -38 56 -50 80 -50 135 0 294 -101 369 -236 l25 -45
-23 -9 c-55 -20 -152 -32 -221 -27 -141 10 -255 99 -334 261 -47 97 -64 171
-65 291 0 152 46 264 150 358 39 35 204 128 215 121 4 -2 3 -19 -2 -37z m555
-258 c29 -58 36 -83 36 -130 0 -33 -3 -59 -7 -59 -15 1 -91 116 -131 196 -21
45 -53 101 -69 125 -36 52 -58 95 -67 129 -5 17 25 -7 98 -82 78 -81 113 -126
140 -179z m-328 216 c20 -49 18 -71 -13 -105 -48 -53 -136 -42 -169 21 -8 17
-14 32 -12 33 2 2 19 15 39 29 34 26 100 55 127 56 7 1 20 -15 28 -34z m3546
-112 c15 -3 37 -16 49 -29 l22 -23 -37 -123 c-233 -782 -630 -1493 -1119
-2005 l-78 -81 -67 50 c-36 28 -81 57 -99 66 -35 17 -43 32 -18 32 12 0 15 10
14 38 -2 26 9 59 35 111 46 90 76 204 76 287 l0 63 60 59 c37 35 60 66 60 79
0 33 -59 189 -82 218 -18 23 -20 39 -19 129 2 119 -17 222 -59 311 l-29 60 47
44 c104 96 211 190 277 243 139 110 355 248 512 327 146 73 387 164 413 155 8
-3 27 -8 42 -11z m-3432 -283 c10 -23 10 -37 2 -55 -12 -26 -97 -91 -154 -117
-47 -22 -131 -33 -152 -21 -15 8 -12 17 25 72 49 73 118 124 199 144 30 8 58
13 61 11 4 -2 12 -17 19 -34z m-375 0 c25 -47 19 -79 -21 -116 -34 -33 -36
-33 -64 -19 -34 17 -70 61 -70 84 1 39 56 80 107 81 26 0 36 -6 48 -30z m980
-230 c33 0 173 2 310 6 362 9 583 -21 878 -122 148 -51 203 -79 241 -125 33
-38 33 -69 1 -107 l-25 -30 34 -26 c19 -14 44 -46 56 -71 26 -54 22 -95 -14
-144 l-24 -32 34 -82 c62 -154 78 -286 49 -422 -17 -80 -70 -197 -121 -266
-32 -44 -34 -51 -25 -84 9 -32 7 -37 -17 -53 -14 -9 -55 -45 -89 -79 l-63 -62
-26 24 c-44 41 -95 35 -151 -18 l-46 -44 -41 41 c-52 52 -102 76 -158 76 -47
0 -124 -33 -172 -72 -29 -24 -29 -24 -65 -6 -40 21 -75 17 -106 -12 -26 -25
-36 -17 -73 55 -48 96 -48 96 -127 98 -49 2 -85 10 -118 26 -56 27 -134 112
-142 155 -12 59 -87 241 -136 332 -27 50 -49 100 -49 110 0 10 -8 27 -19 38
-10 12 -26 44 -36 71 -10 28 -27 59 -37 71 -10 11 -18 26 -18 33 0 6 -22 53
-49 104 -27 51 -59 117 -71 147 -12 30 -32 69 -46 87 -13 17 -24 34 -24 37 0
15 71 4 111 -17 24 -13 62 -33 84 -45 22 -12 69 -34 105 -50 36 -16 116 -64
179 -106 63 -42 119 -76 124 -76 5 0 42 -25 82 -55 82 -61 193 -130 200 -123
6 6 -216 213 -283 263 -31 23 -70 57 -87 75 -16 18 -71 65 -120 105 -50 40
-120 100 -155 134 l-65 60 25 24 c24 23 28 24 98 16 41 -4 79 -12 85 -17 7 -5
46 -17 87 -27 112 -27 236 -72 320 -117 73 -39 230 -102 230 -93 0 12 -87 83
-143 117 -75 46 -60 39 -187 78 -229 70 -463 225 -312 206 26 -3 74 -6 107 -6z
m-561 -65 c24 -36 20 -79 -10 -115 -23 -27 -31 -30 -58 -24 -34 7 -62 28 -78
57 -12 23 18 59 72 88 46 24 55 24 74 -6z m-552 -315 c-3 -41 -31 -112 -89
-228 -41 -79 -80 -199 -69 -209 12 -13 38 11 96 87 34 45 82 121 105 168 44
90 99 172 114 172 15 0 50 -85 59 -142 4 -29 4 -75 -1 -103 -4 -27 -9 -97 -11
-155 -2 -58 -9 -120 -16 -138 -11 -29 -10 -36 3 -50 20 -19 18 -21 46 53 28
73 54 172 87 325 35 165 31 156 61 128 42 -39 167 -209 223 -301 152 -255 222
-503 222 -795 0 -138 -2 -156 -20 -175 -10 -12 -31 -47 -45 -79 -14 -31 -35
-62 -49 -69 -12 -6 -56 -37 -96 -67 -63 -47 -77 -64 -110 -130 -46 -94 -117
-173 -185 -206 -29 -14 -68 -35 -87 -45 -19 -11 -69 -27 -110 -36 -41 -9 -106
-23 -145 -31 -89 -20 -197 -55 -303 -101 l-83 -35 -25 23 c-13 12 -29 39 -34
58 -18 68 -60 119 -115 140 -27 11 -63 23 -80 26 -16 4 -40 8 -52 11 -26 5
-56 57 -73 126 -10 40 -20 51 -83 95 -66 46 -74 55 -90 106 -24 76 -97 480
-97 540 0 57 14 80 104 178 34 36 83 93 110 126 53 67 247 257 406 398 56 50
113 103 128 119 15 16 65 61 112 100 47 39 103 90 125 113 48 52 71 52 67 3z
m768 -429 c0 -5 11 -22 24 -38 14 -16 28 -43 32 -59 4 -16 31 -82 61 -146 29
-65 53 -125 53 -134 0 -9 14 -56 30 -104 43 -124 48 -170 21 -194 -21 -19 -21
-19 -52 50 -17 38 -40 107 -51 154 -11 47 -35 119 -53 160 -18 41 -36 97 -40
125 -4 27 -15 76 -26 110 -21 68 -23 85 -9 85 6 0 10 -4 10 -9z m-3154 -132
l62 -20 22 -72 c12 -40 23 -77 25 -83 2 -8 19 -9 52 -4 95 15 175 -15 228 -86
16 -22 48 -54 70 -71 38 -30 43 -31 115 -26 95 7 162 -19 219 -83 l37 -43 122
3 122 2 6 -35 c4 -19 2 -48 -4 -65 -14 -36 -9 -43 62 -80 32 -17 56 -36 56
-45 0 -9 -15 -68 -34 -131 l-33 -115 -58 -3 c-32 -2 -78 2 -104 8 -25 6 -78
10 -117 10 -38 -1 -104 6 -145 14 -41 8 -112 17 -159 20 -177 12 -327 27 -380
38 -30 7 -69 11 -86 9 -17 -1 -56 4 -85 13 -30 8 -89 17 -131 21 -43 3 -96 12
-119 20 -23 8 -67 15 -98 15 -31 0 -83 7 -114 15 -31 8 -67 15 -80 15 -47 1
-83 6 -117 17 -19 6 -64 14 -98 18 -66 6 -177 37 -224 61 l-28 14 46 73 c181
284 412 470 714 577 97 34 152 34 256 -1z m3705 -801 c37 -14 88 -38 115 -54
39 -23 59 -28 95 -25 50 3 92 -13 123 -48 11 -12 22 -21 26 -21 4 0 36 23 71
51 35 29 81 63 101 77 l38 24 87 -43 c80 -40 95 -44 178 -47 64 -3 103 1 135
12 24 8 45 14 46 13 1 -1 -26 -44 -60 -96 l-61 -93 -70 6 c-38 3 -104 9 -145
12 l-75 7 -30 -63 c-63 -131 -155 -190 -310 -198 l-92 -5 -5 -91 c-7 -131 -42
-201 -115 -232 -43 -18 -117 -18 -182 2 -29 8 -54 14 -56 12 -1 -2 -19 -36
-40 -76 -65 -125 -157 -197 -286 -224 l-56 -11 1 -71 c0 -54 -4 -80 -21 -112
-21 -40 -76 -84 -123 -99 -13 -4 -31 -16 -39 -25 -9 -10 -75 -57 -148 -103
l-131 -85 -16 39 c-27 68 -14 225 40 467 62 281 219 651 311 736 25 22 112
107 193 188 82 81 170 162 197 179 47 30 50 31 143 26 65 -4 116 -13 161 -29z
m1297 -132 c20 -20 29 -10 -145 -153 -163 -135 -317 -246 -493 -356 -142 -88
-468 -267 -488 -267 -14 0 -17 -13 44 178 l49 153 75 -7 c140 -12 218 30 272
146 25 52 38 70 53 69 11 0 87 -8 169 -17 l149 -18 70 95 c39 53 87 119 107
146 35 47 39 50 80 48 24 0 49 -8 58 -17z m176 -90 c74 -27 95 -39 173 -98 29
-22 86 -57 126 -78 41 -21 129 -74 197 -119 130 -86 159 -98 258 -108 73 -7
70 -3 121 -148 18 -50 42 -109 54 -130 l23 -40 83 -5 83 -5 27 -75 c24 -63
134 -307 145 -317 2 -2 27 8 57 22 64 29 79 31 79 8 0 -32 58 -119 97 -146 21
-14 63 -32 93 -40 64 -17 66 -21 76 -168 l7 -97 37 5 c56 8 146 -21 154 -49
11 -42 6 -212 -9 -310 l-14 -97 -82 -97 c-44 -53 -112 -144 -151 -203 -38 -58
-78 -110 -88 -115 -11 -5 -24 -23 -30 -41 -6 -18 -20 -41 -31 -51 -11 -10 -36
-51 -54 -92 -19 -40 -59 -108 -88 -150 -30 -43 -58 -88 -62 -102 -4 -14 -16
-35 -27 -46 -24 -27 -48 -68 -93 -163 -19 -41 -57 -109 -84 -150 -27 -42 -63
-105 -81 -141 -60 -120 -178 -294 -240 -355 -33 -33 -79 -88 -101 -122 l-40
-62 -52 16 c-153 45 -168 52 -225 102 l-59 50 29 148 c28 146 61 366 77 513 5
41 21 113 36 160 16 53 35 156 50 275 14 105 36 235 50 290 25 101 31 194 16
270 l-8 40 -12 -30 c-15 -35 -108 -301 -139 -396 -12 -37 -22 -79 -22 -93 0
-15 -11 -48 -24 -74 -13 -26 -32 -76 -41 -112 -10 -36 -28 -83 -40 -105 -13
-23 -30 -82 -39 -140 -12 -70 -24 -111 -42 -138 -24 -36 -34 -80 -49 -202 -16
-131 -29 -185 -60 -262 -19 -46 -35 -90 -35 -98 0 -18 -26 -29 -87 -39 -39 -6
-43 -4 -48 16 -28 121 -67 343 -76 437 -6 63 -14 120 -17 126 -15 22 -24 220
-30 675 -5 300 -11 484 -18 499 -10 23 -11 23 -31 -21 -12 -24 -34 -89 -49
-144 -32 -117 -32 -138 -14 -574 7 -173 14 -457 14 -630 l1 -315 -28 -60 -28
-60 -20 25 c-125 159 -226 356 -303 592 -61 185 -209 540 -267 640 -21 36 -39
70 -39 75 0 5 -7 18 -15 29 -9 11 -4 -10 11 -51 14 -38 48 -133 76 -210 61
-170 141 -373 170 -429 57 -111 102 -419 81 -547 -12 -74 -62 -209 -80 -216
-26 -10 -205 134 -403 323 -69 66 -156 142 -195 170 -38 27 -137 115 -220 196
-82 81 -160 154 -172 163 -11 8 -46 47 -77 87 -30 40 -68 87 -83 104 -15 18
-44 51 -63 74 -19 23 -57 57 -83 76 -32 23 -54 49 -66 77 -16 38 -63 89 -104
114 -18 10 -158 247 -175 294 -20 58 -15 107 19 175 53 109 59 222 23 385 -6
25 -3 27 43 33 66 9 151 34 158 46 10 16 15 49 21 135 5 61 11 85 26 102 20
21 242 164 306 197 18 9 69 41 115 70 45 30 124 77 176 105 52 28 108 62 125
74 17 13 105 62 196 109 396 205 800 479 1080 735 19 18 40 33 46 33 6 0 41
-11 78 -24z m-3450 -389 c41 -53 78 -145 90 -220 l11 -69 57 -29 c53 -27 58
-33 73 -81 34 -116 49 -232 49 -388 0 -132 -4 -172 -27 -269 -15 -63 -31 -119
-36 -124 -10 -10 -66 130 -87 222 -14 58 -45 149 -165 486 -21 61 -48 146 -60
190 -11 44 -36 121 -54 170 -19 50 -37 102 -40 118 l-7 27 85 0 c85 0 86 0
111 -33z m-504 -72 c38 -49 78 -115 95 -157 17 -41 40 -89 51 -108 25 -40 58
-136 79 -230 8 -36 26 -103 40 -148 26 -86 53 -204 84 -372 10 -52 30 -124 45
-160 14 -36 32 -96 40 -133 8 -38 21 -76 29 -85 9 -10 23 -45 32 -80 9 -35 31
-91 50 -125 97 -173 95 -166 102 -364 l6 -179 -64 -23 c-192 -70 -366 -193
-486 -345 -56 -71 -59 -73 -109 -78 -36 -3 -92 -24 -192 -73 -140 -67 -142
-69 -153 -109 -7 -25 -9 -81 -6 -140 l5 -100 -71 -77 c-112 -120 -199 -281
-243 -449 -13 -53 -24 -72 -60 -105 l-43 -40 27 -55 c33 -68 37 -169 9 -242
-18 -46 -18 -47 8 -125 86 -257 271 -422 533 -473 l62 -13 15 -51 c18 -66 33
-153 40 -241 3 -38 10 -82 16 -96 9 -24 13 -25 68 -21 78 6 134 -20 191 -87
32 -37 50 -51 69 -51 42 0 170 -38 239 -71 87 -41 171 -99 252 -175 98 -93
101 -107 111 -574 4 -201 10 -376 14 -390 7 -28 -14 -121 -71 -308 -114 -378
-316 -764 -592 -1132 -135 -180 -184 -231 -244 -258 -81 -37 -85 -37 -93 0
-58 280 -165 692 -194 746 -6 11 -18 50 -26 86 -8 35 -18 72 -21 80 -4 10 3
20 20 27 l26 12 -23 26 c-45 49 -90 173 -162 437 -56 208 -77 275 -104 337
-12 27 -21 62 -21 79 0 17 -21 85 -46 152 -455 1188 -573 2396 -353 3606 101
557 249 1053 481 1610 157 377 431 930 461 930 7 0 41 -39 77 -85z m118 22
c56 -60 248 -504 326 -757 62 -200 146 -565 126 -543 -21 21 -153 387 -220
608 -86 284 -130 404 -201 554 -38 79 -69 148 -69 153 0 15 16 9 38 -15z
m1326 -136 c9 -25 17 -61 18 -80 1 -60 -29 -254 -45 -291 -8 -19 -20 -64 -27
-99 -6 -36 -20 -82 -31 -103 -10 -20 -19 -47 -19 -59 0 -33 -154 -382 -223
-504 -19 -34 -38 -74 -42 -90 -9 -41 -178 -368 -191 -372 -14 -5 -24 119 -13
162 12 44 48 151 76 224 14 35 31 95 39 135 16 78 62 214 75 222 5 3 9 14 9
25 0 18 72 242 90 279 35 73 60 133 60 143 0 6 8 30 19 52 51 109 70 154 80
200 15 61 91 219 101 208 4 -4 15 -28 24 -52z m-422 23 c41 -11 82 -14 119
-10 66 6 88 -8 70 -43 -6 -11 -11 -32 -11 -46 0 -15 -11 -59 -24 -98 -13 -40
-31 -117 -40 -172 -24 -136 -69 -296 -122 -429 -42 -104 -141 -290 -184 -346
l-20 -25 0 32 c0 17 7 58 15 90 49 195 67 484 40 654 -10 68 -42 209 -58 258
-2 7 134 150 145 151 3 0 35 -7 70 -16z m1543 -179 c-22 -13 -69 -40 -105 -59
-36 -20 -92 -51 -125 -70 -33 -19 -64 -35 -68 -36 -13 0 43 96 73 125 41 40
115 64 195 64 l70 1 -40 -25z m-1087 -765 c21 -20 21 -22 5 -54 -9 -19 -31
-43 -49 -52 -32 -18 -34 -22 -34 -72 0 -41 -6 -61 -24 -85 -13 -18 -57 -97
-98 -177 -70 -137 -109 -197 -235 -367 -57 -75 -80 -99 -89 -91 -8 9 24 188
51 282 33 114 89 231 166 347 69 102 242 289 268 289 10 0 27 -9 39 -20z
m-103 -531 c-17 -105 -17 -109 4 -210 41 -193 43 -199 120 -272 38 -36 94 -84
125 -107 31 -23 65 -57 76 -76 12 -18 30 -36 40 -39 10 -3 29 -22 41 -41 12
-20 40 -47 63 -62 22 -15 43 -29 46 -32 3 -3 28 -22 55 -42 68 -49 245 -234
291 -302 20 -31 44 -58 54 -61 16 -5 57 -84 75 -144 8 -27 11 -28 -80 32 -33
22 -113 94 -178 159 -65 65 -130 125 -145 132 -15 8 -47 35 -72 61 -26 27 -71
58 -106 75 -72 32 -167 95 -241 157 -33 28 -78 53 -120 67 -110 38 -187 75
-208 102 -14 17 -44 31 -95 44 -41 12 -81 23 -88 25 -14 5 14 63 63 130 12 17
25 41 28 55 4 14 17 40 29 59 31 46 80 136 163 301 79 157 87 156 60 -11z
m5635 -682 c122 -45 216 -129 270 -241 25 -54 35 -63 76 -80 60 -24 110 -68
136 -119 16 -32 19 -54 16 -109 l-3 -70 185 -103 c102 -57 191 -114 199 -125
8 -12 29 -27 47 -35 l33 -14 -24 -88 c-13 -48 -28 -101 -34 -116 -6 -16 -11
-43 -11 -62 0 -19 -4 -37 -10 -40 -22 -13 -8 -25 51 -41 166 -47 292 -196 315
-374 5 -37 15 -55 59 -100 80 -83 184 -262 172 -294 -3 -7 -36 -25 -73 -41
-38 -15 -82 -34 -99 -40 -132 -55 -163 -74 -192 -116 -53 -77 -95 -171 -117
-263 -13 -50 -29 -93 -37 -96 -158 -71 -302 -167 -428 -285 l-71 -68 -90 12
c-157 20 -331 83 -500 180 -19 11 -78 36 -130 57 -52 20 -124 53 -160 73 -36
20 -92 47 -125 62 -33 14 -88 41 -122 61 -54 32 -74 38 -170 47 -109 11 -232
37 -312 65 -24 9 -63 16 -87 16 -23 0 -45 4 -48 9 -3 5 -77 12 -163 16 -87 4
-192 11 -233 17 -169 22 -275 30 -467 34 -112 3 -203 8 -203 12 0 23 66 115
114 160 67 64 165 112 301 149 97 26 109 27 370 27 149 1 290 -3 315 -7 85
-15 27 10 -95 41 -210 54 -323 67 -580 65 -126 0 -261 -5 -300 -11 -38 -5 -72
-8 -74 -6 -12 10 29 108 72 172 64 95 155 171 282 232 146 72 303 110 586 145
41 5 50 11 78 50 l32 45 -100 0 c-115 0 -278 -21 -436 -56 -144 -32 -283 -70
-298 -82 -7 -5 -23 -12 -37 -16 -14 -3 -46 -12 -73 -20 l-47 -15 6 132 6 132
52 80 c239 364 629 692 1013 852 239 99 510 167 784 198 245 27 287 26 379 -8z
m-5975 -50 c221 -90 382 -173 565 -291 110 -70 251 -169 296 -206 17 -14 48
-38 70 -55 123 -95 394 -358 528 -512 43 -51 109 -116 145 -145 36 -29 68 -55
71 -58 3 -3 24 -21 48 -39 41 -32 42 -34 26 -52 -22 -25 -47 -24 -175 5 -187
43 -366 111 -538 205 -45 25 -87 41 -108 41 -18 0 -50 7 -71 15 -45 20 -227
38 -266 27 -26 -7 -20 -12 85 -56 63 -27 165 -62 228 -77 142 -36 265 -84 401
-157 58 -31 152 -80 209 -108 58 -29 133 -77 168 -106 60 -51 63 -55 63 -100
l0 -47 -112 -3 c-62 -2 -156 0 -208 4 -198 16 -596 31 -885 34 -275 2 -296 1
-250 -12 61 -17 347 -64 395 -64 19 0 48 -7 63 -15 16 -8 54 -19 85 -24 31 -6
98 -18 147 -27 50 -9 119 -20 155 -25 67 -8 164 -38 260 -81 30 -13 98 -32
150 -42 81 -15 105 -24 162 -63 38 -25 66 -49 63 -53 -3 -4 -35 -11 -72 -15
-47 -5 -97 -20 -163 -49 -52 -24 -153 -62 -225 -85 -71 -23 -146 -51 -166 -62
-20 -10 -51 -19 -68 -19 -18 0 -66 -19 -114 -45 -53 -28 -96 -45 -118 -45 -20
0 -49 -10 -71 -25 -19 -13 -90 -40 -157 -60 -145 -43 -173 -54 -359 -141 -51
-24 -95 -44 -97 -44 -3 0 -26 -15 -52 -34 -82 -57 -249 -71 -358 -28 -57 22
-150 89 -181 129 -25 33 -29 35 -70 29 -24 -3 -86 -21 -138 -41 -127 -48 -132
-47 -140 17 -8 59 -52 112 -102 123 -63 14 -74 23 -74 59 0 94 -45 213 -103
274 -63 66 -171 99 -289 87 l-70 -7 6 48 c9 71 -15 159 -53 198 -29 28 -37 31
-96 31 l-64 0 6 95 c4 67 1 121 -11 181 -9 47 -16 88 -16 92 0 3 23 18 50 33
28 15 50 30 50 34 0 4 7 47 15 96 64 376 266 640 618 808 51 24 110 50 131 57
37 14 40 17 52 75 30 148 98 199 267 199 l87 0 0 50 c0 96 48 128 180 121 72
-4 102 -11 195 -49z m-3687 -544 c469 -360 861 -823 1097 -1292 183 -365 304
-797 335 -1198 6 -76 16 -152 21 -169 5 -17 9 -44 9 -60 0 -16 9 -81 20 -144
11 -63 20 -136 20 -161 0 -26 7 -66 15 -89 8 -23 17 -68 20 -99 6 -71 11 -98
41 -246 13 -66 24 -125 24 -132 0 -25 -75 -14 -141 21 -219 114 -373 229 -530
392 -93 98 -125 140 -135 179 -4 17 -35 92 -70 167 -35 76 -69 158 -75 182
-10 42 -9 50 19 111 31 66 119 169 153 180 11 4 23 22 29 46 8 29 20 46 41 57
61 34 60 30 33 111 -24 74 -31 131 -16 131 24 0 95 78 123 135 28 57 32 75 32
145 0 68 -4 84 -21 103 -29 31 -55 96 -48 122 5 18 1 24 -19 29 -13 3 -56 38
-95 77 -50 49 -91 80 -142 104 -61 30 -75 41 -88 72 -32 79 -34 80 -107 85
-37 3 -85 1 -105 -4 -31 -7 -47 -3 -90 17 -66 33 -170 55 -253 55 l-63 0 -36
86 c-78 186 -145 442 -165 626 -6 54 -11 157 -11 229 0 126 1 134 26 166 14
18 34 33 45 33 12 0 60 -30 107 -67z m-1811 -514 l74 -41 70 42 c64 38 72 40
88 26 50 -45 114 -52 173 -18 27 16 27 15 90 -53 l64 -68 31 17 c18 9 53 16
79 16 42 0 51 -5 91 -44 42 -43 45 -44 71 -30 41 21 61 17 94 -18 25 -27 38
-33 74 -33 42 -1 45 -3 77 -56 18 -30 39 -54 47 -53 8 1 34 4 58 8 39 7 42 6
42 -16 0 -39 46 -121 90 -162 l43 -39 -7 -93 c-4 -52 -14 -106 -22 -122 -7
-15 -14 -37 -14 -50 0 -13 -6 -35 -14 -50 -8 -15 -25 -67 -39 -117 -33 -116
-85 -254 -130 -341 -20 -38 -50 -105 -67 -149 -26 -66 -81 -178 -96 -194 -3
-3 -22 13 -44 34 -47 46 -94 152 -109 245 -5 36 -13 130 -16 210 -11 238 -24
259 -19 30 2 -113 7 -251 10 -307 3 -62 1 -131 -6 -173 l-12 -69 -24 15 c-25
17 -93 149 -146 284 -16 41 -44 109 -63 150 -19 41 -45 103 -58 138 -25 68
-98 177 -130 194 -17 9 -18 7 -12 -22 4 -17 43 -109 86 -203 84 -181 155 -376
187 -515 20 -85 20 -87 -18 -94 -23 -3 -78 50 -131 131 -28 40 -67 92 -89 115
-22 22 -71 75 -108 116 -157 171 -255 275 -263 278 -20 8 25 -85 70 -147 27
-36 66 -94 87 -127 22 -34 56 -83 77 -110 21 -27 79 -111 128 -186 88 -134 90
-139 79 -172 -6 -19 -30 -50 -54 -69 l-42 -35 -95 46 c-95 48 -164 89 -190
114 -8 7 -37 28 -66 46 -28 18 -57 40 -64 49 -7 8 -52 40 -99 71 -47 31 -111
76 -142 99 -31 24 -61 43 -67 43 -5 0 -27 12 -48 26 -21 14 -72 43 -115 65
-67 34 -80 45 -110 96 -19 32 -41 73 -48 92 -13 32 -12 35 13 56 14 13 31 25
38 27 9 3 8 17 -5 56 l-18 52 31 35 c33 38 46 74 38 105 -4 16 1 19 32 22 l36
3 0 110 0 109 32 9 c38 11 43 28 36 116 l-6 68 37 23 c23 14 60 56 94 108 31
46 73 109 93 139 20 30 52 71 71 91 19 20 42 49 51 65 10 15 25 27 33 27 9 0
50 -18 91 -41z m8495 -65 c-39 -19 -120 -46 -180 -60 -112 -27 -118 -28 -247
-76 -100 -37 -345 -89 -345 -73 0 21 60 89 106 119 130 87 303 123 589 124
l150 0 -73 -34z m176 -185 c37 -72 63 -202 45 -220 -20 -20 -92 -30 -134 -19
-49 13 -114 78 -123 121 -9 45 9 100 43 133 27 26 104 58 126 52 6 -1 25 -31
43 -67z m-370 -76 l-3 -78 -105 1 c-234 2 -241 33 -26 115 142 54 137 55 134
-38z m-398 -23 c0 -120 -82 -220 -180 -220 -30 0 -31 1 -25 33 18 81 66 144
140 181 61 31 65 31 65 6z m1038 -78 c54 -139 66 -197 66 -332 0 -111 -4 -134
-29 -209 -88 -257 -352 -490 -660 -582 -106 -31 -318 -34 -405 -6 -118 39
-224 121 -314 241 -48 64 -90 146 -79 156 24 23 156 52 258 57 173 8 324 -39
450 -142 l55 -45 101 0 c100 0 102 0 149 35 71 52 148 140 161 186 17 54 -1
108 -48 150 -43 38 -152 90 -238 114 -33 10 -64 21 -69 26 -11 10 -11 10 -21
118 l-7 84 23 -8 c13 -4 113 -10 222 -12 l199 -5 34 33 c26 25 34 41 34 68 1
57 59 169 81 156 4 -3 21 -40 37 -83z m-1302 -29 c-2 -10 -12 -58 -21 -107
-18 -97 -38 -156 -54 -156 -10 0 -26 69 -36 155 l-5 50 52 37 c61 41 71 45 64
21z m471 -91 c69 -101 100 -216 90 -332 -6 -76 -35 -190 -48 -190 -4 0 -32 23
-63 51 -70 63 -107 139 -135 274 -25 119 -26 137 -5 176 15 29 80 68 114 69 8
0 29 -21 47 -48z m-6230 -109 c7 -9 14 -21 16 -27 3 -7 16 -5 41 7 59 28 108
23 145 -15 17 -17 31 -34 31 -37 0 -3 39 -7 88 -7 196 -3 343 -78 447 -229 31
-44 44 -55 65 -55 24 0 29 -5 39 -46 7 -26 21 -64 31 -85 24 -47 24 -46 1 -52
-10 -2 -26 -16 -36 -30 -16 -25 -14 -52 10 -108 5 -13 -5 -22 -40 -39 -84 -41
-115 -108 -91 -200 13 -50 13 -52 -11 -77 -21 -20 -25 -31 -20 -63 6 -44 -2
-50 -66 -50 -63 0 -85 -9 -92 -38 -7 -28 -40 -80 -65 -100 -48 -40 -69 -43
-268 -47 -109 -2 -219 -6 -247 -8 -27 -2 -131 -9 -230 -16 -99 -6 -202 -16
-230 -20 -27 -5 -52 -7 -53 -6 -9 8 33 63 65 85 19 13 56 45 82 70 26 26 88
73 137 105 49 32 98 67 109 77 11 10 62 46 113 80 51 33 91 63 88 66 -7 6
-208 -83 -248 -110 -15 -10 -52 -30 -82 -43 -31 -14 -95 -47 -143 -73 -49 -27
-110 -58 -137 -68 -46 -17 -49 -17 -61 0 -11 14 -10 23 3 49 34 69 176 237
287 342 65 60 113 111 107 113 -30 10 -161 -86 -216 -158 -72 -94 -232 -227
-252 -208 -3 4 10 42 29 85 20 43 43 104 52 135 47 163 164 402 267 546 172
237 282 321 335 255z m5838 -185 c13 -29 27 -83 31 -120 l7 -68 -36 -15 c-51
-21 -76 -19 -138 13 l-54 27 -3 62 c-3 56 0 64 27 96 30 33 73 54 119 56 19 1
28 -9 47 -51z m797 -85 c39 -43 48 -67 48 -132 0 -52 -3 -63 -22 -75 -44 -28
-101 -39 -144 -27 -70 19 -79 31 -79 104 0 56 4 69 25 93 28 30 94 63 126 64
11 0 32 -12 46 -27z m-1908 -494 c-22 -17 -57 -40 -79 -51 -65 -34 -168 -99
-200 -128 -16 -15 -83 -48 -148 -74 -67 -26 -143 -65 -175 -88 -90 -67 -337
-188 -383 -188 -11 0 -12 81 -1 95 14 21 139 97 232 142 52 25 109 56 125 68
45 34 110 65 211 101 50 17 112 42 137 53 25 12 50 21 54 21 5 0 25 11 45 25
20 14 52 25 70 26 18 0 51 6 73 14 70 23 82 18 39 -16z m836 -4 c0 -5 -102
-164 -176 -275 -24 -36 -49 -81 -55 -100 -7 -19 -24 -51 -39 -70 -34 -45 -75
-118 -85 -150 -4 -14 -22 -55 -41 -93 -41 -80 -41 -87 -9 -87 29 0 30 2 96
104 28 44 86 113 128 155 42 42 90 98 105 125 62 107 223 226 329 243 l39 6
-7 -59 c-11 -93 -45 -232 -76 -309 -16 -38 -31 -88 -34 -110 -4 -22 -10 -67
-15 -100 -18 -118 -20 -199 -7 -229 l13 -30 56 100 c39 70 65 132 87 212 17
62 38 123 46 135 8 12 23 51 34 87 25 79 86 180 109 180 36 0 39 -14 46 -175
3 -88 11 -236 16 -330 5 -93 14 -255 19 -360 5 -104 15 -206 20 -225 18 -56
14 -671 -4 -745 -9 -37 -14 -113 -15 -198 0 -163 -15 -232 -74 -349 l-41 -82
-74 -12 c-106 -18 -206 -70 -272 -142 -47 -51 -119 -178 -119 -208 0 -31 -290
-25 -473 10 l-69 13 -58 -38 c-31 -22 -86 -50 -122 -63 l-64 -24 -64 43 c-76
51 -198 105 -237 105 -42 0 -122 -24 -180 -53 -40 -21 -67 -27 -115 -27 l-63
0 -18 51 c-47 132 -181 383 -296 557 -152 229 -178 276 -187 332 -4 25 -18 72
-32 105 -46 107 -34 281 30 448 l30 77 -16 123 c-9 67 -24 145 -33 174 -17 57
-11 105 28 192 10 24 19 63 19 87 0 37 7 51 49 101 67 81 252 261 336 328 303
244 681 414 1108 500 168 34 427 64 427 50z m2140 -89 c452 -81 693 -173 983
-376 112 -79 291 -256 371 -369 72 -100 186 -298 186 -322 0 -9 -7 -23 -16
-30 -9 -7 -46 -51 -81 -97 l-65 -83 30 -62 c81 -163 81 -296 1 -422 l-31 -49
45 -196 c25 -108 44 -204 42 -215 -2 -11 -4 -23 -4 -27 -1 -4 -10 -9 -21 -13
-27 -8 -99 -70 -127 -108 -22 -29 -23 -40 -23 -203 l0 -173 -44 -31 c-44 -30
-103 -94 -125 -137 -6 -13 -11 -76 -11 -159 l0 -137 -52 7 c-73 10 -155 38
-238 82 l-71 37 -97 -19 c-104 -20 -325 -26 -440 -11 l-63 8 -21 -48 c-11 -26
-22 -49 -23 -51 -5 -6 -87 18 -165 48 -41 15 -116 35 -166 44 -156 27 -288 82
-434 181 -44 30 -108 64 -141 75 -254 86 -417 233 -534 483 -85 181 -129 394
-147 705 -9 167 -8 204 6 281 9 49 16 129 16 177 0 148 49 594 74 678 l13 41
52 -53 c70 -71 127 -162 221 -350 77 -154 120 -217 143 -209 8 3 12 34 11 93
-1 73 -7 106 -33 182 -33 95 -71 268 -71 323 0 16 -18 72 -40 124 -39 92 -70
192 -70 227 0 15 9 18 60 18 l59 0 127 -192 c70 -106 140 -215 156 -242 16
-27 50 -76 74 -107 25 -32 62 -90 84 -128 51 -90 131 -213 135 -209 2 2 -3 39
-10 83 -30 172 -103 345 -219 520 -84 125 -176 313 -176 358 l0 30 63 -7 c254
-26 488 -229 729 -631 58 -98 59 -99 53 -55 -25 168 -155 408 -300 553 -34 34
-55 66 -72 114 l-24 65 193 -5 c106 -3 209 -8 228 -11z m-8642 -232 l37 -17
-45 -13 c-72 -22 -373 -53 -355 -37 11 11 132 57 185 72 55 15 137 12 178 -5z
m-1131 -28 c127 -27 285 -90 384 -152 32 -20 107 -129 97 -140 -2 -2 -47 -8
-99 -14 -113 -13 -193 -31 -290 -65 -90 -31 -100 -40 -66 -56 22 -10 39 -8 99
9 197 58 351 47 446 -32 17 -15 32 -31 32 -35 0 -4 -26 -15 -57 -25 -131 -42
-329 -153 -392 -220 -20 -21 -5 -16 80 28 185 97 327 120 427 70 29 -14 52
-29 52 -32 0 -4 -42 -27 -92 -52 -121 -59 -162 -81 -168 -89 -3 -4 -48 -30
-100 -57 -52 -27 -99 -52 -105 -57 -89 -69 -139 -105 -182 -129 -29 -17 -53
-33 -53 -37 0 -7 -30 -44 -158 -195 -117 -138 -152 -174 -207 -212 l-55 -37
-77 23 c-43 13 -112 25 -154 28 -77 4 -77 4 -114 49 -21 25 -58 58 -83 74 -42
26 -54 29 -134 29 -71 0 -90 3 -95 16 -3 8 2 50 11 92 20 92 20 93 11 159 -10
65 12 130 60 177 l32 33 -53 65 c-46 56 -51 68 -39 78 8 7 15 18 15 25 0 7 27
50 61 96 l61 82 -16 34 c-9 18 -16 44 -16 56 0 26 35 87 50 87 5 0 10 23 10
50 0 125 88 198 309 255 180 46 412 55 568 21z m1131 -174 c28 -28 48 -152 33
-202 -6 -21 -17 -42 -23 -46 -13 -9 -43 27 -70 85 -20 44 -29 146 -14 169 11
18 54 14 74 -6z m-420 -132 c27 -46 51 -45 156 5 52 25 97 45 99 45 2 0 9 -19
16 -41 l13 -42 -50 -51 c-82 -84 -91 -119 -42 -160 17 -14 54 -32 81 -40 48
-15 53 -14 95 6 27 12 51 33 60 50 25 49 95 118 144 143 47 23 146 49 159 40
14 -8 -7 -116 -34 -170 -49 -100 -144 -155 -284 -163 -106 -6 -180 9 -270 54
-122 61 -190 164 -199 302 l-5 74 23 -12 c12 -6 29 -25 38 -40z m1616 41 c89
-6 111 -11 122 -26 23 -31 2 -38 -88 -32 -339 25 -371 28 -438 44 -25 6 -25 6
5 13 40 10 264 11 399 1z m-3 -124 c102 -27 245 -82 259 -101 5 -6 27 -32 49
-57 23 -25 41 -53 41 -61 0 -44 53 -164 89 -203 48 -52 91 -134 91 -172 0 -16
4 -42 9 -59 6 -21 2 -70 -11 -155 -10 -68 -20 -181 -21 -251 -1 -122 -2 -127
-24 -137 -13 -6 -46 -11 -73 -11 -71 0 -94 -13 -147 -81 l-48 -61 -63 5 c-61
5 -65 3 -143 -44 -44 -26 -96 -53 -114 -59 -32 -10 -38 -9 -72 19 -21 16 -55
37 -77 46 -40 17 -118 18 -149 3 -40 -20 -123 60 -175 169 -15 32 -37 72 -48
88 -28 40 -132 265 -154 335 -10 30 -30 84 -45 120 -110 269 -148 371 -142
377 14 13 51 -15 153 -116 119 -117 154 -143 154 -115 0 26 -69 134 -121 189
-54 58 -99 122 -99 141 0 32 149 8 207 -34 16 -11 53 -30 82 -41 30 -11 70
-32 91 -46 23 -16 43 -23 54 -19 15 6 11 13 -26 46 -23 21 -61 51 -83 66 -22
15 -56 39 -75 53 -19 15 -51 36 -71 47 -59 33 -79 46 -79 54 0 15 209 71 345
92 17 2 100 3 185 1 125 -3 173 -8 251 -28z m-1177 -398 c3 -17 6 -52 6 -78 0
-25 9 -74 20 -107 10 -34 22 -90 26 -125 8 -74 30 -132 47 -126 16 5 24 54 26
157 1 84 23 190 39 190 14 0 192 -293 192 -315 0 -4 15 -31 34 -59 32 -50 95
-202 115 -281 53 -206 20 -383 -90 -495 -24 -25 -59 -68 -77 -96 -30 -47 -65
-82 -203 -204 -70 -61 -77 -65 -99 -45 -16 15 -23 13 -96 -24 -44 -22 -104
-46 -136 -54 -47 -12 -66 -24 -116 -76 -33 -33 -65 -61 -71 -61 -6 0 -24 27
-41 60 -23 46 -39 64 -70 80 -21 11 -48 20 -58 20 -15 0 -30 22 -60 84 -42 88
-53 99 -114 110 -40 7 -38 2 -73 176 -5 23 -22 47 -51 73 -48 42 -67 88 -65
158 l1 49 -60 30 c-68 34 -68 35 -49 163 28 193 113 353 265 502 99 97 275
210 357 230 24 6 27 5 27 -19 0 -14 -9 -59 -20 -98 -21 -75 -27 -233 -10 -273
7 -19 8 -18 13 5 3 14 11 63 17 109 22 158 90 295 170 340 36 20 41 21 46 6 4
-9 3 -60 -2 -113 -13 -158 -10 -322 8 -362 l15 -35 7 60 c3 33 13 96 21 140 8
44 22 133 31 198 14 103 19 120 38 127 32 13 33 12 40 -21z m2012 -355 c49
-26 103 -59 119 -74 17 -15 46 -36 65 -48 19 -11 48 -34 64 -51 17 -17 35 -31
41 -31 11 0 259 -248 306 -305 13 -17 35 -38 48 -47 37 -26 271 -298 257 -298
-22 0 -209 130 -280 195 -36 33 -99 80 -126 93 -14 7 -51 36 -83 65 -31 29
-85 75 -119 102 -65 52 -180 156 -260 236 -26 26 -70 63 -97 83 -26 20 -65 56
-85 81 l-37 45 48 0 c39 0 68 -10 139 -46z m-139 -154 c32 -22 69 -48 83 -59
14 -10 78 -53 142 -95 66 -43 159 -116 209 -164 98 -93 215 -229 205 -239 -3
-3 -48 22 -100 56 -172 114 -408 203 -573 218 -72 6 -72 6 -84 41 -6 20 -20
50 -31 68 l-20 33 32 46 c27 39 37 61 56 123 6 19 19 15 81 -28z m766 -99 c37
-38 67 -73 67 -78 0 -6 45 -59 100 -119 55 -60 100 -118 101 -129 0 -11 8 -51
19 -90 10 -38 16 -72 14 -74 -8 -9 -135 93 -192 153 -91 97 -160 207 -215 338
-14 34 -14 39 -1 53 9 8 21 15 28 15 7 0 43 -31 79 -69z m-698 -277 c161 -31
304 -96 431 -198 73 -58 154 -143 154 -161 0 -10 -466 2 -575 14 -254 29 -639
20 -765 -19 -36 -11 -66 -20 -67 -20 -12 0 3 39 34 92 68 118 135 161 194 126
18 -11 23 -10 44 15 13 15 30 46 37 68 8 28 20 44 37 51 36 14 180 13 215 -1
28 -11 32 -9 65 24 40 40 33 40 196 9z m-999 -224 c25 -13 48 -29 51 -36 7
-20 -34 -127 -66 -172 -15 -20 -35 -58 -45 -84 -9 -26 -28 -62 -40 -81 -22
-33 -73 -127 -147 -277 -20 -41 -49 -90 -63 -109 -14 -19 -26 -41 -26 -49 0
-8 -13 -31 -28 -51 -16 -20 -39 -58 -52 -84 -12 -27 -33 -60 -45 -75 -13 -15
-30 -45 -39 -67 -9 -22 -30 -57 -46 -77 -17 -20 -30 -43 -30 -51 0 -8 -7 -20
-15 -27 -8 -7 -15 -18 -15 -25 0 -6 -9 -20 -20 -30 -11 -10 -20 -22 -20 -27 0
-29 -116 -178 -139 -178 -6 0 -28 24 -49 53 -143 195 -206 379 -206 602 -1
132 10 164 73 233 31 33 32 33 96 27 l64 -7 7 28 c11 51 51 110 86 126 18 9
54 24 79 33 56 19 72 36 88 94 16 55 64 105 116 121 35 10 43 19 63 63 12 29
27 69 33 90 11 42 21 45 67 17 18 -11 38 -20 45 -20 6 0 41 25 76 54 l65 54
18 -23 c10 -13 39 -33 64 -45z m3429 -208 c-20 -79 -74 -205 -125 -292 -22
-38 -43 -84 -46 -102 -4 -18 -22 -65 -40 -104 -19 -39 -34 -80 -34 -90 0 -11
-11 -36 -25 -55 -13 -20 -29 -59 -36 -85 -7 -27 -22 -67 -34 -89 -13 -22 -26
-51 -30 -65 -6 -21 -123 -260 -193 -395 -11 -22 -39 -85 -62 -141 -22 -55 -66
-138 -96 -183 -63 -95 -120 -205 -139 -266 -7 -24 -26 -62 -42 -86 -16 -24
-40 -72 -52 -106 -13 -34 -57 -111 -99 -172 -43 -61 -99 -143 -127 -183 -41
-61 -50 -69 -53 -50 -2 12 3 44 11 70 8 26 25 90 37 142 12 52 37 136 55 185
19 50 41 122 51 160 22 91 51 171 81 217 12 21 23 46 23 56 0 9 6 26 14 37 7
11 17 40 21 65 12 69 72 252 120 365 24 56 47 115 51 131 16 63 94 248 115
270 11 12 31 52 44 88 25 71 68 148 120 211 18 22 40 66 50 96 12 38 36 78 72
120 30 35 79 100 109 144 45 67 67 88 122 122 37 22 85 47 107 56 49 19 52 12
30 -71z m292 -270 c65 -65 106 -97 158 -122 l70 -34 0 -161 0 -160 -68 -37
c-360 -196 -697 -532 -942 -938 -57 -94 -135 -191 -135 -167 0 6 13 71 29 142
55 247 143 486 270 731 79 153 203 356 261 429 17 21 51 80 75 130 24 49 59
110 78 135 19 25 44 64 55 87 12 23 30 44 39 46 10 3 19 5 20 6 1 0 41 -39 90
-87z m2648 -149 c19 -29 125 -137 186 -188 20 -17 38 -35 40 -42 3 -8 22 -8
68 0 78 13 162 -1 238 -39 48 -25 136 -106 174 -160 12 -18 31 -24 103 -33 67
-8 93 -8 110 1 11 7 57 12 101 12 64 0 91 -5 137 -26 54 -25 129 -90 179 -155
l24 -32 55 35 c30 19 83 49 117 65 62 29 63 29 105 12 56 -22 152 -77 206
-116 82 -62 222 -350 282 -583 50 -191 63 -322 57 -554 -5 -207 -19 -317 -59
-479 -11 -47 -22 -87 -23 -89 -1 -1 -27 7 -58 17 -90 31 -215 100 -304 168
-79 60 -148 103 -166 103 -5 0 -22 14 -37 30 -15 17 -37 30 -48 30 -12 0 -23
9 -27 20 -4 11 -30 32 -58 46 -67 34 -163 102 -206 148 -19 20 -71 54 -115 76
-45 22 -112 67 -151 100 -38 33 -111 84 -161 112 -55 31 -99 63 -108 80 -9 15
-42 41 -74 58 -65 34 -177 116 -235 171 -21 21 -57 50 -80 65 -69 45 -204 151
-254 200 -27 25 -66 55 -88 66 -66 34 -116 72 -212 160 -51 46 -124 103 -163
128 -86 54 -250 210 -250 237 0 23 67 129 99 157 11 11 30 50 41 88 12 37 25
68 29 68 5 0 28 -7 52 -16 46 -16 276 -74 294 -74 5 0 22 23 37 50 24 43 96
110 118 110 4 0 16 -12 25 -27z m-1625 -387 c69 -65 98 -86 133 -95 64 -15 63
-16 88 29 54 95 165 92 345 -11 82 -47 278 -198 270 -207 -4 -3 -77 -15 -164
-27 -147 -21 -168 -26 -327 -90 -93 -37 -224 -87 -290 -110 -131 -46 -266
-102 -323 -135 -21 -11 -77 -40 -127 -64 -49 -24 -148 -77 -220 -117 -71 -41
-168 -94 -215 -118 -47 -25 -105 -57 -130 -73 -66 -41 -418 -218 -433 -218
-13 0 -48 -16 -202 -89 -44 -21 -98 -44 -120 -51 -22 -7 -53 -19 -69 -27 l-29
-15 7 36 c14 72 79 254 130 361 173 364 448 657 830 885 l89 53 94 -31 94 -31
62 50 c100 81 263 151 416 178 2 1 43 -37 91 -83z m-2383 -136 l30 -11 7 -122
c10 -182 -15 -432 -60 -612 -62 -247 -178 -487 -340 -706 -100 -135 -98 -135
-91 6 3 66 18 182 32 257 14 76 25 151 25 168 0 32 115 427 130 444 11 14 40
134 50 211 7 52 91 301 120 356 12 21 50 25 97 9z"/>
</g>
</svg>
