<?xml version="1.0" standalone="no"?>
<!DOCTYPE svg PUBLIC "-//W3C//DTD SVG 20010904//EN"
 "http://www.w3.org/TR/2001/REC-SVG-20010904/DTD/svg10.dtd">
<svg version="1.0" xmlns="http://www.w3.org/2000/svg"
 width="1600.000000pt" height="1234.000000pt" viewBox="0 0 1600.000000 1234.000000"
 preserveAspectRatio="xMidYMid meet">
<metadata>
Created by potrace 1.16, written by Peter Selinger 2001-2019
</metadata>
<g transform="translate(0.000000,1234.000000) scale(0.100000,-0.100000)"
fill="#000000" stroke="none">
<path d="M12450 11304 c-47 -25 -106 -66 -133 -92 l-47 -46 -58 56 c-31 31
-70 62 -85 67 -68 26 -347 6 -452 -32 -136 -49 -263 -103 -330 -140 -11 -6
-69 -36 -130 -68 -88 -45 -129 -74 -205 -145 -159 -149 -218 -229 -246 -333
-15 -55 -16 -73 -6 -133 7 -38 21 -87 32 -109 12 -22 18 -44 15 -49 -3 -6 -26
-10 -51 -10 -56 0 -138 -37 -181 -82 -34 -36 -137 -212 -189 -323 -40 -87
-119 -304 -139 -384 -22 -83 -25 -108 -38 -259 -15 -181 0 -258 80 -419 65
-131 135 -212 211 -245 48 -21 113 -20 210 4 23 6 45 9 47 7 2 -3 -9 -25 -24
-49 -43 -71 -66 -155 -66 -245 0 -80 0 -81 47 -146 54 -76 195 -212 247 -238
20 -10 74 -32 121 -49 109 -39 241 -96 305 -131 27 -16 64 -32 80 -36 17 -4
41 -10 55 -13 14 -4 75 -6 135 -5 90 1 123 6 185 27 116 41 159 77 210 176
l23 45 8 -30 c12 -46 29 -309 29 -442 0 -65 4 -167 9 -228 19 -225 23 -325 12
-325 -12 0 -116 60 -193 112 -177 119 -423 218 -549 220 -90 2 -174 -42 -220
-113 -43 -67 -87 -179 -98 -247 -27 -170 67 -357 199 -396 79 -23 247 -31 375
-16 120 13 207 44 345 120 83 46 114 71 141 115 l19 30 1 -60 c9 -692 9 -736
-3 -729 -20 12 -121 90 -143 111 -69 65 -192 152 -264 186 -177 83 -377 74
-500 -23 -65 -52 -119 -156 -127 -250 -13 -134 58 -302 158 -376 87 -64 141
-79 278 -77 102 1 127 4 210 33 52 17 115 43 140 57 25 14 62 35 82 46 58 32
140 103 164 142 l22 36 6 -103 c18 -275 29 -788 18 -788 -17 0 -21 12 -12 35
7 20 1 30 -42 74 -141 142 -397 246 -608 246 -88 0 -100 -3 -161 -33 -94 -47
-134 -84 -168 -155 -76 -157 -42 -280 127 -459 139 -147 315 -174 562 -87 142
51 185 88 256 220 l45 84 -6 -119 c-3 -66 -8 -122 -10 -125 -12 -21 -19 -554
-9 -715 9 -151 9 -151 -99 -44 -105 106 -197 164 -334 209 -125 42 -226 48
-328 19 -217 -61 -316 -148 -350 -308 -37 -173 2 -280 140 -385 110 -83 270
-141 367 -131 13 1 50 3 83 5 41 1 107 18 205 52 142 49 147 51 226 123 l81
74 8 -143 c4 -78 8 -167 10 -197 8 -135 16 -454 20 -795 4 -347 8 -445 21
-505 16 -70 2 -282 -25 -392 l-9 -38 43 0 c39 0 43 3 48 28 3 15 10 46 16 69
14 53 17 207 8 348 -11 170 -17 383 -15 523 1 70 1 206 0 302 -1 167 -3 214
-19 515 -13 235 -8 1216 7 1395 22 265 17 899 -10 1167 -5 54 -12 289 -15 523
-3 234 -9 481 -15 550 -16 211 -29 456 -35 660 -6 195 -23 341 -51 434 -12 44
-12 56 2 107 l16 57 50 4 c28 1 52 -1 53 -7 13 -45 26 -253 30 -465 2 -140 7
-282 10 -315 2 -33 10 -143 16 -245 5 -102 12 -201 14 -220 2 -19 6 -127 10
-240 7 -263 13 -363 32 -535 16 -152 19 -253 28 -825 3 -243 1 -396 -6 -435
-21 -120 -47 -549 -43 -715 2 -91 6 -293 8 -450 4 -278 16 -420 52 -645 13
-79 16 -160 14 -390 -2 -159 -3 -321 -3 -360 -1 -38 3 -212 8 -385 4 -173 8
-345 7 -383 l-1 -67 45 0 45 0 0 547 c0 302 1 611 2 688 2 159 -7 299 -28 430
-23 141 -46 328 -41 333 3 2 34 -22 70 -55 137 -126 281 -163 516 -133 103 13
242 81 299 147 46 52 117 157 150 220 42 83 19 219 -53 306 -45 55 -75 73
-181 112 -71 27 -92 30 -195 30 -97 0 -125 -4 -180 -24 -69 -25 -158 -72 -252
-131 -58 -36 -168 -152 -168 -176 0 -7 -4 -16 -10 -19 -6 -4 -9 47 -9 142 1
81 1 233 0 337 0 104 2 206 4 225 3 20 7 68 9 106 11 172 29 341 36 349 5 5
51 -31 108 -85 110 -104 224 -176 334 -210 63 -19 76 -20 194 -9 178 16 321
76 358 151 23 47 36 147 25 202 -11 62 -56 193 -82 239 -41 75 -168 149 -289
168 -61 9 -71 8 -120 -13 -29 -13 -75 -29 -103 -37 -27 -8 -70 -25 -95 -39
-25 -14 -67 -37 -92 -51 -26 -13 -88 -64 -137 -112 -50 -48 -93 -88 -96 -88
-4 0 -5 66 -4 148 1 81 -1 266 -5 412 l-8 265 28 -26 c41 -36 69 -52 159 -88
119 -48 218 -64 345 -56 127 9 121 8 195 36 171 63 275 187 292 344 6 59 -9
103 -68 191 -72 106 -202 174 -331 174 -55 0 -176 -26 -192 -41 -6 -5 -17 -9
-26 -9 -50 0 -144 -72 -298 -228 -57 -58 -107 -101 -111 -96 -23 25 -65 784
-43 784 4 0 37 -15 72 -34 160 -83 425 -146 618 -146 81 0 118 16 172 77 62
69 96 135 113 223 19 92 14 159 -17 225 -34 74 -79 120 -154 157 -64 31 -72
33 -182 33 -122 0 -170 -12 -234 -58 -17 -12 -38 -26 -47 -32 -175 -104 -312
-220 -341 -289 l-17 -41 -2 40 c-1 22 -3 51 -4 65 -1 14 -5 90 -9 170 -5 80
-10 147 -11 150 -2 3 -6 133 -9 290 -4 157 -9 304 -12 328 -3 23 -3 42 0 42 3
0 37 -40 75 -88 109 -138 165 -167 296 -156 132 12 269 73 399 176 304 244
551 517 601 668 23 68 13 146 -26 223 -40 78 -34 91 47 111 135 34 217 97 265
201 64 141 79 209 90 390 5 94 16 217 25 275 17 109 15 180 -5 339 -16 122
-51 191 -117 231 -79 50 -231 74 -312 51 -44 -13 -54 10 -21 47 77 85 119 156
119 198 0 40 -56 121 -114 163 -28 21 -103 73 -166 116 -63 43 -126 87 -140
97 -48 37 -158 105 -192 118 -18 7 -42 22 -54 32 -11 10 -27 18 -35 18 -8 0
-24 7 -37 15 -12 9 -61 32 -109 51 -49 19 -97 38 -108 43 -74 31 -168 51 -241
51 -74 -1 -84 -4 -164 -46z m313 -29 c180 -65 385 -169 527 -267 36 -24 110
-75 165 -113 268 -184 283 -204 226 -310 -33 -60 -131 -175 -154 -179 -46 -8
-64 -18 -213 -117 -73 -48 -240 -175 -248 -188 -13 -21 -23 -11 -30 27 -8 49
-46 129 -80 170 -114 134 -407 211 -562 146 -61 -26 -64 -16 -66 235 -4 477 2
498 163 578 104 52 165 56 272 18z m-641 -67 c85 -88 89 -119 59 -447 -11
-112 -17 -211 -13 -219 6 -17 8 -18 -81 27 -153 77 -365 38 -534 -98 -119 -96
-226 -255 -241 -357 l-7 -45 -73 50 c-105 73 -213 163 -269 224 -26 30 -63 65
-82 78 l-33 24 4 80 c5 94 28 144 111 241 96 113 176 175 316 248 216 113 396
189 487 205 32 6 82 15 109 20 28 5 85 9 128 10 l79 1 40 -42z m-74 -693 c69
-38 109 -83 171 -194 35 -63 63 -61 136 10 61 59 114 79 209 79 103 0 171 -22
264 -84 63 -43 107 -137 107 -231 -1 -130 -63 -233 -174 -285 -56 -26 -63 -41
-28 -57 17 -8 41 -6 97 9 96 25 221 26 258 2 97 -62 152 -126 152 -179 0 -57
-29 -165 -61 -230 -63 -125 -104 -157 -232 -179 l-72 -12 -3 -38 c-4 -46 7
-56 61 -56 70 0 114 -72 124 -205 5 -52 1 -69 -24 -125 -55 -120 -197 -216
-315 -213 -71 2 -109 18 -181 77 -60 48 -94 57 -121 30 -17 -16 -21 -34 -8
-34 4 0 21 -21 39 -48 51 -75 61 -197 20 -263 -11 -19 -114 -76 -129 -71 -4 1
-20 -3 -35 -9 -77 -31 -186 -42 -258 -27 -23 5 -59 65 -79 130 -17 57 -13 146
9 188 20 38 7 54 -35 44 -38 -9 -60 -33 -91 -103 -57 -124 -200 -242 -299
-245 -39 -1 -149 51 -192 91 -36 34 -76 127 -84 196 -9 73 13 134 73 202 61
71 54 94 -23 73 -86 -23 -110 -21 -165 9 -53 28 -151 133 -171 183 -36 87 -41
237 -12 317 21 59 84 120 125 121 42 1 89 21 89 38 0 8 -15 20 -32 27 -39 17
-99 81 -128 137 -62 122 -33 281 67 357 56 43 129 39 270 -15 l53 -20 25 20
c26 20 26 21 7 42 -27 30 -42 80 -42 144 0 142 167 338 343 402 77 28 86 29
167 26 61 -2 86 -8 128 -31z m1891 -181 c48 -14 55 -20 73 -60 18 -42 30 -114
44 -274 4 -40 0 -107 -9 -170 -9 -58 -19 -154 -22 -215 -11 -209 -24 -276 -79
-412 -28 -69 -54 -124 -58 -122 -3 2 -18 -7 -32 -20 -17 -16 -44 -27 -78 -32
-29 -4 -78 -12 -109 -18 -49 -8 -68 -6 -160 19 -57 16 -141 42 -186 59 -45 17
-106 33 -135 37 -29 4 -61 13 -72 20 -17 12 -16 13 11 27 102 53 244 331 220
429 -15 59 -111 153 -205 202 -18 9 -70 22 -115 28 -45 7 -84 13 -86 14 -2 2
15 30 38 63 22 34 41 66 41 72 0 6 9 9 20 6 14 -4 78 29 203 102 200 118 413
225 492 246 68 18 141 18 204 -1z m-3081 -129 c29 -9 67 -24 85 -35 17 -10 52
-30 77 -45 25 -14 69 -37 98 -50 28 -14 52 -28 51 -32 0 -5 -26 -20 -57 -35
-72 -34 -124 -85 -157 -151 -64 -131 -52 -248 37 -366 l41 -54 -34 -26 c-80
-62 -114 -111 -123 -181 -13 -99 -13 -129 0 -200 16 -82 47 -142 107 -207 22
-24 38 -45 36 -47 -2 -2 -29 -16 -59 -31 -30 -15 -68 -38 -83 -51 -16 -13 -35
-24 -44 -24 -8 0 -29 -6 -46 -14 -48 -21 -120 -36 -176 -36 -42 0 -57 6 -97
37 -62 47 -77 65 -113 138 -108 215 -122 280 -104 477 17 185 34 251 118 468
75 194 195 416 241 447 20 12 67 23 140 32 6 0 34 -6 62 -14z m2287 -1145 c22
-7 65 -21 95 -31 30 -9 75 -23 99 -29 25 -7 68 -27 96 -45 28 -18 61 -36 73
-39 30 -10 101 -93 124 -145 10 -25 21 -63 25 -86 19 -140 -226 -440 -614
-751 -104 -83 -245 -144 -336 -144 -46 0 -52 3 -106 58 -31 31 -65 74 -74 94
-10 20 -45 65 -78 100 -33 35 -66 73 -74 85 -14 21 -12 22 41 39 41 13 65 28
96 63 60 68 80 119 76 196 l-3 64 25 -7 c14 -4 66 -7 116 -7 86 0 94 2 176 42
66 33 100 58 147 108 72 78 85 101 102 183 11 54 11 71 -4 134 -10 41 -29 87
-44 107 -15 19 -20 32 -12 29 8 -3 32 -11 54 -18z m-1989 -359 c16 -5 42 -12
57 -16 l29 -6 -24 -32 c-35 -48 -45 -76 -47 -142 -4 -108 59 -232 144 -282 97
-58 161 -83 207 -83 89 0 217 56 290 128 26 25 49 44 51 41 1 -2 14 -29 27
-59 28 -61 92 -137 127 -151 19 -7 23 -16 22 -51 -1 -53 -12 -83 -66 -173 -54
-93 -74 -109 -165 -139 -137 -46 -222 -33 -439 70 -75 35 -142 64 -148 64 -5
0 -55 17 -109 38 -138 54 -218 121 -323 269 -16 23 -29 49 -29 59 0 25 65 157
109 222 53 77 169 195 209 211 17 7 32 20 32 27 0 16 7 17 46 5z m2058 -1501
c73 -28 102 -52 133 -113 35 -70 28 -143 -23 -245 -49 -97 -86 -128 -161 -138
-97 -12 -279 12 -421 57 -130 40 -252 92 -252 106 0 30 128 156 191 188 25 13
59 34 75 47 40 33 122 84 164 102 55 24 225 21 294 -4z m-1744 -104 c102 -22
243 -80 354 -147 55 -34 143 -86 193 -116 l93 -55 -20 -28 c-60 -84 -274 -188
-442 -215 -96 -15 -198 -12 -317 9 -129 24 -179 73 -200 197 -14 84 -3 140 47
240 33 65 43 76 91 101 61 32 103 35 201 14z m1769 -846 c70 -20 141 -72 177
-131 39 -65 40 -71 18 -147 -22 -78 -98 -151 -211 -204 l-82 -39 -148 -1
c-131 -2 -156 1 -218 21 -95 32 -226 95 -249 119 -17 19 -17 22 -1 46 10 14
20 26 24 26 4 0 59 48 121 106 142 131 170 150 273 185 64 21 102 28 172 28
50 1 105 -3 124 -9z m-1551 -121 c40 -16 97 -46 126 -66 81 -58 276 -215 276
-223 0 -17 -87 -90 -159 -134 -200 -121 -447 -155 -590 -83 -138 69 -216 265
-153 384 39 74 75 107 144 130 86 30 101 32 198 26 61 -3 105 -13 158 -34z
m1608 -957 c83 -42 115 -84 149 -193 37 -122 33 -200 -13 -238 -111 -92 -404
-131 -537 -71 -75 34 -180 106 -253 174 l-64 60 83 80 c87 84 119 106 150 106
10 0 22 6 26 14 10 17 60 39 173 77 114 39 198 36 286 -9z m-1606 -26 c189
-43 316 -99 402 -176 60 -54 61 -46 -14 -175 -67 -114 -117 -148 -279 -194
-94 -26 -252 -29 -322 -5 -94 32 -224 183 -247 286 -11 47 -10 59 10 110 22
61 55 95 124 130 105 54 172 59 326 24z m-128 -1150 c175 -34 325 -113 445
-236 90 -91 162 -190 139 -190 -9 0 -16 -4 -16 -10 0 -13 -107 -118 -150 -146
-19 -12 -84 -40 -145 -61 -106 -37 -115 -38 -245 -38 l-135 0 -75 39 c-153 79
-216 136 -256 231 -13 31 -15 59 -11 123 4 74 9 89 41 137 42 64 94 95 231
136 110 33 90 32 177 15z m1620 -47 c87 -17 182 -57 220 -92 26 -24 41 -50 54
-93 l17 -59 -34 -61 c-19 -34 -62 -96 -96 -137 -55 -67 -73 -81 -145 -116 -95
-45 -156 -59 -285 -66 -177 -9 -273 24 -384 131 -66 64 -85 103 -60 118 5 3
19 24 30 47 69 132 258 264 451 315 97 25 156 29 232 13z"/>
<path d="M11844 10249 c-85 -19 -182 -160 -192 -277 -7 -85 22 -220 63 -299
18 -35 30 -63 26 -63 -4 0 -23 12 -42 26 -67 51 -213 104 -286 104 -32 0 -53
-8 -87 -32 -104 -78 -101 -148 14 -278 52 -58 115 -103 143 -99 7 1 28 1 47 0
34 -2 34 -3 -35 -38 -101 -52 -209 -143 -229 -193 -24 -61 -21 -85 17 -114 85
-65 207 -72 342 -20 11 5 -10 -26 -49 -71 -38 -43 -74 -92 -81 -109 -34 -83
28 -202 130 -247 61 -27 155 -30 201 -6 35 18 90 77 106 113 11 23 13 22 50
-38 21 -35 48 -70 60 -80 57 -43 229 -23 267 31 39 56 46 95 33 186 -7 47 -15
93 -19 102 -3 10 16 -3 43 -28 90 -86 170 -111 269 -85 69 17 108 53 124 113
15 53 14 68 -10 116 -23 44 -175 197 -196 197 -7 0 -13 4 -13 9 0 5 21 12 47
16 72 11 136 38 206 88 69 50 121 104 132 137 9 28 -36 103 -78 129 -79 48
-220 64 -318 35 -93 -28 -154 -43 -158 -38 -2 2 -2 5 0 7 47 32 163 125 191
154 56 59 131 186 141 241 9 45 -15 90 -58 108 -19 7 -65 17 -103 20 -60 6
-77 4 -116 -15 -49 -24 -142 -119 -188 -190 l-28 -45 0 41 c0 155 -121 366
-224 392 -52 13 -84 13 -142 0z m143 -71 c29 -27 90 -144 110 -210 38 -128 -3
-537 -59 -571 -39 -25 -118 69 -220 263 -61 114 -88 210 -88 307 0 99 74 226
138 236 45 7 96 -3 119 -25z m597 -168 c40 -15 35 -70 -15 -169 -53 -104 -148
-194 -358 -341 l-34 -24 7 45 c9 57 108 289 152 355 19 28 55 72 81 97 43 43
52 47 95 47 25 0 58 -4 72 -10z m-1103 -334 c63 -19 105 -42 159 -84 53 -42
185 -190 177 -199 -3 -3 -83 -5 -177 -5 l-172 0 -30 28 c-87 83 -113 139 -93
198 26 76 52 87 136 62z m1294 -168 c30 -16 48 -41 60 -85 5 -17 -4 -32 -38
-66 -95 -96 -286 -155 -408 -127 -68 16 -205 55 -241 69 -27 10 -39 41 -17 41
6 0 30 16 52 36 49 45 119 76 267 120 100 29 127 33 205 31 58 -2 101 -9 120
-19z m-807 -202 c12 -13 -65 -97 -144 -158 -69 -53 -215 -129 -294 -152 -54
-16 -99 -14 -152 6 -35 13 -41 31 -26 80 24 80 199 193 343 223 63 13 260 13
273 1z m142 -149 c17 -43 40 -97 52 -120 21 -40 39 -109 75 -283 14 -69 14
-88 4 -127 -15 -54 -47 -87 -86 -90 -24 -2 -34 8 -79 74 -77 111 -98 200 -86
369 5 69 15 149 23 178 15 54 45 98 58 85 4 -5 21 -43 39 -86z m174 37 c33 -8
79 -26 101 -39 22 -12 58 -28 80 -34 22 -6 56 -25 75 -42 19 -17 46 -41 60
-53 36 -30 71 -82 76 -113 3 -15 0 -47 -7 -70 -10 -37 -17 -44 -48 -53 -20 -5
-46 -10 -59 -10 -66 0 -162 89 -247 230 -63 104 -110 200 -99 200 4 0 34 -7
68 -16z m-393 -270 c-6 -127 -14 -203 -25 -232 -48 -132 -137 -163 -231 -80
-78 69 -87 113 -39 187 38 57 292 326 301 317 1 -1 -2 -87 -6 -192z"/>
<path d="M3900 11124 c-14 -3 -56 -15 -95 -26 -38 -12 -76 -23 -83 -24 -7 -1
-55 -23 -107 -48 -128 -63 -181 -121 -232 -254 -23 -63 -67 -219 -77 -277 -3
-16 -12 -61 -21 -100 -8 -38 -15 -92 -15 -119 0 -76 -12 -46 -21 51 -10 112
-70 335 -119 438 -41 85 -113 177 -170 216 -19 13 -41 30 -48 37 -42 39 -179
69 -266 58 -172 -22 -350 -77 -523 -162 -83 -40 -156 -74 -162 -74 -17 0 -90
-69 -120 -114 -52 -76 -64 -132 -59 -284 4 -133 5 -140 45 -239 61 -150 129
-266 244 -418 56 -74 100 -138 96 -141 -9 -10 -63 29 -157 111 -85 75 -94 83
-105 95 -5 5 -37 31 -70 58 -33 26 -64 52 -70 59 -5 6 -42 32 -81 56 -39 25
-77 53 -84 63 -18 20 -100 59 -159 74 -53 14 -104 7 -194 -27 -77 -28 -138
-73 -215 -158 -69 -76 -102 -134 -157 -280 -25 -66 -55 -142 -67 -170 -72
-176 -95 -412 -51 -530 13 -32 36 -76 53 -96 39 -49 38 -59 -5 -59 -49 0 -85
-37 -140 -147 l-46 -92 3 -458 3 -458 28 -70 c15 -38 53 -108 85 -155 44 -66
66 -89 100 -105 23 -11 42 -23 42 -27 0 -4 -28 -25 -62 -47 -64 -40 -119 -84
-170 -135 l-28 -28 0 -179 c0 -208 -2 -200 105 -344 203 -272 357 -416 540
-505 97 -47 144 -50 233 -12 39 16 89 44 111 61 59 47 78 41 40 -14 -71 -104
-145 -301 -136 -365 15 -118 117 -241 280 -339 113 -68 166 -91 376 -160 231
-77 467 -124 589 -120 80 4 97 8 166 43 42 22 81 47 86 57 6 10 17 24 25 32 8
8 32 48 53 89 l39 73 11 -70 c28 -170 66 -228 207 -310 15 -9 18 -30 21 -140
8 -233 11 -2459 4 -2479 -5 -16 -11 -10 -30 30 -82 173 -224 346 -365 444 -43
29 -141 84 -219 123 -77 39 -135 72 -128 74 25 9 55 87 60 158 12 182 -100
383 -278 499 -76 50 -150 83 -209 92 -22 4 -41 9 -41 13 0 3 48 21 107 40 59
19 173 67 253 106 129 64 152 79 207 138 53 57 65 78 84 139 39 130 12 252
-77 356 -20 24 -54 52 -77 63 -58 30 -169 35 -292 14 -210 -36 -353 -100 -494
-223 -36 -32 -91 -76 -121 -98 -30 -23 -113 -97 -185 -166 l-130 -126 -7 207
c-15 469 -105 724 -288 816 -45 23 -171 16 -216 -11 -108 -68 -142 -105 -196
-216 -27 -57 -33 -134 -14 -208 18 -70 66 -176 101 -225 12 -16 45 -68 73
-115 28 -47 89 -129 136 -182 81 -92 91 -109 56 -102 -8 1 -39 7 -69 13 -57
12 -348 15 -375 5 -11 -4 -16 -19 -16 -45 l0 -39 153 0 c154 0 277 -14 377
-44 132 -39 103 -45 -215 -44 -137 1 -264 -2 -281 -6 -32 -7 -43 -26 -36 -59
3 -17 10 -18 65 -10 34 4 96 8 137 7 275 -2 350 -5 350 -12 0 -4 -44 -24 -97
-45 -54 -20 -125 -50 -158 -67 -57 -28 -205 -83 -205 -75 0 1 -19 -3 -43 -10
-41 -12 -42 -13 -45 -60 l-3 -47 53 7 c64 9 210 55 258 82 55 31 210 93 231
93 26 0 24 -10 -14 -66 -18 -27 -45 -73 -60 -102 -15 -29 -48 -81 -73 -115
-72 -97 -108 -165 -148 -277 -32 -89 -37 -116 -38 -199 -1 -88 1 -102 29 -163
27 -57 40 -72 90 -105 110 -72 156 -92 229 -99 60 -6 76 -3 114 16 85 42 154
134 193 255 29 87 37 155 43 335 5 150 2 189 -15 275 -11 55 -18 101 -16 103
2 2 6 -5 9 -15 13 -44 96 -416 110 -493 8 -47 29 -150 45 -230 18 -83 31 -174
31 -215 0 -39 6 -124 14 -190 17 -148 27 -442 18 -550 l-7 -80 -48 86 c-74
130 -137 208 -265 327 -168 155 -218 186 -452 277 -52 20 -144 61 -205 91 -60
30 -113 54 -117 54 -5 0 -8 -22 -8 -50 0 -49 1 -50 48 -75 26 -14 61 -34 77
-44 17 -10 97 -43 177 -74 187 -71 238 -97 318 -162 179 -144 300 -286 392
-457 67 -124 67 -123 13 -143 -37 -15 -66 -17 -158 -12 -93 4 -131 11 -221 41
-228 76 -412 203 -535 369 -33 45 -72 97 -86 116 l-25 34 0 -54 c0 -49 5 -61
58 -139 68 -100 119 -153 227 -233 193 -144 447 -225 655 -210 44 3 91 14 112
25 l38 18 0 -109 c0 -117 2 -121 56 -121 24 0 24 0 24 113 0 61 5 168 10 237
24 344 21 558 -15 925 -12 128 -50 345 -85 490 -40 168 -92 384 -96 405 -3 20
8 12 56 -40 33 -36 93 -103 133 -150 39 -47 114 -127 165 -179 l94 -94 39
-113 c45 -132 136 -322 199 -414 57 -85 187 -219 275 -285 147 -110 278 -157
470 -170 109 -7 176 6 267 51 37 19 69 34 71 34 9 0 6 -538 -3 -647 -5 -67
-11 -128 -12 -135 -2 -8 10 -14 33 -16 35 -3 36 -2 43 37 19 118 26 332 26
756 0 259 0 488 1 510 0 22 1 344 1 715 0 371 0 812 1 980 1 295 -13 605 -28
644 -8 17 -5 18 40 12 26 -4 77 -9 113 -12 35 -2 67 -5 69 -8 10 -10 34 -196
41 -316 4 -69 6 -368 4 -665 -1 -297 -3 -571 -3 -610 0 -38 3 -200 6 -360 3
-159 8 -423 9 -585 2 -162 7 -307 10 -322 7 -31 12 -331 9 -543 -2 -77 -2
-160 0 -185 l2 -45 40 0 40 0 2 135 c1 74 4 227 7 340 2 113 0 235 -5 272 -12
91 -32 1409 -22 1430 4 7 43 -10 53 -23 7 -10 187 -39 238 -39 51 0 269 36
308 50 24 9 94 41 209 96 55 26 153 87 258 161 134 94 264 265 322 422 8 20
23 61 35 91 12 30 32 86 46 124 22 65 23 70 6 82 -9 7 -51 15 -93 19 -67 6
-97 2 -280 -39 -112 -25 -247 -54 -299 -64 -127 -26 -317 -96 -416 -155 -103
-60 -227 -175 -305 -283 -34 -47 -63 -83 -65 -81 -2 2 -5 122 -8 268 -4 263
-16 472 -37 644 -7 50 -14 111 -16 137 -6 53 -25 44 171 79 126 22 253 62 349
111 100 50 193 161 224 268 21 73 12 232 -18 297 -27 60 -20 74 16 28 39 -53
142 -155 189 -189 87 -65 180 -80 298 -50 127 33 223 95 303 198 31 39 80 100
110 136 80 94 164 232 187 303 13 41 21 104 25 184 6 120 5 122 -22 170 -16
26 -46 72 -68 101 -21 30 -37 55 -35 57 2 2 28 -7 57 -20 29 -14 62 -25 72
-25 11 0 37 -9 58 -19 43 -23 109 -28 199 -17 112 14 189 94 288 295 99 203
107 226 143 439 20 118 29 203 30 308 2 136 1 150 -25 217 -15 40 -40 91 -55
114 l-28 43 45 19 c37 17 49 29 69 73 35 80 48 205 42 428 -4 177 -7 203 -31
278 -55 171 -111 271 -208 377 -60 65 -113 94 -175 95 -23 0 -45 5 -48 10 -3
6 -2 10 3 10 4 0 17 8 28 18 10 10 40 32 65 50 61 41 79 86 91 231 12 136 4
178 -52 271 -70 119 -302 365 -395 420 -22 13 -89 55 -150 94 -142 90 -240
125 -347 122 -69 -2 -88 -8 -165 -45 -80 -39 -101 -56 -232 -189 -79 -80 -161
-170 -184 -199 -39 -53 -61 -64 -39 -20 35 69 138 316 168 400 40 115 58 248
43 315 -11 49 -51 128 -79 154 -65 62 -293 172 -400 195 -91 19 -323 36 -370
27z m271 -78 c125 -17 204 -42 322 -103 96 -50 125 -83 148 -176 24 -97 -20
-285 -113 -484 -47 -103 -157 -365 -198 -475 -25 -67 -85 -195 -97 -208 -2 -2
-23 6 -46 17 -23 12 -64 32 -92 44 -27 12 -51 23 -53 24 -3 2 106 216 118 230
5 6 45 83 90 172 44 90 93 176 107 193 22 27 24 35 14 56 -8 19 -17 24 -41 22
-37 -3 -71 -48 -150 -201 -71 -138 -223 -431 -225 -435 -2 -2 -93 19 -103 24
-1 0 9 36 24 80 14 43 36 122 49 174 14 52 36 128 50 169 14 41 32 113 41 160
15 84 64 269 86 323 20 52 -5 93 -50 81 -28 -7 -69 -132 -121 -368 -11 -49
-32 -124 -46 -165 -14 -41 -37 -120 -51 -175 -13 -55 -36 -135 -51 -177 -26
-76 -27 -78 -60 -78 -39 0 -39 -1 -18 144 8 55 20 195 28 310 12 200 11 210
-6 233 -15 19 -22 21 -33 12 -8 -6 -14 -8 -14 -3 0 4 -5 3 -11 -3 -11 -11 -24
-129 -33 -318 -4 -66 -13 -165 -22 -220 -25 -159 -18 -145 -72 -145 -26 0 -78
-3 -115 -7 l-68 -6 5 94 c20 371 27 450 51 554 77 338 122 443 216 507 79 53
249 112 379 132 45 6 54 6 161 -8z m-1363 -88 c30 -18 85 -66 123 -107 58 -63
75 -91 113 -180 54 -132 83 -238 96 -361 5 -52 14 -117 19 -145 5 -27 12 -75
16 -105 3 -30 15 -106 26 -169 26 -152 25 -159 -8 -167 -16 -3 -56 -14 -91
-24 -34 -10 -64 -14 -67 -10 -3 4 -14 48 -25 96 -24 103 -118 448 -131 482
-21 54 -87 0 -73 -61 3 -18 22 -86 41 -152 19 -66 48 -178 64 -250 16 -71 32
-137 35 -146 3 -12 -7 -21 -37 -33 -23 -9 -43 -16 -44 -14 -6 6 -98 218 -132
303 -20 50 -65 151 -101 225 -35 74 -77 167 -91 205 -24 63 -29 70 -56 73 -21
2 -34 -3 -42 -17 -15 -24 13 -98 120 -321 41 -85 84 -180 95 -211 11 -31 43
-107 71 -169 28 -61 51 -115 51 -119 0 -4 -16 -14 -36 -23 l-35 -16 -53 71
c-310 421 -290 397 -311 397 -21 0 -36 -17 -38 -43 -1 -19 24 -61 95 -159 54
-73 125 -171 159 -217 33 -46 57 -87 52 -90 -4 -4 -30 -25 -56 -46 l-49 -39
-61 65 c-97 102 -218 258 -300 383 -7 10 -26 37 -43 60 -50 67 -139 234 -180
336 -35 88 -38 104 -42 220 -5 157 13 216 85 280 25 22 52 40 59 40 6 0 66 27
132 60 128 65 171 80 327 116 143 33 246 28 323 -18z m2535 -588 c48 -13 111
-46 210 -109 78 -49 157 -102 176 -118 57 -46 231 -244 263 -298 l29 -50 -7
-120 c-3 -66 -13 -136 -21 -157 -36 -91 -248 -232 -468 -311 -38 -14 -105 -41
-148 -61 -42 -20 -80 -36 -83 -36 -3 0 -29 -11 -57 -24 -89 -41 -376 -156
-391 -156 -6 0 -68 121 -64 125 18 13 232 119 284 140 38 15 91 40 119 55 27
16 61 31 75 35 29 9 217 112 243 133 23 21 21 47 -5 65 -21 13 -28 12 -79 -14
-31 -15 -78 -41 -105 -57 -28 -16 -88 -46 -134 -67 -47 -20 -146 -67 -220
-103 -74 -36 -156 -76 -182 -88 l-47 -23 -22 36 -22 36 44 40 c24 22 68 58 97
79 165 122 310 242 407 337 112 109 185 171 202 171 22 0 44 38 38 63 -18 71
-112 20 -305 -168 -58 -56 -161 -145 -230 -198 -69 -53 -164 -128 -212 -166
-48 -39 -91 -71 -96 -71 -17 0 -54 48 -46 61 4 7 37 47 73 90 98 115 162 197
202 259 84 129 111 167 139 197 32 34 37 60 18 85 -33 42 -60 19 -173 -147
-76 -110 -211 -288 -288 -378 l-49 -57 -32 32 c-17 18 -54 48 -80 66 -27 19
-45 37 -40 40 6 4 21 25 34 47 60 101 218 333 247 365 18 19 33 39 33 44 0 11
242 251 295 293 48 37 126 80 169 92 53 15 138 12 209 -9z m-3861 -361 c97
-49 248 -159 383 -278 44 -39 116 -98 160 -131 86 -66 364 -250 377 -250 4 0
8 -4 8 -9 0 -12 -128 -135 -143 -138 -7 -2 -57 34 -112 78 -55 44 -145 110
-200 146 -55 36 -115 79 -133 94 -18 16 -39 29 -47 29 -8 0 -15 4 -15 10 0 5
-21 21 -47 36 -27 15 -74 45 -105 67 -56 38 -58 39 -83 23 -17 -11 -25 -25
-25 -46 0 -25 9 -37 58 -70 81 -57 256 -174 369 -247 53 -33 98 -65 102 -70 3
-5 43 -37 89 -72 l82 -62 -32 -40 c-17 -21 -35 -39 -39 -39 -15 0 -63 24 -129
64 -36 21 -81 45 -100 53 -120 50 -137 58 -321 147 -297 144 -442 201 -471
185 -23 -13 -40 -45 -36 -71 2 -15 15 -25 43 -33 22 -7 60 -21 85 -33 25 -12
80 -35 122 -51 43 -17 86 -35 95 -41 37 -21 290 -137 338 -155 28 -10 88 -39
135 -64 47 -24 106 -55 133 -69 26 -13 47 -26 47 -28 0 -3 -7 -18 -15 -33
l-14 -29 -43 15 c-48 17 -86 27 -263 71 -66 17 -145 39 -175 51 -30 11 -73 23
-95 27 -50 10 -45 8 -80 23 -75 31 -108 21 -119 -36 -5 -30 -3 -34 30 -48 20
-8 71 -24 113 -34 385 -97 591 -155 591 -168 0 -2 -11 -25 -24 -51 -23 -47
-46 -111 -66 -190 -8 -32 -14 -41 -23 -33 -7 5 -46 21 -87 34 -185 61 -417
156 -645 262 -16 8 -56 25 -87 39 -41 18 -81 48 -137 104 -85 85 -119 141
-128 213 -9 74 15 244 43 308 14 31 41 103 61 161 19 58 49 131 65 163 38 70
161 190 226 219 89 41 201 39 284 -3z m2198 -494 c183 -39 216 -47 278 -72
131 -52 368 -222 504 -360 99 -100 111 -117 168 -231 55 -112 62 -135 81 -250
11 -69 22 -129 24 -133 9 -14 42 -286 39 -324 -1 -22 -4 -71 -5 -109 -3 -91
-53 -260 -100 -336 -11 -17 -30 -61 -33 -75 -7 -26 -72 -148 -133 -250 -85
-140 -171 -231 -363 -382 -134 -105 -173 -129 -330 -209 l-155 -79 -155 2
c-196 3 -254 15 -490 101 -204 74 -262 113 -440 292 -199 199 -279 301 -307
390 -20 63 -62 283 -69 355 -3 33 -10 103 -15 155 -28 258 -22 402 23 635 33
172 38 182 151 297 174 176 229 221 412 336 174 110 215 129 395 185 180 56
224 67 266 68 21 0 48 4 59 9 23 11 102 5 195 -15z m2377 -377 c45 -27 150
-169 190 -257 19 -41 45 -117 59 -170 22 -83 25 -114 23 -236 -3 -187 -25
-300 -65 -332 -71 -57 -227 -68 -669 -44 -223 11 -471 28 -535 36 -19 2 -47 4
-62 5 -28 0 -28 1 -28 63 l0 62 317 -3 c175 -2 347 -7 383 -11 78 -11 100 1
84 46 -7 20 -19 29 -49 37 -22 5 -198 10 -390 10 l-351 1 1 38 c0 43 -2 42
115 57 47 6 180 26 295 45 409 66 470 75 507 75 43 0 64 26 53 67 -6 24 -8 25
-68 20 -72 -6 -495 -69 -612 -91 -44 -8 -125 -20 -180 -27 -61 -7 -104 -17
-112 -26 -9 -11 -13 -4 -22 37 -6 28 -11 57 -11 65 0 19 350 127 585 180 55
13 112 28 128 34 29 11 35 38 16 70 -11 17 -15 17 -103 -1 -129 -26 -307 -76
-569 -159 -38 -11 -71 -18 -74 -15 -4 3 -14 28 -24 56 -20 58 -19 59 66 90 33
12 137 52 230 88 94 37 172 67 175 67 3 1 32 14 65 29 69 32 159 65 195 72 14
3 47 12 74 20 27 7 72 14 100 15 28 0 60 4 71 9 34 14 157 0 192 -22z m-5060
-442 c17 -9 67 -23 110 -31 43 -8 87 -19 98 -24 11 -5 40 -17 65 -27 25 -9 63
-25 85 -35 49 -21 282 -99 297 -99 5 0 24 -6 41 -14 45 -19 161 -56 178 -56
11 0 14 -10 11 -40 l-4 -40 -67 5 c-36 4 -79 8 -96 10 -16 2 -68 6 -115 10
-113 8 -263 24 -330 34 -60 10 -85 2 -95 -28 -10 -32 5 -71 29 -75 47 -9 230
-27 376 -36 85 -6 185 -13 223 -16 l67 -7 0 -49 0 -50 -480 4 c-476 3 -479 3
-500 -18 -17 -17 -20 -28 -15 -55 l6 -34 500 2 c379 1 499 -1 499 -10 0 -7 3
-21 6 -33 5 -18 -2 -22 -58 -37 -35 -9 -76 -18 -93 -22 -16 -3 -59 -12 -95
-20 -36 -8 -103 -22 -149 -30 -46 -8 -91 -17 -100 -19 -9 -3 -50 -8 -91 -11
-41 -4 -83 -11 -92 -16 -26 -14 -39 -45 -32 -75 7 -26 8 -27 73 -20 62 5 240
39 530 101 68 14 124 25 126 23 2 -2 6 -31 10 -65 7 -61 6 -63 -16 -63 -12 0
-30 -6 -38 -14 -9 -7 -38 -22 -66 -32 -27 -10 -61 -24 -75 -31 -14 -7 -32 -13
-40 -13 -9 0 -25 -6 -36 -14 -11 -8 -47 -22 -80 -30 -72 -19 -131 -40 -140
-49 -4 -4 -17 -7 -28 -7 -12 0 -31 -6 -42 -14 -11 -8 -60 -26 -109 -40 -50
-15 -106 -32 -125 -38 -47 -16 -177 -12 -245 7 -65 19 -81 38 -149 175 -40 81
-50 114 -67 220 -18 108 -20 151 -14 310 12 346 15 375 59 458 56 107 53 105
165 100 63 -3 107 -11 128 -22z m4228 -686 c33 -5 67 -9 75 -9 8 0 129 -7 268
-15 285 -17 457 -33 487 -46 11 -5 35 -13 54 -19 56 -18 102 -60 130 -120 25
-54 26 -63 26 -226 0 -231 -32 -393 -112 -575 -115 -258 -167 -304 -343 -301
-122 2 -360 91 -595 223 -125 71 -243 134 -318 170 -86 42 -207 116 -207 126
0 6 69 151 76 160 1 2 26 -4 56 -12 29 -9 94 -28 143 -42 50 -15 155 -53 235
-86 79 -32 183 -68 229 -80 81 -20 85 -20 98 -2 28 38 10 59 -63 74 -27 5 -83
22 -124 38 -41 16 -131 51 -200 76 -69 26 -159 60 -200 76 -41 15 -88 32 -103
35 -22 6 -26 11 -22 29 13 45 28 76 35 71 4 -2 78 -18 164 -35 86 -17 185 -39
219 -50 34 -10 154 -42 267 -70 113 -29 243 -63 289 -76 105 -30 119 -30 133
1 17 37 1 47 -122 80 -58 15 -143 39 -190 51 -47 13 -143 39 -215 59 -71 19
-197 49 -279 66 -81 17 -170 38 -196 48 l-47 16 24 74 c12 41 25 76 27 79 3 2
32 -6 66 -17 38 -14 110 -25 193 -32 73 -6 184 -22 246 -35 108 -22 116 -23
133 -7 11 9 18 26 16 37 -4 29 -136 63 -298 76 -167 14 -194 18 -268 42 l-63
20 6 61 c10 93 2 88 112 82 54 -3 125 -10 158 -15z m-3227 -464 c17 -46 32
-88 32 -93 0 -8 -166 -93 -182 -93 -3 0 -75 -33 -159 -74 -245 -117 -371 -175
-450 -205 -57 -22 -75 -33 -77 -50 -4 -26 22 -54 51 -53 23 0 227 77 312 117
99 48 281 132 335 156 30 13 74 34 97 45 50 25 58 17 11 -10 -60 -35 -243
-158 -265 -179 -13 -11 -23 -18 -23 -14 0 8 -164 -102 -205 -137 -16 -14 -33
-26 -36 -26 -4 0 -32 -19 -62 -42 -31 -24 -101 -72 -156 -107 -56 -35 -101
-70 -101 -77 0 -7 11 -25 24 -41 24 -28 24 -28 57 -10 19 9 63 38 99 63 123
87 555 380 600 408 25 15 83 51 129 81 85 55 100 57 101 15 0 -16 -141 -161
-220 -226 -94 -77 -220 -200 -220 -214 0 -21 28 -60 44 -60 7 0 55 40 107 89
52 49 117 106 144 128 28 22 84 72 125 112 l75 71 20 -23 c58 -68 73 -90 69
-102 -5 -12 -117 -115 -126 -115 -2 0 -48 -45 -103 -99 -55 -54 -138 -151
-185 -216 -79 -109 -161 -202 -220 -250 -138 -112 -239 -165 -314 -165 -37 0
-147 55 -232 115 -75 54 -181 170 -305 335 -134 177 -169 269 -134 344 10 20
21 36 26 36 5 0 9 5 9 10 0 16 122 130 138 130 5 0 17 10 28 21 17 20 118 89
129 89 3 0 26 13 53 29 41 26 187 88 225 95 16 4 41 14 105 42 28 12 52 20 52
17 0 -3 6 0 14 6 7 6 85 36 172 67 88 30 184 67 214 81 75 35 134 61 140 62 3
0 20 -37 38 -83z m2759 -497 c65 -39 139 -83 166 -97 26 -13 47 -28 47 -32 0
-3 23 -17 52 -31 29 -13 64 -35 78 -48 14 -12 39 -30 55 -38 40 -21 46 -26
145 -125 97 -96 175 -193 208 -258 21 -41 22 -53 16 -140 -13 -179 -52 -261
-219 -460 -39 -47 -86 -104 -104 -128 -56 -72 -204 -131 -294 -118 -62 10
-130 45 -195 101 -60 51 -205 222 -243 285 -12 19 -24 37 -28 40 -3 3 -15 23
-26 45 -11 22 -22 42 -25 45 -3 3 -16 25 -28 50 -97 185 -196 360 -245 429
l-24 35 56 42 c31 23 65 51 75 63 l18 20 22 -29 c89 -124 130 -177 197 -261
42 -52 106 -135 141 -185 70 -97 98 -113 132 -75 17 19 18 22 2 43 -9 13 -31
44 -50 71 -19 26 -93 123 -163 215 -71 92 -143 188 -161 214 -17 25 -37 48
-44 51 -9 3 -5 11 12 26 53 46 43 52 255 -150 110 -104 203 -189 207 -189 5 0
138 -154 286 -332 54 -65 83 -79 112 -53 27 24 26 30 -15 78 -19 23 -80 97
-136 165 -117 143 -171 197 -298 307 -51 44 -134 125 -186 181 l-93 100 32 45
c62 85 45 91 242 -97 97 -93 213 -200 257 -237 67 -58 84 -67 106 -62 14 3 32
14 39 23 11 14 6 22 -34 59 -25 24 -67 60 -93 81 -25 20 -91 82 -146 137 -55
55 -135 133 -177 174 -69 66 -85 91 -58 91 5 0 62 -32 127 -71z m-2225 -269
c4 0 8 -6 8 -12 0 -25 -127 -274 -181 -358 -30 -47 -79 -128 -109 -180 -29
-52 -75 -128 -102 -168 -64 -95 -65 -97 -32 -127 37 -34 55 -31 80 13 11 20
53 88 92 150 40 62 72 115 72 118 0 3 16 31 35 62 91 145 154 260 210 385 10
20 21 37 25 37 5 0 34 -15 65 -32 67 -39 67 -26 -14 -211 -31 -73 -70 -167
-86 -210 -15 -43 -63 -147 -106 -230 -43 -84 -111 -217 -151 -295 l-73 -144
28 -24 c16 -13 34 -24 42 -24 7 0 30 33 50 73 21 39 63 119 93 177 142 271
186 361 218 455 19 55 53 141 75 190 22 50 47 105 55 124 16 36 12 36 109 8
59 -16 58 -11 22 -152 -14 -55 -33 -140 -42 -189 -18 -96 -86 -354 -111 -424
-16 -42 -16 -44 7 -68 18 -19 69 -35 69 -20 0 4 26 104 71 276 17 63 43 176
59 250 30 137 63 254 78 278 8 11 16 11 47 -2 20 -9 45 -16 54 -16 10 0 25 -6
34 -13 16 -11 16 -16 3 -62 -8 -28 -17 -86 -21 -130 -9 -135 -26 -278 -36
-320 -62 -253 -90 -334 -169 -495 -67 -138 -99 -184 -150 -218 -104 -71 -189
-69 -505 8 -95 24 -249 73 -351 113 -147 58 -287 168 -328 257 -26 57 -28 168
-5 225 56 134 95 220 105 230 7 6 49 72 94 146 77 124 126 197 141 209 7 6
175 240 201 281 9 14 51 62 93 107 l77 81 76 -65 c41 -35 79 -64 84 -64z
m1511 -297 c101 -154 155 -264 213 -438 25 -77 54 -156 64 -175 10 -19 21 -55
25 -80 4 -24 16 -65 27 -90 15 -31 22 -76 26 -146 7 -144 -17 -213 -102 -298
-55 -55 -71 -65 -165 -99 -117 -43 -195 -64 -261 -73 -25 -3 -54 -8 -65 -11
-11 -4 -75 -5 -143 -4 -226 4 -320 52 -380 196 -40 97 -47 159 -33 311 6 76
16 193 21 259 5 66 16 156 24 200 9 44 18 132 21 195 2 63 7 139 11 168 l6 52
43 0 c23 0 57 -3 74 -6 l32 -7 -1 -141 c-1 -77 2 -208 6 -289 7 -145 8 -149
31 -160 32 -14 59 2 56 34 0 13 -2 145 -4 294 l-2 270 32 6 c21 4 34 3 36 -5
2 -6 36 -137 74 -291 73 -290 98 -384 171 -644 35 -122 48 -155 64 -161 32
-12 56 6 56 41 0 28 -90 361 -130 479 -19 56 -32 106 -95 355 -43 168 -59 244
-52 251 2 3 20 7 38 10 34 6 34 5 58 -58 67 -177 94 -259 108 -318 25 -107 38
-123 88 -104 13 5 15 15 9 53 -9 67 -60 232 -105 338 -21 51 -39 99 -39 107 0
14 70 43 107 45 6 1 31 -29 56 -66z m-2919 -1439 c52 -29 70 -51 118 -149 33
-66 78 -246 93 -365 8 -63 15 -389 8 -365 -3 10 -35 82 -70 160 -36 77 -85
188 -109 247 -41 101 -43 108 -29 135 19 35 19 57 0 93 -46 88 -184 92 -221 5
-33 -79 0 -145 70 -145 41 0 44 -5 82 -112 14 -40 50 -122 80 -183 29 -60 65
-139 80 -175 15 -36 33 -79 40 -97 12 -28 12 -32 -1 -27 -8 4 -15 10 -15 15 0
4 -19 25 -42 46 -116 104 -227 234 -244 285 -4 13 -31 61 -62 107 -75 116
-110 203 -117 287 -4 61 -1 75 22 122 27 54 99 116 152 133 55 16 117 10 165
-17z m1544 -411 c15 -11 38 -40 52 -64 22 -38 25 -56 25 -139 0 -170 -46 -224
-307 -359 -135 -69 -314 -127 -453 -146 -27 -4 -60 -8 -71 -10 -12 -2 -67 -6
-122 -10 -126 -9 -208 0 -215 23 -3 9 -8 24 -11 33 -6 12 0 18 24 23 50 10
223 94 359 174 68 41 167 94 220 118 53 25 127 59 166 78 67 31 70 32 89 15
32 -30 68 -38 110 -24 61 21 86 51 86 103 0 40 -5 50 -40 84 -48 45 -81 49
-158 17 -51 -21 -55 -26 -67 -85 -5 -27 -15 -36 -68 -59 -34 -16 -99 -45 -145
-67 -46 -21 -85 -38 -86 -38 -2 0 -66 -37 -142 -83 -148 -88 -309 -167 -343
-167 -11 0 -24 -7 -29 -17 -9 -16 -42 -13 -42 5 0 9 174 182 235 233 22 19 46
40 54 47 7 7 39 30 70 52 31 21 71 52 89 69 37 35 130 99 178 124 58 30 219
78 289 86 118 14 221 8 253 -16z m2497 -185 c-18 -61 -77 -212 -114 -288 -53
-110 -168 -252 -258 -316 -228 -163 -484 -280 -623 -285 -19 0 -46 -4 -60 -8
-42 -12 -196 13 -221 35 -43 38 -49 65 -34 135 19 92 28 111 97 207 103 144
166 218 206 245 43 28 161 88 207 105 17 6 80 28 140 51 109 39 165 53 465
110 197 37 203 38 195 9z m-3715 -491 c51 -40 70 -136 31 -157 -75 -39 -162
26 -142 107 14 55 72 81 111 50z m566 -131 c3 -7 49 -23 102 -36 184 -44 223
-63 335 -163 108 -96 183 -255 171 -362 -6 -51 -11 -59 -51 -92 l-43 -36 -63
12 c-34 7 -125 28 -201 47 -162 40 -209 43 -229 14 -13 -18 -17 -15 -88 58
-42 42 -99 106 -127 142 -28 36 -72 85 -97 109 -25 25 -64 70 -87 100 -23 31
-57 73 -75 94 -18 20 -33 41 -33 47 0 5 24 0 53 -12 28 -12 77 -30 107 -40 97
-34 192 -85 299 -160 98 -68 105 -76 115 -118 9 -37 18 -48 46 -62 95 -48 200
12 200 112 0 42 -15 67 -50 85 -37 19 -64 19 -120 -1 -51 -18 -31 -27 -174 74
-55 40 -191 107 -296 148 l-75 29 143 6 c78 3 144 8 147 11 12 12 86 7 91 -6z
m-707 -156 c-30 -96 -73 -266 -105 -419 -17 -81 -19 -84 -53 -97 -53 -21 -63
-28 -84 -56 -22 -29 -25 -94 -7 -128 15 -28 85 -60 133 -60 54 0 97 50 112
132 6 34 -13 94 -36 108 -8 6 52 295 90 435 l19 70 6 -40 c4 -22 15 -85 26
-140 32 -166 12 -468 -40 -623 -30 -86 -41 -104 -95 -155 -62 -60 -102 -56
-215 19 -88 58 -93 63 -115 109 -28 58 -23 198 10 295 32 95 139 286 168 298
4 2 7 8 7 12 0 5 13 28 28 52 16 24 38 59 48 78 10 19 22 37 26 40 4 3 14 25
22 48 14 38 75 127 82 119 2 -2 -10 -45 -27 -97z m1032 -590 c391 -91 706
-286 872 -538 52 -79 134 -245 142 -287 l6 -30 -93 -30 c-82 -26 -105 -30
-198 -28 -232 5 -423 94 -605 282 -99 102 -162 193 -228 331 -61 127 -140 337
-132 351 3 4 29 1 58 -7 28 -8 109 -27 178 -44z"/>
<path d="M3420 9412 c-85 -8 -267 -44 -330 -66 -183 -63 -250 -140 -250 -285
0 -81 14 -120 76 -216 18 -28 16 -28 -46 15 -113 79 -195 101 -257 70 -40 -21
-119 -92 -162 -147 -50 -63 -147 -265 -165 -346 -13 -54 -13 -72 -2 -113 20
-76 52 -141 78 -158 29 -19 209 -66 254 -66 49 0 42 -15 -13 -30 -155 -42
-223 -122 -223 -260 0 -112 51 -218 177 -370 125 -151 151 -170 231 -170 65 0
113 23 176 85 l48 46 -6 -38 c-15 -104 -17 -155 -7 -205 37 -175 249 -245 572
-188 125 22 224 63 259 107 29 37 47 107 49 193 2 67 -2 84 -34 153 -19 43
-35 81 -35 84 0 3 15 -16 33 -43 62 -89 208 -145 300 -115 54 18 106 78 171
197 88 162 91 169 125 304 41 159 50 199 61 285 5 39 12 89 16 113 5 34 3 47
-12 63 -28 31 -89 59 -155 73 -64 13 -64 16 -3 64 l42 32 -3 63 c-5 87 -22
151 -63 227 -19 36 -56 107 -83 157 -54 106 -138 201 -206 234 -87 42 -231 2
-313 -87 -22 -24 -43 -44 -45 -44 -3 0 -4 45 -4 100 1 112 -15 160 -74 227
-44 50 -87 63 -177 55z m81 -84 c12 -7 33 -38 47 -68 39 -85 42 -218 8 -379
-14 -68 -28 -126 -31 -129 -3 -3 -15 4 -28 15 -31 29 -61 43 -91 43 -21 0 -26
6 -35 50 -6 28 -11 61 -11 73 0 41 -12 65 -37 76 -42 19 -49 2 -35 -87 6 -42
14 -87 18 -98 4 -16 0 -23 -14 -26 -19 -5 -39 27 -80 133 -12 32 -50 45 -60
21 -5 -13 20 -96 52 -172 4 -10 -10 -29 -43 -58 l-50 -42 -47 87 c-26 49 -63
114 -82 145 -42 70 -67 183 -52 239 12 44 39 67 124 109 64 31 103 42 250 66
50 8 92 17 95 20 9 8 78 -4 102 -18z m485 -230 c57 -44 102 -101 143 -178 13
-25 45 -83 72 -130 46 -82 71 -155 84 -250 l6 -45 -63 -56 c-48 -43 -73 -57
-106 -63 -24 -3 -62 -16 -84 -27 -42 -21 -138 -53 -143 -47 -7 8 -14 128 -7
125 4 -1 28 6 52 17 25 10 55 22 68 27 12 5 25 16 29 25 15 40 -60 40 -133 0
-39 -22 -42 -22 -52 -5 -10 15 -1 25 61 72 112 85 151 122 143 135 -16 27 -56
10 -147 -63 -52 -41 -97 -75 -100 -75 -4 0 -14 15 -23 34 -22 46 -59 54 -123
26 -26 -11 -58 -31 -70 -42 l-23 -22 6 35 c3 19 19 91 36 160 25 110 32 128
54 138 13 6 28 21 33 34 17 44 124 149 176 173 62 29 75 30 111 2z m-1226
-295 c47 -20 123 -66 140 -83 3 -3 23 -17 46 -32 23 -14 58 -42 78 -60 l37
-34 -62 -37 -62 -37 -46 34 c-25 19 -55 44 -66 56 -39 43 -105 61 -105 28 0
-11 113 -124 152 -153 l28 -20 -20 -24 c-18 -21 -22 -22 -43 -8 -35 23 -135
41 -155 28 -22 -13 17 -49 71 -65 84 -25 83 -25 62 -95 -18 -59 -18 -60 4 -97
l22 -36 -43 6 c-24 3 -63 9 -88 12 -112 13 -195 27 -209 34 -9 4 -42 16 -73
26 -53 17 -59 22 -74 61 -24 61 -12 118 53 253 60 125 112 194 183 246 52 39
78 38 170 -3z m662 -91 c38 -22 42 -42 33 -174 -9 -140 -9 -141 -51 -133 -24
4 -48 0 -80 -15 -26 -11 -50 -20 -54 -20 -11 0 -65 108 -85 169 -23 71 -15
117 27 153 18 16 51 33 73 39 22 5 45 11 50 13 13 4 49 -10 87 -32z m322 -230
c46 -68 74 -151 60 -173 -3 -5 -33 -23 -67 -40 -34 -18 -74 -40 -88 -50 l-25
-18 -12 46 c-13 47 -50 100 -83 118 -18 10 -18 12 4 46 43 70 144 167 157 151
4 -4 28 -40 54 -80z m-655 14 c12 -13 35 -51 51 -84 15 -33 33 -63 39 -66 13
-9 15 -53 2 -61 -5 -3 -12 -19 -16 -36 -8 -37 -30 -46 -133 -55 -75 -6 -79 -6
-111 22 -31 26 -33 31 -27 73 11 80 66 173 126 214 32 22 42 21 69 -7z m391
-211 c43 -43 45 -49 45 -103 0 -74 -25 -111 -91 -134 -62 -21 -107 -13 -144
24 -47 47 -71 166 -40 203 25 30 84 54 135 55 47 0 54 -3 95 -45z m848 30 c28
-9 63 -26 76 -38 25 -22 25 -23 11 -77 -8 -30 -15 -73 -15 -95 0 -23 -20 -122
-45 -221 -39 -150 -56 -199 -108 -302 -34 -68 -72 -134 -84 -147 -45 -50 -118
-42 -189 19 -39 33 -204 297 -204 325 0 6 9 11 19 11 10 0 40 18 66 39 l47 39
52 -55 c28 -30 61 -59 74 -64 26 -10 62 4 62 24 0 7 -32 45 -70 85 -60 63 -69
76 -60 92 6 11 16 20 23 20 11 0 59 -23 120 -56 27 -15 29 -14 47 6 10 12 17
27 14 34 -8 20 -111 76 -141 76 l-29 0 0 64 c1 60 -1 67 -31 98 -38 39 -40 48
-15 48 10 0 51 16 92 36 67 32 137 49 211 53 14 0 49 -6 77 -14z m-428 -192
c19 -24 21 -36 15 -78 -8 -66 -41 -131 -84 -166 -34 -28 -36 -28 -61 -12 -43
28 -145 136 -169 179 -34 60 -20 81 56 83 32 2 78 6 103 10 90 17 117 13 140
-16z m-683 -95 l36 -37 -26 -44 c-15 -24 -43 -59 -63 -76 -30 -27 -41 -31 -68
-26 -48 10 -111 51 -144 92 -25 32 -72 114 -72 126 0 2 21 13 48 24 38 18 116
35 212 47 9 1 20 -13 28 -34 7 -19 29 -51 49 -72z m-417 15 c0 -14 12 -47 26
-71 l27 -46 -54 -47 c-47 -41 -52 -49 -40 -63 21 -25 47 -19 90 20 39 34 40
35 65 18 14 -9 26 -18 26 -20 0 -3 -15 -35 -34 -72 -36 -72 -35 -96 4 -100 21
-2 29 6 52 55 42 88 38 84 88 69 25 -7 51 -11 58 -9 7 3 -3 -22 -21 -54 -19
-32 -60 -105 -92 -163 -82 -148 -100 -175 -138 -204 -64 -49 -90 -36 -194 91
-21 26 -51 61 -66 77 -16 17 -44 58 -63 92 -64 115 -80 213 -45 289 26 56 43
68 156 110 55 21 107 41 115 46 27 15 40 10 40 -18z m750 -164 c11 -42 20 -86
20 -97 0 -31 -36 -55 -98 -63 -155 -22 -231 69 -170 203 24 52 27 54 59 51 20
-2 57 6 89 20 l55 22 13 -29 c7 -16 21 -64 32 -107z m-264 -205 l36 -15 -3
-101 c-4 -98 -3 -101 19 -104 30 -5 40 20 50 116 7 71 8 75 33 78 22 3 28 -3
39 -30 44 -118 47 -123 79 -126 39 -4 41 15 6 100 -14 34 -25 63 -25 64 0 2
20 12 44 22 24 11 47 25 51 32 5 7 28 -41 60 -121 29 -74 64 -162 79 -196 16
-38 26 -81 26 -111 0 -54 -25 -159 -43 -181 -15 -17 -81 -48 -122 -55 -17 -3
-41 -8 -55 -11 -64 -13 -230 -26 -270 -20 -188 26 -224 80 -201 302 16 156 27
196 103 402 l8 23 25 -26 c14 -15 41 -34 61 -42z"/>
<path d="M4670 4203 c-8 -3 -74 -34 -145 -69 -123 -59 -136 -68 -218 -153
-114 -118 -125 -165 -44 -184 32 -8 42 -5 94 29 193 127 288 210 362 312 l31
41 -22 16 c-23 16 -33 17 -58 8z"/>
<path d="M2500 2765 c-22 -27 -2 -57 110 -160 162 -148 308 -211 326 -140 10
39 1 57 -43 89 -23 17 -72 54 -108 82 -80 61 -202 132 -242 140 -20 4 -33 1
-43 -11z"/>
<path d="M8085 10899 c-56 -4 -124 -16 -155 -27 -125 -45 -147 -55 -205 -87
-65 -37 -96 -66 -139 -130 -21 -33 -26 -51 -26 -105 0 -36 9 -96 20 -134 19
-68 26 -83 87 -196 17 -30 52 -95 78 -145 27 -49 60 -105 73 -122 31 -41 20
-42 -25 -2 -53 46 -334 174 -428 194 -11 3 -41 10 -67 16 -49 11 -128 7 -186
-10 -59 -18 -124 -62 -197 -135 -56 -56 -81 -91 -117 -166 -57 -118 -66 -151
-74 -270 -10 -143 0 -168 89 -226 39 -27 115 -66 167 -88 l95 -40 220 0 c121
0 243 3 270 7 l50 6 -70 -64 c-38 -35 -94 -79 -124 -97 -123 -75 -156 -126
-186 -283 -24 -122 10 -211 141 -369 49 -60 107 -133 128 -164 22 -30 69 -87
106 -125 65 -68 68 -70 123 -75 119 -10 232 78 449 348 24 30 53 70 63 88 40
67 45 33 15 -120 -11 -57 -23 -132 -27 -168 l-8 -65 -90 -6 c-108 -8 -146 -23
-212 -86 -62 -58 -74 -92 -43 -123 41 -41 165 -19 255 44 27 20 50 34 52 32 2
-2 -7 -46 -21 -97 -20 -78 -28 -94 -43 -92 -10 1 -45 7 -78 13 -135 22 -248
-17 -281 -97 -20 -47 -3 -81 57 -111 44 -22 49 -22 105 -9 33 8 83 24 112 35
28 12 52 18 52 14 0 -4 -7 -38 -16 -77 -8 -38 -17 -79 -19 -90 -4 -18 -12 -20
-97 -20 -76 -1 -101 -5 -135 -23 -88 -46 -107 -117 -48 -177 28 -28 44 -35 73
-35 38 0 133 39 165 68 17 15 18 11 14 -104 -2 -65 0 -129 4 -141 5 -13 6 -23
3 -23 -41 0 -166 -29 -227 -52 -43 -16 -80 -28 -81 -26 -12 12 -46 90 -46 103
0 9 -23 73 -50 143 -37 92 -47 128 -38 131 7 2 30 21 51 41 28 29 37 46 37 71
0 80 -80 142 -165 129 -67 -10 -75 -23 -76 -114 -1 -74 1 -80 29 -110 17 -17
37 -51 45 -76 9 -25 27 -71 41 -102 26 -59 98 -260 93 -264 -2 -1 -113 -69
-174 -106 -20 -12 -33 -16 -33 -8 0 12 -59 92 -72 98 -5 2 -8 8 -8 14 0 5 -21
37 -47 70 -27 33 -63 81 -81 105 l-34 45 21 22 c32 34 43 83 26 115 -19 37
-32 47 -90 66 -86 30 -151 10 -207 -60 -19 -24 -20 -30 -7 -68 7 -23 30 -59
52 -80 35 -35 42 -37 80 -33 l42 6 100 -137 c55 -75 115 -154 133 -174 l34
-38 -66 -30 c-58 -26 -148 -90 -257 -180 l-36 -30 -90 62 c-135 94 -223 167
-223 185 0 28 -37 80 -69 97 -17 8 -50 15 -75 15 -52 0 -94 -29 -120 -85 -15
-30 -15 -38 -3 -67 35 -80 121 -120 173 -79 15 11 31 21 37 21 5 0 40 -24 76
-53 36 -29 103 -77 147 -106 l81 -54 -48 -60 c-58 -72 -92 -142 -119 -243 -24
-93 -17 -117 62 -198 l54 -56 -62 0 c-60 0 -64 -2 -114 -47 -92 -82 -104 -138
-75 -342 8 -57 12 -107 9 -110 -3 -3 -51 -9 -107 -12 -56 -3 -145 -12 -197
-18 -104 -14 -134 -11 -198 20 -42 21 -44 21 -88 4 -32 -12 -52 -29 -71 -58
-25 -40 -25 -41 -9 -93 19 -59 47 -83 107 -91 73 -10 169 47 169 101 0 11 10
16 34 16 18 0 58 5 87 11 30 6 107 14 171 17 l118 7 20 -50 c19 -48 72 -237
67 -240 -3 -3 -149 -34 -187 -40 -19 -4 -67 -17 -105 -30 -115 -40 -170 -47
-209 -28 -52 24 -115 11 -160 -34 -31 -31 -36 -43 -36 -83 0 -73 49 -123 130
-133 72 -8 115 26 140 111 8 25 19 42 28 42 8 0 60 15 116 34 87 29 302 74
311 64 5 -7 77 -319 74 -322 -2 -2 -56 -30 -119 -61 -63 -32 -148 -77 -189
-102 -80 -48 -172 -71 -220 -55 -49 17 -124 -24 -137 -73 -20 -80 69 -165 172
-165 38 0 51 5 75 31 15 17 31 47 35 67 12 73 -7 59 261 192 78 38 146 70 151
70 4 0 23 -47 41 -104 18 -58 42 -118 52 -135 23 -39 80 -55 141 -41 57 13 62
12 50 -2 -26 -33 -32 -95 -17 -164 9 -38 20 -85 24 -105 11 -52 86 -188 127
-229 19 -20 34 -38 34 -42 0 -3 -25 -26 -55 -51 l-56 -46 -45 24 c-44 23 -48
24 -82 9 -21 -8 -47 -27 -60 -42 -19 -23 -22 -36 -18 -87 2 -33 5 -69 7 -80 3
-16 -2 -20 -41 -22 -86 -5 -108 -13 -139 -49 -43 -48 -44 -78 -4 -161 13 -29
31 -53 39 -53 11 0 13 -6 9 -19 -13 -43 49 -114 136 -155 l65 -31 -29 -83 -30
-83 -24 28 c-13 15 -37 47 -54 70 -40 58 -103 93 -163 93 -56 0 -81 -12 -98
-45 -11 -21 -13 -10 -13 83 0 59 -4 179 -9 267 -7 146 -6 168 13 245 25 102
26 126 5 134 -31 12 -61 -5 -79 -45 -23 -51 -65 -109 -151 -210 -38 -46 -77
-94 -86 -107 -14 -21 -15 -20 -21 45 -10 97 -8 174 3 251 14 90 -3 156 -42
160 -43 5 -77 -20 -183 -132 -55 -58 -103 -106 -107 -106 -5 0 -8 11 -8 24 0
26 -72 140 -123 193 -20 22 -40 33 -58 33 -50 0 -181 -114 -228 -197 -8 -14
-21 -11 -112 27 -57 24 -111 50 -121 58 -9 7 -29 12 -44 10 -23 -2 -35 -17
-78 -95 -50 -92 -50 -92 -71 -73 -11 11 -60 37 -108 60 -91 41 -166 55 -188
33 -7 -7 -11 -49 -10 -115 2 -111 -4 -144 -23 -130 -23 18 -134 42 -192 42
-84 0 -290 -26 -350 -45 -41 -12 -53 -20 -56 -39 -3 -14 -2 -29 1 -33 3 -5 62
-43 131 -86 119 -73 251 -178 239 -191 -3 -3 -48 1 -100 8 -52 8 -122 14 -157
14 -55 0 -65 -3 -79 -24 -9 -14 -14 -26 -12 -28 2 -1 30 -21 61 -44 79 -58
116 -99 144 -161 35 -78 102 -167 181 -241 77 -73 202 -144 353 -203 121 -47
130 -53 109 -70 -23 -18 -38 -50 -65 -140 -45 -154 -23 -236 63 -237 7 0 31
36 54 80 27 53 56 93 84 115 23 19 44 35 46 35 2 0 4 -46 5 -103 0 -124 6
-150 39 -165 47 -22 68 -1 138 142 36 72 74 139 84 149 19 16 20 13 36 -126
14 -112 37 -455 37 -549 0 -14 9 -18 41 -18 l41 0 -6 38 c-3 20 -8 134 -12
252 -3 118 -9 235 -14 260 -17 87 -24 240 -11 240 17 0 20 -13 36 -136 8 -60
19 -136 25 -169 10 -63 33 -226 54 -385 l12 -95 32 -3 32 -3 0 60 c0 33 -4 82
-9 108 -6 26 -12 87 -16 134 -3 47 -10 113 -15 145 -6 32 -13 82 -16 109 -3
28 -9 79 -14 115 -12 83 -12 92 0 85 19 -12 39 -62 65 -161 15 -55 30 -102 33
-105 4 -4 23 -9 44 -12 l36 -5 -4 36 c-5 38 12 149 26 171 15 25 150 -96 150
-134 0 -20 35 -45 61 -45 51 0 64 21 68 114 3 78 0 91 -27 151 -17 35 -45 85
-62 110 l-31 44 118 58 c109 54 125 65 214 157 91 94 132 156 164 251 7 18 8
17 19 -10 40 -108 116 -159 270 -181 l48 -7 -6 -61 c-4 -33 -9 -75 -12 -93
l-6 -32 -56 45 c-30 25 -69 52 -85 61 -59 30 -195 -5 -231 -60 -8 -12 -18 -40
-21 -62 -15 -98 88 -160 280 -169 39 -2 79 1 89 7 18 9 19 6 12 -89 -10 -135
-11 -139 -19 -141 -3 -1 -40 13 -81 32 -120 55 -164 67 -215 59 -99 -15 -133
-46 -147 -131 -5 -36 -3 -41 30 -67 77 -58 232 -108 339 -108 l69 0 -7 -78
c-4 -44 -4 -126 0 -184 l7 -106 42 0 41 0 0 175 c1 96 3 177 6 180 3 3 31 -6
62 -19 86 -38 174 -58 221 -50 93 15 178 82 192 151 6 28 2 33 -50 68 l-56 37
-117 -5 c-65 -2 -144 -10 -175 -17 -32 -8 -59 -12 -62 -9 -2 2 1 60 6 130 l11
125 96 -49 c112 -56 164 -63 222 -28 67 39 76 118 25 199 -37 59 -93 85 -181
86 -38 1 -89 -2 -112 -7 l-42 -7 4 37 c9 76 17 133 18 133 1 0 25 -9 54 -20
111 -42 259 -23 331 43 30 28 28 47 -11 78 -67 54 -95 62 -219 67 -65 2 -118
6 -118 8 0 10 44 120 51 128 5 6 18 2 31 -11 41 -37 108 -65 137 -57 14 4 46
7 71 5 53 -2 81 14 134 77 47 58 46 91 -6 148 -19 21 -19 22 3 58 20 34 24 36
71 36 77 0 125 18 139 51 14 36 -3 66 -60 107 l-38 28 26 67 c14 37 30 67 35
67 4 0 50 -16 102 -35 52 -19 126 -42 166 -50 40 -9 81 -18 91 -21 21 -6 20
-11 -8 -104 -9 -30 -23 -91 -31 -135 -22 -118 -67 -239 -100 -265 -23 -20 -44
-65 -44 -97 0 -21 9 -34 37 -53 52 -36 116 -34 171 4 42 28 82 94 82 133 0 27
-37 73 -58 73 -39 1 -43 13 -23 81 10 36 22 88 26 116 3 27 19 90 34 139 26
81 31 89 52 87 75 -6 247 -5 267 1 21 7 22 5 22 -49 0 -31 9 -91 19 -133 13
-51 21 -128 25 -230 3 -84 8 -157 11 -162 6 -10 24 -483 18 -489 -2 -3 -36 30
-76 72 -48 50 -89 83 -120 96 -123 53 -298 53 -462 1 -178 -56 -279 -80 -348
-84 -53 -2 -73 -8 -89 -24 l-21 -20 42 -44 c22 -23 71 -75 108 -114 219 -231
241 -251 328 -300 45 -25 61 -28 171 -32 112 -4 129 -2 202 22 46 16 96 40
118 59 22 18 55 44 74 57 19 14 43 35 53 47 10 13 22 23 27 23 8 0 25 -415 21
-512 l-3 -58 35 0 c34 0 35 1 41 51 4 29 5 104 2 168 -3 64 -8 253 -11 421 -4
168 -10 368 -15 445 -6 77 -14 219 -20 317 -5 104 -18 213 -30 267 -11 50 -20
113 -20 140 0 27 -5 62 -10 77 -9 22 -7 31 9 48 10 12 34 46 53 78 l34 56 45
-51 46 -52 12 -175 c30 -450 41 -650 41 -753 0 -62 5 -146 11 -187 14 -97 17
-170 7 -170 -13 0 -9 -38 4 -42 7 -3 14 -56 19 -159 5 -84 13 -199 18 -254 6
-55 11 -128 11 -162 l0 -63 40 0 40 0 0 63 c-1 34 -5 94 -10 132 -5 39 -13
148 -16 244 l-7 174 34 -25 c19 -14 59 -39 90 -55 30 -17 73 -42 95 -56 122
-81 286 -77 416 10 72 48 181 157 225 226 16 23 31 44 36 45 26 12 -33 87 -75
96 -18 3 -70 31 -116 62 -102 68 -173 94 -277 101 -151 10 -321 -56 -413 -162
l-30 -34 -6 72 c-4 40 -8 137 -11 217 -4 148 -17 364 -35 570 -8 103 -13 205
-11 236 1 7 39 13 100 17 99 6 227 40 278 73 21 13 24 12 36 -8 7 -13 43 -73
80 -135 37 -62 67 -118 67 -125 0 -7 -14 -31 -30 -52 -51 -68 -34 -143 40
-181 81 -42 172 12 201 119 19 69 -44 156 -113 156 -18 0 -33 15 -63 65 -22
36 -50 81 -62 100 -12 19 -20 35 -17 35 3 0 -5 19 -19 43 l-25 42 41 35 c23
19 62 50 87 69 25 19 59 47 77 64 23 21 35 27 47 20 21 -12 236 -224 236 -233
0 -4 -7 -24 -15 -43 -21 -51 -19 -92 9 -135 37 -58 60 -74 107 -74 80 1 149
73 165 170 6 36 3 43 -32 81 -51 57 -87 75 -137 67 -43 -7 -26 -20 -225 167
l-62 59 52 46 c66 59 76 68 126 116 l40 38 64 -38 c138 -83 220 -154 218 -187
-6 -71 1 -99 30 -129 29 -29 34 -30 97 -26 62 4 68 7 99 41 51 60 70 173 38
223 -47 70 -162 69 -205 -2 l-16 -25 -44 37 c-24 20 -69 53 -99 73 -30 19 -72
48 -93 64 l-38 30 24 26 c46 51 100 135 128 202 65 152 23 259 -134 341 l-52
28 37 0 c50 0 190 33 258 61 75 31 200 118 227 158 24 35 28 55 38 163 l6 66
32 -13 c18 -7 89 -18 160 -23 70 -5 133 -15 141 -21 8 -7 17 -28 20 -47 14
-74 117 -96 191 -40 48 37 56 56 44 98 -13 50 -42 82 -94 107 -56 26 -75 26
-109 0 -24 -19 -35 -20 -119 -14 -142 9 -179 14 -222 29 l-40 14 -2 120 -1
120 46 4 c26 3 103 6 172 7 l125 2 48 -45 c30 -29 60 -48 84 -52 83 -16 169
50 157 119 -10 59 -25 84 -63 105 -55 31 -97 28 -157 -11 l-51 -34 -174 -7
-175 -7 9 93 c5 51 8 123 7 159 l-1 66 88 17 c48 9 114 23 145 30 l58 14 21
-30 c45 -63 129 -75 184 -27 32 29 35 35 35 89 0 47 -4 62 -25 84 -28 30 -82
56 -117 56 -33 0 -98 -47 -98 -70 0 -21 -4 -22 -183 -61 -79 -17 -110 -20
-118 -12 -7 7 -20 38 -31 70 -38 113 -65 159 -122 210 -81 72 -135 96 -228
101 -43 3 -78 6 -78 7 0 1 13 33 28 71 16 38 35 93 42 121 13 51 13 52 -15 90
-16 21 -44 55 -62 76 -33 38 -41 57 -23 57 6 0 59 33 118 73 59 40 145 95 191
123 46 27 100 64 121 82 l38 32 32 -29 c31 -28 68 -41 114 -41 11 0 38 16 60
36 37 34 38 37 34 85 -8 75 -67 129 -143 129 -56 0 -125 -45 -125 -81 0 -42
-94 -121 -270 -229 -58 -35 -130 -83 -160 -106 l-56 -42 -64 57 c-36 32 -105
88 -155 124 -49 37 -99 73 -110 82 -14 10 -16 17 -9 22 6 4 19 22 28 40 9 17
56 93 104 167 49 74 95 149 102 166 8 20 18 29 27 25 65 -24 139 -9 162 34 64
118 -22 247 -149 226 -54 -9 -105 -58 -120 -114 -10 -39 -10 -44 9 -58 12 -8
21 -19 21 -25 0 -22 -73 -153 -157 -282 -45 -71 -83 -135 -83 -143 0 -19 -9
-17 -97 20 -43 18 -96 38 -118 45 -100 28 -227 62 -235 62 -5 0 -19 4 -32 9
-23 9 -24 12 -16 72 4 35 12 120 18 189 6 69 13 143 15 165 2 22 4 45 4 50 1
6 17 17 36 24 42 15 85 68 85 105 0 105 -151 182 -250 128 -67 -36 -103 -130
-67 -174 21 -26 74 -58 96 -58 17 0 20 -5 16 -32 -2 -18 -6 -64 -10 -103 -10
-122 -26 -289 -31 -322 l-5 -32 -87 4 c-90 4 -175 -11 -237 -42 -77 -40 -228
-198 -242 -254 -8 -29 -19 -23 -41 24 -27 57 -120 143 -165 151 l-35 6 0 98
c-1 53 2 116 6 140 l7 44 44 -32 c88 -64 152 -75 222 -40 50 26 56 42 30 79
-15 21 -45 38 -102 60 -44 17 -91 31 -104 31 -12 0 -37 3 -54 6 -31 7 -32 8
-26 48 10 68 37 176 44 176 3 -1 35 -40 71 -87 36 -47 79 -94 95 -105 56 -34
140 -14 164 39 15 34 14 109 -3 141 -27 50 -185 164 -248 177 -33 8 -32 1 -13
79 24 93 22 91 52 55 32 -38 135 -89 179 -89 34 0 93 18 95 28 0 4 2 18 4 32
1 14 -8 43 -20 66 -19 32 -41 50 -112 88 -48 25 -99 55 -112 65 l-23 18 21
149 c11 82 22 165 23 184 3 33 5 30 32 -40 16 -41 45 -104 65 -140 19 -36 43
-81 52 -100 9 -20 42 -63 73 -97 51 -55 63 -63 113 -73 93 -20 189 -10 263 27
106 53 198 150 402 427 198 268 215 297 249 425 29 106 20 140 -57 216 -104
102 -354 236 -487 260 -20 4 -39 11 -42 15 -3 4 44 20 103 35 59 16 113 35
120 43 6 9 12 11 12 5 0 -35 211 67 372 179 70 49 138 145 139 197 2 76 -4 99
-54 191 -125 234 -240 364 -395 449 -54 29 -190 41 -255 22 -74 -22 -147 -64
-184 -106 -20 -22 -66 -72 -103 -110 -62 -66 -164 -194 -205 -258 -10 -15 -19
-26 -21 -24 -2 2 5 57 16 123 34 212 43 325 31 416 -20 167 -66 238 -175 272
-29 9 -62 23 -73 31 -19 13 -154 47 -171 44 -4 -1 -52 -5 -107 -10z m91 -101
c-15 -75 -18 -145 -7 -152 37 -23 81 41 81 120 l0 43 60 -22 c33 -12 60 -26
60 -30 0 -4 -12 -31 -26 -59 -21 -41 -23 -52 -12 -59 26 -17 52 -8 89 32 l37
41 13 -23 c44 -83 57 -232 35 -409 -42 -335 -58 -430 -76 -430 -6 0 -10 19
-10 42 0 48 -22 78 -57 78 -38 0 -99 -37 -138 -83 l-36 -43 -39 37 c-22 21
-50 39 -62 41 -31 5 -75 -17 -83 -42 -8 -26 -17 -25 -35 4 -8 12 -36 54 -61
92 -25 38 -81 136 -123 218 -42 82 -81 155 -86 161 -19 23 -50 128 -56 194
l-7 66 52 -57 c41 -45 59 -58 82 -58 44 0 37 28 -28 111 l-57 72 30 23 c16 13
34 24 39 24 10 0 107 -112 113 -131 5 -14 38 -11 51 5 14 17 -1 51 -50 119
-34 47 -34 46 54 77 l51 18 13 -36 c7 -21 16 -59 19 -87 10 -73 19 -88 47 -74
12 7 25 16 28 21 5 8 -4 97 -16 154 l-7 31 62 2 63 2 -7 -33z m1015 -355 c-5
-10 -23 -31 -40 -47 -36 -35 -40 -63 -9 -75 35 -13 52 -3 110 58 l53 58 43
-30 c23 -17 42 -34 42 -38 0 -5 -28 -35 -62 -68 -34 -33 -59 -63 -55 -67 13
-13 99 15 144 45 l41 29 20 -21 c25 -28 56 -77 51 -80 -45 -31 -139 -113 -139
-122 0 -17 22 -35 44 -35 10 0 34 11 52 25 18 14 37 25 42 25 5 0 15 7 22 15
19 22 34 18 53 -14 21 -36 21 -41 2 -41 -21 0 -108 -45 -123 -63 -18 -21 -5
-45 26 -49 25 -3 57 6 120 35 33 15 46 -4 47 -66 l0 -52 -83 -6 c-45 -4 -86
-10 -90 -14 -4 -3 5 -17 20 -30 22 -19 34 -22 73 -17 45 5 47 4 36 -16 -19
-36 -165 -143 -261 -192 -59 -30 -194 -76 -298 -100 -46 -11 -85 -20 -88 -20
-2 0 -4 13 -4 29 0 53 -76 121 -135 121 -25 0 -26 2 -19 33 21 86 -13 127
-102 127 -31 0 -64 -5 -75 -10 -18 -10 -19 -7 -19 40 0 37 -5 55 -21 71 -24
24 -24 25 23 80 20 24 63 78 95 119 90 114 282 309 327 332 52 26 106 46 129
47 14 1 16 -3 8 -16z m-1846 -396 c22 -8 74 -27 115 -42 120 -43 237 -106 308
-165 67 -56 85 -80 60 -80 -17 0 -62 -47 -71 -73 -8 -23 12 -73 46 -113 15
-18 27 -34 27 -37 0 -2 -13 -7 -29 -10 -58 -12 -121 -101 -121 -171 0 -23 -2
-23 -152 -30 -84 -4 -182 -9 -218 -12 -107 -7 -237 11 -316 43 -75 31 -198
113 -208 139 -14 36 -8 42 32 33 57 -13 99 -11 117 7 19 19 4 44 -27 44 -11 0
-42 8 -68 17 -47 17 -48 18 -43 53 3 19 7 37 9 39 2 2 35 -7 74 -19 57 -18 76
-21 95 -12 54 25 20 56 -92 84 -26 7 -49 13 -51 14 -2 1 26 81 32 91 1 1 32
-9 69 -22 76 -28 122 -32 130 -12 8 23 -5 33 -80 67 -40 18 -73 36 -73 39 0 4
14 19 31 34 32 27 32 28 53 9 35 -32 104 -72 125 -72 50 0 37 42 -30 94 -54
42 -54 57 2 71 22 6 31 0 60 -37 18 -24 34 -44 35 -46 0 -1 13 2 28 7 30 12
33 36 9 70 l-16 24 49 -6 c27 -3 67 -12 89 -20z m994 -387 c137 -38 221 -91
275 -173 57 -87 69 -123 69 -217 0 -147 -58 -286 -135 -326 -50 -26 -121 -44
-192 -48 -58 -4 -75 -1 -113 20 -25 13 -54 24 -63 24 -58 0 -190 173 -223 292
-36 127 -31 170 29 260 75 109 139 160 227 178 23 4 44 8 47 9 3 1 38 -8 79
-19z m719 -337 c177 -47 416 -193 456 -278 16 -34 19 -105 5 -105 -5 0 -24 9
-43 21 -83 49 -170 57 -164 16 2 -15 20 -26 68 -43 43 -15 74 -34 92 -55 l27
-32 -26 -51 c-14 -28 -30 -56 -35 -63 -11 -14 -24 -7 -113 58 -63 46 -86 53
-111 35 -18 -14 -18 -15 10 -45 16 -17 46 -39 65 -50 20 -10 52 -27 71 -37 19
-11 36 -20 38 -20 5 -3 -62 -94 -69 -94 -3 0 -12 7 -20 16 -20 24 -93 72 -120
79 -31 7 -52 -7 -43 -28 4 -13 103 -97 142 -123 5 -3 -89 -129 -99 -132 -6 -2
-34 19 -64 47 -51 49 -74 58 -109 45 -14 -5 -14 -9 -1 -35 15 -27 100 -102
127 -111 12 -4 -86 -128 -100 -128 -4 0 -21 22 -39 48 -45 65 -126 152 -144
152 -33 -1 -41 -15 -27 -48 18 -42 140 -191 157 -191 25 -2 -20 -42 -74 -67
-37 -18 -68 -24 -119 -24 -69 0 -70 0 -111 43 -56 59 -156 242 -222 406 -19
47 -37 92 -40 99 -3 7 3 12 15 12 21 0 72 56 72 78 0 17 11 14 40 -8 67 -53
180 9 180 99 0 17 6 21 31 21 50 0 99 30 130 79 34 53 36 70 9 104 l-20 25 40
7 c47 8 90 53 90 94 0 28 -38 89 -65 104 -20 11 -19 17 10 51 14 17 23 36 20
44 -4 10 0 12 12 7 10 -4 42 -14 71 -22z m-1392 -188 c-6 -31 -4 -36 17 -44
14 -6 34 -7 46 -4 19 5 21 1 21 -45 0 -90 29 -121 118 -125 l42 -1 0 -86 c0
-96 12 -125 58 -135 36 -7 70 5 103 38 l25 26 21 -42 c17 -34 29 -46 62 -57
23 -7 41 -16 41 -19 -1 -13 -109 -174 -164 -242 -75 -94 -202 -225 -241 -248
-51 -31 -89 -33 -114 -7 l-21 22 26 25 c41 37 83 107 77 129 -9 33 -34 23 -94
-36 l-56 -55 -34 46 -34 47 52 57 c29 31 53 59 53 63 0 4 -7 14 -16 22 -19 20
-43 9 -100 -46 l-41 -39 -17 26 c-16 24 -16 26 6 35 13 5 41 25 62 43 42 37
44 67 5 67 -27 0 -84 -35 -104 -63 l-15 -21 -21 20 -21 21 57 54 c65 61 77 80
65 98 -13 22 -58 4 -110 -45 -47 -44 -49 -45 -60 -24 -6 12 -10 25 -8 30 2 4
31 29 66 54 63 47 73 64 48 86 -15 11 -50 -5 -123 -57 -30 -20 -30 -15 2 117
29 116 44 139 130 195 28 18 82 60 120 93 39 33 72 61 74 61 2 1 0 -15 -3 -34z
m1378 -1316 c13 -6 32 -26 41 -43 16 -29 16 -35 2 -69 l-16 -36 -36 14 c-25
11 -41 13 -54 6 -14 -8 -22 -6 -35 8 -20 22 -20 44 -1 81 24 47 55 59 99 39z
m-994 -63 l35 -13 -50 -25 c-76 -38 -141 -53 -170 -40 -22 10 -23 14 -14 42 7
18 20 32 32 35 78 16 123 17 167 1z m328 -100 c51 -36 72 -71 72 -120 0 -68
-7 -62 -167 141 -18 23 -33 44 -33 47 0 9 79 -33 128 -68z m1547 -116 c21 -23
22 -88 3 -120 -17 -26 -58 -26 -65 0 -3 11 -11 20 -19 20 -23 0 -36 37 -23 63
31 59 71 74 104 37z m-2763 -262 c23 -19 5 -82 -21 -73 -13 4 -25 -2 -37 -19
-13 -17 -30 -26 -53 -28 -31 -3 -36 0 -44 30 -9 30 -7 36 23 67 28 29 41 35
75 35 23 0 48 -6 57 -12z m1918 -218 c41 -12 100 -29 130 -37 154 -42 362
-160 487 -276 83 -77 229 -241 248 -277 12 -23 12 -36 -1 -89 -21 -93 -75
-203 -115 -234 -31 -25 -33 -29 -16 -41 23 -17 59 -11 134 25 34 17 68 29 75
28 7 -1 21 1 31 6 54 23 175 -64 220 -158 60 -128 72 -183 71 -327 -2 -269
-15 -667 -24 -765 -9 -87 -14 -103 -38 -128 -101 -107 -300 -169 -513 -160
-66 3 -79 0 -108 -21 l-32 -24 53 -20 c29 -11 76 -27 105 -35 64 -19 87 -31
140 -74 35 -29 44 -43 53 -89 14 -67 8 -97 -41 -200 -29 -61 -62 -107 -132
-185 -85 -94 -227 -229 -241 -229 -3 0 -27 -21 -53 -48 -71 -70 -281 -236
-333 -262 -102 -52 -238 -66 -297 -30 -63 38 -118 132 -138 235 -10 56 -13 60
-40 63 -52 4 -74 -24 -100 -130 -30 -118 -58 -185 -93 -220 -23 -25 -33 -28
-91 -28 -78 0 -258 22 -356 44 -146 32 -337 109 -436 177 -61 41 -88 64 -210
177 -71 67 -132 182 -155 296 -26 128 -13 170 75 239 56 44 78 76 60 87 -15
10 -68 2 -87 -13 -20 -16 -108 -55 -147 -66 -33 -9 -104 3 -91 16 2 3 -6 26
-19 51 -13 26 -27 59 -30 75 -4 15 -11 30 -16 33 -5 3 -9 15 -9 28 0 12 -9 49
-19 82 -10 32 -24 86 -31 119 -6 33 -16 68 -21 78 -5 10 -7 21 -5 26 3 4 -6
48 -20 97 -14 49 -34 121 -45 159 -42 149 -87 332 -93 380 -3 28 -11 82 -16
120 -20 152 -3 251 53 290 28 20 47 19 131 -6 39 -12 98 -29 130 -39 l59 -18
25 25 c28 28 20 43 -32 68 -17 8 -56 35 -86 60 -30 25 -58 45 -62 45 -3 0 -29
27 -57 61 -39 47 -51 69 -51 95 0 42 43 153 85 219 68 106 285 286 419 349 39
18 123 65 186 105 63 40 127 75 142 78 15 3 33 11 39 19 6 7 48 28 92 45 68
27 96 33 164 33 75 1 85 -1 124 -29 24 -17 61 -53 81 -80 36 -48 89 -145 94
-174 1 -8 7 -17 12 -20 12 -8 13 -61 1 -83 -21 -39 72 -47 113 -10 14 11 16
24 12 52 -10 65 36 225 81 279 85 105 140 150 214 178 56 21 266 11 361 -17z
m1250 -3285 c8 -10 11 -36 8 -75 -5 -71 -31 -106 -85 -112 -30 -4 -36 -1 -44
20 -16 41 1 91 45 138 44 47 57 52 76 29z m-4458 -181 c53 -56 66 -81 77 -138
l8 -45 -51 -32 c-28 -18 -76 -47 -108 -64 l-56 -33 -18 47 c-9 25 -28 62 -41
82 l-24 37 38 54 c54 77 75 101 103 120 14 9 26 17 27 17 2 1 22 -20 45 -45z
m1582 -13 c25 -26 28 -35 21 -67 -7 -41 -37 -106 -66 -142 l-18 -23 -22 43
c-12 24 -33 57 -46 75 -14 18 -23 37 -21 43 3 11 109 99 119 100 3 0 18 -13
33 -29z m-1167 -78 c-13 -102 -1 -344 24 -455 6 -25 11 -122 12 -215 2 -162 1
-171 -26 -245 -24 -65 -37 -85 -78 -119 -27 -22 -49 -38 -49 -34 0 4 7 31 16
61 27 93 23 559 -6 704 -5 25 -10 61 -12 80 -5 79 -50 82 -137 8 -34 -28 -61
-54 -61 -58 0 -4 -13 -21 -28 -36 -15 -16 -60 -66 -100 -111 l-73 -81 -44 25
c-25 13 -45 28 -45 31 1 4 21 27 45 52 25 25 45 48 45 52 0 7 140 98 207 133
73 39 186 141 278 253 15 17 30 30 34 27 4 -2 4 -35 -2 -72z m-838 2 c110 -44
164 -117 200 -267 10 -43 8 -52 -15 -98 -14 -27 -27 -50 -30 -50 -2 0 -58 27
-122 60 -128 66 -111 49 -205 208 -10 17 -15 32 -10 32 5 0 28 34 52 76 24 41
46 74 50 72 3 -2 39 -16 80 -33z m-394 -51 c71 -37 109 -77 151 -157 41 -79
91 -133 149 -163 22 -11 103 -52 180 -92 178 -91 236 -140 283 -242 19 -41 43
-104 53 -139 20 -68 53 -271 46 -278 -3 -2 -12 13 -22 33 -21 45 -175 206
-262 275 -34 27 -103 68 -155 90 -104 47 -217 127 -265 190 -18 24 -33 46 -33
51 0 13 -24 8 -46 -10 -31 -26 -44 -54 -33 -73 5 -9 34 -115 64 -235 59 -230
87 -298 142 -342 19 -15 53 -44 76 -64 l42 -37 -45 -1 c-67 0 -156 56 -241
153 -82 92 -85 98 -139 257 -54 161 -68 263 -52 401 7 57 14 129 16 159 9 163
20 250 30 250 6 0 34 -12 61 -26z m4943 -64 c36 -54 15 -127 -45 -155 -39 -19
-54 -12 -78 35 -13 26 -10 65 10 113 9 21 54 47 75 44 8 -1 25 -18 38 -37z
m-3411 -57 c-3 -26 -1 -76 5 -112 5 -36 9 -138 9 -226 0 -249 -26 -320 -168
-455 -49 -47 -104 -94 -123 -104 l-35 -19 37 39 c98 104 123 278 82 566 l-15
107 37 58 c30 47 158 190 173 192 2 1 1 -20 -2 -46z m651 -130 l42 -19 -25
-34 c-13 -18 -26 -38 -28 -44 -2 -6 -21 6 -42 26 -21 21 -53 42 -71 48 -34 11
-42 24 -25 34 5 4 12 25 16 47 l7 41 42 -40 c22 -22 60 -49 84 -59z m-2488 51
c31 -9 71 -28 88 -42 l31 -27 -6 -174 -6 -174 -35 39 c-19 21 -56 62 -81 89
-25 28 -55 61 -66 75 -32 40 -115 105 -201 157 -43 26 -72 49 -64 50 134 24
269 27 340 7z m1326 -91 c-8 -28 -8 -190 -1 -388 6 -160 4 -191 -14 -283 -12
-57 -21 -105 -21 -108 0 -11 -30 -2 -30 9 -1 20 -19 189 -26 232 -12 82 -65
220 -104 270 -21 27 -35 52 -31 55 4 3 34 37 66 75 61 73 144 154 158 155 5 0
6 -8 3 -17z m1390 -93 c-14 -27 -33 -45 -58 -54 -36 -15 -38 -14 -66 12 l-30
28 21 29 c11 17 31 45 44 63 l24 32 44 -35 43 -36 -22 -39z m-366 23 c54 -39
73 -69 60 -93 -23 -42 -111 -8 -168 65 -27 34 -27 38 1 52 29 15 63 7 107 -24z
m2455 -3 c23 -44 19 -78 -14 -111 -66 -66 -143 -4 -98 79 11 19 66 57 89 61 4
0 14 -12 23 -29z m-2056 -155 c17 -20 31 -41 31 -48 0 -7 -15 -28 -34 -46 -38
-37 -55 -37 -114 -1 -29 18 -33 25 -27 48 11 45 52 80 96 81 10 1 31 -15 48
-34z m-2896 -55 c48 -6 94 -13 101 -16 36 -14 236 -257 236 -288 0 -29 53
-119 105 -181 55 -65 57 -68 29 -61 -43 11 -222 103 -274 141 -95 71 -163 156
-230 289 -20 39 -52 83 -74 102 l-40 34 30 -5 c16 -2 68 -9 117 -15z m2243
-42 c35 -27 41 -34 101 -120 25 -38 44 -70 41 -74 -8 -7 -137 33 -166 52 -29
19 -61 88 -62 132 0 29 3 32 29 32 15 0 41 -10 57 -22z m-1500 -105 c116 -83
189 -133 281 -195 68 -45 121 -105 157 -175 9 -18 16 -36 16 -41 0 -4 -24 -15
-52 -24 -73 -22 -156 -11 -239 33 -84 45 -126 89 -170 179 -41 84 -106 290
-92 290 2 0 47 -30 99 -67z m1514 -364 c43 -32 73 -64 80 -82 l10 -30 -76 7
c-118 11 -175 33 -197 77 -21 43 -15 64 21 78 49 18 89 6 162 -50z m1387 -23
c34 -7 81 -25 106 -39 57 -34 160 -145 192 -206 l24 -49 -37 -6 c-20 -3 -103
-6 -183 -6 -171 0 -259 18 -384 80 -79 39 -103 57 -158 117 l-28 30 128 41
c70 22 139 43 153 45 51 9 127 6 187 -7z m1258 -10 c20 -9 69 -39 110 -67 86
-59 86 -63 1 -107 -158 -82 -284 -109 -446 -97 -83 6 -173 24 -186 37 -3 4 3
27 15 51 37 77 167 169 270 193 67 16 187 10 236 -10z m-2198 -72 c30 -22 65
-104 53 -124 -18 -29 -178 37 -247 102 -43 40 -25 48 90 44 58 -2 84 -8 104
-22z m-1178 -44 c53 -90 72 -134 69 -158 l-3 -27 -20 23 c-11 13 -46 42 -78
64 -72 49 -114 50 -138 2 l-15 -32 -30 47 c-16 25 -30 48 -32 51 -1 3 17 11
40 19 24 7 70 25 103 41 66 31 68 30 104 -30z m1601 19 c0 -21 66 -92 131
-140 80 -59 145 -88 264 -119 77 -20 111 -23 239 -22 83 1 146 -2 140 -6 -64
-54 -135 -97 -195 -118 -65 -23 -86 -25 -177 -21 -99 4 -104 5 -157 42 -51 35
-365 359 -365 376 0 7 36 14 93 17 15 1 27 -3 27 -9z m-2235 -61 c39 -6 72
-13 74 -14 2 -2 -4 -11 -14 -20 -30 -31 -92 -119 -118 -169 l-26 -50 4 45 c2
25 5 74 7 110 l3 65 -33 3 c-23 2 -43 -4 -65 -21 -18 -13 -45 -31 -62 -40 -37
-19 -92 -72 -117 -112 -26 -44 -22 -13 13 93 33 98 53 121 88 102 15 -7 25 -5
43 10 25 21 72 21 203 -2z m4144 -134 c-76 -79 -155 -129 -239 -149 -91 -22
-122 -16 -234 50 -140 82 -142 85 -71 72 83 -16 297 -15 371 1 33 8 96 31 140
51 43 21 81 36 83 34 3 -2 -20 -29 -50 -59z m-2771 -130 c48 -28 46 -24 30
-60 -12 -25 -15 -26 -68 -21 -77 9 -173 43 -200 72 -13 14 -29 25 -37 25 -29
0 -1 46 32 52 30 6 194 -40 243 -68z m534 -83 c32 -29 32 -30 14 -50 -47 -52
-130 -51 -245 4 -75 36 -89 55 -43 56 15 0 36 4 47 9 11 5 59 9 107 9 83 1 89
-1 120 -28z"/>
<path d="M8199 6063 c-91 -46 -179 -130 -203 -193 -17 -45 -18 -45 -57 -42
-60 6 -121 -22 -183 -84 -72 -72 -116 -159 -116 -229 0 -52 28 -150 54 -190
13 -20 11 -22 -44 -43 -72 -28 -128 -76 -162 -138 -38 -71 -42 -106 -22 -169
19 -64 63 -108 122 -126 l39 -11 -28 -52 c-98 -176 61 -354 283 -317 109 18
110 18 92 -25 -13 -30 -13 -48 -4 -106 11 -75 25 -103 79 -161 49 -52 80 -67
143 -67 99 0 211 74 279 183 18 29 34 54 36 56 2 3 25 -16 51 -42 61 -60 128
-89 218 -95 57 -4 78 -1 111 16 96 50 131 140 98 257 -6 19 -2 20 76 17 45 -2
101 2 124 8 69 19 136 77 172 149 17 35 32 71 32 80 0 9 3 51 7 94 5 61 3 87
-11 125 -23 62 -58 99 -103 107 -57 11 -57 15 -4 50 83 56 132 129 132 195 0
16 -12 59 -26 95 -36 89 -74 119 -155 119 -32 1 -59 2 -59 4 0 2 12 19 26 37
14 19 34 57 45 85 49 129 -34 214 -204 210 -34 -1 -65 -1 -69 -1 -4 1 0 17 8
36 18 45 18 105 -2 133 -23 34 -89 63 -142 63 -26 0 -78 -9 -117 -21 -56 -18
-79 -31 -115 -69 l-46 -47 -49 54 c-98 105 -179 119 -306 55z m140 -28 c34
-17 105 -96 122 -135 23 -51 110 -78 129 -40 5 8 16 34 25 57 21 51 47 77 100
99 87 37 131 37 168 -1 35 -35 10 -146 -48 -207 -24 -26 -24 -28 -6 -38 30
-16 56 -12 107 15 57 31 120 33 173 5 44 -22 51 -35 51 -91 0 -79 -49 -149
-167 -241 -57 -43 -62 -52 -37 -62 29 -11 50 -6 90 23 84 61 177 70 216 19 26
-34 58 -124 58 -164 0 -54 -26 -87 -104 -135 -38 -24 -83 -57 -99 -74 l-30
-30 49 -7 c127 -18 171 -64 175 -179 3 -131 -22 -213 -83 -264 -31 -26 -36
-27 -118 -23 -71 4 -94 9 -143 36 -66 35 -88 33 -122 -13 -15 -21 -17 -29 -7
-32 24 -9 63 -103 69 -166 4 -54 2 -66 -18 -91 -20 -26 -27 -28 -73 -24 -28 2
-67 12 -87 21 -36 18 -168 140 -196 183 -33 52 -86 9 -97 -79 -6 -46 -16 -69
-52 -116 -49 -65 -124 -121 -161 -121 -83 0 -183 131 -183 240 0 22 7 58 16
81 20 50 9 63 -46 54 -107 -18 -189 -18 -240 1 -95 34 -151 125 -129 209 13
48 30 69 81 97 39 23 56 46 35 53 -6 2 -38 5 -70 8 -64 4 -98 24 -134 77 -27
39 -31 116 -9 158 33 64 119 112 198 112 52 0 98 19 98 41 0 5 -9 17 -21 27
-30 24 -78 124 -89 183 -13 66 1 120 46 181 41 57 110 106 128 92 54 -39 72
-48 98 -46 39 3 58 23 58 61 0 53 39 139 76 169 41 33 144 92 162 92 7 0 26
-7 41 -15z"/>
<path d="M8412 5548 c-31 -34 -62 -108 -62 -152 0 -32 -3 -37 -17 -31 -51 22
-127 33 -147 23 -39 -20 -56 -41 -56 -68 0 -29 45 -98 79 -122 20 -14 20 -16
-25 -47 -47 -35 -124 -124 -124 -145 0 -21 43 -54 85 -65 50 -13 103 -2 157
34 l41 27 -7 -23 c-4 -13 -9 -49 -12 -79 -5 -50 -3 -59 23 -92 81 -106 201
-59 211 82 l4 60 42 -29 c49 -35 141 -56 179 -42 35 14 47 40 47 105 0 54 -2
58 -50 108 -27 28 -49 52 -47 53 1 1 23 12 49 24 67 32 93 71 93 143 0 46 -5
62 -24 82 -49 52 -117 54 -213 5 -51 -26 -54 -25 -50 21 10 100 -116 191 -176
128z m98 -151 c0 -57 -25 -157 -39 -157 -17 0 -51 114 -51 173 0 21 7 52 16
69 l17 32 28 -32 c24 -27 29 -41 29 -85z m270 -47 c14 -14 20 -33 20 -65 0
-42 -3 -46 -38 -64 -21 -11 -55 -22 -75 -26 -47 -9 -147 3 -147 17 0 6 14 34
32 61 51 80 164 121 208 77z m-389 -217 c-23 -44 -114 -110 -175 -128 -34 -11
-45 -10 -60 1 -18 12 -18 15 -2 39 33 51 140 102 219 104 23 1 26 -2 18 -16z
m256 -44 c54 -38 103 -97 103 -127 0 -21 -3 -23 -32 -17 -47 10 -95 49 -134
111 -19 29 -34 57 -34 62 0 16 54 0 97 -29z"/>
<path d="M14470 8858 c-26 -17 -36 -32 -38 -55 -7 -69 84 -100 133 -47 67 73
-13 157 -95 102z"/>
<path d="M15340 8778 c-45 -13 -60 -25 -60 -53 0 -48 88 -82 135 -51 43 28 28
90 -25 108 -8 3 -31 1 -50 -4z"/>
<path d="M14453 8603 c-23 -64 -108 -247 -162 -349 l-64 -121 -35 39 c-82 91
-263 186 -412 218 l-94 20 -22 -22 c-22 -22 -22 -25 -8 -88 8 -36 18 -149 23
-251 9 -195 20 -243 63 -273 23 -16 16 -22 -37 -30 -61 -10 -182 -45 -262 -77
-39 -15 -109 -38 -155 -49 -80 -21 -118 -41 -118 -64 0 -11 18 -22 154 -94 73
-39 149 -107 232 -207 143 -172 335 -285 484 -285 42 0 193 30 233 45 12 5 17
2 17 -11 0 -107 92 -193 209 -199 l56 -2 6 -49 c3 -27 9 -107 13 -179 4 -71
11 -170 17 -220 6 -49 8 -121 4 -160 -3 -38 -1 -119 4 -180 6 -60 13 -139 16
-174 l5 -64 -26 24 c-14 13 -34 40 -45 59 -33 59 -151 135 -254 165 -50 14
-110 29 -135 32 -41 5 -55 16 -155 113 -111 108 -193 170 -227 170 -11 0 -28
-8 -38 -18 -20 -18 -19 -19 11 -48 49 -46 143 -175 171 -235 41 -85 85 -188
113 -264 42 -111 114 -170 265 -216 73 -22 233 -32 300 -19 24 5 25 3 28 -45
3 -64 39 -347 55 -442 13 -72 8 -89 -19 -64 -5 5 -36 15 -69 23 -73 18 -173
10 -260 -22 -134 -49 -154 -53 -214 -41 -31 6 -102 34 -159 63 -98 51 -104 52
-129 38 -14 -8 -28 -19 -29 -25 -2 -5 24 -30 58 -55 93 -69 160 -139 196 -207
98 -184 199 -263 339 -263 166 1 297 71 332 178 22 66 38 72 52 20 7 -24 13
-59 13 -80 1 -20 3 -34 6 -32 2 3 21 -44 40 -103 129 -383 163 -464 373 -888
134 -270 163 -317 256 -407 44 -43 82 -78 85 -78 3 0 6 30 6 66 0 65 0 66 -24
60 -21 -5 -30 3 -73 72 -46 71 -83 142 -83 156 0 3 -11 29 -25 58 -14 28 -25
57 -25 63 0 7 -18 47 -39 91 -22 43 -63 131 -91 194 -28 63 -66 147 -84 185
-19 39 -45 103 -59 143 -15 39 -44 114 -66 165 -22 50 -42 109 -46 130 -4 20
-10 37 -14 37 -4 0 -7 8 -8 18 -2 24 -10 57 -34 137 -34 110 -67 239 -74 286
-4 24 -13 71 -20 104 -26 115 -64 421 -70 570 -3 83 -13 222 -20 311 -8 88
-15 216 -15 285 0 68 -2 135 -5 149 -3 14 -10 88 -15 165 -6 77 -13 163 -17
190 -4 28 -6 56 -4 63 6 32 -30 52 -93 52 -99 0 -134 14 -157 63 -28 62 -25
124 6 149 14 11 25 26 25 34 0 23 23 26 69 10 50 -17 104 -13 183 14 l58 20
46 -30 c25 -16 59 -32 75 -35 28 -6 29 -8 23 -48 -4 -23 -11 -52 -15 -65 -16
-41 -63 -95 -97 -109 -19 -8 -30 -18 -26 -24 4 -6 6 -55 5 -108 -1 -58 6 -149
19 -231 15 -92 23 -191 25 -310 1 -128 8 -203 23 -280 11 -58 23 -130 27 -160
10 -92 37 -234 45 -243 4 -5 6 -29 4 -55 -3 -35 -2 -42 5 -27 10 20 13 -8 15
-112 1 -17 4 -34 8 -38 4 -4 4 -13 1 -21 -3 -8 0 -21 7 -29 7 -8 10 -21 7 -30
-4 -8 -2 -17 2 -20 5 -3 9 -24 9 -47 0 -53 6 -94 26 -180 8 -36 15 -87 14
-113 0 -28 5 -50 12 -55 7 -4 10 -15 7 -25 -4 -10 -3 -14 4 -9 8 4 9 -1 4 -16
-5 -16 -4 -20 5 -15 7 4 10 2 9 -6 -1 -8 3 -27 10 -43 6 -16 9 -42 6 -58 -5
-19 -3 -28 5 -28 9 0 10 -10 6 -30 -4 -22 -2 -29 5 -24 8 5 10 -7 6 -42 -5
-36 -4 -44 3 -29 8 15 9 11 4 -18 -4 -27 -2 -37 6 -32 7 5 9 -2 4 -19 -4 -17
-2 -26 6 -26 7 0 10 -7 7 -15 -4 -8 -2 -17 2 -20 5 -2 12 -21 15 -40 4 -20 18
-70 32 -110 14 -41 22 -80 18 -87 -4 -6 -3 -8 3 -5 6 4 31 -46 58 -116 26 -67
72 -171 102 -230 29 -59 51 -113 47 -120 -4 -7 -4 -9 1 -5 4 4 14 0 21 -10 17
-22 18 -35 2 -26 -8 4 -10 3 -5 -2 5 -5 12 -9 17 -9 4 0 28 -27 53 -60 24 -33
56 -71 71 -84 l26 -24 0 60 c0 42 -5 64 -15 73 -8 7 -15 16 -15 21 0 5 -11 27
-25 49 -14 22 -25 44 -25 49 0 6 -20 52 -45 103 -25 51 -45 97 -45 101 0 4 -8
27 -19 50 -82 183 -155 438 -196 682 -8 50 -21 113 -29 140 -15 55 -14 64 8
46 40 -33 188 -43 249 -17 74 32 122 116 142 248 15 96 13 131 -19 282 -9 42
-13 93 -9 136 6 73 2 80 -49 86 -31 4 -27 9 -128 -147 -42 -64 -63 -85 -135
-133 -46 -32 -95 -70 -109 -86 -26 -32 -36 -30 -36 9 0 14 -9 85 -19 156 -11
72 -25 168 -31 215 -7 47 -16 100 -20 118 -5 18 -6 32 -2 30 81 -42 113 -52
167 -52 93 -1 168 28 230 89 57 56 75 97 75 177 0 26 4 49 9 52 12 8 23 138
27 316 2 110 8 177 22 232 20 80 17 92 -18 99 -26 5 -70 -11 -70 -25 0 -21
-53 -141 -97 -220 -53 -95 -101 -147 -173 -185 -77 -41 -117 -76 -173 -151
l-44 -58 -12 81 c-7 45 -12 120 -13 167 0 47 -11 150 -25 230 -13 80 -28 195
-32 255 -5 61 -12 117 -15 126 -5 11 4 21 31 35 45 23 89 102 98 175 l6 46 87
17 c118 23 213 71 285 143 67 66 94 113 132 233 25 81 27 99 36 400 9 292 8
316 -8 328 -9 6 -26 12 -38 12 -29 0 -43 -13 -112 -105 -57 -75 -113 -136
-113 -123 0 4 9 27 20 53 28 65 34 180 17 310 -10 73 -12 132 -7 175 10 74 2
90 -41 90 -75 0 -412 -268 -464 -369 l-23 -46 -36 78 c-20 43 -36 81 -36 85 0
4 -20 48 -45 97 -24 50 -53 111 -64 138 -20 46 -20 47 -66 47 -34 0 -47 -4
-52 -17z m725 -185 c2 -35 7 -81 12 -103 24 -104 8 -216 -49 -342 -35 -77 -38
-89 -25 -100 13 -9 4 -20 -58 -69 -40 -32 -85 -72 -100 -88 -20 -21 -28 -26
-31 -15 -21 73 -63 191 -91 255 -49 114 -51 124 -28 124 27 0 38 18 45 73 8
58 48 119 114 174 61 52 196 153 203 153 3 0 7 -28 8 -62z m-608 -85 c59 -129
114 -277 210 -568 48 -144 52 -206 20 -350 -34 -153 -56 -187 -145 -225 -50
-22 -58 -22 -155 -2 -74 15 -92 27 -161 100 -107 112 -156 247 -145 390 9 104
30 207 59 282 26 67 124 270 182 375 18 33 39 77 46 98 7 20 15 37 19 37 3 0
35 -62 70 -137z m-637 -82 c101 -49 187 -125 206 -184 14 -41 11 -97 -9 -162
-6 -22 -16 -76 -22 -120 -6 -44 -11 -81 -13 -83 -1 -2 -31 9 -66 23 -35 15
-95 32 -134 39 -45 7 -70 16 -70 25 0 7 -7 18 -15 24 -38 30 -42 58 -55 379
l-4 126 47 -13 c26 -7 86 -31 135 -54z m1484 -481 c-3 -157 -8 -199 -30 -281
-32 -122 -52 -161 -120 -230 -65 -66 -153 -113 -243 -129 -54 -9 -68 -8 -115
10 -30 11 -65 29 -78 39 l-24 19 33 42 c41 51 78 152 87 233 5 47 10 61 25 65
10 2 30 29 45 59 14 30 39 70 55 89 26 30 131 115 208 169 16 11 57 49 92 85
76 78 72 90 65 -170z m-1457 -118 c114 -56 138 -78 146 -131 12 -84 63 -195
116 -255 54 -61 115 -107 163 -123 l30 -10 -39 -17 c-121 -51 -313 -79 -391
-58 -117 33 -278 159 -422 328 -49 58 -162 143 -210 158 -25 8 -31 26 -9 26 8
0 56 17 107 37 124 49 284 83 374 79 55 -2 84 -9 135 -34z m1437 -1474 c-14
-117 -18 -145 -28 -193 -6 -27 -12 -66 -15 -85 -17 -132 -78 -203 -185 -216
-48 -5 -63 -3 -97 16 -22 12 -45 33 -51 47 -47 104 56 277 214 359 42 21 95
58 118 81 23 23 44 42 46 43 2 0 1 -24 -2 -52z m-1149 -220 c41 -12 91 -34
111 -49 63 -45 237 -287 219 -304 -9 -9 -95 -12 -157 -4 -117 13 -244 93 -281
176 -11 25 -20 51 -20 57 0 6 -16 44 -35 85 -19 40 -35 76 -35 81 0 9 86 -9
198 -42z m1192 -736 c15 -75 8 -224 -14 -297 -8 -27 -28 -65 -44 -84 -23 -28
-36 -34 -80 -39 -48 -4 -57 -1 -111 34 -62 41 -71 58 -71 136 0 43 22 102 48
131 9 11 53 43 98 73 45 29 96 71 115 92 19 21 37 33 40 27 3 -5 12 -38 19
-73z m-867 -276 c50 -18 72 -39 98 -92 20 -43 20 -44 2 -71 -11 -16 -20 -39
-21 -52 0 -13 -11 -44 -24 -70 -43 -87 -154 -121 -263 -80 -66 25 -131 92
-203 211 l-50 83 27 2 c59 6 133 26 197 53 78 33 170 39 237 16z"/>
<path d="M12999 7667 c-27 -18 -35 -30 -37 -60 -3 -32 2 -43 29 -68 26 -25 38
-29 63 -24 36 8 76 47 76 76 0 32 -26 74 -55 87 -35 16 -37 16 -76 -11z"/>
<path d="M13980 3605 c-110 -35 -216 -118 -263 -209 -26 -52 -31 -72 -32 -133
l0 -73 -46 0 c-86 0 -183 -69 -232 -165 -8 -17 -20 -60 -27 -95 -19 -116 -21
-120 -48 -134 -15 -7 -60 -21 -101 -30 -92 -21 -118 -34 -164 -85 -31 -34 -37
-48 -37 -85 0 -99 123 -349 243 -492 44 -53 87 -98 96 -101 9 -3 25 -9 36 -14
11 -5 53 -13 92 -19 40 -5 76 -11 80 -12 5 -1 45 1 90 5 l82 7 55 -39 c31 -21
70 -44 88 -52 18 -7 35 -16 38 -20 3 -5 2 -43 -1 -86 -10 -101 -11 -238 -3
-297 7 -45 7 -46 43 -46 l36 0 -3 182 c-4 209 -1 231 31 226 21 -3 22 -9 27
-108 3 -58 5 -149 5 -202 l0 -98 38 0 39 0 -4 185 c-1 102 0 185 3 185 4 0 35
-9 70 -19 35 -11 101 -29 146 -40 45 -12 130 -38 190 -58 l108 -38 180 0 180
0 102 37 c57 21 121 47 144 59 83 42 149 120 213 254 23 49 40 179 40 300 -1
81 -4 96 -33 152 -35 67 -43 74 -86 65 -28 -5 -25 0 38 69 82 89 97 116 99
172 1 62 -30 114 -107 177 -51 42 -75 71 -100 120 -37 72 -52 89 -111 119 -67
35 -130 38 -191 8 -29 -13 -54 -23 -57 -20 -3 3 0 16 5 30 18 47 31 118 35
185 4 85 -10 105 -114 155 -75 37 -80 38 -182 37 -91 0 -113 -4 -167 -27 -34
-15 -72 -27 -83 -27 -12 0 -63 20 -113 45 -129 63 -265 81 -367 50z m259 -84
c172 -78 255 -87 345 -40 23 12 68 24 102 27 51 4 71 0 117 -21 79 -36 91 -59
84 -161 -3 -45 -15 -110 -27 -145 -21 -60 -21 -63 -4 -76 10 -7 40 -16 67 -19
40 -6 57 -2 111 24 71 33 80 35 123 20 23 -8 38 -28 67 -84 30 -59 52 -85 107
-131 73 -59 109 -114 109 -164 0 -35 -92 -151 -168 -214 -26 -21 -55 -45 -64
-52 -53 -44 19 -66 125 -40 21 6 27 4 27 -9 0 -23 -44 -119 -62 -134 -9 -7
-49 -19 -89 -28 -115 -23 -263 -61 -301 -77 -46 -19 -149 -116 -188 -177 -36
-56 -44 -63 -29 -22 28 71 89 338 89 387 0 30 4 55 10 55 5 0 28 16 49 35 23
21 42 32 46 25 3 -5 21 -10 40 -10 99 0 131 154 36 175 -45 10 -85 -16 -99
-63 -7 -22 -21 -44 -34 -50 -13 -7 -35 -21 -49 -33 l-27 -21 -42 46 c-23 25
-57 51 -76 58 -22 8 -30 15 -24 23 5 6 16 33 25 60 18 53 41 85 60 85 22 0 75
75 75 106 0 8 -13 29 -29 45 -22 21 -39 29 -66 29 -72 0 -128 -88 -96 -149 7
-13 3 -31 -15 -66 -13 -27 -24 -59 -24 -72 0 -21 -3 -23 -27 -16 -16 4 -56 7
-91 8 -58 0 -63 2 -57 20 22 74 45 171 45 189 0 11 12 30 26 41 36 29 43 86
14 115 -19 19 -30 21 -68 17 -73 -8 -102 -58 -63 -109 19 -24 19 -25 -11 -143
-17 -67 -37 -125 -46 -132 -9 -7 -30 -13 -47 -13 l-31 0 8 93 c5 50 6 107 3
125 -4 18 -2 32 4 32 19 0 51 44 51 70 0 58 -76 91 -124 55 -17 -13 -19 -28
-19 -149 0 -74 -2 -146 -5 -161 -4 -23 -6 -24 -21 -12 -9 8 -31 22 -49 31
l-34 17 3 87 c2 48 6 92 11 98 4 6 3 27 -3 47 -25 93 -158 73 -155 -23 1 -32
11 -42 49 -54 14 -4 17 -17 17 -76 l0 -70 -32 0 c-17 0 -46 -5 -63 -11 -63
-23 -127 20 -90 61 9 9 18 33 22 53 12 76 -75 104 -142 46 -19 -17 -35 -39
-35 -49 0 -18 28 -54 105 -134 l40 -41 -23 -47 c-14 -27 -29 -87 -37 -140 -11
-80 -12 -127 -4 -288 2 -36 19 -138 26 -157 6 -14 -3 -15 -73 -9 -76 6 -153
24 -192 45 -24 13 -130 141 -174 211 -64 102 -130 261 -132 314 -1 62 20 80
124 101 91 19 188 70 213 112 10 17 21 64 26 105 12 104 57 180 118 197 26 8
40 4 92 -25 40 -22 75 -34 100 -34 43 0 70 22 54 43 -18 22 -53 140 -53 178 0
48 51 148 99 194 58 57 124 85 199 85 53 0 79 -7 151 -39z m-301 -861 c12 -32
55 -51 74 -32 7 7 26 0 62 -25 l51 -35 100 6 c55 3 131 9 168 12 104 10 178
-15 228 -79 37 -47 39 -52 39 -122 0 -126 -57 -362 -109 -450 -23 -39 -45
-130 -37 -151 5 -12 2 -15 -11 -9 -10 4 -61 17 -113 30 -52 14 -141 40 -197
59 -56 19 -128 40 -160 46 -126 26 -231 109 -254 201 -21 85 -17 400 5 464 27
75 67 113 123 114 15 1 24 -8 31 -29z m1474 -529 c-7 -60 -20 -98 -52 -162
-67 -134 -86 -150 -247 -210 -89 -33 -125 -42 -204 -46 -102 -6 -257 3 -278
17 -10 6 5 32 57 101 189 249 240 299 331 325 31 8 70 20 86 24 17 5 59 14 95
19 96 16 166 40 192 68 l23 25 3 -42 c2 -23 -1 -77 -6 -119z"/>
<path d="M14643 3418 c-16 -27 -63 -185 -63 -215 0 -28 4 -33 24 -33 36 0 49
19 86 120 25 71 35 88 42 75 16 -28 0 -97 -34 -147 -26 -37 -23 -50 10 -42 56
14 114 95 107 152 -7 56 -53 104 -79 82 -10 -7 -17 -6 -26 5 -15 18 -56 20
-67 3z"/>
<path d="M15053 3008 c-22 -11 -63 -92 -63 -126 0 -20 18 -32 50 -32 16 0 50
52 50 77 0 5 14 22 31 37 24 22 28 30 18 42 -13 16 -54 17 -86 2z"/>
<path d="M10295 3368 c-30 -24 -75 -110 -75 -146 0 -13 -8 -25 -17 -28 -73
-23 -123 -58 -123 -86 0 -4 19 -17 43 -29 56 -29 170 -41 216 -22 19 7 35 12
36 11 80 -115 112 -185 158 -348 83 -293 109 -415 106 -487 -2 -26 -17 -82
-34 -123 -18 -41 -42 -105 -54 -142 -13 -38 -26 -68 -31 -68 -5 0 -14 17 -21
38 -17 52 -47 117 -88 186 l-34 59 37 30 c41 33 60 65 82 136 29 96 11 118
-63 82 -45 -22 -46 -22 -67 -3 -86 79 -176 43 -212 -85 l-17 -61 -48 -6 c-37
-5 -53 -13 -68 -35 -20 -27 -20 -29 -2 -45 9 -9 21 -16 26 -16 4 0 38 -14 74
-31 65 -31 101 -34 167 -14 18 6 27 -4 61 -62 41 -71 70 -134 78 -168 3 -11
12 -45 20 -75 21 -76 19 -97 -15 -190 -16 -45 -30 -92 -30 -105 0 -14 -13 -39
-28 -57 -51 -59 -49 -68 13 -68 39 0 55 4 55 13 0 8 9 24 20 37 11 13 20 37
20 55 0 35 22 110 65 221 47 123 51 131 82 137 15 3 57 30 92 60 35 30 96 71
135 93 65 35 81 39 191 49 l120 10 73 -77 c84 -88 141 -120 213 -121 66 -1 87
18 69 63 -7 17 -25 44 -40 60 l-28 30 37 17 c19 10 42 29 50 44 18 33 8 106
-22 151 -31 45 -115 101 -145 95 -20 -4 -23 -1 -17 17 13 43 10 51 -17 54 -36
4 -122 -41 -151 -80 -39 -52 -50 -79 -56 -138 l-6 -55 -80 -6 c-123 -10 -241
-59 -362 -150 -29 -22 -53 -36 -53 -31 0 18 122 305 153 361 38 69 163 257
176 265 5 3 76 7 158 8 123 3 154 6 176 21 15 9 27 22 27 28 0 16 -33 47 -62
58 -24 9 -27 14 -22 40 9 45 -3 93 -35 141 -39 58 -74 78 -152 86 -59 6 -68 9
-73 30 -3 12 -15 25 -26 29 -36 11 -57 -12 -81 -87 -29 -94 -33 -255 -7 -305
l16 -33 -67 -99 c-37 -55 -75 -118 -85 -140 -20 -42 -36 -46 -36 -8 0 38 -48
236 -92 377 -47 154 -95 274 -128 320 l-22 31 39 47 c21 26 46 58 54 72 16 25
59 150 59 170 0 16 -58 12 -86 -7 -24 -15 -27 -15 -63 5 -52 29 -119 29 -156
0z m800 -491 c32 -32 60 -102 53 -134 -2 -11 -19 -15 -64 -16 l-62 -2 2 55 c0
30 -3 72 -8 93 -8 36 -7 37 19 37 17 0 39 -12 60 -33z m313 -631 c37 -35 55
-87 42 -121 l-9 -24 -70 19 c-38 11 -78 17 -87 13 -14 -5 -16 -3 -10 13 5 10
17 44 27 74 28 79 46 84 107 26z"/>
<path d="M620 2404 c0 -30 7 -43 37 -69 l36 -31 -31 -23 c-18 -12 -32 -31 -32
-41 0 -21 16 -25 124 -34 35 -3 66 -12 77 -22 25 -22 15 -35 -21 -27 -33 6
-60 -10 -60 -37 0 -21 57 -39 151 -47 56 -5 74 -11 94 -31 14 -14 25 -28 25
-32 0 -4 -17 -10 -39 -14 -29 -4 -40 -12 -45 -28 -11 -42 -9 -43 86 -38 84 5
96 3 127 -17 l33 -22 -28 -12 c-63 -25 -82 -44 -71 -72 5 -12 13 -14 49 -6 61
13 122 32 128 40 3 4 31 0 63 -8 65 -19 74 -38 27 -65 -18 -10 -30 -25 -30
-38 0 -41 73 -15 97 35 6 11 10 40 9 64 l-1 44 -60 22 c-33 12 -73 27 -88 33
-16 7 -31 12 -34 12 -11 0 -98 75 -178 154 -44 43 -105 99 -135 124 -30 26
-80 69 -110 96 -62 56 -166 126 -187 126 -8 0 -13 -13 -13 -36z"/>
</g>
</svg>
