<?xml version="1.0" standalone="no"?>
<!DOCTYPE svg PUBLIC "-//W3C//DTD SVG 20010904//EN"
 "http://www.w3.org/TR/2001/REC-SVG-20010904/DTD/svg10.dtd">
<svg version="1.0" xmlns="http://www.w3.org/2000/svg"
 width="570.000000pt" height="738.000000pt" viewBox="0 0 570.000000 738.000000"
 preserveAspectRatio="xMidYMid meet">
<metadata>
Created by potrace 1.16, written by Peter Selinger 2001-2019
</metadata>
<g transform="translate(0.000000,738.000000) scale(0.100000,-0.100000)"
fill="#000000" stroke="none">
<path d="M2295 7239 c-82 -43 -187 -122 -320 -243 -82 -74 -149 -122 -246
-180 -404 -237 -525 -322 -664 -467 -271 -281 -518 -689 -631 -1039 -89 -274
-116 -480 -118 -875 -2 -445 67 -687 270 -949 80 -103 199 -221 276 -272 l67
-45 -14 -33 c-8 -18 -19 -71 -24 -117 -22 -169 -10 -242 45 -301 14 -14 40
-59 58 -100 43 -99 97 -179 176 -261 36 -37 63 -67 60 -67 -3 0 -131 0 -285 0
-245 0 -593 -18 -672 -35 -21 -5 -21 -6 18 -90 21 -47 39 -87 39 -89 0 -2 -20
-9 -45 -15 -35 -9 -45 -16 -45 -32 0 -15 5 -19 18 -15 43 14 246 57 332 70
382 61 811 80 1141 51 234 -20 549 -71 567 -90 4 -4 -5 -5 -19 -2 -58 14 -345
47 -505 58 -270 19 -617 3 -899 -42 -105 -16 -339 -74 -435 -107 -173 -60
-200 -73 -200 -92 0 -16 8 -15 80 16 196 82 433 142 720 181 190 25 758 25
970 -1 219 -27 490 -78 490 -93 0 -4 95 -375 251 -978 76 -298 229 -897 229
-902 0 -2 7 -3 16 -3 10 0 14 6 10 18 -17 61 -55 206 -125 482 -44 173 -113
446 -155 605 -135 523 -186 724 -186 732 0 4 33 8 73 8 59 0 82 5 130 29 32
15 60 26 61 25 4 -4 12 -41 130 -559 183 -805 297 -1294 301 -1299 25 -25 10
67 -66 389 -87 370 -100 439 -74 370 24 -62 16 -18 -15 80 -16 52 -30 98 -30
102 0 22 269 241 488 397 174 123 459 286 651 370 40 17 71 34 69 36 -5 6
-259 -58 -313 -79 -66 -24 -34 -18 96 19 68 19 128 35 133 35 5 0 -53 -31
-130 -69 -299 -148 -635 -374 -902 -605 -51 -45 -96 -80 -100 -79 -4 1 -21 64
-38 140 -17 76 -64 283 -104 461 -71 314 -73 323 -54 337 65 51 266 180 355
228 456 244 1059 394 1742 432 114 7 117 6 117 -14 0 -14 -6 -21 -20 -21 -28
0 -87 -55 -99 -93 -14 -44 -7 -182 9 -202 15 -18 18 -148 3 -152 -4 -1 -45
-12 -91 -24 -46 -12 -81 -23 -79 -25 2 -3 45 7 96 20 l91 25 0 -34 c0 -40 31
-67 71 -63 l24 3 3 -223 c2 -173 0 -223 -10 -226 -303 -88 -471 -166 -671
-308 -139 -99 -377 -331 -377 -368 0 -5 30 12 67 37 119 79 224 124 136 57
-92 -69 -216 -217 -318 -379 -50 -78 -220 -413 -239 -470 -16 -47 14 5 44 75
44 107 159 323 222 421 107 166 257 329 364 397 49 31 57 47 17 31 -47 -17
-164 -78 -210 -109 -24 -16 -43 -26 -43 -22 0 5 32 43 70 84 188 204 478 393
743 483 59 20 113 35 119 33 5 -2 -15 -20 -46 -41 -31 -20 -55 -41 -53 -46 1
-4 -39 -48 -89 -97 -163 -161 -283 -305 -402 -485 -42 -64 -88 -122 -101 -128
-13 -7 -21 -14 -19 -17 3 -2 77 35 164 84 l159 89 28 68 c15 37 25 70 23 72
-2 2 -16 -27 -31 -65 l-27 -69 -121 -67 c-66 -36 -122 -64 -124 -63 -5 5 133
204 194 282 119 148 301 337 415 431 26 22 45 44 43 51 -3 10 62 30 70 21 2
-2 6 -314 10 -695 4 -380 11 -696 15 -702 3 -7 14 -9 23 -5 14 5 15 26 12 177
-3 95 -7 429 -9 743 l-5 571 34 79 c19 42 37 95 40 117 6 30 14 43 38 56 49
26 94 69 107 101 9 22 11 63 7 138 -9 185 -66 319 -177 414 -37 32 -50 50 -50
71 0 27 -1 27 -63 27 l-63 0 -31 44 c-38 53 -82 67 -131 42 -39 -20 -44 -20
-40 2 3 15 -6 17 -72 17 -41 0 -108 -2 -149 -5 l-73 -5 -5 70 c-3 39 -6 71 -8
73 -5 6 -194 -18 -269 -34 l-69 -14 -52 34 c-80 54 -187 105 -259 123 -37 10
-66 20 -66 23 0 3 15 12 34 18 97 35 290 184 393 301 172 196 276 443 325 766
19 132 16 517 -6 670 -89 622 -295 1138 -581 1453 -48 54 -283 247 -405 334
-110 78 -254 166 -386 234 -71 37 -178 104 -243 153 -165 124 -296 212 -338
226 -19 7 -72 13 -117 14 -74 2 -87 -1 -141 -30z m260 -48 c33 -16 132 -79
220 -140 244 -171 518 -354 511 -342 -4 6 -45 38 -91 72 -47 34 -85 63 -85 66
0 10 158 -82 250 -145 243 -166 536 -434 636 -582 211 -311 387 -848 444
-1360 17 -142 14 -486 -4 -612 -69 -483 -301 -828 -677 -1007 l-84 -41 -123 7
-122 6 82 50 c199 119 395 278 493 400 163 202 252 504 224 767 -10 106 -38
221 -132 550 -36 124 -70 250 -78 280 -7 30 -14 48 -16 39 -2 -8 34 -166 81
-350 96 -380 116 -486 116 -609 0 -273 -114 -549 -308 -749 -62 -64 -209 -177
-347 -267 -103 -67 -450 -244 -520 -266 -39 -12 -251 -41 -290 -39 -146 6
-269 3 -315 -8 -102 -24 -259 -127 -345 -228 -98 -114 -143 -213 -170 -382 -8
-52 -16 -95 -18 -97 -2 -3 -64 5 -138 15 -74 11 -190 25 -259 32 -110 10 -130
15 -166 40 -43 29 -194 185 -194 199 0 5 14 4 31 -2 45 -16 176 -4 232 20 58
26 142 103 170 157 27 51 29 154 4 203 -24 44 -29 40 -12 -9 63 -178 -98 -362
-319 -361 -85 0 -127 19 -159 75 -15 25 -27 48 -27 50 0 3 29 2 65 -1 79 -6
141 10 216 54 99 59 179 164 167 221 -2 10 -10 -4 -18 -32 -26 -92 -169 -202
-290 -223 -51 -9 -135 -1 -149 13 -5 6 -12 21 -16 34 -8 25 -5 25 62 6 10 -3
-15 10 -55 29 -66 32 -75 40 -94 83 -18 42 -20 60 -15 156 7 132 32 193 108
261 62 56 106 72 153 56 37 -12 57 -30 80 -75 13 -24 16 -26 16 -10 0 12 -9
38 -20 60 -33 64 -22 105 26 105 28 0 118 -89 146 -143 16 -32 19 -57 17 -145
-2 -140 1 -195 9 -204 4 -4 9 64 10 150 l4 157 -39 60 c-53 80 -114 135 -153
135 -36 0 -55 -29 -46 -73 7 -37 4 -34 -39 34 -19 30 -35 49 -35 44 0 -6 11
-27 24 -46 l25 -36 -43 4 c-54 6 -100 -14 -154 -69 -39 -39 -40 -39 -68 -25
-133 70 -295 241 -396 417 -69 120 -128 304 -149 464 -15 119 -6 587 15 764
49 407 174 732 429 1117 240 361 412 522 835 778 78 48 145 87 149 87 4 0 -22
-30 -57 -67 -134 -139 -141 -154 -22 -43 329 308 457 413 567 466 92 45 155
46 240 5z m1025 -4125 c75 -7 139 -31 181 -65 33 -27 135 -168 128 -175 -2 -2
-62 -30 -134 -63 -71 -33 -152 -73 -180 -89 l-49 -30 -92 46 c-112 58 -196 76
-265 60 -73 -18 -67 -28 14 -22 56 3 84 0 126 -16 56 -22 161 -82 161 -92 0
-8 -161 -114 -163 -108 -1 1 -17 32 -34 68 -18 36 -46 81 -63 100 -27 32 -25
27 15 -55 69 -138 71 -128 -43 -212 -123 -92 -201 -160 -328 -284 -55 -54
-104 -99 -107 -99 -4 0 -7 11 -7 24 0 59 -34 209 -65 286 l-34 85 41 63 c22
34 54 73 70 87 38 32 58 72 58 115 0 39 -21 113 -44 158 -9 17 -16 36 -16 42
0 6 36 10 98 10 57 1 113 7 137 15 42 15 56 12 37 -7 -18 -18 -14 -57 13 -136
27 -76 24 -102 -12 -135 -33 -29 -132 -59 -185 -55 -64 4 -44 -12 24 -19 37
-4 74 0 113 12 97 28 140 97 109 174 -8 18 -14 43 -14 55 0 42 130 103 255
120 94 13 272 -41 362 -110 54 -41 37 -11 -19 36 -106 86 -229 125 -350 108
-75 -10 -186 -59 -224 -99 -34 -35 -40 -36 -46 -5 -11 55 14 82 124 134 57 27
121 55 143 62 45 15 147 28 185 24 14 -2 50 -5 80 -8z m330 -61 c59 -30 170
-104 170 -114 0 -3 -26 -14 -58 -23 -32 -9 -65 -20 -73 -23 -12 -4 -28 13 -59
61 -24 36 -63 86 -87 109 l-43 43 48 -12 c26 -7 72 -25 102 -41z m540 -138 l0
-64 -72 -12 c-368 -64 -699 -185 -1053 -385 -123 -70 -317 -197 -415 -271 -86
-65 -91 -62 -15 11 329 315 744 577 1109 698 124 41 315 80 414 85 l32 1 0
-63z m-1766 14 c21 -4 33 -15 43 -38 l13 -33 -68 0 c-165 0 -323 -93 -431
-256 -58 -87 -69 -130 -15 -57 112 149 263 255 412 289 107 24 132 5 132 -103
0 -28 -9 -44 -44 -79 -24 -23 -77 -96 -117 -161 -93 -151 -153 -211 -260 -263
-45 -22 -96 -42 -113 -45 -18 -3 -91 8 -176 28 l-145 33 3 64 c5 88 36 202 71
264 100 173 300 331 451 355 64 10 202 11 244 2z m2066 -130 l0 -49 -37 -6
c-21 -3 -65 -8 -98 -11 -622 -64 -1212 -255 -1617 -525 -73 -49 -145 -98 -160
-110 -16 -12 -28 -20 -28 -17 0 19 330 246 505 347 442 255 953 415 1343 419
l92 1 0 -49z m343 -124 c81 -35 178 -201 197 -340 25 -189 9 -238 -91 -284
-33 -15 -54 -30 -48 -34 7 -4 8 -12 3 -20 -4 -7 -9 -25 -10 -39 -4 -30 -34
-100 -44 -100 -4 0 -6 29 -6 65 1 52 5 67 21 80 14 10 15 13 4 9 -20 -6 -25 9
-28 91 -2 33 -5 62 -7 65 -3 2 -21 3 -40 1 -55 -4 -86 38 -50 68 11 10 15 8
20 -6 4 -14 4 -14 3 3 -1 11 11 37 26 57 23 30 35 37 65 38 30 2 32 3 10 6
-17 3 -28 11 -28 20 0 9 -12 -1 -29 -23 -15 -21 -40 -49 -53 -62 -32 -29 -38
-17 -33 67 4 73 38 128 86 138 16 3 29 9 29 14 0 13 -6 11 -48 -10 -21 -11
-44 -31 -52 -45 -16 -31 -26 -33 -40 -5 -18 33 -1 78 46 125 32 33 52 44 76
45 28 1 29 2 8 6 -30 6 -84 -22 -105 -53 -21 -32 -35 -30 -35 4 0 37 33 88 72
112 39 24 40 24 81 7z m-2434 -312 c21 -96 52 -317 46 -324 -3 -2 -26 -6 -52
-8 -38 -4 -62 2 -115 26 -38 17 -68 33 -68 36 0 2 -11 34 -24 69 l-25 65 48
35 c26 19 74 71 106 115 33 44 61 79 62 78 1 -2 11 -43 22 -92z m-1444 -65
c443 -22 764 -72 1074 -167 62 -19 111 -36 109 -39 -3 -2 -47 7 -99 20 -269
71 -701 114 -1029 102 -275 -11 -543 -38 -757 -77 -62 -12 -119 -19 -126 -16
-15 6 -73 135 -64 143 16 16 332 39 587 42 58 1 195 -3 305 -8z"/>
<path d="M2319 7066 c-103 -27 -193 -96 -327 -250 -53 -61 -100 -112 -104
-114 -5 -2 -8 -8 -8 -14 0 -6 65 52 144 130 120 117 157 146 221 178 140 69
241 59 435 -43 107 -56 335 -202 327 -209 -2 -2 -46 7 -98 20 -148 39 -241 50
-424 50 -153 0 -181 -2 -279 -27 -399 -100 -701 -344 -954 -772 -75 -125 -122
-245 -166 -416 -44 -171 -56 -261 -56 -414 0 -103 5 -147 31 -257 30 -132 31
-137 39 -523 8 -402 13 -458 60 -637 50 -192 142 -361 265 -484 141 -142 377
-248 685 -308 121 -24 246 -41 225 -31 -5 2 -73 18 -150 34 -242 51 -479 138
-602 222 -115 79 -239 222 -305 354 -99 197 -158 527 -158 890 0 72 -5 180
-11 241 -9 103 -8 117 11 175 38 114 145 306 177 316 12 4 -25 -220 -50 -305
l-16 -52 22 11 c48 25 222 214 257 279 l34 65 11 -70 c13 -79 22 -63 -87 -148
-26 -20 -48 -41 -48 -46 0 -5 28 6 63 25 76 41 97 43 97 9 0 -14 3 -25 7 -25
4 0 30 22 58 49 46 45 57 51 130 65 44 9 96 18 115 20 190 25 214 30 190 37
-14 4 -42 7 -62 8 -21 1 -38 2 -38 4 0 1 46 49 103 107 72 74 113 126 139 175
36 68 37 69 43 40 4 -17 23 -88 43 -160 19 -71 37 -154 40 -182 2 -29 8 -53
12 -53 4 0 59 53 122 118 83 87 122 136 146 184 17 36 32 73 32 82 0 9 4 16 8
16 10 0 32 -182 32 -261 0 -31 -7 -78 -15 -104 -8 -27 -13 -50 -12 -52 9 -8
123 81 187 146 137 139 195 273 195 447 l0 100 39 -55 c21 -31 67 -88 101
-127 69 -79 125 -157 125 -173 0 -7 -34 -11 -94 -11 -52 0 -97 -4 -100 -8 -3
-4 45 -16 107 -26 61 -9 114 -19 118 -21 3 -3 9 -18 13 -35 3 -19 10 -29 17
-25 6 4 7 14 4 24 -4 9 -13 40 -21 70 -21 80 -71 154 -185 277 -56 60 -113
127 -128 150 l-26 40 0 -125 c0 -105 -4 -138 -23 -196 -32 -97 -93 -207 -159
-288 -49 -60 -121 -127 -136 -127 -3 0 1 17 10 38 27 61 23 179 -11 308 l-29
112 -51 -100 c-33 -63 -87 -144 -151 -224 l-100 -124 -7 72 c-4 40 -17 107
-28 148 -12 41 -30 107 -40 145 -11 39 -20 104 -21 145 -1 86 -16 155 -18 83
-2 -101 -46 -223 -113 -315 -51 -70 -192 -237 -201 -237 -4 -1 -3 8 3 18 5 11
17 50 26 87 13 56 14 100 8 253 l-8 186 -12 -78 c-22 -139 -65 -242 -149 -357
-64 -87 -193 -248 -205 -255 -6 -4 -10 19 -10 59 0 35 -7 98 -16 138 -10 47
-13 96 -10 138 l6 65 -23 -61 c-48 -124 -177 -324 -266 -408 l-30 -29 21 54
c11 30 27 81 35 114 18 74 64 387 58 393 -4 4 -31 -82 -55 -173 -7 -29 -21
-48 -51 -69 -74 -52 -139 -161 -161 -271 -11 -57 -12 -59 -20 -30 -20 64 -21
305 -3 419 34 222 111 488 177 621 75 148 219 337 382 501 150 150 324 247
564 312 90 24 112 26 297 26 220 0 304 -11 475 -66 161 -51 305 -131 434 -242
137 -117 305 -342 405 -542 47 -93 176 -455 169 -474 -2 -5 -31 24 -65 65 -49
57 -64 82 -69 116 -8 58 -32 140 -45 159 -8 12 -9 9 -4 -10 3 -14 9 -72 12
-130 6 -123 -11 -220 -55 -314 l-29 -61 -7 50 c-27 201 -63 267 -278 504 l-56
62 24 -81 c12 -44 28 -125 35 -178 11 -84 10 -108 -5 -182 -10 -47 -26 -105
-37 -129 -23 -52 -23 -57 -5 -42 16 13 117 -7 272 -54 98 -30 107 -30 74 -5
-18 14 -22 23 -15 33 6 8 25 33 42 57 29 38 54 104 81 210 l8 35 19 -35 c21
-41 138 -200 143 -195 13 12 -75 371 -125 508 -33 94 -105 236 -156 312 -65
96 -254 311 -330 375 -95 81 -192 144 -280 184 -42 20 -100 58 -138 91 -78 69
-259 191 -354 239 -123 62 -227 79 -326 52z m1208 -1391 c90 -129 115 -174
147 -263 24 -68 45 -182 34 -182 -3 0 -38 15 -79 34 -41 18 -98 39 -126 47
-29 7 -53 18 -53 23 0 6 8 34 19 61 10 28 22 71 25 98 9 58 -9 184 -36 252
-23 60 -21 57 69 -70z m-1582 -424 c-9 -67 -18 -127 -21 -135 -4 -10 -27 -15
-77 -18 -40 -2 -73 -3 -74 -3 -1 0 25 34 58 75 33 41 75 105 92 142 18 36 33
65 35 63 2 -1 -4 -57 -13 -124z"/>
<path d="M3390 5172 c0 -33 -24 -97 -40 -107 -6 -4 -10 12 -10 44 0 80 -11 93
-29 36 -20 -62 -41 -71 -42 -18 -1 36 -2 36 -14 -17 -23 -103 -36 -114 -54
-47 -17 66 -33 82 -25 25 11 -80 -16 -138 -30 -65 -3 19 -13 42 -21 53 -12 17
-13 13 -9 -36 3 -30 2 -66 -4 -79 -8 -24 -10 -22 -35 30 -23 47 -26 49 -21 20
7 -40 7 -121 0 -128 -3 -3 -19 11 -37 31 -36 42 -46 42 -24 0 18 -35 19 -78 4
-195 -7 -53 -8 -107 -3 -136 8 -46 8 -43 15 50 6 87 11 108 45 175 33 65 48
83 94 114 125 84 304 108 410 56 104 -51 159 -111 206 -227 15 -35 24 -48 24
-33 0 12 -11 50 -25 83 -18 45 -22 66 -15 79 6 10 10 43 9 72 0 45 -2 50 -12
34 -24 -37 -45 -61 -51 -56 -3 3 1 28 9 54 19 62 9 79 -19 30 -25 -45 -53 -60
-42 -23 4 13 10 42 13 64 l6 40 -42 -45 c-36 -39 -42 -41 -36 -20 3 14 8 48
12 75 l6 50 -34 -49 c-42 -61 -60 -70 -50 -24 8 39 3 78 -10 78 -5 0 -9 -9 -9
-20 0 -21 -26 -80 -36 -80 -2 0 -4 10 -3 23 1 12 1 38 0 57 l-2 35 -17 -44
c-26 -68 -45 -67 -37 2 5 36 3 57 -4 61 -7 5 -11 -3 -11 -22z"/>
<path d="M1925 4867 l6 -68 -25 18 c-14 10 -37 37 -52 61 -30 47 -43 49 -24 2
20 -48 2 -49 -41 -1 -46 51 -52 35 -14 -40 33 -66 11 -65 -50 4 -36 39 -46 46
-40 27 4 -14 16 -37 26 -52 37 -51 15 -52 -41 -2 -39 35 -40 36 -31 10 6 -14
18 -40 26 -56 21 -40 9 -38 -37 7 -33 32 -38 34 -38 16 0 -11 11 -37 25 -57
13 -20 22 -36 19 -36 -10 0 -90 43 -108 59 -18 16 -18 15 -1 -19 9 -19 29 -47
43 -62 l26 -28 -26 0 c-14 0 -37 10 -52 21 -40 31 -44 15 -8 -30 51 -63 41
-79 -22 -36 -45 31 -49 11 -6 -35 41 -44 38 -54 -10 -30 -21 11 -42 20 -45 20
-9 0 32 -75 49 -89 12 -10 16 -33 17 -85 1 -113 16 -125 21 -16 3 75 9 107 30
152 64 139 222 228 406 228 183 0 328 -104 381 -274 13 -38 20 -52 20 -35 1
46 -38 143 -79 194 -71 89 -80 107 -80 158 0 56 -14 55 -30 -3 -6 -22 -14 -40
-18 -40 -11 0 -52 87 -52 110 0 10 -5 22 -11 26 -9 5 -10 -9 -7 -50 3 -31 2
-56 -1 -56 -11 0 -61 83 -61 101 0 10 -5 21 -12 25 -8 5 -10 -8 -5 -49 3 -32
2 -57 -3 -57 -10 0 -34 42 -56 99 -14 35 -14 34 -9 -32z"/>
<path d="M3225 4923 c-50 -13 -118 -72 -148 -128 -15 -29 -21 -59 -22 -106 0
-56 4 -73 30 -115 18 -28 52 -63 80 -83 l50 -33 -80 5 c-64 5 -74 4 -50 -4 17
-6 77 -11 135 -12 125 -1 186 15 393 104 76 32 144 59 152 59 7 0 20 6 28 14
17 18 81 36 125 36 21 0 31 4 27 11 -11 17 -100 1 -185 -33 -41 -16 -79 -33
-85 -38 -5 -4 -39 -20 -75 -35 -36 -15 -81 -34 -100 -43 -34 -14 -34 -14 -19
4 55 63 76 156 53 235 -20 66 -88 138 -150 157 -41 12 -121 14 -159 5z m185
-37 c56 -27 106 -98 116 -163 25 -170 -163 -307 -321 -234 -119 54 -166 184
-109 299 58 117 192 159 314 98z"/>
<path d="M3391 4819 c23 -22 29 -34 24 -51 -14 -48 -68 -63 -99 -29 -25 27
-17 72 14 88 43 22 9 14 -39 -9 -89 -41 -123 -96 -101 -163 18 -54 62 -85 122
-85 45 0 54 4 90 40 38 38 40 42 34 87 -15 126 -19 136 -56 146 -16 4 -13 -2
11 -24z"/>
<path d="M2754 4794 c-9 -75 1 -318 16 -369 15 -50 70 -165 80 -165 4 0 -1 26
-12 58 -27 83 -46 199 -58 373 -7 85 -13 156 -15 157 -2 2 -7 -22 -11 -54z"/>
<path d="M1836 4684 c-60 -22 -101 -58 -130 -116 -60 -120 -16 -260 102 -324
l47 -25 -125 6 c-69 3 -161 8 -205 11 -56 4 -90 2 -113 -8 -31 -12 -24 -13 90
-14 68 -1 168 -5 223 -9 129 -9 250 11 377 64 51 21 126 49 166 61 40 12 72
24 70 26 -6 6 -122 -24 -176 -45 -29 -12 -52 -18 -52 -15 0 3 8 18 18 32 131
189 -72 437 -292 356z m195 -31 c74 -38 111 -93 117 -172 6 -77 -11 -125 -63
-176 -70 -70 -178 -86 -269 -40 -63 32 -96 72 -113 139 -49 190 148 340 328
249z"/>
<path d="M1898 4579 c-86 -44 -112 -115 -68 -187 43 -70 136 -78 197 -17 36
36 40 62 24 159 -14 83 -56 95 -153 45z"/>
<path d="M2718 4225 c-20 -7 -53 -24 -72 -37 -50 -35 -156 -173 -163 -212 -5
-35 10 -76 29 -76 6 0 3 9 -7 20 -32 35 -13 72 98 189 62 64 118 92 203 99 51
4 71 0 108 -17 52 -25 101 -86 118 -146 9 -31 13 -35 16 -18 8 53 -63 160
-129 193 -45 24 -144 26 -201 5z"/>
<path d="M3430 3791 c-54 -29 -167 -57 -385 -96 -110 -20 -263 -51 -340 -70
-159 -38 -241 -51 -405 -61 l-115 -7 50 -17 c28 -10 127 -56 221 -103 197 -99
257 -117 382 -117 208 0 302 64 518 355 32 44 73 92 89 107 35 32 32 34 -15 9z
m-135 -76 c-218 -105 -546 -175 -814 -175 -116 0 -135 15 -29 23 46 3 187 28
313 56 127 27 293 61 369 76 76 14 153 32 170 40 65 28 58 12 -9 -20z m95 21
c0 -3 -6 -11 -13 -18 -7 -7 -47 -56 -89 -109 -108 -135 -194 -212 -263 -238
-125 -47 -269 -46 -396 2 -69 26 -297 141 -264 133 278 -68 564 -49 758 50 83
42 165 97 222 148 41 36 45 39 45 32z m-350 -169 c0 -40 -106 -63 -142 -30
-17 15 -18 15 -18 -4 0 -39 -140 -63 -154 -26 -4 9 -3 19 1 23 4 4 54 15 109
24 56 9 115 21 130 26 54 16 74 12 74 -13z"/>
<path d="M4804 1482 c-178 -139 -298 -244 -470 -416 -203 -204 -354 -384 -489
-586 -81 -121 -162 -260 -152 -260 3 0 21 29 41 64 95 170 280 422 447 611
140 157 441 435 616 568 53 40 83 69 71 66 -2 0 -30 -21 -64 -47z"/>
<path d="M240 1328 c0 -55 4 -64 124 -265 68 -114 219 -370 334 -568 116 -198
215 -367 220 -375 7 -11 14 -12 29 -5 19 9 7 34 -194 375 -118 201 -225 383
-237 405 -57 100 -207 366 -239 425 l-37 65 0 -57z"/>
<path d="M4905 1080 c-96 -29 -131 -36 -137 -27 -5 8 -8 6 -8 -5 0 -24 2 -23
137 17 63 20 117 34 119 33 1 -2 -42 -49 -97 -105 l-100 -102 16 -38 c9 -21
55 -132 101 -248 46 -116 89 -218 95 -228 27 -48 -11 -14 -166 150 -93 98
-174 181 -181 186 -8 5 -56 -37 -142 -125 -72 -73 -140 -145 -152 -161 -28
-35 -43 -35 -24 0 40 75 154 327 149 331 -2 3 -9 -6 -14 -19 -5 -13 -31 -71
-59 -129 -94 -198 -112 -239 -112 -247 1 -4 78 73 173 171 l173 179 189 -202
c104 -111 191 -198 193 -193 1 5 -47 131 -108 280 -60 150 -110 277 -110 284
0 7 51 63 112 125 62 62 106 113 98 112 -8 0 -73 -18 -145 -39z"/>
</g>
</svg>
