<?xml version="1.0" standalone="no"?>
<!DOCTYPE svg PUBLIC "-//W3C//DTD SVG 20010904//EN"
 "http://www.w3.org/TR/2001/REC-SVG-20010904/DTD/svg10.dtd">
<svg version="1.0" xmlns="http://www.w3.org/2000/svg"
 width="600.000000pt" height="457.000000pt" viewBox="0 0 600.000000 457.000000"
 preserveAspectRatio="xMidYMid meet">
<metadata>
Created by potrace 1.16, written by Peter Selinger 2001-2019
</metadata>
<g transform="translate(0.000000,457.000000) scale(0.100000,-0.100000)"
fill="#000000" stroke="none">
<path d="M1655 4435 c-22 -19 -67 -48 -100 -63 -33 -16 -89 -52 -124 -80 -94
-76 -169 -80 -313 -15 -47 21 -61 23 -73 13 -8 -7 -15 -20 -15 -29 0 -9 31
-92 68 -185 l68 -170 -22 -76 c-61 -211 -55 -424 20 -650 21 -65 86 -298 86
-310 0 -5 -8 -10 -18 -10 -35 0 -158 -68 -235 -129 -212 -171 -374 -473 -394
-731 l-6 -85 -90 -113 c-248 -313 -426 -644 -444 -829 l-6 -62 57 -28 c31 -15
56 -32 56 -38 0 -20 -35 -110 -53 -135 -63 -90 43 -228 203 -261 52 -11 81 -8
155 16 15 5 24 -1 38 -24 44 -74 136 -92 244 -49 l61 25 22 -30 c31 -41 99
-68 173 -69 65 -1 157 23 177 47 9 11 23 8 81 -20 125 -60 250 -68 376 -26
l61 21 69 -33 c64 -30 75 -32 178 -32 112 0 136 7 206 56 12 9 24 6 55 -14 58
-39 155 -61 237 -54 68 6 163 41 199 74 17 15 23 15 81 -5 103 -35 146 -44
227 -44 94 0 157 24 211 83 l37 40 93 -15 c149 -24 416 -36 569 -25 425 30
677 162 805 422 59 120 75 202 85 432 9 188 17 236 58 343 60 156 204 287 353
321 65 15 254 13 334 -4 39 -8 100 -25 137 -37 55 -18 70 -19 82 -8 24 19 20
36 -31 124 -74 130 -131 205 -233 307 -178 179 -367 281 -795 428 -582 201
-859 360 -1159 666 -135 137 -355 419 -356 454 0 8 20 78 45 157 25 78 45 149
45 157 0 34 -32 36 -91 7 -75 -38 -171 -70 -211 -70 -27 0 -46 13 -112 76
-152 147 -336 261 -481 300 -96 25 -266 29 -355 9 -41 -10 -109 -19 -151 -21
-66 -3 -79 -1 -94 16 -25 28 -44 25 -90 -15z m126 -88 c116 -113 225 -158 384
-158 83 0 164 17 252 52 l52 21 78 -79 c161 -161 313 -200 513 -129 52 18 103
37 113 41 15 6 16 4 8 -16 -5 -13 -27 -78 -47 -144 -21 -66 -38 -121 -38 -122
-1 -1 -37 16 -81 38 -113 55 -227 95 -400 139 -327 83 -770 131 -1029 110
-214 -18 -326 -48 -371 -102 l-25 -29 -9 23 c-5 13 -27 70 -50 127 -22 58 -39
106 -38 108 2 2 30 -6 63 -18 112 -39 236 -24 339 42 55 35 174 128 194 152 7
10 15 17 16 17 1 0 35 -33 76 -73z m589 43 c86 -29 178 -79 269 -147 94 -70
226 -196 212 -201 -6 -2 -42 6 -80 17 -81 25 -164 82 -238 166 l-53 58 -93
-32 c-167 -57 -312 -57 -440 1 -89 41 -98 53 -51 68 46 15 150 8 217 -16 57
-19 76 -11 24 11 -88 37 -223 44 -277 15 -28 -15 -25 2 5 30 14 13 56 32 93
42 96 26 319 20 412 -12z m-825 -343 c-33 -17 -85 -57 -115 -87 -91 -89 -124
-181 -136 -373 -6 -104 -8 -114 -34 -142 -33 -36 -70 -106 -70 -135 0 -45 -17
-16 -28 50 -34 198 6 476 91 625 19 33 31 42 80 57 56 17 169 34 237 36 34 1
34 1 -25 -31z m327 1 c86 -46 161 -125 208 -222 42 -85 68 -181 119 -441 35
-182 61 -255 112 -310 22 -23 39 -46 39 -52 0 -5 -35 -30 -77 -56 -164 -98
-380 -142 -575 -118 -120 14 -247 56 -313 101 -99 68 -181 213 -179 320 0 61
18 102 68 158 32 36 33 40 40 152 15 257 84 372 285 472 47 23 69 27 135 28
69 0 85 -4 138 -32z m144 22 c351 -28 729 -117 959 -224 l91 -43 66 -99 c314
-472 529 -997 614 -1500 25 -144 25 -447 1 -576 -11 -54 -22 -100 -25 -102 -4
-2 -7 39 -7 92 0 77 -5 110 -24 162 -67 183 -241 350 -646 620 -220 146 -279
193 -309 244 -30 52 -125 135 -183 161 -41 18 -108 99 -163 198 -18 31 -40 63
-49 70 -57 41 -91 136 -137 379 -40 218 -76 336 -127 424 -38 64 -124 151
-175 178 -31 16 -40 26 -23 26 4 0 66 -5 137 -10z m1164 -383 c134 -200 372
-452 560 -591 238 -178 454 -283 895 -436 500 -174 668 -272 873 -509 59 -68
177 -249 169 -258 -2 -1 -48 9 -103 23 -72 19 -133 28 -225 31 -114 5 -133 3
-210 -21 -178 -54 -291 -162 -369 -355 -42 -102 -51 -159 -60 -371 -9 -212
-25 -290 -79 -399 -100 -198 -314 -326 -621 -372 -84 -13 -413 -22 -449 -12
-22 6 -22 6 8 19 30 13 71 66 71 92 0 8 -29 72 -65 143 -36 71 -65 133 -65
138 0 5 25 19 56 32 l56 24 -5 85 c-3 47 -16 128 -30 179 l-25 95 46 51 c73
81 124 194 159 356 24 114 24 406 -1 569 -71 461 -306 1051 -580 1455 -78 115
-78 115 -69 115 4 -1 33 -38 63 -83z m-1900 -662 c29 -46 108 -108 175 -136
30 -12 55 -26 55 -30 0 -12 -43 -19 -120 -19 l-76 0 -35 110 c-37 113 -37 136
1 75z m1124 -85 c20 -33 44 -67 53 -75 21 -22 14 -25 -31 -15 -22 5 -69 7
-105 5 -82 -5 -201 5 -201 16 0 5 6 9 13 9 18 0 146 64 187 94 19 14 38 25 41
26 3 0 23 -27 43 -60z m-714 -110 c59 -9 185 -7 290 4 l65 7 -30 -25 c-51 -44
-125 -66 -228 -67 -134 -2 -237 32 -250 82 -6 24 -5 24 153 -1z m489 9 c32 0
34 -2 17 -12 -82 -52 -117 -113 -117 -207 l-1 -60 -52 0 c-80 0 -182 -40 -271
-106 -23 -18 -34 -20 -49 -12 -10 6 -34 8 -52 5 -20 -3 -45 0 -61 8 -17 9 -32
11 -43 5 -13 -7 -26 0 -56 31 -21 22 -62 56 -91 75 l-51 34 14 52 c7 29 15 78
17 108 l3 55 58 6 c57 6 60 5 91 -25 64 -64 265 -91 385 -51 56 18 125 60 150
90 10 12 23 15 43 11 16 -3 46 -6 66 -7z m264 -14 c82 -21 146 -56 211 -116
86 -78 169 -260 212 -462 18 -86 18 -148 0 -234 -35 -164 -121 -290 -313 -454
-146 -125 -168 -138 -245 -146 -130 -12 -241 52 -281 163 -17 48 -17 50 8 139
42 152 122 373 144 401 78 100 57 321 -39 408 -38 34 -40 39 -40 95 0 71 12
106 48 144 65 69 177 93 295 62z m-1080 -12 c10 -6 4 -65 -15 -150 l-11 -53
-47 0 c-201 0 -328 -226 -197 -348 22 -21 24 -27 15 -59 -12 -43 -3 -81 25
-111 21 -23 22 -32 22 -209 l0 -185 -57 -53 c-92 -86 -176 -94 -313 -29 -47
22 -60 35 -81 75 -63 125 -71 326 -19 489 96 300 338 577 554 631 61 16 101
16 124 2z m-1 -244 c61 -31 148 -117 148 -145 0 -29 -1 -29 -48 -5 -43 22
-148 51 -183 51 -38 0 -8 -16 56 -30 90 -19 169 -56 161 -76 -3 -8 -6 -22 -6
-29 0 -7 -30 -26 -67 -41 -55 -23 -83 -28 -150 -29 -82 0 -104 -7 -60 -19 46
-12 110 -5 188 20 44 15 81 25 83 23 2 -2 6 -28 8 -57 l5 -52 -81 -40 c-188
-93 -320 -65 -288 61 11 42 10 44 -29 86 -35 39 -39 48 -39 97 0 143 175 250
302 185z m1693 -199 c302 -202 502 -377 574 -501 89 -154 94 -323 15 -500 -14
-31 -41 -71 -59 -89 l-34 -33 -17 44 c-10 24 -45 98 -79 164 -116 228 -251
413 -427 588 l-129 129 -10 61 c-8 52 -64 231 -94 302 -6 14 9 7 56 -26 35
-25 127 -88 204 -139z m-945 157 c37 -18 87 -124 95 -201 13 -116 -33 -223
-100 -240 -18 -5 -27 -15 -32 -37 -8 -42 -49 -72 -91 -65 -56 9 -124 49 -193
113 l-66 63 11 49 c6 27 14 52 17 55 3 3 39 -24 80 -62 90 -82 135 -115 151
-110 7 3 -8 18 -33 35 -24 17 -57 45 -74 63 -16 17 -51 47 -77 67 -41 29 -48
40 -48 68 0 31 2 34 51 45 29 7 80 10 115 7 73 -5 87 8 18 19 -43 6 -103 2
-166 -12 -24 -5 -28 -3 -28 14 0 33 99 97 195 128 52 16 143 17 175 1z m-518
-92 c10 -4 13 -34 13 -123 0 -64 -4 -123 -8 -129 -12 -19 -52 -15 -72 7 -15
17 -17 32 -12 107 7 129 24 159 79 138z m122 -21 c35 -35 9 -246 -32 -256 -9
-3 -26 -2 -36 2 -17 6 -19 19 -22 128 -3 106 -1 123 14 131 25 15 59 13 76 -5z
m-194 -252 c0 -5 -16 -39 -35 -78 -80 -156 -107 -285 -125 -576 -15 -246 -47
-383 -122 -516 -17 -28 -25 -52 -20 -52 5 0 61 18 125 40 63 22 116 40 119 40
3 0 11 -38 18 -85 l13 -85 189 -96 c105 -52 192 -93 195 -90 3 3 -6 38 -21 78
-61 171 -77 334 -56 588 28 358 7 585 -76 785 -4 11 19 -4 54 -36 150 -136
276 -153 312 -43 7 19 18 34 26 34 8 0 14 -2 14 -5 0 -2 -18 -55 -40 -117 -22
-62 -54 -160 -71 -219 -29 -102 -29 -109 -15 -144 15 -36 15 -38 -11 -69 -32
-38 -56 -93 -49 -112 3 -8 14 -14 25 -14 19 0 19 0 0 -37 -26 -50 -22 -89 8
-86 18 2 22 -3 25 -30 2 -24 8 -32 23 -32 11 0 27 -8 35 -18 13 -15 18 -16 42
-3 23 12 27 12 32 0 10 -26 39 -14 84 34 44 47 92 128 92 156 0 16 21 26 53
26 25 0 175 113 268 202 168 161 237 280 262 456 l12 82 107 -107 c173 -176
246 -270 368 -477 134 -226 227 -496 218 -631 l-3 -49 -90 -38 c-225 -96 -556
-189 -820 -232 -337 -54 -418 -60 -785 -60 -300 0 -368 3 -520 23 -334 43
-563 93 -815 176 -140 47 -372 142 -433 178 -30 18 -32 22 -26 56 25 141 128
355 277 576 98 146 239 319 247 304 4 -8 12 -39 19 -69 16 -73 58 -149 99
-177 31 -20 34 -27 38 -83 5 -65 35 -156 63 -192 16 -19 21 -20 35 -9 14 11
19 10 35 -10 17 -20 23 -22 39 -12 11 6 29 9 41 6 17 -4 23 1 32 26 9 25 14
29 25 20 28 -23 44 -3 44 55 0 47 3 54 16 49 35 -13 44 47 19 122 -16 45 -16
46 12 82 l28 36 0 181 0 181 55 1 c69 0 155 27 223 70 56 34 67 39 67 26z m66
-28 c-36 -93 -53 -443 -27 -557 13 -58 12 -59 -35 -195 -41 -118 -48 -151 -52
-237 l-4 -101 -106 -37 c-58 -20 -106 -36 -108 -34 -2 1 10 30 25 62 68 144
87 236 102 494 15 264 42 386 121 544 33 66 42 77 64 77 20 0 25 -4 20 -16z
m31 -211 c-5 -221 -20 -344 -40 -324 -19 19 -14 293 7 424 11 64 24 117 29
117 6 0 8 -82 4 -217z m101 154 c33 -95 60 -210 67 -279 3 -35 8 -81 11 -103
2 -22 -3 -163 -13 -314 -22 -353 -14 -438 64 -674 4 -13 -43 7 -165 70 l-171
88 -10 61 c-6 33 -11 111 -11 173 0 110 2 118 54 279 79 240 90 307 90 553 l1
207 31 0 c29 0 32 -4 52 -61z m-600 -506 c7 -21 12 -51 12 -67 l-1 -29 -24 27
c-13 16 -28 36 -34 45 -18 33 -23 4 -7 -43 17 -51 22 -134 7 -134 -5 0 -17 20
-28 45 -10 25 -22 45 -26 45 -5 0 -6 -24 -2 -52 11 -96 -25 -105 -46 -13 -7
30 -16 55 -21 55 -11 0 -10 -27 2 -69 5 -20 6 -40 1 -49 -7 -13 -13 -10 -30
18 -11 19 -23 47 -26 62 -12 52 -28 44 -20 -11 8 -58 -5 -68 -29 -23 -28 55
-58 202 -41 202 3 0 32 -7 65 -17 50 -14 68 -14 112 -4 29 6 67 20 83 31 17
11 33 20 36 20 3 0 11 -17 17 -39z m932 -76 c27 -50 138 -105 213 -105 27 0
29 -2 22 -27 -14 -57 -115 -186 -133 -169 -2 3 5 24 16 48 12 23 19 44 17 46
-2 3 -28 -19 -56 -49 -61 -64 -76 -52 -30 22 34 55 35 59 22 59 -5 0 -25 -22
-45 -50 -20 -27 -40 -50 -46 -50 -18 0 -10 44 15 88 29 51 20 53 -31 6 -28
-25 -40 -31 -42 -20 -4 19 29 84 64 125 35 42 24 50 -24 17 -47 -32 -55 -33
-47 -3 9 26 53 87 64 87 4 0 14 -11 21 -25z m-1763 -666 c356 -154 836 -266
1283 -298 157 -11 616 -6 775 9 179 16 522 75 675 115 144 38 429 132 445 146
5 5 12 9 15 9 3 0 37 -63 75 -140 67 -135 69 -142 55 -168 -8 -15 -35 -37 -60
-50 -41 -22 -54 -23 -155 -18 -60 2 -135 12 -165 20 -31 9 -56 12 -58 6 -8
-22 -49 -75 -72 -92 -14 -10 -51 -23 -82 -30 -71 -15 -177 1 -283 41 l-72 28
-29 -24 c-123 -101 -315 -102 -429 -2 l-36 32 -34 -36 c-45 -46 -93 -62 -190
-62 -66 1 -91 6 -140 28 -33 16 -67 35 -76 43 -14 13 -22 12 -70 -13 -49 -26
-63 -28 -164 -28 -118 0 -173 14 -246 62 l-37 24 -56 -31 c-125 -71 -279 -40
-299 60 l-6 29 -73 -36 c-129 -66 -204 -49 -249 55 l-19 44 -30 -26 c-73 -61
-211 -41 -296 43 -40 39 -46 72 -24 116 10 19 28 64 41 100 12 36 26 65 30 65
4 0 29 -9 56 -21z"/>
<path d="M1398 3624 c-32 -17 -54 -78 -44 -119 22 -86 131 -102 171 -25 37 72
-5 161 -77 160 -13 -1 -35 -7 -50 -16z"/>
<path d="M1807 3610 c-73 -58 -46 -196 44 -215 67 -15 127 58 116 140 -11 80
-100 122 -160 75z"/>
<path d="M4690 1698 c-78 -106 -98 -187 -111 -438 -5 -113 -16 -222 -25 -260
-32 -127 -98 -226 -193 -291 -28 -19 -51 -37 -51 -41 -1 -48 183 127 223 212
40 82 56 174 67 383 11 225 32 318 92 408 47 70 45 92 -2 27z"/>
</g>
</svg>
