<?xml version="1.0" standalone="no"?>
<!DOCTYPE svg PUBLIC "-//W3C//DTD SVG 20010904//EN"
 "http://www.w3.org/TR/2001/REC-SVG-20010904/DTD/svg10.dtd">
<svg version="1.0" xmlns="http://www.w3.org/2000/svg"
 width="1812.000000pt" height="1076.000000pt" viewBox="0 0 1812.000000 1076.000000"
 preserveAspectRatio="xMidYMid meet">
<metadata>
Created by potrace 1.16, written by Peter Selinger 2001-2019
</metadata>
<g transform="translate(0.000000,1076.000000) scale(0.100000,-0.100000)"
fill="#000000" stroke="none">
<path d="M14760 10739 c-48 -28 -72 -63 -78 -115 l-5 -44 -61 0 c-97 -1 -266
-26 -362 -56 -167 -50 -378 -167 -503 -279 -298 -266 -466 -600 -488 -971 l-6
-101 -56 -2 c-243 -9 -451 -90 -592 -230 -86 -87 -127 -160 -136 -244 -9 -84
2 -120 53 -176 93 -103 215 -136 486 -129 l178 4 0 -139 c0 -244 38 -407 146
-621 66 -132 137 -229 249 -342 146 -147 339 -268 505 -319 74 -22 84 -29 88
-52 5 -30 36 -55 105 -83 76 -31 90 -60 28 -60 -90 0 -225 -82 -266 -161 -12
-22 -23 -27 -69 -33 -146 -17 -390 -98 -676 -225 -125 -55 -136 -62 -149 -96
-19 -50 -6 -88 74 -209 l65 -99 -22 -36 c-12 -20 -25 -38 -28 -41 -4 -3 -30
-39 -58 -81 -48 -72 -202 -274 -266 -349 -128 -149 -330 -325 -471 -408 -136
-80 -339 -142 -467 -142 -44 0 -56 5 -97 39 -40 34 -163 116 -301 202 -54 34
-134 88 -159 109 -132 106 -188 179 -227 292 -26 76 -44 97 -118 135 -45 23
-48 26 -42 56 58 333 -6 567 -214 777 -67 68 -102 95 -165 126 l-79 39 -136 0
-135 -1 -209 -71 c-115 -40 -213 -70 -216 -68 -4 2 -8 35 -9 72 l-2 68 106 34
c206 65 398 185 556 348 102 103 124 131 198 242 113 170 189 347 240 556 40
164 53 287 49 464 -4 179 -2 181 89 184 106 3 141 -35 130 -146 -7 -67 -47
-175 -103 -275 -20 -35 -33 -66 -30 -69 3 -3 41 30 84 73 131 132 183 292 132
405 -17 36 -74 71 -149 90 l-66 17 -8 61 c-11 91 -59 212 -121 304 -57 86
-167 200 -173 180 -2 -6 24 -53 59 -105 80 -117 119 -187 147 -262 23 -62 29
-144 13 -186 -9 -25 -9 -24 -29 15 -12 22 -33 69 -48 105 -44 105 -144 300
-186 361 -21 32 -64 85 -95 119 -46 49 -55 64 -48 79 16 35 84 101 102 101 34
0 157 -82 224 -150 78 -79 152 -189 239 -354 34 -64 63 -115 65 -113 2 2 -2
38 -10 80 -45 232 -246 473 -461 552 -27 10 -51 20 -53 21 -2 1 6 19 17 40 35
65 46 137 32 207 -14 70 -64 153 -114 191 -34 26 -35 29 -39 110 -3 68 -9 91
-32 130 -74 126 -264 161 -483 87 -169 -56 -279 -133 -368 -255 l-20 -27 -51
21 c-50 21 -52 23 -68 83 -29 104 -106 230 -191 310 -57 54 -190 135 -280 169
-147 58 -243 73 -450 72 -162 -1 -190 -3 -279 -27 -220 -59 -386 -209 -516
-467 -54 -108 -95 -214 -182 -470 -82 -243 -142 -384 -215 -502 -125 -203
-306 -329 -547 -383 l-29 -6 29 -30 c73 -77 163 -103 336 -98 64 2 115 2 113
-1 -2 -3 -25 -16 -52 -29 -55 -27 -113 -68 -113 -80 0 -10 61 -36 115 -51 147
-38 354 31 567 190 141 104 169 119 147 78 -53 -99 -182 -194 -334 -246 -58
-20 -208 -62 -269 -76 -22 -6 -26 -10 -17 -19 8 -8 52 -12 134 -11 108 1 132
4 208 31 102 35 184 87 235 148 41 49 54 50 54 2 0 -31 22 -134 35 -168 5 -13
-5 -21 -44 -35 -62 -22 -120 -76 -152 -141 -34 -68 -34 -221 -2 -305 46 -118
122 -207 220 -255 52 -25 68 -28 149 -27 l91 2 31 -67 c56 -119 151 -250 272
-371 126 -126 235 -205 374 -270 85 -41 86 -41 86 -78 0 -69 -23 -204 -36
-209 -6 -2 -30 5 -53 16 -51 27 -85 27 -110 0 l-19 -21 -84 41 c-364 180 -831
7 -1015 -376 -83 -173 -93 -308 -42 -556 29 -137 31 -159 21 -224 -5 -40 -21
-97 -35 -125 -18 -39 -26 -77 -31 -146 -8 -107 -53 -298 -98 -410 -68 -169
-149 -296 -258 -402 -118 -116 -241 -170 -390 -170 -71 0 -84 -4 -210 -61
-164 -74 -204 -80 -283 -45 -235 106 -403 313 -483 595 -9 34 -22 61 -28 61
-39 0 -95 28 -136 66 -50 47 -85 111 -144 263 -102 264 -158 304 -442 315
-189 8 -204 11 -204 46 0 15 6 32 13 38 6 6 57 15 112 21 273 31 464 123 639
310 28 29 56 59 62 65 23 25 98 141 133 209 168 319 207 736 105 1107 -40 146
-132 330 -234 468 -21 29 -22 34 -9 58 26 49 93 117 134 135 50 23 87 24 127
3 82 -42 120 -115 126 -241 4 -86 2 -96 -26 -157 -18 -38 -50 -83 -76 -109
-50 -47 -58 -72 -26 -82 41 -13 163 93 208 180 38 74 43 202 12 288 -28 76
-67 135 -114 171 -133 101 -276 64 -385 -100 l-29 -45 -51 77 c-28 41 -51 78
-51 80 0 2 7 4 15 4 33 0 75 32 95 70 11 22 33 106 50 188 16 81 34 161 40
176 6 16 9 30 8 30 -2 1 -81 24 -175 50 -188 53 -190 55 -153 111 11 17 20 44
20 61 0 30 -5 33 -112 84 -132 62 -271 111 -418 148 -97 25 -121 27 -310 27
-160 0 -217 -4 -262 -16 -54 -16 -58 -16 -90 4 -42 25 -159 35 -214 17 -223
-71 -448 -328 -514 -587 -10 -38 -14 -43 -40 -43 -16 0 -59 -6 -97 -14 -286
-61 -553 -247 -730 -511 -54 -80 -85 -143 -121 -246 -38 -107 -51 -172 -62
-319 -20 -255 29 -479 129 -583 68 -72 146 -94 260 -74 l43 8 -8 -28 c-5 -15
-9 -73 -9 -128 0 -91 3 -105 29 -158 57 -111 153 -197 274 -244 55 -22 86 -27
169 -29 l102 -1 27 -34 c156 -193 300 -264 722 -355 19 -4 22 -11 22 -55 0
-51 0 -51 -28 -46 -107 21 -223 29 -362 24 -167 -6 -220 -17 -353 -71 -410
-168 -475 -191 -647 -230 -63 -14 -163 -28 -222 -32 -124 -8 -133 -13 -168
-104 -23 -59 -22 -106 4 -208 l14 -51 -177 -74 c-291 -123 -484 -186 -629
-204 l-74 -10 -56 40 c-167 115 -257 259 -353 562 -113 356 -139 436 -153 470
l-15 35 -86 0 c-143 0 -242 -44 -456 -204 -223 -167 -315 -209 -454 -209 -58
0 -106 6 -135 16 -24 9 -46 14 -48 12 -7 -6 35 -82 66 -121 15 -19 66 -69 114
-111 96 -83 101 -95 65 -154 -40 -65 -177 -197 -219 -211 -42 -14 102 -126
205 -159 125 -40 294 -9 449 82 47 28 184 117 203 131 42 34 153 112 215 153
41 27 87 57 102 67 15 10 32 18 37 18 6 0 18 -28 27 -62 10 -35 44 -139 75
-233 l58 -170 -25 -23 c-115 -108 -93 -350 40 -433 25 -17 44 -20 103 -16 60
3 82 10 124 35 28 18 54 32 59 32 9 0 20 -25 20 -45 0 -19 -82 -66 -142 -81
-61 -16 -100 -9 -133 24 -25 25 -25 25 -25 3 0 -46 25 -74 121 -138 84 -55
104 -90 102 -176 -4 -136 66 -205 148 -146 25 18 29 27 29 67 0 26 -14 85 -30
132 -97 273 32 403 485 494 309 61 379 78 454 105 47 17 85 30 85 28 11 -34
58 -106 87 -132 125 -113 348 -41 512 165 l28 35 -7 -35 c-12 -64 -55 -154
-120 -250 -115 -170 -180 -258 -233 -315 -28 -31 -51 -64 -51 -73 0 -57 82
-153 178 -208 79 -45 152 -95 152 -103 0 -4 -8 -16 -19 -25 -25 -22 -76 -136
-98 -216 -23 -88 -23 -327 1 -460 l18 -95 -39 -33 c-59 -52 -223 -127 -376
-171 -432 -126 -470 -167 -368 -399 46 -105 45 -112 -16 -159 -34 -26 -45 -28
-149 -33 -62 -3 -114 -7 -117 -10 -2 -3 -14 -23 -25 -45 -36 -72 -120 -140
-214 -175 -29 -11 -122 -38 -205 -61 -84 -23 -160 -47 -170 -54 -15 -11 -15
-20 0 -136 31 -229 75 -346 151 -403 43 -32 71 -40 143 -38 l63 2 0 -36 c0
-90 59 -243 131 -340 113 -153 253 -249 431 -295 67 -17 101 -20 183 -16 114
5 181 25 269 78 57 34 63 41 90 110 25 62 30 88 30 159 0 71 -5 95 -28 145
-15 32 -34 67 -42 77 -15 16 -18 14 -53 -23 -66 -68 -86 -42 -24 31 l37 43
-59 55 c-63 57 -170 142 -179 142 -3 0 -28 -16 -55 -35 -26 -19 -53 -35 -59
-35 -19 0 0 40 34 69 28 26 32 34 27 64 -4 25 3 49 26 95 17 34 31 70 31 81 0
20 113 121 136 121 6 0 45 -29 87 -65 94 -81 237 -172 283 -181 63 -12 284 78
494 200 58 33 110 64 115 68 6 4 53 40 105 80 204 155 399 385 495 584 64 132
113 284 127 397 l12 97 31 -5 c16 -2 62 -7 100 -10 118 -11 115 -9 115 -74 0
-113 52 -198 144 -236 68 -28 71 -31 79 -76 40 -209 145 -482 313 -817 68
-136 127 -253 132 -260 7 -10 36 -3 135 32 l127 45 15 -22 c23 -37 27 -97 11
-175 -25 -114 -22 -155 15 -196 17 -19 45 -41 63 -47 l33 -12 6 -156 c6 -172
24 -260 76 -376 l31 -68 193 6 c218 6 277 19 335 71 33 31 36 39 40 99 l4 65
117 -5 c140 -7 298 10 399 42 73 23 197 90 222 119 7 9 16 16 19 16 4 0 24
-26 45 -57 48 -74 134 -142 233 -184 73 -31 85 -33 198 -33 143 -1 210 16 273
69 95 82 135 248 97 406 -29 122 -68 171 -246 312 -53 42 -112 95 -132 118
-34 42 -35 44 -20 73 48 93 170 239 393 472 286 299 404 460 475 650 20 54 38
100 40 102 1 2 173 3 381 2 237 0 464 6 604 15 307 20 276 24 283 -33 3 -26
13 -81 22 -122 22 -95 24 -224 6 -270 -20 -51 -69 -99 -126 -126 -57 -27 -78
-29 -97 -11 -32 32 -69 49 -93 43 -32 -8 -32 -22 0 -30 34 -9 59 -49 51 -82
-16 -62 -93 -96 -128 -56 -29 33 -30 58 -3 90 14 16 25 33 25 36 0 13 -33 5
-60 -14 -91 -65 -40 -190 77 -190 55 0 93 19 162 82 29 27 70 57 91 68 20 10
63 40 95 66 l58 48 -7 -44 c-15 -96 -66 -153 -206 -234 -108 -62 -134 -83
-154 -124 -24 -50 -20 -66 25 -91 85 -48 144 -2 243 187 59 112 108 182 130
182 8 0 16 -19 20 -47 12 -88 86 -313 190 -576 57 -144 118 -301 134 -349 39
-110 89 -314 98 -398 7 -75 16 -92 79 -152 63 -58 134 -76 313 -77 199 -1 308
19 512 96 120 45 204 90 303 161 317 227 420 514 290 804 -28 64 -41 74 -118
94 -153 41 -373 -1 -605 -115 -81 -40 -186 -78 -194 -70 -2 2 -41 99 -86 214
-218 561 -254 697 -249 939 l2 119 -31 26 c-17 14 -43 35 -58 47 l-27 21 109
17 c227 37 440 100 614 182 115 55 170 88 278 172 63 48 82 68 77 81 -4 9 -18
45 -31 81 -14 36 -29 74 -34 85 -5 11 -25 61 -44 110 -161 423 -458 1012 -794
1575 -58 96 -107 179 -110 183 -2 5 15 -3 39 -17 24 -14 61 -35 82 -46 21 -11
97 -60 170 -109 313 -208 436 -281 550 -327 38 -16 73 -37 79 -48 6 -11 18
-82 28 -158 10 -77 22 -144 27 -149 6 -6 23 -4 46 6 66 27 128 20 219 -26 153
-77 145 -76 272 -23 181 76 279 130 335 186 63 62 85 103 101 185 12 61 13 62
74 99 33 21 66 42 71 46 6 4 64 47 130 94 115 83 221 165 294 229 104 90 251
230 276 260 15 20 30 34 32 32 2 -3 -14 -51 -35 -108 -61 -161 -71 -263 -32
-339 l21 -40 -24 -33 c-44 -58 -125 -221 -155 -312 -47 -140 -63 -227 -69
-395 -6 -182 8 -286 62 -448 19 -57 35 -105 35 -106 0 -2 -19 -11 -42 -20 -79
-31 -135 -100 -158 -194 -11 -49 -9 -128 6 -166 4 -10 -9 -21 -39 -34 -140
-62 -225 -231 -193 -379 6 -27 4 -32 -15 -38 -38 -12 -162 -146 -197 -213 -45
-85 -72 -180 -78 -282 -16 -240 116 -473 309 -545 26 -10 50 -21 52 -25 4 -6
-29 -86 -41 -99 -1 -1 -18 8 -36 22 -41 32 -102 46 -145 35 -40 -10 -63 -51
-63 -111 0 -40 -3 -45 -36 -61 -102 -48 -188 -137 -239 -248 -35 -75 -32 -110
19 -214 187 -383 649 -679 1098 -701 184 -9 315 16 453 85 78 39 170 108 225
170 47 53 50 59 50 112 0 69 -24 107 -119 189 -69 60 -91 94 -93 147 -1 19 -4
37 -8 39 -4 2 -28 -9 -54 -25 -53 -34 -64 -36 -91 -16 -19 13 -19 15 -1 54 26
57 17 75 -35 70 l-42 -3 -4 40 c-5 47 -42 131 -71 162 -38 39 -92 76 -174 119
-77 40 -80 42 -52 48 17 4 61 -2 104 -13 141 -35 154 -36 236 -6 81 30 132 76
169 154 15 30 36 51 80 78 33 20 62 39 65 43 3 3 25 21 50 40 54 41 128 115
191 190 221 264 355 659 377 1110 7 153 1 402 -13 511 l-7 56 59 16 c33 10 64
17 69 17 6 0 15 -43 22 -96 22 -177 74 -380 146 -577 223 -604 203 -529 183
-699 -27 -229 -21 -269 50 -334 35 -33 36 -35 25 -67 -46 -128 41 -232 255
-306 69 -23 216 -51 270 -51 l34 0 -3 -47 c-3 -41 -7 -48 -38 -66 -49 -26 -90
-67 -90 -89 0 -10 4 -18 8 -18 16 0 53 -80 58 -127 4 -32 -3 -86 -20 -162 -43
-190 -32 -282 43 -350 51 -45 187 -129 254 -155 160 -63 350 -89 552 -75 113
8 287 50 372 89 35 17 68 28 73 25 5 -3 12 0 15 6 4 6 18 8 31 5 16 -4 22 -2
19 6 -2 7 15 25 40 40 25 15 45 23 45 18 0 -6 8 -10 18 -10 14 0 15 2 2 10
-16 10 -11 16 101 107 90 74 181 240 205 376 16 86 11 214 -9 252 -25 48 -82
72 -189 80 -91 7 -122 18 -154 54 l-21 25 -36 -57 c-34 -53 -39 -57 -76 -57
-34 0 -39 3 -44 28 -5 27 -8 28 -64 27 -35 0 -70 6 -88 16 -16 9 -70 38 -120
65 -80 43 -97 49 -152 49 -48 0 -68 -5 -92 -23 -40 -29 -53 -28 -49 5 2 21 14
34 48 52 71 39 200 175 242 256 79 151 103 326 74 536 -34 256 -161 543 -330
749 l-46 54 1 146 c0 80 -5 179 -11 220 -65 447 -321 894 -663 1160 l-67 52
30 35 c45 51 79 108 108 182 24 61 26 79 26 221 1 163 -6 211 -59 386 -14 45
-25 84 -25 87 0 2 42 -11 93 -31 199 -75 323 -96 562 -96 267 1 454 31 775
126 185 55 625 215 710 258 102 52 167 208 157 376 -11 185 -106 272 -229 211
l-50 -25 6 40 c5 29 2 47 -10 66 -15 22 -21 24 -70 19 -64 -7 -151 -51 -213
-107 -24 -22 -45 -39 -45 -38 -1 2 -7 28 -13 58 -14 70 -47 126 -85 146 -40
21 -51 14 -72 -43 -97 -261 -196 -401 -324 -461 -53 -25 -71 -27 -267 -35
-243 -9 -338 -5 -453 23 -73 17 -182 62 -182 75 0 2 7 53 16 112 10 69 14 137
11 189 -6 81 -30 154 -52 154 -6 0 -74 -14 -151 -31 -185 -40 -346 -61 -416
-53 -49 6 -57 10 -63 31 -27 109 -153 196 -331 230 l-92 17 -7 50 c-8 62 -3
66 109 101 208 63 418 200 578 376 117 129 194 251 264 424 l32 80 64 12 c220
45 368 231 368 465 0 119 -27 196 -94 264 -72 73 -142 98 -252 91 -62 -5 -89
-11 -116 -29 -18 -13 -68 -41 -110 -62 -77 -40 -178 -125 -178 -151 0 -10 22
-2 73 25 161 87 312 123 418 101 58 -12 124 -45 159 -79 11 -12 15 -40 15
-121 0 -99 -2 -110 -29 -159 -48 -86 -150 -174 -268 -231 -57 -28 -133 -58
-170 -67 -71 -17 -85 -33 -44 -52 l24 -11 -14 -63 c-35 -151 -114 -288 -239
-414 -105 -106 -174 -155 -321 -230 -204 -104 -446 -172 -690 -194 -79 -8
-150 -21 -213 -41 l-93 -30 -24 22 c-12 12 -26 34 -29 50 -6 25 -15 31 -88 53
-103 32 -256 109 -339 172 -244 185 -436 480 -512 789 -32 130 -48 252 -44
344 l3 74 120 34 c501 142 652 198 843 315 87 53 206 153 264 220 44 51 49 54
117 66 39 6 78 12 85 12 8 0 25 -24 39 -52 31 -69 105 -165 170 -224 91 -83
292 -204 338 -204 9 0 27 -8 40 -19 21 -17 24 -29 29 -140 4 -72 11 -126 18
-133 12 -12 15 51 12 230 -4 201 -100 358 -328 532 -41 32 -57 50 -48 53 14 6
301 25 705 48 113 6 211 13 219 16 21 8 111 -92 140 -156 34 -74 35 -157 3
-220 l-23 -44 33 19 c81 48 99 167 41 280 -17 33 -47 75 -68 93 -33 29 -35 35
-25 57 6 14 11 36 11 50 0 34 -57 93 -111 115 -24 9 -43 23 -42 31 0 7 9 49
18 93 26 118 17 301 -20 415 -49 153 -119 265 -240 385 -110 110 -218 179
-353 226 -78 27 -184 49 -238 49 l-44 0 0 51 c0 96 -46 149 -127 149 -21 0
-54 -10 -73 -21z m114 -54 c47 -48 21 -135 -41 -135 -39 0 -63 27 -63 72 0 64
64 103 104 63z m221 -203 c85 -25 187 -71 269 -121 192 -116 342 -302 402
-499 19 -61 24 -100 24 -182 0 -113 -17 -185 -64 -278 l-25 -49 -133 -7 c-245
-12 -612 -36 -728 -46 -482 -43 -858 -84 -1280 -140 -80 -10 -148 -15 -152
-11 -29 27 -36 224 -13 355 55 315 280 630 585 819 111 68 236 124 341 151
130 34 112 33 424 30 249 -2 288 -4 350 -22z m-6250 -13 c319 -44 546 -193
671 -441 38 -76 42 -96 17 -104 -10 -3 -28 -11 -41 -17 -27 -13 -35 -6 -50 50
-17 57 -83 152 -147 211 -62 57 -188 122 -295 152 -165 47 -389 35 -557 -29
-82 -32 -214 -112 -195 -119 6 -2 71 17 144 42 175 59 236 70 403 70 256 0
423 -67 535 -212 31 -40 86 -169 76 -179 -10 -11 -44 10 -97 60 -63 59 -192
133 -296 170 -385 139 -865 -49 -1056 -412 -48 -90 -96 -236 -82 -249 4 -4 10
-1 12 6 3 7 18 37 33 65 15 29 48 92 74 142 57 108 82 143 154 213 76 74 145
118 249 157 278 105 621 58 856 -116 l57 -42 -32 -28 c-18 -16 -37 -28 -42
-29 -4 0 -31 12 -60 26 -167 85 -347 134 -499 135 -242 2 -391 -123 -433 -365
-22 -121 2 -286 56 -399 11 -22 20 -45 20 -49 0 -9 -219 -304 -273 -368 -72
-86 -197 -205 -257 -245 -108 -71 -192 -100 -324 -111 -72 -7 -78 -6 -75 11 5
23 120 111 224 171 134 78 207 130 279 201 58 58 126 151 126 175 0 4 -37 -30
-82 -76 -169 -168 -379 -267 -603 -282 -93 -6 -242 9 -259 26 -7 7 -6 10 3 10
7 0 43 12 79 26 216 86 392 274 531 566 66 138 101 242 137 403 61 278 99 381
178 484 170 221 518 345 841 300z m1584 -329 c83 -42 109 -115 95 -274 -12
-152 -10 -226 10 -264 16 -32 41 -50 52 -39 3 3 -2 40 -11 82 -13 59 -15 82
-6 101 10 23 12 24 38 10 54 -28 71 -53 78 -111 31 -244 -187 -426 -508 -425
-164 1 -295 45 -377 130 l-49 50 27 58 c21 46 27 76 30 153 4 86 1 102 -23
163 l-27 68 43 45 c113 117 315 225 489 263 61 13 100 11 139 -10z m-1579
-236 c189 -41 326 -95 390 -154 39 -35 42 -35 -85 -1 -192 51 -333 50 -471 -4
-111 -45 -154 -86 -139 -135 16 -50 173 -65 291 -29 81 25 184 75 184 89 0 12
-43 7 -203 -26 -123 -25 -187 -30 -187 -15 0 31 103 85 196 102 104 20 436
-13 456 -44 4 -7 8 -43 8 -80 0 -38 5 -101 11 -140 l11 -72 -148 -144 c-257
-248 -363 -311 -527 -311 -150 0 -211 58 -206 197 2 49 -2 66 -26 103 -130
206 -122 452 20 592 99 97 217 118 425 72z m812 -105 c57 -63 97 -184 84 -255
-9 -43 -66 -108 -120 -136 -57 -29 -151 -34 -196 -11 -54 28 -77 71 -85 159
-4 43 -13 94 -20 115 -8 20 -17 58 -20 82 -6 40 -4 47 15 57 12 6 42 12 67 12
39 0 51 -6 85 -39 42 -40 103 -153 114 -210 9 -50 24 -29 24 35 0 67 -24 124
-69 166 -36 35 -39 59 -9 80 18 13 25 13 57 0 20 -8 53 -32 73 -55z m-192
-499 c21 0 22 -3 15 -62 -11 -104 -54 -259 -92 -330 -34 -66 -102 -153 -103
-133 0 6 20 59 45 117 67 159 89 260 68 314 -4 12 -14 -14 -30 -76 -84 -343
-346 -600 -662 -651 -36 -5 -73 -17 -82 -25 -38 -34 -119 -254 -97 -262 15 -6
36 18 49 56 6 20 22 55 35 78 13 22 24 48 24 57 0 18 3 19 118 36 134 20 257
70 390 159 135 90 276 241 338 365 13 26 26 47 29 47 2 0 12 -14 20 -31 39
-74 159 -166 243 -184 39 -8 41 0 5 19 -65 33 -149 134 -193 230 -30 66 -70
195 -70 225 0 31 27 61 55 61 19 0 24 -7 29 -43 24 -162 261 -343 484 -370 59
-7 53 9 -15 39 -120 53 -222 104 -275 137 -120 77 -188 202 -144 263 15 19 16
18 81 -15 48 -25 105 -72 223 -185 175 -167 244 -212 342 -222 52 -5 54 -5 35
11 -11 9 -67 42 -124 73 -125 68 -246 181 -168 157 12 -3 81 -9 152 -12 145
-6 228 8 314 52 l49 25 51 -57 c377 -419 441 -1071 161 -1635 -85 -170 -214
-350 -320 -446 -200 -183 -403 -297 -625 -351 -168 -41 -190 -38 -225 29 -17
34 -20 35 -81 38 -84 4 -278 53 -382 96 -346 144 -607 407 -674 682 l-18 70
-85 -4 c-47 -2 -111 1 -143 8 -123 25 -237 107 -287 207 -32 63 -39 157 -15
204 35 69 84 117 153 151 62 31 74 33 167 33 82 0 108 -4 143 -21 23 -12 44
-19 46 -15 2 3 7 24 11 46 11 60 115 315 185 453 18 35 30 66 27 68 -17 17
-200 -292 -254 -428 -29 -74 -34 -77 -106 -57 -57 15 -113 71 -137 135 -25 68
-27 208 -4 298 27 107 114 249 185 304 15 11 21 6 45 -33 24 -38 99 -105 117
-105 3 0 18 -5 32 -10 l27 -10 -59 -58 c-77 -74 -101 -108 -156 -217 -59 -117
-74 -173 -55 -212 23 -49 39 -34 64 59 38 143 115 279 217 386 l41 42 94 0
c106 0 183 24 282 89 71 46 194 170 293 293 l78 97 48 -25 c27 -13 59 -24 71
-24z m4971 -177 c18 -18 -18 -122 -56 -158 -46 -44 -232 -155 -375 -223 -340
-163 -648 -235 -1000 -236 -273 -1 -419 26 -450 83 -5 11 -10 48 -10 83 0 183
183 341 465 403 175 38 175 38 263 20 45 -10 85 -21 87 -26 3 -4 -72 -47 -166
-95 -166 -85 -268 -149 -318 -202 l-25 -25 28 7 c67 17 365 172 451 235 85 62
129 88 158 95 15 4 27 3 27 0 0 -18 -54 -75 -97 -103 -76 -49 -83 -54 -130
-89 -24 -19 -42 -36 -40 -39 7 -7 153 67 218 110 31 20 77 55 101 76 49 44 69
49 303 81 154 22 545 24 566 3z m520 -97 c137 -118 211 -208 265 -321 19 -38
34 -75 34 -82 0 -14 -192 109 -298 192 -105 83 -204 219 -188 261 4 10 23 14
59 14 52 0 57 -2 128 -64z m-10626 -191 c14 -13 25 -26 25 -29 0 -2 -29 -20
-65 -40 -130 -71 -212 -132 -305 -226 -79 -78 -103 -110 -138 -182 -23 -47
-42 -94 -42 -105 0 -31 -13 -41 -39 -32 -21 8 -23 13 -17 51 28 171 201 389
421 530 106 67 123 71 160 33z m635 -71 c172 -27 380 -86 496 -141 74 -35 80
-44 63 -96 -18 -57 -48 -125 -57 -131 -5 -3 -42 4 -83 15 -281 74 -611 75
-879 3 -167 -45 -348 -133 -440 -215 -40 -35 -30 -31 56 23 119 74 391 155
602 178 67 8 178 11 279 8 180 -6 278 -24 390 -73 68 -31 69 -31 77 0 12 47
43 65 115 65 131 0 241 -85 224 -173 -10 -51 -25 -53 -131 -14 -145 53 -193
65 -347 88 -374 54 -712 9 -917 -123 -52 -32 -64 -54 -22 -38 48 19 229 62
319 76 129 21 420 29 538 15 92 -11 390 -82 432 -103 41 -21 75 -62 75 -90 0
-35 13 -35 -265 -2 -289 34 -617 42 -763 20 -101 -15 -217 -44 -209 -52 2 -2
64 1 138 7 210 18 580 2 814 -35 98 -15 101 -17 138 -58 48 -54 171 -238 229
-343 131 -240 217 -511 240 -762 36 -391 -105 -733 -389 -947 -53 -40 -57 -48
-65 -125 -4 -36 -42 -58 -148 -86 -355 -93 -791 -103 -1115 -26 -178 43 -412
146 -535 236 -32 24 -90 73 -128 110 -71 66 -71 66 -109 56 -55 -16 -181 -13
-241 4 -124 37 -204 146 -211 288 -3 75 -2 79 30 122 21 27 55 55 89 72 50 25
65 28 160 28 58 0 118 -4 133 -8 l28 -8 -7 88 c-6 93 6 236 32 361 29 142 126
422 145 422 5 0 9 -4 9 -8 0 -15 109 -90 141 -97 38 -8 47 -1 106 88 59 91
117 214 138 296 24 93 20 251 -6 251 -5 0 -11 -10 -13 -22 -31 -148 -88 -343
-116 -399 -12 -24 -36 -59 -53 -76 -25 -27 -38 -33 -71 -32 -56 0 -110 20
-114 42 -4 17 46 110 126 234 23 36 42 68 42 70 0 16 -138 -110 -190 -172 -37
-45 -107 -171 -135 -245 -13 -36 -37 -112 -52 -170 -25 -97 -27 -121 -27 -312
l-1 -208 -28 0 c-41 0 -82 33 -108 88 -21 41 -24 66 -27 192 -5 158 6 239 45
360 28 84 100 257 117 279 8 11 8 13 -2 7 -22 -13 -92 -114 -127 -184 -96
-189 -127 -418 -85 -622 24 -115 24 -110 3 -110 -9 0 -47 -18 -84 -40 -78 -46
-120 -58 -136 -38 -17 20 -90 209 -114 291 -30 109 -49 266 -49 427 0 160 -8
171 -42 53 -14 -47 -21 -111 -25 -208 -6 -168 10 -245 81 -400 55 -119 60
-170 20 -185 -75 -29 -121 -5 -169 91 -74 145 -105 274 -105 435 0 497 388
981 897 1119 l61 17 99 -37 c234 -88 252 -94 247 -81 -3 7 -38 30 -79 52 -41
21 -75 43 -75 48 0 14 70 136 103 181 101 133 284 276 430 335 195 78 344 92
587 54z m9974 -1845 c5 -14 5 -64 2 -111 l-8 -85 -113 -17 c-174 -28 -338 -21
-382 16 -9 7 -13 38 -13 87 l0 76 128 1 c110 1 142 5 237 31 61 17 117 30 125
29 8 0 19 -13 24 -27z m-5608 -174 c73 -25 143 -45 156 -45 14 0 36 -16 59
-42 34 -40 40 -43 85 -43 32 0 65 8 93 23 59 31 67 21 51 -61 -9 -47 -9 -70
-1 -85 15 -29 15 -29 -26 -51 -128 -64 -325 -84 -433 -42 -82 31 -133 63 -149
93 -13 22 -13 41 -2 135 14 126 21 163 28 163 3 0 65 -20 139 -45z m5905 -36
c82 -44 119 -96 119 -166 0 -48 -4 -58 -40 -97 -61 -66 -124 -90 -240 -91 -87
0 -101 3 -160 32 -36 17 -80 48 -99 67 l-34 35 -51 -46 c-132 -118 -298 -167
-444 -131 -56 13 -144 72 -166 109 -20 34 -21 111 -1 148 33 64 143 131 216
131 14 0 46 -11 71 -25 104 -58 273 -74 443 -41 126 24 184 45 197 70 24 48
36 54 84 45 25 -5 72 -23 105 -40z m-6581 -123 c186 -41 290 -121 290 -224 0
-26 5 -32 34 -42 18 -6 52 -31 74 -55 47 -52 83 -69 129 -60 20 4 33 2 33 -5
0 -5 9 -19 20 -30 34 -34 122 -21 158 22 9 12 0 13 -53 10 -64 -4 -65 -4 -82
27 -13 22 -23 29 -33 24 -8 -4 -32 -7 -54 -7 -42 0 -76 29 -76 65 0 14 -7 19
-26 19 -58 0 -94 52 -94 139 0 84 40 89 90 11 75 -117 247 -200 415 -200 151
0 333 75 418 172 40 45 58 58 80 58 72 0 91 -51 33 -91 -26 -18 -33 -29 -32
-53 1 -29 -3 -32 -54 -48 -30 -10 -62 -27 -72 -38 -9 -12 -28 -20 -46 -20 -16
0 -51 -12 -76 -26 -39 -22 -55 -25 -92 -20 -42 5 -44 4 -44 -19 0 -27 33 -55
67 -55 12 0 38 7 58 15 19 8 52 22 73 31 20 9 61 31 89 50 29 19 66 40 82 45
20 7 30 19 34 39 4 15 20 51 37 79 110 179 390 235 620 124 73 -35 157 -123
196 -203 74 -153 99 -293 92 -518 l-6 -154 -58 -60 c-58 -59 -131 -118 -209
-169 -61 -41 -165 -99 -175 -99 -5 0 -12 12 -15 28 -19 89 -29 120 -64 201
-21 49 -65 136 -96 193 -32 56 -74 131 -93 166 -81 149 -36 -18 57 -209 80
-167 92 -215 58 -247 -45 -42 -111 -41 -152 4 l-24 26 -33 -38 c-63 -72 -153
-86 -213 -33 -19 17 -35 26 -35 20 0 -20 -50 -60 -90 -72 -47 -14 -113 1 -130
29 -27 47 -28 48 -51 18 -28 -35 -92 -65 -140 -66 -42 0 -89 32 -89 61 0 23
-13 25 -30 3 -20 -23 -77 -44 -122 -44 -31 0 -46 6 -68 30 l-28 30 -53 -30
c-89 -49 -158 -36 -183 34 -4 13 -11 16 -24 11 -81 -36 -128 -47 -154 -36 -43
17 -35 43 42 132 72 83 87 112 75 148 -10 31 -19 26 -43 -24 -20 -42 -46 -65
-58 -53 -2 3 0 38 6 79 10 71 5 169 -9 169 -3 0 -16 -45 -29 -100 -56 -252
-163 -410 -276 -410 -55 0 -184 24 -336 61 -183 45 -183 45 -223 131 -49 102
-67 186 -67 307 0 343 240 666 560 756 64 17 187 14 290 -9z m8747 -38 c13
-26 16 -55 15 -129 -2 -86 1 -101 23 -141 20 -36 44 -139 45 -195 0 -22 16
-14 28 12 17 37 15 115 -5 192 l-16 66 49 43 c89 79 204 147 220 131 16 -16
-65 -122 -128 -168 l-38 -27 75 -111 c58 -87 76 -123 86 -171 6 -33 16 -60 20
-60 5 0 9 7 9 16 0 11 6 13 20 9 25 -8 62 12 134 73 54 47 101 70 114 58 12
-13 -25 -70 -87 -132 -55 -55 -85 -75 -179 -120 -130 -61 -169 -74 -234 -74
-26 0 -71 -10 -100 -21 -182 -73 -465 -152 -665 -186 -154 -26 -523 -26 -640
0 -135 30 -323 97 -323 115 0 5 18 26 41 47 51 51 123 159 166 252 l34 73 51
-26 c221 -112 482 -111 929 2 l145 38 -4 28 c-3 19 4 37 22 59 35 41 58 89 80
164 37 124 75 215 91 215 2 0 12 -15 22 -32z m-1398 13 c18 -11 16 -157 -4
-250 -27 -131 -107 -315 -205 -476 -82 -134 -82 -134 -60 -209 52 -184 75
-382 60 -520 -20 -176 -69 -307 -117 -314 -29 -4 -31 18 -16 143 27 226 35
492 29 915 -3 234 -9 466 -12 517 -7 108 -19 97 161 159 131 45 143 48 164 35z
m-2002 -58 c61 -182 244 -287 468 -268 91 8 192 45 254 94 l40 32 45 -35 c64
-49 108 -61 211 -60 97 0 181 21 273 68 l50 25 5 -37 c39 -248 59 -679 47
-997 -8 -207 -34 -563 -42 -571 -2 -1 -100 -19 -218 -40 -204 -36 -226 -38
-430 -39 -231 0 -264 5 -390 61 l-55 24 4 242 c8 547 -75 982 -265 1385 -47
101 -51 114 -36 123 24 14 32 12 39 -7z m3983 -70 c-1 -27 -113 -122 -198
-169 l-53 -29 -19 25 c-11 14 -20 28 -20 32 0 7 185 123 220 137 30 12 70 14
70 4z m-4306 -55 c19 -30 90 -250 115 -358 49 -203 63 -320 68 -562 6 -239 0
-331 -34 -523 -8 -49 -18 -93 -22 -97 -10 -12 -234 23 -252 39 -24 20 -41 99
-33 147 13 79 66 158 131 194 14 8 13 12 -1 40 -33 63 -16 119 71 244 22 32
46 77 52 100 11 38 10 50 -8 99 -12 30 -36 79 -56 109 -29 47 -35 51 -35 30 0
-14 9 -57 19 -95 11 -38 17 -73 14 -77 -12 -21 -241 204 -333 327 -70 93 -130
203 -130 237 0 13 5 29 12 36 25 25 43 12 67 -49 43 -111 244 -379 267 -356
11 10 -32 89 -77 141 -20 22 -43 55 -52 71 -8 17 -42 70 -76 119 -34 50 -61
93 -61 97 0 4 66 28 148 54 81 26 152 48 157 50 24 8 35 4 49 -17z m4342 -43
c3 -8 -2 -35 -12 -60 -13 -35 -41 -68 -113 -135 -53 -49 -99 -86 -103 -82 -4
4 -10 35 -14 70 -5 45 -3 62 5 62 19 0 112 63 166 113 55 51 63 54 71 32z
m-4030 -110 c-3 -13 -26 -53 -51 -90 -44 -64 -55 -95 -35 -95 17 0 53 44 79
95 13 26 27 43 31 38 5 -4 29 -89 54 -188 153 -615 164 -995 38 -1337 -29 -80
-40 -98 -56 -98 -38 0 -181 34 -189 44 -8 13 1 137 14 181 20 69 40 220 49
375 13 205 0 451 -38 757 l-28 222 48 57 c27 31 53 65 59 77 11 19 12 19 21 3
5 -10 7 -28 4 -41z m1614 -45 c0 -21 -15 -46 -60 -97 -33 -37 -60 -71 -60 -75
0 -23 40 -2 83 45 l49 52 -5 -455 c-6 -449 -15 -596 -52 -840 -8 -57 -15 -110
-15 -117 0 -8 -16 -21 -36 -29 -30 -12 -42 -13 -65 -3 -16 6 -29 13 -29 15 0
3 13 109 29 237 35 272 51 495 51 691 0 141 -16 406 -26 438 -3 11 18 42 63
92 37 41 69 76 71 76 1 0 2 -13 2 -30z m-2105 -464 l141 -145 -25 -43 c-87
-151 -334 -424 -491 -543 -36 -27 -69 -53 -75 -58 -78 -66 -371 -257 -393
-257 -7 0 -28 11 -47 25 -47 36 -138 66 -220 72 -67 5 -130 -2 -276 -28 -59
-11 -72 -11 -113 5 -37 14 -46 22 -46 41 0 29 21 42 115 71 39 12 88 29 110
37 22 8 96 20 163 26 140 12 124 3 292 150 287 251 522 513 665 743 17 27 36
48 44 48 8 0 78 -65 156 -144z m-2441 -156 c22 -8 26 -16 26 -48 0 -41 -16
-96 -34 -121 -38 -50 -115 -115 -197 -165 -52 -32 -114 -72 -139 -88 -59 -38
-87 -34 -122 17 -60 88 -48 116 70 170 69 32 166 94 222 142 80 68 126 103
137 103 6 0 23 -4 37 -10z m-9894 -49 c0 -32 87 -360 135 -511 86 -266 94
-294 125 -417 18 -67 30 -130 28 -139 -7 -38 -35 16 -90 172 -96 275 -150 464
-193 678 -16 77 -48 161 -66 172 -25 15 -5 -79 81 -386 27 -96 24 -109 -25
-128 -47 -18 -175 -100 -260 -166 -248 -194 -328 -243 -449 -276 -71 -20 -88
-21 -161 -12 -89 12 -165 37 -165 56 0 6 30 40 66 76 66 65 140 154 163 198
22 41 15 50 -149 192 -34 30 -68 58 -74 62 -22 15 4 18 48 7 99 -25 231 13
342 97 45 35 103 83 183 152 42 37 156 111 196 128 21 8 72 22 112 30 41 8 82
18 91 24 29 16 62 12 62 -9z m3572 -1 c212 0 212 0 206 -96 -5 -80 -46 -150
-103 -178 -94 -47 -272 -27 -336 36 l-31 32 6 85 c8 98 26 136 59 127 12 -3
102 -6 199 -6z m3258 -163 c128 -39 261 -63 390 -71 64 -4 88 -10 98 -23 16
-22 15 -34 -5 -63 -11 -15 -16 -39 -14 -65 l2 -40 -65 -18 c-118 -31 -297 -16
-431 38 -76 30 -187 90 -193 103 -8 21 16 113 39 151 23 38 8 39 179 -12z
m-3633 18 c12 -8 24 -28 28 -44 9 -43 70 -108 129 -138 68 -36 222 -44 312
-18 122 35 174 76 174 135 0 47 7 52 51 41 19 -5 46 -12 62 -15 15 -4 27 -12
27 -20 0 -21 -95 -161 -135 -199 -154 -145 -478 -131 -641 29 -62 60 -93 121
-94 181 0 59 40 81 87 48z m5834 -1 c23 -11 44 -14 85 -8 86 10 98 1 198 -159
495 -786 821 -1418 1066 -2066 27 -73 50 -138 50 -145 0 -17 -375 -199 -480
-232 -49 -15 -230 -57 -325 -74 -542 -98 -929 -138 -1457 -147 -640 -12 -1238
47 -1818 178 -97 21 -179 39 -183 39 -13 0 -7 36 22 146 81 303 254 790 381
1069 10 22 29 65 43 95 13 30 51 88 83 127 84 104 93 116 167 234 77 124 169
301 230 444 42 97 44 100 83 109 108 24 120 29 155 66 32 33 39 49 49 112 16
101 37 161 64 187 l23 21 44 -20 c50 -22 101 -25 148 -9 28 10 35 9 54 -9 37
-33 92 -46 144 -32 26 6 55 18 67 25 17 12 22 12 35 1 57 -49 167 -45 210 8
11 13 18 11 59 -15 67 -42 149 -35 213 18 26 22 34 24 48 15 65 -48 154 -55
215 -18 36 22 42 23 62 9 24 -16 97 -20 136 -7 13 4 39 17 58 30 41 28 34 28
71 8z m-5959 -76 c12 -97 70 -191 154 -249 176 -121 460 -113 661 18 76 50
157 142 179 203 22 61 41 74 97 65 55 -9 94 -34 150 -94 64 -69 104 -134 196
-322 74 -153 78 -165 63 -182 -23 -26 -133 -96 -244 -156 l-97 -52 -11 39 c-5
22 -17 88 -25 148 -9 59 -18 110 -22 113 -12 12 9 -239 32 -375 29 -168 62
-305 114 -463 43 -130 123 -336 153 -394 27 -54 17 -92 -30 -116 -74 -37 -273
-102 -428 -140 -435 -108 -856 -116 -1269 -25 -236 52 -506 164 -692 286 l-83
54 38 64 c21 36 95 155 165 266 126 200 217 371 253 472 15 43 25 56 51 67 41
17 127 104 152 153 21 42 36 112 24 112 -5 0 -23 -24 -41 -54 -17 -29 -49 -69
-69 -87 l-38 -33 -3 28 c-2 15 1 41 7 58 14 40 14 85 0 94 -18 11 -46 -34 -64
-106 -25 -97 -45 -139 -79 -162 -17 -12 -72 -53 -123 -91 -50 -38 -96 -66
-101 -63 -6 3 -21 34 -35 68 -14 35 -54 124 -90 199 -77 161 -133 306 -142
370 l-7 46 86 41 c194 93 480 186 731 238 87 18 138 22 245 21 l135 -2 7 -57z
m6895 40 c47 -20 248 -145 418 -258 166 -111 279 -182 308 -193 12 -4 17 -18
17 -44 0 -20 9 -55 20 -78 24 -49 56 -63 160 -72 63 -5 76 -3 113 18 36 20 55
24 127 23 97 -1 148 -20 213 -83 92 -86 109 -189 50 -286 -11 -17 -14 -18 -23
-5 -5 8 -14 40 -20 70 -30 148 -55 157 -55 21 -1 -97 -15 -132 -62 -154 -42
-19 -53 8 -53 134 0 59 -4 110 -9 113 -19 12 -31 -24 -39 -118 -10 -105 -22
-131 -48 -104 -13 12 -14 20 -5 36 15 29 14 78 -4 111 -15 30 -33 41 -65 41
-10 0 -28 13 -39 29 -60 83 -207 59 -272 -46 -15 -24 -19 -47 -18 -95 1 -74
-12 -122 -43 -155 -28 -30 -53 -29 -75 4 -14 20 -20 57 -24 148 -4 66 -10 127
-13 136 -4 8 -39 31 -79 50 -240 113 -550 318 -732 484 l-50 45 125 120 c68
66 130 120 137 120 6 0 25 -5 40 -12z m-3206 -278 c103 -36 202 -60 251 -60
20 0 40 -5 43 -11 13 -20 -197 -413 -308 -578 -65 -98 -187 -260 -229 -307
-18 -20 -54 -59 -80 -88 -26 -28 -48 -58 -48 -66 -2 -88 -22 -245 -34 -274
-18 -43 -53 -49 -85 -15 -21 23 -26 40 -36 132 -7 67 -10 67 -96 32 -70 -28
-157 -89 -249 -175 -68 -63 -102 -74 -119 -41 -18 32 15 106 77 173 13 14 22
32 20 38 -5 16 -82 -50 -131 -113 -89 -113 -165 -68 -82 49 66 92 34 102 -52
16 -71 -71 -101 -92 -130 -92 -58 0 -39 55 49 147 67 69 70 73 44 73 -20 0
-47 -19 -101 -70 -45 -43 -82 -70 -96 -70 -20 0 -21 4 -16 41 10 75 119 156
242 181 47 9 58 8 81 -7 74 -48 231 -59 325 -22 114 45 152 106 119 192 -11
30 -15 23 126 205 152 195 283 417 359 605 54 135 54 135 63 135 5 0 47 -13
93 -30z m-4970 -75 c22 -77 32 -101 139 -325 89 -185 133 -301 146 -376 6 -39
5 -41 -30 -58 -81 -39 -146 11 -221 168 -29 61 -56 121 -60 134 -3 12 -11 22
-17 22 -19 0 1 -81 41 -159 98 -196 107 -223 71 -214 -22 6 -71 66 -162 198
-122 177 -186 355 -175 490 7 79 20 132 41 160 13 18 18 18 58 8 35 -10 47 -9
63 2 11 8 35 13 54 12 33 -2 35 -5 52 -62z m10774 -239 c46 -14 46 -9 5 -141
-15 -49 -30 -109 -33 -131 -4 -39 -3 -42 28 -57 39 -19 154 -35 288 -40 94 -4
98 -3 117 21 11 13 26 47 35 76 8 28 22 77 31 109 9 31 19 57 23 57 3 0 28 -7
55 -15 215 -65 608 -65 911 1 39 8 87 18 108 21 l38 6 -6 -84 c-9 -119 -5
-124 102 -105 93 16 158 48 179 88 8 15 14 50 14 78 0 47 1 50 26 50 28 0 138
-87 229 -183 347 -359 529 -787 513 -1202 -5 -133 -10 -148 -74 -217 -24 -26
-44 -52 -44 -58 0 -31 115 12 143 54 10 15 35 -19 101 -139 200 -365 267 -705
197 -985 -40 -155 -66 -190 -215 -279 -222 -132 -566 -183 -806 -120 -89 24
-222 88 -267 129 -50 46 -44 75 34 163 41 46 38 53 -51 95 -105 50 -120 92
-57 153 39 36 39 37 20 55 -27 24 -24 53 7 64 14 6 58 10 97 11 l72 1 -42 13
c-52 17 -142 61 -165 82 -10 9 -18 24 -18 35 0 25 39 24 90 -2 62 -32 66 -24
13 28 -27 26 -67 74 -89 106 -37 57 -39 63 -39 141 0 78 -1 83 -42 145 -116
179 -172 363 -218 717 -13 101 -27 188 -31 194 -10 16 -147 6 -209 -16 -27
-10 -62 -26 -77 -37 l-28 -19 0 -337 c0 -433 -24 -711 -71 -817 -50 -113 -173
-297 -303 -455 -97 -117 -145 -169 -343 -369 l-173 -173 -87 6 c-425 33 -668
120 -872 310 -68 65 -83 109 -89 263 -4 121 -2 139 22 225 15 51 44 124 64
161 35 65 105 157 120 157 4 0 23 -16 43 -34 41 -39 98 -76 117 -76 21 0 13
21 -34 83 -112 150 -129 251 -50 302 20 13 24 24 24 61 -2 112 97 112 235 0
32 -26 57 -41 57 -34 0 8 -16 61 -36 119 -46 136 -51 235 -14 291 14 20 37 44
53 53 27 16 29 16 48 -1 10 -9 19 -21 19 -27 0 -18 65 -142 89 -169 25 -29 57
-38 48 -15 -20 52 -73 239 -106 373 -69 279 -76 327 -76 554 0 196 1 209 29
305 42 145 86 229 184 353 38 46 61 51 137 28z m-7837 -68 c32 -32 -14 -135
-98 -218 -33 -33 -57 -60 -54 -60 9 0 103 69 147 108 45 39 90 42 95 5 6 -39
-116 -201 -209 -279 -50 -41 -150 -90 -205 -99 l-41 -6 -12 58 c-7 32 -28 103
-47 157 -19 55 -34 102 -34 106 0 3 33 21 73 38 39 18 130 70 201 117 127 84
160 97 184 73z m-3213 -63 c49 -128 85 -227 85 -236 0 -15 -130 -75 -220 -102
-81 -24 -173 -42 -450 -87 -187 -31 -189 -32 -235 -96 -50 -71 -68 -80 -99
-57 -18 13 -23 25 -19 44 3 16 -1 32 -10 41 -10 10 -15 32 -14 64 2 48 1 49
-40 69 -37 18 -42 24 -43 54 0 27 -9 43 -44 77 -35 33 -49 57 -65 109 -12 37
-21 76 -21 86 0 27 24 13 107 -62 36 -33 85 -71 108 -85 l42 -24 99 20 c160
33 344 90 684 214 52 19 99 34 104 33 5 -2 19 -30 31 -62z m9393 -82 c7 -48
-93 -173 -138 -173 -15 0 -20 7 -20 29 0 46 14 72 66 124 52 52 87 60 92 20z
m1884 -8 c65 -6 110 -30 106 -58 -3 -21 -8 -22 -73 -19 -93 4 -173 19 -202 37
-19 13 -21 19 -13 35 11 21 9 21 182 5z m-1782 -110 c0 -20 -6 -50 -13 -68
-30 -70 -153 -147 -195 -120 -29 18 -27 76 4 112 50 60 126 110 167 110 36 1
37 0 37 -34z m-10653 -51 c29 -6 57 -47 48 -72 -11 -37 -104 -43 -172 -12 -49
22 -54 42 -21 77 19 20 28 22 72 17 28 -3 61 -7 73 -10z m4595 -87 c153 -116
300 -200 420 -240 l47 -16 58 35 c32 19 94 47 138 61 70 23 96 26 210 26 145
-1 220 -16 243 -51 13 -19 12 -23 -13 -46 -15 -14 -51 -30 -82 -37 -48 -11
-70 -10 -178 10 -67 12 -140 22 -161 23 -78 1 -220 -59 -271 -114 -35 -38 -63
-101 -63 -141 0 -31 7 -45 39 -76 21 -21 42 -47 45 -59 9 -26 64 -52 110 -52
22 0 49 -9 67 -22 21 -16 45 -23 82 -23 29 -1 59 -5 66 -9 7 -5 59 -8 116 -7
87 1 106 -2 126 -18 l24 -19 -60 -18 c-72 -22 -206 -24 -285 -5 -126 30 -284
132 -334 216 -14 24 -42 40 -139 79 -105 43 -586 276 -626 304 -10 8 5 21 65
56 83 47 211 145 241 183 10 13 21 23 25 23 3 0 44 -28 90 -63z m-4463 -66
c20 -13 -2 -64 -36 -87 -38 -25 -129 -29 -196 -10 -50 14 -57 20 -57 41 0 18
10 31 33 45 26 17 50 20 137 20 58 0 111 -4 119 -9z m41 -108 c-1 -47 -71 -86
-183 -103 -90 -13 -110 -9 -105 22 3 18 15 24 88 39 47 9 105 26 130 38 57 25
70 26 70 4z m3897 -54 c15 -7 42 -18 60 -25 17 -8 34 -14 38 -14 13 0 303
-150 330 -170 6 -5 89 -54 185 -110 368 -215 554 -289 781 -312 l118 -12 44
40 c24 21 71 60 105 86 39 31 65 59 73 82 l13 35 18 -30 c15 -25 62 -62 93
-72 5 -2 -12 -62 -37 -133 -85 -234 -131 -430 -163 -680 l-7 -52 49 -15 c138
-43 237 -68 506 -127 96 -21 97 -22 97 -51 0 -93 -95 -199 -212 -238 -52 -17
-140 -16 -176 3 -42 22 -78 68 -86 110 -8 43 -45 66 -105 66 -31 0 -44 -6 -60
-26 -41 -52 -19 -107 50 -133 19 -7 71 -30 117 -52 45 -21 95 -39 110 -40 67
-1 63 -15 -10 -32 -155 -36 -229 -32 -295 19 -40 30 -80 31 -124 1 -90 -61
-75 -182 26 -201 60 -12 103 3 137 45 37 46 67 56 190 61 l86 4 -50 -55 c-81
-91 -181 -250 -284 -454 -53 -106 -104 -200 -113 -209 -9 -9 -37 -20 -63 -23
-44 -7 -48 -5 -48 13 0 35 -11 52 -35 52 -27 0 -49 -24 -64 -70 -11 -34 -44
-66 -72 -70 -34 -5 -40 0 -38 33 4 39 -6 57 -31 57 -28 0 -50 -40 -60 -111 -5
-34 -16 -69 -25 -78 -14 -14 -21 -10 -78 52 -52 56 -68 67 -95 67 -31 0 -34 4
-77 96 -25 52 -45 98 -45 102 1 7 23 24 178 130 51 35 121 91 157 125 l64 62
-28 95 c-16 52 -50 167 -76 255 -66 225 -132 387 -203 499 -30 46 -31 51 -25
130 5 74 3 84 -18 115 -21 30 -34 37 -97 52 -249 62 -512 197 -662 341 -89 85
-89 82 -33 114 53 31 110 80 124 105 9 18 -18 104 -64 209 -32 73 -127 325
-127 339 0 14 3 14 37 0z m-3899 -271 c7 -7 12 -18 12 -26 0 -7 14 -47 30 -89
17 -41 30 -87 30 -103 0 -32 -24 -62 -44 -54 -16 6 -76 177 -76 214 0 61 21
85 48 58z m3935 -575 c41 -26 135 -88 208 -138 159 -107 289 -175 384 -200
102 -28 113 -50 70 -143 -14 -30 -25 -56 -25 -59 0 -3 18 -3 41 0 38 5 41 3
75 -41 104 -141 202 -403 279 -748 3 -16 -7 -31 -43 -61 -263 -220 -595 -422
-968 -591 -170 -76 -145 -85 -219 71 -75 158 -114 252 -162 397 -38 115 -98
356 -108 435 -7 60 4 76 89 125 31 17 56 32 56 33 0 1 -42 2 -92 2 -51 0 -114
6 -140 14 -59 17 -125 72 -136 114 -8 30 -6 50 12 118 7 24 5 26 -71 43 -43
10 -104 30 -135 45 -67 30 -67 30 -42 156 8 44 16 108 16 142 1 61 -16 123
-33 123 -5 0 -15 -24 -23 -52 -8 -29 -29 -105 -46 -168 -18 -63 -88 -284 -156
-490 l-124 -375 -78 -69 c-42 -38 -116 -105 -163 -150 -246 -233 -401 -351
-571 -437 -74 -37 -216 -89 -244 -89 -33 0 -179 113 -279 214 -151 154 -281
356 -385 598 -28 64 -31 80 -20 93 28 34 136 88 279 140 82 30 173 64 201 75
69 27 79 26 96 -15 24 -59 19 -112 -16 -146 -55 -55 -120 -19 -99 54 5 17 7
32 5 34 -8 8 -104 -22 -158 -48 -62 -31 -76 -45 -60 -61 7 -7 21 -2 45 16 37
28 92 35 120 14 23 -18 67 -79 67 -95 0 -7 -24 -28 -52 -46 -49 -32 -99 -77
-85 -77 4 0 21 9 39 20 23 14 51 20 89 20 48 0 59 -4 87 -31 55 -54 38 -119
-43 -169 -37 -23 -45 -44 -19 -54 11 -4 38 14 81 54 36 33 70 60 76 60 6 0 25
-11 44 -26 49 -37 47 -90 -8 -174 -22 -34 -38 -64 -36 -66 8 -8 60 17 95 46
20 17 41 30 47 30 6 0 31 -20 55 -45 l44 -44 -63 -61 c-60 -59 -71 -87 -28
-74 12 3 35 20 52 36 29 29 30 30 107 23 51 -5 78 -4 78 3 0 6 -4 12 -10 14
-31 11 -6 103 40 141 57 48 108 48 149 1 21 -24 37 -34 48 -30 13 5 9 13 -21
43 -41 41 -46 74 -20 129 16 33 88 104 106 104 5 0 23 -13 41 -30 37 -35 78
-51 98 -40 10 7 3 19 -29 50 -49 46 -63 92 -39 125 13 17 25 20 79 17 35 -1
71 -5 81 -8 30 -9 19 19 -19 51 l-36 31 15 37 c19 44 51 49 99 16 45 -32 46
-14 1 38 -51 61 -72 64 -106 19 -15 -19 -27 -39 -27 -45 0 -27 -26 -18 -73 26
-66 62 -107 80 -144 64 -25 -11 -42 -29 -87 -95 -12 -17 -15 -16 -52 21 -21
22 -56 61 -77 86 -43 53 -57 58 -57 22 0 -14 -6 -40 -14 -58 -14 -34 -97 -117
-117 -117 -11 0 -41 28 -133 128 -26 29 -50 51 -53 48 -10 -9 38 -84 91 -144
31 -34 56 -67 56 -72 0 -5 -15 -19 -32 -32 -34 -23 -78 -60 -110 -90 -10 -10
-21 -18 -25 -18 -13 1 -47 33 -71 67 -38 53 -28 96 25 114 l36 11 -7 127 c-7
143 1 174 46 179 24 3 33 -5 63 -53 20 -31 42 -54 48 -52 24 8 19 99 -12 200
-44 143 -55 215 -48 342 4 77 12 131 29 180 23 69 23 70 57 68 92 -4 149 -64
138 -144 -20 -136 -23 -139 -119 -139 -37 0 -68 -4 -68 -9 0 -14 28 -21 90
-21 32 0 61 -4 65 -9 3 -5 6 -48 8 -96 2 -79 0 -88 -21 -105 l-22 -19 24 -24
c14 -14 28 -37 32 -51 7 -29 24 -35 24 -8 1 36 48 72 95 72 35 0 82 -25 96
-51 11 -22 11 -22 33 4 25 31 64 47 111 47 37 0 85 -18 85 -32 0 -4 5 -8 10
-8 6 0 10 14 10 30 0 60 45 116 115 146 30 12 68 16 153 15 169 -1 141 29 -47
50 -131 15 -263 8 -316 -17 l-40 -18 62 -5 c69 -7 75 -10 79 -47 4 -33 -35
-74 -73 -75 -37 -2 -127 2 -131 6 -2 2 -3 33 -3 70 0 81 13 100 77 108 69 7
81 27 17 27 -83 0 -92 21 -77 168 7 60 8 62 40 68 48 9 99 -3 130 -29 23 -20
27 -33 33 -108 5 -64 9 -84 21 -84 19 0 28 36 29 121 1 65 3 72 24 78 36 9 64
7 106 -10 48 -19 61 -49 61 -146 0 -61 2 -69 18 -66 9 2 15 11 13 19 -11 42
-4 109 15 130 48 53 111 63 151 23 23 -23 25 -31 19 -72 -16 -114 -18 -142 -9
-142 23 0 69 198 58 250 -10 44 -30 56 -61 35 -29 -19 -90 -16 -174 10 -25 8
-112 16 -195 19 -159 5 -212 15 -259 49 l-29 20 -16 -21 c-11 -14 -32 -23 -66
-27 -46 -6 -53 -4 -78 20 -15 15 -27 34 -27 41 0 29 -21 23 -37 -11 l-17 -36
-56 6 c-102 11 -130 17 -130 26 0 21 50 106 78 132 l29 28 84 -20 c176 -43
314 -69 524 -97 184 -26 640 -26 810 -1 156 24 322 61 426 96 l84 29 62 -34
c34 -18 95 -55 136 -81z m-1865 -139 c23 -7 23 -8 16 -108 -3 -55 -11 -107
-17 -114 -9 -11 -29 -12 -87 -7 -41 4 -78 10 -81 13 -6 7 4 122 16 190 l6 32
62 0 c34 0 72 -3 85 -6z m-10 -283 c13 -1 16 -69 6 -133 l-6 -37 -79 -3 c-65
-2 -79 0 -80 12 0 8 -2 31 -4 50 -1 19 0 55 2 80 l5 46 71 -8 c40 -4 78 -7 85
-7z m6817 -290 c11 -46 21 -56 68 -66 39 -8 43 -29 17 -85 -40 -85 -113 -130
-275 -168 -118 -28 -265 -56 -268 -51 -10 14 -47 246 -47 296 l0 60 128 12
c70 7 172 21 227 31 136 24 137 24 150 -29z m-2421 -1 c66 -11 177 -27 246
-35 167 -21 170 -22 170 -51 0 -13 -19 -66 -42 -116 -28 -64 -43 -113 -48
-158 -6 -63 -22 -107 -44 -122 -17 -12 -61 -9 -73 3 -14 14 -44 4 -41 -12 2
-6 -2 -13 -8 -16 -19 -7 -157 70 -275 153 l-111 78 6 45 c15 107 44 195 78
239 13 15 -2 16 142 -8z m-4236 -264 c29 -15 122 -109 122 -123 0 -5 -22 -30
-49 -57 -59 -58 -72 -56 -135 16 l-45 51 35 54 c19 29 34 58 34 63 0 13 6 13
38 -4z m-227 -58 c27 -29 49 -58 49 -63 0 -6 -31 -41 -68 -78 l-69 -68 -52 60
-53 61 47 47 c26 25 54 57 62 70 8 12 20 23 25 23 6 0 32 -24 59 -52z m4231
-44 c83 -53 184 -112 227 -130 125 -56 126 -57 129 -90 4 -38 -44 -94 -80 -94
-42 0 -191 41 -243 67 -73 37 -168 106 -197 145 -33 43 -58 93 -58 115 0 15
56 83 68 83 3 0 72 -43 154 -96z m2737 32 c7 -8 11 -27 9 -43 -3 -24 -16 -34
-105 -79 -101 -51 -179 -77 -343 -115 -121 -28 -138 -17 -130 81 3 33 9 36
120 61 229 51 298 69 340 88 53 24 93 27 109 7z m-3443 -44 c19 -24 17 -82 -3
-104 -20 -22 -70 -23 -95 -1 -25 23 -24 83 3 112 17 18 28 22 52 17 16 -3 36
-14 43 -24z m-3376 -98 c28 -26 50 -52 50 -58 0 -6 -32 -43 -70 -81 l-71 -70
-49 52 c-28 28 -50 57 -50 65 0 19 109 138 126 138 8 0 37 -21 64 -46z m-349
3 c14 -12 38 -39 54 -61 l29 -39 -82 -78 c-46 -44 -86 -79 -91 -79 -9 0 -83
86 -98 115 -13 23 8 53 67 97 19 14 44 35 55 46 26 27 35 27 66 -1z m4187 -62
c42 -55 135 -134 196 -166 34 -18 133 -59 200 -83 15 -5 16 -9 6 -21 -20 -24
-57 -18 -155 29 -111 52 -142 73 -232 153 -83 74 -102 104 -82 127 19 21 24
18 67 -39z m3056 19 c3 -9 6 -22 6 -29 0 -17 -187 -112 -310 -158 -93 -34
-215 -65 -224 -56 -2 2 -7 20 -11 40 l-7 37 79 17 c119 26 311 92 378 129 70
39 81 42 89 20z m-3103 -135 c88 -84 228 -179 310 -211 33 -13 59 -26 59 -31
0 -4 -17 -26 -38 -49 l-38 -41 -50 17 c-108 36 -272 144 -359 237 l-46 49 38
50 c21 27 41 49 44 50 3 0 39 -32 80 -71z m-3972 -15 c28 -30 51 -59 51 -64 0
-9 -149 -150 -159 -150 -7 1 -46 36 -85 78 l-29 31 79 80 c43 44 82 80 85 80
4 1 30 -24 58 -55z m7123 5 c34 -88 36 -85 -140 -171 -176 -86 -279 -121 -342
-116 -41 3 -43 5 -56 48 -23 75 -19 88 24 95 148 25 325 90 422 156 30 20 60
36 65 35 6 -2 18 -23 27 -47z m-3318 -94 c41 -63 217 -191 364 -264 29 -15 40
-26 35 -34 -26 -42 -89 -117 -98 -117 -22 0 -153 70 -220 118 -91 64 -185 150
-185 169 0 8 16 42 35 74 19 33 35 64 35 70 0 17 18 9 34 -16z m-5168 -21 c14
-4 24 -17 28 -36 18 -91 86 -191 237 -352 82 -87 93 -105 80 -140 -32 -82
-202 -43 -320 74 -83 82 -125 170 -130 272 -3 69 0 85 24 133 27 55 36 61 81
49z m8552 -77 c6 -21 15 -56 18 -77 l6 -39 -124 -59 c-148 -71 -284 -126 -351
-143 -40 -10 -51 -9 -62 2 -12 13 -55 128 -55 148 0 5 34 14 75 20 41 6 103
20 137 32 65 23 231 103 283 138 41 27 58 22 73 -22z m-1040 -53 c29 -20 31
-85 2 -114 -22 -22 -69 -27 -88 -8 -19 19 -14 82 9 112 23 30 45 33 77 10z
m3328 -30 c27 -9 54 -20 59 -24 6 -4 63 -25 128 -45 71 -23 117 -42 117 -50 0
-27 -40 -105 -54 -105 -39 0 -332 94 -353 114 -10 9 -8 24 9 69 11 31 26 57
33 57 6 0 34 -7 61 -16z m-5717 -97 c78 -70 178 -137 251 -168 30 -12 56 -23
58 -24 1 -1 -23 -41 -55 -89 l-57 -88 -24 48 c-49 96 -186 197 -287 211 l-47
6 6 43 c3 24 17 67 31 95 30 58 20 61 124 -34z m8971 39 c0 -7 3 -34 6 -59 l6
-45 -58 -13 c-70 -16 -328 -19 -343 -4 -6 6 -13 27 -16 47 -7 44 -9 44 140 53
55 3 127 12 160 19 81 18 105 19 105 2z m-3524 -37 c75 -60 188 -106 374 -155
58 -14 108 -28 112 -30 5 -3 -15 -55 -27 -72 -1 -1 -45 7 -98 18 -192 42 -320
98 -401 176 -48 47 -50 52 -40 78 9 24 37 19 80 -15z m-1961 -28 c7 -15 17
-51 21 -78 6 -47 5 -51 -18 -59 -13 -5 -80 -39 -150 -77 -141 -75 -231 -112
-299 -122 l-46 -7 -29 83 -30 84 115 28 c116 28 293 104 371 160 39 28 44 27
65 -12z m-8825 10 c0 -49 93 -207 152 -256 100 -85 229 -142 338 -150 30 -2
56 -8 58 -13 1 -5 -21 -29 -50 -52 -70 -57 -98 -90 -98 -117 0 -52 49 -41 123
27 60 54 71 58 99 33 30 -27 21 -57 -37 -122 -73 -82 -85 -131 -32 -131 24 0
61 30 103 85 38 51 60 60 90 40 32 -21 31 -61 -2 -106 -39 -52 -56 -99 -43
-115 19 -24 56 -16 81 16 69 90 65 87 82 65 26 -34 46 -120 46 -197 l0 -73
-61 -39 c-124 -80 -283 -105 -433 -66 -143 36 -214 77 -317 180 -115 115 -176
276 -162 429 l6 74 -64 -6 c-35 -4 -92 -9 -125 -13 l-62 -7 -19 44 c-11 24
-25 67 -32 94 -24 94 -61 268 -61 285 0 38 229 108 358 109 55 1 62 -1 62 -18z
m14650 -22 c19 -10 60 -41 90 -69 30 -28 72 -63 93 -77 20 -14 37 -30 37 -35
0 -5 -8 -38 -17 -73 -13 -51 -14 -69 -5 -89 19 -42 47 -33 71 23 11 27 21 55
21 62 0 6 5 29 11 49 11 36 14 38 62 44 29 4 54 3 60 -3 6 -6 4 -33 -7 -77
-14 -54 -15 -73 -5 -96 14 -34 29 -35 56 -5 25 27 63 127 63 167 0 24 6 30 36
40 47 16 128 6 154 -17 45 -43 61 -128 39 -206 -13 -47 -24 -40 -24 16 0 26
-5 42 -12 42 -6 0 -34 -29 -61 -65 -271 -358 -837 -509 -1354 -361 -77 22 -92
11 -20 -14 26 -10 59 -22 75 -27 27 -10 32 -23 21 -52 -9 -24 -43 -19 -101 14
-140 80 -208 325 -117 423 46 50 68 57 230 77 164 20 239 34 286 52 25 9 32 6
72 -29 58 -51 138 -78 211 -70 60 6 118 32 112 50 -4 13 -20 13 -108 2 -46 -6
-62 -4 -95 14 -54 29 -69 41 -86 76 -49 97 -18 186 82 229 39 17 77 13 130
-15z m-10575 -184 c22 -44 50 -97 63 -118 12 -21 22 -40 22 -42 0 -3 -58 -25
-66 -25 -3 0 -97 157 -119 199 -17 34 -17 35 5 53 13 11 30 18 39 16 9 -2 34
-39 56 -83z m6624 40 c55 -93 65 -240 24 -348 -18 -48 -18 -49 2 -63 28 -21
38 -14 60 47 29 80 28 236 -3 303 -12 27 -22 50 -22 52 0 2 30 -8 68 -22 116
-44 148 -54 264 -79 62 -14 123 -27 136 -30 15 -4 22 -13 22 -30 0 -94 114
-245 185 -245 28 0 16 27 -49 109 -35 44 -70 97 -76 116 -23 70 16 147 93 184
78 38 132 23 179 -51 21 -33 90 -253 91 -290 0 -27 1 -26 51 22 68 66 95 67
61 1 -8 -16 -38 -49 -66 -75 -85 -76 -108 -81 -74 -16 9 17 11 30 6 30 -26 0
-141 210 -141 259 0 10 -7 25 -16 32 -14 11 -18 10 -30 -6 -39 -53 -4 -136 96
-227 38 -34 70 -68 70 -75 0 -6 -22 -27 -49 -46 -53 -38 -70 -69 -51 -92 23
-27 64 -17 124 30 43 33 67 45 93 45 56 0 55 -26 -4 -79 -28 -25 -53 -54 -56
-64 -9 -26 28 -60 56 -51 27 8 83 52 120 94 24 27 33 30 60 24 96 -20 199
-121 181 -177 -18 -57 -120 -146 -186 -162 -24 -6 -28 -4 -28 13 0 16 8 23 35
28 75 14 36 19 -143 20 -311 1 -540 49 -775 163 -191 92 -345 214 -451 354
-16 20 -32 37 -36 37 -4 0 -10 -13 -13 -30 -9 -40 -50 -51 -80 -21 -18 17 -22
33 -22 80 0 51 4 64 31 97 30 38 209 172 231 173 6 1 20 -15 32 -34z m3626 8
c7 -21 -6 -43 -29 -48 -44 -10 -204 -37 -280 -47 -87 -12 -206 2 -226 27 -16
19 -3 53 25 68 34 17 503 17 510 0z m-9332 -38 c13 -91 85 -200 108 -163 12
18 11 63 -2 118 -5 24 -7 55 -4 69 6 23 8 24 73 18 96 -8 160 -33 211 -81 59
-56 72 -91 72 -195 2 -268 -224 -500 -571 -587 -92 -23 -118 -25 -215 -21 -73
4 -130 13 -169 26 -33 12 -64 21 -69 21 -6 0 -8 -46 -3 -130 4 -72 3 -130 -2
-130 -4 0 -89 -13 -187 -30 -98 -17 -198 -30 -221 -30 l-42 0 -21 62 c-26 81
-38 162 -46 326 -6 109 -4 132 7 132 43 0 321 102 384 140 38 24 81 49 96 57
36 19 79 72 118 144 31 59 76 119 89 119 4 0 7 -18 8 -39 2 -40 26 -100 47
-113 40 -27 77 27 57 83 -14 40 -14 114 -1 140 11 20 60 49 82 49 9 0 18 -24
26 -71 11 -66 41 -141 60 -153 15 -9 52 24 52 46 0 12 -9 57 -21 100 -12 43
-19 85 -15 93 5 15 59 44 82 45 6 0 14 -20 17 -45z m4582 10 c30 -29 32 -73 6
-131 -21 -46 -82 -100 -123 -109 -15 -4 -28 -11 -28 -16 0 -5 -6 -9 -14 -9 -9
0 -21 22 -31 53 -10 28 -28 72 -42 97 l-24 44 23 18 c13 9 48 31 78 47 70 39
121 41 155 6z m252 -1 c69 -52 85 -145 49 -284 -46 -179 -165 -342 -333 -458
-107 -74 -304 -150 -460 -177 -166 -29 -431 -15 -495 27 -32 21 -77 106 -84
160 l-6 44 123 0 c107 -1 139 3 229 28 58 16 136 42 173 57 89 37 281 99 306
99 27 0 60 45 67 90 8 47 11 51 59 75 100 49 194 143 215 214 10 36 -5 109
-28 134 -17 19 -15 19 70 16 69 -3 92 -8 115 -25z m-5852 -124 c51 -96 54
-106 38 -117 -28 -21 -42 -15 -64 30 -12 23 -40 73 -62 111 l-41 69 24 19 c30
25 34 21 105 -112z m4919 73 c23 -68 21 -76 -32 -120 -103 -87 -265 -171 -380
-197 l-64 -15 -23 54 c-13 29 -25 66 -27 81 -3 26 -1 28 72 44 132 29 261 85
360 159 30 22 60 40 67 41 6 0 18 -21 27 -47z m-4456 -15 c7 -7 12 -35 12 -63
0 -128 -177 -307 -358 -362 -76 -23 -211 -23 -278 0 -63 22 -83 51 -65 95 11
27 17 30 83 36 104 10 153 23 253 72 103 49 207 124 262 189 38 45 68 56 91
33z m4821 -53 c28 -41 47 -113 56 -210 9 -97 2 -125 -31 -125 -13 0 -26 6 -28
13 -2 6 -22 72 -45 145 -27 86 -41 153 -41 188 l0 54 33 -16 c18 -9 43 -31 56
-49z m-130 -94 c17 -33 51 -169 51 -204 0 -8 -8 -17 -17 -20 -10 -3 -74 -29
-143 -57 -126 -52 -299 -101 -355 -99 l-30 0 35 16 c200 92 235 114 367 230
102 90 54 74 -136 -46 -139 -88 -284 -166 -339 -182 -36 -10 -45 -10 -56 2
-14 15 -56 115 -56 133 0 6 42 21 92 33 120 29 259 99 335 168 l60 54 24 -24
24 -24 55 34 c30 18 58 31 62 29 5 -3 17 -22 27 -43z m-3337 -110 c60 -24 127
-123 128 -190 0 -27 -8 -42 -40 -71 -71 -66 -181 -74 -320 -25 -44 16 -87 56
-96 91 -7 29 12 64 36 64 10 0 53 24 95 53 128 87 150 96 197 78z m259 -253
c55 -107 5 -268 -106 -345 -75 -51 -238 -56 -336 -11 -83 39 -230 156 -257
205 l-23 42 37 50 c20 28 38 51 41 51 3 0 27 -22 53 -49 75 -79 178 -110 304
-92 105 15 193 85 211 167 13 58 14 58 36 38 12 -11 30 -36 40 -56z"/>
<path d="M14600 10385 c-15 -16 -42 -28 -79 -35 -75 -15 -98 -25 -112 -51
l-11 -22 76 7 c44 4 76 3 76 -2 0 -22 -74 -119 -107 -140 -57 -38 -163 -68
-163 -47 0 3 14 30 31 61 17 30 29 57 27 60 -3 2 -37 -30 -76 -71 -65 -70
-152 -212 -152 -249 0 -19 -42 -54 -78 -67 -38 -13 -37 -35 2 -32 32 2 32 -8
2 -74 -26 -55 -80 -102 -142 -125 -54 -19 -40 -31 27 -23 57 7 61 6 56 -11 -3
-11 -9 -36 -13 -57 -8 -46 -31 -63 -100 -72 -28 -3 -65 -15 -83 -26 -33 -20
-43 -50 -13 -43 9 2 91 15 182 28 91 14 253 39 360 55 107 16 293 42 413 57
186 23 222 25 243 13 22 -11 29 -10 56 6 45 26 178 34 197 12 11 -14 16 -14
34 -3 12 8 52 16 90 19 71 5 97 18 97 47 0 25 -25 32 -87 24 -29 -3 -53 -3
-53 2 0 5 7 28 16 51 14 35 21 43 43 43 40 0 124 25 128 37 5 14 -50 33 -98
33 -22 0 -39 2 -39 5 0 14 30 117 39 134 6 11 21 21 33 23 30 4 30 30 1 43
-13 5 -23 17 -23 27 0 29 -19 30 -43 3 -20 -24 -31 -27 -110 -32 -87 -6 -87
-6 -87 18 0 13 9 51 19 84 l19 60 43 3 c42 3 69 16 69 32 0 21 -109 33 -252
27 -169 -7 -167 -8 -125 73 20 42 25 45 65 48 51 4 55 22 8 47 -29 16 -45 17
-117 10 -133 -13 -242 -12 -247 3 -6 18 -16 15 -42 -13z m290 -55 c0 -14 -40
-114 -50 -123 -9 -10 -210 -46 -257 -47 -18 0 -33 4 -33 9 0 18 51 119 67 133
31 26 273 52 273 28z m250 -188 c0 -27 -40 -139 -53 -150 -15 -11 -267 -25
-267 -15 0 14 53 148 62 158 8 9 100 19 211 23 39 2 47 -1 47 -16z m-330 -19
c0 -5 -12 -42 -27 -84 l-27 -76 -122 -17 c-67 -9 -136 -16 -154 -16 -30 0 -31
1 -25 33 6 27 50 125 58 128 1 0 52 9 112 19 122 19 185 24 185 13z m-388 -84
c-5 -51 -44 -129 -66 -134 -105 -22 -189 -36 -193 -31 -8 7 14 57 47 110 25
38 33 44 74 50 26 4 64 13 84 21 47 17 58 14 54 -16z m908 -105 c0 -3 -10 -39
-21 -79 l-22 -73 -94 -7 c-52 -4 -96 -5 -100 -2 -3 3 3 40 13 81 l19 75 55 4
c106 7 150 7 150 1z m-268 -40 c-2 -16 -11 -51 -20 -79 l-17 -50 -128 -9 c-71
-4 -131 -5 -135 -2 -7 8 24 136 36 148 7 7 234 27 257 23 6 -1 8 -15 7 -31z
m-338 -11 c4 -9 -3 -44 -16 -78 l-22 -62 -144 -17 c-79 -10 -146 -16 -148 -13
-4 4 24 145 29 148 4 2 253 36 273 38 12 0 25 -6 28 -16z m-369 -42 c7 -12
-11 -97 -26 -127 -9 -18 -24 -23 -78 -28 -37 -4 -93 -13 -124 -20 l-58 -14 7
32 c4 17 16 53 29 81 l21 50 95 16 c117 21 126 21 134 10z m905 -140 c0 -10
-5 -32 -11 -49 -12 -35 -29 -41 -134 -45 l-60 -2 -3 32 c-7 67 13 79 141 82
59 1 67 -1 67 -18z m-257 -24 c-1 -15 -8 -39 -15 -54 -13 -27 -17 -28 -108
-35 -52 -4 -110 -9 -129 -12 l-33 -5 4 50 c3 28 10 55 16 61 11 11 163 26 232
24 31 -2 35 -5 33 -29z m-328 1 c3 -7 -1 -35 -8 -63 l-13 -50 -102 -17 c-56
-9 -126 -18 -155 -20 -52 -3 -52 -3 -49 25 2 16 9 45 16 65 l13 37 139 16 c76
9 143 17 147 18 4 0 10 -5 12 -11z m-368 -60 c-3 -13 -9 -40 -12 -60 -4 -21
-12 -41 -19 -46 -15 -12 -254 -47 -263 -39 -4 4 2 35 13 70 l20 62 81 12 c44
6 89 13 99 16 11 3 34 5 53 6 30 1 33 -1 28 -21z"/>
<path d="M15191 10337 c-9 -11 4 -21 64 -51 190 -94 351 -338 372 -563 3 -35
9 -63 13 -63 15 0 30 81 30 156 -1 235 -183 473 -400 523 -59 14 -65 13 -79
-2z"/>
<path d="M14145 10238 c-202 -103 -362 -269 -479 -498 -93 -182 -156 -429
-112 -446 25 -10 43 12 56 69 60 252 231 519 517 805 51 52 93 96 93 98 0 8
-17 2 -75 -28z"/>
<path d="M8022 9334 c-97 -196 -185 -322 -272 -393 -57 -45 -69 -66 -52 -83
15 -15 106 38 167 97 89 85 151 191 225 380 34 89 50 175 31 175 -6 0 -50 -79
-99 -176z"/>
<path d="M10050 9964 c-57 -31 -187 -151 -175 -162 2 -3 23 12 47 31 77 63
163 100 245 105 115 7 94 -19 -82 -104 -106 -51 -165 -85 -165 -96 0 -8 70 0
130 14 109 26 260 135 260 187 0 11 -12 29 -26 40 -22 17 -41 21 -98 21 -62
-1 -80 -6 -136 -36z"/>
<path d="M9904 9645 c-11 -7 -16 -17 -12 -20 15 -15 315 -18 365 -5 l47 14
-29 12 c-44 18 -346 18 -371 -1z"/>
<path d="M9904 9539 c-11 -19 39 -57 99 -74 57 -16 211 -24 224 -11 20 19 -30
36 -232 76 -33 7 -65 15 -71 17 -7 2 -15 -1 -20 -8z"/>
<path d="M8389 9613 c-5 -153 10 -204 100 -338 60 -90 75 -134 67 -192 l-6
-45 32 19 c37 21 52 66 45 130 -6 55 -34 106 -108 200 -72 91 -109 163 -109
215 0 50 -20 60 -21 11z"/>
<path d="M9130 9589 c-98 -39 -161 -72 -236 -125 -59 -42 -144 -127 -144 -146
0 -13 127 54 285 152 80 50 148 90 151 90 15 0 64 43 59 51 -10 15 -36 10
-115 -22z"/>
<path d="M9147 9462 c-74 -50 -168 -133 -207 -183 -28 -35 -30 -39 -12 -39 21
0 193 127 282 209 l55 50 -31 1 c-20 0 -51 -13 -87 -38z"/>
<path d="M10494 9115 c55 -96 194 -300 220 -324 33 -31 33 -18 -1 61 -49 117
-136 233 -216 290 l-32 23 29 -50z"/>
<path d="M8977 8846 c-42 -51 -120 -134 -172 -185 -52 -50 -95 -93 -95 -95 0
-8 88 16 127 35 77 37 188 177 232 291 7 19 7 29 -3 37 -9 8 -31 -12 -89 -83z"/>
<path d="M10175 8803 c-89 -57 -122 -103 -105 -148 8 -20 16 -25 45 -25 76 0
195 80 195 131 0 11 -7 31 -16 44 -21 33 -66 32 -119 -2z"/>
<path d="M10425 8506 c-116 -37 -205 -119 -205 -191 0 -14 4 -25 9 -25 6 0 37
25 69 55 33 30 61 55 63 55 2 0 4 -24 4 -53 1 -59 20 -93 68 -121 41 -23 69
-20 115 14 49 35 72 75 72 125 0 40 5 42 40 15 50 -39 108 -13 76 34 -55 86
-198 128 -311 92z"/>
<path d="M9057 8416 c-136 -49 -222 -119 -253 -204 -14 -40 -18 -75 -8 -85 4
-3 43 32 88 79 44 46 87 84 94 84 8 0 12 -15 12 -44 0 -80 61 -141 133 -132
77 9 112 67 104 169 l-6 70 42 -7 c121 -18 137 -19 137 -6 0 39 -99 86 -201
94 -63 6 -84 3 -142 -18z"/>
<path d="M10330 8185 c0 -99 159 -128 240 -43 42 43 40 64 -2 41 -46 -24 -164
-25 -201 0 -32 21 -37 21 -37 2z"/>
<path d="M9870 8151 c0 -25 9 -50 25 -72 13 -19 32 -44 40 -56 24 -31 12 -56
-61 -134 -35 -38 -64 -72 -64 -77 0 -21 39 -42 79 -42 80 0 166 69 189 151 18
66 1 100 -63 130 -16 8 -44 34 -62 59 -67 93 -83 101 -83 41z"/>
<path d="M8106 8081 c-76 -50 -72 -152 6 -222 49 -43 101 -55 154 -34 51 19
60 41 13 31 -100 -20 -182 113 -111 183 15 15 34 30 42 34 13 5 13 7 0 16 -24
17 -72 13 -104 -8z"/>
<path d="M8960 8079 c0 -31 51 -76 101 -89 58 -16 133 1 171 37 35 33 37 58 6
49 -101 -29 -181 -26 -248 9 -29 15 -30 15 -30 -6z"/>
<path d="M10570 7977 c-14 -7 -33 -29 -44 -50 -15 -32 -16 -42 -6 -68 16 -38
42 -51 85 -43 48 9 75 45 75 100 0 65 -49 92 -110 61z"/>
<path d="M8765 7738 c-15 -14 -28 -38 -32 -60 -4 -31 -1 -41 22 -63 22 -23 32
-26 63 -21 46 7 72 37 72 85 0 42 -7 54 -37 70 -33 17 -59 13 -88 -11z"/>
<path d="M9321 7559 c-16 -15 -21 -30 -19 -52 3 -30 6 -32 48 -35 36 -3 51
-10 82 -42 132 -135 353 -153 591 -49 155 68 218 124 190 168 -18 29 -37 22
-93 -30 -30 -28 -75 -61 -100 -74 -143 -72 -327 -80 -454 -20 -59 28 -77 43
-129 108 -44 53 -78 61 -116 26z"/>
<path d="M9490 7281 c-27 -51 -3 -141 46 -175 47 -32 70 -29 131 23 62 51 117
110 109 118 -2 2 -38 -12 -79 -32 -97 -47 -118 -45 -134 17 -6 26 -14 52 -18
58 -10 17 -44 11 -55 -9z"/>
<path d="M14189 9027 c-68 -64 -156 -123 -312 -207 -64 -35 -116 -65 -114 -66
2 -2 34 6 72 17 161 48 302 127 393 219 51 52 62 82 32 87 -8 1 -40 -21 -71
-50z"/>
<path d="M13946 9031 c-13 -20 -202 -125 -301 -166 -59 -25 -166 -64 -238 -86
-73 -23 -157 -50 -187 -60 l-55 -18 96 0 c205 -2 416 66 567 183 53 40 132
123 140 147 5 12 -15 12 -22 0z"/>
<path d="M12785 8900 c-65 -38 -89 -59 -114 -101 -50 -81 -9 -159 113 -215 80
-37 218 -44 332 -19 192 43 166 61 -106 75 -174 9 -219 19 -255 58 -37 39 -33
79 12 133 21 24 40 46 43 49 21 21 41 50 34 50 -5 0 -31 -14 -59 -30z"/>
<path d="M4695 8594 c-76 -12 -226 -47 -285 -66 -139 -45 -343 -159 -394 -219
-33 -38 -67 -109 -60 -121 3 -5 26 9 52 31 220 182 505 287 846 311 168 12
332 2 481 -31 102 -22 108 -22 100 -10 -9 16 -160 58 -285 81 -111 20 -385 35
-455 24z"/>
<path d="M3571 8119 c-55 -33 -243 -223 -312 -316 -66 -87 -159 -261 -159
-297 0 -32 21 -15 67 57 42 65 69 105 136 192 76 100 202 224 326 319 34 26
60 50 57 53 -14 14 -88 9 -115 -8z"/>
<path d="M3709 8068 c-34 -37 -163 -197 -195 -243 -32 -47 -94 -162 -94 -176
0 -7 11 3 25 22 13 19 28 39 32 44 114 143 176 217 238 283 65 70 74 83 58 88
-10 4 -21 9 -26 11 -4 2 -21 -11 -38 -29z"/>
<path d="M4286 7858 c-7 -89 -48 -207 -110 -316 -49 -87 -34 -108 32 -43 80
79 133 212 131 331 -1 70 -11 104 -30 108 -13 2 -17 -13 -23 -80z"/>
<path d="M4948 7816 c-82 -72 -73 -186 15 -186 37 0 129 50 151 82 17 24 21
66 8 84 -33 48 -129 59 -174 20z"/>
<path d="M5356 7646 c-80 -34 -145 -79 -183 -130 -27 -35 -33 -52 -33 -93 0
-27 3 -52 6 -56 4 -3 18 11 33 32 46 67 56 78 79 90 21 11 22 10 22 -36 0 -77
43 -127 116 -138 48 -7 81 9 111 54 30 45 31 122 2 170 -11 18 -18 35 -15 38
2 2 21 0 43 -6 80 -23 102 -8 64 41 -21 26 -66 43 -141 52 -35 5 -59 1 -104
-18z"/>
<path d="M3230 7398 c-38 -86 -49 -132 -60 -249 -16 -188 27 -481 67 -456 4 3
5 40 1 84 -28 310 -21 459 28 594 28 78 29 89 8 89 -9 0 -26 -25 -44 -62z"/>
<path d="M3086 7144 c-9 -67 -7 -188 4 -265 19 -130 70 -253 94 -228 3 3 -1
28 -8 55 -27 90 -47 220 -54 349 -7 135 -24 175 -36 89z"/>
<path d="M5754 7081 c-83 -35 -92 -189 -13 -221 83 -35 170 62 139 154 -6 18
-19 41 -29 50 -22 20 -70 28 -97 17z"/>
<path d="M4171 7052 c-99 -48 -193 -162 -219 -265 -18 -71 -13 -187 8 -187 10
0 28 43 35 87 8 47 27 103 35 103 3 0 15 -15 27 -34 38 -58 122 -83 182 -52
71 37 68 168 -5 231 -13 11 -24 23 -24 27 0 3 32 14 70 23 64 16 70 19 70 42
0 58 -87 70 -179 25z"/>
<path d="M5000 7031 c0 -32 31 -68 85 -96 19 -11 35 -26 35 -34 0 -8 -16 -38
-36 -68 -52 -79 -76 -151 -63 -196 10 -36 45 -67 75 -67 25 0 80 66 113 135
20 41 31 83 36 135 l6 75 -77 39 c-42 22 -97 55 -121 73 -24 18 -45 33 -48 33
-3 0 -5 -13 -5 -29z"/>
<path d="M5444 6529 c-127 -192 -297 -302 -465 -302 -96 0 -139 15 -161 53
-15 27 -20 29 -45 19 -41 -15 -53 -29 -53 -59 0 -43 63 -74 193 -95 55 -9 186
12 257 41 85 34 191 106 240 162 79 89 134 236 94 249 -7 2 -33 -29 -60 -68z"/>
<path d="M3358 6470 c-68 -21 -118 -80 -118 -139 0 -80 142 -153 205 -107 19
13 17 15 -18 21 -44 9 -107 63 -107 93 0 30 64 81 110 88 36 6 53 25 32 38
-17 10 -79 14 -104 6z"/>
<path d="M4007 6342 c-46 -51 -40 -131 14 -176 54 -46 130 -23 151 45 13 46 6
78 -28 118 -22 27 -33 31 -73 31 -33 0 -53 -6 -64 -18z"/>
<path d="M5141 6036 c-102 -128 -173 -140 -201 -35 -11 38 -12 40 -25 23 -19
-25 -19 -88 -1 -123 45 -87 147 -77 245 23 37 38 45 52 49 94 2 27 0 57 -5 67
-8 14 -18 7 -62 -49z"/>
<path d="M14864 6555 c-10 -25 10 -60 52 -91 33 -25 47 -29 118 -32 75 -3 84
-1 124 25 47 31 56 48 16 33 -72 -28 -185 -4 -272 58 -28 21 -33 22 -38 7z"/>
<path d="M14190 6478 c0 -37 36 -86 82 -109 78 -40 228 -27 294 26 l29 23
-105 -5 c-124 -7 -203 11 -262 58 -38 30 -38 30 -38 7z"/>
<path d="M9454 6170 c-29 -11 -54 -48 -54 -78 0 -35 38 -98 67 -111 44 -20 98
-14 127 16 48 48 47 104 -4 154 -23 23 -37 29 -72 28 -24 0 -53 -4 -64 -9z"/>
<path d="M10811 5965 c-46 -53 -63 -93 -69 -160 -3 -46 0 -70 13 -95 22 -42
35 -25 35 47 0 55 25 133 42 133 7 0 8 -45 4 -135 -4 -74 -5 -135 -2 -135 22
0 66 163 66 244 0 41 -29 118 -48 130 -5 3 -24 -10 -41 -29z"/>
<path d="M7974 5953 c-9 -10 -29 -42 -43 -73 -21 -46 -26 -73 -29 -160 -4
-128 10 -116 28 25 12 97 28 135 55 135 19 0 23 -21 15 -75 -16 -99 -23 -230
-12 -220 22 21 62 115 77 180 20 84 13 135 -25 175 -32 35 -42 37 -66 13z"/>
<path d="M8214 5737 c-122 -184 -132 -203 -116 -219 25 -25 121 96 212 265 40
74 46 107 18 107 -7 0 -58 -69 -114 -153z"/>
<path d="M9458 5760 c-28 -28 -30 -35 -25 -83 4 -43 10 -56 38 -79 43 -36 87
-37 127 -3 78 65 29 195 -73 195 -27 0 -44 -8 -67 -30z"/>
<path d="M8426 5609 c-100 -94 -130 -133 -122 -155 5 -13 10 -13 37 3 101 58
225 215 183 230 -7 2 -51 -33 -98 -78z"/>
<path d="M15915 6423 c-15 -83 -61 -278 -81 -348 -11 -39 42 51 69 115 35 86
53 160 62 253 7 72 6 77 -12 77 -17 0 -22 -14 -38 -97z"/>
<path d="M14843 6130 c-17 -10 -42 -33 -54 -49 -12 -17 -31 -33 -41 -37 -28
-9 -51 -61 -44 -100 9 -47 48 -74 105 -74 144 0 246 196 133 254 -50 25 -66
26 -99 6z m75 -42 c16 -16 15 -89 -2 -110 -18 -24 -67 -33 -89 -16 -24 18 -25
79 -3 113 18 28 72 35 94 13z"/>
<path d="M14751 5627 c-56 -45 -90 -96 -91 -138 0 -29 47 -79 76 -81 25 -2
144 22 167 34 42 22 60 123 32 178 -34 66 -106 68 -184 7z m108 -7 c25 -13 45
-64 37 -94 -10 -39 -34 -56 -80 -56 -53 0 -66 13 -66 66 0 73 54 114 109 84z"/>
<path d="M14730 5192 c-71 -48 -120 -118 -120 -171 0 -33 55 -81 94 -81 35 0
87 24 99 46 4 8 14 14 21 14 20 0 55 43 62 77 11 56 -50 134 -105 132 -14 0
-37 -8 -51 -17z"/>
<path d="M933 5076 c-56 -32 -100 -65 -208 -156 -119 -101 -189 -153 -250
-185 l-50 -26 55 6 c30 3 77 16 105 28 49 20 158 97 221 154 70 64 118 100
210 160 19 12 18 13 0 28 -26 20 -33 19 -83 -9z"/>
<path d="M9662 5107 c-28 -29 -30 -94 -4 -113 25 -19 66 -17 85 4 26 28 22 97
-5 116 -31 22 -51 20 -76 -7z"/>
<path d="M9458 5015 c-17 -17 103 -494 174 -697 20 -57 38 -75 38 -40 0 29
-147 603 -181 710 -10 30 -19 38 -31 27z"/>
<path d="M9916 4850 c3 -19 37 -129 74 -245 37 -115 71 -226 75 -245 13 -70
26 -110 34 -110 13 0 2 85 -30 218 -33 134 -80 266 -128 358 -28 52 -31 55
-25 24z"/>
<path d="M10379 4820 c10 -19 35 -64 56 -100 118 -205 223 -436 421 -920 69
-168 138 -334 154 -370 15 -36 38 -89 50 -118 13 -29 25 -51 27 -48 7 6 -64
244 -128 431 -79 232 -156 415 -264 631 -81 161 -238 414 -310 499 l-26 30 20
-35z"/>
<path d="M9741 4644 c-40 -51 -16 -114 43 -114 54 0 84 53 64 111 -9 25 -15
29 -48 29 -30 0 -43 -6 -59 -26z"/>
<path d="M10274 4492 c-43 -30 -59 -113 -25 -132 34 -18 78 -12 95 12 21 29
20 92 0 112 -16 17 -52 21 -70 8z"/>
<path d="M8701 4424 c-25 -32 -27 -86 -5 -108 40 -40 114 4 114 68 0 66 -69
91 -109 40z"/>
<path d="M9634 4136 c-38 -38 -44 -74 -16 -99 36 -33 95 -18 120 30 25 46 12
79 -38 93 -30 9 -36 6 -66 -24z"/>
<path d="M9018 4052 c-22 -13 -28 -24 -28 -52 0 -51 24 -80 64 -80 42 0 68 28
69 76 1 27 -5 41 -22 55 -28 23 -48 24 -83 1z"/>
<path d="M7981 3962 c-93 -220 -196 -512 -242 -690 -22 -83 -61 -303 -55 -309
8 -8 157 427 246 717 18 58 40 130 50 160 51 154 57 184 42 194 -5 3 -23 -30
-41 -72z"/>
<path d="M8371 4014 c-40 -51 -17 -118 40 -116 44 1 69 27 69 72 0 68 -69 95
-109 44z"/>
<path d="M9184 3973 c3 -32 8 -96 11 -143 13 -188 28 -331 71 -672 24 -196 44
-361 44 -367 0 -6 5 -11 10 -11 15 0 12 218 -5 415 -25 280 -85 718 -112 818
-11 40 -23 13 -19 -40z"/>
<path d="M10687 3790 c11 -66 72 -236 136 -380 35 -80 81 -187 102 -237 21
-53 44 -93 51 -93 18 0 18 7 -6 101 -40 155 -171 454 -265 604 l-25 40 7 -35z"/>
<path d="M8956 3643 c-5 -67 -5 -189 -2 -270 6 -144 26 -376 32 -370 2 2 7 63
13 137 10 150 -1 428 -22 550 l-14 75 -7 -122z"/>
<path d="M8686 3625 c-34 -52 -9 -115 45 -115 37 0 59 21 65 61 5 29 2 41 -15
58 -29 29 -74 28 -95 -4z"/>
<path d="M10538 3586 c-57 -43 -39 -146 26 -146 52 0 78 113 34 144 -27 19
-38 19 -60 2z"/>
<path d="M8012 3478 c-64 -155 -102 -325 -102 -453 l1 -70 24 72 c46 134 125
506 111 520 -2 2 -17 -29 -34 -69z"/>
<path d="M8189 3450 c-38 -37 -39 -83 -4 -106 46 -30 115 9 115 64 0 37 -19
60 -54 66 -22 4 -35 -1 -57 -24z"/>
<path d="M10031 3324 c-23 -30 -28 -93 -9 -112 19 -19 66 -14 88 8 13 13 20
33 20 58 0 69 -60 96 -99 46z"/>
<path d="M9410 3195 c0 -33 7 -100 14 -150 28 -178 56 -329 64 -337 4 -4 13
-3 21 1 27 17 -15 352 -58 470 -30 81 -41 85 -41 16z"/>
<path d="M11266 3167 c-11 -8 -20 -31 -23 -59 -5 -39 -2 -47 18 -62 33 -23 56
-20 86 10 20 20 24 31 19 57 -12 59 -58 84 -100 54z"/>
<path d="M8194 2977 c-53 -46 -22 -126 49 -127 62 0 91 84 44 128 -30 28 -59
28 -93 -1z"/>
<path d="M7514 2952 c-38 -25 -40 -103 -4 -122 29 -15 65 -12 83 8 21 23 22
86 1 106 -16 17 -61 21 -80 8z"/>
<path d="M9823 2928 c-41 -46 -35 -108 11 -130 34 -15 82 5 90 38 12 44 -32
114 -72 114 -5 0 -18 -10 -29 -22z"/>
<path d="M4430 4601 c-231 -75 -385 -357 -294 -539 46 -92 145 -153 296 -183
207 -42 438 140 456 356 4 58 1 71 -32 140 -41 87 -115 166 -192 205 -38 19
-67 25 -129 27 -44 1 -91 -1 -105 -6z m205 -76 c51 -25 127 -100 155 -155 24
-47 36 -130 26 -183 -14 -75 -106 -171 -208 -215 -55 -23 -152 -43 -213 -43
-122 0 -195 60 -217 179 -27 147 72 350 205 417 46 24 61 26 132 23 51 -3 95
-11 120 -23z"/>
<path d="M4305 4179 c-10 -32 22 -106 57 -130 41 -29 103 -40 153 -27 38 9 75
33 75 48 0 4 -33 10 -74 13 -97 7 -140 28 -163 78 -20 43 -38 50 -48 18z"/>
<path d="M4716 3842 c-23 -22 56 -123 121 -156 40 -20 83 -21 83 -2 0 35 -184
178 -204 158z"/>
<path d="M3286 3675 c-9 -25 40 -70 116 -107 226 -108 471 -177 758 -213 226
-29 669 -11 872 34 100 23 235 83 148 67 -404 -77 -806 -73 -1190 10 -215 47
-456 124 -634 203 -58 25 -62 25 -70 6z"/>
<path d="M15165 4549 c-297 -49 -556 -50 -804 -3 -41 7 -77 11 -80 8 -10 -10
53 -54 109 -75 32 -12 100 -24 170 -30 196 -17 201 -19 216 -59 8 -22 13 -93
13 -196 1 -171 7 -227 24 -221 6 2 17 21 24 43 11 30 13 75 9 194 -3 85 -7
169 -8 185 -3 28 0 30 33 33 28 2 38 -1 44 -15 4 -10 10 -86 13 -170 2 -83 8
-156 12 -162 10 -17 36 -4 49 25 14 31 15 246 1 294 -12 41 -5 47 60 55 100
14 214 45 234 65 18 17 19 22 6 34 -13 11 -32 10 -125 -5z"/>
<path d="M15009 4031 c-85 -54 -199 -194 -199 -244 0 -8 8 -25 19 -38 l18 -23
64 18 c35 9 102 38 149 63 47 25 122 66 168 90 85 46 105 73 53 73 -41 0 -295
-113 -337 -149 -35 -31 -61 -41 -48 -18 22 37 96 126 116 139 48 32 78 68 78
93 0 34 -24 33 -81 -4z"/>
<path d="M14336 3817 c-27 -20 -16 -47 31 -81 35 -24 55 -30 116 -34 78 -5
213 13 223 30 4 7 -33 8 -110 4 -109 -6 -116 -5 -116 12 0 31 45 44 130 36 63
-5 78 -3 89 10 11 13 9 17 -14 26 -41 15 -327 13 -349 -3z"/>
<path d="M16086 3155 c-28 -37 -106 -85 -138 -85 -16 0 -39 5 -50 11 -16 8
-24 8 -35 -4 -36 -36 18 -97 84 -97 41 1 105 33 136 69 28 34 49 94 40 117 -7
20 -16 18 -37 -11z"/>
<path d="M14094 2768 c3 -63 31 -115 77 -142 67 -40 189 -1 272 85 55 57 61
79 15 51 -150 -91 -320 -77 -356 30 -11 31 -11 30 -8 -24z"/>
<path d="M14460 2642 c-88 -51 -156 -79 -213 -87 -57 -9 -68 -22 -37 -47 32
-26 105 -24 152 5 43 26 178 147 178 159 0 14 -14 9 -80 -30z"/>
<path d="M13372 2653 c6 -29 77 -45 236 -50 97 -4 152 -2 152 4 0 22 -146 50
-293 57 -86 4 -98 2 -95 -11z"/>
<path d="M15868 2505 c-42 -30 -88 -70 -102 -88 -28 -36 -52 -95 -43 -103 7
-7 261 216 265 233 7 29 -47 10 -120 -42z"/>
<path d="M13362 2446 c-89 -15 -112 -26 -90 -44 10 -8 59 -8 178 -1 91 6 167
12 169 15 3 2 -2 11 -10 19 -21 21 -148 27 -247 11z"/>
<path d="M15892 2385 c-79 -62 -123 -115 -137 -163 -7 -23 -6 -23 22 -9 70 37
241 207 228 228 -12 18 -32 8 -113 -56z"/>
<path d="M13305 2339 c-79 -12 -170 -44 -170 -61 0 -7 7 -12 15 -11 90 12 294
33 328 33 43 0 54 14 30 38 -14 14 -111 14 -203 1z"/>
<path d="M15930 2271 c-47 -37 -102 -87 -122 -110 -34 -40 -55 -87 -44 -99 14
-13 292 250 282 266 -13 21 -29 13 -116 -57z"/>
<path d="M13275 2224 c-109 -31 -155 -52 -155 -70 0 -18 -3 -18 142 11 158 31
249 52 256 59 31 31 -131 31 -243 0z"/>
<path d="M15965 2151 c-44 -37 -90 -79 -101 -92 -26 -28 -64 -98 -64 -116 0
-24 25 -13 47 20 12 17 70 79 128 135 58 57 105 108 105 113 0 25 -43 2 -115
-60z"/>
<path d="M13015 1860 c-33 -36 -15 -155 23 -148 14 3 16 13 14 57 -5 67 13 60
23 -9 5 -34 13 -54 26 -60 15 -9 20 -6 25 15 9 38 0 131 -15 149 -19 23 -74
20 -96 -4z"/>
<path d="M15838 1704 c-37 -20 -45 -55 -21 -96 24 -41 85 -64 127 -48 38 14
28 32 -30 52 -29 9 -50 23 -52 33 -3 13 1 15 17 10 53 -17 85 31 36 53 -33 15
-44 15 -77 -4z"/>
<path d="M5250 3156 c-58 -24 -141 -61 -185 -83 -44 -22 -85 -38 -92 -36 -6 3
-16 18 -22 34 -15 42 -26 36 -26 -15 0 -33 -6 -51 -24 -70 -32 -34 -55 -33
-82 4 -28 37 -40 30 -27 -16 9 -32 7 -39 -16 -63 -32 -33 -33 -45 -5 -36 18 6
31 -3 71 -46 37 -41 47 -48 41 -29 -15 48 -8 98 17 125 36 38 64 32 127 -28
l55 -53 -84 -32 c-87 -33 -209 -107 -216 -131 -4 -11 4 -13 38 -7 51 8 102 33
198 98 49 33 77 46 87 41 28 -16 65 -77 65 -106 0 -27 -41 -97 -62 -105 -4 -2
-8 -8 -8 -13 0 -18 35 -9 65 17 45 38 98 18 125 -47 16 -37 0 -80 -36 -99 -13
-8 -24 -17 -24 -22 0 -13 24 -9 46 7 60 45 114 -5 204 -189 38 -77 66 -144 63
-149 -3 -5 -37 -29 -75 -54 -79 -51 -78 -51 -117 29 -48 98 -70 57 -31 -56 19
-53 20 -60 5 -75 -20 -23 -19 -31 3 -31 27 0 67 -41 85 -88 21 -53 21 -84 2
-122 -15 -28 -14 -30 3 -30 11 0 31 -9 46 -21 60 -47 74 -128 31 -172 -28 -27
-19 -45 14 -27 28 14 63 12 89 -6 21 -14 22 -14 22 10 0 62 98 124 156 97 21
-9 24 -8 24 9 0 30 57 83 133 124 l67 37 14 -33 c30 -73 31 -72 -31 -114 -32
-21 -60 -41 -63 -45 -5 -5 -149 -99 -277 -178 -53 -33 -66 -57 -39 -67 20 -8
180 69 317 151 60 37 192 126 292 198 100 72 230 164 290 204 59 41 107 78
107 83 0 13 -32 17 -63 7 -40 -13 -53 -4 -61 41 -21 137 -146 422 -237 546
l-51 69 -24 -31 c-13 -16 -45 -40 -71 -53 -45 -22 -46 -22 -61 -3 -26 34 -43
85 -36 107 3 12 24 45 45 74 22 29 39 55 39 58 0 17 -41 0 -71 -31 -28 -29
-39 -34 -63 -30 -73 15 -125 120 -92 185 9 16 16 35 16 41 0 13 -37 13 -45 0
-14 -23 -58 -9 -96 29 -40 39 -50 76 -27 99 18 18 2 25 -31 14 -35 -12 -91 11
-136 58 -26 27 -30 28 -60 16 -17 -8 -54 -29 -81 -49 -71 -50 -89 -53 -119
-23 -34 34 -24 52 54 95 57 33 70 51 33 51 -9 -1 -64 -20 -122 -44z m305 -107
c43 -43 48 -52 35 -62 -9 -7 -45 -34 -79 -61 l-64 -49 -48 51 c-27 28 -49 55
-49 60 0 5 27 26 61 47 33 20 63 43 66 51 9 24 27 16 78 -37z m-330 33 c18
-12 55 -64 55 -77 0 -6 -21 -22 -47 -34 -61 -28 -100 -57 -90 -67 4 -5 34 6
66 24 82 45 109 43 160 -13 22 -24 41 -51 41 -58 0 -22 -139 -137 -164 -137
-6 0 -24 19 -40 42 -16 22 -67 83 -113 135 -95 107 -95 102 3 142 27 10 63 26
79 35 34 18 36 18 50 8z m454 -145 c16 -12 40 -39 56 -60 26 -36 26 -39 10
-57 -27 -29 -149 -110 -167 -110 -18 0 -69 60 -89 104 -12 27 -11 30 23 60
123 108 116 105 167 63z m-226 -155 c32 -35 75 -106 71 -116 -5 -12 -105 -86
-143 -106 -21 -11 -27 -9 -50 16 -33 36 -74 94 -70 98 2 1 24 17 49 34 25 17
61 44 80 61 41 36 42 36 63 13z m374 -29 c16 -21 42 -58 57 -82 l29 -44 -34
-28 c-18 -15 -57 -40 -87 -56 l-53 -28 -60 63 c-53 56 -75 102 -50 102 5 0 40
25 78 55 37 29 73 54 80 55 6 0 24 -17 40 -37z m-226 -160 c48 -51 79 -93 79
-107 0 -7 -43 -41 -96 -75 l-97 -64 -19 24 c-20 26 -78 123 -78 131 0 3 34 29
75 57 41 28 77 56 80 61 10 16 19 12 56 -27z m356 -35 c11 -13 31 -43 43 -67
18 -36 19 -46 8 -56 -96 -85 -150 -127 -157 -119 -5 5 -26 40 -47 78 l-38 70
30 22 c139 108 131 105 161 72z m287 -65 c22 -33 56 -114 56 -132 0 -11 -96
-81 -111 -81 -8 0 -33 36 -56 79 -34 64 -40 82 -30 95 17 22 90 75 104 76 7 0
24 -17 37 -37z m-506 -80 c22 -33 62 -115 62 -129 0 -15 -35 -43 -120 -96 -57
-36 -77 -44 -88 -36 -12 11 -82 148 -82 162 0 3 26 19 58 36 31 16 75 43 97
59 22 16 43 30 47 30 4 1 15 -11 26 -26z m354 -88 c21 -39 38 -75 38 -82 0
-10 -136 -123 -178 -147 -8 -5 -21 13 -42 59 -39 88 -39 114 3 142 18 12 50
41 72 63 22 22 46 39 55 38 8 -2 32 -35 52 -73z m243 -31 c9 -15 27 -56 40
-93 13 -36 26 -73 30 -82 5 -13 -10 -29 -55 -64 -34 -26 -62 -46 -64 -44 -14
18 -85 224 -79 230 18 17 98 78 104 78 4 1 14 -11 24 -25z m-508 -86 c14 -19
63 -137 62 -151 0 -11 -173 -142 -187 -142 -7 0 -71 154 -72 172 0 10 164 131
181 132 4 1 11 -5 16 -11z m362 -97 c16 -44 33 -95 36 -114 6 -31 3 -37 -32
-64 -85 -67 -153 -107 -164 -96 -10 10 -72 204 -67 208 17 9 138 108 152 124
11 12 25 21 32 21 7 0 26 -36 43 -79z m-594 -64 c23 -35 66 -160 57 -168 -20
-18 -153 -109 -160 -109 -13 0 -82 194 -73 203 9 9 153 97 158 97 2 0 9 -10
18 -23z m844 -14 c20 -50 40 -126 35 -134 -2 -4 -32 -26 -66 -49 -73 -49 -78
-46 -98 52 l-13 61 54 48 c30 27 59 49 65 49 6 0 17 -12 23 -27z m-484 -157
c14 -45 25 -84 25 -87 0 -5 -35 -29 -153 -107 -22 -15 -41 -22 -46 -16 -12 13
-61 159 -61 182 0 12 22 35 61 63 34 24 74 54 88 66 l26 22 18 -20 c9 -12 28
-58 42 -103z m320 -18 c8 -29 15 -59 15 -68 0 -20 -178 -140 -207 -140 -13 0
-33 61 -33 97 0 27 11 38 97 101 53 39 100 69 104 66 5 -3 15 -28 24 -56z
m-587 -60 c24 -38 56 -154 47 -169 -4 -5 -37 -25 -75 -44 -52 -26 -70 -31 -78
-22 -22 28 -71 137 -72 159 0 8 140 106 152 107 3 1 15 -14 26 -31z"/>
<path d="M4198 2622 c-48 -17 -108 -66 -108 -88 0 -7 8 -20 17 -30 35 -35 219
6 237 53 4 9 4 18 2 20 -5 5 -110 -11 -141 -21 -24 -8 49 28 88 43 15 6 27 17
27 26 0 20 -60 19 -122 -3z"/>
<path d="M2742 2078 c-19 -19 -14 -37 37 -140 54 -107 141 -245 204 -322 66
-81 216 -227 291 -283 62 -45 121 -72 134 -59 2 3 -56 65 -129 138 -238 236
-395 446 -460 616 -19 48 -28 62 -44 62 -12 0 -26 -5 -33 -12z"/>
<path d="M1750 1300 c-24 -6 -25 -9 -22 -70 4 -72 33 -158 65 -196 19 -22 24
-23 41 -11 17 13 17 17 -13 122 -17 59 -31 115 -31 124 0 27 -14 38 -40 31z"/>
<path d="M2170 633 c0 -30 45 -116 81 -155 83 -89 275 -156 414 -145 110 10
137 25 45 26 -77 1 -103 6 -180 36 -46 19 -159 88 -201 123 -151 127 -159 133
-159 115z"/>
<path d="M16000 1030 c0 -11 6 -20 13 -20 19 0 106 -61 169 -119 50 -45 98
-122 122 -194 6 -19 33 -33 43 -23 10 10 -18 118 -44 170 -53 105 -184 206
-268 206 -28 0 -35 -4 -35 -20z"/>
<path d="M16030 920 c0 -15 80 -127 114 -161 16 -16 39 -29 49 -29 48 0 -12
125 -82 174 -37 26 -81 35 -81 16z"/>
<path d="M7270 806 c-39 -48 -116 -108 -188 -146 -92 -49 -158 -64 -304 -68
-110 -3 -138 -7 -142 -19 -16 -40 46 -63 167 -63 160 0 301 53 412 153 61 55
118 147 108 173 -8 21 -15 17 -53 -30z"/>
<path d="M6235 255 c-27 -8 -74 -17 -103 -21 -29 -3 -60 -13 -69 -22 -25 -26
16 -52 81 -52 93 0 241 67 221 100 -8 14 -70 11 -130 -5z"/>
<path d="M15843 9113 c-13 -2 -23 -6 -23 -8 0 -2 16 -26 35 -55 45 -67 64
-135 67 -238 2 -82 3 -83 20 -62 27 34 40 97 36 175 -4 74 -24 127 -63 170
-24 25 -29 26 -72 18z"/>
<path d="M15260 9022 c0 -7 11 -29 24 -50 107 -170 186 -401 186 -545 0 -100
8 -137 30 -137 24 0 31 21 37 110 9 132 -37 310 -115 444 -37 62 -161 200
-162 178z"/>
<path d="M15390 8994 c0 -7 3 -14 8 -14 4 0 31 -24 61 -52 67 -66 102 -142
131 -278 12 -58 28 -130 34 -160 l13 -55 11 40 c30 103 9 239 -55 357 -46 84
-203 210 -203 162z"/>
<path d="M15600 8974 c0 -6 9 -28 19 -50 18 -37 57 -163 82 -263 12 -51 24
-42 35 26 8 57 -12 138 -51 198 -34 52 -85 106 -85 89z"/>
<path d="M15314 8775 c3 -16 17 -82 32 -145 18 -78 27 -150 29 -225 1 -60 3
-114 4 -118 0 -5 11 -7 24 -5 21 3 22 8 25 107 4 165 -33 312 -99 391 l-21 25
6 -30z"/>
<path d="M14745 8541 c-118 -31 -239 -151 -196 -194 10 -9 22 -1 53 36 22 26
44 47 49 47 5 0 9 -23 9 -51 0 -43 5 -55 30 -81 28 -28 35 -30 84 -26 90 7
136 54 136 138 0 33 3 37 20 33 19 -5 53 -39 112 -112 33 -41 48 -34 38 16
-14 79 -64 138 -147 175 -47 21 -144 31 -188 19z"/>
<path d="M13500 8444 c-68 -18 -125 -55 -150 -97 -35 -57 -19 -63 49 -18 25
17 48 28 52 26 3 -3 4 -25 2 -49 -5 -40 -2 -48 25 -76 75 -75 225 -5 210 98
-5 38 -3 39 42 8 76 -51 102 -41 55 20 -32 42 -97 81 -150 89 -22 3 -49 8 -60
10 -11 2 -45 -3 -75 -11z"/>
<path d="M16006 8408 c-16 -23 -22 -68 -9 -68 4 0 19 11 33 25 43 41 79 11 65
-55 -9 -39 -76 -98 -129 -112 -33 -9 -43 -15 -38 -27 8 -23 23 -31 59 -31 94
0 193 106 193 207 0 57 -33 83 -106 83 -43 0 -56 -4 -68 -22z"/>
<path d="M14081 8224 c-18 -31 -76 -100 -128 -154 l-94 -99 15 -29 c34 -65
127 -134 198 -147 41 -8 60 6 93 67 14 26 14 28 -28 60 -23 19 -54 42 -69 51
-16 10 -28 21 -28 26 0 5 18 38 39 74 58 95 77 145 72 195 -3 30 -38 8 -70
-44z"/>
<path d="M14900 8224 c-57 -30 -177 -34 -242 -9 -27 11 -21 -8 12 -40 26 -24
40 -30 94 -33 69 -5 109 10 159 56 43 41 31 55 -23 26z"/>
<path d="M15255 7983 c-59 -16 -95 -67 -95 -136 0 -65 28 -97 85 -97 35 0 49
6 74 30 30 30 51 83 51 127 0 47 -64 89 -115 76z m59 -59 c25 -24 20 -86 -9
-118 -45 -49 -105 -26 -105 41 0 75 70 122 114 77z"/>
<path d="M13476 7863 c-36 -38 -45 -106 -20 -153 16 -29 25 -36 56 -38 49 -4
76 12 94 53 23 57 18 102 -15 136 -39 38 -81 39 -115 2z"/>
<path d="M14726 7766 c-82 -100 -241 -190 -384 -217 -88 -17 -233 -7 -305 21
-46 17 -61 19 -72 10 -25 -21 -18 -58 13 -73 93 -47 349 -56 487 -18 149 41
263 124 320 233 48 92 6 123 -59 44z"/>
<path d="M6008 7753 c-27 -17 -56 -68 -45 -79 3 -3 17 2 30 11 15 9 40 15 59
13 31 -3 33 -6 36 -42 2 -21 -6 -75 -18 -118 -12 -44 -19 -85 -17 -91 6 -17
71 54 96 106 22 46 28 118 11 161 -19 50 -100 71 -152 39z"/>
<path d="M14553 7428 c-5 -7 -15 -27 -22 -45 -19 -47 -54 -75 -98 -77 -50 -1
-58 27 -14 52 17 9 29 21 28 26 -3 9 -90 44 -114 45 -20 2 -26 -62 -9 -103 11
-27 27 -42 58 -56 56 -25 98 -25 154 1 65 31 107 122 72 157 -16 16 -43 15
-55 0z"/>
<path d="M15685 431 c-183 -51 -273 -81 -285 -96 -24 -29 94 -18 215 19 61 18
135 39 165 46 56 13 94 36 84 51 -9 16 -77 8 -179 -20z"/>
<path d="M10330 391 c-8 -5 -83 -31 -166 -59 -156 -53 -284 -108 -319 -137
-19 -15 -19 -16 15 -9 164 31 550 174 550 204 0 12 -59 13 -80 1z"/>
<path d="M12550 335 c-242 -57 -285 -68 -457 -121 -105 -32 -127 -44 -104 -58
14 -9 827 186 844 203 15 15 -2 31 -31 30 -15 0 -128 -24 -252 -54z"/>
<path d="M1870 339 c-203 -53 -323 -91 -393 -124 -72 -34 -113 -64 -71 -52 11
4 57 15 103 27 74 19 315 94 444 138 26 9 47 20 47 24 0 13 -50 8 -130 -13z"/>
<path d="M15905 353 c-11 -2 -57 -11 -103 -20 -133 -25 -267 -68 -270 -87 -4
-20 19 -21 73 -2 22 8 94 24 160 35 148 27 231 49 246 67 9 12 3 14 -37 13
-27 -1 -58 -3 -69 -6z"/>
<path d="M12835 298 c-180 -51 -445 -140 -445 -149 0 -5 4 -9 10 -9 41 0 522
140 540 156 4 5 -21 24 -30 23 -3 0 -36 -9 -75 -21z"/>
<path d="M10365 300 c-25 -11 -240 -104 -314 -135 -29 -13 -60 -30 -69 -39
-15 -15 -14 -16 8 -16 99 1 449 148 437 183 -5 15 -36 19 -62 7z"/>
<path d="M1935 245 c-77 -24 -328 -126 -387 -156 -39 -20 -50 -39 -23 -39 48
0 575 193 575 211 0 16 -93 8 -165 -16z"/>
<path d="M5570 211 c-52 -16 -140 -42 -195 -59 -55 -17 -146 -45 -202 -62 -74
-22 -103 -35 -103 -47 0 -13 8 -14 51 -9 68 9 226 52 451 122 146 46 184 61
176 71 -16 20 -73 14 -178 -16z"/>
<path d="M2052 146 c-73 -29 -138 -58 -144 -64 -24 -24 6 -25 98 -4 106 24
229 79 229 102 0 28 -49 19 -183 -34z"/>
<path d="M5630 74 c-142 -36 -184 -58 -138 -69 65 -17 334 55 346 93 7 21 -64
13 -208 -24z"/>
</g>
</svg>
