<?xml version="1.0" standalone="no"?>
<!DOCTYPE svg PUBLIC "-//W3C//DTD SVG 20010904//EN"
 "http://www.w3.org/TR/2001/REC-SVG-20010904/DTD/svg10.dtd">
<svg version="1.0" xmlns="http://www.w3.org/2000/svg"
 width="480.000000pt" height="322.000000pt" viewBox="0 0 480.000000 322.000000"
 preserveAspectRatio="xMidYMid meet">
<metadata>
Created by potrace 1.16, written by Peter Selinger 2001-2019
</metadata>
<g transform="translate(0.000000,322.000000) scale(0.100000,-0.100000)"
fill="#000000" stroke="none">
<path d="M1480 3204 c-19 -8 -47 -29 -62 -47 -21 -26 -29 -30 -39 -19 -7 6
-34 12 -61 12 -39 0 -54 -6 -83 -31 -19 -17 -35 -36 -35 -42 0 -6 7 -1 16 11
21 30 66 52 109 52 29 0 39 -6 55 -32 14 -24 20 -28 20 -15 0 27 37 75 70 92
16 8 54 15 85 15 70 0 100 -25 110 -92 l7 -44 29 27 c57 53 199 63 248 18 22
-21 30 -92 11 -104 -21 -13 -9 -25 24 -25 65 0 57 -44 -10 -62 -24 -7 -44 -18
-44 -24 0 -23 -54 -77 -95 -95 -47 -22 -98 -23 -140 -5 -26 12 -35 11 -70 -7
-48 -25 -127 -27 -172 -4 -17 9 -42 30 -57 47 -29 35 -35 24 -9 -16 40 -62
172 -86 242 -43 29 17 38 19 62 8 17 -6 55 -10 89 -7 68 5 124 40 150 96 9 18
23 32 33 32 10 0 32 7 48 16 38 19 36 53 -3 72 -23 11 -26 17 -21 42 8 43 -13
86 -52 104 -59 28 -182 17 -226 -20 -22 -20 -25 -18 -38 26 -21 72 -106 100
-191 64z"/>
<path d="M2749 3172 c-32 -21 -59 -48 -59 -58 0 -4 12 4 28 18 57 53 101 62
139 26 19 -17 33 -21 72 -19 46 2 52 0 93 -41 24 -24 56 -50 73 -58 55 -28 43
-84 -21 -96 -20 -4 -39 -15 -46 -28 -23 -44 -67 -58 -110 -35 -13 7 -23 7 -27
2 -25 -39 -108 -44 -147 -9 l-28 23 -44 -23 c-80 -43 -165 -25 -201 43 -16 30
-20 33 -21 16 0 -31 45 -80 86 -93 47 -16 105 -8 144 20 l30 22 31 -26 c37
-32 96 -35 130 -7 17 13 33 17 60 14 53 -8 88 4 101 31 6 16 22 26 43 30 44 9
79 47 70 78 -10 32 -35 58 -55 58 -10 0 -30 16 -45 36 -33 44 -86 68 -130 60
-24 -5 -36 -1 -50 14 -23 25 -80 26 -116 2z"/>
<path d="M4077 3170 c-14 -11 -29 -29 -32 -40 -4 -11 -15 -20 -26 -20 -33 0
-56 -17 -68 -50 -14 -41 1 -78 34 -86 14 -3 39 -19 55 -35 36 -37 88 -38 153
-5 35 17 58 22 94 19 87 -7 145 55 95 100 -10 10 -24 17 -30 17 -7 0 -18 16
-26 35 -14 32 -19 35 -55 35 -22 0 -43 -4 -46 -10 -9 -15 -25 -12 -25 5 0 25
-38 55 -69 55 -15 0 -40 -9 -54 -20z m93 -10 c11 -11 20 -31 20 -45 l0 -26 29
22 c42 31 83 23 96 -18 5 -18 15 -33 22 -33 20 0 53 -38 47 -54 -8 -22 -59
-39 -101 -34 -25 3 -48 -2 -69 -14 -72 -42 -145 -42 -177 0 -6 9 -26 24 -42
32 -38 20 -45 60 -15 90 15 15 29 20 46 16 19 -5 24 -2 24 13 0 23 54 71 81
71 10 0 28 -9 39 -20z"/>
<path d="M4210 2793 c-26 -11 -103 -65 -158 -111 -50 -42 -55 -44 -90 -34 -20
5 -113 31 -207 56 -93 25 -190 46 -215 46 -54 0 -197 -43 -336 -101 -115 -48
-169 -77 -242 -132 l-52 -40 -138 45 c-75 25 -186 68 -246 97 -60 28 -116 51
-126 51 -20 0 -208 -122 -319 -207 l-84 -65 -46 18 c-25 9 -140 64 -254 121
l-209 103 -80 0 c-64 0 -123 -10 -279 -50 -109 -27 -208 -50 -221 -50 -13 -1
-110 43 -215 97 l-192 98 -78 -1 c-53 0 -99 -8 -143 -23 -82 -28 -280 -122
-280 -132 0 -4 46 14 103 41 151 72 242 100 326 100 69 0 73 -1 266 -100 107
-55 203 -100 214 -100 11 0 109 23 218 51 138 35 221 51 273 52 l75 2 235
-118 c129 -64 241 -117 248 -117 23 0 12 -15 -50 -65 -244 -196 -554 -482
-639 -591 -20 -26 -47 -39 -161 -78 -76 -25 -143 -46 -150 -46 -6 0 6 18 27
40 33 34 45 40 74 38 20 -2 36 2 38 10 3 7 -3 12 -14 12 -15 0 -16 -2 -3 -10
17 -11 1 -13 -24 -4 -35 14 -12 23 49 20 70 -3 90 8 59 31 -17 12 -14 13 24 7
28 -4 42 -3 42 5 0 6 -5 11 -11 11 -5 0 -7 5 -3 12 4 7 3 8 -4 4 -7 -4 -12 -3
-12 3 0 5 6 12 13 14 9 4 9 6 0 6 -7 1 -17 -8 -23 -19 -6 -11 -18 -20 -27 -20
-13 0 -14 3 -5 12 16 16 15 41 0 36 -7 -3 -15 -15 -18 -29 -4 -16 -14 -25 -30
-27 -20 -3 -23 -1 -12 9 16 17 15 49 -2 49 -17 0 -26 -22 -19 -48 3 -14 -2
-24 -16 -32 -20 -10 -21 -9 -16 17 5 22 4 25 -4 13 -10 -13 -12 -13 -21 0 -14
22 -12 3 2 -20 10 -15 9 -23 -6 -39 -11 -12 -15 -21 -11 -21 5 0 -4 -13 -20
-30 -15 -16 -32 -27 -37 -24 -4 3 -8 0 -8 -5 0 -6 -7 -11 -15 -11 -9 0 -15 9
-15 24 0 27 -28 43 -36 21 -3 -8 -3 -19 1 -25 3 -5 1 -10 -4 -10 -14 0 -14 60
-1 95 7 17 7 24 0 20 -6 -3 -10 0 -10 9 0 8 3 16 8 19 4 2 1 2 -7 0 -8 -2 -11
2 -7 12 3 8 0 15 -6 15 -7 0 -7 4 1 14 10 11 8 16 -8 21 -12 3 -21 13 -21 21
0 9 5 12 12 8 7 -4 8 -3 4 4 -10 17 -15 15 -26 -10 -9 -20 -10 -19 -7 9 2 18
0 30 -4 27 -4 -2 -10 2 -12 8 -4 10 -6 9 -6 -1 -1 -11 -4 -11 -16 -1 -11 9
-19 10 -26 3 -14 -14 -1 -41 24 -49 29 -9 44 -26 40 -44 -4 -13 -3 -13 6 0 5
8 7 19 4 25 -4 5 -2 7 2 2 5 -4 10 -15 11 -25 1 -9 8 -42 15 -73 10 -47 10
-69 -1 -128 -16 -87 -6 -109 35 -71 28 26 32 18 10 -20 -27 -48 -15 -131 20
-130 5 0 2 5 -7 11 -26 15 -23 80 7 139 13 27 29 51 34 54 22 14 626 -150
1126 -306 143 -44 289 -90 325 -101 36 -11 66 -21 68 -22 1 -1 20 -71 42 -155
l39 -154 -39 -43 c-43 -46 -54 -99 -25 -123 8 -7 15 -17 15 -23 0 -6 9 -21 21
-33 11 -12 23 -40 26 -63 7 -49 23 -65 62 -59 l28 4 69 -255 c38 -140 74 -256
80 -258 8 -3 1 38 -17 104 -74 273 -115 439 -112 455 5 21 30 31 51 19 10 -6
42 -104 94 -292 43 -155 81 -285 83 -288 18 -17 6 36 -60 275 -41 148 -75 277
-75 287 0 9 7 17 15 17 8 0 24 9 35 20 l21 21 11 -33 c22 -64 98 -204 132
-243 l34 -40 39 20 c61 32 224 201 271 280 39 67 82 177 82 210 0 8 5 15 10
15 12 0 13 10 -5 -85 -41 -211 -82 -745 -58 -745 7 0 13 45 17 113 17 284 54
637 66 637 4 0 12 -19 19 -42 41 -142 171 -340 306 -466 125 -117 331 -242
397 -242 29 0 21 6 -57 44 -197 94 -321 193 -451 359 -98 124 -151 233 -200
409 -21 77 -27 122 -31 258 -6 181 5 270 54 430 28 95 44 130 80 178 l25 34
18 -30 c21 -33 61 -48 90 -32 31 16 40 4 40 -52 0 -108 59 -328 139 -513 31
-73 25 -101 -12 -51 -24 33 -91 72 -138 81 -36 7 -37 8 -63 93 -46 153 -58
228 -54 340 5 119 -9 115 -18 -5 -7 -88 12 -207 51 -332 30 -93 30 -91 3 -91
-48 0 -98 -20 -98 -40 0 -23 13 -32 60 -40 34 -6 33 -7 -25 -17 -33 -6 -61
-10 -62 -9 -1 1 -6 42 -11 91 -8 79 -9 83 -11 34 -2 -116 50 -323 114 -450
101 -199 305 -412 480 -501 53 -27 45 -20 -50 43 -165 110 -325 289 -411 461
-42 84 -94 222 -94 250 0 9 16 13 52 14 l52 1 -35 -16 c-40 -19 -49 -29 -42
-48 8 -20 83 -16 121 7 40 25 41 13 2 -25 -53 -51 -27 -99 31 -56 27 20 31 21
51 6 13 -8 30 -15 39 -15 10 0 45 -28 78 -63 33 -35 80 -73 103 -86 l43 -22
-40 32 c-56 46 -135 131 -135 145 0 18 19 21 87 16 l62 -4 44 -67 c102 -152
205 -247 343 -313 45 -22 92 -51 105 -64 21 -22 22 -27 10 -47 -8 -12 -17 -32
-20 -44 -6 -23 -8 -23 -123 34 -64 32 -114 55 -112 51 7 -11 126 -74 197 -103
37 -15 72 -34 78 -41 5 -7 9 -31 7 -53 l-3 -41 -99 45 c-123 55 -251 135 -316
198 -27 26 -50 44 -50 40 0 -5 24 -32 53 -60 85 -84 229 -168 387 -229 89 -33
134 -65 152 -105 14 -32 38 -39 38 -12 0 10 -29 45 -65 79 -53 49 -67 68 -72
100 -3 21 -17 51 -31 66 l-25 28 19 35 18 35 -42 43 c-37 37 -53 67 -37 67 3
0 65 -24 138 -54 206 -85 239 -97 233 -87 -3 5 -93 44 -200 87 l-195 77 -16
68 -17 68 67 76 c147 169 234 337 235 455 0 65 0 66 -64 151 -139 185 -277
308 -440 389 l-100 50 32 11 c20 7 34 20 38 34 3 13 14 31 25 41 22 19 26 83
7 102 -9 9 -7 16 6 31 14 15 17 28 11 53 -4 18 -8 72 -9 119 l-1 87 55 6 c30
3 169 15 309 26 140 11 257 23 260 26 7 8 -174 -2 -394 -22 -240 -21 -229 -22
-245 29 -33 110 -95 179 -194 212 l-66 22 111 94 c142 121 202 159 250 159 35
0 89 -25 336 -157 l72 -38 65 32 c36 18 66 37 66 43 0 14 -4 13 -71 -21 l-60
-30 -117 63 c-64 34 -144 75 -177 92 -58 28 -135 42 -165 29z m-441 -113 c102
-28 190 -55 194 -59 12 -12 -98 -101 -125 -101 -12 0 -47 -7 -76 -14 -127 -34
-215 -121 -247 -246 -15 -58 -72 -104 -142 -114 -26 -4 -158 -25 -291 -47
-134 -21 -247 -39 -252 -39 -5 0 -14 26 -20 58 -44 218 -193 323 -348 246 -64
-32 -151 -125 -188 -200 -26 -54 -35 -129 -22 -198 3 -17 -22 -25 -247 -77
-137 -31 -358 -84 -489 -118 -132 -33 -241 -59 -243 -57 -8 7 197 214 317 319
360 316 757 617 814 617 7 0 45 -15 82 -34 38 -18 96 -45 129 -59 64 -26 278
-97 295 -97 5 0 38 21 72 46 35 26 104 66 154 90 122 59 348 134 403 134 24 0
127 -23 230 -50z m243 -212 c81 -48 130 -136 143 -258 3 -36 3 -75 -2 -88 -8
-22 -10 -21 -78 33 -79 63 -194 126 -274 149 -33 10 -92 16 -148 16 -51 0 -93
3 -93 8 0 19 52 80 89 107 71 49 135 66 232 62 71 -2 93 -8 131 -29z m-1345
-134 c42 -34 98 -120 113 -174 5 -19 13 -64 16 -100 7 -66 31 -110 61 -110 19
0 16 -18 -6 -30 -27 -14 -84 -13 -104 3 -10 7 -20 39 -27 81 -27 174 -117 298
-204 282 -70 -13 -150 -112 -162 -199 -7 -49 -12 -28 190 -847 l105 -425 -21
-22 c-11 -12 -26 -19 -33 -17 -15 6 -16 11 -135 474 -50 195 -116 450 -147
565 -61 234 -63 259 -18 350 33 69 119 158 177 186 64 30 146 22 195 -17z
m1085 -38 c36 -8 101 -31 143 -50 64 -30 76 -39 70 -53 -4 -10 -10 -41 -12
-68 -4 -39 -1 -54 11 -64 9 -7 16 -23 16 -36 0 -31 11 -38 31 -19 10 9 30 14
51 12 32 -3 33 -5 36 -49 3 -41 0 -49 -28 -73 -17 -14 -37 -26 -44 -26 -7 0
-28 21 -47 46 -30 40 -38 45 -64 41 -18 -3 -39 1 -50 9 -23 17 -62 18 -95 1
-21 -11 -27 -10 -43 6 -21 21 -60 17 -90 -11 -16 -14 -20 -14 -52 1 -19 9 -35
23 -35 30 0 8 23 44 50 81 57 74 53 91 -5 21 -27 -34 -40 -43 -49 -36 -18 15
6 160 35 211 21 36 26 40 63 40 23 0 71 -7 108 -14z m-1163 -52 c32 -27 87
-128 97 -180 l6 -31 -154 -30 c-112 -23 -155 -28 -160 -20 -13 20 -9 116 5
150 29 67 107 137 154 137 12 0 35 -12 52 -26z m1468 -98 c64 -49 107 -92 116
-117 3 -9 -4 -31 -14 -49 -15 -23 -17 -36 -10 -43 19 -19 13 -75 -10 -90 -11
-8 -19 -23 -17 -32 2 -10 -4 -21 -12 -25 -8 -4 -29 -15 -47 -24 -43 -22 -62
-20 -73 8 -12 33 13 86 41 86 72 0 118 111 68 161 -20 20 -41 21 -81 4 -14 -5
-18 -2 -18 13 0 11 -7 22 -15 26 -24 9 -19 126 5 126 4 0 34 -20 67 -44z
m-548 -13 c-4 -58 -15 -78 -44 -83 -34 -6 -65 -54 -46 -73 6 -6 7 -15 2 -21
-5 -6 -12 -25 -16 -43 -5 -27 -2 -37 21 -60 20 -19 27 -36 25 -55 -3 -36 15
-67 45 -78 l25 -10 -49 -58 c-28 -31 -101 -131 -162 -222 -62 -90 -138 -196
-170 -235 -71 -87 -166 -175 -188 -175 -30 0 -362 114 -366 126 -12 32 -197
806 -194 810 3 2 58 15 124 28 205 41 181 41 188 -8 9 -59 42 -89 97 -89 34 0
47 6 67 28 25 29 22 38 -20 59 -29 15 -37 62 -11 70 10 3 146 25 303 50 157
25 296 47 310 49 51 9 60 7 59 -10z m35 -102 c-20 -49 -9 -68 55 -90 30 -10
37 -9 56 9 28 26 50 25 69 -2 15 -20 16 -21 34 -5 28 25 98 23 113 -4 8 -15
14 -18 22 -10 19 19 39 12 69 -21 32 -36 35 -54 12 -87 -12 -17 -13 -26 -5
-34 15 -15 14 -62 -1 -75 -7 -5 -24 -13 -38 -17 -14 -4 -31 -16 -38 -26 -16
-23 -64 -25 -81 -5 -10 12 -16 12 -42 -2 -27 -16 -31 -16 -59 0 -24 14 -35 15
-49 6 -29 -18 -71 -1 -84 32 -9 24 -17 30 -41 30 -43 0 -66 26 -66 74 0 33 -4
43 -22 51 -25 11 -38 69 -20 87 6 6 8 25 5 44 -4 27 -2 35 13 40 11 3 33 11
49 18 36 16 59 10 49 -13z m-1185 -466 c50 -201 91 -370 91 -376 0 -7 -7 -8
-17 -4 -127 49 -1008 309 -1253 370 -80 20 -152 38 -160 41 -47 18 353 132
965 274 138 32 257 59 266 59 13 1 34 -68 108 -364z m1768 136 c155 -74 306
-202 439 -373 82 -106 84 -109 84 -163 0 -71 -28 -149 -88 -249 -51 -85 -196
-266 -213 -266 -32 0 -136 158 -188 287 -38 94 -65 203 -52 216 10 10 228 4
271 -8 21 -6 20 -4 -8 14 -17 11 -52 26 -77 32 -25 6 -45 15 -45 20 0 18 73 8
123 -17 48 -24 50 -25 33 -5 -16 17 -63 36 -142 56 -6 2 -14 21 -16 43 -7 50
-54 155 -80 179 -16 14 -12 1 15 -52 60 -120 73 -196 40 -220 -10 -7 -44 -16
-77 -20 l-59 -6 6 -59 6 -58 -72 -15 c-150 -32 -129 -39 -170 55 -82 193 -137
390 -137 491 0 56 0 57 29 57 17 0 33 5 36 11 5 7 13 5 25 -6 26 -24 82 -16
95 13 6 13 19 22 31 22 12 0 27 7 34 15 11 13 14 13 26 -2 12 -16 13 -16 14
10 0 23 4 27 28 27 15 0 55 -13 89 -29z m-698 -187 c-58 -175 -78 -356 -59
-540 12 -118 12 -120 -15 -199 -14 -44 -47 -114 -73 -155 -51 -82 -170 -208
-244 -258 l-47 -32 -19 25 c-30 38 -81 167 -108 273 -23 92 -33 238 -18 276 4
9 38 37 77 62 136 88 235 200 407 459 83 126 119 175 125 175 2 0 -10 -39 -26
-86z m-649 -454 c88 -28 160 -53 160 -55 0 -2 -20 -16 -45 -31 -25 -14 -50
-34 -55 -44 -5 -10 -26 -24 -45 -30 -19 -6 -35 -16 -35 -21 0 -6 -8 -6 -19 1
-11 5 -36 10 -55 10 -39 0 -32 -14 -75 153 -16 64 -17 77 -5 73 8 -3 86 -28
174 -56z m955 16 c28 -13 61 -35 74 -50 31 -33 89 -35 210 -6 46 11 84 19 85
18 7 -19 59 -168 63 -182 6 -17 -3 -18 -163 -16 -93 1 -186 -1 -206 -5 -28 -6
-44 -3 -64 10 -25 16 -27 16 -48 -4 -20 -19 -56 -29 -56 -16 0 3 20 31 45 62
24 31 43 59 41 60 -2 2 -29 -10 -61 -27 -57 -30 -105 -36 -112 -14 -2 6 13 17
34 26 45 17 127 68 121 74 -3 2 -32 -5 -66 -17 -64 -22 -123 -22 -130 -2 -4
15 1 17 85 33 35 7 71 19 80 26 15 11 8 12 -47 8 -48 -4 -70 -2 -84 9 -33 25
-10 37 72 37 60 0 88 -5 127 -24z m-992 -218 c9 -7 22 -39 28 -71 13 -63 4
-82 -33 -73 -10 2 -18 0 -18 -4 0 -13 23 -18 47 -9 17 6 22 3 27 -16 3 -13 8
-29 11 -37 6 -16 -50 -52 -69 -45 -15 6 -40 93 -31 108 11 17 -12 9 -30 -11
-21 -24 -63 -26 -71 -5 -9 23 15 72 52 104 24 22 29 31 18 35 -8 3 -14 12 -14
21 0 19 58 21 83 3z m1481 -97 c25 -38 63 -86 85 -108 34 -33 44 -51 61 -118
11 -43 19 -80 17 -81 -2 -2 -40 19 -84 46 -92 57 -179 139 -247 234 -71 100
-73 96 33 96 l91 0 44 -69z"/>
<path d="M1873 1699 c-37 -24 -40 -35 -17 -67 13 -19 24 -22 83 -22 81 0 103
15 81 55 -12 22 -74 55 -103 55 -6 0 -27 -10 -44 -21z"/>
<path d="M530 2534 c-94 -85 -102 -152 -34 -285 32 -61 49 -108 53 -147 l7
-57 17 33 c10 18 16 41 14 50 -3 12 -5 11 -6 -5 -2 -38 -18 -34 -25 7 -3 22
-26 78 -51 125 -55 105 -59 149 -17 216 16 24 39 53 51 64 l23 20 -9 -40 c-13
-65 -9 -119 12 -151 l20 -29 3 31 3 31 46 -44 c45 -44 45 -45 41 -103 -2 -32
-12 -70 -22 -85 l-18 -28 -18 53 c-10 28 -25 59 -35 68 -17 16 -17 16 -11 -1
3 -10 6 -23 6 -28 0 -6 4 -8 9 -5 11 7 31 -46 31 -80 0 -17 4 -22 15 -17 27
10 55 79 55 134 0 45 -4 55 -35 86 -20 20 -42 48 -50 62 l-14 26 -7 -32 c-3
-18 -10 -30 -14 -28 -17 11 -20 82 -6 135 8 30 13 56 11 58 -2 2 -22 -13 -45
-34z"/>
<path d="M311 2325 c-40 -46 -59 -84 -67 -132 -8 -52 13 -93 70 -135 55 -41
86 -93 86 -146 0 -23 4 -43 9 -46 16 -10 36 58 36 121 0 34 3 56 7 50 4 -7 8
-20 8 -29 0 -10 4 -18 9 -18 12 0 21 36 21 87 0 35 -5 46 -34 70 -45 38 -58
66 -50 108 7 39 0 45 -15 16 -16 -29 5 -80 50 -123 35 -33 39 -42 39 -85 -1
-44 -2 -46 -15 -28 -41 57 -48 57 -33 -3 11 -45 2 -136 -13 -127 -5 4 -9 15
-9 27 0 39 -34 90 -85 129 -29 22 -58 53 -65 69 -16 39 -6 93 28 150 l27 45 5
-55 c8 -87 62 -153 59 -72 l-2 37 -6 -35 -7 -35 -17 32 c-19 35 -22 98 -7 137
13 34 8 33 -29 -9z"/>
<path d="M1015 2299 l-47 -50 7 -63 c5 -42 3 -71 -5 -86 -16 -30 -8 -34 36
-15 86 36 133 114 119 199 -10 56 -24 81 -25 41 0 -16 -5 -37 -10 -45 -7 -11
-10 -6 -10 22 0 20 -4 39 -9 42 -5 3 -30 -17 -56 -45z m46 -49 c-13 -40 12
-30 29 11 14 33 30 30 30 -6 0 -47 -32 -106 -73 -136 -22 -16 -45 -29 -51 -29
-7 0 -11 30 -11 86 l0 86 40 35 40 35 3 -27 c2 -14 -1 -39 -7 -55z"/>
<path d="M730 2163 c0 -20 -19 -45 -79 -102 -62 -59 -81 -84 -86 -113 -9 -49
-4 -68 23 -86 22 -14 22 -14 22 24 1 52 18 72 92 109 69 33 93 69 70 105 -7
11 -12 28 -12 39 0 26 -10 51 -21 51 -5 0 -9 -12 -9 -27z m32 -65 c10 -33 9
-41 -8 -59 -10 -12 -42 -32 -70 -44 -58 -25 -84 -56 -84 -97 0 -33 -16 -37
-25 -7 -18 55 6 95 113 192 23 21 45 51 49 65 6 23 8 24 10 7 2 -11 9 -37 15
-57z"/>
<path d="M1145 2096 c-12 -19 -43 -42 -77 -58 -63 -30 -98 -71 -120 -141 -18
-55 -10 -66 29 -38 16 11 55 27 87 36 64 18 116 60 116 94 0 27 -8 26 -37 -1
-33 -31 -40 -14 -9 22 28 34 40 66 34 98 -3 17 -6 15 -23 -12z m15 -20 c0 -7
-16 -34 -35 -59 -19 -25 -35 -50 -35 -56 0 -14 30 -2 58 22 20 18 22 19 22 3
0 -29 -45 -64 -106 -81 -33 -10 -70 -24 -82 -32 -30 -19 -34 -15 -22 28 18 63
44 93 112 127 37 18 69 40 72 48 7 18 16 18 16 0z"/>
<path d="M670 1931 c-15 -28 -12 -38 4 -16 13 18 14 18 25 -3 13 -25 14 -62 2
-81 -13 -20 -38 2 -44 37 l-4 27 -2 -26 c0 -14 5 -34 13 -45 12 -15 18 -17 34
-8 15 10 21 8 30 -7 7 -10 17 -19 23 -19 13 0 56 -40 43 -40 -5 0 -1 -5 9 -11
9 -5 17 -22 17 -36 l0 -27 -30 29 c-17 17 -26 31 -20 35 6 4 2 14 -10 25 -14
13 -24 15 -31 8 -14 -14 8 -50 34 -57 10 -2 16 -9 12 -15 -9 -15 -21 -14 -39
5 -9 8 -16 11 -16 6 0 -18 30 -34 52 -29 25 7 48 -8 48 -30 0 -15 -12 -15 -55
3 -18 7 -19 6 -6 -9 8 -10 11 -20 8 -23 -9 -9 -27 5 -27 22 0 8 -10 14 -26 14
-22 0 -25 4 -21 28 2 15 2 21 0 15 -3 -7 -9 -13 -14 -13 -14 0 -11 38 4 43 9
4 9 6 -1 6 -19 1 -27 -29 -13 -50 6 -11 8 -19 3 -19 -14 0 -32 23 -32 42 0 10
-9 27 -20 38 -24 24 -27 14 -3 -12 19 -22 10 -36 -12 -18 -9 7 -18 10 -22 7
-3 -4 -14 -2 -24 4 -20 10 -22 9 -13 -14 3 -8 13 -13 22 -10 9 2 26 -3 37 -12
l20 -16 -20 5 c-11 3 -37 8 -57 12 -21 3 -35 11 -32 16 4 7 0 7 -12 0 -27 -14
-61 2 -84 40 -11 18 -20 27 -20 21 0 -26 58 -76 135 -116 60 -32 89 -54 115
-90 l35 -47 3 29 c2 16 -4 46 -12 67 -14 34 -14 37 -1 19 20 -25 32 -72 44
-168 5 -43 16 -89 25 -102 18 -27 85 -65 113 -65 10 1 1 7 -20 14 -44 16 -104
71 -88 81 13 8 14 55 2 74 -6 10 -8 0 -4 -29 5 -32 3 -41 -6 -36 -8 5 -11 25
-10 52 2 24 0 46 -4 50 -10 10 -9 44 1 44 4 0 14 -6 21 -12 10 -11 17 -7 37
17 34 42 47 88 40 143 -3 26 -6 58 -7 72 0 14 -3 19 -6 13 -6 -17 -43 2 -43
21 0 8 -8 20 -17 27 -16 13 -17 12 -4 -4 8 -9 11 -20 8 -23 -11 -12 -25 7 -31
43 -10 51 -28 103 -38 103 -4 0 -12 -9 -18 -19z"/>
<path d="M140 1796 c0 -8 5 -18 10 -21 21 -13 8 -20 -32 -18 -33 2 -37 0 -18
-5 23 -7 23 -9 6 -15 -19 -7 -19 -8 3 -23 14 -11 32 -14 49 -10 15 4 35 7 46
7 18 0 18 0 0 14 -16 12 -17 14 -3 15 9 0 22 -6 28 -13 8 -11 5 -17 -14 -27
-13 -7 -22 -17 -19 -21 3 -5 0 -18 -6 -29 -6 -11 -8 -20 -5 -20 3 0 12 15 20
33 l14 32 1 -31 c0 -35 11 -48 55 -59 l30 -9 -35 -6 -35 -7 35 -2 c51 -1 62 9
39 38 -10 13 -19 18 -19 12 0 -6 -11 -11 -24 -11 -19 0 -23 4 -19 20 3 11 0
26 -6 33 -16 21 -3 27 58 29 l56 1 -45 7 c-37 6 -34 7 22 5 l67 -4 -9 27 c-16
52 -20 57 -15 20 7 -42 -2 -47 -33 -19 -23 19 -31 48 -10 35 7 -5 8 -3 3 5 -5
9 -10 10 -18 2 -9 -9 -8 -17 1 -31 11 -17 10 -20 -8 -20 -12 0 -20 7 -20 18 0
15 -2 15 -10 2 -9 -13 -12 -12 -25 4 -15 20 -15 20 -15 0 -1 -18 -2 -18 -14
-2 -10 13 -15 15 -24 6 -9 -9 -17 -7 -34 10 -13 13 -17 22 -10 22 7 0 10 5 7
10 -9 15 -25 12 -25 -4z"/>
<path d="M398 1683 c10 -4 9 -8 -5 -19 -17 -12 -16 -13 5 -7 12 3 22 1 22 -5
0 -14 -36 -25 -52 -16 -10 5 -10 4 0 -7 10 -11 18 -11 45 4 28 15 38 16 60 6
l27 -12 -22 -19 c-11 -10 -28 -18 -37 -19 -11 0 -12 -2 -3 -6 7 -3 24 3 39 12
20 13 31 15 49 6 25 -11 24 -41 -1 -41 -22 0 -27 18 -8 23 17 4 17 5 0 6 -10
0 -20 -6 -23 -14 -4 -10 -20 -15 -48 -15 -43 0 -75 23 -105 75 l-11 20 2 -20
c2 -11 10 -25 18 -32 13 -11 13 -12 0 -13 -13 0 -13 -1 0 -10 12 -8 11 -10 -6
-10 -16 0 -23 -8 -28 -30 -3 -19 -14 -34 -28 -40 -18 -7 -19 -9 -5 -9 10 -1
27 14 38 34 20 34 39 46 39 25 0 -5 5 -10 11 -10 5 0 8 4 5 8 -2 4 28 6 67 4
69 -3 74 -5 107 -41 20 -21 48 -64 64 -96 32 -63 55 -82 107 -90 27 -5 23 -2
-16 12 -37 13 -50 23 -48 36 0 10 -1 16 -4 13 -5 -4 -113 159 -113 170 0 2 6
4 13 4 21 0 53 -40 81 -100 14 -30 26 -49 26 -41 0 25 -61 128 -98 164 -39 38
-148 108 -166 106 -6 0 -5 -3 2 -6z"/>
<path d="M385 573 c-11 -3 -39 -19 -62 -36 -34 -24 -44 -38 -52 -75 -5 -26 -7
-50 -5 -54 3 -4 26 -22 51 -39 44 -31 51 -32 169 -37 l122 -5 16 31 c31 61 22
91 -47 160 -62 61 -63 62 -117 61 -30 -1 -64 -4 -75 -6z m185 -63 c29 -34 51
-62 49 -64 -43 -37 -118 -34 -223 10 -48 20 -89 34 -92 32 -2 -3 34 -22 81
-43 76 -34 91 -37 147 -33 35 3 71 8 81 13 21 9 22 -4 2 -52 l-15 -36 -110 5
c-95 5 -115 9 -155 33 -55 32 -61 45 -47 94 20 64 81 95 199 100 26 1 39 -8
83 -59z"/>
<path d="M1890 370 c-64 -13 -145 -51 -178 -83 -28 -27 -82 -106 -82 -120 0
-2 25 -21 55 -41 55 -36 55 -36 166 -36 110 0 112 0 169 36 48 29 62 34 78 25
47 -25 126 -4 140 37 9 29 -5 104 -23 121 -5 5 -28 14 -50 20 -34 9 -44 8 -80
-14 l-41 -24 -60 34 c-32 18 -58 38 -56 44 1 6 1 10 0 10 -2 -1 -19 -5 -38 -9z
m84 -56 c42 -25 76 -48 76 -52 0 -20 -42 -43 -106 -58 l-73 -17 -71 46 c-38
26 -70 51 -70 55 0 7 136 66 161 71 4 0 41 -20 83 -45z m-154 -111 c50 -33 98
-29 223 22 14 6 17 2 17 -26 0 -30 -6 -37 -50 -61 -46 -26 -59 -28 -160 -28
-101 0 -112 2 -155 27 -49 30 -49 31 -10 93 l26 41 37 -22 c20 -13 53 -33 72
-46z"/>
<path d="M703 319 c-30 -9 -63 -50 -63 -79 0 -6 25 -23 56 -37 41 -19 64 -23
90 -19 32 6 34 9 34 45 0 32 -6 45 -35 70 -20 17 -39 31 -43 30 -4 0 -22 -5
-39 -10z"/>
</g>
</svg>
