<?xml version="1.0" standalone="no"?>
<!DOCTYPE svg PUBLIC "-//W3C//DTD SVG 20010904//EN"
 "http://www.w3.org/TR/2001/REC-SVG-20010904/DTD/svg10.dtd">
<svg version="1.0" xmlns="http://www.w3.org/2000/svg"
 width="915.000000pt" height="1229.000000pt" viewBox="0 0 915.000000 1229.000000"
 preserveAspectRatio="xMidYMid meet">
<metadata>
Created by potrace 1.16, written by Peter Selinger 2001-2019
</metadata>
<g transform="translate(0.000000,1229.000000) scale(0.100000,-0.100000)"
fill="#000000" stroke="none">
<path d="M4610 12260 c-150 -9 -441 -38 -505 -50 -27 -5 -95 -14 -150 -20
-226 -24 -465 -67 -620 -112 -597 -170 -1071 -472 -1418 -901 -234 -289 -410
-733 -506 -1277 -37 -208 -52 -400 -66 -830 -15 -445 -21 -502 -75 -681 -67
-223 -42 -377 85 -533 l45 -56 -11 -122 c-21 -249 -75 -338 -346 -569 -250
-213 -356 -328 -418 -449 -134 -265 -121 -650 37 -1037 21 -51 21 -53 3 -120
-79 -303 -88 -490 -40 -853 22 -163 19 -188 -55 -490 -53 -216 -80 -457 -80
-711 0 -93 -5 -169 -14 -206 -8 -32 -24 -113 -37 -180 -18 -99 -26 -126 -43
-136 -19 -13 -82 -34 -235 -82 -29 -9 -78 -25 -107 -36 -49 -19 -54 -23 -54
-51 l0 -30 33 20 c17 11 84 36 147 56 63 19 141 44 173 55 l59 20 -6 -37 c-36
-225 -40 -298 -41 -652 0 -407 4 -447 86 -864 89 -458 102 -679 60 -1046 -5
-47 -12 -129 -16 -182 l-7 -98 25 0 c24 0 24 1 31 118 4 64 14 176 23 247 30
251 8 568 -67 950 -90 459 -110 694 -92 1062 11 218 48 539 76 661 l13 57 7
-95 c52 -676 168 -1138 420 -1674 54 -115 55 -128 30 -380 -15 -161 -49 -332
-99 -501 -15 -49 -35 -119 -45 -155 -11 -36 -37 -116 -59 -178 l-40 -113 26 3
c20 2 29 12 40 43 12 34 93 289 138 435 54 177 97 484 110 795 6 137 18 284
46 565 10 97 40 258 74 390 8 30 21 109 30 175 17 133 11 261 -25 470 -10 61
-24 182 -29 270 -13 190 -31 262 -101 399 l-51 98 21 32 c11 17 27 45 36 63
30 56 10 94 -121 234 -63 67 -115 128 -115 136 0 31 113 48 218 33 94 -15 218
-53 292 -90 216 -109 318 -273 415 -670 46 -186 75 -290 152 -539 41 -134 77
-250 80 -257 3 -8 -38 -34 -124 -75 -70 -35 -148 -77 -173 -95 -71 -51 -109
-114 -68 -114 5 0 34 21 63 47 98 89 761 408 1040 501 108 36 175 55 425 124
70 19 257 81 702 234 204 70 336 106 643 179 110 26 274 67 365 91 91 24 192
46 225 49 55 4 57 4 20 -5 -62 -16 -128 -42 -147 -58 -10 -8 -25 -34 -34 -59
-16 -42 -16 -48 0 -98 12 -38 29 -64 61 -94 55 -50 80 -52 227 -15 57 14 112
27 123 30 l20 5 -20 -16 c-38 -31 -130 -73 -295 -133 -91 -34 -226 -84 -300
-112 -74 -29 -209 -78 -300 -110 -170 -60 -201 -73 -430 -182 -74 -36 -169
-80 -210 -98 -41 -18 -93 -43 -115 -55 -49 -28 -230 -87 -310 -100 -22 -4 -99
-20 -172 -36 -221 -49 -343 -93 -343 -125 0 -25 26 -27 70 -4 67 34 234 79
430 116 101 18 189 43 285 79 415 155 949 323 1350 425 199 51 332 87 343 94
4 3 75 16 157 30 115 20 182 26 302 26 159 0 184 -8 91 -30 -103 -24 -193 -53
-212 -69 -62 -53 -61 -185 1 -267 41 -54 67 -59 187 -35 141 28 165 27 103 -5
-56 -29 -147 -62 -272 -99 -109 -32 -181 -59 -440 -162 -110 -44 -299 -119
-420 -166 -121 -48 -231 -91 -245 -96 -14 -6 -135 -55 -270 -109 l-245 -100
-18 34 c-46 89 -136 145 -242 151 -87 6 -333 -21 -400 -43 -93 -31 -171 -107
-194 -189 -23 -85 1 -386 40 -490 39 -104 151 -188 258 -194 8 -1 1 -15 -19
-38 -57 -64 -63 -92 -56 -233 4 -69 14 -151 23 -182 18 -68 68 -130 126 -160
38 -19 52 -20 157 -15 63 4 144 14 179 22 35 9 66 13 68 11 9 -9 -56 -94 -105
-137 -27 -24 -124 -89 -216 -144 -92 -55 -194 -122 -227 -149 -33 -26 -92 -68
-132 -92 l-71 -44 49 0 c45 0 56 5 162 85 62 47 141 102 176 121 290 165 348
218 434 391 47 96 58 129 61 179 l4 62 40 6 c101 16 177 106 197 232 11 71
-11 374 -33 453 -28 101 -112 187 -193 198 l-40 5 -6 56 c-4 39 -2 59 6 64 11
7 201 84 487 198 134 54 153 61 405 160 251 98 307 120 405 161 135 55 413
149 446 149 7 0 14 -48 18 -139 12 -235 39 -382 107 -578 28 -81 71 -206 96
-278 66 -192 94 -332 100 -506 5 -127 3 -155 -16 -229 -33 -126 -72 -212 -177
-387 -98 -163 -147 -273 -159 -355 -7 -46 -6 -48 17 -48 23 0 26 5 31 49 8 69
53 169 142 316 105 173 148 263 181 375 26 86 28 109 28 245 -1 226 -49 434
-174 760 -85 219 -118 384 -127 626 l-6 176 34 12 c44 16 130 72 213 139 58
47 68 61 82 109 9 31 13 68 10 86 -17 85 -94 163 -151 153 -17 -3 -56 3 -90
13 -68 21 -57 2 -106 201 -27 114 -37 294 -19 353 9 31 46 76 159 191 117 121
203 216 238 265 7 10 14 -11 27 -85 13 -71 45 -174 135 -424 53 -146 73 -239
78 -356 8 -170 -22 -297 -144 -609 -91 -232 -103 -265 -129 -364 -30 -118 -41
-282 -25 -406 15 -121 52 -266 146 -565 58 -188 69 -253 70 -405 0 -162 3
-146 -85 -437 -44 -144 -70 -277 -70 -360 0 -55 1 -58 25 -58 24 0 25 2 25 68
1 86 20 190 60 322 61 203 90 326 96 405 9 123 -17 276 -86 505 -120 393 -131
443 -137 616 -4 95 -1 176 6 218 14 82 72 257 141 431 124 312 154 427 154
600 1 132 -18 231 -75 385 -112 309 -137 394 -153 535 -6 50 -5 52 55 130 98
126 215 310 268 420 69 144 95 221 166 500 25 99 47 180 49 182 1 2 6 -83 9
-189 4 -106 11 -240 17 -298 22 -228 43 -609 47 -885 8 -444 -17 -604 -160
-1038 -41 -122 -83 -251 -95 -287 -100 -318 -136 -612 -113 -925 21 -287 79
-767 111 -916 36 -164 48 -197 207 -529 33 -69 73 -153 88 -188 23 -51 32 -62
51 -62 13 0 24 2 24 4 0 6 -114 252 -185 401 -109 227 -139 329 -176 598 -61
449 -83 722 -76 957 8 271 37 417 155 775 201 608 217 692 216 1140 0 269 -15
544 -55 1045 -15 192 -15 692 0 755 32 129 92 625 121 990 11 138 25 315 32
395 6 80 12 287 12 460 1 278 -2 330 -21 445 -35 209 -64 485 -61 576 l3 84
41 -38 c48 -43 55 -68 79 -297 39 -382 31 -275 86 -1150 20 -313 21 -366 10
-570 -7 -124 -16 -254 -21 -290 -5 -36 -16 -119 -25 -185 -15 -114 -30 -206
-75 -445 -42 -224 -52 -448 -30 -667 6 -59 29 -232 50 -385 95 -663 72 -1194
-85 -1983 -74 -372 -92 -504 -105 -792 -15 -300 4 -714 41 -913 85 -461 144
-716 198 -855 15 -40 24 -51 45 -53 26 -3 33 6 18 24 -11 12 -57 135 -76 205
-15 55 -87 403 -131 638 -13 69 -30 177 -37 240 -17 155 -17 815 0 966 13 107
58 366 107 610 86 431 125 792 125 1170 0 323 -13 476 -70 860 -37 244 -44
330 -43 505 1 181 13 291 58 535 63 342 105 731 105 980 0 154 -22 634 -35
752 -3 26 -12 156 -20 288 -8 132 -17 256 -20 275 -3 19 -14 120 -25 223 -11
103 -22 192 -25 197 -3 5 -1 11 3 14 5 3 65 -48 134 -114 l124 -118 -9 -74
c-5 -40 -8 -217 -7 -393 5 -468 5 -455 -18 -775 -35 -473 -47 -1178 -33 -1863
6 -318 16 -651 21 -740 5 -89 17 -310 25 -492 8 -181 20 -382 25 -445 5 -63
16 -259 25 -435 8 -176 17 -378 21 -450 8 -184 -16 -421 -65 -635 -76 -330
-81 -362 -93 -588 -25 -456 29 -964 132 -1261 34 -95 39 -104 68 -99 19 3 18
6 -11 78 -63 157 -115 436 -138 730 -7 89 -9 259 -6 440 6 319 6 321 87 670
17 74 38 176 46 225 32 199 29 584 -12 1190 -13 205 -39 677 -66 1240 -16 330
-16 1875 0 2150 6 116 15 242 19 280 l7 70 12 -120 c6 -66 19 -190 29 -275 17
-149 17 -161 -1 -335 -37 -364 -15 -908 66 -1610 16 -138 79 -615 119 -905 11
-80 29 -212 40 -295 34 -248 76 -538 116 -790 47 -294 47 -758 0 -1075 -42
-288 -44 -594 -6 -892 25 -197 44 -552 35 -680 l-7 -98 27 0 26 0 0 198 c0
225 -11 391 -42 647 -36 289 -31 487 22 880 5 39 15 168 22 288 15 276 2 512
-47 852 -20 132 -51 350 -70 485 -19 135 -37 261 -40 280 -18 116 -93 656
-116 835 -87 701 -122 1159 -117 1530 5 292 15 355 34 205 53 -416 138 -921
248 -1470 8 -41 24 -129 36 -195 29 -168 50 -262 145 -650 46 -187 96 -394
110 -460 57 -267 65 -305 89 -435 14 -74 30 -160 35 -190 5 -30 22 -134 39
-230 69 -391 77 -483 77 -865 -1 -294 -4 -384 -24 -565 -34 -325 -94 -701
-151 -950 -48 -210 -46 -190 -18 -190 21 0 25 7 35 53 7 28 24 106 38 172 38
173 65 333 115 669 5 32 11 60 14 63 10 10 125 -244 149 -332 31 -108 55 -292
64 -484 6 -141 6 -141 30 -141 l24 0 -6 117 c-9 161 -33 385 -50 461 -24 104
-84 251 -148 362 l-60 105 17 170 c9 93 16 200 16 237 0 53 3 66 14 62 19 -7
192 -223 265 -331 74 -109 116 -198 169 -358 48 -145 121 -437 157 -635 15
-80 29 -155 31 -167 3 -16 11 -23 28 -23 l23 0 -18 102 c-63 369 -180 790
-265 961 -60 118 -209 325 -331 457 l-60 65 -5 194 -4 194 90 -94 c374 -395
587 -783 714 -1304 9 -35 10 -30 11 52 1 81 -3 106 -35 200 -143 432 -351 771
-675 1099 l-109 111 58 115 c76 150 142 316 178 446 9 34 20 64 23 66 12 7
201 -119 283 -190 91 -77 191 -195 241 -283 l32 -56 3 44 c3 37 -2 52 -35 99
-94 137 -279 302 -446 398 -65 37 -68 41 -64 69 3 17 13 73 22 125 23 129 16
446 -13 606 -34 188 -63 269 -181 517 -28 59 -51 110 -51 113 0 3 17 31 38 62
184 272 287 568 314 896 18 220 -11 517 -72 747 -46 173 -261 664 -396 904
-157 279 -207 417 -233 637 -8 70 -16 245 -12 271 0 4 35 -33 77 -83 266 -320
503 -472 656 -421 49 16 102 76 134 151 25 58 28 77 28 175 0 100 -2 116 -29
175 -58 129 -108 195 -305 396 -280 288 -361 401 -411 568 -5 16 -11 135 -14
263 -19 914 -242 1673 -652 2221 -233 310 -610 610 -1042 826 -549 276 -1205
405 -1851 366z m690 -70 c650 -79 1216 -312 1723 -708 308 -240 527 -509 697
-857 71 -146 85 -177 151 -360 95 -261 168 -589 211 -950 32 -275 32 -694 0
-950 -20 -158 -51 -353 -58 -364 -3 -3 -202 169 -503 433 -75 65 -204 187
-287 270 -191 192 -208 222 -207 376 1 58 8 157 17 220 60 447 36 734 -84
1016 -283 666 -1067 1203 -1758 1204 -133 0 -369 -31 -502 -66 -389 -104 -665
-252 -901 -484 -254 -251 -415 -548 -496 -920 -25 -116 -27 -141 -27 -365 -1
-214 2 -252 23 -349 31 -149 27 -233 -14 -277 -45 -47 -86 -64 -261 -107 -498
-125 -1180 -433 -1522 -687 -37 -27 -99 -82 -139 -122 -80 -81 -83 -80 -83 32
0 63 8 102 58 300 39 151 52 299 52 583 0 721 145 1400 393 1837 239 421 671
789 1177 1003 323 136 602 204 1005 246 83 9 179 21 215 27 174 27 392 38 710
34 179 -2 363 -9 410 -15z m128 -735 c463 -73 960 -378 1261 -774 201 -264
304 -506 332 -781 13 -134 6 -378 -17 -550 -23 -175 -29 -342 -14 -396 7 -25
30 -71 50 -102 50 -77 247 -274 470 -467 322 -280 475 -416 487 -433 9 -14 8
-31 -7 -86 -11 -39 -24 -74 -28 -78 -11 -11 -156 118 -419 375 -357 348 -526
502 -619 564 -60 40 -70 65 -85 207 -12 107 -5 240 22 426 26 180 36 455 19
557 -31 191 -156 466 -284 624 -12 14 -34 43 -51 65 -154 199 -353 378 -531
476 -348 191 -823 249 -1304 157 -334 -64 -523 -164 -772 -412 -246 -245 -389
-490 -460 -792 -41 -174 -26 -450 37 -680 8 -27 22 -102 31 -165 24 -168 9
-267 -50 -337 -53 -61 -199 -110 -476 -158 -488 -84 -595 -115 -862 -249 -286
-144 -625 -396 -721 -535 l-30 -45 -29 35 c-16 19 -38 50 -48 70 -18 34 -18
37 -2 61 110 165 463 391 952 611 256 114 495 199 750 263 196 50 260 80 305
143 28 41 30 48 29 139 0 58 -7 123 -17 161 -9 35 -22 125 -27 200 -32 451
101 897 369 1236 58 73 214 226 288 281 336 253 775 400 1206 403 89 1 186 -5
245 -14z m-142 -225 l44 0 0 -67 c0 -275 108 -452 450 -741 109 -93 256 -238
307 -304 53 -69 118 -196 132 -258 6 -25 11 -71 11 -104 l0 -59 -42 7 c-280
46 -652 84 -1048 108 -286 17 -1282 17 -1468 0 -79 -7 -146 -11 -149 -9 -2 3
2 19 11 35 37 71 178 161 411 263 11 4 63 25 115 45 394 151 529 296 644 694
13 47 34 119 46 160 40 140 71 210 96 216 38 10 276 22 338 18 32 -2 79 -4
102 -4z m309 -40 c137 -31 131 -27 139 -110 8 -94 45 -196 100 -279 25 -37
105 -130 177 -207 72 -76 158 -179 191 -227 79 -117 160 -281 202 -408 32 -97
74 -314 63 -325 -3 -3 -22 3 -44 14 -21 11 -54 23 -73 27 -71 14 -70 13 -70
64 0 162 -93 353 -253 520 -29 29 -115 107 -192 174 -349 300 -427 414 -455
658 -15 129 -12 133 64 126 33 -3 102 -15 151 -27z m-871 -122 c-23 -73 -54
-173 -69 -223 -74 -251 -161 -400 -290 -495 -56 -42 -181 -107 -260 -135 -27
-10 -54 -22 -60 -25 -5 -4 -28 -13 -50 -20 -58 -19 -256 -113 -327 -156 -34
-21 -86 -58 -116 -82 l-54 -44 5 29 c3 15 11 59 18 96 13 67 14 69 53 85 22 9
70 31 106 50 229 122 396 299 480 511 67 170 167 339 248 420 42 42 57 49 147
73 117 32 174 46 196 47 13 1 8 -23 -27 -131z m1201 6 c50 -25 121 -66 160
-92 l69 -47 21 -90 c27 -118 89 -241 170 -340 181 -219 245 -318 286 -440 22
-64 24 -87 24 -260 l0 -190 -55 3 c-88 5 -84 0 -98 119 -23 193 -126 451 -260
650 -63 93 -107 146 -237 281 -143 150 -210 270 -222 400 l-6 65 29 -7 c16 -4
70 -28 119 -52z m-1611 -37 c-54 -62 -108 -159 -184 -328 -33 -72 -74 -157
-92 -187 -48 -81 -170 -201 -273 -268 -94 -61 -191 -111 -200 -102 -9 9 32
115 86 219 123 240 385 523 611 661 65 40 84 42 52 5z m2032 -279 c303 -309
468 -613 494 -910 10 -113 3 -288 -11 -288 -4 0 -32 9 -62 21 l-55 21 -4 196
c-5 169 -8 207 -28 267 -42 131 -97 222 -244 400 -50 60 -105 131 -123 157
-45 68 -116 258 -95 258 4 0 62 -55 128 -122z m-1306 -988 c205 -10 767 -55
815 -66 11 -2 88 -13 170 -24 370 -49 415 -67 473 -190 25 -51 26 -65 26 -200
0 -136 -1 -148 -26 -203 -15 -32 -37 -72 -49 -89 -27 -37 -106 -75 -174 -81
-68 -7 -447 11 -625 28 -961 97 -1524 95 -1934 -6 -66 -16 -121 -27 -123 -25
-3 2 0 35 5 72 11 77 -4 238 -33 359 -52 222 -76 387 -57 399 14 9 182 25 362
36 181 10 845 4 1170 -10z m1611 -206 c97 -18 179 -52 179 -74 0 -8 -8 -55
-17 -105 -18 -100 -25 -459 -10 -552 l9 -53 -29 9 c-32 10 -159 40 -310 72
l-102 22 43 27 c89 57 140 154 159 304 13 101 -2 220 -37 300 -14 32 -26 60
-26 62 0 8 62 3 141 -12z m-1741 -604 c69 -6 217 -17 330 -25 112 -8 270 -22
350 -30 80 -8 255 -22 390 -30 240 -15 369 -29 381 -43 3 -4 14 -27 23 -52 26
-71 51 -123 205 -434 242 -492 333 -706 397 -941 30 -111 32 -186 14 -415 -6
-69 -17 -212 -25 -319 -46 -604 -128 -1116 -260 -1631 -51 -201 -145 -424
-242 -574 -54 -84 -251 -348 -335 -450 -103 -124 -510 -508 -611 -576 l-92
-62 -11 39 c-16 54 -48 114 -73 137 -19 17 -38 19 -184 19 -159 1 -165 0 -322
-42 -171 -45 -344 -89 -490 -123 -140 -32 -316 -78 -360 -93 -133 -45 -150
-48 -186 -30 -151 78 -395 270 -595 470 -168 167 -265 282 -369 439 -84 126
-235 416 -279 536 -140 381 -222 719 -306 1265 -107 684 -104 636 -97 1570 4
575 6 597 48 739 37 124 48 138 136 178 135 61 249 92 533 142 271 49 312 57
388 77 135 36 208 68 251 109 42 41 90 59 246 94 64 14 291 50 375 59 78 8
653 6 770 -3z m1716 -180 c141 -31 233 -62 275 -91 25 -18 26 -22 32 -161 5
-128 40 -434 67 -593 15 -91 33 -392 25 -433 -6 -35 -8 -33 -40 63 -67 201
-121 323 -369 829 -140 283 -196 404 -196 422 0 8 40 1 206 -36z m1534 -301
c0 -17 74 -140 127 -210 26 -35 113 -131 194 -214 240 -247 297 -317 356 -441
26 -54 28 -69 28 -174 0 -106 -2 -120 -28 -172 -61 -124 -153 -148 -292 -77
-130 67 -380 313 -508 501 -31 44 -37 60 -29 74 32 61 93 357 112 539 17 172
21 196 31 190 5 -4 9 -11 9 -16z m-5995 -167 c-35 -128 -45 -209 -49 -432 -3
-118 -11 -232 -21 -290 -69 -396 -283 -1035 -534 -1593 -96 -213 -146 -311
-227 -442 -126 -205 -177 -312 -230 -478 -88 -275 -86 -587 6 -825 18 -46 30
-85 28 -87 -1 -1 -34 4 -73 12 -98 21 -240 14 -286 -13 -32 -19 -37 -20 -67
-5 -24 11 -38 12 -50 5 -28 -18 -44 -60 -36 -99 6 -34 25 -62 144 -213 29 -36
50 -73 50 -87 0 -14 -11 -92 -25 -174 -32 -201 -57 -507 -57 -726 0 -381 67
-754 211 -1180 43 -126 51 -204 32 -315 l-8 -45 -22 50 c-178 388 -275 699
-335 1070 -108 671 -110 1236 -6 1685 11 47 33 146 50 220 92 403 152 616 226
798 20 48 46 112 59 142 12 30 48 112 78 182 31 70 86 207 122 305 36 98 72
194 80 213 8 19 30 78 49 130 35 96 53 142 86 215 36 81 162 372 195 450 135
318 264 702 335 1000 17 72 34 146 39 165 5 19 21 107 36 195 l28 161 96 51
c53 28 97 49 99 48 2 -1 -9 -44 -23 -93z m-229 -69 c-3 -10 -12 -61 -21 -113
-38 -234 -115 -531 -211 -819 -49 -143 -148 -410 -174 -466 -5 -11 -23 -54
-40 -95 -17 -41 -35 -84 -40 -95 -62 -136 -149 -338 -176 -410 -19 -49 -39
-101 -45 -115 -6 -14 -37 -97 -69 -185 -32 -88 -63 -171 -69 -185 -6 -14 -26
-65 -45 -115 -28 -72 -131 -314 -176 -410 -50 -107 -116 -308 -171 -520 l-23
-90 -14 85 c-8 48 -14 174 -15 290 -2 166 2 223 17 300 40 200 114 425 210
634 72 156 248 525 413 866 125 258 133 275 190 415 92 227 153 522 153 740 0
90 0 90 33 116 68 55 259 189 269 189 5 0 7 -8 4 -17z m5616 -151 l37 -37 -21
-80 c-19 -71 -21 -108 -21 -315 0 -290 18 -437 115 -915 17 -82 41 -202 54
-265 60 -284 117 -618 139 -815 11 -96 51 -321 80 -440 29 -125 201 -641 280
-845 65 -165 101 -250 195 -450 39 -85 76 -164 81 -175 21 -49 60 -211 80
-330 31 -188 31 -437 0 -600 -40 -212 -109 -420 -202 -609 -48 -96 -51 -95
-63 11 -6 54 -3 73 24 149 46 131 87 302 111 469 52 359 -6 736 -155 1020 -29
55 -112 185 -185 290 -253 363 -273 415 -387 1025 -80 427 -177 1080 -219
1470 -8 80 -17 156 -20 170 -2 14 -17 165 -32 335 -23 264 -27 362 -28 660 0
193 3 358 8 368 6 17 11 15 49 -18 24 -19 60 -52 80 -73z m129 -129 l46 -48
-18 -105 c-12 -69 -19 -158 -20 -260 -2 -372 85 -732 302 -1256 118 -284 181
-499 226 -769 27 -163 25 -534 -5 -744 -20 -143 -26 -171 -36 -160 -2 2 -43
121 -91 264 -118 354 -131 415 -220 1030 -35 243 -54 348 -99 555 -84 392
-112 536 -148 780 -18 128 -23 197 -23 395 0 169 4 259 14 303 7 34 17 62 20
62 4 0 27 -21 52 -47z m-6101 -53 c0 -155 -49 -419 -99 -533 -31 -72 -114
-176 -268 -337 -284 -295 -350 -376 -408 -494 -47 -95 -58 -164 -53 -331 4
-133 6 -144 37 -211 l33 -71 -55 -137 c-30 -75 -58 -138 -62 -139 -12 -3 -52
113 -86 248 -52 210 -51 460 2 624 57 171 158 296 429 525 220 187 294 274
344 408 27 72 46 194 46 300 0 56 5 76 25 109 31 48 94 119 106 119 5 0 9 -36
9 -80z m6238 -73 l31 -32 -14 -95 c-21 -136 -19 -349 5 -500 47 -310 136 -530
368 -917 60 -100 120 -214 135 -255 136 -387 169 -822 91 -1220 -37 -190 -131
-464 -157 -455 -6 2 -21 35 -35 75 l-26 72 17 107 c43 273 50 351 50 563 0
236 -15 363 -72 600 -38 157 -111 377 -161 485 -41 87 -162 422 -213 590 -65
213 -112 539 -104 725 7 155 26 290 42 290 6 0 25 -15 43 -33z m144 -122 c4
-5 8 -55 8 -110 1 -359 62 -584 245 -900 109 -190 313 -639 379 -839 19 -55
47 -173 62 -261 26 -146 29 -181 29 -395 0 -263 -13 -350 -82 -560 -53 -165
-214 -480 -245 -480 -8 0 -58 104 -58 120 0 5 15 34 33 67 80 143 151 402 177
644 13 121 12 387 0 509 -24 224 -92 494 -157 625 -14 28 -65 115 -113 195
-164 271 -267 497 -319 702 -41 160 -54 296 -48 501 3 106 8 202 12 214 l7 23
32 -22 c17 -12 34 -27 38 -33z m-5842 -457 c-8 -135 -10 -292 -5 -468 l7 -265
-30 -82 c-17 -45 -63 -144 -104 -220 -41 -76 -84 -163 -97 -193 -29 -69 -35
-76 -69 -85 -62 -15 -222 -108 -287 -168 -32 -29 -28 -5 14 79 48 98 48 97
166 384 174 423 288 763 390 1163 10 37 20 66 22 63 3 -3 0 -96 -7 -208z
m-759 -195 c-27 -60 -98 -209 -158 -333 -61 -124 -123 -252 -138 -285 -16 -33
-64 -134 -108 -225 -43 -91 -84 -177 -90 -192 -6 -16 -15 -28 -20 -28 -30 0
-63 202 -53 324 17 197 102 330 422 656 73 74 142 147 154 163 42 53 39 26 -9
-80z m790 -645 c0 -7 4 -35 8 -62 8 -44 5 -57 -29 -130 -20 -45 -47 -113 -59
-153 -23 -77 -23 -77 -103 -88 l-48 -6 20 48 c11 26 24 56 30 65 44 77 160
311 160 323 0 18 20 21 21 3z m69 -458 c33 -211 57 -345 84 -470 24 -111 24
-116 7 -140 -71 -101 -82 -168 -81 -515 0 -215 -4 -314 -15 -385 -31 -189 -87
-323 -165 -393 -50 -45 -87 -57 -177 -57 -28 0 -33 3 -29 18 88 283 97 346
106 752 11 481 38 728 122 1110 34 157 51 216 81 284 l22 49 11 -59 c7 -33 22
-120 34 -194z m-186 -37 c-4 -16 -13 -53 -20 -83 -8 -30 -14 -61 -14 -70 0 -9
-30 -30 -80 -54 -182 -87 -351 -259 -454 -463 -40 -80 -73 -176 -103 -298 -23
-96 -26 -131 -27 -280 0 -146 3 -182 22 -255 58 -215 170 -359 333 -427 53
-22 84 -27 176 -31 95 -3 122 -1 185 18 193 60 382 200 531 394 l60 79 16 -34
c9 -19 36 -69 60 -112 l43 -78 -38 -47 c-212 -267 -530 -433 -834 -436 -80 0
-136 5 -185 17 l-70 18 -49 75 c-69 106 -150 175 -274 236 -87 43 -106 56
-122 88 -59 116 -99 279 -107 440 -16 324 140 742 382 1022 127 147 303 254
485 294 86 19 91 18 84 -13z m-57 -265 c-8 -43 -32 -237 -47 -363 -19 -176
-30 -384 -30 -607 0 -170 -4 -241 -20 -335 -20 -119 -74 -320 -91 -337 -5 -6
-36 1 -78 18 -83 33 -183 119 -224 193 -32 60 -29 79 37 191 56 96 70 130 95
228 19 74 52 302 66 459 17 182 91 403 171 511 20 27 92 72 118 74 4 0 6 -15
3 -32z m-217 -117 c0 -6 -4 -12 -9 -15 -26 -16 -94 -264 -111 -401 -5 -49 -19
-166 -30 -260 -22 -190 -52 -300 -104 -385 -18 -30 -41 -70 -50 -87 -9 -18
-20 -33 -25 -33 -4 0 -17 30 -27 68 -30 105 -27 393 5 522 57 227 142 395 271
533 59 64 80 79 80 58z m609 -339 c43 -177 141 -465 205 -606 20 -43 36 -85
36 -93 0 -36 -149 -214 -248 -296 -71 -59 -205 -147 -224 -147 -11 0 -10 17 1
24 16 10 69 133 90 211 42 152 54 288 46 545 -5 188 -3 250 9 311 15 81 40
149 53 149 4 0 19 -44 32 -98z m5624 -974 c25 -35 74 -106 110 -158 36 -52 70
-100 75 -106 5 -6 28 -45 51 -86 162 -295 219 -678 160 -1065 -20 -135 -64
-317 -91 -383 -14 -34 -14 -34 -37 105 -81 501 -156 860 -281 1360 -71 281
-130 536 -130 557 0 7 22 -27 50 -75 27 -47 69 -115 93 -149z m-5150 -112 c15
-25 51 -73 79 -108 86 -107 160 -296 194 -500 17 -101 17 -113 1 -235 -9 -70
-20 -156 -23 -191 -7 -66 -13 -73 -66 -86 -27 -6 -28 -5 -28 32 0 71 -45 195
-128 349 -120 226 -127 249 -127 418 0 128 16 241 51 353 6 21 18 13 47 -32z
m-2109 -30 c17 -18 61 -64 97 -102 111 -115 159 -176 159 -202 0 -24 -35 -82
-49 -82 -4 0 -34 39 -66 87 -31 47 -76 107 -99 132 -70 77 -98 121 -103 162
-5 32 -3 39 12 39 9 0 31 -15 49 -34z m1992 -43 c-41 -162 -45 -333 -9 -444
10 -30 44 -106 77 -169 134 -259 160 -328 154 -410 l-3 -45 -80 -23 c-117 -35
-109 -39 -117 53 -10 113 -41 209 -118 370 -86 177 -110 255 -117 376 -8 137
0 154 121 270 56 53 102 93 104 89 2 -4 -4 -34 -12 -67z m-264 -230 c-8 -128
31 -270 131 -470 30 -60 64 -137 75 -173 24 -71 47 -249 35 -260 -4 -4 -46
-21 -93 -38 -81 -29 -236 -95 -297 -127 -27 -15 -29 -14 -55 16 -33 39 -49
106 -37 157 4 20 37 89 71 152 l63 115 -1 105 c0 82 -5 118 -22 166 -48 131
-55 239 -20 312 11 22 129 112 148 112 3 0 4 -30 2 -67z m898 -260 c118 -103
359 -280 403 -296 7 -2 9 -8 5 -12 -10 -11 -530 -191 -600 -209 -28 -6 -28 -6
-28 41 0 27 7 93 15 148 26 181 12 335 -44 499 -12 33 -21 66 -21 74 0 8 51
-35 113 -96 61 -60 132 -127 157 -149z m-1107 190 c-17 -61 -8 -166 24 -273
17 -58 34 -122 38 -143 11 -66 -13 -145 -76 -260 -81 -146 -90 -228 -34 -311
14 -20 25 -40 25 -44 0 -5 -126 -65 -231 -110 -8 -3 -24 40 -70 188 -17 58
-41 132 -52 165 -51 150 -20 547 55 700 19 40 20 40 108 57 48 10 112 26 142
36 76 27 80 27 71 -5z m-445 -40 c71 -5 83 -8 78 -22 -38 -114 -57 -201 -68
-306 -6 -69 -15 -122 -19 -118 -4 5 -20 58 -34 118 -30 122 -80 291 -95 317
-15 28 -12 31 23 24 17 -4 69 -9 115 -13z m-902 -50 c107 -168 152 -294 165
-468 6 -71 22 -211 36 -310 14 -99 27 -234 30 -300 5 -126 -8 -214 -72 -490
-20 -84 -54 -327 -55 -387 0 -5 -4 -8 -8 -8 -5 0 -16 24 -24 53 -9 28 -27 90
-41 137 -75 251 -120 480 -142 726 -19 213 -19 297 0 549 18 244 22 279 46
423 10 63 19 118 19 123 0 18 10 8 46 -48z m4899 -353 c9 -41 25 -107 34 -146
l17 -71 -151 -6 c-160 -7 -340 -36 -505 -82 -52 -15 -189 -51 -305 -81 -115
-30 -241 -64 -280 -75 -38 -11 -108 -32 -155 -46 -47 -13 -146 -45 -221 -69
-75 -24 -140 -44 -145 -44 -32 2 188 91 441 179 52 19 431 160 570 213 44 16
107 43 141 58 96 43 174 123 174 179 0 12 9 22 23 26 41 13 185 115 259 184
l73 69 6 -107 c3 -58 14 -140 24 -181z m-451 168 c49 -99 32 -156 -59 -190
-86 -33 -262 -69 -288 -59 -63 24 -104 129 -74 188 17 32 42 42 232 88 152 36
158 35 189 -27z m752 -486 c65 -52 70 -174 10 -224 -26 -20 -130 -51 -262 -77
-54 -11 -107 -22 -116 -26 -11 -4 -29 5 -54 28 -35 32 -38 39 -42 99 -5 75 14
123 50 130 13 3 84 21 158 41 201 53 224 55 256 29z m-2280 -957 c105 -31 165
-115 187 -264 l12 -76 43 -2 c88 -5 160 -73 185 -176 20 -78 41 -356 32 -416
-18 -124 -82 -192 -192 -207 l-51 -6 1 -72 c2 -119 -44 -179 -158 -205 -85
-18 -227 -32 -267 -26 -61 11 -113 56 -136 117 -26 72 -47 274 -33 325 13 46
59 99 103 117 18 8 93 22 165 31 125 17 135 17 177 1 58 -22 113 -83 121 -133
14 -88 13 -86 50 -80 45 7 87 40 115 90 30 52 36 142 21 300 -12 136 -40 204
-100 245 -56 37 -67 28 -63 -50 6 -100 -17 -165 -76 -220 -29 -28 -67 -51 -98
-61 -49 -16 -291 -47 -365 -47 -101 0 -203 70 -238 165 -17 46 -33 159 -48
336 -10 122 40 215 144 265 44 22 86 31 202 45 189 22 208 22 267 4z m301
-545 c32 -65 50 -304 28 -376 -13 -45 -38 -79 -71 -97 -8 -4 -18 13 -29 46
-22 67 -56 112 -106 137 -21 11 -39 24 -39 28 0 4 17 16 37 27 46 25 109 104
123 153 5 20 11 58 12 85 2 26 8 46 13 44 6 -2 20 -23 32 -47z"/>
<path d="M3083 8520 c-147 -29 -283 -104 -409 -223 -152 -143 -324 -356 -324
-401 0 -45 61 -15 293 141 94 64 205 131 245 150 111 52 233 60 382 27 175
-38 428 -83 600 -105 102 -14 159 -2 202 41 34 34 36 74 8 131 -71 138 -441
251 -815 248 -77 -1 -159 -5 -182 -9z m485 -61 c281 -45 482 -147 482 -245 0
-46 -29 -64 -105 -64 -71 0 -499 70 -623 102 -68 17 -116 22 -217 23 -126 0
-132 -1 -210 -35 -44 -18 -159 -86 -255 -150 -96 -64 -181 -120 -187 -124 -78
-45 236 294 352 381 94 71 207 115 340 133 86 12 280 2 423 -21z"/>
<path d="M5706 8454 c-159 -21 -312 -74 -415 -142 -111 -74 -139 -194 -57
-247 29 -19 135 -22 221 -6 28 5 102 18 165 29 63 12 186 37 273 57 87 19 181
35 210 35 109 0 206 -43 367 -164 245 -184 320 -226 320 -178 0 24 -80 152
-148 237 -31 39 -104 118 -163 176 -88 88 -120 112 -190 147 -46 23 -117 48
-157 57 -90 18 -287 18 -426 -1z m424 -45 c74 -15 184 -69 242 -117 108 -90
348 -372 316 -372 -7 0 -65 39 -128 87 -63 47 -144 105 -180 128 -145 94 -269
107 -500 54 -74 -17 -184 -39 -245 -51 -60 -11 -141 -26 -180 -33 -134 -26
-210 -15 -221 32 -21 82 107 178 314 238 172 49 439 65 582 34z"/>
<path d="M6130 8043 c0 -50 -93 -193 -124 -193 -6 0 -11 19 -12 43 -1 41 -27
107 -42 107 -4 0 -16 -16 -27 -36 -34 -63 -106 -120 -169 -132 -81 -16 -197
-67 -243 -107 -22 -19 -62 -67 -89 -106 -27 -40 -64 -87 -83 -104 -100 -89
-102 -92 -99 -131 5 -64 33 -75 200 -84 78 -4 155 -12 169 -18 15 -6 86 -18
160 -27 136 -18 235 -16 342 6 49 10 197 77 259 117 23 14 31 15 45 4 61 -43
146 -41 219 4 26 16 49 34 51 39 2 6 -24 9 -69 7 l-73 -2 54 19 c30 10 62 30
72 43 18 23 33 67 26 74 -2 2 -28 0 -57 -6 -64 -12 -130 -13 -148 -1 -10 6 -6
10 15 14 52 11 132 112 133 170 0 14 -13 9 -62 -28 -72 -52 -117 -75 -150 -75
-22 1 -22 1 -3 12 59 32 89 78 98 151 8 54 -5 62 -28 18 -18 -37 -70 -77 -110
-87 l-30 -7 28 32 c23 28 27 41 26 94 -1 55 -2 59 -12 37 -25 -53 -53 -84 -91
-101 -22 -10 -42 -17 -43 -15 -2 2 8 23 21 47 25 46 44 153 28 163 -5 3 -17
-13 -27 -35 -22 -48 -87 -109 -116 -109 -16 0 -19 4 -14 18 28 68 29 121 3
178 -13 28 -28 32 -28 7z m-450 -313 c-15 -22 -24 -51 -27 -93 -4 -52 0 -69
20 -107 67 -123 236 -147 324 -47 16 18 40 40 55 49 15 10 29 27 33 38 3 11
11 20 17 20 16 0 4 -120 -17 -160 -24 -49 -73 -98 -120 -122 -34 -18 -51 -20
-126 -15 -104 8 -126 15 -178 62 -105 95 -106 279 -1 383 39 40 51 35 20 -8z
m350 7 c60 -46 66 -113 16 -163 -58 -58 -141 -42 -172 32 -30 72 20 144 99
144 23 0 49 -6 57 -13z m-450 -57 c-45 -89 -39 -210 16 -291 19 -28 34 -55 34
-59 0 -5 -15 -4 -32 1 -18 5 -49 9 -68 9 -47 0 -80 18 -107 59 -41 60 -32 97
43 198 57 76 121 138 132 128 2 -2 -6 -22 -18 -45z m596 -31 c29 -22 66 -57
82 -77 73 -90 103 -135 99 -146 -9 -22 -191 -106 -262 -121 -38 -8 -71 -12
-74 -9 -2 2 10 18 28 36 59 58 84 113 89 197 3 56 0 87 -12 115 -25 60 -22 61
50 5z"/>
<path d="M3072 8015 c-18 -39 -14 -111 8 -155 24 -48 13 -58 -38 -33 -32 16
-61 47 -110 119 -11 16 -12 9 -7 -44 4 -49 12 -75 35 -108 16 -25 30 -47 30
-49 0 -7 -58 13 -84 30 -14 10 -38 36 -51 59 l-25 41 0 -58 c0 -54 3 -62 34
-93 19 -19 29 -34 23 -34 -29 1 -95 40 -124 73 -18 21 -35 37 -39 37 -9 0 5
-68 21 -107 7 -17 32 -46 56 -62 35 -26 38 -31 20 -31 -31 0 -82 23 -147 66
-30 20 -58 33 -62 30 -9 -10 35 -90 67 -122 14 -15 42 -34 61 -42 l35 -16 -30
-7 c-45 -10 -121 -10 -148 0 -32 12 -38 6 -25 -30 18 -51 62 -79 126 -80 57
-1 57 -1 17 -10 -22 -4 -61 -8 -87 -8 -27 -1 -48 -5 -48 -10 0 -5 26 -22 58
-37 77 -37 144 -38 197 -3 l39 25 88 -44 c96 -48 233 -82 331 -82 77 0 233 25
337 55 47 13 121 29 165 35 222 31 235 36 235 98 0 29 -8 42 -41 71 -51 45
-124 118 -209 208 -54 58 -76 74 -135 97 -38 14 -101 32 -140 38 -83 14 -143
50 -188 114 -17 24 -34 44 -38 44 -14 0 -34 -67 -32 -112 1 -30 -2 -48 -9 -48
-30 0 -138 155 -138 198 0 21 -16 13 -28 -13z m528 -270 c30 -15 60 -61 60
-89 0 -36 -34 -85 -70 -101 -79 -36 -162 32 -146 118 13 71 90 106 156 72z
m-351 -35 c-32 -61 -24 -156 17 -206 17 -21 41 -46 55 -56 33 -25 125 -34 175
-18 40 14 164 128 178 165 6 16 9 17 16 5 35 -56 -32 -233 -102 -271 -13 -7
-65 -21 -117 -30 -83 -15 -99 -15 -136 -2 -166 56 -226 280 -113 417 39 48 53
46 27 -4z m485 -27 c60 -60 136 -161 136 -180 0 -33 -24 -93 -44 -112 -16 -15
-139 -51 -173 -51 -2 0 11 22 27 49 55 89 59 214 10 298 -36 61 -19 59 44 -4z
m-590 -53 c-31 -114 4 -231 92 -309 l47 -41 -34 0 c-104 1 -348 92 -336 125
18 46 108 164 169 220 39 36 72 64 74 63 1 -2 -4 -28 -12 -58z"/>
<path d="M2414 7262 c-6 -4 -21 -40 -33 -79 -22 -68 -26 -73 -60 -83 -20 -5
-43 -10 -52 -10 -8 0 -23 -6 -33 -13 -17 -12 -14 -18 33 -76 l51 -64 -7 -88
c-6 -84 -5 -89 14 -89 11 0 41 16 66 36 l47 37 51 -32 c28 -17 60 -31 71 -31
18 0 20 4 15 38 -22 143 -23 138 22 201 22 33 41 64 41 69 0 11 -24 22 -48 22
-9 0 -33 5 -53 10 -32 9 -39 18 -63 75 -30 68 -45 88 -62 77z m55 -176 c6 -7
30 -16 52 -19 22 -3 43 -8 46 -11 3 -2 -9 -25 -27 -50 -31 -42 -32 -47 -25
-106 l7 -61 -33 20 c-42 26 -57 26 -89 1 -38 -30 -43 -25 -36 33 7 50 5 55
-28 97 -20 25 -36 47 -36 50 0 3 20 11 45 18 27 7 48 19 52 30 3 9 12 33 20
52 l14 35 14 -38 c7 -20 18 -43 24 -51z"/>
<path d="M4021 6224 c-33 -43 -45 -100 -33 -161 25 -123 93 -203 179 -210 54
-4 79 7 70 31 -5 11 -19 16 -51 16 -34 0 -52 7 -77 27 -72 61 -101 192 -58
262 18 29 19 36 6 48 -12 13 -17 11 -36 -13z"/>
<path d="M5126 6158 c-3 -7 -7 -35 -11 -63 -12 -92 -74 -168 -161 -198 -21 -8
-40 -21 -42 -30 -6 -28 57 -21 109 11 92 59 143 147 137 237 -3 46 -23 73 -32
43z"/>
<path d="M4131 6103 c-12 -14 -20 -28 -17 -30 2 -2 37 -12 77 -22 48 -11 93
-30 128 -54 75 -52 87 -48 55 16 -39 77 -98 117 -173 117 -42 0 -53 -4 -70
-27z"/>
<path d="M4820 6104 c-48 -21 -68 -41 -96 -96 -51 -101 -148 -134 -242 -83
-28 15 -55 24 -61 21 -22 -14 -10 -35 37 -62 98 -57 215 -29 298 71 41 51 80
71 152 81 65 8 77 27 38 61 -31 27 -75 29 -126 7z"/>
<path d="M4738 5384 c-36 -7 -75 -17 -86 -23 -53 -28 -105 -30 -207 -9 -59 12
-140 21 -197 21 -94 1 -99 0 -180 -41 -46 -22 -105 -59 -130 -81 -57 -50 -190
-221 -304 -391 l-88 -131 12 -57 c33 -157 161 -299 392 -434 89 -52 176 -88
285 -120 114 -32 376 -32 545 1 281 54 406 109 535 235 87 86 134 152 178 253
l27 61 -43 84 c-136 259 -183 331 -274 419 -196 189 -311 241 -465 213z m185
-61 c23 -9 57 -26 75 -38 67 -45 196 -162 242 -220 42 -54 167 -266 198 -337
l12 -28 -73 1 c-39 0 -128 4 -198 8 -118 6 -127 8 -165 36 -22 17 -58 50 -80
74 -37 41 -38 45 -20 55 46 27 76 61 66 76 -8 13 -12 13 -32 1 -52 -33 -95
-49 -119 -44 -14 3 -47 -2 -73 -11 -68 -23 -273 -21 -409 3 -77 14 -122 28
-162 51 -53 30 -85 34 -85 10 0 -6 22 -25 49 -41 l49 -31 -36 -31 c-20 -18
-39 -35 -42 -39 -3 -4 -32 -20 -64 -37 l-58 -31 -181 6 c-100 4 -184 8 -186
10 -5 5 79 130 168 249 108 144 201 234 286 276 67 33 74 34 180 33 68 -1 133
-7 171 -17 77 -21 151 -22 198 -2 112 47 201 52 289 18z m-533 -478 c95 -17
262 -19 330 -4 120 25 104 30 180 -52 38 -40 68 -75 66 -76 -1 -2 -29 -7 -62
-12 -32 -5 -106 -19 -164 -31 -169 -35 -259 -30 -557 30 -113 23 -132 33 -91
46 12 3 42 26 68 50 73 69 94 73 230 49z m-530 -135 c52 -6 196 -31 320 -57
291 -60 410 -63 625 -19 137 28 145 28 392 24 139 -2 255 -7 258 -10 8 -8 -23
-74 -66 -138 -40 -60 -144 -166 -201 -205 -140 -95 -443 -167 -703 -167 -77 0
-158 5 -180 10 -120 31 -168 48 -250 87 -217 105 -385 255 -438 393 -27 69
-24 80 26 85 82 7 123 7 217 -3z"/>
<path d="M3525 1899 c-85 -11 -139 -45 -175 -109 -30 -55 -31 -119 -5 -260 16
-88 21 -98 59 -136 60 -60 103 -71 229 -55 142 17 171 26 216 69 56 53 65 98
52 236 -14 140 -42 204 -105 241 -37 21 -54 25 -122 24 -43 -1 -110 -5 -149
-10z m230 -43 c52 -22 83 -78 96 -175 6 -46 9 -110 7 -143 -4 -51 -9 -64 -39
-94 -30 -30 -46 -36 -119 -49 -170 -30 -249 -15 -284 54 -16 31 -46 192 -46
250 0 44 34 103 73 127 30 18 156 40 240 43 21 0 53 -5 72 -13z"/>
<path d="M3549 1749 c-47 -28 -69 -67 -69 -124 0 -72 30 -113 97 -136 64 -21
136 9 168 71 65 126 -74 259 -196 189z m138 -53 c23 -20 28 -32 28 -71 0 -60
-35 -95 -95 -95 -60 0 -95 35 -95 95 0 60 35 95 95 95 27 0 48 -8 67 -24z"/>
<path d="M3722 1097 c-6 -7 -20 -38 -32 -69 -21 -56 -22 -57 -78 -73 -106 -29
-109 -37 -37 -94 l55 -44 0 -78 c0 -72 2 -79 20 -79 11 0 43 16 71 37 l51 36
56 -20 c32 -12 65 -24 74 -28 28 -11 33 20 14 79 -23 74 -21 82 24 133 56 64
54 83 -9 83 -90 0 -103 7 -145 71 -40 62 -47 67 -64 46z m128 -157 c57 0 64
-13 25 -50 -27 -25 -32 -61 -15 -106 14 -36 6 -41 -35 -21 -48 23 -62 21 -101
-8 -18 -14 -35 -25 -38 -25 -3 0 -6 25 -6 54 0 51 -3 57 -35 82 -19 14 -35 30
-35 35 0 5 18 12 41 15 42 7 69 26 69 49 0 8 5 26 11 42 l10 28 30 -48 c28
-46 30 -47 79 -47z"/>
<path d="M474 4811 c-11 -10 -26 -33 -34 -50 -7 -17 -19 -31 -26 -31 -17 0
-18 14 -3 42 8 16 8 24 -4 35 -20 21 -33 10 -41 -32 -8 -43 -1 -72 23 -84 30
-17 57 -1 79 45 23 46 36 54 46 28 10 -26 7 -34 -14 -34 -11 0 -20 -7 -20 -15
0 -8 -4 -15 -10 -15 -16 0 -12 -30 5 -36 21 -8 19 -24 -3 -24 -23 0 -47 -25
-61 -63 -6 -15 -17 -27 -26 -27 -18 0 -20 31 -3 48 8 8 8 15 -3 28 -12 15 -15
14 -31 -6 -23 -29 -23 -72 0 -100 28 -34 66 -21 88 30 19 43 54 56 54 20 0
-12 -7 -20 -17 -20 -10 0 -24 -12 -31 -28 -11 -23 -10 -29 5 -39 41 -31 91 1
100 63 4 33 1 45 -21 71 l-26 31 25 6 c26 7 55 51 55 85 0 33 -21 68 -47 80
-32 15 -36 14 -59 -8z"/>
<path d="M353 4453 c-60 -30 -68 -99 -17 -147 37 -34 79 -40 123 -19 44 22 65
63 57 108 -8 40 -32 63 -48 47 -8 -8 -8 -19 1 -41 10 -22 10 -34 1 -51 -6 -12
-13 -20 -16 -18 -2 2 -14 33 -28 68 -13 35 -28 65 -32 66 -5 2 -23 -4 -41 -13z"/>
<path d="M293 4241 c4 -18 2 -31 -3 -31 -6 0 -10 -13 -10 -28 0 -47 -19 -64
-59 -52 -19 5 -36 8 -38 6 -2 -1 4 -20 12 -40 11 -27 21 -36 31 -32 8 3 29 -1
45 -10 22 -11 34 -12 43 -5 9 8 30 8 70 0 69 -12 89 -7 84 23 -3 21 -10 24
-68 28 -57 4 -66 8 -79 32 -20 35 -14 39 34 28 101 -24 160 -4 120 40 -14 15
-21 17 -36 7 -29 -18 -74 2 -74 33 0 22 -5 25 -39 28 -38 3 -39 3 -33 -27z"/>
<path d="M131 3982 c-29 -57 -28 -116 4 -147 49 -50 113 -23 137 58 13 44 42
65 64 46 21 -17 14 -64 -8 -63 -22 2 -72 -62 -64 -82 3 -7 21 -22 41 -31 33
-16 37 -16 71 0 46 22 79 92 69 145 -9 51 -63 102 -107 102 -47 0 -75 -23
-102 -85 -27 -60 -41 -72 -61 -55 -21 18 -18 50 7 77 l22 24 -26 26 -26 26
-21 -41z"/>
<path d="M193 3660 c-6 -23 -7 -23 -52 -10 -19 5 -36 8 -38 6 -2 -2 4 -20 13
-40 13 -27 22 -35 35 -31 10 4 30 -1 44 -11 17 -11 29 -13 38 -6 8 7 31 7 70
0 69 -12 90 -6 85 24 -3 24 -7 25 -96 27 -26 1 -37 8 -50 31 -20 34 -42 39
-49 10z"/>
<path d="M190 3529 c-16 -10 -30 -22 -31 -26 0 -5 -2 -33 -5 -63 l-5 -55 59
-2 c33 -1 75 -6 95 -11 40 -11 60 -2 55 24 -2 14 -18 21 -63 29 -48 8 -60 14
-60 29 0 42 69 34 137 -16 21 -15 36 -3 22 20 -22 34 -81 72 -126 81 -39 7
-53 5 -78 -10z"/>
<path d="M205 3323 c-66 -13 -139 -33 -162 -43 -41 -18 -43 -21 -43 -63 0 -34
6 -49 28 -70 31 -30 45 -26 36 9 -8 31 0 30 47 -7 25 -19 39 -39 39 -53 0 -21
27 -56 43 -56 4 0 7 9 7 20 0 24 -2 24 51 0 70 -32 119 -23 119 21 0 19 -33
34 -51 24 -15 -10 -76 3 -92 20 -12 11 -12 23 -4 60 11 50 38 66 75 46 14 -8
23 -8 27 -1 11 18 18 120 9 119 -5 0 -63 -12 -129 -26z"/>
</g>
</svg>
