<?xml version="1.0" standalone="no"?>
<!DOCTYPE svg PUBLIC "-//W3C//DTD SVG 20010904//EN"
 "http://www.w3.org/TR/2001/REC-SVG-20010904/DTD/svg10.dtd">
<svg version="1.0" xmlns="http://www.w3.org/2000/svg"
 width="506.000000pt" height="781.000000pt" viewBox="0 0 506.000000 781.000000"
 preserveAspectRatio="xMidYMid meet">
<metadata>
Created by potrace 1.16, written by Peter Selinger 2001-2019
</metadata>
<g transform="translate(0.000000,781.000000) scale(0.100000,-0.100000)"
fill="#000000" stroke="none">
<path d="M1533 7741 c-106 -77 -173 -239 -173 -416 0 -25 -4 -45 -10 -45 -5 0
-10 4 -10 9 0 5 -18 31 -39 59 -39 49 -119 106 -166 118 -38 9 -29 -9 14 -29
53 -24 121 -86 148 -135 l23 -40 -48 -15 c-37 -13 -57 -14 -92 -6 -117 27
-152 28 -247 3 -185 -47 -334 -151 -457 -317 -27 -37 -28 -38 -48 -20 -34 30
-65 85 -98 174 l-31 84 5 -54 c6 -64 51 -163 94 -210 18 -18 32 -35 32 -37 0
-3 -9 -15 -21 -27 -28 -31 -124 -212 -155 -294 -14 -37 -29 -99 -33 -138 l-6
-70 -70 -34 c-54 -27 -65 -36 -48 -39 12 -2 45 8 72 21 l49 25 11 -44 c12 -46
35 -63 26 -19 -3 14 -7 36 -10 49 -3 15 5 43 20 72 23 44 25 45 25 18 0 -16 7
-114 15 -219 15 -193 36 -299 75 -375 21 -41 50 -69 35 -34 -55 129 -86 270
-84 384 l0 45 14 -50 c58 -214 184 -398 318 -467 51 -26 174 -54 199 -45 7 2
-9 10 -35 17 -45 12 -50 16 -73 69 -23 49 -95 282 -94 299 1 4 23 -38 50 -93
58 -118 102 -179 161 -226 l44 -34 -49 55 c-64 72 -88 111 -138 223 -54 122
-86 215 -93 269 -5 41 -4 39 37 -42 51 -101 89 -157 180 -267 80 -97 122 -131
169 -138 l34 -6 -30 23 c-51 39 -188 179 -250 258 -107 134 -180 363 -147 459
6 17 7 31 2 33 -17 6 19 139 59 222 30 61 57 98 111 151 l70 70 -51 -112 c-66
-147 -92 -266 -93 -433 0 -114 2 -132 30 -210 33 -93 98 -211 146 -266 46 -52
46 -32 0 23 -80 97 -148 270 -159 405 -6 81 8 222 32 318 13 51 67 183 112
273 20 39 91 94 187 143 52 28 52 27 -12 -61 -95 -129 -174 -326 -190 -473
-17 -154 12 -279 119 -508 51 -108 83 -164 111 -191 51 -50 48 -30 -6 36 -24
29 -56 83 -72 120 -15 36 -43 98 -62 136 -75 150 -97 304 -68 465 17 93 101
279 176 389 85 126 199 224 260 224 8 0 18 5 22 11 4 6 11 11 15 11 4 0 20 12
36 26 25 24 28 35 33 120 6 80 12 106 44 174 20 44 51 97 69 119 26 33 40 66
28 66 -2 0 -22 -13 -44 -29z m-369 -521 l38 -12 -33 -34 c-18 -18 -35 -32 -37
-29 -7 7 -105 -40 -168 -80 -91 -58 -149 -111 -219 -197 -69 -86 -114 -189
-135 -309 -6 -35 -24 -94 -41 -130 -37 -84 -56 -175 -65 -309 -6 -95 4 -223
22 -276 13 -41 -36 32 -75 111 -83 168 -107 343 -66 470 38 116 72 183 149
300 135 202 336 370 504 421 100 31 130 50 63 40 -67 -10 -195 -75 -286 -143
-158 -120 -333 -327 -397 -469 -12 -27 -39 -98 -60 -159 l-38 -110 4 90 c9
239 105 457 272 617 109 104 195 155 339 200 94 29 150 31 229 8z m-545 -931
c7 -19 7 -29 0 -29 -12 0 -3 -189 13 -260 15 -71 58 -210 84 -269 14 -30 22
-56 20 -59 -9 -8 -100 43 -132 75 -46 46 -64 134 -64 316 0 152 10 233 37 307
l17 45 7 -48 c4 -27 12 -62 18 -78z"/>
<path d="M526 6584 c-45 -46 -72 -104 -98 -212 -25 -103 -27 -220 -4 -277 l16
-40 -6 75 c-10 128 39 332 105 440 17 27 29 50 26 50 -2 0 -20 -16 -39 -36z"/>
<path d="M1740 7542 c-53 -36 -80 -66 -80 -89 0 -14 -4 -21 -10 -18 -5 3 -10
2 -10 -3 0 -6 -34 -26 -76 -46 -103 -49 -132 -71 -143 -110 -5 -19 -16 -42
-25 -52 -106 -120 -188 -254 -234 -385 -34 -96 -51 -199 -33 -199 6 0 11 11
11 25 0 40 59 213 102 300 34 67 87 151 119 189 4 4 -8 -39 -26 -96 -85 -268
-89 -422 -22 -739 25 -116 64 -225 66 -183 1 11 -8 54 -18 95 -50 195 -65 302
-65 454 -1 138 2 160 31 267 47 174 120 351 152 367 19 11 19 9 -5 -55 -65
-173 -85 -486 -46 -694 11 -58 26 -159 33 -226 12 -117 12 -122 -9 -166 -12
-24 -22 -50 -22 -56 0 -7 -8 -12 -17 -12 -26 -1 -111 -65 -132 -101 l-18 -30
-16 38 c-8 21 -18 60 -22 86 -8 52 -25 54 -25 3 0 -44 17 -94 46 -133 32 -42
30 -49 -12 -63 -21 -7 -46 -27 -63 -50 -14 -20 -54 -63 -88 -94 -34 -32 -65
-65 -68 -75 -3 -10 -18 -21 -33 -24 -69 -14 -141 -98 -142 -164 0 -26 -5 -34
-24 -39 -28 -7 -105 -85 -135 -137 -28 -51 -61 -170 -61 -224 0 -86 42 -213
87 -264 12 -15 11 -21 -10 -52 -68 -100 -76 -259 -20 -380 18 -36 48 -88 67
-113 74 -97 22 -104 -80 -12 -43 40 -66 73 -109 162 -63 127 -85 203 -86 296
-1 77 -17 55 -18 -25 -1 -76 23 -158 84 -282 61 -123 106 -172 201 -219 30
-15 54 -32 54 -38 0 -6 15 -43 33 -81 l34 -70 -70 -80 c-46 -51 -83 -106 -105
-155 -25 -55 -51 -91 -96 -135 -69 -67 -113 -148 -146 -267 -28 -102 -24 -130
6 -33 33 110 88 215 136 261 37 36 40 37 34 14 -3 -14 -8 -63 -11 -110 -2 -47
-2 -74 1 -60 2 14 11 67 20 118 l16 92 139 133 c76 72 144 134 150 136 6 2
-13 -34 -43 -80 -111 -174 -225 -452 -263 -640 -9 -41 -18 -137 -22 -214 -6
-154 5 -239 38 -277 l19 -23 -16 38 c-37 94 -37 346 1 512 16 71 82 257 118
335 46 96 183 340 193 340 2 0 2 -35 -1 -78 -3 -53 1 -94 11 -127 l14 -50 -32
-45 c-99 -140 -147 -219 -182 -305 -27 -64 6 -23 55 70 39 73 155 255 163 255
2 0 18 -23 35 -52 l33 -52 -16 -76 c-35 -169 -48 -343 -36 -481 6 -71 15 -155
21 -186 10 -54 77 -240 99 -273 17 -26 11 -4 -16 56 -81 183 -104 451 -64 744
12 91 26 171 29 178 5 9 21 -4 50 -42 40 -51 75 -76 88 -62 3 3 -14 27 -39 54
-25 27 -50 57 -56 69 -11 21 -5 90 8 98 5 3 6 13 3 23 -4 15 22 147 43 225 3
9 1 17 -4 17 -5 0 -19 -35 -31 -77 -13 -43 -26 -89 -30 -103 l-8 -25 -18 28
-18 29 44 90 44 90 44 -49 c24 -26 39 -37 32 -25 -7 13 -29 41 -48 63 -19 21
-30 39 -24 39 7 0 39 57 72 126 34 69 63 123 65 121 2 -2 -3 -30 -12 -63 -28
-102 -37 -266 -39 -723 -2 -244 -5 -469 -7 -500 -3 -31 -3 -45 0 -31 4 23 5
24 12 5 5 -12 9 37 10 120 1 108 4 132 11 105 33 -123 67 -217 111 -305 60
-119 151 -276 190 -326 15 -20 28 -40 28 -43 0 -4 -39 -45 -87 -92 -76 -74
-164 -140 -278 -210 -16 -10 -104 -37 -195 -60 -91 -23 -178 -47 -195 -54 -16
-6 -81 -25 -143 -41 -62 -16 -130 -38 -151 -49 -47 -23 -66 -46 -30 -35 13 4
27 8 30 9 5 1 90 -74 253 -225 39 -36 95 -85 124 -108 29 -24 67 -64 84 -90
67 -97 140 -180 168 -190 23 -7 30 -16 30 -36 0 -14 13 -65 29 -113 15 -48 32
-102 36 -121 4 -19 20 -63 35 -98 30 -71 198 -340 272 -437 26 -33 66 -92 89
-131 23 -38 65 -111 95 -162 58 -99 142 -199 162 -192 7 2 -10 30 -42 66 -30
34 -92 124 -139 200 -46 76 -144 228 -218 338 -145 218 -223 361 -234 427 -4
24 -18 75 -31 115 -13 40 -28 117 -33 172 -16 170 -61 244 -293 474 -93 93
-168 170 -166 171 2 1 59 20 128 41 311 96 376 121 466 180 47 32 110 82 138
111 l52 52 24 -46 c37 -68 217 -214 295 -237 11 -3 -2 6 -30 21 -56 30 -220
190 -252 245 l-21 36 22 27 21 26 60 -77 c33 -43 96 -117 140 -165 71 -78 127
-128 379 -341 37 -31 98 -75 136 -97 69 -41 84 -54 165 -150 101 -121 159
-220 190 -325 27 -92 29 -112 28 -245 -1 -118 -6 -156 -22 -204 -26 -73 -19
-86 10 -20 20 44 22 67 23 224 1 164 -1 180 -26 260 -30 93 -110 237 -173 308
l-40 46 44 -25 c25 -13 71 -48 103 -78 32 -29 58 -49 58 -45 -1 15 -42 58 -95
100 -56 44 -96 78 -170 144 -27 25 -72 63 -100 85 -72 55 -75 60 -28 36 24
-12 91 -58 150 -102 93 -69 101 -73 54 -29 -64 61 -146 118 -234 162 -41 21
-110 74 -185 140 -114 102 -213 208 -196 208 5 0 43 -18 85 -40 163 -85 406
-162 629 -200 171 -29 181 -26 303 99 52 53 100 107 107 121 7 14 -35 -24 -95
-84 -59 -59 -123 -115 -142 -123 -31 -12 -47 -12 -151 7 -224 40 -465 114
-640 196 -52 24 -98 42 -102 39 -27 -17 -326 497 -394 677 -26 67 -76 299 -76
348 l0 29 56 -30 c31 -16 67 -29 80 -29 18 0 24 -5 24 -22 0 -13 9 -45 19 -73
11 -27 36 -122 57 -209 33 -145 36 -169 32 -268 -5 -119 7 -139 30 -52 10 38
11 69 2 144 -17 153 -80 403 -117 471 -2 4 12 10 31 13 18 4 40 14 47 23 12
15 12 16 -6 7 -11 -5 -52 -9 -92 -9 -63 0 -76 3 -115 31 -41 29 -43 32 -39 75
1 24 4 44 5 45 0 1 13 4 29 8 34 8 36 -12 7 -69 l-21 -40 26 30 c14 17 25 33
25 37 0 4 5 19 10 34 10 25 12 26 29 10 9 -9 25 -16 34 -16 8 0 17 -10 20 -22
2 -13 4 -2 4 24 1 39 -4 53 -33 86 l-34 40 17 53 c13 42 18 48 20 29 14 -114
51 -211 103 -265 15 -16 54 -87 85 -157 53 -118 100 -203 76 -138 -5 14 -27
64 -49 111 -49 106 -59 134 -42 124 17 -11 -1 21 -40 70 -64 81 -111 205 -109
290 1 22 3 31 6 20 18 -78 68 -219 93 -261 16 -28 52 -76 80 -105 58 -61 56
-51 -8 36 -70 95 -70 104 0 39 36 -34 84 -70 106 -80 37 -18 41 -23 47 -69 4
-27 11 -67 16 -87 5 -20 14 -85 19 -145 11 -115 81 -382 126 -479 27 -57 123
-198 130 -191 3 3 -21 49 -53 103 -32 55 -64 111 -70 125 -14 33 -79 252 -88
299 l-7 35 21 -22 c12 -13 24 -23 26 -23 6 0 -10 41 -29 78 -16 31 -41 155
-54 270 l-8 72 25 1 26 1 -26 9 c-26 10 -26 10 -40 192 -23 307 -16 624 13
615 17 -6 81 -163 111 -268 47 -170 106 -601 108 -785 1 -141 14 -174 24 -63
7 85 2 201 -15 308 -5 30 -11 84 -14 120 l-6 65 44 -85 c24 -47 80 -182 124
-300 129 -349 148 -410 157 -509 2 -25 8 -63 14 -83 5 -21 7 -38 4 -38 -5 0
-201 106 -248 134 l-30 18 32 -28 c17 -16 81 -56 143 -89 72 -39 112 -67 116
-80 3 -11 11 -65 18 -120 8 -55 14 -86 15 -68 1 18 -4 66 -10 108 -6 42 -9 78
-7 80 3 3 52 -15 109 -38 123 -52 349 -125 413 -133 25 -4 46 -10 46 -15 0
-14 -102 -143 -163 -206 -51 -53 -63 -60 -82 -53 -34 13 -89 -18 -93 -52 -8
-64 -172 -67 -407 -8 -122 32 -152 32 -53 2 215 -67 359 -83 428 -49 27 14 29
13 41 -12 7 -14 13 -55 13 -91 2 -99 41 -150 115 -150 51 0 78 98 46 173 -8
20 -23 42 -32 49 -14 10 -18 26 -17 68 1 54 2 56 70 127 38 40 89 104 114 142
34 52 51 70 68 70 20 1 22 -3 18 -31 -18 -114 -17 -127 10 -215 28 -93 71
-188 108 -238 13 -16 53 -82 90 -145 38 -63 105 -164 150 -225 100 -134 236
-336 278 -413 29 -56 131 -209 306 -464 48 -69 102 -150 120 -180 38 -62 136
-174 105 -121 -20 35 -254 383 -355 529 -35 51 -90 136 -122 190 -87 146 -218
343 -316 474 -47 64 -103 147 -125 185 -21 39 -60 104 -86 146 -105 169 -149
285 -149 395 0 95 9 116 56 133 45 16 119 65 131 85 25 45 295 301 346 328 18
10 59 29 92 43 92 40 165 87 165 107 0 9 -14 34 -32 54 -21 24 -38 59 -50 103
-12 49 -17 58 -18 36 l-2 -30 -9 29 c-10 37 -9 38 44 46 33 5 38 8 23 15 -11
5 -31 4 -47 -2 l-29 -11 0 59 c0 33 -4 59 -10 59 -10 0 -14 -25 -10 -70 l2
-25 -26 24 c-33 31 -33 22 -1 -25 27 -40 45 -94 45 -137 0 -36 -25 -96 -48
-113 -9 -7 -12 -14 -6 -14 29 -1 72 79 75 138 0 9 8 -4 17 -30 9 -26 30 -61
46 -77 16 -17 28 -33 25 -35 -6 -6 -208 -106 -213 -106 -3 0 6 22 19 49 29 56
27 68 -28 153 -35 53 -51 130 -49 226 1 44 51 126 128 209 l62 66 52 -5 c30
-3 46 -2 38 3 -7 5 -21 9 -31 9 -31 0 -12 59 34 103 32 31 46 38 71 35 27 -3
36 -12 64 -63 18 -33 46 -112 63 -177 32 -123 105 -326 123 -343 8 -7 9 -4 3
10 -34 83 -99 285 -116 355 -26 115 -37 148 -65 197 -20 34 -23 47 -14 63 13
23 12 23 43 9 30 -13 39 -31 71 -129 13 -41 36 -106 51 -144 14 -39 27 -87 27
-108 0 -21 4 -35 9 -32 5 3 9 -2 9 -11 0 -8 12 -48 26 -88 23 -63 26 -86 25
-185 -1 -101 -17 -182 -35 -182 -3 0 -5 45 -5 101 1 55 -2 103 -5 106 -3 4 -6
-30 -6 -75 0 -44 -5 -105 -12 -134 l-11 -53 -17 67 c-10 37 -27 83 -39 103
-11 20 -21 42 -21 48 0 7 -20 51 -44 99 -24 48 -50 113 -56 145 -21 106 -32
138 -62 186 -41 64 -47 53 -9 -14 19 -35 33 -79 39 -124 7 -52 27 -107 77
-215 78 -169 95 -218 95 -274 -1 -59 -25 -105 -164 -314 -130 -197 -168 -276
-187 -388 -10 -63 -10 -73 10 -114 24 -52 64 -104 162 -213 39 -42 94 -106
123 -142 29 -35 147 -162 262 -282 300 -312 469 -472 483 -458 6 7 -30 41
-131 125 -29 25 -98 95 -153 155 -54 61 -153 166 -220 235 -67 69 -157 170
-201 225 -43 55 -102 126 -131 158 -68 75 -156 185 -173 217 -20 37 -13 95 19
188 28 78 58 130 227 387 29 44 63 102 76 129 12 27 38 66 55 85 45 49 63 91
75 173 12 76 4 126 -38 248 -38 111 -38 106 21 225 l53 110 1 -65 c0 -36 -4
-98 -8 -137 -4 -40 -4 -73 0 -73 15 0 20 41 18 171 0 76 1 141 4 146 2 4 10
41 17 82 22 135 -7 237 -94 319 -42 40 -63 51 -121 66 -87 22 -160 54 -198 85
-32 27 -79 116 -95 181 -22 92 -23 88 13 100 74 25 152 104 143 147 -2 10 -14
0 -36 -30 -27 -38 -86 -87 -105 -87 -2 0 -7 6 -10 14 -3 8 9 31 29 51 36 38
69 93 61 101 -3 3 -14 -10 -25 -28 -24 -38 -69 -82 -94 -91 -30 -10 -25 17 8
52 19 18 36 42 40 53 3 11 16 35 29 53 29 43 52 137 61 248 l7 87 64 -62 c35
-35 79 -71 97 -80 47 -24 120 -109 134 -156 18 -58 15 -90 -18 -226 -23 -92
-28 -130 -21 -147 9 -23 10 -23 10 6 1 17 9 62 20 100 10 39 22 83 26 100 l7
30 12 -24 c11 -20 13 -11 15 75 0 55 4 117 9 139 l8 40 18 -58 c16 -52 17 -70
7 -180 -6 -67 -18 -149 -27 -182 -35 -126 -34 -249 1 -297 l17 -23 -7 25 c-5
14 -10 62 -12 108 -4 67 1 105 23 195 23 90 28 135 29 232 0 115 -1 123 -32
188 -18 38 -48 90 -66 115 -18 26 -46 69 -62 96 -34 60 -106 130 -205 200 -41
30 -85 65 -98 78 -21 24 -22 29 -11 72 22 88 -21 228 -99 324 l-43 53 33 -17
c46 -24 186 -161 208 -205 24 -46 80 -234 80 -268 0 -14 5 -33 11 -41 19 -26
0 107 -28 194 -14 45 -37 103 -51 130 -33 61 -157 177 -241 223 l-64 36 52 19
c76 29 160 144 161 220 0 45 -17 41 -24 -6 -4 -26 -23 -70 -46 -104 -32 -51
-48 -64 -101 -90 -79 -37 -102 -32 -61 12 16 17 37 46 46 64 21 42 31 147 18
192 -10 33 -10 33 -11 7 l-1 -27 -31 32 -31 33 33 -42 c30 -40 31 -46 25 -98
-12 -105 -59 -178 -123 -190 -21 -3 -55 -20 -75 -36 -42 -33 -45 -31 -24 9 30
59 48 214 31 274 l-6 23 21 -24 c11 -13 27 -48 36 -79 14 -46 15 -65 5 -105
-13 -57 -10 -65 13 -42 27 27 22 130 -10 194 -25 49 -103 122 -184 173 -44 27
-134 47 -203 46 -59 -1 -71 2 -95 24 -15 14 -48 37 -74 51 -25 15 -55 38 -65
52 -10 13 -29 40 -43 59 -35 48 -104 90 -138 83 -34 -7 -64 13 -51 34 12 20
10 107 -4 149 -7 20 -25 43 -45 55 -29 18 -32 24 -26 55 3 19 19 62 34 97 22
47 38 68 66 85 45 26 29 36 -20 13 -27 -13 -43 -32 -66 -78 -16 -33 -30 -67
-31 -76 0 -9 -11 17 -24 57 -25 81 -42 104 -86 122 -22 10 -32 10 -43 1 -12
-10 -16 -6 -21 21 -18 81 -69 141 -132 154 -23 6 -35 21 -67 85 -39 79 -53 96
-139 169 -48 40 -86 50 -117 30 -10 -6 -20 -3 -33 10 -9 11 -31 27 -48 36 -28
14 -33 14 -55 0 -24 -16 -24 -16 -53 48 -21 46 -38 69 -60 80 -39 21 -80 20
-111 -2z m83 -26 c26 -10 40 -28 64 -79 55 -115 64 -158 73 -372 10 -215 0
-411 -26 -524 -21 -90 -70 -168 -109 -174 -16 -3 -31 -4 -32 -3 0 0 10 35 24
76 26 77 44 234 25 215 -5 -5 -17 -46 -26 -90 -10 -44 -25 -109 -35 -145 -17
-61 -20 -66 -59 -80 -22 -8 -58 -29 -79 -46 l-38 -31 0 -104 c0 -90 3 -110 24
-149 34 -64 70 -108 94 -116 20 -6 20 -7 -4 -20 -58 -32 -96 -4 -153 116 -43
89 -45 128 -10 187 l26 45 -25 -17 c-37 -24 -60 -79 -52 -123 8 -45 65 -159
101 -201 l27 -32 -29 6 c-49 11 -78 38 -111 105 -35 67 -43 133 -22 187 16 42
58 82 96 89 18 3 33 10 33 15 0 12 -52 12 -83 0 -24 -9 -24 -9 -31 70 -4 44
-18 137 -32 207 -46 227 -43 360 11 602 37 169 58 214 111 244 24 13 44 23 44
20 0 -3 -11 -27 -25 -53 -35 -69 -65 -186 -65 -251 0 -55 28 -322 35 -328 2
-2 3 90 2 205 l-2 208 38 110 c22 61 42 113 46 117 4 4 18 -10 33 -32 50 -78
102 -431 94 -640 -3 -81 -2 -125 3 -110 18 50 12 350 -9 505 -24 179 -35 221
-65 261 -27 36 -24 74 6 74 49 0 85 -106 139 -410 17 -96 33 -176 35 -179 15
-15 -15 241 -50 429 -17 88 -50 158 -86 184 -21 14 -21 14 7 30 36 19 29 19
67 2z m236 -179 c38 -63 52 -146 54 -330 2 -178 -5 -231 -54 -417 -20 -75 -20
-75 -71 -97 l-50 -23 6 23 c28 95 37 174 43 377 6 219 -6 430 -28 486 -4 13
-4 26 0 28 5 3 24 -25 42 -62 33 -64 34 -72 34 -180 0 -61 3 -112 7 -112 13 0
30 115 25 166 -6 59 -40 145 -68 170 -28 26 -23 37 10 19 16 -8 38 -30 50 -48z
m135 -13 c26 -27 37 -48 41 -83 4 -25 10 -68 15 -96 46 -249 41 -403 -19 -542
-24 -59 -28 -63 -59 -63 l-32 0 24 48 c43 85 68 188 68 281 0 112 -37 340 -68
417 -13 33 -24 64 -24 67 0 16 21 4 54 -29z m-50 -51 c35 -106 57 -236 63
-375 6 -129 -1 -169 -48 -283 -26 -60 -36 -74 -57 -78 -15 -3 -28 -4 -30 -2
-2 1 3 19 12 38 8 20 24 84 37 144 19 92 22 135 20 293 -1 171 -7 224 -36 318
-4 13 -3 22 3 22 6 0 22 -35 36 -77z m199 -143 l32 -65 0 -170 c0 -93 -7 -219
-14 -278 -13 -102 -15 -108 -35 -103 -12 4 -40 9 -63 12 -24 4 -43 8 -43 9 0
1 11 28 25 58 14 30 33 88 41 129 15 72 20 244 9 316 -12 73 -24 158 -29 197
l-5 40 25 -40 c13 -22 39 -69 57 -105z m106 -102 c15 -46 28 -146 36 -263 5
-75 3 -117 -9 -168 -22 -96 -19 -124 6 -57 18 46 21 76 21 180 -1 114 -19 254
-39 305 -18 45 24 -7 46 -57 20 -47 21 -63 18 -212 -4 -191 -22 -266 -68 -283
-23 -8 -34 -7 -59 9 -36 23 -36 19 -15 123 10 52 16 147 17 267 2 168 4 188
19 188 10 0 21 -13 27 -32z m185 -163 c31 -33 68 -186 74 -304 l5 -94 -29 7
c-16 3 -60 9 -97 12 -57 6 -67 10 -62 23 25 63 35 139 35 253 l0 128 25 0 c15
0 36 -11 49 -25z m-374 -366 c108 -24 162 -53 238 -124 98 -92 163 -188 279
-415 91 -179 148 -246 265 -313 77 -44 119 -116 115 -194 -2 -37 -5 -43 -24
-43 -18 0 -24 10 -37 53 -22 77 -74 139 -174 206 -166 112 -265 219 -366 395
-83 144 -150 240 -193 275 -70 58 -227 86 -326 57 -61 -18 -137 -21 -137 -7 0
14 69 70 120 97 36 19 59 24 120 24 41 0 95 -5 120 -11z m308 -68 c21 -11 57
-40 79 -64 45 -49 122 -192 146 -272 37 -123 91 -227 156 -299 30 -33 100 -66
140 -66 19 0 41 -14 75 -49 38 -39 49 -57 53 -92 l5 -44 -20 30 c-27 43 -79
85 -105 85 -36 0 -121 55 -173 113 -29 32 -77 108 -119 188 -110 209 -193 337
-267 411 -40 40 -63 68 -55 71 24 10 48 7 85 -12z m65 0 c31 -20 94 -93 126
-144 10 -18 36 -77 56 -132 88 -236 175 -367 263 -396 18 -6 31 -13 29 -16 -9
-9 -93 34 -129 66 -56 49 -114 147 -147 249 -49 150 -123 283 -189 342 -57 51
-61 66 -9 31z m139 -39 c31 -15 57 -33 57 -39 1 -7 21 -52 45 -100 44 -88 75
-162 123 -303 14 -41 36 -97 50 -123 l24 -48 -25 16 c-65 43 -122 139 -206
350 -57 142 -65 158 -129 234 -51 61 -44 62 61 13z m-522 -23 c25 -6 63 -22
84 -37 53 -37 136 -141 192 -243 127 -230 198 -312 365 -423 120 -80 179 -151
181 -216 1 -16 8 -32 16 -35 11 -4 13 -18 7 -74 -4 -43 -3 -71 3 -75 12 -7 27
95 18 120 -4 9 9 3 29 -15 26 -22 46 -31 72 -31 66 0 133 61 133 122 0 17 -6
11 -22 -22 -42 -82 -130 -114 -177 -64 -15 15 -13 16 21 10 62 -11 138 45 126
92 -3 10 3 34 13 53 10 19 18 28 19 22 0 -8 14 -13 38 -13 34 0 39 -3 50 -34
7 -18 21 -41 31 -51 20 -18 84 -25 112 -12 22 11 75 -72 154 -243 36 -77 65
-142 65 -144 0 -3 -23 -42 -51 -87 -27 -45 -44 -78 -37 -72 7 6 29 39 48 72
19 33 37 61 40 61 8 0 40 -189 40 -231 0 -33 -3 -37 -41 -48 -62 -19 -189 -79
-226 -107 -31 -23 -98 -57 -116 -58 -16 -2 -47 -52 -47 -78 0 -37 19 -76 41
-83 11 -4 54 22 131 79 101 76 193 131 254 150 18 5 22 2 28 -25 14 -69 7
-106 -27 -151 -33 -43 -55 -55 -82 -44 -12 4 -11 12 5 48 21 47 26 88 10 88
-5 0 -10 -9 -10 -20 0 -11 -7 -38 -16 -60 -15 -37 -19 -40 -56 -40 -34 0 -39
3 -33 18 15 35 18 65 6 58 -6 -4 -11 -16 -11 -27 0 -20 -33 -59 -50 -59 -6 0
-14 9 -18 21 -8 20 -8 20 -20 -5 -6 -14 -16 -26 -22 -26 -6 0 -9 -4 -5 -9 3
-5 0 -13 -6 -17 -7 -4 -9 -3 -6 3 4 6 0 16 -8 23 -13 10 -15 9 -15 -9 0 -11
-4 -21 -9 -21 -4 0 -24 -13 -42 -30 -19 -16 -29 -30 -24 -30 6 0 16 5 23 12
27 27 20 -2 -9 -38 -66 -82 -88 -168 -49 -186 29 -13 96 -7 139 12 25 12 78
23 120 27 75 6 110 18 164 55 49 35 22 30 -45 -7 -41 -22 -78 -35 -101 -35
-20 0 -37 2 -37 4 0 2 7 20 15 39 17 42 20 100 5 128 -9 17 -7 19 19 19 47 0
154 -37 174 -61 11 -12 26 -19 36 -16 15 4 20 -7 30 -71 10 -59 28 -106 82
-211 42 -82 74 -158 79 -190 11 -61 13 -164 4 -210 -6 -27 -11 -31 -37 -31
-56 0 -137 -83 -137 -141 0 -21 -6 -28 -27 -33 -37 -8 -59 -27 -126 -116 -38
-49 -63 -94 -73 -130 -8 -30 -17 -60 -19 -66 -8 -26 -231 -123 -365 -158 -74
-20 -155 -42 -180 -50 -81 -26 -12 -17 107 14 63 17 129 30 147 30 53 1 151
43 223 95 37 28 71 52 76 53 4 2 7 -22 7 -54 0 -52 4 -64 47 -126 l47 -68 -18
-58 c-20 -63 -26 -70 -200 -219 -61 -53 -138 -128 -172 -167 -135 -159 -249
-168 -604 -50 -150 51 -249 93 -259 113 -5 9 -14 52 -20 94 -20 146 -39 212
-154 542 -105 302 -154 430 -208 541 -10 22 -19 48 -19 56 0 9 -15 81 -34 160
-19 79 -37 158 -40 177 l-6 34 82 -5 c83 -5 104 0 212 46 21 10 39 16 40 14 2
-2 9 -19 16 -38 7 -19 25 -47 38 -62 18 -19 21 -28 11 -28 -17 1 -78 15 -101
25 -11 4 -18 3 -18 -4 0 -24 110 -44 214 -38 84 4 113 10 173 36 51 22 87 31
126 31 40 0 61 5 78 20 l24 20 -78 76 c-71 69 -77 78 -64 92 14 13 19 12 47
-12 46 -38 62 -31 18 8 -29 25 -36 38 -32 57 5 23 5 23 -10 5 -12 -15 -18 -17
-30 -7 -8 7 -17 25 -19 39 -4 26 -4 26 -12 5 -8 -24 -16 -27 -52 -17 -17 5
-23 14 -24 38 l-1 31 -7 -30 c-5 -27 -11 -30 -47 -33 l-40 -3 -11 48 -10 48
-2 -52 c-1 -45 -4 -53 -20 -53 -11 0 -23 -5 -27 -12 -5 -8 0 -9 14 -6 12 4 22
1 22 -4 0 -6 -12 -8 -29 -5 -19 4 -31 2 -34 -6 -2 -7 -7 16 -11 51 -4 34 -11
62 -16 62 -12 0 -12 -8 -1 -72 7 -42 6 -47 -13 -52 -27 -7 -44 9 -58 55 -6 22
-15 39 -20 39 -13 0 -9 -21 11 -66 l19 -42 -68 -27 -68 -28 -36 23 c-20 12
-52 42 -72 66 -20 25 -39 42 -41 40 -10 -10 61 -99 94 -118 32 -19 33 -21 15
-34 -23 -16 -62 1 -138 61 -79 63 -79 63 -66 39 16 -30 98 -103 129 -115 22
-8 24 -12 13 -19 -23 -15 -51 -11 -100 13 -51 26 -54 34 -69 197 -6 58 -22
182 -36 275 -23 149 -43 334 -29 265 21 -102 68 -201 104 -220 32 -17 35 -11
8 18 -44 47 -98 181 -98 245 0 44 45 121 97 167 45 40 204 140 222 140 4 0 20
11 34 24 15 14 29 21 31 17 3 -5 -54 -66 -128 -137 -105 -102 -139 -142 -164
-193 -48 -96 -39 -120 10 -29 32 59 72 109 180 219 l138 142 58 -12 c91 -19
278 -25 359 -12 66 12 168 53 203 83 17 14 60 73 60 82 0 3 -22 -17 -49 -44
-59 -59 -109 -76 -269 -93 -97 -9 -135 -9 -270 7 -236 28 -342 32 -379 12 -44
-22 -89 -83 -123 -166 -58 -141 -61 -200 -20 -495 11 -82 25 -199 31 -260 6
-60 17 -137 25 -170 27 -118 8 -158 -30 -59 -47 126 -77 279 -93 479 -19 226
-20 301 -8 430 9 106 18 127 78 182 54 50 107 78 182 98 72 18 236 5 381 -30
168 -41 240 -31 405 57 108 58 147 90 146 120 0 16 -3 16 -31 -3 -43 -28 -115
-59 -151 -65 -20 -4 1 11 59 43 49 26 95 58 104 71 14 21 13 22 -14 21 -23 0
-25 -2 -11 -8 15 -5 8 -12 -35 -33 -100 -48 -164 -62 -298 -62 -121 -1 -127 0
-200 33 -41 18 -86 41 -100 51 -47 32 -100 62 -100 57 0 -11 152 -100 222
-130 69 -30 80 -32 188 -30 92 1 107 -1 75 -9 -22 -5 -83 -8 -136 -6 -90 3
-101 6 -182 46 -110 55 -233 171 -297 282 -23 41 -50 84 -59 94 -17 20 -14 20
39 -8 21 -10 42 -31 50 -49 24 -57 153 -173 235 -212 127 -60 211 -84 325 -91
97 -6 110 -4 170 19 36 14 58 26 50 27 -8 1 -4 6 10 11 19 6 15 7 -16 3 -30
-4 -41 -2 -41 8 0 22 -67 119 -110 161 -22 21 -62 53 -89 70 -31 21 -71 64
-113 123 -168 232 -329 364 -519 425 -63 20 -70 24 -50 32 63 23 168 26 258 6z
m671 -12 c18 -12 52 -47 74 -77 38 -50 43 -64 60 -165 29 -185 47 -230 119
-300 79 -76 90 -96 81 -151 -6 -42 -25 -72 -25 -39 0 8 -34 51 -75 96 -87 93
-92 101 -138 239 -53 157 -101 273 -136 330 -31 50 -37 71 -24 83 11 12 29 8
64 -16z m-1039 -74 c3 -45 14 -85 30 -118 41 -81 113 -168 158 -194 41 -23
216 -87 475 -173 149 -50 162 -56 212 -111 40 -44 73 -93 56 -86 -4 3 -51 26
-105 52 -70 34 -145 59 -275 93 -226 57 -295 80 -360 116 -127 71 -223 250
-223 413 0 59 4 75 20 75 4 0 10 -30 12 -67z m128 31 c178 -68 307 -151 408
-262 89 -99 209 -257 189 -249 -8 3 -97 33 -198 67 -302 102 -331 115 -381
168 -72 77 -114 165 -133 276 -6 38 -6 38 22 32 15 -4 57 -18 93 -32z m-174
-68 c1 -84 5 -102 33 -162 17 -37 47 -89 67 -117 l35 -49 -33 7 c-46 10 -64
29 -103 109 -48 98 -68 182 -58 242 7 39 13 49 33 55 14 4 25 7 25 8 0 1 1
-41 1 -93z m-76 29 c-20 -60 15 -193 76 -284 35 -55 35 -64 -1 -75 -29 -8 -63
46 -92 146 -31 106 -32 209 -2 239 27 27 34 19 19 -26z m-68 -60 c-3 -61 1
-92 23 -163 15 -48 38 -101 51 -119 21 -27 22 -32 7 -37 -24 -10 -79 48 -114
120 -36 73 -49 167 -29 214 11 27 44 60 60 60 3 0 4 -34 2 -75z m1455 -65 c17
0 49 -44 68 -90 9 -25 19 -81 22 -125 4 -62 12 -91 33 -130 53 -95 60 -193 20
-277 -10 -21 -14 -38 -9 -38 18 0 8 -23 -25 -56 -19 -19 -42 -34 -52 -34 -16
0 -16 1 1 20 9 10 21 34 25 52 3 18 12 32 18 31 8 -2 11 15 10 50 -1 28 2 78
7 111 10 71 -6 106 -68 151 -75 55 -104 119 -127 280 -6 44 -14 88 -16 98 -4
14 4 11 39 -13 25 -16 49 -30 54 -30z m203 -209 c30 -102 35 -191 16 -280 -9
-41 -19 -78 -23 -82 -5 -5 -8 29 -8 74 -1 71 -5 90 -32 147 -22 44 -34 87 -39
135 -4 39 -15 91 -24 117 -10 26 -15 50 -11 53 3 4 27 -16 52 -43 37 -38 52
-64 69 -121z m25 161 c15 -10 51 -90 66 -142 7 -25 13 -101 13 -170 1 -118 -1
-128 -27 -177 -21 -42 -32 -53 -52 -53 -24 0 -24 0 -8 38 10 22 18 78 21 138
7 151 -41 331 -96 364 -13 7 -6 9 28 10 25 0 50 -4 55 -8z m146 -73 c58 -58
70 -82 76 -156 7 -84 -17 -173 -58 -221 -35 -39 -35 -40 -6 -37 39 3 148 -42
185 -77 47 -45 107 -139 127 -199 21 -63 32 -56 15 8 -30 104 -148 240 -227
259 -29 8 -29 15 1 43 43 40 120 5 209 -97 76 -88 99 -149 95 -255 l-3 -80
-45 38 c-34 28 -51 53 -72 109 -34 86 -85 157 -137 192 -46 30 -168 55 -179
37 -4 -7 -20 -17 -36 -23 -27 -10 -28 -10 -15 9 97 137 93 129 97 204 8 128
-30 260 -78 275 -10 3 -8 -3 6 -19 35 -39 48 -97 49 -204 0 -108 -15 -154 -71
-220 l-26 -30 19 35 c15 29 18 64 21 203 4 171 -2 209 -36 250 -30 35 49 -4
89 -44z m-1578 -144 c47 -19 80 -55 124 -134 54 -95 125 -175 215 -242 86 -63
88 -74 6 -33 -48 25 -200 142 -216 168 -12 20 -123 106 -166 129 -32 17 -59
21 -126 22 -47 0 -101 -3 -120 -7 l-35 -8 30 25 c39 32 162 77 188 69 12 -4
17 -2 13 4 -6 10 10 18 40 21 6 0 28 -6 47 -14z m-456 -34 c57 -25 101 -65 84
-75 -6 -4 -28 6 -48 23 -21 17 -55 37 -76 46 -50 21 -188 31 -213 17 -16 -10
-12 -11 27 -12 102 0 233 -41 268 -84 10 -12 7 -16 -26 -25 -69 -19 -127 -13
-219 24 -47 19 -93 35 -100 35 -20 0 -17 16 9 43 32 35 42 37 147 34 72 -3
107 -9 147 -26z m700 -52 c15 -6 112 -33 215 -59 183 -48 291 -89 396 -153 28
-17 52 -37 52 -43 0 -7 8 -14 18 -17 10 -2 -1 -9 -28 -16 -144 -42 -436 41
-578 163 -47 40 -68 62 -111 119 -16 20 -5 22 36 6z m-296 -44 c40 -21 103
-70 179 -141 30 -28 86 -74 123 -102 38 -29 65 -52 61 -52 -4 0 -57 13 -118
29 -61 16 -123 32 -138 35 -18 4 -28 13 -28 24 0 27 -52 104 -94 138 -48 40
-136 68 -211 67 -65 -1 -64 2 6 17 63 13 180 5 220 -15z m-675 -20 c9 -20 40
-57 69 -83 93 -83 203 -304 221 -444 l5 -43 -130 -130 c-117 -115 -130 -126
-121 -95 33 115 -1 291 -120 614 -22 61 -40 123 -40 138 0 15 -5 28 -10 28
-18 0 1 -80 47 -200 88 -226 131 -443 112 -560 -11 -69 -21 -90 -73 -148 -18
-20 -49 -61 -68 -90 -44 -66 -48 -59 -50 89 -1 96 1 110 31 178 44 104 58 191
44 281 -14 89 -39 125 -28 40 22 -162 -4 -288 -76 -367 -22 -24 -39 -46 -39
-50 0 -5 -18 -28 -40 -53 -22 -25 -50 -64 -62 -87 -13 -24 -25 -43 -28 -42 -3
1 -27 26 -55 57 -31 34 -45 57 -37 59 6 3 12 10 12 17 0 7 12 24 28 39 l28 26
17 -49 c10 -28 23 -50 28 -50 6 0 9 6 6 14 -3 8 -11 34 -17 57 -15 55 3 76 20
24 18 -56 23 -34 6 26 -39 129 6 350 104 512 41 68 47 83 30 72 -20 -12 -99
-174 -125 -255 -20 -63 -28 -114 -32 -197 -6 -117 -17 -145 -28 -70 -9 56 11
192 40 286 27 84 105 224 135 244 22 13 26 48 9 95 -15 44 16 94 73 117 32 12
39 19 27 26 -10 6 -1 9 28 9 38 0 44 -3 59 -35z m218 -30 c39 3 108 11 154 17
143 18 251 -16 319 -100 18 -22 35 -51 39 -66 6 -26 6 -26 -57 -27 l-64 -1 96
-14 c53 -7 158 -29 233 -49 76 -20 147 -35 159 -34 32 3 115 -10 171 -28 35
-11 75 -14 145 -11 92 4 94 4 46 -8 -106 -26 -208 -16 -460 45 -103 24 -302
46 -346 37 -19 -3 -45 -16 -59 -27 l-25 -20 30 14 c17 8 43 17 59 21 38 9 211
-16 411 -61 225 -50 260 -51 438 -14 81 17 169 41 197 54 71 34 52 16 -38 -36
-140 -82 -229 -98 -382 -72 -52 9 -129 21 -170 27 -41 7 -79 17 -85 24 -18 21
-77 34 -154 34 -130 0 -256 -46 -298 -110 -22 -32 -23 -32 -23 -8 0 14 -5 39
-11 57 -9 27 -8 35 6 51 37 41 7 18 -35 -27 -25 -26 -33 -37 -19 -25 l26 23 6
-28 c11 -57 -11 -276 -38 -373 -45 -158 -155 -402 -266 -586 -27 -45 -49 -92
-49 -105 0 -15 22 15 61 86 188 337 304 626 316 785 10 125 47 176 159 215 53
19 89 24 154 24 85 0 165 -17 90 -18 -103 -2 -228 -59 -295 -133 -49 -55 -62
-95 -71 -228 -6 -94 -21 -149 -49 -180 -22 -25 -110 -191 -125 -235 -14 -43
-135 -273 -198 -377 -106 -174 -162 -302 -162 -372 0 -32 9 -13 31 65 21 76
73 186 140 296 58 95 178 319 208 389 42 97 134 263 143 258 11 -7 10 -52 -2
-67 -20 -24 -77 -113 -100 -157 -13 -25 -45 -81 -71 -125 -62 -106 -189 -379
-222 -480 -30 -90 -60 -229 -77 -355 -12 -87 -18 -115 -51 -235 l-19 -70 5
245 c6 320 32 513 90 663 8 20 15 50 15 66 0 16 14 58 31 95 17 36 29 71 27
77 -4 11 -205 -387 -251 -496 -11 -27 -22 -52 -24 -54 -2 -3 -16 8 -31 23 -19
17 -35 24 -46 20 -24 -9 -66 -85 -66 -120 0 -16 -5 -36 -10 -44 -7 -12 -10 -8
-10 15 0 51 20 159 33 174 12 14 128 73 134 68 1 -2 -7 -22 -19 -45 -11 -24
-18 -45 -15 -48 6 -7 58 91 55 103 -1 5 22 58 51 118 29 61 77 164 106 230 84
190 126 277 131 272 2 -2 -2 -19 -10 -38 -15 -36 -33 -159 -23 -159 3 0 11 26
18 58 6 31 31 111 56 176 25 66 48 143 53 171 5 29 20 87 35 129 14 42 25 84
23 94 -2 9 9 39 25 66 15 27 26 50 23 53 -5 6 -48 -51 -76 -102 -48 -87 -67
-114 -159 -224 -53 -63 -147 -159 -209 -215 -87 -77 -125 -119 -164 -181 -64
-103 -51 -57 16 55 67 113 192 267 340 420 67 69 150 157 185 197 35 40 68 70
72 68 3 -3 13 3 20 12 10 12 10 14 2 9 -46 -27 49 94 131 167 17 16 22 24 11
19 -18 -9 -63 -56 -235 -243 l-65 -71 -8 52 c-12 88 -46 184 -92 265 -35 60
-39 74 -22 61 12 -8 45 -26 72 -39 59 -28 117 -76 157 -131 22 -30 28 -35 28
-19 0 11 -13 38 -29 61 -56 76 -97 109 -178 140 l-78 31 145 -5 c210 -7 235
-10 290 -40 50 -27 73 -27 51 0 -7 8 -36 26 -64 41 -46 23 -62 25 -171 25
-189 0 -283 14 -324 48 -19 15 -41 37 -49 49 -15 22 -15 22 47 -3 54 -22 72
-24 134 -19z m-420 -71 c9 -23 7 -92 -2 -96 -13 -5 -87 -109 -109 -153 -12
-22 -33 -78 -48 -125 -23 -71 -28 -104 -29 -204 l-1 -118 -33 -35 c-31 -34
-34 -35 -47 -17 -8 11 -24 43 -35 72 -31 80 -26 175 14 297 3 11 -4 0 -16 -25
-15 -32 -23 -70 -26 -131 -5 -94 5 -139 45 -203 33 -51 16 -72 -20 -24 -59 80
-79 232 -44 348 20 69 79 154 136 197 l44 34 20 -33 c23 -38 34 -23 18 24 -25
72 0 137 70 180 53 32 55 32 63 12z m2581 -70 c81 -17 150 -85 202 -201 23
-52 33 -127 19 -141 -3 -3 -29 11 -58 30 -42 28 -65 55 -112 131 -58 93 -139
187 -152 175 -3 -4 11 -24 30 -46 20 -22 36 -42 36 -46 0 -3 -18 -6 -40 -6
-74 0 -125 81 -60 95 16 4 32 10 35 15 5 8 41 6 100 -6z m-1355 -273 c22 -6
15 -12 -65 -54 -112 -58 -200 -127 -242 -191 -43 -64 -44 -33 -3 71 35 88 81
150 124 169 33 14 144 17 186 5z m-689 -262 c-40 -116 -89 -237 -112 -278 -11
-19 -63 -131 -115 -250 -53 -119 -116 -255 -141 -303 -39 -75 -49 -88 -70 -88
l-25 0 35 39 c39 43 78 106 102 166 23 56 0 30 -44 -49 -43 -78 -114 -165
-157 -194 l-32 -21 -4 42 c-3 24 -6 106 -7 183 l-2 140 47 72 c26 40 50 69 54
65 4 -4 13 -25 20 -46 6 -20 27 -54 47 -75 23 -24 32 -41 26 -49 -100 -145
-153 -226 -153 -235 0 -20 31 15 98 110 37 52 82 115 101 140 32 45 206 393
258 516 41 98 94 208 99 204 2 -3 -9 -42 -25 -89z m2414 20 c28 -42 30 -50 33
-160 5 -173 -29 -307 -101 -388 l-29 -34 5 44 c3 24 17 77 31 117 14 40 28 96
31 125 5 44 2 38 -19 -38 -13 -49 -28 -101 -34 -115 -9 -23 -10 -23 -15 -5
-13 41 -9 82 17 165 20 63 28 113 31 195 l4 110 -13 -100 c-20 -159 -65 -272
-67 -167 0 20 -6 75 -13 122 l-14 85 45 46 c25 26 53 46 62 45 9 -2 30 -23 46
-47z m293 -171 c59 -56 89 -111 95 -176 9 -90 1 -101 -34 -49 -16 24 -54 61
-84 83 -73 51 -172 135 -190 161 -8 11 -18 38 -23 60 l-9 40 110 -48 c61 -27
121 -59 135 -71z m-2782 85 c-8 -16 -65 -131 -125 -256 -61 -125 -122 -244
-135 -263 l-24 -35 -27 35 c-24 32 -65 123 -65 146 0 13 59 79 81 90 15 9 21
2 43 -45 14 -31 31 -55 40 -55 12 0 8 14 -16 66 l-31 67 66 59 c36 32 95 94
132 138 68 84 87 99 61 53z m-441 -171 c0 -64 5 -116 12 -128 11 -19 8 -27
-15 -60 -43 -60 -63 -121 -70 -214 l-7 -85 -38 60 c-46 73 -60 120 -61 206 -1
58 4 75 42 153 24 48 45 86 47 84 1 -2 -1 -25 -5 -53 -6 -35 -4 -71 7 -120 18
-84 33 -108 45 -74 5 12 5 25 0 28 -5 3 -14 33 -21 66 -15 71 -4 137 35 203
14 23 26 42 27 42 1 0 2 -48 2 -108z m-311 -37 c-17 -58 -19 -176 -4 -255 5
-30 29 -93 52 -140 56 -112 56 -112 7 -60 -50 54 -108 173 -116 238 -7 61 10
151 42 220 30 66 40 65 19 -3z m116 -115 c-14 -57 -7 -147 15 -210 19 -53 72
-130 90 -130 12 0 15 -14 15 -60 0 -58 -1 -60 -20 -50 -62 33 -146 162 -191
295 -15 44 -19 232 -6 279 l8 29 51 -51 50 -51 -12 -51z m979 36 c-3 -91 10
-387 18 -399 4 -6 7 -139 9 -296 1 -183 7 -337 18 -426 19 -167 23 -245 14
-245 -11 0 -111 82 -155 127 -44 45 -77 119 -94 207 -14 77 -10 96 10 36 33
-101 87 -186 135 -212 14 -7 8 4 -18 32 -88 98 -136 263 -120 410 11 102 9
253 -5 278 -9 17 -1 42 52 154 67 140 117 294 116 356 0 29 -9 10 -44 -93 -72
-214 -98 -274 -200 -455 -42 -74 -124 -257 -151 -335 -21 -58 -67 -166 -70
-162 -6 6 37 229 61 310 40 138 136 353 227 506 28 47 62 106 76 131 14 25 43
76 65 114 37 63 41 67 49 45 5 -13 8 -50 7 -83z m1643 -443 c21 -26 108 -9
108 20 0 7 9 18 21 25 19 12 20 11 13 -25 -4 -21 -13 -47 -20 -58 -21 -29 -92
-54 -157 -54 -56 -1 -58 0 -51 22 3 12 12 33 19 46 l12 24 19 -32 c10 -17 24
-31 32 -31 9 0 5 11 -12 31 -30 35 -31 42 -14 72 l13 22 3 -25 c2 -14 9 -31
14 -37z m-727 -42 c67 -44 78 -56 67 -78 -9 -15 -8 -25 3 -39 13 -18 14 -17
15 14 0 17 4 32 8 32 15 0 54 -48 48 -58 -3 -5 -36 -11 -73 -14 -38 -3 -88
-14 -113 -25 -25 -11 -57 -23 -72 -26 l-26 -7 16 33 c12 22 17 57 17 109 l0
78 40 0 c23 0 53 -9 70 -19z m-1131 -164 c-24 -73 -75 -172 -129 -251 -25 -37
-41 -65 -36 -61 21 12 92 126 136 217 l45 92 0 -50 c0 -60 -30 -126 -96 -214
-27 -36 -70 -99 -96 -140 -45 -72 -98 -134 -98 -114 0 55 161 470 239 617 l36
69 8 -57 c6 -43 4 -69 -9 -108z m838 41 c12 -9 32 -18 43 -18 25 0 65 26 65
43 0 7 12 21 27 31 l26 19 -7 -53 c-4 -29 -14 -66 -22 -82 -13 -25 -20 -28
-63 -28 -37 0 -54 6 -74 24 -27 25 -57 86 -57 116 0 32 25 29 32 -3 3 -17 17
-39 30 -49z m1697 -183 c39 -49 128 -133 186 -175 29 -21 21 -12 -94 105 -57
58 -102 107 -99 110 10 10 124 -27 156 -52 73 -56 107 -151 96 -274 l-7 -81
-41 39 c-22 21 -61 54 -86 73 -96 73 -162 150 -176 205 -7 28 -3 25 51 -29 51
-52 197 -156 218 -156 12 0 -51 52 -118 97 -72 49 -170 151 -190 198 l-14 35
37 -19 c20 -11 57 -45 81 -76z m168 -335 c50 -38 73 -62 73 -77 0 -12 -23 -66
-51 -122 l-52 -100 -28 82 c-16 45 -35 116 -44 157 -19 91 -35 117 -86 139
l-39 16 0 60 0 59 78 -79 c42 -44 110 -105 149 -135z m-2908 -32 c-16 -57 -22
-267 -10 -348 21 -130 61 -251 126 -375 103 -198 168 -315 223 -405 l53 -85
-51 55 c-74 79 -198 286 -327 543 -44 87 -62 211 -65 444 l-2 143 29 30 c16
16 30 30 31 30 2 0 -2 -15 -7 -32z m-77 -189 c-6 -259 21 -366 136 -554 34
-54 62 -103 62 -108 0 -5 35 -66 77 -136 60 -97 103 -152 188 -240 196 -204
349 -356 420 -421 l70 -63 -64 44 c-88 60 -333 271 -406 350 -214 230 -444
614 -494 824 -12 50 -26 106 -31 125 -22 88 -23 148 -1 220 24 78 39 120 43
120 2 0 1 -72 0 -161z m-443 -1517 c72 -70 147 -143 168 -163 21 -20 60 -73
87 -118 43 -72 49 -89 54 -153 l5 -73 -23 20 c-12 11 -58 67 -102 125 -44 58
-94 116 -112 130 -17 14 -65 56 -106 95 -42 38 -122 108 -178 155 -75 62 -98
86 -88 92 31 17 131 35 148 26 10 -4 76 -66 147 -136z"/>
<path d="M1653 7273 c-11 -38 -9 -149 7 -403 10 -169 11 -242 1 -340 -15 -166
-13 -218 6 -110 15 89 19 373 9 620 l-5 135 19 -75 c26 -98 39 -238 40 -441 1
-90 5 -184 10 -209 17 -87 3 536 -15 645 -29 184 -54 245 -72 178z"/>
<path d="M2275 4587 c-27 -8 -66 -21 -86 -29 -38 -17 -156 -122 -190 -170 -20
-27 -16 -26 47 17 80 53 111 63 224 71 92 6 295 -15 390 -41 153 -42 210 -54
268 -57 l62 -4 0 63 c0 55 -4 67 -26 90 -14 14 -28 22 -31 19 -4 -3 2 -13 13
-21 24 -18 5 -20 -21 -1 -11 7 -42 17 -70 20 -27 4 -86 16 -130 27 -105 25
-377 35 -450 16z"/>
<path d="M3546 3642 c20 -14 44 -57 44 -79 0 -36 -41 -117 -51 -101 -6 10 -18
4 -46 -24 -21 -20 -56 -42 -79 -48 -36 -11 -45 -10 -82 9 -48 24 -100 27 -128
7 -16 -13 -17 -18 -7 -35 11 -17 9 -23 -13 -40 -81 -63 -173 -21 -195 89 l-7
35 -1 -39 c-3 -116 133 -175 222 -96 46 40 68 41 94 7 12 -16 20 -34 17 -40
-2 -7 0 -18 5 -26 13 -20 60 -5 70 22 7 18 3 26 -20 45 -35 28 -38 45 -6 37
13 -4 43 1 67 9 40 14 45 13 56 -2 18 -23 17 -31 -1 -39 -9 -3 -22 2 -30 13
-13 18 -14 18 -8 -3 6 -25 23 -29 54 -13 21 12 26 36 7 42 -6 2 9 24 33 49 30
30 49 60 58 91 12 43 11 51 -9 92 -13 28 -28 46 -38 46 -10 0 -13 -3 -6 -8z"/>
<path d="M1295 7184 c-41 -21 -58 -38 -124 -119 -73 -90 -95 -127 -126 -210
-41 -108 -55 -195 -55 -338 0 -168 9 -221 69 -412 50 -156 76 -215 99 -223 19
-6 14 18 -14 78 -43 91 -121 331 -132 405 -14 104 -6 274 18 363 30 107 81
212 147 300 63 86 81 104 136 138 20 13 37 26 37 29 0 10 -25 5 -55 -11z"/>
<path d="M4410 3477 c0 -5 15 -26 33 -48 48 -55 59 -97 64 -249 l5 -135 -67
-125 c-38 -69 -76 -141 -87 -161 -10 -20 -30 -83 -45 -140 -14 -57 -41 -135
-61 -174 -47 -93 -95 -312 -61 -278 6 6 15 41 21 79 11 71 61 231 64 204 1 -8
8 -60 14 -115 11 -88 45 -213 56 -203 2 2 -3 24 -10 49 -43 143 -40 322 8 397
156 251 190 349 190 552 1 156 -22 241 -83 310 -22 25 -40 41 -41 37z"/>
</g>
</svg>
