<?xml version="1.0" standalone="no"?>
<!DOCTYPE svg PUBLIC "-//W3C//DTD SVG 20010904//EN"
 "http://www.w3.org/TR/2001/REC-SVG-20010904/DTD/svg10.dtd">
<svg version="1.0" xmlns="http://www.w3.org/2000/svg"
 width="860.000000pt" height="648.000000pt" viewBox="0 0 860.000000 648.000000"
 preserveAspectRatio="xMidYMid meet">
<metadata>
Created by potrace 1.16, written by Peter Selinger 2001-2019
</metadata>
<g transform="translate(0.000000,648.000000) scale(0.100000,-0.100000)"
fill="#000000" stroke="none">
<path d="M1310 6023 c-1 -194 -104 -389 -308 -585 -156 -150 -375 -277 -599
-348 -82 -26 -103 -36 -103 -51 0 -11 1 -19 3 -19 27 0 209 60 283 92 372 164
673 471 739 753 20 84 20 215 0 215 -12 0 -15 -13 -15 -57z"/>
<path d="M4616 5778 c-73 -16 -134 -78 -145 -146 -6 -36 -8 -37 -57 -42 -61
-6 -76 -17 -103 -74 -36 -73 -23 -132 34 -159 27 -13 33 -23 39 -58 9 -55 82
-131 141 -148 96 -26 204 -4 267 56 l26 25 16 -24 c27 -41 87 -68 151 -68 59
0 85 9 122 42 19 18 26 19 54 9 18 -6 53 -11 80 -11 53 0 98 29 125 81 10 21
22 29 42 29 38 1 108 34 121 58 6 12 11 39 11 62 0 34 -6 48 -34 76 -23 23
-43 34 -64 34 -24 0 -34 8 -60 49 -41 66 -116 111 -188 111 -27 0 -55 -5 -62
-12 -9 -9 -21 -4 -50 25 -68 67 -153 60 -241 -19 -51 -46 -51 -46 -51 -19 0
36 -27 91 -53 108 -31 20 -76 26 -121 15z m105 -28 c24 -14 45 -54 54 -107 4
-24 10 -43 14 -43 4 0 25 19 46 41 46 48 106 78 153 79 24 0 43 -10 77 -41 42
-39 46 -40 78 -30 74 25 168 -17 225 -99 19 -28 38 -43 66 -51 124 -34 109
-155 -21 -173 -45 -6 -51 -9 -66 -45 -10 -22 -30 -47 -44 -57 -34 -21 -110
-21 -152 0 -37 20 -45 20 -38 3 8 -20 -75 -57 -128 -57 -58 0 -91 14 -127 52
-27 29 -31 31 -51 18 -103 -65 -181 -83 -265 -61 -57 16 -119 73 -132 121 -7
27 -21 45 -50 64 -22 15 -42 37 -46 52 -9 37 13 103 47 137 30 29 55 32 100
13 14 -6 18 1 24 44 8 55 38 100 90 131 33 21 114 25 146 9z"/>
<path d="M2778 5765 c-52 -19 -101 -58 -133 -106 -26 -40 -27 -41 -41 -20 -30
43 -129 48 -205 10 -36 -18 -99 -81 -99 -99 0 -6 -27 -10 -60 -10 -97 0 -140
-32 -140 -103 0 -27 8 -42 35 -66 20 -17 48 -33 63 -37 49 -11 52 -13 52 -46
0 -80 79 -138 188 -138 35 0 79 7 99 15 44 19 40 19 47 -7 9 -38 61 -92 117
-123 45 -24 69 -30 141 -33 77 -4 92 -2 140 22 29 14 61 31 70 38 14 10 23 9
50 -7 23 -13 58 -20 114 -23 73 -4 89 -1 140 22 82 38 139 88 166 146 18 39
28 50 46 50 28 0 90 25 114 47 43 39 1 113 -63 113 -28 0 -39 13 -20 24 4 3
11 23 14 44 19 115 -71 192 -226 192 -113 0 -219 -32 -261 -79 -29 -32 -36
-26 -36 28 0 59 -29 106 -85 138 -32 18 -55 23 -115 22 -41 0 -92 -7 -112 -14z
m182 -15 c72 -20 120 -99 120 -197 0 -24 5 -43 10 -43 6 0 10 6 10 13 0 17 57
71 96 90 46 24 160 39 229 32 69 -7 134 -39 152 -75 21 -42 16 -102 -12 -141
l-26 -34 61 -5 c116 -10 105 -84 -17 -111 -50 -12 -56 -16 -78 -59 -29 -56
-92 -115 -154 -143 -64 -29 -170 -29 -232 0 l-47 21 -67 -34 c-58 -29 -77 -34
-139 -34 -40 0 -93 7 -119 16 -55 19 -135 86 -143 121 -6 21 -11 24 -33 19
-59 -14 -158 -18 -198 -7 -56 15 -103 63 -103 104 0 42 -5 47 -73 79 -36 18
-62 38 -69 53 -27 61 32 115 127 115 47 1 52 3 77 40 37 53 98 83 171 84 52 1
61 -2 83 -27 13 -15 24 -39 24 -53 0 -13 5 -24 10 -24 6 0 10 10 10 23 0 13
14 44 31 70 62 93 187 138 299 107z"/>
<path d="M7135 5725 c-42 -15 -92 -65 -101 -102 -5 -19 -13 -23 -48 -23 -33 0
-48 -6 -70 -28 -74 -78 -43 -202 51 -202 21 0 33 -8 45 -30 51 -89 182 -94
317 -12 42 25 48 27 71 15 31 -17 116 -11 159 12 53 27 71 51 71 94 0 44 -32
78 -82 88 -19 4 -28 12 -28 25 0 33 -28 75 -59 88 -35 14 -81 7 -128 -21 l-33
-18 0 22 c0 40 -36 85 -77 96 -46 13 -39 13 -88 -4z m100 -21 c22 -9 45 -56
45 -93 0 -36 13 -47 31 -25 21 26 66 44 108 44 45 0 71 -20 71 -55 0 -38 11
-55 35 -55 13 0 38 -12 55 -26 64 -54 17 -115 -94 -122 -35 -2 -72 0 -82 6
-16 8 -31 3 -74 -24 -72 -46 -148 -68 -203 -59 -32 6 -52 18 -84 51 -24 24
-50 44 -58 44 -28 0 -73 29 -80 51 -11 34 4 85 33 114 23 24 32 26 69 21 39
-5 43 -4 43 16 0 30 37 86 68 103 28 15 89 20 117 9z"/>
<path d="M1600 4604 c-217 -58 -361 -283 -360 -562 0 -43 4 -94 9 -115 7 -31
5 -45 -12 -77 -20 -37 -24 -40 -52 -33 -51 13 -130 6 -171 -15 -77 -40 -144
-132 -158 -217 l-7 -40 -97 0 c-90 0 -103 -3 -163 -32 -81 -40 -160 -117 -196
-192 -25 -49 -28 -68 -28 -151 0 -84 3 -102 28 -152 27 -54 125 -158 149 -158
6 0 -16 -17 -49 -39 -61 -39 -123 -105 -123 -130 0 -8 13 4 29 26 34 47 75 80
152 123 31 17 43 28 28 25 -21 -5 -35 3 -85 52 -87 84 -109 135 -109 253 0
115 20 165 99 244 73 72 151 108 248 114 70 4 81 2 122 -22 82 -48 134 -164
151 -332 l6 -61 -63 -49 c-102 -79 -297 -281 -381 -394 -43 -58 -91 -122 -108
-143 -38 -47 -49 -84 -49 -169 0 -193 179 -523 429 -789 l80 -86 -24 -101
c-39 -162 -66 -219 -135 -283 -36 -33 -60 -64 -60 -76 0 -11 11 -37 25 -57 14
-20 25 -42 25 -47 0 -6 -20 -34 -45 -61 -42 -47 -45 -54 -45 -105 0 -61 0 -60
-134 -177 -51 -44 -96 -107 -96 -136 0 -5 9 -10 19 -10 13 0 29 17 47 50 37
68 113 123 221 161 122 42 390 175 498 247 103 69 201 151 245 207 50 63 25
53 -53 -22 -94 -89 -257 -198 -419 -279 -120 -60 -268 -124 -287 -124 -5 0 -9
28 -10 63 -2 83 9 92 181 167 130 56 259 124 307 161 13 11 21 19 19 19 -3 0
-66 -31 -140 -70 -74 -38 -166 -83 -206 -99 l-72 -30 0 30 c0 16 -11 47 -25
68 -14 21 -23 45 -20 53 12 30 100 94 168 122 38 16 108 53 155 83 183 115
301 233 449 450 l82 120 99 7 c96 6 152 -3 152 -25 0 -20 -130 -157 -211 -221
-49 -39 -87 -74 -84 -76 13 -14 134 77 232 174 98 98 116 112 153 117 24 3 53
15 66 28 l24 23 28 -27 c37 -36 88 -53 107 -37 27 22 17 57 -33 112 -26 29
-54 62 -62 73 -15 19 -15 19 10 2 97 -69 215 -90 245 -43 23 34 12 49 -61 80
-35 16 -63 30 -62 31 2 2 26 -1 54 -5 29 -5 68 -5 89 0 l37 8 -7 -36 c-15 -82
-83 -264 -146 -391 -132 -267 -351 -532 -584 -706 -136 -102 -174 -126 -300
-192 -127 -66 -112 -68 23 -3 172 82 335 196 476 330 278 266 488 638 566
1007 21 99 41 416 25 401 -4 -4 -11 -68 -16 -143 -9 -171 -15 -197 -37 -185
-9 5 -55 18 -102 28 l-85 20 53 1 c90 2 138 40 108 87 -17 24 -87 44 -158 44
-48 0 -48 -11 6 165 53 172 77 293 83 430 6 130 -8 251 -33 282 -14 17 -15 16
-9 -12 3 -16 8 -89 12 -161 4 -100 2 -155 -11 -234 -20 -117 -74 -323 -108
-407 -23 -56 -23 -57 -80 -70 -32 -7 -81 -24 -109 -38 -49 -25 -139 -107 -139
-126 0 -5 -11 -9 -25 -9 l-25 0 16 37 c171 393 264 724 264 938 0 67 3 85 19
99 16 14 20 15 30 2 38 -45 147 -15 178 48 l17 36 29 -27 c85 -81 180 -349
227 -638 25 -154 28 -481 5 -625 -43 -266 -140 -535 -263 -725 -226 -352 -546
-620 -937 -786 l-90 -38 58 -1 c50 0 73 7 160 50 208 101 425 258 578 418 213
221 342 427 439 697 21 61 39 108 39 105 1 -3 12 -84 26 -180 37 -263 85 -857
85 -1047 0 -37 3 -43 22 -43 21 0 21 0 15 178 -12 332 -52 743 -97 992 -11 63
-23 138 -27 166 -7 66 12 82 22 17 9 -64 60 -204 103 -288 49 -93 138 -212
231 -309 105 -109 283 -246 318 -246 7 0 42 39 78 87 68 91 157 259 196 374
l23 66 23 -27 c13 -15 41 -35 63 -44 22 -9 40 -18 40 -21 0 -12 -208 -765
-256 -928 -5 -14 -1 -18 12 -15 18 3 29 37 205 673 45 160 89 323 99 363 9 40
20 76 24 79 3 4 25 -12 49 -35 50 -49 82 -62 149 -62 l51 0 -23 -25 c-25 -27
-76 -41 -113 -31 -33 8 -85 62 -92 97 -9 39 -25 27 -25 -18 0 -28 8 -43 35
-69 23 -22 35 -42 35 -60 0 -28 -29 -141 -156 -614 -41 -151 -74 -280 -74
-287 0 -19 28 -16 34 5 3 9 55 201 115 426 61 225 112 411 115 413 2 3 13 0
24 -6 12 -6 31 -11 44 -11 16 -1 37 -20 73 -67 78 -104 193 -183 344 -234 75
-26 101 -24 151 12 l43 31 -8 -59 c-4 -32 -22 -154 -41 -272 -37 -231 -39
-251 -25 -251 8 0 40 184 78 450 13 98 19 117 23 90 9 -48 29 -77 66 -95 64
-30 96 -15 134 66 l28 59 6 -42 c12 -78 25 -301 26 -415 0 -90 3 -113 14 -113
8 0 13 7 11 18 -2 9 -6 106 -9 214 l-6 198 153 0 c85 0 189 -4 233 -10 43 -5
106 -12 138 -15 l59 -7 -6 -199 c-4 -167 -3 -199 9 -199 11 0 14 29 14 158 0
86 3 187 6 223 l7 65 34 -10 35 -11 -6 -55 c-13 -119 -19 -370 -9 -370 6 0 13
32 16 71 3 39 8 74 11 76 3 3 26 -13 52 -36 55 -48 175 -111 213 -111 17 0
-10 17 -84 54 -69 34 -124 69 -149 94 l-38 40 12 164 c7 90 12 170 12 178 0 8
9 96 20 195 10 99 23 223 29 275 38 358 101 721 132 764 16 22 79 23 111 2 67
-43 86 -157 86 -511 0 -399 29 -1170 46 -1233 4 -13 14 -22 26 -22 17 0 19 5
14 33 -7 35 -26 280 -23 283 1 1 36 -8 77 -19 65 -18 102 -21 285 -21 225 0
311 10 475 59 104 30 107 30 115 3 54 -181 110 -338 121 -338 17 0 17 4 0 62
l-15 47 33 19 33 20 17 -74 c12 -48 23 -74 32 -74 10 0 11 6 4 26 -14 36 -13
38 21 51 23 9 30 17 25 29 -11 28 -26 146 -26 205 l0 56 113 6 c181 10 468 64
676 128 36 11 68 16 72 12 6 -8 52 -319 65 -450 5 -44 11 -63 20 -63 16 0 16
-5 4 85 -9 69 -8 70 18 91 l26 22 -13 83 c-7 46 -15 170 -18 274 -4 160 0 232
23 455 32 313 44 755 24 922 -21 180 -74 328 -148 410 -41 45 -146 100 -271
139 -83 27 -84 29 -102 139 -12 67 -11 69 15 100 27 32 33 64 17 89 -7 10 1
24 26 47 34 32 35 35 32 97 -3 46 1 70 12 88 25 37 31 81 16 110 -12 22 -12
29 0 45 9 12 13 37 11 69 -3 48 -2 51 32 67 23 12 58 18 100 18 125 -1 211
-69 262 -206 17 -48 21 -82 22 -189 1 -146 -10 -191 -69 -289 -18 -31 -30 -54
-24 -51 8 5 94 -42 184 -101 21 -14 25 -14 25 -2 0 8 -42 39 -93 68 l-94 54
23 34 c52 77 68 138 68 272 1 105 -3 136 -22 195 -51 154 -148 235 -283 235
-56 0 -106 -16 -136 -43 l-23 -20 0 81 c0 49 4 82 10 82 6 0 18 15 27 34 19
41 12 78 -21 111 -15 15 -20 28 -15 37 14 21 10 86 -6 117 -21 42 -71 61 -155
61 -67 0 -75 2 -108 31 -46 40 -91 59 -143 59 -63 0 -119 -21 -156 -58 -31
-31 -36 -33 -65 -23 -54 19 -134 13 -186 -13 -58 -30 -85 -58 -111 -117 -18
-41 -20 -57 -13 -165 4 -66 6 -127 4 -135 -2 -11 -20 -14 -76 -14 -63 0 -79
-4 -121 -30 -38 -24 -81 -77 -91 -112 0 -2 -30 13 -65 32 -129 68 -286 70
-441 5 -136 -56 -266 -177 -299 -278 -10 -31 -9 -37 10 -51 20 -15 20 -18 6
-71 -8 -30 -15 -94 -15 -142 0 -49 -3 -88 -7 -88 -5 0 -21 23 -38 52 -36 61
-111 123 -167 139 -41 10 -139 8 -189 -6 -17 -4 -30 -2 -38 7 -6 7 -23 28 -38
47 -35 44 -78 61 -155 61 -136 0 -300 -72 -405 -177 -40 -41 -83 -125 -83
-165 0 -59 -12 -60 -35 -4 -12 30 -36 73 -54 94 -33 42 -119 92 -158 92 -13 0
-23 2 -23 5 0 15 111 446 125 484 20 56 19 153 -1 222 -53 177 -209 361 -374
438 -45 21 -70 25 -140 26 -75 0 -92 -4 -140 -29 -160 -84 -270 -288 -287
-531 -6 -99 -16 -118 -70 -140 -111 -47 24 -168 149 -134 47 12 95 55 102 90
2 13 13 71 24 129 43 236 158 410 269 410 58 0 87 -16 154 -87 126 -132 145
-236 85 -463 -20 -74 -55 -211 -78 -303 l-42 -169 -41 -28 c-61 -42 -124 -115
-153 -178 -24 -50 -27 -69 -27 -162 0 -87 5 -122 29 -204 l29 -99 -33 -139
c-19 -76 -37 -138 -41 -138 -5 0 -27 13 -51 29 -52 34 -159 74 -184 69 -11 -2
11 -13 51 -26 80 -24 189 -88 182 -106 -3 -7 -20 -72 -38 -144 l-34 -132 -50
0 c-31 0 -66 -8 -89 -20 -34 -17 -41 -17 -50 -5 -6 8 -33 22 -60 32 -33 12
-55 27 -65 47 -10 17 -51 50 -104 82 -74 44 -217 150 -217 161 0 6 83 44 152
68 40 15 60 24 44 22 -42 -7 -104 55 -155 152 -74 142 -93 308 -47 406 59 128
230 207 397 185 66 -9 87 -19 141 -68 71 -64 83 -99 83 -242 0 -122 -1 -127
-34 -195 -22 -43 -57 -92 -92 -128 l-58 -58 41 23 c51 29 90 76 128 153 98
198 40 435 -125 511 -67 32 -203 34 -291 4 -117 -40 -213 -143 -228 -245 -22
-141 48 -356 148 -461 l44 -46 -36 -15 c-21 -8 -57 -24 -82 -35 l-45 -20 -68
74 c-105 112 -223 269 -379 501 -149 224 -205 300 -300 408 l-57 67 30 6 c16
3 41 17 54 30 22 22 25 34 25 93 0 67 1 69 30 80 55 21 74 125 35 189 -8 13
-10 26 -4 35 16 26 9 67 -18 99 -21 25 -32 31 -52 27 -39 -8 -61 14 -61 60 0
21 -5 44 -12 51 -8 8 -11 43 -9 104 1 51 -3 115 -9 143 -44 197 -223 365 -437
410 -87 19 -232 18 -303 -1z m295 -29 c101 -22 206 -75 274 -140 53 -51 112
-138 101 -148 -3 -2 -41 0 -85 4 -265 28 -567 -89 -837 -323 -32 -28 -62 -48
-66 -44 -12 13 -7 228 7 286 45 189 176 331 338 369 60 14 191 12 268 -4z
m2185 -238 c48 -22 88 -54 156 -121 77 -77 98 -106 139 -188 42 -86 49 -107
53 -176 4 -64 0 -95 -21 -168 -36 -126 -101 -372 -297 -1134 -94 -366 -175
-678 -180 -695 -5 -16 -14 -49 -20 -72 -6 -25 -19 -47 -31 -54 -18 -9 -26 -6
-58 25 l-37 36 73 283 c40 155 118 471 174 702 55 231 135 559 176 728 88 359
90 394 36 509 -50 107 -152 203 -236 222 -57 13 -99 -4 -163 -68 -95 -95 -153
-238 -191 -470 -10 -59 -40 -86 -104 -93 -33 -3 -55 2 -89 19 -56 29 -66 58
-20 58 64 0 100 68 100 189 1 109 62 271 138 368 110 138 248 173 402 100z
m3315 -26 c22 -10 54 -30 72 -45 29 -25 41 -27 119 -29 83 -2 87 -3 115 -35
31 -34 37 -71 19 -118 -9 -23 -7 -30 15 -50 30 -27 34 -78 8 -106 -14 -16 -33
-18 -142 -18 -220 0 -506 32 -680 76 -52 13 -99 29 -103 36 -14 21 -2 85 26
133 51 86 166 126 260 90 l46 -18 33 37 c54 62 138 81 212 47z m-5187 -68 c42
-60 62 -115 76 -209 9 -55 18 -115 22 -134 4 -29 2 -37 -16 -48 -19 -12 -24
-10 -43 15 -40 52 -115 128 -121 122 -3 -3 30 -54 74 -114 52 -70 80 -116 78
-129 -2 -14 -23 -32 -62 -52 l-59 -32 -24 29 c-45 52 -122 57 -156 9 l-15 -21
-38 20 c-56 30 -133 29 -172 -4 -26 -22 -33 -23 -61 -14 -40 14 -77 5 -92 -24
-7 -12 -25 -35 -41 -50 -15 -16 -28 -35 -28 -42 0 -32 -77 -20 -118 17 -34 32
-52 71 -52 112 0 47 15 82 40 96 28 15 86 2 117 -26 32 -29 43 -23 43 24 0 26
8 44 28 65 24 26 27 35 26 101 0 56 -5 80 -22 108 l-22 35 103 51 c165 83 296
118 449 121 62 1 68 -1 86 -26z m-634 -203 c9 -22 16 -63 16 -91 0 -46 -4 -55
-36 -84 -22 -20 -31 -35 -25 -40 9 -5 16 -45 8 -45 -1 0 -20 9 -42 20 -63 32
-122 21 -144 -27 -20 -43 -14 -136 12 -174 30 -45 83 -79 123 -79 27 0 34 -5
43 -32 6 -17 18 -39 26 -48 14 -16 14 -21 -2 -51 -10 -19 -19 -36 -21 -38 -7
-12 -72 -1 -107 18 -22 12 -47 21 -56 21 -27 0 -51 35 -44 63 5 20 1 29 -18
41 -51 34 -62 107 -22 155 26 29 26 31 9 63 -9 18 -26 45 -37 60 -20 26 -20
27 1 60 11 18 36 47 54 64 39 37 230 184 239 184 4 0 14 -18 23 -40z m5336
-71 c137 -43 442 -79 667 -79 72 0 134 -4 137 -9 3 -5 3 -36 0 -68 l-6 -59
-57 3 c-190 13 -780 99 -812 119 -11 6 -12 114 -1 114 4 0 36 -9 72 -21z m75
-143 c72 -14 153 -28 181 -32 68 -8 79 -16 65 -42 -16 -29 -14 -85 4 -108 8
-10 15 -35 15 -55 0 -46 12 -55 78 -61 62 -6 80 -21 88 -69 12 -72 -64 -132
-126 -99 -23 12 -27 -2 -5 -20 11 -9 13 -23 9 -50 -4 -24 -1 -50 9 -71 9 -19
19 -45 22 -59 15 -52 63 -78 92 -49 9 9 19 6 39 -10 31 -25 66 -27 84 -6 7 8
25 15 40 15 25 0 28 -3 33 -52 3 -29 15 -82 27 -117 11 -35 18 -67 13 -72 -26
-25 -306 -74 -362 -63 -27 6 -27 6 -38 127 -10 117 -10 123 10 140 34 30 12
30 -49 -1 -122 -61 -226 -77 -294 -44 -31 15 -35 22 -38 60 l-3 44 93 -3 c104
-3 127 3 106 28 -18 22 -125 72 -170 79 -30 5 -38 11 -38 28 0 12 5 27 10 32
8 8 -3 16 -34 28 -25 10 -48 21 -51 26 -3 5 3 48 14 97 34 156 35 179 11 225
-20 38 -20 46 -9 115 10 60 15 73 28 69 9 -3 75 -16 146 -30z m-4602 -4 c10
-9 32 -16 49 -16 25 -1 34 -7 44 -32 11 -25 10 -36 -1 -58 -13 -24 -12 -29 5
-46 14 -14 20 -34 20 -68 0 -57 -19 -88 -60 -97 l-29 -6 6 -62 c4 -54 2 -66
-16 -89 -22 -28 -74 -48 -122 -48 -21 0 -28 -7 -35 -32 -19 -65 -112 -100
-154 -58 l-21 21 -33 -26 c-45 -34 -104 -34 -136 0 l-23 24 -28 -30 c-24 -26
-34 -30 -71 -27 -35 2 -46 8 -63 35 -14 22 -32 35 -63 42 -59 16 -82 41 -82
93 0 24 7 49 16 60 16 17 15 20 -10 56 -14 21 -26 49 -26 63 0 31 23 75 38 72
7 -2 18 13 26 32 18 41 49 47 89 15 l26 -21 15 29 c19 36 33 42 100 42 39 0
62 -6 88 -24 l35 -23 28 34 c24 30 32 34 58 29 18 -4 45 -20 62 -36 l31 -30
59 20 c90 31 105 44 105 90 0 21 -4 42 -10 45 -14 9 -12 42 3 49 18 7 60 -3
80 -22z m-1193 -25 c15 -8 27 -24 31 -45 4 -18 17 -44 29 -57 l22 -24 -21 -27
c-15 -19 -21 -41 -21 -76 0 -44 4 -54 35 -85 19 -19 35 -44 35 -56 0 -28 38
-67 66 -67 19 0 53 -26 43 -33 -2 -2 -31 -13 -64 -26 -71 -28 -164 -78 -257
-137 l-68 -44 0 68 c0 119 -43 233 -114 303 -36 36 -38 43 -34 83 11 91 96
203 172 225 46 13 117 12 146 -2z m5592 -45 c-2 -40 2 -62 17 -86 23 -37 21
-66 -18 -230 -12 -48 -19 -91 -16 -96 2 -4 20 -15 40 -24 30 -14 35 -22 35
-50 0 -36 13 -46 55 -46 34 0 125 -36 155 -61 l25 -21 -112 6 -113 6 0 -43 c0
-80 53 -120 160 -120 44 1 87 9 135 26 52 20 71 23 77 14 4 -7 8 -49 8 -93 l0
-82 -72 -34 c-112 -53 -310 -191 -366 -253 l-49 -56 -6 92 c-10 128 -8 231 4
319 5 41 10 134 10 205 0 211 -51 361 -164 481 -54 58 -57 64 -46 90 26 71
102 115 189 112 l55 -3 -3 -53z m653 3 c66 -8 155 -15 197 -15 66 0 80 -3 98
-22 26 -28 25 -56 -1 -84 -20 -21 -20 -24 -5 -46 25 -35 20 -73 -15 -113 -29
-33 -30 -37 -15 -54 29 -32 20 -80 -23 -121 -28 -26 -36 -41 -30 -51 5 -8 9
-28 9 -46 0 -36 -38 -73 -74 -73 -12 0 -31 -7 -42 -15 -27 -21 -42 -18 -69 11
-24 25 -24 26 -54 8 -36 -21 -56 -10 -66 37 -4 17 -13 42 -21 57 -8 15 -14 42
-14 60 0 28 3 32 25 32 15 0 40 14 61 33 28 26 37 42 41 78 5 40 2 50 -24 78
-23 27 -39 34 -83 39 -48 6 -55 10 -58 31 -2 15 3 30 13 37 15 11 14 13 -5 19
-30 10 -42 49 -30 96 13 46 8 45 185 24z m-1013 -58 c126 -62 223 -182 275
-342 23 -72 26 -95 26 -235 0 -85 -4 -240 -8 -343 -8 -212 2 -341 40 -534 43
-211 108 -391 193 -532 l45 -74 -24 -20 c-42 -34 -109 -69 -122 -64 -7 3 -28
54 -46 113 -18 60 -34 114 -36 119 -2 6 -4 0 -4 -13 -1 -12 15 -72 35 -133 19
-61 33 -117 30 -124 -5 -14 -125 -45 -176 -45 -17 0 -33 6 -35 13 -3 6 -9 66
-14 132 -9 113 -9 109 -5 -61 5 -209 13 -194 -98 -194 -85 0 -145 16 -160 43
-5 11 -13 88 -17 171 -8 145 -8 147 -9 47 l-2 -104 -92 6 c-118 7 -186 29
-195 65 -18 71 16 704 57 1070 19 171 20 173 50 199 42 35 60 74 60 128 0 63
-35 100 -87 92 -20 -4 -46 -16 -59 -28 -24 -22 -24 -22 -24 -2 0 12 7 58 15
104 24 136 25 139 17 139 -5 0 -17 -16 -28 -34 l-19 -35 -40 22 -40 23 3 64 3
65 -21 -24 c-11 -13 -25 -31 -29 -39 -7 -13 -22 -8 -85 34 -89 57 -90 65 -27
149 46 60 123 121 209 164 93 47 162 61 274 57 89 -3 105 -6 170 -39z m-1242
-347 c21 -11 47 -34 57 -50 10 -17 40 -45 66 -62 98 -63 124 -125 134 -322 6
-124 5 -130 -11 -117 -13 11 -22 12 -35 4 -16 -10 -22 0 -53 90 -31 88 -59
165 -64 175 -1 2 -17 -6 -35 -17 -45 -28 -74 -28 -59 -2 11 21 14 61 4 61 -3
0 -22 -13 -42 -29 -39 -31 -109 -56 -84 -30 14 15 17 79 3 79 -6 0 -13 -5 -16
-10 -10 -15 -102 -60 -124 -60 -16 0 -13 6 16 35 41 41 36 66 -7 35 -16 -12
-59 -34 -95 -51 -54 -24 -71 -38 -100 -82 -34 -52 -75 -154 -75 -189 0 -23 -9
-23 -26 0 -12 16 -14 16 -34 -4 -14 -13 -25 -42 -30 -75 -7 -41 -8 -29 -4 49
5 108 44 302 71 360 34 72 190 176 318 213 84 25 176 24 225 -1z m632 -20 c26
-16 52 -30 57 -30 5 0 19 15 31 33 13 20 19 24 16 12 -19 -81 -19 -83 16 -105
18 -11 45 -23 61 -27 15 -3 27 -6 27 -7 0 0 -7 -39 -15 -86 -16 -92 -20 -170
-7 -170 4 0 15 9 25 20 34 40 74 13 62 -42 -7 -29 -6 -31 9 -19 35 29 8 101
-38 101 -19 1 -19 2 7 25 35 31 71 32 91 3 38 -54 4 -146 -64 -180 -24 -11
-29 -17 -16 -18 16 0 18 -5 12 -42 -9 -56 -46 -378 -46 -400 0 -11 -13 -21
-37 -27 -20 -6 -38 -9 -39 -8 -1 1 4 27 12 57 9 33 14 90 12 140 -1 47 1 91 6
98 10 16 -7 15 -51 -3 -46 -19 -83 -19 -112 1 -24 17 -71 106 -71 136 0 16 4
15 57 -3 31 -10 62 -18 67 -16 5 2 -21 14 -60 28 -68 23 -69 25 -72 62 -3 29
-9 40 -33 52 -33 18 -34 23 -13 90 8 28 19 99 24 159 11 128 20 196 28 196 2
0 27 -13 54 -30z m-4302 -66 c0 -32 4 -44 13 -42 6 3 13 14 15 26 4 27 7 27
39 2 14 -11 43 -23 65 -26 23 -4 38 -12 38 -21 0 -8 11 -25 25 -38 34 -34 102
-35 142 -1 28 24 28 24 53 4 17 -13 36 -18 64 -16 l41 2 -3 -89 c-7 -191 -96
-501 -239 -837 l-46 -108 -41 0 c-41 0 -292 53 -303 64 -3 3 -1 45 5 92 7 48
10 89 9 91 -8 7 -113 23 -153 23 -33 0 -49 6 -69 25 -14 14 -25 32 -25 38 0 7
-5 18 -11 24 -16 16 41 193 101 311 27 52 48 97 46 99 -7 7 -67 -69 -90 -115
-32 -64 -65 -166 -74 -227 l-7 -50 -55 -6 c-69 -7 -169 -51 -207 -91 -27 -29
-26 -28 67 16 110 53 195 67 195 32 0 -14 -10 -22 -35 -28 -74 -17 -140 -39
-140 -48 0 -4 -20 -16 -45 -27 -65 -26 -55 -32 23 -12 142 36 286 44 420 23
40 -6 40 -15 7 -152 -45 -184 -164 -441 -267 -575 -48 -63 -101 -117 -114
-117 -16 0 -149 148 -232 258 -175 229 -282 464 -282 616 0 59 2 62 99 192
198 265 397 456 621 595 113 70 265 138 313 138 l37 1 0 -46z m4018 -13 c54
-28 111 -89 139 -148 24 -52 24 -54 8 -110 l-17 -57 32 -26 c31 -25 31 -27 25
-90 -13 -125 -49 -221 -121 -316 l-36 -49 41 40 c49 46 103 153 122 238 l12
58 17 -44 c42 -110 71 -133 155 -124 52 5 55 4 61 -18 7 -30 -10 -166 -28
-218 -12 -34 -21 -41 -92 -72 -102 -44 -152 -78 -171 -115 -9 -16 -17 -30 -19
-30 -2 0 -37 16 -79 35 -79 37 -219 75 -275 75 l-33 0 23 40 c22 39 23 39 28
14 l5 -26 21 24 c79 86 132 326 119 543 -12 212 -42 301 -119 357 -38 28 -38
30 9 42 37 9 135 -4 173 -23z m-1121 -62 c53 -26 88 -66 126 -147 24 -52 29
-74 26 -120 -1 -31 -3 -122 -3 -202 -1 -121 3 -159 22 -230 25 -93 44 -122 64
-102 7 7 16 12 20 12 8 0 72 -120 66 -124 -2 -2 -42 -15 -90 -29 -189 -59
-372 -177 -539 -349 l-86 -88 -24 18 -23 19 44 170 44 171 153 58 c155 59 216
95 78 47 -65 -23 -79 -25 -112 -15 -21 7 -48 20 -60 30 l-23 17 112 443 c110
437 111 442 136 442 14 0 45 -9 69 -21z m-322 -61 c-2 -7 -31 -128 -65 -268
-33 -140 -64 -264 -69 -275 -7 -18 -10 -16 -24 16 -43 102 -50 255 -15 346 15
42 39 76 87 125 62 63 96 85 86 56z m-1578 -118 c33 -47 116 -170 186 -275
257 -389 456 -603 670 -720 96 -53 102 -67 102 -240 -1 -162 -16 -246 -80
-440 -40 -124 -105 -269 -147 -327 -17 -24 -22 -26 -41 -16 -50 26 -174 127
-248 201 -202 201 -314 389 -368 616 -18 74 -18 86 -4 178 11 75 14 155 10
338 -4 210 -8 256 -32 365 -21 99 -78 292 -122 410 -9 23 8 3 74 -90z m2546
73 c-3 -10 -15 -26 -27 -35 -21 -17 -20 -18 28 -18 33 0 60 7 84 22 l36 22
-17 -24 c-9 -14 -17 -28 -17 -32 0 -14 60 -9 91 7 l29 16 21 -48 c37 -86 69
-191 69 -227 0 -19 5 -38 10 -41 6 -3 10 1 10 9 0 21 16 21 24 0 7 -18 -8 -50
-26 -57 -7 -2 -10 -7 -6 -11 3 -4 16 -3 27 4 23 12 28 49 10 81 -6 12 -8 28
-4 37 12 30 35 -16 35 -69 0 -40 -4 -51 -27 -69 -18 -14 -38 -20 -54 -18 -24
4 -28 0 -39 -36 -7 -23 -21 -58 -32 -80 l-19 -38 -24 22 c-15 14 -33 20 -51
18 -20 -2 -34 4 -46 17 -14 18 -20 18 -50 7 -19 -6 -51 -12 -71 -12 -35 0 -37
2 -37 33 0 33 15 174 25 235 3 17 2 32 -4 32 -11 0 -27 -92 -37 -207 l-7 -83
-29 0 c-18 0 -39 -10 -54 -25 -14 -14 -31 -25 -38 -25 -7 0 -25 -9 -39 -20
-14 -11 -27 -20 -30 -20 -7 0 -44 89 -62 153 -9 32 -21 55 -26 51 -14 -9 -55
3 -73 22 -26 26 -16 124 13 124 18 0 20 -32 5 -55 -9 -14 -13 -33 -9 -45 10
-31 22 -24 17 10 -4 31 6 38 25 19 7 -7 13 6 18 48 12 96 63 212 111 255 11 9
37 23 59 32 28 11 35 12 23 2 -24 -18 -13 -26 34 -26 37 0 122 33 134 51 10
16 23 9 17 -8z m2802 -242 c102 -49 144 -112 165 -251 34 -225 13 -1248 -27
-1277 -51 -39 -403 -171 -543 -205 -86 -20 -255 -29 -279 -14 -14 9 -12 65 21
653 l22 381 -21 94 c-40 178 -92 272 -181 329 -44 29 -52 30 -120 26 l-72 -4
67 49 c77 56 216 144 281 177 41 21 45 21 62 6 45 -41 224 -25 435 39 105 31
119 31 190 -3z m210 -185 c91 -205 108 -534 58 -1101 -35 -388 -38 -705 -9
-829 16 -71 16 -80 2 -94 -8 -9 -19 -13 -23 -9 -4 4 -19 94 -34 200 -33 228
-37 431 -14 767 17 249 20 804 5 935 -10 80 -29 172 -47 222 -13 39 39 -39 62
-91z m-3420 -23 c26 -8 34 -21 64 -99 23 -60 33 -104 32 -135 -1 -37 3 -49 24
-67 29 -25 31 -37 10 -46 -17 -6 -31 12 -67 87 -21 46 -24 48 -55 42 -25 -4
-33 -2 -37 12 -55 183 -61 268 -17 229 9 -7 30 -18 46 -23z m766 -83 c-11 -44
-30 -109 -43 -142 -21 -60 -22 -61 -31 -32 -18 59 -19 60 -32 30 l-12 -29 -6
44 c-8 59 46 189 79 189 11 0 29 6 40 14 10 8 21 13 22 11 2 -2 -5 -40 -17
-85z m1584 -15 c112 -65 185 -253 185 -478 0 -58 -9 -241 -20 -408 -18 -282
-32 -1021 -19 -1089 3 -17 -1 -25 -12 -28 -13 -2 -19 14 -33 80 -39 197 -107
995 -86 1008 7 4 6 18 -3 41 -8 19 -17 91 -21 161 -8 159 -26 258 -68 372 -30
82 -38 94 -100 150 -75 66 -82 87 -51 150 31 66 149 88 228 41z m-2040 -15 c3
-5 30 -10 60 -10 30 0 57 5 60 10 9 15 52 12 58 -4 4 -9 23 -16 48 -18 30 -2
45 -9 53 -23 6 -11 17 -24 24 -28 24 -16 9 -96 -23 -119 -5 -4 -20 -8 -31 -8
-12 0 -27 -7 -34 -15 -14 -17 -56 -20 -65 -5 -4 6 -17 4 -35 -5 -37 -19 -64
-19 -80 0 -9 11 -17 12 -33 4 -12 -7 -43 -9 -75 -6 -44 5 -61 12 -88 38 -38
37 -42 58 -17 97 22 34 33 42 61 42 12 0 25 7 28 15 7 16 50 44 71 45 6 0 15
-4 18 -10z m1894 -237 c37 -45 86 -193 99 -303 14 -111 23 -250 16 -250 -8 0
-70 136 -105 232 -28 77 -79 271 -94 362 l-6 38 30 -21 c17 -12 43 -38 60 -58z
m-815 35 c-12 -92 -24 -375 -24 -564 l0 -212 49 -17 c40 -13 183 -34 239 -35
7 0 12 -15 12 -39 0 -72 11 -86 84 -105 76 -19 159 -21 206 -5 32 12 32 12 26
60 l-7 49 32 0 c17 0 71 9 120 21 74 17 89 24 89 40 0 10 5 19 10 19 12 0 13
10 -5 -83 -10 -53 -15 -141 -15 -267 l0 -188 -97 -31 c-140 -44 -230 -61 -378
-71 -139 -10 -271 -1 -360 25 -62 19 -70 24 -80 55 -4 14 -11 246 -15 515 -5
308 -12 516 -20 560 -20 114 -65 184 -125 197 -28 6 38 39 152 78 111 37 113
37 107 -2z m-778 -63 c7 -18 16 -51 20 -72 6 -40 6 -40 -42 -60 -105 -45 -166
-58 -279 -58 -92 0 -118 4 -157 22 -28 13 -48 29 -48 38 0 22 26 81 51 117 21
29 23 30 36 12 12 -17 13 -17 13 3 0 19 4 21 39 16 21 -3 47 0 59 6 26 14 37
-1 33 -46 -2 -23 3 -34 18 -42 31 -17 37 -13 12 10 -12 12 -20 28 -17 36 3 8
6 17 6 19 0 2 12 4 27 4 14 0 34 6 42 13 10 9 33 12 64 9 42 -4 47 -7 47 -29
0 -13 4 -21 10 -18 6 3 10 19 10 35 0 24 3 27 21 23 12 -3 27 -21 35 -38z
m-2926 -15 c15 -23 12 -28 -22 -46 -25 -13 -50 -15 -122 -11 -50 2 -99 8 -108
12 -10 4 -18 3 -18 -3 0 -25 133 -69 263 -87 37 -5 47 -10 47 -25 0 -50 -89
-52 -225 -5 -107 38 -115 39 -115 27 0 -13 168 -110 223 -130 58 -20 64 -48
14 -57 -47 -9 -99 8 -187 59 -41 24 -77 42 -79 40 -5 -4 83 -126 104 -144 15
-13 45 -62 45 -75 0 -18 -55 1 -95 34 l-47 38 -23 -23 c-32 -32 -69 -39 -124
-24 -33 9 -124 12 -333 10 -159 -1 -288 0 -288 3 0 2 12 31 26 63 14 33 41
103 59 157 18 54 35 100 37 102 2 3 58 -9 124 -26 75 -19 157 -33 220 -36
l101 -6 29 33 c44 48 117 99 176 121 44 16 74 19 181 17 101 -2 130 -6 137
-18z m2430 -32 c-42 -78 -58 -154 -70 -336 -13 -193 -2 -374 35 -534 12 -56
22 -103 21 -104 0 -1 -16 3 -34 8 -27 7 -32 13 -27 29 4 11 2 26 -4 33 -6 8
-74 49 -151 92 -125 70 -140 82 -140 105 0 15 7 33 16 40 12 10 14 23 10 51
-8 51 8 81 97 176 68 73 64 75 -12 7 -32 -29 -33 -29 -21 -5 7 14 28 51 48 83
50 81 33 82 -21 0 -66 -99 -119 -220 -115 -263 3 -40 4 -39 -82 -15 -30 8 -73
15 -95 14 l-40 -1 35 -8 c19 -5 61 -13 93 -20 31 -6 57 -15 57 -19 0 -5 -28
-8 -63 -8 -71 0 -147 -11 -147 -22 0 -3 40 -2 89 3 91 9 133 4 114 -15 -5 -5
-29 -13 -54 -18 l-44 -9 51 -1 c44 -1 68 -11 186 -79 l136 -78 -64 -58 c-69
-62 -137 -151 -179 -234 l-26 -51 -47 18 c-187 75 -267 132 -351 250 -29 41
-30 45 -15 62 9 10 18 37 19 59 1 23 7 46 14 53 6 6 11 19 11 30 0 10 14 30
30 44 17 13 30 34 30 45 0 11 14 36 30 55 17 18 30 39 30 46 0 28 -21 83 -46
118 -25 36 -25 40 -11 62 66 102 275 269 432 347 83 41 245 96 292 99 6 1 -2
-22 -17 -51z m703 15 c65 -20 168 -64 185 -78 1 -1 -9 -53 -24 -116 -14 -63
-27 -125 -30 -138 l-5 -25 -24 30 c-32 38 -32 24 0 -26 28 -44 25 -82 -4 -57
-36 31 -44 28 -14 -4 l33 -35 -26 -199 c-14 -110 -27 -202 -30 -205 -3 -3 -27
-17 -52 -31 -41 -22 -47 -30 -47 -57 0 -19 -5 -32 -12 -32 -7 0 -13 10 -13 23
-2 222 -11 413 -24 501 -17 108 -81 433 -92 470 -6 17 -2 18 46 12 29 -4 89
-19 133 -33z m-171 -139 c4 -36 3 -37 -56 -65 -132 -62 -324 -76 -457 -32
l-54 18 3 40 c2 22 5 42 7 44 3 2 28 -6 57 -19 104 -45 274 -37 413 20 39 15
73 28 76 29 4 1 9 -15 11 -35z m37 -214 c21 -132 38 -320 44 -511 l4 -115 -30
-17 -30 -18 6 -78 6 -78 -46 -7 c-58 -8 -392 -8 -459 0 l-51 6 5 79 c3 48 0
84 -6 92 -14 17 -48 187 -63 317 -11 98 -7 429 6 450 2 4 22 -1 42 -11 42 -20
149 -39 228 -39 72 0 178 25 249 58 73 35 67 43 95 -128z m-1788 28 c24 -7 39
-17 39 -27 -1 -60 -109 -453 -145 -526 -9 -16 -13 -21 -9 -10 53 174 76 327
72 468 -2 59 -1 107 1 107 2 0 21 -5 42 -12z m225 -40 c-3 -13 -6 -29 -6 -37
0 -9 -8 -11 -27 -6 -23 5 -15 -6 44 -62 55 -53 74 -78 83 -113 15 -56 5 -74
-45 -78 -33 -3 -43 2 -82 40 l-43 42 2 -34 c3 -48 -31 -180 -48 -187 -22 -8
-125 58 -119 77 2 8 9 36 16 62 10 41 14 46 29 38 29 -16 86 -12 101 7 13 15
11 16 -18 10 -27 -5 -93 8 -93 18 0 2 6 32 14 67 8 35 17 80 21 101 8 51 50
77 124 77 50 0 53 -1 47 -22z m235 -85 c48 -43 69 -81 69 -122 0 -44 -33 -63
-106 -59 -55 3 -57 4 -69 38 -29 83 -29 80 2 80 15 0 42 -4 60 -9 42 -12 47
-4 18 31 -22 25 -35 78 -20 78 3 0 23 -17 46 -37z m-2530 -76 c-132 -194 -251
-314 -416 -420 -62 -40 -168 -97 -178 -97 -3 0 6 28 18 63 13 34 28 89 34 122
20 101 21 105 35 105 25 0 133 127 196 230 l62 100 159 0 160 0 -70 -103z
m5509 -135 c0 -129 57 -761 81 -897 10 -58 10 -60 -16 -82 -14 -13 -30 -23
-34 -23 -11 0 -99 285 -117 381 -13 66 -15 129 -11 304 6 249 15 303 55 328
37 23 42 21 42 -11z m1020 -366 l0 -83 -57 -26 c-233 -104 -428 -157 -608
-164 -74 -3 -141 -1 -155 5 -24 9 -25 13 -22 81 4 69 5 71 25 65 52 -18 201
-6 320 25 111 29 360 121 437 162 58 30 60 28 60 -65z m-3303 31 c48 -16 69
-27 71 -41 3 -15 -1 -18 -22 -14 -32 6 -34 -4 -3 -17 17 -8 21 -17 19 -40 -4
-37 -9 -42 -24 -27 -23 23 -31 12 -9 -12 21 -22 21 -27 11 -67 -11 -38 -13
-41 -25 -26 -17 23 -28 22 -15 -2 15 -30 12 -52 -12 -78 -30 -32 -72 -30 -109
6 -49 49 -37 67 19 27 37 -27 49 -31 59 -21 9 10 3 15 -26 24 -27 8 -56 32
-104 86 -37 42 -67 80 -67 84 0 4 32 42 71 84 55 60 74 75 84 67 8 -6 44 -21
82 -33z m803 -131 c-13 -153 -13 -155 -39 -165 -14 -5 -20 -10 -13 -10 7 -1
10 -6 6 -13 -5 -8 -2 -9 9 -5 11 4 17 1 17 -8 0 -23 -38 -18 -65 10 -28 27
-31 45 -14 78 12 21 11 22 -8 4 -20 -17 -21 -17 -31 25 -10 38 -9 45 10 65 12
13 16 23 10 23 -6 0 -14 -4 -17 -10 -14 -22 -26 -8 -23 28 2 30 7 38 26 40 12
2 20 7 17 12 -3 4 -14 6 -25 3 -15 -4 -20 0 -20 16 0 14 8 22 28 27 45 10 112
36 118 46 4 6 10 6 17 -1 7 -7 6 -58 -3 -165z m2504 -47 c15 -75 16 -74 -106
-108 -256 -70 -534 -121 -670 -121 l-78 0 0 51 c0 48 1 50 23 42 12 -4 85 -8
162 -7 123 1 154 5 257 32 65 18 177 56 250 85 73 30 138 55 144 56 6 0 14
-13 18 -30z m-2889 -27 c194 3 220 1 223 -13 4 -21 -140 -39 -379 -46 l-177
-6 -4 37 c-2 20 -3 38 -1 40 2 1 29 -1 60 -6 32 -5 157 -7 278 -6z m250 -77
c0 -31 -240 -66 -430 -63 l-140 3 -3 31 -3 31 118 -4 c66 -2 171 3 238 10 66
8 143 14 170 13 43 -1 50 -4 50 -21z m1499 -12 c11 -71 14 -68 -103 -97 -131
-32 -316 -50 -431 -41 -169 12 -390 78 -390 116 0 18 2 19 30 4 156 -81 558
-64 805 33 74 29 81 28 89 -15z m-861 -88 c30 -14 104 -37 164 -50 188 -43
406 -32 612 30 98 29 101 29 101 11 0 -16 -100 -47 -250 -78 -146 -29 -475
-32 -593 -5 -43 10 -80 24 -82 30 -7 24 -16 87 -12 87 3 0 29 -11 60 -25z"/>
<path d="M2735 2178 c-36 -80 -48 -174 -42 -322 4 -101 12 -152 32 -221 39
-130 95 -241 155 -305 53 -57 57 -52 9 10 -44 55 -118 220 -146 327 -23 85
-26 117 -26 248 1 130 4 161 25 233 14 45 23 82 21 82 -2 0 -15 -24 -28 -52z"/>
<path d="M2616 3100 c-30 -10 -66 -38 -66 -52 0 -5 14 2 31 14 25 19 46 24
122 27 104 4 147 -7 205 -49 65 -47 85 -96 90 -220 3 -74 -1 -122 -12 -165
-18 -70 -13 -84 11 -29 22 49 30 219 13 291 -13 61 -71 133 -134 165 -32 17
-62 22 -136 25 -52 1 -108 -2 -124 -7z"/>
</g>
</svg>
