<?xml version="1.0" standalone="no"?>
<!DOCTYPE svg PUBLIC "-//W3C//DTD SVG 20010904//EN"
 "http://www.w3.org/TR/2001/REC-SVG-20010904/DTD/svg10.dtd">
<svg version="1.0" xmlns="http://www.w3.org/2000/svg"
 width="2930.000000pt" height="2232.000000pt" viewBox="0 0 2930.000000 2232.000000"
 preserveAspectRatio="xMidYMid meet">
<metadata>
Created by potrace 1.16, written by Peter Selinger 2001-2019
</metadata>
<g id="people2" transform="translate(0.000000,2232.000000) scale(0.100000,-0.100000)"
fill="#000000" stroke="none">
<path d="M10935 21750 c-33 -4 -89 -11 -125 -14 -36 -4 -103 -13 -150 -21 -47
-8 -102 -17 -122 -20 -21 -3 -38 -11 -38 -16 0 -6 -8 -8 -17 -5 -16 5 -34 2
-113 -19 -8 -2 -15 -4 -15 -5 0 -1 -31 -9 -155 -39 -19 -4 -46 -13 -60 -18
-14 -6 -58 -21 -98 -33 -40 -12 -75 -26 -78 -31 -3 -5 -16 -9 -30 -9 -13 0
-24 -4 -24 -9 0 -5 -12 -12 -27 -16 -16 -3 -48 -15 -73 -26 -181 -82 -281
-130 -310 -149 -14 -9 -50 -30 -80 -45 -30 -16 -62 -34 -70 -41 -8 -6 -31 -20
-50 -31 -62 -33 -180 -115 -180 -124 0 -5 -5 -9 -10 -9 -14 0 -230 -162 -230
-172 0 -4 -5 -8 -10 -8 -6 0 -21 -10 -33 -23 -12 -13 -44 -41 -71 -62 -63 -50
-267 -255 -332 -332 -27 -32 -59 -68 -71 -80 -13 -12 -23 -24 -23 -27 0 -3
-22 -29 -50 -58 -27 -29 -50 -59 -50 -65 0 -7 -4 -13 -10 -13 -5 0 -10 -7 -10
-15 0 -8 -4 -15 -10 -15 -5 0 -21 -20 -36 -45 -14 -25 -30 -45 -35 -45 -5 0
-9 -5 -9 -10 0 -12 -41 -73 -52 -78 -5 -2 -8 -10 -8 -17 0 -7 -4 -15 -8 -17
-5 -1 -15 -15 -23 -30 -8 -15 -41 -71 -74 -125 -59 -97 -225 -419 -225 -437 0
-5 -13 -36 -29 -70 -15 -34 -36 -86 -46 -116 -9 -30 -23 -68 -30 -85 -23 -57
-72 -220 -90 -300 -9 -44 -23 -98 -31 -120 -8 -23 -14 -54 -14 -70 0 -17 -5
-46 -10 -66 -6 -20 -14 -67 -20 -105 -5 -38 -14 -107 -20 -155 l-12 -85 -51
-18 c-58 -21 -178 -78 -222 -106 -16 -11 -39 -24 -50 -30 -11 -6 -33 -19 -50
-30 -16 -11 -40 -25 -52 -31 -13 -7 -23 -16 -23 -21 0 -4 -4 -8 -10 -8 -6 0
-18 -8 -28 -17 -11 -10 -43 -38 -72 -63 -83 -70 -146 -138 -207 -225 -32 -44
-60 -82 -63 -85 -19 -16 -82 -168 -102 -245 -26 -107 -32 -185 -16 -233 9 -26
24 -74 33 -107 10 -33 21 -69 25 -80 5 -11 18 -47 30 -80 12 -33 29 -78 38
-100 21 -55 138 -293 162 -330 10 -16 25 -40 32 -52 27 -46 87 -129 117 -163
17 -19 31 -38 31 -41 0 -4 -26 -9 -57 -12 -32 -3 -85 -10 -118 -17 -138 -27
-212 -44 -250 -56 -22 -7 -57 -15 -77 -19 -21 -3 -38 -10 -38 -15 0 -6 -6 -10
-14 -10 -18 0 -220 -100 -224 -111 -2 -5 -9 -9 -16 -9 -7 0 -21 -9 -31 -20
-10 -11 -23 -20 -30 -20 -6 0 -20 -8 -31 -18 -10 -10 -35 -28 -54 -42 -66 -45
-290 -262 -290 -280 0 -6 -4 -10 -8 -10 -5 0 -30 -30 -58 -67 -49 -67 -62 -88
-85 -130 -7 -13 -16 -23 -21 -23 -4 0 -8 -5 -8 -10 0 -6 -16 -36 -35 -66 -19
-30 -35 -58 -35 -63 0 -5 -3 -11 -7 -13 -5 -2 -23 -34 -41 -73 -19 -38 -38
-77 -43 -85 -9 -16 -11 -19 -36 -85 -8 -22 -22 -56 -30 -75 -33 -77 -41 -97
-57 -150 -9 -30 -28 -91 -42 -135 -14 -44 -32 -107 -40 -140 -55 -229 -74
-317 -79 -365 -6 -68 -25 -206 -35 -260 -5 -30 -12 -100 -14 -155 -3 -55 -8
-116 -10 -135 -6 -43 -7 -501 -2 -550 2 -19 7 -87 10 -150 4 -63 13 -155 21
-205 8 -49 21 -137 30 -195 17 -112 47 -268 71 -362 34 -137 47 -185 56 -208
6 -14 14 -41 18 -60 10 -44 28 -96 46 -133 8 -16 14 -34 14 -40 0 -14 44 -125
54 -134 3 -3 6 -13 6 -22 0 -14 144 -313 162 -336 23 -29 78 -118 78 -126 0
-5 5 -9 10 -9 6 0 14 -8 18 -19 8 -20 70 -98 120 -148 17 -19 32 -36 32 -39 0
-3 16 -20 36 -37 20 -18 52 -47 72 -65 21 -17 45 -35 55 -38 9 -3 17 -10 17
-15 0 -5 6 -9 14 -9 8 0 16 -5 18 -11 2 -6 27 -14 56 -17 48 -4 58 -1 103 29
49 34 58 47 118 184 10 22 26 67 36 100 58 196 67 229 121 495 9 41 20 91 25
110 5 19 13 62 18 95 10 66 26 155 42 226 6 25 14 73 19 105 5 32 16 93 24
134 9 41 20 100 26 130 6 30 17 87 25 125 13 65 20 100 60 288 40 183 96 405
141 552 8 28 18 61 20 75 3 14 12 39 20 57 8 17 14 39 14 50 1 10 7 29 15 43
8 14 14 35 15 47 0 12 6 34 14 50 8 15 21 44 29 63 8 19 22 52 31 73 9 21 16
43 16 49 0 6 14 40 30 75 17 34 30 71 30 82 0 10 6 23 13 29 7 6 37 58 66 114
70 138 112 212 123 216 4 2 8 8 8 13 0 6 5 15 10 22 6 7 19 23 30 37 l19 25 1
-65 c1 -111 48 -372 79 -445 5 -11 18 -49 30 -85 36 -113 50 -149 76 -190 14
-22 25 -44 25 -49 0 -5 7 -11 15 -15 8 -3 15 -12 15 -20 0 -8 3 -16 8 -18 4
-1 27 -25 52 -53 24 -27 60 -61 80 -75 19 -13 44 -32 54 -42 11 -10 28 -20 38
-24 24 -7 23 -29 -2 -54 -11 -11 -20 -22 -20 -26 0 -3 -24 -42 -53 -87 -29
-45 -69 -109 -88 -142 -19 -33 -39 -69 -46 -80 -7 -11 -16 -29 -22 -41 -20
-43 -152 -320 -166 -347 -8 -16 -15 -34 -15 -40 0 -6 -13 -39 -29 -72 -42 -89
-49 -109 -65 -179 -26 -110 -27 -164 -5 -256 20 -83 75 -210 91 -210 4 0 8 -7
8 -15 0 -8 3 -15 8 -15 4 0 18 -16 31 -35 17 -25 21 -39 13 -47 -5 -7 -13 -29
-17 -48 -4 -19 -21 -82 -37 -140 -17 -58 -43 -148 -58 -200 -15 -52 -42 -147
-60 -210 -18 -63 -38 -133 -46 -155 -8 -23 -14 -50 -14 -62 0 -12 -6 -37 -14
-55 -8 -18 -21 -60 -29 -93 -58 -226 -76 -296 -92 -346 -8 -26 -15 -54 -15
-63 0 -10 -6 -38 -14 -64 -8 -26 -22 -83 -31 -127 -10 -44 -24 -98 -31 -120
-8 -23 -14 -51 -14 -64 0 -14 -7 -47 -15 -75 -18 -63 -38 -161 -60 -291 -9
-55 -23 -134 -30 -175 -37 -196 -74 -539 -78 -715 l-3 -130 -59 -42 c-33 -23
-66 -42 -72 -43 -7 0 -13 -4 -13 -9 0 -5 -10 -13 -22 -17 -13 -4 -41 -18 -63
-33 -22 -14 -58 -35 -80 -46 -22 -11 -42 -22 -45 -25 -14 -14 -70 -50 -79 -50
-5 0 -11 -3 -13 -7 -5 -12 -66 -53 -78 -53 -5 0 -10 -4 -10 -9 0 -5 -20 -21
-45 -35 -25 -15 -45 -31 -45 -36 0 -6 -5 -10 -11 -10 -9 0 -123 -82 -139 -100
-3 -3 -30 -25 -60 -50 -30 -25 -56 -48 -58 -52 -2 -5 -10 -8 -18 -8 -8 0 -14
-7 -14 -15 0 -8 -5 -15 -10 -15 -6 0 -30 -20 -53 -45 -49 -50 -71 -55 -147
-31 -68 21 -178 44 -245 51 -33 4 -77 11 -98 16 -21 6 -154 10 -295 11 -215 1
-264 -2 -292 -15 -19 -8 -51 -18 -70 -22 -57 -11 -100 -26 -185 -66 -78 -37
-235 -144 -235 -161 0 -4 -7 -8 -15 -8 -8 0 -15 -6 -15 -12 0 -7 -14 -22 -30
-33 -16 -11 -30 -26 -30 -32 0 -7 -4 -13 -8 -13 -8 0 -100 -120 -115 -149 -4
-9 -21 -38 -37 -66 -27 -45 -55 -100 -96 -190 -7 -16 -23 -59 -34 -95 -12 -36
-26 -69 -31 -75 -5 -5 -9 -25 -9 -45 -1 -19 -7 -46 -15 -60 -8 -14 -14 -39
-15 -56 0 -17 -6 -50 -14 -75 -8 -24 -17 -74 -21 -110 l-6 -66 -57 -17 c-31
-10 -82 -25 -112 -33 -52 -14 -101 -29 -195 -58 -22 -7 -67 -21 -100 -31 -33
-9 -112 -35 -175 -57 -63 -21 -128 -43 -145 -47 -16 -5 -55 -18 -85 -30 -30
-12 -66 -25 -80 -30 -14 -5 -50 -18 -80 -30 -30 -12 -68 -26 -85 -31 -16 -5
-41 -14 -55 -20 -14 -6 -40 -17 -58 -25 -102 -43 -172 -74 -204 -90 -14 -8
-33 -14 -42 -14 -9 0 -16 -4 -16 -9 0 -5 -10 -13 -22 -16 -24 -7 -209 -96
-218 -105 -3 -3 -19 -12 -35 -21 -75 -38 -121 -65 -133 -76 -7 -7 -19 -13 -27
-13 -7 0 -15 -3 -17 -7 -4 -11 -65 -53 -77 -53 -5 0 -11 -7 -15 -15 -3 -8 -10
-15 -16 -15 -14 0 -190 -131 -190 -142 0 -4 -4 -8 -9 -8 -13 0 -171 -158 -171
-171 0 -5 -4 -9 -9 -9 -25 0 -147 -215 -186 -330 -28 -79 -28 -322 -2 -395 25
-67 78 -177 94 -193 6 -6 15 -21 18 -32 3 -11 11 -20 16 -20 5 0 9 -4 9 -9 0
-18 150 -179 240 -257 58 -50 244 -184 256 -184 3 0 25 -13 49 -29 24 -16 53
-32 64 -36 12 -3 21 -11 21 -16 0 -5 7 -9 15 -9 8 0 15 -4 15 -10 0 -5 12 -13
27 -16 34 -9 101 -43 109 -55 3 -5 14 -9 25 -9 10 0 19 -4 19 -9 0 -5 12 -12
28 -16 15 -3 63 -24 107 -45 109 -52 173 -80 180 -80 4 0 22 -7 41 -15 75 -33
102 -43 164 -64 36 -12 74 -25 85 -30 11 -5 36 -16 57 -25 20 -9 43 -16 51
-16 9 0 28 -6 44 -14 15 -8 96 -36 178 -62 83 -25 165 -53 183 -60 18 -8 41
-14 52 -14 11 0 37 -6 57 -14 35 -12 59 -19 213 -63 30 -8 72 -22 93 -29 20
-8 47 -14 58 -14 12 0 42 -6 68 -14 132 -41 417 -113 536 -136 22 -4 53 -12
68 -19 16 -6 43 -11 60 -11 18 0 50 -7 72 -15 22 -8 54 -14 71 -15 18 0 54 -6
80 -14 101 -29 175 -45 354 -76 56 -10 144 -27 235 -45 121 -25 188 -37 250
-45 33 -5 73 -13 88 -19 16 -6 44 -11 64 -11 33 0 104 -13 240 -45 34 -8 77
-15 96 -15 20 0 48 -5 64 -11 15 -6 57 -14 93 -19 122 -16 308 -49 426 -76 33
-8 74 -14 92 -14 17 0 64 -7 104 -15 40 -8 113 -20 162 -26 86 -11 91 -13 125
-52 20 -22 60 -63 89 -91 30 -28 68 -65 85 -82 18 -17 70 -59 117 -94 47 -35
87 -66 90 -70 11 -12 178 -108 240 -137 131 -63 157 -73 255 -99 83 -22 125
-27 252 -29 83 -2 166 -6 184 -10 17 -4 41 -3 53 2 28 13 83 32 126 44 19 6
59 21 88 35 29 13 57 24 61 24 5 0 22 7 38 15 50 26 163 75 172 75 5 0 30 9
57 21 27 11 59 25 72 30 12 5 32 13 45 18 12 6 63 26 112 46 50 20 103 43 118
51 16 8 35 14 42 14 7 0 27 8 43 17 28 16 44 16 213 4 101 -7 225 -15 274 -17
50 -3 176 -11 280 -19 105 -8 256 -17 338 -20 81 -3 156 -8 167 -10 11 -2 140
-9 287 -15 148 -6 277 -13 288 -15 11 -3 162 -10 335 -16 173 -6 338 -12 365
-14 74 -5 353 -15 585 -21 113 -3 342 -9 510 -14 322 -8 2966 -6 3325 4 116 3
314 8 440 10 401 10 680 18 685 21 3 2 118 6 255 9 138 4 284 9 325 12 41 3
107 7 145 9 39 1 99 5 135 9 36 3 124 9 195 12 72 4 144 8 160 9 59 5 232 15
368 21 76 3 149 8 162 10 12 2 108 8 211 14 104 5 250 14 324 20 74 5 167 11
205 14 68 4 154 11 490 41 88 8 189 17 225 20 36 3 76 7 90 10 14 3 88 10 165
15 77 5 172 13 210 19 39 5 108 11 155 12 47 1 95 5 107 10 11 4 56 10 100 14
68 5 103 9 188 21 11 1 69 7 128 13 60 5 141 15 180 20 40 6 133 17 207 26
161 20 335 41 485 60 61 8 128 16 150 19 91 10 215 28 296 41 47 8 101 15 120
15 19 1 61 7 94 15 33 8 81 15 106 15 26 0 66 7 89 15 23 8 60 15 82 15 41 0
170 20 293 45 71 14 171 30 280 45 33 4 80 13 105 18 25 6 88 18 140 27 52 9
124 23 160 30 68 14 164 32 240 44 77 13 173 32 230 46 30 7 82 18 115 25 33
6 87 18 120 26 33 8 83 19 110 23 47 8 68 13 175 41 25 7 68 16 95 21 28 4 79
15 115 25 36 9 88 21 115 27 28 7 55 15 61 19 6 4 26 10 45 13 60 10 93 16
124 25 17 5 57 16 90 25 33 9 80 23 105 31 25 7 79 22 120 33 41 11 89 24 105
30 17 5 55 16 85 24 30 9 152 48 270 87 118 39 229 74 245 77 17 3 35 9 40 13
6 4 24 12 40 18 17 6 55 20 85 32 30 11 89 33 130 47 41 14 79 30 84 34 6 5
20 9 33 9 13 0 23 4 23 9 0 5 10 13 23 16 12 4 50 20 85 36 34 16 68 29 76 29
7 0 19 7 26 15 7 8 19 15 27 15 8 0 27 6 41 14 15 8 59 29 97 47 39 19 76 40
83 47 7 6 22 12 33 12 10 0 19 3 19 8 0 4 27 20 60 36 33 16 60 32 60 35 0 3
19 15 43 26 23 11 50 27 60 36 9 9 30 22 45 30 15 8 32 19 37 25 6 5 33 28 60
49 28 22 52 43 53 47 2 5 8 8 12 8 12 0 187 174 232 231 46 57 100 151 126
219 75 196 70 373 -14 570 -15 36 -33 72 -41 81 -7 8 -13 19 -13 23 0 18 -100
138 -179 215 -84 82 -272 231 -291 231 -6 0 -10 5 -10 10 0 6 -10 15 -22 20
-25 11 -60 32 -68 41 -6 7 -111 67 -170 97 -25 12 -58 32 -75 42 -16 11 -39
24 -51 29 -55 25 -190 93 -197 100 -5 5 -4 17 2 27 14 26 61 162 70 204 4 19
12 44 18 55 10 18 19 51 44 155 4 19 18 73 29 120 12 47 28 119 36 160 15 73
19 95 42 245 33 206 44 412 39 735 -2 179 -10 363 -16 410 -24 171 -43 296
-53 345 -6 28 -14 73 -19 100 -11 74 -28 142 -73 308 -46 167 -60 211 -92 285
-8 18 -14 39 -14 46 0 7 -9 35 -21 62 -11 27 -24 58 -29 69 -4 11 -15 36 -24
57 -9 20 -16 41 -16 47 0 6 -13 37 -30 68 -16 31 -30 60 -30 65 0 13 -89 194
-119 243 -27 43 -58 100 -100 180 -14 28 -31 56 -38 63 -7 7 -13 17 -13 22 0
5 -6 15 -12 22 -7 8 -18 23 -25 33 -75 123 -97 155 -104 155 -5 0 -9 6 -9 14
0 8 -3 16 -7 18 -12 5 -53 66 -53 78 0 5 -3 10 -8 10 -4 0 -27 26 -52 58 -24
31 -48 58 -52 60 -4 2 -8 8 -8 13 0 5 -8 17 -17 27 -10 10 -36 40 -58 67 -22
28 -55 65 -72 83 -18 18 -33 35 -33 38 0 7 -310 314 -318 314 -4 1 -18 14 -32
30 -13 17 -28 30 -33 30 -4 0 -23 15 -41 33 -38 38 -96 87 -103 87 -3 0 -11 6
-17 14 -26 32 -267 204 -391 279 -10 7 -25 18 -33 25 -7 6 -17 12 -22 12 -5 0
-15 6 -22 13 -7 6 -33 22 -58 35 -25 13 -58 32 -75 42 -71 44 -477 240 -498
240 -7 0 -17 4 -22 9 -10 10 -73 34 -135 53 -19 5 -39 14 -45 19 -5 5 -18 9
-30 9 -11 0 -32 6 -47 14 -15 8 -40 17 -57 21 -17 4 -33 11 -36 16 -4 5 -16 9
-27 9 -23 0 -117 25 -158 43 -14 5 -45 13 -70 18 -92 15 -206 40 -222 49 -10
6 -37 10 -60 10 -24 0 -59 5 -78 11 -19 5 -73 14 -120 19 -47 5 -128 14 -180
21 -154 18 -754 15 -879 -5 -58 -9 -121 -16 -140 -16 -20 0 -65 -7 -101 -15
-76 -17 -291 -61 -370 -76 -30 -5 -59 -14 -65 -18 -5 -5 -23 -11 -40 -14 -16
-3 -61 -15 -100 -27 -38 -11 -83 -25 -100 -30 -51 -14 -99 -32 -128 -46 -16
-8 -34 -14 -40 -14 -14 0 -209 -81 -303 -126 -39 -19 -77 -34 -83 -34 -6 0
-11 -4 -11 -10 0 -5 -6 -10 -14 -10 -7 0 -35 -12 -62 -26 -27 -15 -91 -49
-143 -76 -52 -28 -113 -62 -135 -76 -56 -36 -77 -49 -103 -63 -13 -7 -23 -16
-23 -21 0 -4 -6 -8 -12 -8 -14 0 -118 -68 -210 -137 -31 -24 -61 -43 -66 -43
-6 0 -12 -3 -14 -8 -6 -13 -95 -82 -107 -82 -6 0 -11 -7 -11 -15 0 -8 -5 -15
-10 -15 -5 0 -18 -8 -28 -17 -10 -10 -47 -43 -82 -73 -35 -30 -79 -68 -98 -85
-41 -35 -262 -256 -262 -261 0 -2 -12 -16 -27 -32 -16 -15 -48 -52 -73 -82
-25 -29 -53 -62 -62 -72 -10 -10 -18 -22 -18 -28 0 -5 -4 -10 -8 -10 -5 0 -30
-29 -56 -65 -26 -36 -54 -71 -60 -78 -7 -7 -38 -50 -70 -97 -32 -47 -62 -86
-67 -88 -5 -2 -9 -8 -9 -13 0 -9 -38 -69 -51 -79 -4 -3 -9 -15 -13 -26 -4 -12
-17 -33 -29 -46 -12 -13 -31 -42 -42 -63 -11 -22 -24 -44 -28 -50 -11 -14 -64
-114 -78 -147 -6 -16 -15 -28 -20 -28 -5 0 -9 -9 -9 -19 0 -11 -4 -22 -9 -25
-10 -7 -69 -127 -119 -246 -6 -14 -22 -51 -36 -82 -14 -31 -26 -60 -26 -63 0
-7 -44 -122 -60 -160 -14 -32 -76 -224 -95 -295 -10 -36 -24 -83 -31 -105 -7
-22 -15 -56 -17 -75 -3 -19 -9 -53 -15 -75 -29 -110 -72 -350 -72 -402 0 -21
-4 -54 -10 -73 -17 -59 -18 -86 -34 -615 l-2 -60 -34 1 c-19 1 -55 2 -79 3
l-44 1 7 43 c4 23 9 65 12 92 2 28 11 82 19 120 22 108 36 217 46 370 4 77 13
185 18 240 12 128 7 732 -8 895 -30 338 -44 472 -57 543 -8 42 -14 91 -14 107
0 28 -13 106 -45 265 -8 39 -21 106 -30 150 -22 114 -44 214 -57 260 -6 22
-17 67 -25 100 -37 158 -54 225 -68 265 -7 19 -20 62 -30 95 -37 125 -49 161
-62 192 -7 17 -13 40 -13 50 0 10 -4 23 -9 29 -5 5 -21 47 -36 94 -16 47 -32
89 -37 95 -4 5 -8 18 -8 28 0 10 -6 31 -14 45 -8 15 -31 68 -51 117 -61 151
-72 176 -131 300 -30 63 -47 113 -46 135 6 316 4 365 -16 425 -36 103 -56 150
-128 303 -24 52 -44 98 -44 103 0 5 -3 9 -7 9 -5 0 -17 21 -28 46 -11 26 -29
64 -40 85 -11 21 -31 59 -45 86 -14 26 -31 54 -37 61 -7 7 -13 18 -13 24 0 5
-13 30 -30 55 -16 24 -30 48 -30 54 0 5 -4 9 -9 9 -5 0 -14 14 -21 30 -7 17
-16 30 -21 30 -5 0 -9 5 -9 11 0 6 -13 28 -30 49 -16 21 -30 41 -30 44 0 7
-82 118 -124 167 -17 19 -49 57 -71 84 -22 26 -68 77 -102 114 -34 36 -63 71
-63 78 0 17 40 83 51 83 5 0 9 7 9 16 0 9 6 28 14 42 29 55 46 101 46 125 0
14 4 27 10 29 5 2 14 23 19 48 5 25 14 59 19 75 23 65 58 260 68 378 6 73 20
99 31 58 3 -11 11 -22 19 -25 8 -3 14 -13 14 -22 0 -10 6 -25 14 -33 40 -46
199 -363 266 -531 12 -30 28 -70 36 -88 8 -18 14 -37 14 -43 0 -6 6 -25 13
-42 19 -45 37 -97 47 -132 4 -16 12 -41 17 -55 13 -32 36 -108 58 -190 9 -36
23 -80 31 -98 8 -18 14 -43 14 -55 0 -12 6 -39 14 -62 7 -22 21 -76 30 -120
10 -44 24 -103 32 -131 8 -28 14 -60 14 -71 0 -11 6 -39 14 -64 14 -46 34
-137 60 -274 8 -44 20 -105 26 -135 13 -62 21 -107 45 -235 9 -49 21 -97 26
-107 5 -9 9 -28 9 -43 0 -14 6 -54 14 -88 27 -118 45 -212 51 -257 3 -24 10
-49 14 -55 5 -5 11 -30 14 -55 6 -48 29 -146 46 -195 6 -16 24 -75 42 -130 17
-55 44 -128 60 -162 16 -35 29 -66 29 -70 0 -15 65 -78 93 -90 15 -7 47 -13
71 -13 44 0 116 24 116 38 0 4 14 16 31 26 38 23 138 121 199 196 25 30 52 63
61 73 9 9 22 30 30 45 8 15 24 38 37 52 12 14 22 30 22 36 0 6 6 17 14 23 20
17 186 355 199 406 3 11 15 45 27 75 33 84 60 171 60 191 0 10 4 20 9 24 5 3
15 31 21 62 7 31 16 64 20 72 4 9 13 43 20 76 7 33 16 78 21 100 4 22 20 105
34 185 13 80 32 183 40 230 8 47 15 108 16 135 0 28 6 102 14 165 16 143 14
781 -4 915 -46 348 -62 440 -98 590 -14 55 -27 111 -30 125 -6 32 -61 214 -78
260 -49 135 -83 217 -121 296 -24 49 -44 95 -44 101 0 7 -6 18 -12 25 -7 7
-22 31 -33 53 -10 22 -39 70 -62 107 -24 37 -43 72 -43 77 0 6 -4 11 -10 11
-5 0 -21 20 -36 45 -14 25 -30 45 -35 45 -5 0 -9 7 -9 15 0 8 -3 15 -7 15 -5
0 -19 17 -33 38 -13 20 -57 70 -97 111 -40 40 -73 77 -73 82 0 5 -5 9 -11 9
-5 0 -22 13 -37 28 -36 38 -107 92 -121 92 -6 0 -11 4 -11 9 0 11 -152 111
-168 111 -7 0 -12 4 -12 9 0 5 -10 13 -22 16 -13 4 -64 27 -115 51 -50 24
-100 44 -110 44 -11 0 -23 4 -29 9 -9 9 -104 36 -182 52 -24 5 -47 11 -52 14
-5 3 -57 10 -115 15 -58 5 -110 12 -115 15 -8 5 67 118 122 186 32 39 116 203
163 314 20 50 43 102 51 117 8 14 14 34 14 43 0 9 6 29 14 43 15 29 67 195 87
274 31 128 -68 405 -208 581 -56 70 -211 227 -225 227 -4 0 -13 6 -20 13 -22
21 -96 77 -101 77 -3 0 -26 14 -50 30 -25 17 -49 30 -55 30 -6 0 -12 4 -14 9
-1 4 -39 25 -83 45 -44 21 -88 41 -97 47 -19 9 -65 27 -158 58 -189 64 -493
96 -630 67 -113 -24 -116 -23 -129 28 -6 25 -11 54 -11 64 0 11 -7 44 -16 73
-8 30 -21 77 -29 104 -22 79 -106 348 -115 370 -5 11 -19 45 -31 75 -47 121
-146 338 -159 350 -3 3 -21 36 -40 75 -19 38 -41 76 -47 83 -7 7 -13 17 -13
22 0 5 -6 15 -12 22 -7 7 -21 29 -32 48 -10 19 -24 40 -30 45 -12 12 -33 43
-43 65 -3 8 -26 41 -50 73 -24 31 -43 62 -43 67 0 6 -4 10 -9 10 -5 0 -17 13
-28 29 -30 47 -130 157 -269 295 -140 140 -164 162 -264 239 -36 27 -67 53
-70 56 -3 4 -27 22 -55 41 -151 101 -195 130 -204 130 -5 0 -11 3 -13 8 -1 4
-18 15 -36 25 -19 9 -72 37 -118 62 -46 25 -90 45 -99 45 -8 0 -15 4 -15 10 0
5 -11 12 -25 16 -14 3 -42 15 -62 25 -21 10 -43 19 -50 19 -7 0 -13 4 -13 9 0
5 -10 11 -22 14 -13 3 -88 29 -168 57 -80 28 -163 55 -185 60 -38 9 -120 30
-195 50 -93 25 -298 60 -390 67 -36 3 -112 11 -170 17 -283 34 -824 7 -1217
-61 -82 -14 -126 -14 -173 0 -38 11 -68 17 -105 21 -22 2 -71 9 -110 15 -177
27 -287 35 -515 37 -135 1 -272 -2 -305 -6z m715 -245 c47 -7 108 -16 135 -19
28 -3 66 -9 85 -14 122 -33 171 -35 310 -12 74 12 171 25 215 30 44 4 109 14
145 20 43 8 188 13 435 13 301 1 390 -2 475 -16 58 -9 155 -24 215 -32 61 -9
139 -23 175 -31 166 -39 201 -48 290 -76 113 -36 165 -55 203 -74 16 -8 34
-14 41 -14 6 0 29 -9 51 -20 22 -11 45 -20 52 -20 7 0 13 -4 13 -10 0 -5 6
-10 13 -10 14 0 166 -76 252 -126 97 -56 178 -110 261 -171 46 -35 88 -63 93
-63 5 0 11 -4 13 -9 2 -4 41 -41 88 -81 120 -104 340 -330 340 -351 0 -5 5 -9
10 -9 6 0 10 -4 10 -9 0 -5 15 -25 33 -44 41 -44 127 -163 127 -177 0 -5 4
-10 9 -10 5 0 14 -13 21 -30 7 -16 16 -30 21 -30 5 0 9 -6 9 -14 0 -7 7 -19
15 -26 8 -7 15 -20 15 -30 0 -10 6 -20 13 -23 6 -3 28 -36 47 -73 19 -38 37
-71 40 -74 11 -10 80 -153 80 -165 0 -7 7 -18 15 -25 8 -7 15 -19 15 -26 0 -8
14 -43 30 -77 17 -35 30 -70 30 -78 0 -8 5 -20 11 -26 6 -6 14 -26 19 -44 11
-42 60 -188 71 -210 4 -9 11 -34 14 -55 4 -22 13 -57 20 -79 12 -38 23 -86 60
-262 17 -79 20 -153 6 -153 -12 0 -153 -95 -185 -125 -15 -14 -30 -25 -34 -25
-22 -1 -42 -57 -56 -158 -36 -250 -45 -335 -57 -512 -29 -451 26 -784 177
-1072 19 -36 18 -43 -12 -75 -92 -99 -118 -166 -120 -318 -2 -119 -3 -122 -44
-210 l-42 -90 -19 80 c-11 44 -26 103 -34 131 -8 28 -15 58 -15 67 0 9 -6 31
-14 49 -7 18 -22 60 -32 93 -9 33 -23 71 -30 85 -7 14 -22 52 -34 85 -12 33
-25 64 -29 70 -4 5 -13 28 -20 50 -13 38 -102 234 -121 265 -5 8 -26 49 -47
90 -21 41 -57 108 -80 148 -24 40 -43 75 -43 78 0 3 -11 20 -25 38 -14 18 -25
38 -25 44 0 7 -4 12 -10 12 -5 0 -10 4 -10 9 0 5 -16 36 -36 68 -19 32 -40 67
-47 78 -7 11 -14 22 -17 25 -14 14 -50 70 -50 79 0 5 -3 11 -7 13 -9 4 -53 65
-53 73 0 3 -5 11 -10 18 -37 44 -110 148 -110 157 0 6 -7 13 -15 16 -8 4 -15
12 -15 20 0 8 -4 14 -8 14 -4 0 -21 20 -36 45 -16 25 -33 45 -37 45 -5 0 -9 6
-9 14 0 8 -3 16 -8 18 -4 2 -25 26 -47 53 -21 28 -44 55 -50 60 -6 6 -21 24
-33 40 -25 32 -115 136 -144 167 -10 10 -18 20 -18 22 0 19 -538 556 -557 556
-2 0 -14 10 -26 23 -12 12 -60 54 -107 92 -47 38 -87 72 -90 75 -3 3 -23 19
-45 35 -22 17 -42 32 -45 36 -12 13 -141 108 -207 152 -40 27 -73 52 -73 57 0
4 -8 10 -17 14 -10 3 -31 15 -48 26 -16 11 -40 25 -52 31 -13 7 -23 16 -23 21
0 4 -5 8 -11 8 -6 0 -29 13 -52 28 -23 16 -49 32 -57 35 -8 4 -22 11 -30 17
-70 46 -353 193 -465 240 -11 5 -47 21 -80 36 -32 14 -71 30 -85 35 -14 4 -50
17 -80 29 -30 12 -102 37 -160 56 l-104 35 -76 -16 c-79 -18 -125 -31 -230
-66 -89 -30 -137 -47 -158 -58 -9 -4 -33 -15 -52 -24 -19 -8 -65 -29 -103 -46
-37 -17 -72 -31 -77 -31 -6 0 -10 -4 -10 -9 0 -5 -10 -13 -22 -17 -27 -8 -267
-152 -286 -171 -7 -7 -17 -13 -21 -13 -4 0 -21 -11 -37 -25 -16 -14 -35 -25
-41 -25 -7 0 -13 -4 -13 -8 0 -4 -12 -15 -27 -24 -16 -10 -41 -28 -57 -43 -16
-14 -32 -25 -35 -25 -3 0 -20 -14 -38 -30 -18 -17 -37 -30 -42 -30 -6 0 -11
-3 -11 -7 0 -5 -28 -30 -63 -58 -34 -27 -84 -71 -110 -97 -26 -27 -50 -48 -52
-48 -9 0 -105 -101 -105 -110 0 -6 -4 -10 -10 -10 -12 0 -241 -235 -327 -336
-10 -12 -38 -45 -63 -74 -25 -30 -62 -74 -83 -99 -21 -25 -50 -59 -63 -75 -13
-15 -24 -30 -24 -31 0 -2 -13 -19 -30 -37 -16 -18 -30 -38 -30 -46 0 -7 -7
-15 -15 -18 -8 -4 -15 -12 -15 -20 0 -8 -4 -14 -9 -14 -5 0 -22 -20 -38 -45
-15 -25 -31 -45 -35 -45 -5 0 -8 -6 -8 -14 0 -8 -6 -16 -12 -19 -7 -3 -22 -22
-33 -43 -11 -22 -25 -43 -31 -49 -6 -5 -51 -71 -100 -145 -109 -166 -112 -171
-120 -192 -3 -10 -10 -18 -14 -18 -5 0 -12 -10 -16 -22 -3 -13 -12 -30 -19
-38 -7 -8 -27 -42 -45 -75 -18 -33 -39 -67 -46 -76 -8 -8 -14 -21 -14 -27 0
-6 -6 -17 -12 -24 -7 -7 -33 -51 -57 -98 -24 -47 -58 -113 -76 -147 -18 -34
-35 -70 -39 -80 -3 -10 -17 -36 -30 -58 -14 -22 -25 -48 -26 -57 0 -10 -4 -18
-10 -18 -5 0 -10 -5 -10 -11 0 -6 -15 -44 -34 -83 -41 -86 -113 -261 -156
-376 -17 -47 -37 -98 -44 -115 -21 -50 -38 -98 -46 -135 -4 -19 -12 -46 -18
-60 -5 -14 -18 -54 -27 -90 -28 -109 -38 -140 -45 -140 -10 0 -60 55 -60 66 0
5 7 22 16 39 27 53 74 169 74 185 0 9 4 20 9 25 11 13 45 151 66 275 13 77 15
149 12 375 -3 267 -9 355 -42 580 -8 55 -17 123 -20 150 -9 77 -24 115 -59
146 -42 39 -151 111 -206 136 -85 39 -121 53 -131 53 -6 0 -25 6 -42 14 -18 8
-45 17 -62 21 -16 3 -48 10 -70 15 -67 15 -323 12 -379 -5 -52 -16 -116 -20
-116 -7 0 33 31 286 39 322 13 58 32 155 38 200 3 19 9 40 13 45 5 6 11 28 15
50 4 22 13 58 20 80 7 22 30 94 51 160 21 66 41 122 46 123 4 2 8 12 8 23 0
11 4 27 10 37 20 37 60 130 60 140 0 7 5 12 10 12 6 0 10 6 10 14 0 15 69 158
81 166 3 3 10 16 14 30 4 14 11 27 15 30 3 3 17 25 29 50 27 53 37 70 74 127
15 24 27 45 27 48 0 8 44 69 53 73 4 2 7 8 7 14 0 6 14 27 30 48 17 21 30 43
30 49 0 6 4 11 9 11 4 0 21 19 37 43 16 23 39 52 51 64 13 12 23 27 23 33 0 5
4 10 8 10 5 0 23 19 40 43 17 23 47 59 66 80 20 21 36 40 36 42 0 6 250 255
256 255 3 0 17 13 32 28 15 16 50 46 77 68 28 21 60 49 72 61 12 13 27 23 33
23 5 0 10 4 10 8 0 4 20 21 45 36 25 16 45 33 45 37 0 5 5 9 11 9 6 0 36 19
67 43 31 24 73 52 92 63 19 10 41 25 48 32 7 6 17 12 22 12 5 0 15 6 22 13 7
6 31 21 53 32 22 11 45 25 51 31 25 22 368 187 417 199 15 4 30 11 33 16 3 5
14 9 24 9 10 0 31 6 47 14 39 19 91 36 136 46 21 4 44 13 50 19 6 6 20 11 32
11 11 0 40 6 65 14 85 27 152 41 385 82 50 9 149 20 220 24 177 11 591 2 695
-15z m566 -1486 c32 -11 73 -24 89 -29 17 -4 55 -18 85 -30 30 -12 69 -26 85
-32 17 -6 34 -15 40 -19 5 -5 16 -9 25 -9 15 0 52 -17 240 -110 140 -69 207
-106 313 -168 49 -29 93 -52 98 -52 5 0 9 -5 9 -10 0 -6 11 -15 23 -19 32 -12
211 -130 215 -142 2 -5 8 -9 13 -9 6 0 15 -5 22 -10 7 -6 62 -47 122 -92 61
-45 119 -91 130 -101 11 -10 39 -33 63 -50 23 -17 42 -34 42 -39 0 -4 5 -8 10
-8 6 0 18 -8 28 -17 10 -10 53 -49 96 -87 42 -38 106 -98 142 -133 36 -34 67
-63 70 -63 9 0 326 -335 358 -379 13 -17 35 -42 50 -56 14 -13 26 -26 26 -29
0 -3 14 -19 30 -36 17 -17 30 -34 30 -38 0 -4 13 -20 28 -37 15 -16 57 -68 92
-115 35 -47 70 -89 77 -93 7 -4 13 -12 13 -18 0 -5 33 -54 73 -107 83 -111
200 -283 242 -357 16 -27 32 -52 35 -55 4 -3 10 -12 14 -20 7 -15 11 -22 56
-95 14 -22 34 -58 45 -80 11 -22 25 -45 31 -52 6 -6 31 -51 54 -100 24 -48 47
-89 52 -91 4 -2 8 -9 8 -15 0 -6 20 -51 44 -101 53 -111 67 -144 97 -221 13
-33 27 -64 31 -69 4 -6 8 -18 8 -28 0 -10 13 -46 29 -80 29 -61 29 -62 30
-257 0 -108 -4 -227 -10 -266 -5 -38 -12 -90 -15 -115 -3 -25 -12 -59 -20 -77
-8 -17 -14 -37 -14 -45 0 -8 -13 -25 -30 -38 -16 -14 -29 -29 -30 -33 0 -4
-11 -18 -23 -30 -13 -12 -36 -41 -52 -64 -15 -24 -30 -43 -34 -43 -3 0 -12
-13 -19 -28 -6 -16 -20 -37 -30 -48 -10 -10 -28 -39 -40 -64 -13 -25 -34 -63
-47 -85 -14 -22 -27 -47 -31 -55 -3 -8 -12 -28 -19 -45 -26 -54 -75 -189 -75
-205 0 -9 -44 -58 -98 -110 -102 -99 -121 -115 -187 -165 -22 -16 -41 -33 -43
-37 -2 -4 -10 -8 -18 -8 -8 0 -14 -4 -14 -8 0 -10 -224 -157 -285 -187 -22
-11 -42 -23 -45 -27 -3 -4 -17 -12 -30 -17 -14 -6 -33 -15 -42 -21 -10 -5 -26
-15 -35 -20 -10 -6 -25 -13 -33 -16 -19 -8 -59 -25 -140 -62 -36 -16 -90 -39
-120 -51 -30 -12 -64 -26 -75 -30 -51 -21 -105 -41 -155 -57 -30 -9 -71 -22
-90 -29 -87 -31 -137 -45 -157 -45 -12 0 -24 -4 -27 -9 -4 -5 -25 -12 -49 -16
-23 -3 -62 -12 -87 -20 -25 -7 -79 -20 -120 -29 -41 -8 -108 -22 -149 -31 -40
-8 -87 -15 -103 -15 -17 0 -56 -6 -87 -14 -31 -8 -78 -17 -106 -19 -27 -3 -86
-10 -130 -15 -383 -50 -995 -48 -1360 3 -55 8 -118 17 -140 19 -56 7 -162 25
-215 37 -25 6 -65 14 -90 18 -100 18 -296 71 -453 122 -48 16 -92 29 -98 29
-6 0 -25 6 -42 14 -18 7 -52 21 -77 30 -25 10 -58 24 -73 32 -16 8 -33 14 -38
14 -5 0 -55 22 -111 48 -142 67 -164 79 -233 118 -33 18 -70 39 -82 45 -13 7
-23 16 -23 21 0 4 -5 8 -11 8 -6 0 -31 14 -56 30 -24 17 -46 30 -49 30 -3 0
-10 5 -17 10 -7 6 -52 40 -101 76 -48 37 -96 74 -106 84 -10 10 -30 26 -44 36
-15 9 -29 27 -32 40 -3 13 -10 24 -14 24 -5 0 -12 10 -16 22 -4 13 -41 67 -83
122 -42 54 -85 110 -95 125 -11 14 -56 62 -101 106 -45 44 -91 100 -103 125
-13 25 -33 65 -46 90 -13 25 -33 70 -45 100 -12 30 -26 64 -30 75 -9 21 -30
94 -55 185 -14 51 -27 136 -27 170 0 24 17 99 41 185 12 44 26 94 31 110 31
112 53 180 75 233 8 18 14 41 14 50 0 10 4 22 9 27 5 6 30 64 56 130 47 120
63 158 115 270 81 173 270 546 281 555 4 3 19 28 33 55 15 28 36 64 47 80 10
17 23 39 29 50 5 11 33 54 60 95 28 41 53 82 57 90 3 8 19 31 35 51 15 20 28
40 28 43 0 9 43 70 53 74 4 2 7 9 7 15 1 7 14 28 30 47 17 19 30 40 30 47 0 7
4 13 9 13 5 0 22 20 38 45 15 25 31 45 36 45 4 0 7 4 7 10 0 12 69 104 81 108
5 2 9 10 9 18 0 8 4 14 9 14 5 0 19 15 30 33 11 18 29 43 40 55 19 22 49 59
108 132 32 41 64 77 112 129 18 20 54 59 79 86 106 116 212 223 282 285 42 37
95 86 117 109 23 22 45 41 48 41 3 0 25 18 48 39 58 54 93 81 106 81 6 0 11 7
11 15 0 8 7 15 15 15 8 0 15 4 15 9 0 5 41 37 92 72 50 35 98 71 107 79 9 8
34 24 56 35 22 11 46 26 53 33 7 6 17 12 22 12 5 0 15 6 22 13 16 15 115 68
268 143 146 72 174 83 275 114 17 6 39 14 50 19 11 5 67 20 125 34 58 14 105
26 106 26 0 1 27 -8 60 -20z m4800 -1370 c60 -11 113 -25 119 -30 5 -5 20 -9
33 -9 24 0 190 -65 207 -81 5 -5 17 -9 26 -9 10 0 24 -6 31 -12 7 -7 31 -22
53 -33 22 -11 44 -25 48 -32 4 -7 14 -13 21 -13 17 0 132 -83 168 -121 15 -16
29 -29 32 -29 7 0 76 -69 76 -76 0 -3 10 -15 23 -27 28 -27 127 -172 127 -185
0 -6 6 -23 14 -39 45 -91 59 -209 32 -261 -9 -17 -16 -38 -16 -47 0 -10 -6
-31 -13 -48 -19 -45 -38 -97 -46 -132 -5 -16 -20 -54 -35 -84 -14 -30 -26 -59
-26 -65 0 -14 -62 -137 -77 -154 -7 -7 -13 -17 -13 -22 0 -11 -102 -164 -112
-168 -5 -2 -8 -8 -8 -14 0 -10 -18 -30 -105 -121 -59 -62 -166 -147 -215 -172
-19 -10 -37 -21 -40 -24 -11 -13 -138 -70 -171 -76 -31 -6 -38 -3 -53 21 -10
15 -38 47 -62 71 -46 46 -52 63 -31 85 7 7 43 76 81 153 37 77 76 156 86 175
10 19 23 52 29 72 7 20 23 59 37 85 13 26 24 55 24 63 0 8 12 51 26 95 27 83
41 142 51 209 6 45 -12 66 -50 59 -24 -5 -57 -60 -57 -96 -1 -44 -85 -319
-109 -352 -4 -5 -13 -28 -20 -50 -7 -22 -44 -103 -83 -180 -116 -232 -107
-221 -158 -195 -55 28 -145 56 -222 70 -63 11 -68 14 -69 39 -1 14 -2 42 -4
61 -16 226 18 680 55 751 6 10 10 42 10 73 0 46 -3 56 -20 61 -36 11 -59 -4
-65 -43 -4 -20 -11 -50 -16 -67 -38 -115 -72 -507 -63 -727 l6 -137 -39 -10
c-21 -6 -46 -11 -55 -11 -16 0 -68 -19 -111 -42 -21 -10 -57 14 -57 39 0 7 -4
21 -9 31 -45 83 -92 223 -123 362 -20 96 -22 131 -23 410 0 310 7 397 52 688
17 104 17 104 62 143 25 22 56 45 68 52 132 74 235 117 280 117 12 0 23 4 23
8 0 5 14 9 31 10 17 0 34 3 37 6 3 3 72 6 153 6 108 0 176 -6 255 -21z m-8861
-569 c60 -11 114 -25 119 -30 6 -6 19 -10 29 -10 27 0 196 -85 233 -118 18
-15 44 -36 58 -47 21 -16 29 -33 35 -80 5 -33 14 -94 20 -135 32 -215 44 -367
48 -595 4 -249 -2 -335 -38 -480 -6 -22 -15 -60 -20 -85 -5 -24 -14 -49 -19
-54 -6 -6 -10 -19 -10 -29 0 -10 -6 -33 -14 -50 -69 -156 -77 -167 -99 -149
-19 16 -128 51 -169 54 l-37 3 -4 280 c-3 206 -9 304 -22 370 -62 332 -61 329
-98 333 -33 4 -57 -21 -51 -53 3 -11 9 -42 14 -68 5 -27 12 -53 16 -58 3 -5
10 -44 15 -87 5 -42 13 -106 18 -142 14 -96 23 -401 15 -491 l-6 -78 -56 -7
c-31 -4 -88 -18 -127 -31 -38 -13 -79 -27 -90 -30 -11 -4 -23 -11 -27 -17 -13
-19 -52 14 -79 67 -201 398 -224 454 -296 731 -21 80 -48 103 -83 71 -24 -21
-25 -40 -6 -103 8 -26 23 -78 34 -117 23 -78 39 -125 59 -172 7 -17 13 -36 13
-41 0 -6 7 -24 15 -41 8 -17 22 -45 30 -62 8 -17 15 -36 15 -44 0 -7 7 -18 15
-25 8 -7 15 -21 15 -31 0 -9 7 -24 15 -33 8 -8 15 -20 15 -26 0 -11 40 -91 51
-100 3 -3 16 -26 28 -52 13 -27 27 -50 32 -54 18 -11 9 -40 -23 -75 -18 -20
-48 -54 -66 -76 l-34 -41 -46 19 c-26 11 -56 25 -67 31 -11 6 -47 25 -80 42
-33 16 -76 42 -96 58 -20 15 -41 28 -45 28 -5 0 -59 51 -120 113 -138 139
-253 310 -329 492 -13 29 -26 60 -59 138 -9 21 -16 42 -16 48 0 6 -6 25 -13
42 -23 53 -47 134 -47 154 0 10 -5 24 -11 30 -8 8 -8 22 0 49 6 22 11 49 11
61 0 48 145 313 171 313 5 0 9 4 9 10 0 5 24 33 54 62 84 82 108 102 149 127
20 12 37 27 37 32 0 5 7 9 15 9 8 0 15 4 15 8 0 4 26 21 58 37 31 16 59 31 62
34 9 11 139 71 153 71 7 0 21 6 32 13 11 8 58 24 105 37 47 13 89 27 95 32 5
4 29 8 55 9 25 0 65 6 90 13 74 20 214 19 335 -4z m8556 -1345 c110 -35 182
-77 256 -152 103 -103 143 -188 143 -301 0 -63 -31 -162 -51 -162 -5 0 -9 -6
-9 -13 0 -19 -88 -99 -130 -118 -106 -50 -116 -52 -248 -51 -122 1 -187 13
-227 43 -5 4 -27 10 -47 14 -21 4 -38 11 -38 15 0 4 -11 12 -24 18 -40 18
-156 124 -156 142 0 5 -4 10 -9 10 -10 0 -36 53 -65 128 -49 129 23 300 162
385 38 23 119 53 162 60 59 9 230 -1 281 -18z m1229 -243 c25 -6 81 -18 125
-28 74 -15 323 -106 335 -122 3 -4 34 -22 70 -41 93 -49 212 -141 320 -251
105 -106 128 -133 200 -235 27 -38 53 -74 58 -80 4 -5 11 -17 15 -25 4 -8 17
-31 29 -50 34 -57 118 -227 118 -241 0 -7 6 -20 14 -28 7 -9 28 -56 46 -106
18 -49 38 -103 45 -120 7 -16 18 -50 25 -75 7 -25 20 -72 30 -105 10 -33 25
-91 34 -130 8 -38 19 -83 22 -100 4 -16 8 -34 9 -40 3 -22 17 -93 26 -135 6
-25 14 -76 19 -115 5 -38 13 -97 19 -130 22 -137 36 -699 20 -870 -37 -412
-51 -520 -84 -670 -7 -33 -19 -87 -25 -120 -7 -33 -21 -90 -31 -127 -10 -36
-19 -75 -19 -86 0 -11 -7 -33 -15 -48 -8 -16 -15 -38 -15 -49 -1 -11 -7 -31
-15 -45 -8 -14 -15 -36 -15 -50 0 -14 -7 -34 -15 -44 -8 -11 -15 -28 -15 -37
0 -10 -6 -30 -14 -46 -7 -15 -21 -46 -31 -68 -9 -22 -23 -53 -31 -68 -8 -16
-14 -32 -14 -36 0 -8 -82 -161 -118 -221 -12 -19 -26 -44 -31 -55 -5 -11 -27
-41 -50 -67 -23 -25 -41 -49 -41 -54 0 -4 -17 -24 -37 -44 -21 -20 -49 -51
-63 -68 -14 -17 -29 -31 -34 -32 -5 0 -15 -8 -22 -17 -12 -17 -14 -17 -27 1
-12 17 -49 122 -102 291 -7 22 -20 76 -29 120 -9 44 -22 100 -27 125 -35 146
-42 180 -49 225 -4 28 -12 70 -17 95 -24 102 -51 236 -88 435 -9 50 -22 117
-30 150 -7 33 -21 98 -30 145 -9 47 -22 110 -30 140 -7 30 -21 89 -30 130 -15
70 -22 95 -60 233 -8 28 -16 63 -19 77 -2 14 -9 39 -14 55 -6 17 -18 57 -27
90 -31 109 -44 149 -91 290 -50 150 -96 272 -119 318 -8 16 -15 33 -15 39 0
12 -184 382 -210 423 -11 17 -24 39 -30 50 -13 25 -33 59 -40 65 -3 3 -15 21
-27 41 -11 20 -27 44 -36 55 -9 10 -43 57 -77 103 -34 46 -75 96 -91 112 -16
15 -29 33 -29 39 0 5 -7 10 -15 10 -8 0 -15 5 -15 10 0 10 -77 89 -189 193
-28 26 -51 54 -51 61 0 14 -68 156 -79 166 -3 3 -16 25 -29 50 -13 25 -32 59
-42 75 -42 64 -47 105 -14 105 8 0 42 29 77 64 44 46 70 84 90 132 27 63 28
74 24 173 -2 58 -7 115 -11 126 -7 19 0 22 61 37 37 9 109 22 158 28 50 7 97
13 105 15 32 8 387 -3 430 -13z m-9560 -329 c67 -23 140 -57 140 -65 0 -5 4
-8 10 -8 21 0 80 -72 109 -134 24 -50 31 -80 31 -124 0 -64 -24 -158 -46 -183
-8 -8 -14 -19 -14 -23 0 -29 -140 -166 -170 -166 -5 0 -10 -4 -10 -8 0 -5 -24
-19 -52 -31 -29 -13 -61 -27 -70 -32 -38 -20 -119 -30 -221 -30 -86 1 -119 5
-160 22 -85 35 -114 51 -163 93 -52 44 -100 136 -110 209 -7 48 15 133 53 210
25 48 165 197 186 197 6 0 18 6 26 14 27 23 163 69 226 76 82 8 181 1 235 -17z
m7845 -175 c35 -26 54 -47 50 -56 -3 -7 -5 -17 -5 -22 0 -5 -6 -15 -12 -22 -7
-7 -29 -45 -48 -83 -19 -39 -37 -72 -40 -75 -3 -3 -15 -25 -27 -50 -95 -199
-131 -295 -188 -505 -20 -74 -37 -199 -29 -218 4 -11 17 -17 39 -17 30 0 33 4
48 51 10 28 17 62 17 75 0 25 35 173 49 209 14 35 33 89 38 110 5 22 17 50 62
145 17 36 31 71 31 77 0 6 6 18 13 25 6 7 34 56 60 108 27 52 59 108 72 124
l23 29 68 -21 c38 -11 95 -24 127 -27 32 -4 64 -13 71 -20 9 -9 15 -62 19
-164 13 -308 -8 -513 -79 -768 -21 -79 -16 -127 14 -131 31 -5 62 24 62 58 0
14 4 30 9 35 6 6 19 55 31 110 11 55 25 120 31 145 20 86 31 335 25 532 l-7
197 28 6 c15 3 45 9 66 14 38 9 39 8 68 -38 15 -25 32 -50 36 -56 8 -10 64
-114 94 -175 77 -156 139 -320 168 -445 40 -176 42 -433 5 -595 -25 -105 -46
-184 -55 -205 -5 -11 -16 -42 -25 -70 -21 -66 -55 -135 -77 -160 -10 -11 -25
-31 -34 -45 -8 -14 -35 -41 -61 -60 -25 -19 -50 -40 -56 -46 -19 -19 -184 -94
-238 -110 -161 -44 -416 -66 -518 -43 -25 5 -72 12 -105 15 -33 4 -75 13 -94
20 -18 8 -41 14 -50 14 -9 0 -29 7 -45 15 -15 8 -34 15 -42 15 -15 0 -135 57
-204 97 -61 35 -128 89 -170 137 -19 21 -46 51 -60 66 -22 22 -67 106 -101
185 -15 36 -38 201 -33 236 17 118 38 220 59 294 14 47 25 93 25 103 0 9 7 26
15 36 8 11 15 26 15 33 0 11 59 146 80 183 5 8 25 47 46 85 40 76 54 96 160
230 71 90 174 195 269 276 28 23 52 46 53 50 2 5 10 9 18 9 8 0 14 3 14 8 0 4
20 21 45 37 24 17 45 33 45 38 0 4 6 7 14 7 8 0 16 7 20 15 9 26 43 17 101
-27z m-8990 -68 c179 -13 345 -39 352 -56 2 -7 0 -21 -6 -32 -22 -41 -25 -159
-6 -225 10 -34 24 -69 30 -77 7 -8 15 -22 19 -30 27 -60 72 -104 174 -175 4
-3 -40 -78 -49 -85 -3 -3 -9 -15 -13 -27 -4 -13 -12 -23 -17 -23 -5 0 -9 -6
-9 -12 0 -7 -31 -74 -68 -148 -58 -117 -74 -139 -119 -175 -28 -22 -52 -43
-52 -47 -1 -12 -40 -48 -51 -48 -5 0 -10 -5 -10 -10 0 -6 -10 -21 -23 -33 -24
-23 -60 -66 -117 -137 -19 -24 -39 -48 -45 -54 -22 -25 -138 -194 -148 -216
-4 -8 -13 -24 -19 -35 -85 -133 -168 -287 -168 -312 0 -7 -4 -13 -10 -13 -5 0
-10 -8 -10 -18 0 -10 -4 -22 -9 -28 -8 -8 -65 -141 -98 -229 -8 -22 -21 -53
-28 -70 -8 -16 -35 -95 -60 -175 -26 -80 -53 -160 -61 -178 -8 -18 -14 -41
-14 -52 0 -11 -7 -41 -15 -67 -31 -99 -45 -151 -75 -278 -17 -71 -35 -148 -41
-170 -6 -22 -14 -58 -19 -80 -5 -22 -12 -51 -16 -65 -9 -38 -20 -97 -34 -180
-13 -84 -35 -195 -55 -285 -8 -33 -21 -107 -30 -165 -16 -101 -35 -200 -56
-285 -5 -22 -14 -72 -19 -111 -5 -40 -14 -82 -18 -95 -5 -13 -12 -50 -16 -81
-4 -32 -11 -58 -16 -58 -4 0 -10 -17 -13 -37 -3 -21 -14 -74 -25 -118 -51
-204 -84 -295 -107 -295 -16 0 -167 157 -198 206 -13 22 -32 45 -41 53 -9 7
-16 19 -16 26 0 8 -3 15 -7 17 -13 5 -46 58 -83 133 -19 39 -37 72 -40 75 -3
3 -16 30 -30 60 -14 30 -28 57 -31 60 -3 3 -10 16 -14 30 -4 14 -17 48 -30 75
-29 65 -125 352 -125 375 0 10 -6 33 -14 51 -8 19 -17 62 -21 97 -4 34 -11 62
-16 62 -5 0 -9 14 -9 31 0 17 -7 58 -15 92 -19 83 -43 235 -50 327 -4 41 -10
95 -15 120 -35 184 -29 911 9 1070 6 25 11 63 11 84 0 40 23 186 42 266 5 25
18 85 29 133 17 80 31 131 61 222 5 17 14 48 19 70 6 22 14 44 20 50 5 5 9 17
9 26 0 10 6 30 14 46 8 15 22 48 32 73 9 25 32 77 51 117 18 39 33 76 33 82 0
6 3 11 8 11 4 0 17 22 30 50 12 27 27 52 32 55 6 3 10 15 10 25 0 10 3 20 8
22 11 5 52 66 52 78 0 5 4 10 9 10 5 0 21 20 35 45 15 25 31 45 36 45 6 0 10
6 10 13 0 6 15 29 33 49 17 20 52 61 77 92 25 30 49 55 53 56 8 0 27 16 113
98 19 17 39 32 44 32 6 0 10 4 10 9 0 5 14 14 30 21 17 7 30 16 30 20 0 4 8
10 18 14 9 3 31 15 47 25 40 26 173 91 186 91 6 0 25 6 42 14 18 7 64 21 102
30 39 9 88 22 110 28 34 9 244 33 325 37 14 0 88 -4 165 -9z m1395 -475 c7 -8
17 -15 22 -15 5 0 14 -5 21 -10 7 -6 46 -37 87 -69 41 -32 88 -70 103 -85 15
-14 30 -26 33 -26 5 0 193 -189 219 -221 11 -13 37 -45 58 -71 20 -25 37 -51
37 -57 0 -6 5 -11 10 -11 6 0 15 -10 20 -22 6 -13 24 -45 40 -73 51 -85 107
-198 115 -232 3 -18 10 -33 13 -33 8 0 28 -55 42 -110 4 -19 13 -48 18 -65 30
-86 62 -260 62 -337 0 -55 -18 -163 -37 -218 -21 -61 -21 -61 -43 -95 -11 -16
-24 -41 -30 -54 -12 -28 -153 -171 -168 -171 -6 0 -12 -3 -14 -7 -5 -12 -66
-53 -78 -53 -5 0 -10 -3 -10 -8 0 -4 -21 -18 -47 -31 -119 -59 -188 -82 -374
-126 -92 -21 -396 -21 -482 1 -135 34 -183 48 -207 60 -14 7 -43 21 -65 31
-60 28 -145 83 -145 94 0 5 -4 9 -10 9 -14 0 -39 27 -90 93 -50 66 -107 216
-154 404 -9 35 -16 77 -16 95 0 18 -5 49 -10 68 -15 52 -13 220 4 344 8 60 14
112 14 115 -1 3 4 19 10 34 7 16 12 39 12 52 0 13 4 26 9 30 5 3 13 20 16 38
4 17 13 46 20 62 7 17 21 53 31 80 19 51 96 204 153 305 17 30 36 67 42 82 14
35 27 39 96 28 32 -6 61 -10 65 -10 4 0 4 -26 0 -57 -20 -164 5 -631 38 -719
6 -14 10 -40 10 -59 0 -18 7 -46 15 -61 8 -16 15 -36 15 -44 1 -40 40 -124 60
-132 53 -20 73 27 46 107 -41 122 -65 230 -76 350 -5 50 -11 108 -14 130 -8
61 -9 334 -2 390 14 98 9 92 83 99 38 4 94 16 126 27 31 10 61 19 66 19 10 0
71 -86 71 -100 0 -5 6 -15 13 -22 17 -18 167 -324 167 -342 0 -8 4 -17 9 -20
5 -3 12 -18 16 -33 3 -16 12 -41 20 -58 23 -55 75 -268 75 -312 0 -33 8 -46
34 -60 27 -15 56 -4 57 21 3 61 -21 196 -51 291 -6 17 -19 63 -31 103 -12 39
-25 75 -30 78 -5 3 -9 12 -9 20 0 27 -137 311 -166 345 -8 8 -14 19 -14 23 0
5 -13 28 -30 53 -16 24 -30 50 -30 56 0 11 34 47 44 47 3 0 20 14 38 30 37 34
41 35 58 15z m6522 -822 c0 -21 0 -51 -1 -66 -5 -61 57 -295 82 -305 4 -2 7
-9 7 -15 0 -28 129 -197 150 -197 5 0 10 -7 10 -15 0 -8 7 -15 15 -15 8 0 15
-4 15 -8 0 -8 84 -73 110 -85 8 -4 29 -16 45 -27 68 -43 213 -106 276 -119 19
-4 41 -11 47 -15 6 -3 59 -15 119 -26 227 -41 535 -20 718 50 51 19 182 84
198 98 16 15 26 7 140 -109 140 -142 207 -216 207 -230 0 -5 4 -9 10 -9 5 0
21 -20 36 -45 14 -25 30 -45 35 -45 5 0 9 -5 9 -11 0 -6 19 -36 43 -67 24 -31
47 -64 50 -72 4 -8 13 -24 19 -34 65 -98 98 -153 98 -163 0 -7 4 -13 10 -13 5
0 13 -12 16 -27 4 -15 18 -43 31 -62 14 -20 40 -70 60 -111 48 -102 72 -152
83 -170 15 -26 40 -88 40 -98 0 -6 6 -17 13 -24 26 -27 77 -227 77 -302 0 -50
-38 -202 -68 -269 -12 -27 -36 -67 -54 -90 -32 -42 -96 -107 -104 -107 -2 0
-13 -9 -24 -20 -11 -11 -27 -20 -35 -20 -8 0 -15 -4 -15 -10 0 -5 -5 -10 -11
-10 -6 0 -25 -6 -42 -14 -109 -47 -289 -43 -442 11 -38 13 -85 29 -102 35 -18
6 -33 15 -33 20 0 4 -6 8 -13 8 -8 0 -34 11 -58 25 -68 38 -112 56 -127 53
-30 -6 -37 -34 -23 -89 21 -83 20 -265 -3 -314 -51 -112 -102 -190 -153 -235
-53 -48 -135 -110 -144 -110 -5 0 -26 -11 -47 -24 -172 -108 -551 -127 -757
-37 -66 29 -171 86 -189 103 -33 31 -71 47 -94 41 -26 -6 -25 -3 -27 -128 -1
-109 -17 -188 -52 -250 -13 -22 -27 -50 -33 -62 -5 -13 -14 -23 -20 -23 -5 0
-10 -4 -10 -10 0 -12 -68 -80 -80 -80 -6 0 -10 -5 -10 -10 0 -6 -10 -15 -22
-20 -27 -12 -61 -32 -68 -41 -18 -23 -143 -66 -245 -84 -102 -19 -160 -19
-264 0 -114 20 -208 57 -284 112 -68 50 -163 146 -172 174 -7 21 -37 33 -63
25 -19 -7 -52 -65 -52 -94 0 -42 -68 -150 -140 -222 -41 -41 -85 -81 -98 -88
-135 -75 -181 -93 -325 -123 -178 -38 -403 -9 -542 68 -22 13 -52 28 -67 34
-16 6 -28 15 -28 20 0 5 -5 9 -12 9 -20 0 -162 153 -183 197 -11 23 -28 44
-39 47 -26 7 -66 -11 -66 -28 0 -30 -44 -98 -100 -156 -31 -33 -60 -60 -64
-60 -4 0 -16 -8 -27 -18 -10 -11 -29 -24 -42 -30 -57 -28 -139 -62 -164 -68
-16 -3 -48 -13 -73 -22 -70 -25 -387 -24 -455 1 -78 29 -116 49 -165 87 -68
53 -94 93 -125 198 -14 48 -25 67 -44 77 -56 28 -84 200 -86 535 -1 124 1 279
6 345 4 66 10 170 13 230 8 153 15 256 21 285 3 14 9 79 15 145 5 66 12 131
14 145 3 14 10 80 15 146 6 67 14 130 17 139 4 10 1 21 -7 26 -11 7 -12 11 -1
17 8 6 17 46 22 106 9 96 16 132 45 231 7 28 21 79 30 115 9 36 22 85 30 110
7 25 21 81 30 125 9 44 23 107 30 140 22 100 38 231 31 259 -3 14 -17 33 -30
41 -21 14 -28 14 -46 3 -23 -14 -60 -88 -60 -120 0 -10 -6 -31 -13 -46 -8 -15
-15 -44 -16 -64 -1 -20 -8 -56 -16 -79 -8 -23 -15 -56 -15 -75 0 -18 -6 -58
-14 -88 -8 -30 -15 -78 -17 -108 -1 -29 -6 -58 -11 -64 -5 -7 -13 -50 -17 -95
-9 -91 -36 -221 -51 -250 -6 -10 -10 -27 -10 -38 0 -11 -6 -35 -14 -53 -8 -18
-22 -62 -31 -98 -9 -36 -21 -78 -26 -95 -6 -16 -14 -43 -19 -60 -24 -91 -41
-147 -64 -210 -14 -38 -26 -77 -26 -86 0 -9 -7 -30 -15 -45 -8 -16 -15 -38
-15 -49 0 -11 -6 -29 -14 -40 -7 -11 -16 -33 -18 -50 -6 -32 -23 -82 -44 -130
-7 -16 -16 -46 -20 -65 -3 -19 -10 -41 -14 -50 -8 -15 -13 -27 -70 -180 -17
-47 -38 -99 -46 -117 -8 -17 -14 -36 -14 -42 0 -10 -6 -24 -53 -131 -14 -30
-35 -80 -48 -110 -12 -30 -29 -64 -36 -75 -7 -11 -13 -27 -13 -37 0 -10 -4
-18 -8 -18 -4 0 -13 -12 -19 -27 -14 -33 -31 -59 -55 -87 -10 -11 -18 -23 -18
-28 0 -4 -6 -8 -13 -8 -22 0 -67 -44 -67 -65 0 -11 -14 -40 -31 -65 -23 -34
-47 -53 -97 -78 -122 -60 -252 -64 -417 -15 -64 19 -145 55 -145 65 0 5 -6 8
-13 8 -23 0 -124 104 -158 165 -54 94 -74 218 -48 294 17 50 -1 81 -46 81 -19
0 -35 -5 -35 -10 0 -13 -10 -26 -65 -84 -93 -98 -237 -160 -375 -160 -78 -1
-161 10 -195 24 -63 25 -136 65 -158 86 -14 13 -30 24 -34 24 -11 0 -73 92
-73 108 0 6 -4 12 -9 12 -4 0 -17 26 -27 58 -22 65 -26 223 -8 263 6 13 16 46
23 72 14 60 2 87 -37 87 -22 0 -34 -9 -57 -46 -34 -53 -107 -112 -178 -142
-63 -28 -194 -38 -272 -22 -60 12 -66 14 -123 43 -19 9 -40 17 -47 17 -7 0
-15 7 -19 15 -3 8 -12 15 -19 15 -18 0 -124 104 -132 130 -3 11 -11 20 -16 20
-5 0 -9 6 -9 13 0 6 -7 26 -16 42 -11 21 -16 60 -17 125 -2 95 4 120 54 212 5
10 9 25 9 33 0 9 7 18 15 21 8 4 12 10 9 15 -3 5 11 42 30 82 20 40 36 76 36
80 0 13 84 178 173 339 37 67 149 237 221 336 l61 83 65 -6 c35 -3 71 -11 79
-18 23 -20 431 -16 507 5 112 30 149 40 182 45 17 3 32 9 32 13 0 5 15 11 33
15 33 7 148 61 202 96 17 10 37 22 45 26 31 15 107 77 154 127 67 71 92 105
127 173 85 161 109 337 73 514 -4 19 1 28 18 37 19 9 142 54 220 79 9 2 33 -3
55 -12 56 -25 72 -32 133 -55 30 -12 70 -28 88 -36 18 -8 41 -14 50 -14 10 0
22 -4 27 -9 6 -5 26 -14 45 -19 42 -13 117 -39 145 -51 11 -5 49 -17 85 -26
36 -10 85 -24 110 -31 25 -7 72 -20 105 -29 33 -9 80 -22 105 -29 59 -19 180
-45 405 -90 44 -9 100 -21 124 -26 24 -6 75 -13 115 -16 39 -3 98 -10 131 -15
77 -13 323 -29 540 -35 144 -5 349 2 595 21 64 4 260 31 339 45 30 6 72 10 92
10 21 0 40 4 43 9 3 5 27 12 53 16 90 13 526 125 562 144 11 6 30 11 43 11 13
0 33 7 44 15 10 8 28 15 40 15 11 0 29 7 40 15 10 8 27 15 36 15 17 0 67 19
121 46 16 8 37 14 47 14 10 0 21 4 24 9 3 5 18 12 33 16 29 7 46 14 145 59 31
14 67 31 80 36 13 5 30 14 38 19 8 5 62 32 120 60 58 28 125 63 150 76 25 14
50 25 57 25 7 0 13 4 13 9 0 5 12 14 28 20 15 6 41 20 57 31 17 11 41 25 55
31 14 5 38 21 55 33 16 12 37 26 45 29 8 4 29 16 45 26 42 27 45 26 47 -16z
m-4062 -2483 c-6 -58 -15 -175 -20 -260 -5 -85 -14 -220 -21 -300 -14 -177 -5
-650 14 -765 20 -114 44 -179 83 -220 19 -21 36 -51 40 -73 4 -20 11 -43 17
-51 12 -14 31 -46 44 -71 15 -30 105 -108 156 -135 184 -97 475 -109 711 -31
43 15 88 33 99 41 12 8 28 15 35 15 19 0 142 84 189 128 21 21 52 55 70 77
l32 40 18 -25 c23 -34 155 -160 167 -160 5 0 17 -6 25 -14 48 -42 168 -90 302
-121 177 -41 493 -3 637 77 17 10 49 27 70 39 48 27 132 92 157 121 59 68 94
119 120 171 15 31 31 57 35 57 3 0 19 -14 36 -31 70 -74 215 -165 297 -184 15
-4 30 -11 33 -16 3 -5 20 -9 39 -9 19 0 45 -4 60 -10 45 -17 198 -18 284 -2
44 9 83 13 86 11 2 -3 -2 -41 -9 -85 -8 -43 -22 -135 -31 -204 -9 -69 -23
-161 -30 -205 -12 -71 -37 -246 -49 -345 -6 -46 -24 -172 -41 -285 -26 -172
-45 -330 -45 -370 0 -21 -6 -82 -14 -135 -19 -126 -36 -301 -46 -485 -5 -82
-12 -202 -16 -265 -9 -127 -8 -564 1 -656 4 -32 9 -106 12 -164 2 -58 11 -136
19 -175 8 -38 14 -83 14 -100 0 -16 7 -64 15 -105 16 -74 23 -105 51 -225 8
-33 19 -78 24 -100 14 -63 114 -343 139 -392 5 -10 21 -40 35 -68 15 -27 32
-62 37 -77 6 -16 15 -28 20 -28 5 0 9 -4 9 -9 0 -14 72 -135 82 -139 4 -2 8
-10 8 -17 0 -7 3 -15 8 -17 4 -1 20 -22 36 -45 35 -52 105 -133 198 -231 54
-57 69 -78 65 -95 -6 -27 -66 -201 -83 -242 -7 -16 -27 -77 -44 -135 -18 -58
-39 -121 -46 -140 -42 -105 -98 -287 -115 -370 -43 -210 -48 -238 -59 -325 -9
-77 -22 -213 -35 -380 -5 -64 16 -207 37 -247 18 -37 61 -68 94 -68 95 0 227
126 407 388 32 45 57 86 57 91 0 6 6 14 13 18 14 9 35 40 43 65 3 9 12 19 19
22 9 3 14 -11 18 -47 6 -67 26 -218 37 -282 39 -221 62 -329 96 -436 19 -62
18 -69 -8 -69 -23 0 -226 67 -243 80 -31 24 -164 19 -230 -9 -23 -10 -103 -30
-160 -41 -22 -4 -53 -13 -70 -18 -33 -12 -133 -32 -290 -57 -55 -9 -120 -21
-145 -26 -71 -16 -394 -42 -515 -41 -131 1 -368 20 -410 32 -16 5 -52 12 -80
15 -44 6 -217 54 -270 76 -11 4 -49 20 -85 34 -36 15 -69 31 -75 36 -5 5 -17
9 -26 9 -9 0 -22 7 -29 15 -7 8 -18 15 -25 15 -15 0 -209 128 -213 141 -2 5
-8 9 -13 9 -12 0 -17 4 -88 67 -138 122 -165 154 -183 223 -9 36 -17 77 -17
91 -1 14 -8 34 -16 45 -8 10 -15 27 -15 36 0 10 -6 32 -14 50 -8 18 -21 51
-29 73 -43 114 -53 135 -59 135 -5 0 -8 6 -8 12 0 7 -25 62 -56 123 -88 174
-114 220 -124 223 -6 2 -10 8 -10 14 0 13 -160 252 -171 256 -5 2 -9 8 -9 12
0 5 -13 24 -30 42 -16 18 -30 38 -30 46 0 7 -7 15 -15 18 -8 4 -15 10 -15 15
0 4 -15 23 -32 41 -18 18 -44 49 -58 68 -44 59 -388 400 -404 400 -3 0 -20 14
-38 31 -18 17 -52 43 -75 59 -84 57 -108 75 -111 83 -2 4 -10 7 -18 7 -8 0
-14 4 -14 9 0 5 -13 14 -30 20 -16 5 -30 15 -30 20 0 6 -9 11 -19 11 -11 0
-22 4 -26 9 -3 6 -27 20 -53 33 -26 13 -49 26 -52 29 -7 9 -216 98 -280 118
-60 20 -141 44 -208 61 -61 16 -261 31 -369 28 l-91 -2 -71 72 c-40 40 -74 72
-77 72 -3 0 -15 10 -27 23 -12 13 -44 40 -72 62 -27 21 -54 44 -60 50 -20 21
-132 104 -241 176 -139 93 -140 94 -194 121 -25 13 -47 25 -50 28 -5 6 -60 33
-210 102 -79 37 -231 98 -244 98 -5 0 -22 6 -39 14 -18 8 -43 17 -57 20 -14 2
-68 16 -120 29 -140 36 -241 57 -275 57 -16 0 -47 5 -69 11 -36 10 -48 8 -106
-15 -8 -3 -28 -15 -45 -26 -16 -11 -39 -24 -50 -29 -11 -5 -37 -21 -58 -35
-21 -14 -42 -26 -47 -26 -5 0 -15 -6 -22 -12 -7 -7 -35 -24 -61 -38 -54 -28
-69 -37 -110 -64 -34 -23 -77 -17 -308 40 -78 20 -314 19 -353 -1 -15 -8 -38
-15 -50 -15 -11 0 -30 -7 -40 -15 -27 -20 -55 -19 -112 6 -94 42 -234 148
-234 179 0 5 -4 10 -9 10 -7 0 -43 53 -104 155 -7 11 -14 22 -17 25 -3 3 -18
24 -34 48 -28 41 -140 162 -150 162 -3 0 -17 11 -32 25 -15 14 -38 31 -50 38
-82 44 -241 117 -255 117 -9 0 -68 27 -78 36 -4 4 46 54 53 54 2 0 25 20 51
45 26 24 56 47 66 50 11 4 19 11 19 16 0 5 6 9 14 9 8 0 16 3 18 8 5 12 96 82
106 82 6 0 12 3 14 8 5 11 66 52 78 52 5 0 10 4 10 9 0 5 14 14 30 21 17 7 30
16 30 21 0 5 8 9 19 9 10 0 24 7 31 15 7 8 19 15 26 15 8 0 14 3 14 8 0 4 20
18 45 31 25 13 45 27 45 31 0 5 14 13 30 19 17 5 30 15 30 20 0 6 4 11 9 11
13 0 135 73 139 82 2 5 8 8 13 8 6 0 41 20 79 45 38 25 71 45 74 45 3 0 22 12
43 26 21 14 47 30 58 35 27 12 53 28 96 62 20 15 44 27 52 27 8 0 20 7 27 15
7 8 17 15 22 15 8 0 64 36 78 50 3 3 21 14 40 24 41 23 180 111 195 123 6 5
17 12 25 16 48 24 409 264 430 287 3 3 12 10 21 15 26 16 183 128 195 140 6 5
28 24 49 40 44 34 130 110 190 167 21 21 43 38 47 38 4 0 8 5 8 10 0 6 19 29
43 53 51 49 137 151 137 161 0 4 5 12 10 19 35 41 90 123 90 134 0 7 3 13 8
13 4 0 16 19 27 43 11 23 22 44 26 47 14 12 116 239 148 330 69 196 131 524
146 770 7 111 16 147 39 162 20 14 23 9 35 -54 14 -74 39 -147 58 -169 7 -8
13 -20 13 -25 0 -5 8 -17 18 -26 9 -9 35 -35 57 -58 150 -159 435 -235 678
-181 103 23 209 106 252 198 11 24 23 43 27 43 11 0 78 69 78 80 0 6 4 10 9
10 5 0 14 12 20 28 19 44 43 87 53 90 4 2 8 10 8 19 0 8 6 27 13 41 8 15 21
43 30 62 8 19 29 65 46 103 17 37 31 71 31 76 0 5 12 35 26 67 14 31 31 74 38
93 62 171 79 221 88 251 6 19 14 40 18 45 4 6 10 21 13 35 5 25 22 76 38 115
19 45 41 112 48 145 5 19 13 46 18 60 6 14 18 50 28 80 9 30 22 69 28 85 l12
30 3 -35 c2 -19 -1 -82 -8 -140z m12865 -186 c138 -18 330 -49 395 -65 92 -22
136 -32 170 -39 72 -16 136 -33 167 -46 17 -8 40 -14 51 -14 12 0 23 -4 26 -9
4 -5 25 -12 48 -16 30 -5 52 -19 84 -52 24 -25 44 -51 44 -59 0 -8 4 -14 8
-14 14 0 262 -354 262 -374 0 -4 19 -37 43 -74 24 -37 54 -87 66 -112 12 -25
33 -63 46 -85 13 -22 24 -47 25 -56 0 -9 7 -22 15 -29 8 -7 15 -21 15 -31 0
-11 5 -19 10 -19 6 0 10 -5 10 -11 0 -6 15 -44 34 -83 19 -39 44 -99 57 -134
12 -34 26 -65 30 -68 5 -3 9 -15 9 -27 0 -12 7 -31 15 -41 8 -11 15 -28 15
-38 0 -11 9 -38 20 -60 11 -23 20 -48 20 -56 0 -8 6 -26 14 -40 7 -15 19 -47
25 -72 6 -25 25 -97 42 -160 17 -63 35 -137 40 -163 4 -26 11 -56 14 -67 11
-35 36 -185 46 -275 5 -49 14 -115 19 -145 13 -71 21 -629 11 -785 -11 -153
-28 -302 -47 -386 -8 -37 -14 -82 -14 -101 0 -19 -6 -54 -14 -79 -7 -24 -21
-80 -31 -124 -9 -44 -21 -93 -27 -110 -6 -16 -14 -48 -18 -70 -12 -59 -79
-257 -116 -342 -8 -17 -14 -36 -14 -41 0 -6 -6 -23 -14 -39 -8 -15 -25 -53
-37 -83 -12 -30 -37 -89 -56 -130 -19 -41 -39 -84 -44 -95 -5 -11 -13 -27 -18
-35 -5 -8 -19 -36 -31 -62 -12 -27 -26 -50 -31 -54 -5 -3 -9 -12 -9 -20 0 -12
-32 -66 -50 -84 -11 -11 -43 -81 -43 -95 0 -8 -4 -12 -9 -9 -4 3 -11 -3 -15
-13 -4 -9 -33 -57 -65 -104 -32 -48 -58 -92 -58 -98 0 -6 -4 -11 -9 -11 -5 0
-23 -21 -39 -47 -26 -44 -76 -110 -117 -155 -8 -10 -15 -22 -15 -27 0 -5 -4
-11 -9 -13 -4 -1 -35 -34 -67 -73 -132 -157 -463 -486 -546 -543 -13 -9 -27
-21 -33 -28 -14 -16 -204 -158 -232 -172 -12 -7 -27 -18 -35 -25 -26 -25 -115
-85 -136 -91 -12 -4 -22 -12 -22 -17 0 -5 -6 -9 -14 -9 -8 0 -16 -3 -18 -8 -4
-9 -126 -82 -137 -82 -5 0 -14 -6 -21 -14 -12 -16 -339 -179 -380 -191 -14 -4
-34 -13 -45 -20 -11 -6 -38 -18 -60 -25 -22 -7 -44 -16 -50 -20 -9 -6 -54 -23
-220 -81 -29 -10 -104 -33 -210 -64 -143 -43 -364 -89 -500 -105 -38 -4 -101
-13 -140 -19 -162 -24 -524 -38 -670 -25 -22 2 -105 8 -185 13 -278 19 -513
62 -855 157 -27 7 -61 16 -75 20 -14 3 -39 12 -57 20 -17 8 -35 14 -40 14 -13
0 -73 66 -73 80 0 5 -4 10 -9 10 -5 0 -22 20 -38 45 -15 25 -31 45 -35 45 -5
0 -8 6 -8 13 0 7 -10 24 -22 37 -34 38 -68 88 -68 100 0 5 -5 10 -10 10 -6 0
-15 10 -20 23 -6 12 -18 34 -28 49 -45 70 -92 150 -92 158 0 5 -4 10 -8 12
-14 5 -202 361 -202 381 0 3 -13 34 -28 69 -16 35 -37 83 -47 108 -10 25 -24
59 -31 75 -7 17 -16 42 -19 58 -4 15 -11 30 -16 33 -5 3 -9 14 -9 26 0 11 -6
34 -13 51 -20 47 -62 189 -92 307 -9 36 -23 87 -31 114 -8 26 -14 58 -14 69 0
12 -7 55 -15 97 -52 271 -70 479 -70 810 0 183 6 319 18 440 10 96 21 178 23
182 3 4 9 42 15 85 5 43 18 116 30 163 11 47 24 108 29 135 5 28 19 82 30 120
12 39 25 84 29 101 32 121 106 333 161 459 12 28 26 59 30 70 19 46 183 372
200 400 11 17 25 42 31 58 6 15 15 27 20 27 5 0 9 5 9 10 0 9 35 65 50 80 3 3
14 23 25 45 19 38 117 180 150 218 8 9 15 19 15 22 0 5 84 117 116 155 12 14
41 48 64 75 73 87 202 225 300 320 141 137 160 155 166 155 3 0 23 17 45 38
23 20 48 41 57 46 10 5 22 15 27 21 12 14 292 225 299 225 3 0 34 20 70 45 37
25 71 45 76 45 6 0 10 4 10 8 0 5 15 16 33 25 17 9 64 34 102 57 73 42 314
162 400 200 53 23 65 28 135 55 25 9 56 22 70 27 14 6 59 21 100 34 41 14 84
28 95 33 11 4 47 16 80 26 33 9 74 22 90 27 17 6 48 14 70 18 22 4 76 17 121
29 78 20 126 29 284 51 41 6 107 16 145 22 187 29 760 31 980 2z m-5996 -66
c13 -29 43 -95 67 -146 24 -51 44 -97 44 -101 0 -7 14 -42 52 -131 48 -113 66
-159 73 -197 4 -18 11 -33 16 -33 5 0 9 -8 9 -17 0 -22 28 -109 46 -145 8 -14
14 -35 14 -47 0 -11 6 -35 14 -53 14 -32 60 -183 85 -278 6 -25 19 -70 27
-100 9 -30 19 -75 23 -100 5 -25 13 -58 19 -75 5 -16 18 -66 27 -110 10 -44
24 -107 31 -141 8 -33 14 -72 14 -85 0 -14 6 -48 14 -75 8 -27 17 -74 19 -104
3 -30 10 -80 16 -110 11 -62 38 -282 46 -380 3 -36 8 -77 10 -90 19 -90 35
-708 24 -900 -4 -74 -10 -189 -13 -255 -4 -66 -10 -145 -15 -175 -5 -30 -10
-77 -10 -105 -1 -27 -8 -90 -16 -140 -38 -223 -47 -274 -61 -340 -8 -38 -20
-83 -26 -100 -5 -16 -14 -50 -18 -75 -12 -63 -30 -129 -46 -168 -8 -18 -14
-41 -14 -52 0 -11 -6 -34 -14 -52 -7 -18 -22 -60 -32 -93 -10 -33 -24 -71 -31
-85 -7 -14 -13 -29 -13 -33 0 -10 -21 -58 -94 -220 -20 -43 -36 -82 -36 -87 0
-6 -4 -10 -10 -10 -5 0 -10 -5 -10 -11 0 -7 -13 -34 -30 -61 -16 -26 -30 -53
-30 -59 0 -5 -5 -15 -10 -22 -6 -7 -33 -48 -61 -92 -45 -70 -132 -190 -149
-205 -3 -3 -18 -23 -34 -45 -38 -52 -217 -227 -273 -267 -24 -17 -43 -35 -43
-40 0 -4 -6 -8 -14 -8 -8 0 -16 -3 -18 -8 -5 -12 -103 -79 -126 -86 -12 -4
-22 -12 -22 -17 0 -5 -5 -9 -11 -9 -6 0 -31 -13 -56 -30 -24 -16 -48 -30 -52
-30 -4 0 -22 -7 -40 -16 -37 -18 -47 -14 -32 13 55 92 152 483 131 523 -24 45
-90 8 -90 -50 0 -15 -6 -49 -14 -76 -7 -27 -21 -83 -31 -124 -53 -237 -125
-336 -290 -399 -33 -12 -68 -26 -77 -31 -43 -24 -223 -51 -368 -57 -139 -5
-318 5 -390 23 -14 3 -45 10 -69 15 -25 5 -47 12 -50 17 -4 4 -19 14 -34 22
-16 8 -44 29 -64 47 -19 18 -39 33 -44 33 -5 0 -9 7 -9 15 0 8 -4 15 -8 15
-13 0 -68 90 -87 140 -35 93 -54 222 -55 356 l0 132 -25 6 c-14 4 -34 2 -45
-4 -19 -10 -20 -21 -20 -153 1 -186 36 -350 95 -447 12 -19 24 -43 28 -53 6
-15 3 -17 -16 -11 -12 3 -34 13 -49 20 -15 8 -34 14 -43 14 -8 0 -15 4 -15 9
0 5 -10 13 -22 17 -39 11 -198 152 -198 174 0 6 -7 10 -15 10 -8 0 -15 6 -15
14 0 8 -4 16 -8 18 -23 9 -202 263 -202 286 0 7 -3 12 -8 12 -4 0 -18 24 -31
53 -13 28 -36 79 -52 112 -53 114 -77 170 -83 195 -4 14 -13 41 -21 60 -7 19
-21 62 -30 95 -9 33 -23 83 -30 110 -92 332 -133 755 -121 1233 9 371 14 471
26 577 6 50 15 137 20 195 14 148 35 338 60 530 12 91 25 197 30 235 4 39 12
97 18 130 16 88 32 198 42 295 5 47 14 101 19 120 6 19 11 51 11 70 0 19 7 71
14 115 24 130 39 226 45 290 l6 60 70 37 c39 20 77 40 85 44 17 9 47 34 107
88 97 87 183 274 183 397 0 37 2 40 23 33 12 -3 42 -18 67 -33 80 -47 177 -78
300 -96 187 -28 386 -9 525 50 84 36 171 81 178 93 4 6 13 12 20 12 7 0 26 14
44 30 18 17 34 30 37 30 12 0 90 87 126 140 75 111 102 196 106 333 2 61 6
112 8 114 2 3 28 -7 58 -20 256 -118 466 -139 665 -66 57 20 90 37 111 57 7 6
17 12 22 12 15 0 113 104 150 158 19 29 37 52 40 52 3 0 16 -24 29 -52z m7117
-203 c10 -8 27 -15 37 -15 10 0 59 -20 109 -45 50 -25 97 -45 104 -45 7 0 19
-6 26 -12 7 -7 60 -37 118 -66 58 -29 132 -68 165 -87 33 -19 67 -38 75 -42
23 -10 75 -47 78 -55 2 -5 8 -8 14 -8 6 0 27 -13 48 -30 21 -16 41 -30 45 -30
4 0 24 -13 45 -30 21 -16 43 -30 49 -30 6 0 11 -4 11 -9 0 -5 20 -22 45 -38
25 -15 45 -31 45 -35 0 -5 5 -8 10 -8 6 0 21 -10 33 -23 12 -12 41 -35 65 -51
23 -16 42 -33 42 -37 0 -5 4 -9 9 -9 6 0 30 -19 54 -42 25 -24 82 -77 128
-118 98 -89 109 -100 208 -209 42 -47 91 -99 109 -117 17 -17 32 -36 32 -43 0
-6 4 -11 9 -11 4 0 28 -27 52 -60 24 -33 47 -60 51 -60 5 0 8 -7 8 -15 0 -8 4
-15 8 -15 10 0 82 -96 82 -110 0 -5 4 -10 8 -10 8 0 126 -176 144 -216 6 -13
15 -24 20 -24 4 0 8 -7 8 -15 0 -8 4 -15 9 -15 5 0 14 -12 20 -27 15 -36 42
-87 50 -93 3 -3 15 -23 26 -45 11 -22 26 -46 33 -53 6 -7 12 -19 12 -27 0 -16
32 -79 43 -83 4 -2 7 -8 7 -12 0 -5 18 -47 40 -94 22 -47 40 -90 40 -95 0 -6
5 -11 10 -11 6 0 10 -11 10 -24 0 -13 7 -29 15 -36 8 -7 15 -22 15 -34 0 -11
7 -30 15 -40 8 -11 15 -28 15 -38 0 -9 6 -32 14 -50 40 -95 106 -295 106 -323
0 -9 6 -31 14 -48 15 -33 18 -45 37 -137 6 -30 17 -80 24 -110 64 -261 89
-522 89 -915 0 -312 -7 -455 -30 -579 -8 -43 -14 -92 -14 -109 0 -17 -4 -44
-9 -61 -6 -17 -17 -67 -25 -111 -9 -44 -22 -109 -31 -145 -8 -36 -20 -90 -26
-120 -6 -30 -15 -59 -20 -65 -5 -5 -9 -16 -9 -25 0 -17 -57 -195 -90 -280 -12
-30 -26 -68 -31 -85 -9 -29 -13 -38 -63 -146 -14 -31 -26 -60 -26 -65 0 -12
-150 -309 -181 -359 -14 -22 -29 -47 -33 -55 -25 -53 -128 -210 -138 -210 -4
0 -8 -4 -8 -10 0 -14 -129 -202 -142 -208 -5 -2 -8 -7 -8 -12 0 -9 -24 -39
-82 -102 -21 -23 -38 -47 -38 -55 0 -7 -6 -13 -14 -13 -8 0 -16 -4 -18 -9 -15
-43 -473 -501 -500 -501 -4 0 -8 -4 -8 -9 0 -4 -19 -21 -42 -36 -24 -16 -53
-39 -65 -52 -12 -12 -24 -23 -27 -23 -3 0 -14 -6 -23 -14 -53 -44 -185 -136
-193 -136 -6 0 -10 -4 -10 -8 0 -5 -10 -14 -22 -21 -27 -14 -48 -27 -103 -62
-22 -14 -71 -43 -110 -64 -38 -21 -72 -41 -75 -45 -3 -4 -77 -41 -165 -84 -88
-42 -173 -83 -188 -91 -16 -8 -37 -15 -48 -15 -10 0 -19 -4 -19 -9 0 -5 -10
-12 -22 -16 -31 -8 -99 -35 -123 -48 -11 -5 -33 -14 -50 -18 -32 -8 -107 -34
-140 -48 -11 -5 -47 -17 -80 -26 -33 -10 -71 -21 -85 -26 -14 -4 -65 -17 -115
-29 -49 -12 -115 -27 -145 -35 -53 -13 -145 -30 -338 -60 -50 -8 -116 -15
-145 -15 -28 0 -81 -5 -117 -10 -123 -18 -343 -22 -515 -10 -300 22 -369 28
-430 39 -33 6 -87 16 -120 22 -33 6 -82 14 -110 19 -27 4 -72 13 -100 20 -167
42 -273 70 -320 85 -22 7 -67 21 -100 31 -33 10 -64 21 -70 25 -5 4 -41 19
-80 32 -113 41 -169 63 -221 87 -52 23 -99 44 -124 54 -8 3 -23 10 -32 16 -36
20 -54 30 -108 55 -30 14 -57 29 -60 33 -3 4 -25 17 -50 30 -47 24 -58 30
-125 72 -22 14 -52 31 -67 39 -15 8 -37 22 -47 33 -11 10 -23 18 -26 18 -8 0
-69 44 -73 53 -2 4 -8 7 -13 7 -5 0 -17 7 -26 15 -10 9 -64 49 -120 90 -57 41
-111 83 -122 92 -10 10 -33 29 -52 43 -72 55 -389 364 -389 380 0 13 3 12 37
-1 15 -7 46 -15 68 -20 70 -14 139 -30 189 -45 26 -8 61 -14 77 -14 16 0 55
-6 87 -14 81 -21 184 -36 277 -42 44 -2 122 -9 174 -14 121 -13 565 -13 611 0
19 5 74 10 122 10 48 0 98 4 111 9 14 6 56 13 94 16 37 3 96 12 131 20 35 8
76 15 92 15 16 0 47 6 67 14 21 7 72 21 113 30 122 27 433 121 510 153 19 8
49 21 65 28 17 7 50 21 75 30 121 47 421 195 515 255 17 11 45 27 63 36 17 9
32 20 32 25 0 5 5 9 12 9 11 0 318 201 341 224 6 7 50 43 97 81 47 37 87 72
88 77 2 4 8 8 13 8 6 0 20 11 32 24 12 13 42 40 67 61 118 97 400 390 400 415
0 6 7 10 15 10 8 0 15 7 15 15 0 8 4 15 8 15 5 0 28 27 52 60 24 33 47 60 52
60 4 0 8 5 8 10 0 6 5 16 11 23 5 7 35 46 64 87 30 41 59 80 65 87 5 7 10 15
10 18 0 3 9 14 20 25 11 11 20 27 20 35 0 8 5 15 10 15 6 0 10 7 10 15 0 8 4
15 10 15 5 0 12 11 16 25 3 14 12 29 18 33 7 4 23 29 37 55 25 50 37 72 69
122 18 28 137 266 165 330 8 17 28 59 45 95 18 36 36 76 40 90 5 14 18 50 29
80 46 118 106 311 136 430 9 36 22 88 30 115 7 28 21 93 30 145 9 52 23 127
30 165 62 314 76 926 29 1270 -17 125 -41 276 -56 350 -6 28 -14 68 -18 90
-11 55 -37 160 -54 220 -8 28 -21 75 -29 105 -15 54 -98 295 -116 335 -5 11
-21 49 -36 85 -60 143 -172 379 -184 390 -3 3 -22 37 -41 75 -19 39 -37 72
-40 75 -12 12 -80 129 -80 138 0 6 -3 12 -7 14 -10 4 -53 65 -53 74 0 3 -13
23 -30 44 -16 21 -30 42 -30 48 0 6 -3 12 -8 14 -8 4 -74 94 -91 126 -14 25
-3 28 25 7z m-17362 -174 c9 -14 135 -49 221 -60 97 -13 199 2 289 43 83 37
86 36 86 -31 0 -55 19 -138 45 -198 7 -16 16 -37 19 -45 12 -31 33 -57 91
-115 74 -73 96 -87 230 -145 66 -29 255 -36 373 -14 l33 6 -6 -78 c-4 -44 -11
-104 -17 -134 -5 -30 -13 -84 -18 -120 -4 -36 -15 -99 -23 -140 -15 -71 -19
-88 -47 -170 -7 -19 -16 -51 -20 -70 -12 -49 -40 -123 -51 -134 -5 -6 -9 -16
-9 -24 0 -17 -90 -202 -107 -220 -7 -7 -13 -18 -13 -23 0 -12 -131 -203 -142
-207 -4 -2 -8 -8 -8 -14 0 -10 -258 -270 -324 -326 -21 -17 -51 -40 -67 -49
-16 -10 -29 -21 -29 -25 0 -4 -7 -8 -15 -8 -8 0 -15 -4 -15 -9 0 -5 -20 -22
-45 -38 -25 -15 -45 -31 -45 -35 0 -5 -7 -8 -15 -8 -8 0 -15 -4 -15 -8 0 -5
-40 -34 -90 -66 -49 -32 -90 -62 -90 -67 0 -5 -5 -9 -10 -9 -12 0 -73 -41 -78
-52 -2 -5 -8 -8 -13 -8 -5 0 -54 -29 -109 -65 -55 -36 -104 -65 -110 -65 -5 0
-10 -4 -10 -10 0 -5 -5 -10 -11 -10 -5 0 -41 -20 -79 -45 -38 -25 -74 -45 -79
-45 -6 0 -11 -5 -11 -10 0 -6 -10 -15 -22 -20 -13 -6 -36 -19 -53 -30 -16 -11
-37 -23 -45 -27 -8 -4 -33 -19 -54 -35 -21 -15 -43 -28 -48 -28 -5 0 -29 -13
-53 -30 -24 -16 -47 -30 -51 -30 -4 0 -16 -8 -26 -17 -11 -10 -22 -13 -26 -7
-12 13 14 379 33 489 2 11 7 45 10 75 6 56 27 185 47 295 6 33 14 85 17 115 4
30 10 60 14 67 4 6 11 37 17 70 7 47 26 135 44 208 2 6 6 28 10 50 4 22 13 63
21 90 22 76 56 213 69 280 7 33 18 76 24 95 6 19 18 62 27 95 9 33 21 74 26
92 6 17 23 80 39 140 15 59 36 133 45 163 9 30 20 73 24 95 4 22 13 51 19 65
6 14 18 57 27 95 9 39 20 77 25 86 8 15 35 112 50 179 4 19 14 51 20 70 20 56
38 113 44 143 5 20 12 27 31 27 13 0 26 -4 29 -9z m-2689 -4031 c127 -33 295
-103 345 -145 8 -7 25 -16 38 -19 12 -4 22 -12 22 -17 0 -5 6 -9 14 -9 8 0 16
-3 18 -7 2 -5 22 -21 46 -37 23 -16 42 -33 42 -37 0 -5 4 -9 9 -9 21 0 231
-203 311 -300 19 -24 40 -48 45 -54 6 -6 24 -29 40 -51 17 -22 33 -42 36 -45
9 -7 144 -210 159 -240 7 -14 16 -27 19 -30 3 -3 15 -23 26 -45 11 -22 23 -42
26 -45 4 -3 18 -28 32 -57 15 -28 31 -54 36 -57 5 -4 12 -20 16 -36 4 -17 11
-30 16 -30 5 0 9 -8 9 -17 0 -10 13 -40 28 -68 l27 -50 -26 -55 c-24 -52 -74
-204 -105 -315 -14 -51 -33 -164 -55 -315 -20 -139 -23 -545 -5 -680 8 -63 18
-143 21 -177 3 -35 10 -75 15 -90 5 -16 11 -50 13 -78 2 -27 10 -72 17 -100 6
-27 18 -75 25 -105 7 -30 18 -75 25 -100 6 -25 15 -63 20 -85 13 -58 125 -394
149 -446 19 -42 42 -103 61 -160 5 -18 4 -34 -6 -50 -7 -13 -16 -31 -20 -39
-4 -8 -11 -17 -14 -20 -4 -3 -11 -12 -16 -21 -12 -21 -81 -104 -115 -138 -58
-57 -152 -126 -214 -155 -22 -10 -52 -25 -67 -32 -14 -8 -37 -14 -50 -14 -12
0 -43 -6 -68 -14 -25 -7 -72 -14 -105 -15 -67 -2 -222 24 -273 45 -18 8 -40
14 -48 14 -17 0 -201 89 -249 120 -16 11 -40 25 -52 31 -13 7 -23 16 -23 21 0
4 -7 8 -15 8 -8 0 -15 4 -15 8 0 5 -21 23 -47 39 -27 17 -67 49 -90 70 -22 21
-57 52 -77 70 -20 17 -36 36 -36 42 0 6 -7 11 -15 11 -8 0 -15 3 -15 8 0 4
-17 25 -38 47 -104 109 -352 440 -352 470 0 5 -39 64 -50 75 -3 3 -27 50 -55
105 -27 55 -53 102 -57 103 -5 2 -8 8 -8 14 0 6 -16 45 -36 87 -19 42 -41 90
-48 106 -7 17 -18 41 -24 55 -46 105 -112 295 -159 460 -9 30 -22 73 -29 95
-6 22 -20 78 -29 125 -9 47 -21 103 -27 125 -5 22 -14 74 -19 115 -5 41 -12
82 -15 90 -3 8 -10 56 -14 105 -5 50 -14 128 -19 175 -14 109 -14 413 -1 510
5 41 14 113 20 160 11 101 36 236 46 252 4 6 11 28 15 47 7 34 13 54 46 146
18 48 40 100 59 137 8 14 14 33 14 42 0 9 4 16 9 16 5 0 15 12 22 28 30 58 71
122 80 122 5 0 9 5 9 11 0 12 153 169 164 169 7 0 67 40 76 51 13 14 112 55
185 76 66 19 99 22 190 19 61 -2 133 -9 160 -16z m425 -3 c89 -18 158 -35 219
-53 25 -8 55 -14 68 -14 13 0 23 -4 23 -9 0 -5 12 -12 28 -15 105 -26 479
-194 557 -251 17 -12 37 -24 46 -28 9 -3 30 -23 45 -44 16 -21 32 -39 37 -41
4 -2 7 -8 7 -13 0 -5 12 -28 27 -52 15 -23 35 -56 44 -72 41 -75 158 -196 240
-247 38 -23 69 -48 69 -53 0 -6 -25 -24 -55 -39 -30 -16 -63 -37 -74 -48 -11
-10 -24 -18 -28 -18 -12 0 -223 -220 -223 -234 -1 -12 -39 -61 -44 -55 -1 2
-19 36 -39 74 -19 39 -47 90 -61 115 -14 25 -31 57 -37 73 -6 15 -15 27 -20
27 -5 0 -9 7 -9 15 0 8 -4 15 -8 15 -5 0 -14 12 -21 27 -19 41 -134 213 -143
213 -4 0 -8 5 -8 11 0 9 -81 122 -100 139 -3 3 -23 28 -44 55 -22 28 -66 76
-98 108 -32 31 -58 62 -58 67 0 6 -3 10 -7 10 -5 0 -39 30 -78 66 -38 36 -82
72 -97 80 -16 8 -28 19 -28 24 0 6 -5 10 -10 10 -6 0 -20 8 -31 18 -10 11 -32
25 -47 33 -15 8 -31 19 -37 25 -5 7 -37 27 -70 45 -33 18 -71 39 -85 46 -23
13 -22 14 25 10 28 -3 84 -11 125 -20z m13504 -399 c18 -159 36 -274 61 -393
32 -149 36 -171 44 -205 20 -86 34 -138 46 -170 7 -19 23 -69 35 -110 12 -41
26 -79 31 -85 5 -5 9 -18 9 -28 0 -10 6 -33 14 -50 7 -18 20 -50 29 -72 36
-97 52 -134 79 -195 17 -36 39 -85 50 -110 11 -25 31 -67 44 -93 13 -27 24
-55 24 -63 0 -8 4 -14 9 -14 5 0 13 -10 17 -22 3 -13 12 -30 19 -38 7 -8 27
-44 46 -80 19 -36 53 -94 76 -130 24 -36 43 -68 43 -73 0 -4 14 -26 30 -49 17
-22 30 -47 30 -53 0 -7 7 -15 15 -19 8 -3 15 -10 15 -16 0 -11 200 -281 231
-312 10 -10 23 -25 31 -35 7 -10 29 -26 48 -37 19 -10 40 -25 46 -33 15 -18
92 -102 163 -178 70 -75 208 -205 280 -265 30 -25 73 -61 95 -80 65 -57 274
-210 286 -210 6 0 13 -7 16 -15 4 -8 10 -15 15 -15 12 0 73 -42 77 -52 2 -5
10 -8 18 -8 8 0 14 -4 14 -10 0 -5 11 -12 25 -16 14 -3 29 -11 33 -18 7 -11
62 -45 117 -72 17 -8 57 -30 90 -49 65 -37 230 -120 310 -155 28 -12 75 -33
105 -47 30 -13 68 -30 83 -38 16 -8 36 -15 46 -15 9 0 21 -4 27 -9 9 -8 48
-22 229 -80 122 -39 291 -87 335 -95 14 -2 67 -13 118 -25 52 -11 128 -25 170
-31 42 -5 88 -12 102 -16 14 -3 52 -8 85 -11 33 -3 78 -9 100 -15 53 -14 769
-20 865 -7 41 5 120 14 175 19 55 5 125 15 155 20 30 6 91 18 135 26 44 8 100
20 125 26 25 6 67 14 94 19 27 5 54 13 60 19 5 5 23 10 39 10 15 0 67 13 115
29 48 16 104 32 125 35 20 4 37 11 37 16 0 6 10 10 23 10 12 0 35 7 51 15 15
8 36 15 45 15 10 0 26 7 37 15 10 8 28 15 40 15 11 0 29 7 40 15 10 8 27 15
37 15 10 0 41 13 70 29 29 15 64 31 80 35 15 3 27 11 27 16 0 6 8 10 18 10 16
0 66 22 112 49 8 5 38 20 65 33 28 12 52 25 55 28 3 3 36 21 75 40 38 19 76
40 82 47 7 6 22 15 33 18 11 3 20 11 20 16 0 5 6 9 13 9 7 0 42 20 77 45 35
25 69 45 76 45 6 0 14 7 18 15 3 8 10 15 16 15 10 0 324 231 340 249 3 4 34
31 70 61 36 29 77 67 92 82 15 15 32 28 37 28 6 0 11 7 11 15 0 8 4 15 10 15
12 0 200 190 200 202 0 4 7 8 15 8 8 0 15 5 15 11 0 5 13 22 28 37 15 15 53
56 82 92 30 36 57 67 61 70 3 3 29 37 58 75 30 39 57 72 62 73 5 2 9 8 9 13 0
6 9 20 21 32 12 12 42 54 67 92 25 39 49 72 52 75 4 3 10 12 13 20 4 8 16 29
27 45 11 17 23 37 27 45 3 8 9 17 13 20 6 5 80 129 80 135 0 2 20 38 45 79 25
42 45 81 45 86 0 5 14 32 30 60 17 28 30 57 30 64 0 8 7 19 15 26 8 7 15 21
15 31 0 10 4 20 9 24 5 3 12 19 16 35 5 25 11 30 36 30 16 0 29 -4 29 -10 0
-5 5 -10 12 -10 20 0 280 -134 285 -147 3 -7 13 -13 22 -13 27 0 341 -214 341
-232 0 -5 5 -8 10 -8 6 0 18 -8 28 -17 10 -10 45 -43 78 -75 65 -62 94 -94 94
-106 0 -4 14 -22 30 -41 17 -18 30 -39 30 -45 0 -7 5 -17 12 -24 28 -28 68
-174 68 -249 0 -120 -69 -277 -169 -386 -67 -74 -159 -159 -183 -173 -16 -8
-28 -19 -28 -24 0 -6 -7 -10 -15 -10 -8 0 -15 -4 -15 -8 0 -5 -52 -42 -115
-83 -158 -102 -168 -108 -185 -115 -48 -20 -146 -71 -158 -81 -7 -7 -18 -13
-23 -13 -5 0 -52 -20 -105 -45 -52 -25 -98 -45 -101 -45 -3 0 -33 -13 -67 -29
-33 -16 -81 -36 -106 -46 -25 -10 -58 -23 -75 -30 -16 -7 -61 -23 -100 -36
-38 -13 -71 -27 -73 -31 -2 -4 -12 -8 -22 -8 -11 0 -34 -6 -52 -14 -64 -27
-114 -45 -263 -91 -82 -26 -168 -53 -190 -60 -53 -17 -222 -68 -315 -94 -41
-12 -88 -26 -105 -31 -16 -5 -70 -18 -120 -30 -49 -12 -103 -25 -120 -30 -16
-6 -88 -23 -160 -40 -71 -17 -152 -37 -179 -45 -26 -8 -58 -15 -69 -15 -11 0
-43 -7 -71 -15 -28 -8 -87 -21 -131 -30 -44 -9 -98 -21 -120 -27 -55 -15 -451
-97 -500 -104 -22 -3 -65 -12 -95 -20 -30 -8 -72 -14 -95 -14 -22 -1 -58 -7
-80 -15 -22 -8 -51 -15 -65 -15 -27 0 -152 -23 -247 -45 -34 -8 -77 -15 -96
-15 -18 0 -56 -7 -83 -15 -27 -8 -67 -15 -89 -15 -22 0 -69 -6 -105 -15 -36
-8 -117 -21 -180 -30 -63 -9 -142 -21 -175 -27 -33 -5 -87 -14 -120 -18 -33
-4 -81 -13 -107 -19 -26 -6 -81 -11 -123 -12 -41 -1 -77 -5 -80 -9 -3 -4 -33
-11 -67 -14 -35 -4 -106 -13 -158 -21 -104 -16 -231 -32 -355 -45 -44 -5 -104
-13 -134 -19 -29 -6 -77 -11 -105 -11 -28 0 -66 -4 -84 -10 -19 -5 -77 -12
-130 -15 -54 -4 -135 -13 -181 -21 -46 -8 -102 -14 -124 -14 -23 0 -84 -6
-137 -14 -91 -14 -217 -27 -435 -46 -55 -5 -145 -14 -200 -19 -55 -6 -181 -17
-280 -26 -99 -8 -232 -20 -295 -26 -63 -5 -181 -14 -261 -19 -80 -5 -182 -13
-225 -19 -43 -6 -131 -12 -194 -15 -63 -3 -124 -7 -135 -9 -19 -4 -104 -10
-340 -23 -60 -3 -126 -8 -145 -9 -19 -2 -105 -6 -190 -10 -288 -11 -335 -14
-360 -20 -14 -3 -81 -7 -150 -10 -205 -8 -365 -19 -365 -24 0 -1 -85 -3 -190
-6 -104 -2 -255 -7 -335 -10 -80 -3 -212 -7 -295 -10 -82 -3 -197 -8 -255 -10
-58 -2 -310 -7 -560 -10 -250 -4 -534 -8 -630 -10 -213 -6 -2331 -5 -2415 0
-33 2 -231 6 -440 9 -344 6 -614 13 -735 21 -25 1 -121 5 -215 9 -427 16 -492
18 -525 22 -19 1 -107 6 -195 9 -88 3 -218 10 -290 15 -71 5 -186 12 -255 15
-271 12 -350 16 -465 25 -66 5 -160 11 -209 14 -48 3 -91 7 -94 10 -2 3 8 10
24 16 16 5 37 15 46 20 10 6 24 10 31 10 7 0 40 14 72 30 32 17 64 30 71 30 7
0 25 6 41 14 42 22 100 46 110 46 4 0 35 14 67 30 32 17 64 30 71 30 11 0 64
21 170 69 22 10 67 29 100 41 33 13 65 26 70 30 6 4 33 15 60 24 28 10 78 31
113 47 34 16 66 29 71 29 5 0 22 7 38 15 15 8 71 31 123 51 52 20 99 40 104
45 6 5 18 9 27 9 10 0 30 6 46 14 15 8 46 22 68 31 22 10 53 24 68 31 16 8 37
14 47 14 10 0 20 3 22 8 4 10 109 52 131 52 9 0 17 4 17 10 0 5 12 13 28 16
15 4 38 13 52 20 36 19 250 102 283 109 15 4 27 11 27 16 0 5 7 9 15 9 8 0 31
7 52 16 21 9 52 23 68 29 17 7 60 27 97 44 37 17 72 31 76 31 9 0 141 54 174
71 29 15 41 11 83 -29 23 -20 73 -62 113 -92 40 -30 72 -58 72 -62 0 -5 4 -8
10 -8 5 0 40 -19 77 -42 38 -24 77 -49 88 -55 11 -7 54 -29 95 -49 41 -20 86
-42 100 -49 29 -14 178 -65 260 -88 316 -90 740 -112 1165 -61 166 20 364 53
387 65 9 5 29 9 44 9 15 0 53 7 83 15 31 8 103 26 161 40 58 14 120 30 139 35
33 8 72 0 151 -33 34 -14 39 -15 85 -25 22 -5 50 -14 62 -20 12 -7 32 -12 45
-12 22 -1 58 -21 58 -34 0 -3 21 -36 46 -73 87 -128 182 -204 329 -263 55 -22
179 -25 253 -5 37 10 77 24 89 31 12 8 27 14 32 14 14 0 101 59 135 92 17 15
36 28 43 28 7 0 13 4 13 8 0 5 89 12 198 15 108 4 217 12 242 18 25 6 65 15
90 19 113 23 233 58 272 80 10 6 22 10 28 10 5 0 38 13 72 29 35 16 73 32 86
36 12 3 22 10 22 13 0 4 20 16 45 27 25 11 45 23 45 28 0 4 10 12 23 17 23 10
58 31 67 40 3 3 24 18 48 34 23 16 42 33 42 37 0 5 5 9 11 9 10 0 108 81 183
152 17 16 33 28 38 28 4 0 8 5 8 10 0 6 26 36 58 68 71 72 182 197 182 206 0
4 10 17 23 29 13 12 48 53 78 92 30 38 63 79 75 90 11 11 31 36 44 55 13 19
34 46 47 59 26 27 28 37 43 241 16 228 18 268 25 700 6 344 -7 1103 -20 1195
-2 17 -7 73 -10 125 -9 160 -35 458 -51 585 -8 66 -14 145 -15 175 0 30 -6 89
-14 130 -7 41 -11 78 -8 83 2 4 41 7 87 7 l82 0 18 -152z m-414 -258 c5 -36
12 -108 15 -160 3 -52 10 -124 15 -160 5 -36 10 -112 11 -170 1 -58 5 -130 10
-160 13 -90 32 -633 33 -930 0 -206 -14 -800 -21 -875 -4 -38 -6 -73 -5 -76 1
-4 -3 -46 -8 -93 -7 -58 -16 -92 -28 -104 -9 -10 -30 -35 -47 -57 -16 -21 -49
-58 -72 -82 -24 -24 -43 -47 -43 -51 0 -9 -90 -114 -107 -125 -7 -4 -13 -13
-13 -18 0 -17 -298 -310 -367 -362 -34 -26 -66 -47 -71 -47 -5 0 -12 -6 -15
-12 -3 -7 -22 -22 -43 -33 -22 -11 -45 -26 -52 -32 -7 -7 -19 -13 -26 -13 -8
0 -19 -7 -26 -15 -7 -8 -20 -15 -30 -15 -10 0 -23 -7 -30 -15 -7 -8 -22 -15
-34 -15 -12 0 -27 -5 -32 -10 -13 -13 -165 -65 -252 -86 -135 -32 -429 -60
-448 -42 -3 3 5 23 19 45 13 21 26 45 30 53 4 8 11 22 16 30 29 47 101 208
101 227 0 12 4 24 9 27 9 6 39 96 64 191 44 170 74 416 63 517 -4 34 -11 232
-16 438 -6 206 -13 457 -16 557 -6 173 -5 183 12 188 11 4 33 12 49 20 17 7
48 21 70 31 33 14 136 71 234 129 40 24 191 140 191 147 0 4 5 8 11 8 12 0
219 207 259 259 14 18 38 47 53 64 29 34 165 234 187 277 7 14 16 27 19 30 3
3 15 23 26 45 11 22 22 42 25 45 5 5 13 21 84 171 25 53 46 100 46 103 0 4 9
26 19 49 11 24 23 55 26 70 4 15 11 30 16 33 5 3 9 15 9 28 0 12 7 31 15 42 8
10 15 27 15 36 0 9 6 29 13 45 12 27 12 26 20 -27 4 -30 12 -84 17 -120z
m-10050 -54 c267 -66 332 -84 415 -117 11 -4 43 -17 70 -28 28 -10 57 -22 65
-25 8 -3 22 -10 30 -15 8 -5 62 -32 120 -61 136 -66 172 -87 257 -143 38 -26
74 -47 81 -47 7 0 12 -4 12 -9 0 -5 20 -22 45 -38 25 -15 45 -31 45 -35 0 -5
4 -8 10 -8 5 0 18 -7 27 -14 10 -8 45 -37 78 -63 33 -26 120 -107 194 -180
l134 -133 64 0 c35 0 63 -4 63 -10 0 -5 -4 -10 -9 -10 -4 0 -29 -16 -54 -35
-46 -35 -82 -45 -89 -23 -5 15 -114 23 -141 10 -12 -7 -33 -16 -47 -22 -37
-15 -122 -64 -199 -115 -38 -25 -73 -45 -78 -45 -9 0 -73 73 -73 83 0 7 -65
80 -160 179 -46 49 -87 92 -90 96 -3 4 -32 29 -65 56 -33 28 -67 57 -76 65
-29 29 -74 66 -91 76 -9 6 -60 39 -115 75 -119 79 -134 88 -153 97 -8 4 -48
26 -88 50 -41 24 -79 43 -86 43 -6 0 -20 6 -31 13 -11 7 -36 19 -55 27 -43 16
-116 47 -153 66 -16 8 -37 14 -47 14 -10 0 -20 4 -22 8 -1 5 -48 23 -103 41
-106 35 -141 50 -116 51 8 0 29 11 47 25 18 14 37 25 42 25 6 0 12 3 14 8 2 4
26 18 53 31 28 13 57 30 65 36 30 25 110 25 210 1z m-1170 -220 c139 -22 298
-82 417 -159 24 -15 47 -27 53 -27 5 0 10 -4 10 -9 0 -5 19 -20 43 -34 23 -14
60 -43 82 -64 22 -22 56 -50 75 -63 19 -13 38 -28 41 -33 3 -4 35 -38 70 -75
90 -95 147 -163 228 -272 39 -52 75 -100 81 -107 5 -7 10 -15 10 -19 0 -3 14
-23 30 -44 17 -21 30 -40 30 -43 0 -3 14 -27 32 -53 40 -60 178 -324 224 -429
7 -16 27 -60 43 -97 17 -37 39 -93 50 -125 11 -32 30 -83 41 -113 12 -30 24
-64 27 -75 2 -11 8 -29 13 -40 19 -47 71 -236 96 -350 9 -44 23 -105 31 -135
7 -30 13 -72 13 -95 1 -22 7 -56 13 -75 7 -19 14 -60 15 -90 2 -30 7 -92 13
-137 33 -284 8 -720 -58 -968 -22 -84 -73 -236 -88 -260 -6 -11 -15 -32 -19
-47 -3 -16 -11 -28 -16 -28 -6 0 -10 -8 -10 -18 0 -10 -5 -23 -10 -28 -6 -6
-21 -29 -33 -51 -62 -113 -251 -304 -324 -327 -13 -4 -23 -12 -23 -17 0 -5 -7
-9 -16 -9 -8 0 -25 -5 -37 -12 -12 -7 -51 -20 -87 -30 -82 -22 -304 -25 -371
-4 -24 7 -71 21 -104 31 -62 18 -240 101 -263 122 -6 6 -21 15 -32 18 -11 3
-20 11 -20 16 0 5 -5 9 -11 9 -6 0 -28 13 -49 30 -21 16 -43 30 -49 30 -6 0
-11 4 -11 8 0 5 -19 23 -42 40 -60 43 -223 204 -283 279 -27 35 -53 63 -57 63
-5 0 -8 6 -8 14 0 8 -4 16 -9 18 -19 7 -128 161 -208 293 -7 11 -28 46 -47 78
-20 32 -36 63 -36 68 0 5 -4 9 -9 9 -5 0 -14 12 -20 28 -6 15 -15 34 -20 42
-5 8 -23 44 -39 80 -17 36 -44 95 -61 133 -17 37 -31 73 -31 80 0 8 -3 17 -6
20 -11 10 -54 120 -54 137 0 8 -7 24 -15 34 -8 11 -15 32 -15 46 0 14 -7 35
-15 46 -8 10 -15 28 -15 39 0 11 -7 33 -15 49 -8 15 -15 38 -15 50 0 11 -7 34
-15 50 -8 15 -15 37 -15 47 0 10 -6 36 -14 56 -7 21 -22 81 -31 133 -10 52
-24 112 -32 134 -7 21 -13 57 -13 80 -1 22 -7 70 -15 106 -8 36 -15 90 -15
120 -1 30 -7 100 -14 155 -29 208 -11 536 43 845 15 83 94 326 112 345 5 5 9
15 9 22 0 21 89 172 144 243 92 120 214 219 326 264 25 10 54 22 65 27 11 4
43 10 70 12 28 3 66 9 85 15 48 14 81 13 180 -2z m491 -56 c19 -6 49 -12 65
-14 16 -3 65 -14 109 -26 44 -11 97 -25 118 -29 21 -5 44 -14 50 -20 6 -6 21
-11 33 -11 12 0 35 -6 51 -14 66 -34 117 -55 124 -51 3 3 12 -2 19 -10 7 -8
18 -15 24 -15 25 0 317 -155 324 -172 2 -4 8 -8 14 -8 10 0 157 -96 168 -109
3 -4 36 -31 74 -60 39 -30 87 -70 109 -90 71 -66 147 -141 147 -146 0 -3 17
-22 38 -43 52 -51 112 -127 112 -141 0 -6 5 -11 10 -11 6 0 15 -11 21 -24 9
-20 6 -30 -25 -70 -30 -39 -36 -56 -36 -95 0 -50 9 -68 50 -95 29 -19 140 -22
158 -4 9 9 19 5 44 -19 18 -17 42 -33 52 -35 23 -4 47 -44 70 -118 9 -30 21
-62 25 -70 9 -16 34 -98 58 -190 34 -130 52 -269 63 -470 14 -270 12 -260 55
-260 43 0 48 14 47 144 -2 119 -30 419 -43 453 -5 13 -9 38 -9 55 0 17 -6 51
-14 77 -53 171 -111 348 -116 356 -4 6 -12 25 -18 43 -11 32 -10 34 57 101 64
65 71 70 124 76 71 9 162 -2 178 -21 6 -8 20 -14 31 -14 10 0 21 -7 24 -15 4
-8 11 -15 18 -15 15 0 166 -160 166 -177 0 -7 4 -13 9 -13 10 0 70 -97 101
-162 12 -27 26 -48 31 -48 5 0 9 -7 9 -16 0 -9 6 -28 14 -42 7 -15 23 -45 34
-68 25 -49 92 -237 99 -279 3 -16 10 -35 15 -42 5 -6 13 -33 18 -60 5 -26 18
-86 30 -133 27 -113 50 -238 60 -330 5 -41 13 -115 19 -165 17 -141 14 -431
-6 -581 l-17 -131 -45 -20 c-25 -12 -71 -31 -101 -43 -30 -12 -77 -33 -105
-45 -121 -56 -170 -78 -208 -91 -22 -8 -59 -23 -81 -33 -23 -11 -77 -34 -121
-52 -44 -18 -89 -39 -100 -46 -11 -7 -27 -13 -35 -13 -9 0 -21 -5 -28 -12 -10
-10 -56 -30 -107 -45 -11 -4 -26 -13 -33 -20 -7 -7 -19 -13 -26 -13 -6 0 -29
-9 -51 -20 -22 -11 -45 -20 -52 -20 -7 0 -13 -4 -13 -10 0 -5 -7 -10 -16 -10
-9 0 -28 -6 -42 -14 -15 -7 -43 -21 -62 -29 -19 -9 -56 -25 -81 -36 -25 -12
-51 -21 -57 -21 -7 0 -12 -4 -12 -10 0 -5 -7 -10 -15 -10 -14 0 -37 -9 -150
-60 -33 -15 -85 -38 -115 -50 -30 -12 -77 -32 -105 -45 -69 -31 -135 -56 -135
-50 0 11 24 55 30 55 4 0 29 44 55 98 58 114 68 139 114 272 43 122 78 294 95
465 20 196 20 511 0 644 -8 52 -14 112 -14 134 0 43 -25 197 -42 262 -6 22
-13 56 -15 75 -3 38 -28 145 -45 200 -6 19 -15 51 -19 70 -11 58 -36 140 -74
245 -20 55 -41 117 -47 138 -6 20 -14 37 -19 37 -5 0 -9 9 -9 20 0 11 -4 28
-9 38 -9 16 -33 70 -65 147 -19 46 -77 168 -87 185 -5 8 -14 27 -20 43 -6 15
-15 27 -20 27 -5 0 -9 9 -9 20 0 11 -7 23 -15 26 -8 4 -15 12 -15 19 0 13 -30
75 -41 85 -3 3 -29 46 -59 95 -46 76 -190 279 -210 295 -4 3 -24 28 -46 55
-97 123 -200 226 -364 363 -47 39 -169 122 -180 122 -5 0 -12 5 -15 10 -8 13
10 13 56 0z m-4111 -347 c0 -5 2 -133 5 -286 2 -153 9 -295 14 -315 5 -20 9
-44 10 -52 2 -38 21 -169 30 -210 6 -25 17 -81 26 -125 9 -44 21 -93 25 -110
5 -16 20 -77 34 -135 38 -158 141 -468 182 -542 8 -14 14 -31 14 -37 0 -6 14
-41 31 -78 65 -140 87 -188 93 -203 4 -8 22 -42 40 -75 19 -33 45 -80 59 -105
38 -71 51 -92 70 -112 9 -10 17 -22 17 -28 0 -12 60 -107 89 -139 12 -13 21
-29 21 -35 0 -6 8 -18 18 -27 9 -8 39 -45 67 -82 27 -37 52 -67 57 -67 4 0 8
-4 8 -10 0 -5 15 -24 33 -42 18 -18 45 -50 61 -70 16 -21 35 -38 42 -38 8 0
14 -6 14 -14 0 -14 180 -186 196 -186 5 0 44 -39 44 -44 0 -2 -21 0 -47 5
-129 25 -213 42 -263 54 -30 7 -91 21 -135 30 -44 9 -105 23 -135 30 -30 8
-98 23 -150 34 -52 12 -111 25 -130 30 -65 17 -170 44 -342 87 -35 8 -76 20
-93 26 -16 5 -46 13 -65 17 -19 4 -51 13 -70 19 -170 53 -238 72 -255 72 -11
0 -29 7 -39 15 -11 8 -30 15 -42 15 -12 0 -35 7 -50 15 -16 8 -37 15 -46 15
-9 0 -20 5 -23 10 -4 6 -10 8 -15 5 -5 -3 -11 -1 -15 5 -3 5 -17 10 -29 10
-13 0 -37 7 -52 15 -16 8 -38 15 -49 15 -11 0 -29 6 -40 14 -11 7 -31 16 -45
19 -25 5 -76 22 -115 38 -11 5 -49 18 -85 30 -36 12 -76 27 -90 34 -14 7 -45
21 -70 30 -75 29 -327 146 -410 191 -25 13 -57 29 -72 35 -16 6 -28 15 -28 20
0 5 -5 9 -11 9 -6 0 -30 13 -53 28 -22 15 -48 31 -56 35 -8 4 -28 16 -45 27
-16 11 -40 25 -52 31 -13 7 -23 16 -23 21 0 4 -5 8 -11 8 -6 0 -16 6 -23 13
-8 6 -24 19 -36 27 -49 33 -200 173 -200 186 0 3 -11 15 -23 27 -27 25 -97
127 -97 141 0 5 -6 17 -13 25 -20 23 -47 150 -47 218 0 33 7 82 16 109 19 57
74 175 90 189 6 6 26 30 44 55 34 45 128 142 185 191 61 51 182 139 192 139 5
0 18 9 28 20 10 11 22 20 27 20 5 0 27 12 51 27 62 41 71 46 124 73 26 14 50
28 51 33 2 4 8 7 13 7 6 0 83 35 172 79 146 70 257 119 357 156 19 7 60 23 90
35 83 34 242 91 270 97 14 3 34 12 45 19 11 8 32 14 47 14 16 0 28 4 28 9 0 5
15 12 33 16 17 3 52 13 77 21 25 7 90 27 145 44 55 17 114 35 130 41 17 6 48
15 70 19 22 5 51 13 65 19 31 12 40 13 40 4z m6890 -317 c41 -9 91 -22 110
-28 68 -22 140 -48 157 -57 10 -5 38 -17 63 -26 25 -9 52 -21 60 -26 8 -4 35
-19 60 -31 25 -13 63 -35 84 -50 21 -16 45 -28 53 -28 7 0 13 -4 13 -9 0 -5
14 -14 30 -21 17 -7 30 -16 30 -21 0 -5 7 -9 15 -9 8 0 15 -5 15 -10 0 -6 8
-14 18 -17 9 -4 22 -12 28 -17 30 -28 55 -46 63 -46 5 0 11 -3 13 -7 2 -5 32
-33 68 -63 107 -90 170 -147 170 -155 0 -9 40 -45 50 -45 6 0 10 -5 10 -10 0
-6 20 -31 45 -56 25 -24 45 -47 45 -50 0 -3 20 -26 45 -51 25 -24 67 -73 93
-106 26 -34 54 -69 62 -78 8 -9 35 -47 60 -84 25 -36 50 -72 56 -78 5 -7 13
-19 17 -27 9 -18 22 -39 60 -97 15 -24 27 -47 27 -53 0 -5 4 -10 9 -10 5 0 14
-12 20 -27 6 -16 34 -71 62 -123 28 -52 62 -123 75 -157 13 -35 28 -71 33 -80
16 -33 40 -97 57 -158 9 -33 22 -78 30 -100 7 -22 15 -64 18 -93 4 -50 3 -53
-22 -63 -15 -5 -40 -16 -57 -23 -16 -8 -50 -22 -75 -31 -50 -19 -87 -34 -140
-57 -19 -8 -46 -20 -60 -26 -14 -5 -45 -19 -70 -30 -25 -11 -85 -36 -135 -56
-99 -41 -124 -51 -157 -66 -56 -24 -307 -124 -343 -137 -22 -7 -62 -24 -90
-37 -27 -13 -75 -33 -105 -45 -30 -12 -64 -26 -75 -30 -11 -5 -40 -17 -65 -26
-25 -10 -59 -24 -77 -31 -52 -23 -63 -19 -63 24 0 20 7 58 15 84 17 59 21 512
4 633 -6 44 -13 103 -15 130 -6 62 -44 277 -51 288 -3 4 -9 32 -14 60 -14 90
-40 192 -50 202 -5 5 -9 18 -9 30 0 19 -54 187 -80 250 -7 17 -16 39 -20 50
-16 40 -52 120 -60 135 -5 8 -26 49 -46 90 -21 41 -42 80 -47 85 -4 6 -31 45
-59 89 -27 43 -70 98 -94 123 -24 24 -44 48 -44 53 0 6 -7 10 -15 10 -8 0 -15
4 -15 8 0 8 -95 82 -105 82 -3 0 -23 11 -46 25 -22 14 -63 30 -91 35 -64 13
-72 19 -59 54 13 33 36 56 84 85 20 12 37 27 37 32 0 5 6 9 14 9 8 0 16 4 18
8 2 5 37 32 78 60 74 52 76 52 140 49 36 -2 99 -12 140 -21z m5000 -478 c14
-5 39 -16 55 -24 17 -7 42 -16 58 -20 15 -3 30 -10 33 -15 3 -5 15 -9 28 -9
12 0 31 -7 42 -15 10 -8 28 -15 38 -15 11 0 42 -6 70 -14 284 -79 661 -80 917
0 26 8 56 14 68 14 12 0 38 9 58 20 21 11 43 20 49 20 14 0 22 -49 24 -145 0
-38 3 -95 4 -125 8 -133 21 -724 20 -925 -1 -169 -5 -235 -18 -283 -9 -35 -16
-72 -16 -82 0 -27 -75 -267 -105 -335 -40 -92 -105 -213 -124 -234 -12 -14
-14 -11 -8 24 3 22 11 90 17 150 6 61 15 151 21 200 20 177 29 310 24 333 -4
16 -13 22 -34 22 -16 0 -34 -7 -41 -15 -6 -8 -16 -63 -21 -122 -5 -59 -13
-135 -18 -168 -6 -33 -12 -94 -15 -135 -3 -41 -9 -97 -14 -125 -13 -62 -18
-253 -8 -280 5 -15 -3 -30 -36 -62 -41 -41 -92 -86 -113 -101 -38 -26 -135
-62 -169 -62 -21 0 -21 4 -23 218 -5 541 -15 822 -30 837 -21 22 -39 18 -62
-11 -18 -23 -19 -37 -16 -152 8 -239 16 -862 12 -862 -2 0 -18 7 -35 16 -59
29 -155 147 -201 249 -50 111 -60 134 -88 220 -32 96 -76 286 -87 375 -3 25
-10 61 -15 80 -6 19 -11 53 -11 75 0 22 -6 83 -14 135 -8 52 -16 131 -17 175
-3 98 -19 135 -57 135 -20 0 -33 -9 -47 -32 -11 -17 -30 -48 -42 -67 -13 -20
-28 -46 -35 -58 -6 -13 -15 -23 -20 -23 -4 0 -8 -5 -8 -11 0 -16 -157 -251
-172 -257 -5 -2 -8 -8 -8 -14 0 -5 -6 -15 -12 -23 -7 -7 -29 -32 -48 -56 -95
-117 -176 -177 -202 -151 -44 44 -32 345 28 712 27 167 35 203 65 295 17 50
53 160 80 245 28 85 59 173 69 195 9 22 25 67 35 100 9 33 21 69 26 80 8 20
36 96 46 127 5 17 10 16 103 -24z m-8930 -2489 c0 -6 27 -51 60 -101 33 -49
60 -91 60 -94 0 -11 -86 -2 -195 21 -66 14 -154 30 -195 36 -41 6 -79 14 -84
20 -6 6 -4 9 7 9 9 0 17 4 17 9 0 4 20 14 45 21 25 7 48 17 51 21 3 5 15 9 28
9 12 0 31 7 42 15 10 8 28 15 39 15 11 0 31 7 45 15 30 17 80 20 80 4z"/>
<path d="M13305 18945 c-38 -7 -88 -20 -110 -29 -76 -32 -166 -81 -190 -103
-13 -13 -27 -23 -29 -23 -6 0 -37 -24 -62 -48 -20 -20 -17 -60 6 -72 20 -11
70 -4 70 10 0 4 19 20 43 36 23 16 44 32 45 37 2 4 9 7 17 7 7 0 18 7 25 15 7
8 21 15 31 15 11 0 19 3 19 8 0 4 30 18 68 32 52 19 87 24 157 25 82 0 96 -3
155 -32 81 -41 145 -92 196 -160 21 -29 42 -53 47 -53 4 0 7 -5 7 -11 0 -5 15
-32 32 -60 26 -39 38 -49 61 -49 19 0 31 7 38 24 11 24 6 39 -41 111 -11 17
-24 40 -30 53 -5 12 -14 22 -20 22 -5 0 -10 4 -10 10 0 8 -96 110 -105 110 -2
0 -18 13 -35 29 -88 80 -248 120 -385 96z"/>
<path d="M10815 18908 c-69 -7 -154 -39 -219 -81 -30 -19 -138 -128 -171 -172
-17 -22 -32 -42 -35 -45 -3 -3 -12 -18 -22 -35 -9 -16 -24 -45 -35 -62 -19
-35 -14 -56 20 -77 14 -9 24 -4 51 24 18 20 37 47 41 60 4 13 13 29 19 35 6 6
25 29 41 50 53 70 133 142 185 167 43 21 148 48 186 48 36 0 139 -27 184 -48
59 -29 155 -85 158 -94 2 -4 8 -8 13 -8 5 0 18 -9 29 -20 25 -25 66 -35 84
-21 25 21 26 51 1 74 -41 39 -153 117 -168 117 -8 0 -17 7 -21 15 -3 8 -13 15
-23 15 -10 0 -27 7 -37 15 -11 8 -32 15 -46 15 -14 0 -31 5 -37 11 -16 16
-126 25 -198 17z"/>
<path d="M11029 17744 c-90 -16 -152 -39 -223 -86 -32 -21 -60 -38 -61 -38 -6
0 -86 -84 -120 -125 -84 -101 -145 -287 -145 -438 0 -84 23 -224 39 -240 6 -6
11 -24 11 -39 0 -15 4 -28 10 -28 5 0 13 -12 16 -27 4 -14 21 -47 38 -72 35
-53 149 -171 165 -171 6 0 11 -3 11 -7 0 -13 125 -83 147 -83 8 0 25 -8 39
-17 22 -14 53 -17 179 -17 95 0 158 3 166 10 8 6 30 16 49 23 58 20 110 44
110 53 0 4 6 8 13 8 7 0 20 8 28 18 21 23 58 52 65 52 19 0 118 132 148 195
10 22 22 48 28 58 34 67 48 146 48 278 0 126 -2 142 -30 218 -41 114 -86 194
-142 254 -26 28 -48 54 -48 57 -1 8 -88 70 -100 70 -5 0 -10 4 -10 9 0 5 -12
14 -27 20 -16 5 -54 21 -85 34 -89 38 -209 49 -319 31z m-119 -409 c7 -8 19
-15 26 -15 8 0 14 -6 14 -13 0 -7 5 -18 12 -25 16 -16 38 -82 38 -115 0 -36
-20 -117 -30 -117 -4 0 -12 -12 -18 -26 -7 -15 -31 -33 -58 -46 l-47 -20 -43
22 c-82 40 -120 123 -102 221 10 57 29 92 66 127 31 27 121 32 142 7z"/>
<path d="M13176 17725 c-15 -8 -34 -15 -41 -15 -20 0 -139 -62 -148 -77 -4 -7
-13 -13 -20 -13 -24 -1 -157 -144 -157 -169 0 -6 -4 -11 -8 -11 -12 0 -73
-130 -97 -204 -15 -46 -19 -86 -18 -196 1 -137 14 -214 49 -283 8 -16 14 -33
14 -38 0 -31 173 -239 200 -239 4 0 10 -6 13 -12 11 -28 178 -100 274 -118 75
-15 293 0 293 20 0 4 20 13 44 19 25 6 48 15 51 21 3 5 15 10 26 10 11 0 22 7
25 15 4 8 10 15 14 15 18 0 170 143 170 160 0 5 9 19 20 30 11 11 20 27 20 35
0 8 4 15 9 15 5 0 12 14 16 30 4 17 10 30 13 30 19 0 61 195 62 285 0 57 -23
195 -40 240 -18 50 -73 159 -87 173 -7 7 -13 17 -13 21 0 12 -101 114 -147
150 -52 40 -143 89 -174 94 -13 2 -37 9 -52 15 -43 18 -275 16 -311 -3z m-45
-413 c63 -45 89 -171 52 -250 -53 -112 -155 -134 -232 -52 -69 73 -68 216 3
286 58 59 110 64 177 16z"/>
<path d="M12150 16315 c-19 -7 -43 -14 -52 -14 -33 -2 -161 -85 -181 -118 -10
-18 -22 -33 -25 -33 -4 0 -15 -26 -26 -58 -18 -57 -18 -60 0 -122 75 -252 543
-327 770 -122 60 54 84 107 84 186 0 64 -29 146 -51 146 -5 0 -9 7 -9 15 0 8
-6 15 -14 15 -8 0 -16 6 -19 13 -6 16 -118 71 -186 91 -66 20 -241 20 -291 1z
m252 -91 c85 -20 125 -41 175 -90 47 -46 58 -77 48 -130 -8 -46 -79 -117 -138
-137 -95 -34 -148 -47 -192 -47 -48 0 -168 25 -195 41 -8 5 -25 13 -38 19 -33
14 -86 70 -101 106 -19 49 -5 102 41 146 95 92 254 128 400 92z"/>
<path d="M13728 15673 c-10 -2 -18 -9 -18 -14 0 -10 -84 -94 -159 -158 -53
-46 -214 -159 -241 -169 -8 -3 -17 -8 -20 -12 -5 -6 -133 -69 -195 -96 -16 -7
-46 -20 -67 -28 -20 -9 -41 -16 -48 -16 -7 0 -26 -6 -43 -14 -34 -15 -98 -33
-162 -45 -22 -5 -53 -13 -68 -20 -15 -6 -51 -13 -80 -16 -29 -2 -72 -10 -97
-16 -29 -8 -148 -12 -335 -12 -256 -1 -304 2 -410 21 -156 28 -213 42 -252 58
-17 8 -38 14 -47 14 -14 0 -84 24 -146 51 -73 32 -89 39 -130 59 -25 12 -58
30 -75 40 -16 11 -44 26 -61 35 -17 9 -40 24 -50 33 -11 9 -38 30 -61 46 -24
16 -43 33 -43 37 0 5 -5 9 -11 9 -7 0 -45 34 -85 75 -79 81 -107 92 -126 50
-18 -41 6 -72 173 -221 41 -37 174 -124 188 -124 6 0 11 -4 11 -9 0 -5 12 -14
28 -20 15 -5 47 -21 72 -34 25 -13 63 -32 85 -42 22 -10 52 -24 67 -32 14 -7
34 -13 45 -13 10 0 27 -7 37 -15 11 -8 30 -15 43 -15 12 0 37 -6 55 -14 38
-16 117 -36 168 -43 19 -2 58 -9 85 -14 77 -15 330 -38 425 -39 113 0 329 18
410 35 36 8 88 16 115 19 63 7 206 48 305 86 30 12 66 25 80 29 32 11 223 102
230 110 3 3 23 15 45 26 22 11 46 26 53 32 7 7 20 13 28 13 8 0 17 7 20 15 4
8 12 15 20 15 8 0 14 4 14 8 0 5 9 13 19 18 30 14 119 91 204 175 82 82 97
118 58 139 -20 10 -25 11 -53 3z"/>
<path d="M17105 13034 c-95 -37 -134 -61 -197 -126 -38 -37 -68 -75 -68 -83 0
-8 -4 -15 -10 -15 -5 0 -10 -5 -10 -12 0 -6 -8 -30 -18 -52 -48 -107 -55 -211
-24 -351 15 -64 70 -185 84 -185 5 0 8 -4 8 -10 0 -13 95 -110 108 -110 5 0
12 -7 16 -15 3 -8 11 -15 17 -15 7 0 20 -6 28 -13 49 -40 216 -65 309 -47 83
15 241 105 242 136 0 7 6 14 14 17 37 15 100 170 116 289 11 79 0 208 -20 247
-5 9 -19 39 -32 66 -82 180 -258 296 -448 295 -42 -1 -93 -8 -115 -16z m199
-91 c34 -9 84 -30 111 -47 54 -33 115 -88 115 -104 0 -6 3 -12 8 -14 19 -8 53
-72 73 -138 18 -60 21 -87 16 -165 -3 -51 -12 -108 -20 -126 -8 -19 -18 -41
-21 -49 -6 -15 -21 -40 -41 -68 -26 -36 -84 -84 -125 -103 -25 -11 -53 -25
-63 -30 -31 -17 -169 -12 -218 7 -153 60 -249 181 -279 352 -31 171 57 375
193 449 34 19 138 50 171 52 11 1 47 -7 80 -16z"/>
<path d="M7985 12638 c-33 -12 -62 -24 -65 -27 -3 -3 -18 -13 -33 -21 -23 -11
-105 -94 -135 -135 -53 -74 -98 -248 -89 -347 12 -136 62 -227 158 -289 50
-32 55 -33 153 -33 75 0 109 5 131 17 17 9 36 17 43 17 6 0 12 4 12 9 0 5 10
13 23 17 29 9 117 98 148 149 60 99 73 151 74 290 0 127 -1 131 -33 195 -79
157 -222 215 -387 158z m203 -91 c35 -16 89 -71 97 -99 4 -13 13 -29 19 -37
18 -23 14 -219 -6 -266 -9 -22 -19 -47 -22 -55 -21 -54 -126 -158 -190 -189
-66 -33 -170 -32 -220 1 -106 69 -139 241 -78 408 16 45 50 102 65 108 4 2 7
8 7 13 0 28 132 118 195 133 28 6 102 -3 133 -17z"/>
<path d="M8955 12331 c-126 -14 -244 -109 -311 -251 -88 -185 -81 -349 22
-542 21 -38 116 -123 166 -146 67 -32 160 -45 222 -32 60 14 173 68 180 87 3
7 11 13 18 13 16 1 68 70 106 142 50 95 65 161 59 278 -6 125 -23 189 -72 265
-92 145 -217 205 -390 186z m173 -111 c58 -32 76 -44 90 -62 7 -9 18 -23 25
-30 70 -70 113 -296 72 -374 -8 -16 -15 -39 -15 -52 0 -38 -82 -151 -142 -197
-74 -56 -206 -68 -287 -26 -87 45 -147 124 -179 237 -25 87 -26 121 -5 209 17
74 69 184 90 192 7 3 13 9 13 14 0 18 43 51 120 91 50 26 168 25 218 -2z"/>
<path d="M15895 12313 c-84 -25 -132 -52 -189 -104 -141 -129 -192 -290 -161
-509 4 -30 14 -64 21 -75 8 -11 14 -29 14 -42 0 -12 5 -25 11 -28 5 -4 14 -17
20 -28 5 -12 15 -30 21 -41 20 -30 108 -116 118 -116 6 0 10 -3 10 -7 0 -5 15
-17 33 -27 126 -76 303 -86 432 -25 62 29 165 111 165 131 0 5 9 18 20 30 63
68 112 267 90 372 -4 22 -13 64 -18 92 -16 77 -70 170 -140 241 -34 34 -67 63
-72 63 -5 0 -15 6 -22 13 -20 19 -77 44 -137 61 -68 20 -151 19 -216 -1z m205
-96 c244 -68 380 -371 274 -614 -8 -17 -14 -34 -14 -38 0 -4 -17 -28 -37 -54
-43 -55 -110 -107 -147 -117 -14 -3 -29 -10 -32 -15 -3 -5 -48 -9 -101 -9 -94
0 -110 4 -201 49 -51 24 -136 121 -173 198 -32 65 -34 72 -34 188 0 95 4 131
19 170 19 49 54 107 69 113 4 2 7 10 7 18 0 8 7 14 15 14 8 0 15 4 15 9 0 15
78 63 133 82 61 21 144 23 207 6z"/>
<path d="M9970 11975 c-73 -17 -123 -37 -133 -52 -4 -7 -12 -13 -18 -13 -21 0
-98 -67 -130 -113 -19 -27 -40 -55 -46 -62 -7 -7 -13 -17 -13 -20 0 -4 -6 -21
-13 -38 -37 -86 -41 -109 -45 -219 -4 -153 17 -230 92 -333 30 -41 106 -115
118 -115 4 0 13 -6 20 -13 57 -54 234 -82 332 -53 25 8 49 14 52 14 8 0 69 25
74 31 12 14 70 51 80 51 5 0 10 7 10 15 0 8 7 15 15 15 8 0 15 7 15 15 0 8 4
15 9 15 4 0 21 19 37 43 16 23 32 44 37 45 4 2 7 8 7 14 0 5 6 24 14 41 7 18
19 46 26 62 7 17 15 82 18 145 4 99 1 125 -18 188 -12 39 -33 88 -46 108 -13
19 -24 37 -24 40 0 8 -21 32 -68 79 -54 52 -132 92 -220 111 -78 16 -108 16
-182 -1z m250 -117 c84 -44 190 -172 190 -229 0 -8 6 -21 13 -28 17 -17 17
-245 -1 -263 -6 -6 -12 -21 -12 -32 -1 -36 -87 -149 -151 -198 -80 -63 -146
-82 -253 -75 -48 3 -97 12 -121 23 -49 23 -154 127 -176 174 -45 96 -52 129
-46 234 6 111 16 147 64 221 54 84 114 138 193 177 71 35 230 33 300 -4z"/>
<path d="M14540 11868 c-14 -6 -45 -20 -70 -31 -59 -27 -160 -105 -160 -123 0
-4 -6 -12 -14 -18 -20 -16 -65 -102 -88 -166 -25 -73 -27 -276 -3 -341 27 -71
79 -171 92 -176 7 -3 13 -9 13 -14 0 -10 62 -73 81 -83 26 -13 57 -32 70 -43
58 -46 264 -60 357 -24 104 41 185 108 238 196 53 88 61 109 79 183 20 79 17
208 -6 272 -23 65 -51 135 -58 140 -3 3 -12 18 -20 33 -8 15 -38 49 -67 75
-71 64 -71 64 -139 97 -54 27 -71 30 -170 32 -65 2 -120 -2 -135 -9z m232 -97
c72 -25 92 -37 147 -92 91 -89 149 -245 136 -364 -12 -115 -62 -221 -137 -290
-27 -25 -52 -45 -56 -45 -5 0 -13 -5 -19 -11 -24 -24 -118 -49 -183 -49 -119
0 -226 61 -308 175 -4 6 -15 26 -24 45 -43 87 -49 116 -49 212 0 86 3 105 32
175 18 43 38 83 43 90 6 7 22 26 36 44 86 107 251 155 382 110z"/>
<path d="M13182 11650 c-35 -12 -83 -34 -109 -50 -44 -28 -143 -126 -143 -141
0 -4 -6 -14 -12 -21 -18 -20 -48 -77 -48 -92 0 -7 -7 -27 -15 -44 -12 -23 -16
-64 -16 -151 -1 -130 19 -216 68 -293 12 -21 23 -41 23 -44 0 -13 131 -133
153 -140 12 -4 24 -9 27 -13 16 -19 87 -40 156 -46 117 -9 207 12 291 67 23
16 46 28 52 28 6 0 11 4 11 8 0 5 13 21 28 38 58 60 115 159 127 219 5 22 10
47 12 55 16 59 14 170 -5 241 -19 70 -27 93 -54 139 -4 8 -12 24 -17 35 -21
45 -148 161 -187 171 -13 3 -24 10 -24 15 0 5 -10 9 -23 9 -13 0 -28 5 -34 11
-7 7 -54 13 -105 15 -74 3 -106 0 -156 -16z m220 -90 c48 -13 158 -76 158 -91
0 -5 7 -9 15 -9 8 0 15 -5 15 -11 0 -7 6 -17 14 -23 23 -18 67 -107 83 -166
29 -107 18 -217 -32 -335 -19 -43 -156 -185 -179 -185 -7 0 -27 -7 -42 -15
-19 -10 -58 -15 -111 -15 -119 0 -181 27 -274 121 -81 82 -119 180 -119 309 0
128 31 214 110 304 38 42 132 106 157 106 11 0 23 4 29 9 5 6 32 11 59 14 54
4 53 4 117 -13z"/>
<path d="M11730 11593 c-66 -29 -114 -56 -138 -77 -116 -101 -174 -198 -193
-327 -14 -96 -6 -235 17 -288 40 -91 60 -131 67 -131 4 0 7 -5 7 -11 0 -18 81
-98 134 -132 87 -56 141 -69 263 -65 95 3 115 7 168 33 73 35 75 36 145 105
97 95 156 247 153 395 -4 224 -149 432 -347 498 -66 22 -227 22 -276 0z m246
-90 c57 -19 114 -51 114 -64 0 -5 5 -9 10 -9 12 0 50 -37 50 -49 0 -5 6 -11
14 -14 16 -6 64 -104 78 -157 57 -216 -40 -441 -228 -530 -53 -25 -77 -30
-137 -30 -72 0 -158 22 -185 47 -7 7 -16 13 -20 13 -28 1 -152 151 -152 184 0
8 -4 17 -9 20 -18 12 -33 135 -26 218 19 218 183 383 386 387 30 1 78 -7 105
-16z"/>
<path d="M9391 9122 c-97 -2 -160 -7 -168 -14 -8 -6 -13 -25 -11 -42 l3 -31
575 -6 c316 -3 595 -9 620 -13 25 -4 108 -11 185 -16 220 -14 472 -44 630 -75
89 -17 186 -35 250 -45 28 -4 63 -13 78 -19 16 -6 40 -11 54 -11 14 0 39 -6
56 -14 34 -14 95 -31 166 -47 24 -5 49 -13 55 -18 6 -4 22 -11 36 -14 28 -6
79 -23 130 -45 41 -17 77 -32 140 -58 68 -28 269 -132 318 -165 24 -16 47 -29
52 -29 4 0 10 -3 12 -8 2 -4 26 -23 53 -43 114 -81 335 -299 335 -330 0 -5 4
-9 8 -9 11 0 112 -153 112 -168 0 -7 5 -12 10 -12 6 0 10 -6 10 -14 0 -17 48
-76 61 -76 5 0 18 9 29 20 21 21 20 59 -4 90 -6 8 -24 41 -40 72 -16 32 -37
66 -48 77 -10 11 -18 25 -18 31 0 5 -4 10 -10 10 -5 0 -17 14 -26 31 -9 17
-31 47 -50 66 -19 18 -34 36 -34 38 0 5 -130 135 -135 135 -2 0 -18 12 -34 28
-49 45 -109 92 -119 92 -6 0 -12 6 -15 13 -3 6 -22 21 -43 32 -21 11 -61 35
-89 53 -52 33 -299 157 -370 185 -144 56 -183 71 -210 78 -16 4 -43 12 -60 17
-16 6 -57 18 -90 27 -33 9 -73 21 -90 27 -16 6 -50 14 -75 18 -25 5 -88 18
-140 30 -52 12 -117 26 -145 30 -27 4 -77 13 -110 19 -133 25 -180 32 -273 41
-53 5 -140 13 -192 19 -236 27 -414 38 -660 41 -447 5 -559 5 -719 2z"/>
<path d="M14620 5073 c-14 -10 -44 -37 -68 -60 -23 -24 -45 -43 -47 -43 -2 0
-33 -28 -68 -62 -34 -35 -92 -88 -127 -118 -36 -30 -93 -83 -128 -117 -35 -35
-65 -63 -67 -63 -1 0 -23 -19 -48 -42 -25 -24 -86 -79 -135 -123 -98 -88 -111
-110 -83 -139 27 -27 56 -16 126 49 168 156 245 227 295 272 30 27 75 67 98
89 24 21 62 57 85 79 23 22 86 80 139 129 54 49 100 97 103 107 4 11 -2 26
-14 38 -25 25 -30 26 -61 4z"/>
<path d="M20590 9520 c-113 -43 -182 -92 -257 -185 -145 -180 -193 -436 -116
-630 25 -63 57 -125 65 -125 5 0 8 -5 8 -10 0 -15 89 -99 125 -118 70 -38 130
-52 216 -52 77 0 97 4 173 36 47 20 86 40 86 45 0 5 5 9 11 9 15 0 139 123
139 138 0 6 4 12 9 12 5 0 14 14 21 30 7 17 16 30 21 30 5 0 9 7 9 16 0 9 6
28 14 42 39 77 51 136 50 267 0 157 -17 218 -89 330 -34 53 -114 122 -179 154
-59 29 -71 31 -162 30 -66 -1 -114 -7 -144 -19z m240 -92 c52 -15 132 -70 157
-107 21 -32 45 -82 67 -140 32 -84 20 -282 -24 -386 -32 -76 -50 -103 -109
-163 -122 -125 -266 -170 -396 -125 -27 10 -52 20 -55 23 -3 3 -21 16 -40 29
-37 25 -92 98 -124 165 -16 34 -20 64 -20 176 0 114 3 144 22 197 25 71 68
153 88 169 8 6 14 14 14 17 0 19 91 91 150 119 101 49 169 55 270 26z"/>
<path d="M26703 5644 c-7 -3 -13 -13 -13 -21 0 -20 -29 -111 -46 -145 -8 -14
-14 -31 -14 -37 0 -11 -53 -130 -71 -161 -5 -8 -12 -22 -15 -30 -15 -40 -80
-160 -86 -160 -5 0 -8 -5 -8 -11 0 -6 -13 -28 -30 -49 -16 -21 -30 -43 -30
-49 0 -6 -4 -11 -9 -11 -5 0 -12 -9 -16 -19 -8 -25 -233 -253 -273 -277 -18
-10 -32 -22 -32 -26 0 -4 -6 -8 -14 -8 -8 0 -16 -6 -19 -13 -2 -7 -26 -23 -52
-37 -52 -28 -61 -33 -122 -72 -23 -15 -53 -30 -67 -34 -14 -3 -26 -10 -26 -15
0 -5 -9 -9 -20 -9 -31 0 -95 -45 -97 -68 -2 -30 29 -54 61 -46 14 3 26 10 26
15 0 5 7 9 15 9 18 0 130 53 217 103 71 40 218 147 218 158 0 5 6 9 13 9 11 0
172 160 222 221 28 34 139 199 156 231 102 195 158 323 178 403 4 17 13 41 20
53 7 13 11 40 9 60 -3 33 -6 37 -33 39 -16 1 -36 0 -42 -3z"/>
</g>
</svg>
